<svg width="747" height="453" viewBox="0 0 747 453" fill="none" xmlns="http://www.w3.org/2000/svg">
<path d="M680.461 350.633C680.461 351.229 680.461 351.826 680.461 351.826C680.461 372.103 664.188 388.205 643.697 388.205C623.205 388.205 606.932 372.103 606.932 351.826C606.932 351.229 606.932 350.633 606.932 350.633H541.238C541.841 406.096 587.043 450.825 643.697 450.825C699.747 450.825 745.552 406.096 746.155 350.633H680.461Z" fill="#FF4575"/>
<path d="M746.154 349.465C745.537 350.081 745.537 350.081 746.154 349.465C745.537 350.081 746.154 350.081 746.154 349.465Z" fill="#FF0055"/>
<path d="M745.553 350.046C744.951 293.986 699.748 249.258 643.095 249.258C587.044 249.258 541.239 293.986 540.637 349.45C540.637 349.45 540.637 349.45 540.637 350.046C540.637 350.046 540.637 350.046 540.637 350.643H606.933C607.536 331.559 623.809 316.053 643.698 316.053C663.587 316.053 679.257 331.559 680.462 350.643L745.553 350.046C746.156 350.046 745.553 350.046 745.553 350.046Z" fill="#FFC700"/>
<path d="M520.137 350.038C520.137 405.502 474.935 450.827 418.281 450.827C362.231 450.827 316.426 405.502 316.426 350.038C316.426 294.575 361.628 249.25 418.281 249.25C446.005 249.25 471.319 260.581 490.002 278.473C490.002 278.473 368.86 351.231 370.066 350.038H520.137Z" fill="#0025FF"/>
<path d="M228.438 249.258H298.35V450.835H228.438V249.258Z" fill="#FFAEC1"/>
<path d="M250.737 443.675C248.929 443.675 247.724 443.078 245.916 443.078H241.697C236.875 443.078 232.656 443.675 228.438 444.867V450.831H270.626C267.01 449.042 263.394 447.253 259.778 446.06C256.764 444.867 253.751 444.271 250.737 443.675Z" fill="white"/>
<path d="M281.478 428.779C276.053 424.605 270.026 421.026 263.397 418.641C261.589 418.044 259.78 417.448 258.575 416.852C256.767 416.255 254.959 415.659 253.151 415.659C251.343 415.062 249.535 415.062 247.727 415.062H242.302C237.481 415.062 233.262 415.659 229.043 416.852V427.586C233.262 426.394 238.083 425.201 242.302 425.201C254.356 425.201 265.205 430.568 274.848 438.321C279.669 441.9 283.888 446.074 288.107 450.845C288.107 451.442 288.71 451.442 288.71 452.038H298.353V444.882C292.929 438.321 287.504 433.55 281.478 428.779Z" fill="white"/>
<path d="M297.748 414.453C292.926 409.682 287.502 404.911 282.077 400.14C276.05 395.965 270.024 391.791 262.791 388.809L257.367 387.02C255.559 386.423 253.148 386.423 251.34 385.827C248.929 385.23 247.121 385.23 245.313 385.23H242.902C242.3 385.23 242.902 385.23 241.697 385.23H241.094H239.889C238.081 385.23 235.67 385.23 233.862 385.827L228.438 387.02V397.158C229.04 397.158 229.643 396.562 230.246 396.562L235.067 395.369C236.875 394.773 238.081 395.369 239.889 394.773H241.094H241.697C241.094 394.773 241.697 394.773 241.697 394.773H244.108C245.916 394.773 247.724 394.773 248.929 395.369C250.135 395.965 251.943 395.965 253.148 396.562L257.367 398.351C263.394 400.736 268.818 404.315 273.64 408.489C282.077 415.646 289.912 423.995 296.542 432.345L297.748 414.453Z" fill="white"/>
<path d="M282.08 370.91C276.053 366.735 270.026 362.56 262.794 359.578L257.37 357.789C255.562 357.193 253.151 357.193 251.343 356.596C249.535 356 247.727 356 245.918 356H243.508C242.905 356 243.508 356 242.302 356H241.7H240.494C238.686 356 236.275 356 234.467 356.596L229.043 357.789V367.331C229.646 367.331 230.248 366.735 230.851 366.735L235.673 365.542C237.481 364.946 238.686 365.542 240.494 364.946H241.7H242.302C241.7 364.946 242.302 364.946 242.905 364.946H245.316C247.124 364.946 248.932 364.946 250.137 365.542C251.343 366.138 253.151 366.138 254.356 366.735L259.178 368.524C265.205 370.91 270.629 374.488 276.053 378.662C284.491 385.819 291.723 393.572 298.956 401.921V385.223C292.929 380.452 287.504 375.084 282.08 370.91Z" fill="white"/>
<path d="M281.475 341.113C275.448 336.938 269.421 332.763 262.188 329.781L256.764 327.992C254.956 327.396 252.545 327.396 250.737 326.8C248.929 326.203 247.121 326.203 245.313 326.203H242.902C242.3 326.203 242.902 326.203 241.697 326.203H241.094H239.889C238.081 326.203 235.67 326.203 233.862 326.8L228.438 327.992V336.938C229.04 336.938 229.643 336.342 230.246 336.342L235.067 335.149C236.875 334.552 238.081 335.149 239.889 334.552H241.094H241.697C241.094 334.552 241.697 334.552 242.3 334.552H244.71C246.518 334.552 248.326 334.552 249.532 335.149C250.737 335.745 252.545 335.745 253.751 336.342L258.572 338.131C264.599 340.516 270.024 344.095 275.448 348.269C283.886 354.829 291.118 363.179 297.748 371.528V356.022C292.926 351.251 287.502 345.884 281.475 341.113Z" fill="white"/>
<path d="M281.492 323.805C287.519 329.172 292.943 335.732 298.368 342.293V327.383C297.162 326.19 295.957 324.997 294.751 323.805H281.492Z" fill="white"/>
<path d="M133.801 347.073V450.843H203.111V346.477L150.074 347.073H133.801Z" fill="#0025FF"/>
<path d="M101.859 249.258C45.8088 249.258 0.00390625 292.197 0.00390625 345.872V450.835H69.9166V347.064H134.405H150.678H203.715C203.112 292.794 157.91 249.258 101.859 249.258Z" fill="#FFC700"/>
<path d="M676.203 0.558594H746.116V202.135H676.203V0.558594Z" fill="#FF4575"/>
<path d="M617.753 0.558594H547.84V101.347H617.753V0.558594Z" fill="#FFAEC1"/>
<path d="M547.84 106.123V202.14H617.753V106.123V101.352H547.84V106.123Z" fill="#0025FF"/>
<path d="M630.396 69.7383C626.177 72.7202 621.356 75.7021 617.137 78.684V90.0153C626.78 82.8587 636.423 76.2985 646.066 69.7383H630.396Z" fill="#0018A4"/>
<path d="M626.177 106.108C637.628 95.97 650.285 87.0243 662.942 78.0785L672.585 71.5183L675.598 69.1328H660.531C646.669 78.0785 632.807 87.6206 619.548 98.3555C618.945 98.9519 617.739 99.5483 617.137 100.741V114.458C620.15 112.072 623.164 109.09 626.177 106.108Z" fill="#0018A4"/>
<path d="M640.049 122.224C644.871 116.26 649.692 110.892 655.719 106.121C667.17 95.983 679.827 87.0372 692.483 78.0915C696.702 75.1096 700.921 72.7241 705.14 69.7422H691.278C676.813 78.6879 662.951 88.23 649.692 99.5612C643.665 104.929 637.638 110.296 632.817 116.26C627.392 122.224 623.174 129.38 620.16 137.133H631.009C633.419 131.766 636.433 126.995 640.049 122.224Z" fill="#0018A4"/>
<path d="M685.859 106.114C696.708 95.9752 709.364 86.4331 722.021 76.891C726.24 73.9091 729.856 70.9272 734.075 67.9453L720.816 68.5417C706.954 78.0838 693.092 88.2223 680.435 99.5535C674.408 104.921 668.984 110.885 664.162 116.849C659.341 122.812 655.122 129.969 652.711 137.722L662.354 137.126C664.765 131.758 667.778 126.391 671.394 121.62C675.011 116.849 680.435 111.481 685.859 106.114Z" fill="#0018A4"/>
<path d="M715.389 105.518C725.032 97.169 735.278 89.4161 746.126 82.2595V73.9102C734.072 82.2595 721.416 90.6088 709.965 100.151C703.938 105.518 697.911 110.886 693.089 116.85C688.267 122.813 683.446 129.97 681.035 137.127H690.076C695.5 125.199 705.143 115.06 715.389 105.518Z" fill="#0018A4"/>
<path d="M744.919 105.521C745.522 105.521 745.522 104.925 746.124 104.925V95.3828C744.316 97.172 741.905 98.3647 740.097 100.154C734.07 105.521 728.043 110.889 723.222 116.853C718.4 122.816 714.181 129.377 711.168 137.13H719.606C722.016 131.762 725.633 126.395 729.249 121.624C734.07 115.66 739.495 110.889 744.919 105.521Z" fill="#0018A4"/>
<path d="M746.13 126.984C744.322 129.966 742.514 133.545 741.309 137.123H746.13V126.984Z" fill="#0018A4"/>
<path d="M526.773 202.135C470.723 202.135 424.918 156.81 424.918 101.347C424.918 45.8836 470.12 0.558594 526.773 0.558594V202.135Z" fill="#FFD338"/>
<path d="M310.996 1.14744C339.323 1.14744 364.636 12.4787 382.717 30.3701C364.033 11.8823 338.72 0.551058 310.996 1.14744C254.343 1.14744 209.141 45.876 209.141 101.936C209.141 45.876 254.343 1.14744 310.996 1.14744Z" fill="#D1A537"/>
<path d="M310.391 202.73C338.115 202.73 363.428 191.398 382.111 173.507C382.111 173.507 261.572 101.345 262.175 101.941H208.535C209.138 157.405 254.34 202.73 310.391 202.73Z" fill="#FF4575"/>
<path d="M412.851 101.337C412.851 73.3067 401.399 48.2587 383.318 30.3672C365.238 12.4758 339.322 1.14453 311.598 1.14453C255.547 1.14453 209.742 45.8731 209.742 101.933H263.382L412.851 101.337Z" fill="#FFAEC1"/>
<path d="M93.4297 1.16406H163.342V202.741H93.4297V1.16406Z" fill="#FF4575"/>
<path d="M195.277 38.1367V107.317H0.00390625V38.1367H195.277Z" fill="#0025FF"/>
</svg>
