<?xml version="1.0" encoding="UTF-8"?>
<svg id="a" data-name="Lager 1" xmlns="http://www.w3.org/2000/svg" viewBox="0 0 539.6 575.52">
  <defs>
    <style>
      .b {
        fill: #857265;
      }

      .c {
        fill: #695a51;
      }

      .d {
        fill: #44965c;
      }

      .e {
        fill: #3b2f27;
      }

      .f {
        fill: #cec56f;
      }

      .g {
        fill: #235f35;
      }

      .h {
        opacity: .24;
      }

      .h, .i {
        fill: #fff;
      }

      .j {
        fill: #b3bc78;
      }

      .k {
        fill: #2f7d46;
      }

      .i {
        opacity: .08;
      }

      .l {
        fill: #4a3d35;
      }

      .m {
        fill: #a19863;
      }

      .n {
        fill: #010101;
        opacity: .27;
      }
    </style>
  </defs>
  <path class="c" d="m321.33,357.48l-22.28,212.76s-12.5,5.29-28.32,5.29-29.56-5.29-29.56-5.29l-.84-8.09-.2-1.95-.44-4.26-20.78-198.46h102.44Z"/>
  <path class="l" d="m316.69,401.89l-.2,1.88c-14.09.5-29.01,1.35-40.27-7.09-.6-.43-1.17-.9-1.74-1.4-1.11-.96-2.19-2.03-3.22-3.22-3.13-3.61-6.49-7.32-11.02-9.16-5.48-2.22-11.48-2.88-17.35-3-6.75-.14-13.47.31-20.22.4-.46,0-.92,0-1.38,0l-.2-1.86c.22,0,.44,0,.66,0,6.72-.09,13.46-.6,20.19-.45,9.57.2,19.79,1.16,26.89,8.3,2.73,2.76,5.06,5.92,8.01,8.43.56.48,1.14.93,1.75,1.35.3.21.61.41.93.6,4.77,2.89,10.18,4.44,15.7,5.03,7.15.76,14.3.43,21.46.19Z"/>
  <path class="l" d="m318.74,382.23l-.2,2.01c-4.93.65-9.83,1.69-14.73,3.33-8.37,2.81-16.66,6.19-25.21,8.5-.79.21-1.58.42-2.37.61-1.21.3-2.42.57-3.63.81-16.74,3.34-33.13.19-49.68-1.74l-.21-2c17.31,1.97,34.42,5.4,51.79,1.52.78-.17,1.57-.36,2.36-.56.09-.03.18-.04.26-.07,10.61-2.82,20.69-7.26,31.24-10.31,3.44-.99,6.91-1.66,10.4-2.11Z"/>
  <path class="l" d="m315.75,410.8l-.21,2.03c-13.5-2.16-27.04-3.23-41.01-2.78-10.38.34-20.88.93-31.24-.12-4.54-.46-9.3-.97-13.65-2.43-1.93-.65-3.81-1.39-5.72-2.08l-.24-2.21c2.31.83,4.59,1.75,6.97,2.46,5.29,1.57,10.83,2.29,16.33,2.62,10.42.62,20.83.04,31.25-.22,12.74-.32,25.16.76,37.52,2.74Z"/>
  <path class="l" d="m314.13,426.26l-.16,1.51c-3.4.45-6.81.94-10.2,1.47-10.51,1.61-21.08,3.68-31.75,3.63-15.83-.06-31.3-3.29-46.12-8.52l-.24-2.24c16.04,5.83,32.99,9.47,50.05,8.81,12.93-.49,25.64-2.82,38.43-4.66Z"/>
  <path class="l" d="m313.4,433.19l-.2,1.95c-10.19,1.46-20.28,3.46-30.44,5.37-5.95,1.12-11.94,2.04-17.96,2.74-1.76.21-3.53.4-5.3.56h0c-7.09.67-14.21,1.04-21.34,1.04-3.23,0-6.64.05-10.11.03l-.22-2.13c5.85.25,11.7.31,17.55.1,2.59-.09,5.17-.24,7.73-.43h0c2.24-.15,4.47-.36,6.69-.59h0c11.36-1.17,22.57-3.12,33.87-5.29,6.53-1.25,13.11-2.42,19.72-3.35Z"/>
  <path class="l" d="m310.32,462.63l-.2,1.89c-9.08.61-18.48,2.1-27.29-.08-3.93-.98-7.68-2.61-9.32-6.58-1.61-3.89-2.34-8.58-6.21-10.98-2.39-1.47-5.06-2.37-7.8-3.06h0c-2.12-.54-4.29-.94-6.38-1.4h0c-.15-.02-.31-.06-.46-.09-4.58-.99-9.2-1.73-13.8-2.62-3.85-.75-7.8-1.56-11.63-2.71l-.23-2.17c5,1.63,10.29,2.6,15.3,3.52,4.5.82,8.99,1.67,13.45,2.65,1.32.29,2.69.55,4.06.85h0c1.7.37,3.39.81,5,1.42,1.04.39,2.03.86,2.97,1.44,3.38,2.09,4.91,4.89,6.17,8.6,1.76,5.17,4.25,8.17,9.91,9.32,8.72,1.78,17.63.57,26.47.02Z"/>
  <path class="l" d="m308.38,481.14l-.2,1.89h-1.27c-8.68,0-17.67.98-25.97-1.67h0c-.71-.22-1.43-.48-2.14-.77-.73-.3-1.46-.62-2.18-.99-5.06-2.56-9.72-5.63-15.02-7.74-4.81-1.91-9.74-3.46-14.78-4.64-4.7-1.1-11-2.9-16.76-2.99l-.19-1.77c4.54.02,9.3,1.09,13.24,1.9,10.33,2.1,20.2,5.39,29.47,10.46,3.14,1.72,6.04,3.38,9.16,4.55h0c.67.26,1.35.49,2.05.69,1.63.49,3.35.83,5.22.98,5.6.43,11.21.08,16.82.08h2.54Z"/>
  <path class="l" d="m307.09,493.48l-.2,1.85c-6.46,1.27-12.69,3.57-19.04,5.58-8.87,2.82-17.95,4.47-27.27,4.6-8.89.14-17.69-.71-26.42-2.12l-.2-1.93c9.52,1.62,19.13,2.54,28.78,2.12,10.28-.45,19.83-2.66,29.55-5.92,4.9-1.63,9.79-3.21,14.8-4.18Z"/>
  <path class="l" d="m304.09,522.13l-.2,1.94c-4.04,0-8.08-.03-12.12-.17-11.24-.37-22.81-1.13-33.69-4.23-7.97-2.27-15.57-5.51-23.13-8.84l-.25-2.37c7.97,3.56,15.97,7.14,24.39,9.4,11.35,3.02,23.2,3.95,34.9,4.2,3.36.08,6.73.09,10.09.08Z"/>
  <path class="l" d="m294.13,544.63c2.52.16,5.05.28,7.57.37l-.2,1.93c-.99-.04-1.98-.09-2.97-.14-13.25-.67-25.88-2.98-38.78-6-7.34-1.72-14.69-3.43-22.13-4.49l-.22-2.07c19.01,2.49,37.51,9.18,56.73,10.39Z"/>
  <path class="l" d="m300.84,553.15l-.19,1.77c-8.26,1.17-16.67.99-24.99.85-9.16-.16-18.21-.26-27.33-1.24-2.98-.32-5.94-.67-8.91-.99h0s-.2-1.95-.2-1.95c3.77.4,7.54.83,11.31,1.21,9.12.92,18.2.97,27.35,1.11,7.58.12,15.38.26,22.95-.76Z"/>
  <path class="l" d="m303.33,529.36l-.2,1.9h-1.7c-8.13,0-16.26-.07-24.39.04-8.69.11-17.38.37-26.07.26-4.45-.06-9.3.19-13.9-.43l-.21-1.99c6.35,1.16,13.52.56,19.6.54,8.15-.02,16.29-.26,24.44-.31,7.47-.03,14.95-.03,22.44-.02Z"/>
  <path class="l" d="m309.25,472.87l-.18,1.72c-3.35.03-6.69.16-10.01.49-5.43.54-10.33,2.77-15.25,4.99-.95.43-1.91.87-2.86,1.28h0c-2.83,1.24-5.68,2.37-8.68,3.06-8.81,2.05-18.1,2.62-27.07,1.3-4.02-.59-8.03-1.28-11.67-3.17-.54-.28-1.08-.57-1.62-.87l-.26-2.45c.95.52,1.91,1.03,2.88,1.5,4.4,2.11,9.2,3,14.04,3.42,9.65.84,19.87.3,29.03-3.11.41-.15.81-.31,1.2-.46,1-.39,1.97-.8,2.94-1.21h0c6.89-2.91,13.18-6.08,21.06-6.38,2.15-.09,4.28-.13,6.43-.14Z"/>
  <path class="l" d="m299.94,561.75l-.2,1.9c-9.03.03-18.05.06-27.08.05-8.21,0-16.55.38-24.73-.55-2.54-.3-5.07-.65-7.6-1l-.2-1.95c2.8.37,5.6.76,8.42,1.05,8.2.84,16.5.56,24.73.56,8.88,0,17.77-.02,26.67-.06Z"/>
  <path class="n" d="m321.33,357.48l-22.28,212.76s-12.5,5.29-28.32,5.29-29.56-5.29-29.56-5.29l-.84-8.09-.2-1.95-.44-4.26c4.48,6.49,10.75,12.73,18.5,13.52,28.56,2.9,38.28-53.19,41.76-106.99,1.69-26.21,4.15-104.99,4.15-104.99h17.24Z"/>
  <path class="b" d="m321.33,357.91c0,5.63-12.13,10.5-29.63,12.73-6.56.84-13.88,1.31-21.59,1.31-17.56,0-33.05-2.43-42.27-6.11-5.65-2.25-8.94-4.99-8.94-7.93s3.33-5.69,9.01-7.96c9.23-3.68,24.69-6.08,42.21-6.08,7.68,0,14.95.46,21.49,1.29,17.55,2.23,29.73,7.1,29.73,12.75Z"/>
  <path class="e" d="m314.8,356.09c0,11.83-89.37,12.02-89.37,0s89.37-11.92,89.37,0c0,2.75,0-2.38,0,0Z"/>
  <path class="g" d="m381.29,277.08c-14.89,7.1-63.79,13.18-66.28,13.5,1.86-.18,28.9-2.63,36.63,1.71,13.46,7.54,34.65,51.07,34.65,51.07,0,0-41.82-5.96-55.47-9.36-7.89-1.97-30.84-10.28-30.84-10.28,0,0-13.92-28.41-18.24-38.02-6.67-14.79-25.24-59.79-25.24-59.79,0,0,1.77,41.26,0,54.86-1.44,11.02-11.4,42.95-11.4,42.95,0,0-35.7-9.57-44.35-17.8-11.73-11.14-27.14-58.72-27.14-58.72,0,0-29.29,14.59-39.95,16.01-14.03,1.87-56.21-6.57-56.21-6.57,0,0,25.83-30.07,37.06-36.7,7.29-4.31,32.48-9.57,32.48-9.57,0,0-39.32-12.61-51.66-8.27-11.98,4.21-30.21,26.44-42.42,42.88-.22.3-.43.59-.65.87h0c-5.66,7.66-9.94,13.92-11.55,16.32-.41.61-.65.97-.69,1.04h0s-6.32-42.9,0-55.16c18.72-36.35,47.66-37.11,47.66-37.11,0,0-14.15-9.68-17.87-13.96-2.24-2.58-6.81-11.82-6.81-11.82l180.43-17.97s-30.32-25.54-35.09-37.45c-5.81-14.49-.63-62.47-.63-62.47,0,0,52.6,10.75,67.66,19.92,17.12,10.42,55.47,57.87,55.47,57.87,0,0-3.68-47.38,2.81-61.28C340.47,29.11,381.29,0,381.29,0c0,0,9.89,70.33,5,93.13-4.6,21.4-40.16,77.79-40.16,77.79,0,0,41.87-17.28,55.88-13.96,24.76,5.87,77.16,66.39,77.16,66.39,0,0-99.89-19.35-127.53-3.42-9.43,5.43-20.82,38.24-20.82,38.24,0,0,29.62-21.6,41.07-25.46,17.02-5.74,71.53-6.81,71.53-6.81,0,0-43.97,42.51-62.13,51.18Z"/>
  <path class="g" d="m208.32,106.75s-43.85-6.81-68.73-44.81c-7.19-10.99-5.94-52.21-5.94-52.21,0,0,51.2,1.26,62.09,12.77,14.64,15.47,12.57,84.26,12.57,84.26Z"/>
  <path class="k" d="m267.31,365.02c-.19,0-.46,0-.65,0-2.46-.03-4.77-.07-7.1-.19l-2.33-16.34-18.47-129.72s-43.48-8.33-55.32-16.6c-17.01-11.87-49.79-66.39-49.79-66.39,0,0,93.94,4.56,112.35,26.81,8.95,10.83,2.55,56.17,2.55,56.17l16.59,129.42,2.17,16.84Z"/>
  <path class="k" d="m395.36,211.1c-9.99,20.77-62.56,40.84-62.56,40.84l-31.42,98.61-4.09,12.83c-1.74.26-3.59.49-5.52.68l4.43-14.34,25.54-82.64s0-.03,0-.03l3.52-11.38s.02-.05.02-.08l1.07-3.47s0,0,0-.02h0s.05-.16.05-.16c0,0-.03-.2-.08-.6v-.02c-.19-1.6-.72-6.16-1.28-12.28-.27-2.99-.55-6.35-.79-9.91-1.13-16.41-1.61-37.18,2.15-46.13,1.55-3.69,4.4-7.98,8.11-12.59h0c1.57-1.96,3.29-3.97,5.13-6.01,21.58-23.95,59.53-52.9,59.53-52.9,0,0,6.36,78.39-3.83,99.58Z"/>
  <path class="k" d="m254.15,364.52c-2.31-.17-4.63-.34-6.73-.58-1.28-.14-2.41-.27-3.6-.43l-2.64-13.36-16.88-85.43s-39.58-1.28-64.14-19.03c-16.62-12.02-45.65-55.86-45.65-55.86,0,0,68.22-9.8,86.17,2.13,15.23,10.11,30,66.68,30,66.68l20.01,90.33,3.46,15.56Z"/>
  <path class="k" d="m300.47,209.4s-20.77-58.98-9.37-73.62c14.73-18.92,95.19-11.58,95.19-11.58,0,0-2.82,53.04-13.91,65.62-10.73,12.16-61.28,21.28-61.28,21.28l-28.51,136.35-7.23,4.07,25.11-142.13Z"/>
  <path class="k" d="m281.31,364.76c-1.58.08-5.96.21-6.46.22l-1.8-13.29-.5-3.57-26.79-190.26-.17-1.23s-46.84-22.38-60.85-32.44c-10.6-7.6-33.72-30.49-44.84-41.68-3.82-3.85-6.22-6.32-6.22-6.32,0,0,47.35-7.97,70.47-2.62h.02c.71.16,1.4.34,2.05.53,2.65.76,4.89,1.73,6.61,2.95,48.5,34.47,42.12,76.6,42.12,76.6l23.03,183.34,1.42,11.3.79,6.29.16,1.31h0s.97,8.87.97,8.87Z"/>
  <path class="d" d="m539.6,23.34s-.04.02-.06.02c-.14.03-.58.15-1.27.33,0,0-.02,0-.03,0-10.39,2.76-77.77,20.83-99.93,31.13-18.86,8.76-69.83,44.55-70.63,45.1.1-.42,3.51-13.64,9.06-29.87,8.25-24.15,21.26-54.99,35.19-60.33,73.19-28.09,127.67,13.62,127.67,13.62Z"/>
  <path class="d" d="m346.12,208.03s11.34-52.77,47.94-72.25c14.23-7.58,63.83,9.27,63.83,9.27,0,0-17.87,29.79-45.96,45.11-26.22,14.3-65.81,17.87-65.81,17.87Z"/>
  <path class="d" d="m435.48,83.2s-7.73,39.82-28.94,55.04c-26.1,18.72-68.66,18.72-68.66,18.72,0,0-.33-.61-.95-1.74-3.33-6.1-15.06-27.32-28.96-49.28-.04-.07-.09-.14-.14-.21-7.67-12.1-15.99-24.43-23.92-34.54-.74-.94-1.46-1.86-2.18-2.74-11.93-14.72-31.87-30.82-45.51-41.06-.05-.04-.09-.07-.14-.1-1.24-.94-2.44-1.82-3.57-2.65-.03,0-.04-.03-.06-.04-.2-.14-.39-.29-.59-.43-6.22-4.56-10.32-7.34-10.32-7.34,0,0,.06,0,.19-.02.49-.07,1.92-.25,4.12-.49,16.4-1.84,74.86-7.25,90.46,6.76,33.11,29.75,34.95,63.82,33.66,79.6-.43,5.18-1.2,8.37-1.3,8.82.14-.43,1.13-3.42,2.77-7.56.07-.17.14-.35.21-.53,3.31-8.22,9.09-20.53,16.01-26.43,2.91-2.49,6.57-4.04,10.68-4.89,22.12-4.61,57.13,11.13,57.13,11.13Z"/>
  <path class="d" d="m341.29,151s-.6,5.23-1.63,13.41c-1.99,16.14-5.58,43.81-9.28,65.82-1.36,8.08-2.73,15.4-4.04,21.1-.11.49-.22.97-.34,1.43h0c-.24,1.01-.48,1.96-.71,2.83,0,.03,0,.05-.02.08-.86,3.21-2.07,7.07-3.53,11.41-7.83,23.22-23.03,59.99-32.27,81.88-3.07,7.27-5.31,12.79-6.58,15.72-.42.02-1.17.06-1.58.08-1.58.08-2.66.11-4.3.16.87-2.12,1.76-5.12,3.33-9.02h0c.91-2.24,1.91-4.72,2.99-7.4h0c6.39-15.88,15.53-38.93,23.19-59.53h0c5.5-14.78,10.23-28.3,12.64-37.02.43-1.58.89-3.35,1.36-5.3,1.18-4.91,2.45-10.9,3.75-17.5,3.63-18.38,7.48-41.43,10.26-58.73,2.37-14.71,3.95-25.28,3.95-25.28l2.81,5.86Z"/>
  <path class="d" d="m351.64,207.39s-12.39,21.52-25.27,44.72c0,0,0,0,0,.02-.11.22-.23.43-.36.64h0c-7.03,12.72-14.18,25.86-19.48,36.2h0c-2.26,4.43-4.2,8.32-5.63,11.46-4.47,9.75-12.61,31.74-18.5,48.03-.78,2.16-1.52,4.22-2.21,6.15-1.58,4.41-2.76,7.94-3.61,10.33-.49.02-1.22.05-1.72.06-1.58.03-5.76.06-6.24.05.94-2.88,2.53-7.55,4.44-13.33.38-1.14.77-2.32,1.18-3.54,1.17-3.5,2.43-7.28,3.74-11.16,5.36-15.8,11.63-33.41,15.6-41.99,4.99-10.76,16.09-30.1,26.96-48.36,1.53-2.56,3.05-5.11,4.55-7.59,1.81-3.02,3.6-5.98,5.32-8.82,9.67-15.94,17.29-28.15,17.29-28.15l3.96,5.3Z"/>
  <path class="f" d="m351.64,200.77s4.16-26.95,11.36-27.94c3.84-.53.85,13.8,4.68,13.21,7.97-1.24-.29-29.99,7.66-31.34,3.34-.57,3.99,11.37,7.38,11.35,7.45-.05,8.59-26.71,15.89-25.21,4,.82-1.31,14.8,2.55,16.13,7.29,2.52,15.29-23.53,21.73-19.29,3.27,2.15-7.32,10.42-4.42,13.05,4.3,3.9,17.26-14.34,20.99-9.89,2.06,2.45-9.18,7.81-7.38,10.46,3.73,5.49,25.81-6.24,25.81-6.24,0,0-22.11,5.58-22.41,11.92-.13,2.7,8.01,2.5,7.33,5.12-1.64,6.32-23.04-3.58-24.35,2.82-.74,3.6,13.71,3.16,13.05,6.77-1.1,6.04-23.13-3.14-24.4,2.87-.91,4.33,16.23,4.67,15.25,8.98-1.64,7.2-28.28-4.79-29.43,2.5-.5,3.17,12.37,1.8,11.84,4.97-1.05,6.29-23.09-4.22-25.46,1.7-.95,2.39,8,1.8,6.98,4.17-3.42,7.96-34.64,3.89-34.64,3.89Z"/>
  <path class="m" d="m338.74,156.87s-4.06-25.54,2.55-27.71c3.71-1.22,6.62,12.79,10.35,11.67,8.25-2.47-3.57-32.98,4.97-34.08,4.32-.56,2.5,16.7,6.81,16.05,10.13-1.52-5.88-39.29,4.25-40.73,5.76-.82,2.98,21.39,8.8,21.56,7.23.21,5.33-27.17,12.48-26.1,5.61.83-2.18,21.44,3.4,22.41,7.36,1.28,6.97-28.11,14.21-26.28,4.79,1.21-3.94,16.78,0,19.75,4.83,3.64,23.24-6.69,23.24-6.69,0,0-15.82,8.38-14.75,13.21.8,3.62,14.27.62,14.19,4.33-.16,7.25-27.56.02-28.1,7.25-.32,4.38,16.51,2.48,16.18,6.85-.61,8.03-30.35-.06-31.21,7.94-.45,4.18,15.87,3.38,15.03,7.5-1.57,7.75-29.12-5.56-31.59,1.96-1.14,3.46,12.36,5.91,11.19,9.36-2.08,6.12-23.46-4.96-25.83,1.05-1.07,2.72,9.2,5.57,8.2,8.31-2.08,5.76-24.38,2.37-24.38,2.37Z"/>
  <path class="j" d="m221.75,16.79c.99.17,5.08,3.52,10.13,7.36-6.22-4.56-10.32-7.34-10.32-7.34.03-.03.1-.04.19-.02Z"/>
  <path class="j" d="m232.53,24.63c1.12.83,2.32,1.72,3.57,2.65-1.22-.88-2.42-1.78-3.57-2.65Z"/>
  <path class="f" d="m338.74,156.87s-14.4-25.4-30.76-50.93c-.04-.07-.09-.14-.14-.21-8-12.48-16.46-24.98-23.92-34.54-.74-.94-1.46-1.86-2.18-2.74-11.93-14.72-31.87-30.82-45.51-41.06,7.29,5.28,15.27,10.15,18.7,8.15,4.04-2.37-4.54-17.62,0-18.72,9.07-2.2,7.84,33.89,17.14,33.16,7.66-.6,1.99-29.64,9.67-29.18,11.57.67-2.14,43.93,9.36,45.39,9.71,1.23,7.68-37.39,17.23-35.18,13.24,3.06-13.39,52.02,0,54.34,10.8,1.88,4.09-43.61,14.81-41.3,15.37,3.33-19.85,57.23-5.11,62.7,10.15,3.77,15.86-39.88,25.53-35.01,11.31,5.69-25.52,41.25-15.04,48.35,5.72,3.87,15.62-21.14,21.46-17.43h0c-.43,5.18-1.2,8.37-1.3,8.82.14-.43-9.95,45.4-9.95,45.4Z"/>
  <path class="f" d="m539.6,23.34s-.04.02-.06.02c-.41.14-.82.25-1.27.33,0,0-.02,0-.03,0-13.31,2.36-42.1-23.79-50.56-13.98-3.78,4.37,13.28,17.29,9.08,21.26-8.73,8.26-35.81-30.79-43.13-21.26-5.11,6.66,26.86,18.32,22.13,25.25-7.56,11.08-43.24-29.47-50.5-18.2-4.51,7,27.9,16.95,23.26,23.86-5.97,8.89-33.96-25.04-39.72-16.01-4.49,7.04,28.15,15.35,24.4,22.82-4.36,8.7-34.74-15.9-38.3-6.84-2.4,6.12,23.98,7.91,22.13,14.22-2.04,6.97-26.92-6.95-29.05,0-1.48,4.84,18.08,6.45,16.78,11.35-1.74,6.55-20.03,7.44-28.03,3.88,8.25-24.15,21.26-54.99,35.19-60.33,73.19-28.09,127.67,13.62,127.67,13.62Z"/>
  <path class="m" d="m245.75,157.86l-.17-1.23s-46.84-22.38-60.85-32.44c-10.6-7.6-33.72-30.49-44.84-41.68,6.34-1.8,19.75,21.31,26.19,17.41,5.04-3.06-7.31-22.08-1.6-23.54,9.38-2.39,6.8,37.22,16.25,35.13,8.58-1.89-8.58-33.27,0-35.13,10.56-2.28,7.21,40.93,17.89,39.33,10.51-1.57-5.1-41.87,5.52-42.14h.02c.79-.02,1.47.17,2.05.53,8.49,5.3-4.84,48.66,6.86,48.69,9.18.02-2.4-36.26,6.77-36.08,11.9.24-5,46.66,6.89,47.1,8.67.32-1.06-34.65,7.58-33.89,10.7.94-8.6,40.77,1.92,42.9,5.43,1.1,4.1-21.24,9.52-20.03,8.55,1.93,7.16,30,0,35.06Z"/>
  <path class="m" d="m114.51,189.82s20.15,10.85,25.37,6.86c1.36-1.04-1.53-6.08,0-6.86,3.67-1.87,9.51,11.24,13.33,9.7,2.28-.92-.67-9.01,1.69-9.7,3.98-1.16,7.02,12.49,11.16,12.27,3.79-.2,5.27-13.07,8.98-12.27,5.4,1.16-.94,20.94,4.54,21.61,4.61.57,3.49-17.33,8.11-16.73,6.37.82-1.41,24.27,4.94,25.23,4.23.64,3.88-15.66,8.11-15.05,8.17,1.16-1.18,30.85,6.95,32.29,3.77.67,4.38-13.51,8.17-12.95,9.53,1.41,10.24,37.15,10.24,37.15,0,0-32.42,3.7-35.18-4.73-1.06-3.24,11.16-6.32,9.82-9.45-2.93-6.84-26.61,8.03-29.75,1.29-2.02-4.34,15.09-9.83,12.96-14.12-3.25-6.53-26.79,9.75-29.05,2.81-1.76-5.4,21.08-6.08,19.58-11.57-1.68-6.16-23.16,5.93-25.53,0-1.6-4,14.56-8.11,12.48-11.89-3.12-5.69-22.12,11.93-25.22,6.23-2.08-3.83,14.27-7.82,12.73-11.9-1.88-5.01-20.02,4.5-21.38-.68-.64-2.45,8.69-2.73,8.65-5.26-.1-6.23-21.7-12.27-21.7-12.27Z"/>
  <path class="d" d="m254.15,364.52c-2.31-.17-6.73-.58-6.73-.58l-3.27-14.64-10.94-44.24-48.48-65.23v-7.12l50.57,63.11,5,6.24,4.79,21.63,5.6,25.27,3.46,15.56Z"/>
  <path class="d" d="m266.66,365.01c-2.67-.03-6.03-.13-8.54-.26-1.09-3.3-2.11-8.83-4.52-16.04-2.37-7.07-5.29-15.66-8.51-25.01h0c-3.04-8.82-6.36-18.31-9.79-27.87h0c-9.71-27.13-20.27-54.83-27.6-69.08-11.98-23.31-58.75-86.81-58.75-86.81v-4.16s51.9,60.9,64.68,84.15c14.03,25.52,36.84,94.21,47.8,128.36,2.44,7.62,4.2,13.41,5.24,16.73Z"/>
  <path class="d" d="m154.9,145.05s-40.39,6.81-74.05-12.77C21.03,97.49,5.34,56.87,1.33,40.71c-1.12-4.55-1.33-7.16-1.33-7.16,0,0,92.69-24.15,135.33,22.13,8.64,9.38,13.57,32.79,16.32,53.3,2.6,19.32,3.25,36.07,3.25,36.07Z"/>
  <path class="f" d="m5.11,37.24s20.19,15.85,26.95,12.73c4.46-2.06.25-18.48,5.14-18.97,6.63-.66,5.27,24.59,11.89,23.83,6.08-.7-.42-23.2,5.67-23.83,8.58-.9,6.14,31.81,14.75,31.21,6.67-.47,1.26-25.75,7.94-25.53,9.01.29-.48,34.35,8.51,35.06,7.33.58,4.07-28.12,11.35-27.11,8.07,1.11-4.01,30.72,3.97,32.34,6.5,1.32,6.82-24.69,13.23-22.98,7.91,2.11-7.73,30.04,0,32.75,7.23,2.52,11.84-26.47,19.07-23.95,8.77,3.07-8.93,34.6,0,37.17,4.14,1.19,7.13-18.41,9.12-14.59,7.62,14.59,10.51,55.48,10.51,55.48,0,0-46.18,6.94-49.09-5.05-1.4-5.76,21.98-7.44,19.86-12.98-3.43-8.98-33.41,14.23-38.02,5.79-3.49-6.4,23.05-15.61,19.29-21.85-5.13-8.5-33.83,18.08-38.58,9.36-3.74-6.87,26.7-14.84,22.7-21.56-5.04-8.46-32.28,20.58-37.45,12.2-3.7-6,23.54-14.01,19.86-20.02-4.35-7.11-27.49,17.24-31.77,10.09-3.97-6.62,26.33-15.08,22.13-21.56-4.23-6.53-23.85,17.35-28.94,11.47-4.09-4.73,15.94-16.47,12.48-21.68-3.87-5.84-24.64,9.65-27.8,3.4-1.58-3.13,9.75-6.7,9.65-10.21-.24-7.67-22.41-20.99-22.41-20.99Z"/>
  <path class="d" d="m200.68,280.37c-1.71,16.77-33.87,58.3-33.87,58.3,0,0-16.98-12.69-28.43-29.49-6.71-9.86-11.52-21.14-9.87-32.1,5.14-34.15,56.21-44.37,56.21-44.37,0,0,11.37,23.18,14.95,38.6.83,3.57,1.24,6.71,1,9.06Z"/>
  <path class="f" d="m183.95,234.35s-33.18,8.45-32.45,16.8c.39,4.48,16.32-3.68,16.62.8.59,8.85-32.16,4.1-30.53,12.82,1.24,6.6,24.94-6.43,26.87,0,2.65,8.84-33.46,11.5-30.81,20.34,1.53,5.09,18.58-4.6,21.24,0,3.21,5.54-16.92,17.35-12.76,22.22,3.15,3.69,14.63-10.25,18.16-6.91,4.24,4.01-11.36,18.26-7.08,22.23,2.22,2.06,8.22-4.52,11.26-4.54,3.14-.02,9.34,6.6,11.71,4.54,4.31-3.74-9.54-18.55-5.18-22.23,2.85-2.4,10.99,8.3,13.72,5.77,4.72-4.35-12.56-19.9-7.97-24.4,4.04-3.96,18.18,12.1,21.37,7.44,4.53-6.62-24.32-17.24-20.81-24.46,2.28-4.68,18.93,5.7,20.81.85,1.92-4.95-20.28-6.86-18.82-11.96.75-2.61,9.52.89,10.74-1.53,2.06-4.07-6.09-17.77-6.09-17.77Z"/>
  <path class="h" d="m151.65,108.98C87.71,101.12,33.42,75.66,1.33,40.71c-1.12-4.55-1.33-7.16-1.33-7.16,0,0,92.69-24.15,135.33,22.13,8.64,9.38,13.57,32.79,16.32,53.3Z"/>
  <path class="h" d="m199.68,271.31c-14.77,16.93-36.12,30.26-61.29,37.87-6.71-9.86-11.52-21.14-9.87-32.1,5.14-34.15,56.21-44.37,56.21-44.37,0,0,11.37,23.18,14.95,38.6Z"/>
  <path class="h" d="m349.99,102.65h0c-19.34-10.26-38.36-54.9-56.87-66.59-15.66-9.9-71.54-19.25-71.54-19.25,0,0,.06,0,.19-.02.49-.07,1.92-.25,4.12-.49,16.4-1.84,74.86-7.25,90.46,6.76,33.11,29.75,34.95,63.82,33.66,79.6Z"/>
  <path class="k" d="m109.78,179.65c-.65-.12-16.04-3.01-19.84,0-4.46,3.52-4.54,19.29-5.11,22.15-.57,2.85-3.06-16.35-7.38-15.77-4.9.66,3.08,18.2-1.63,19.72-5.04,1.62-8.86-18.26-13.69-16.12-6.98,3.1,10.74,26.76,3.97,30.29-3.91,2.04-9.24-14.13-13.06-11.9-5.46,3.19,10.72,20.84,5.68,24.68-2.85,2.17-9.83-9.07-12.6-6.81-3.73,3.06,8.25,14.87,6.77,19.06-.12.34-.32.64-.65.87h0c-3.04,2.21-8.91-10.4-12.25-8.67-5.41,2.8,3.34,19.13.7,24.99-.17.4-.4.75-.69,1.04h0s-6.32-42.9,0-55.16c18.72-36.35,47.66-37.11,47.66-37.11,5.71,1.2,21.52,8.46,22.11,8.73Z"/>
  <path class="i" d="m291.71,370.64c-1.02,81.26-14.92,145.63-31.91,145.63s-31.44-66.91-31.96-150.43c9.23,3.68,24.72,6.11,42.27,6.11,7.71,0,15.03-.47,21.59-1.31Z"/>
</svg>