<?xml version="1.0" encoding="UTF-8"?>
<svg id="a" data-name="Lager 1" xmlns="http://www.w3.org/2000/svg" viewBox="0 0 504.78 677.97">
  <defs>
    <style>
      .b {
        fill: #023828;
      }

      .c {
        fill: #b4b4b4;
      }

      .d {
        fill: #8c633a;
      }

      .e {
        fill: #4e4d4d;
      }

      .f {
        fill: #754d24;
      }

      .g {
        fill: #073c22;
      }

      .h {
        fill: #38aa35;
      }

      .i {
        fill: #a67d52;
      }
    </style>
  </defs>
  <path class="f" d="m169.33,221.74s53.27,129.4,60.1,286.32l20.98,5.1s-26.65-214.31-72-305.59l-9.07,14.17Z"/>
  <path class="f" d="m303.21,181.49s-80.59,172.36-63.58,323.74l20.98,12.47s-23.47-157.33,50.46-314.18l-7.86-22.03Z"/>
  <path class="d" d="m250.4,280.55s-33.66,182.15-17.11,225.24h12.63s-2.32-164.99,12.99-212.04l-8.5-13.19Z"/>
  <path class="i" d="m214.66,425.28l14.77,82.78,31.18,9.64s-8.92-35.18-6.14-56.13c0,0-5.82,60.1-39.81-36.29Z"/>
  <g>
    <path class="g" d="m278.24,262.3s-35.96-52.38-35.96-5.77c0,0-22.48,11.99,3.63,38.18,0,0-13.13,14.65,8.49,35.07,0,0,8.3,23.97,4.3,35.96-4,11.99,11.54,31.52,22.64,35.51,11.1,4-1.33,32.85,26.19,50.16,27.52,17.31,42.62,41.28,42.62,41.28,0,0,7.99-49.72,11.54-60.37,0,0,18.2-11.99,8.88-33.29-8.71-19.91-13.56-28.58-.38-41.59,2.57-2.54,4.12-5.95,4.26-9.56.29-7.62-2.39-20.59-19.86-33.19,0,0-9.21-12.97-6.9-38.92.11-1.27-.84-2.38-2.12-2.44-6.61-.32-24.88-1.85-25.61-9.24-.89-9.03,5.33-19.53-5.33-23.53-10.65-4-23.08-12.43-30.63-7.99-7.55,4.44-8.43,11.99-5.77,29.74Z"/>
    <path class="h" d="m288.85,300.09c-8.08-13.11-30.29-49-36.22-57.15,0,0,11.39,25.97,12.76,28.71,0,0-19.59,0-28.25,2.28,0,0,21.08-.46,31.27,8.66,10.19,9.11,17.03,25.52,17.03,25.52,0,0-23.24,6.38-39.18,1.82,0,0,10.94,11.39,45.56,8.2,0,0,5.47,23.24,5.47,25.52,0,0-25.97,15.95-30.07,38.27,0,0,16.4-27.34,32.81-27.79,0,0,19.14,54.68,16.4,60.6,0,0-17.77,12.3-15.95,26.88,0,0,8.66-16.86,18.68-20.5,0,0,15.95,60.14,29.16,63.79,0,0-27.79-65.16-25.06-85.2,0,0,35.08,7.29,42.83,17.31,0,0,4.56-10.02-42.83-25.06,0,0-7.29-16.4-15.49-47.39,0,0,46.02-.91,61.51,1.37,0,0-13.21-9.11-62.88-10.48l-5.47-23.05s35.08-20.69,41.92-33.45c0,0-31.44,17.31-42.83,25.06,0,0,4.1-23.69-.91-36.91,0,0,10.02-15.95,17.77-19.14,0,0-11.39-3.65-20.96,14.12,0,0-5.47-13.21-10.94-24.15,0,0,9.56,33.47,7.45,61.28-.14,1.87-2.59,2.48-3.58.88Z"/>
  </g>
  <path class="b" d="m349.05,73.39s-7.33-5.86-12.46-6.6c0,0-18.33-104.84-54.98-49.85,0,0-36.66,11-8.8,24.19,0,0-2.2,13.2-14.66,17.59-12.46,4.4-26.39,49.12,19.06,131.96,0,0,3.16,11,20.28,9.53,0,0,2.45,22.73,8.32,27.13,0,0,12.46,51.32,51.32,43.25,0,0-17.59,49.85,41.79,87.97,0,0-6.6,18.33,39.59,43.25,0,0,13.93,29.32,16.13,33.72,0,0-4.4,0,0-35.92,0,0,10.26-13.93,11-41.05,0,0,4.08-14.66,12.67-16.86,8.59-2.2,5.66-38.86-3.14-63.05,0,0,44.4-15.4,3.14-68.91,0,0-1.1-12.53,12.55-14.93,10.1-1.78,16.28-12.19,13.11-21.94-1.75-5.36-5.12-11.31-11.2-17.38,0,0-6.19-30.06-14.46-35.19,0,0,40.12-31.52-14.13-49.85,0,0-32.99,1.47-25.66-32.26,0,0,8.8-12.46-46.92-15.4,0,0-30.06-35.92-60.85-17.59,0,0-20.53,11.73,10.26,32.99,30.79,21.26,8.06,35.19,8.06,35.19Z"/>
  <path class="h" d="m489.48,184.64c-.71-.58-1.74-1.44-3.11-2.47-2.73-2.06-6.76-4.87-11.89-7.78-2.56-1.46-5.4-2.94-8.49-4.36-3.09-1.42-6.42-2.78-9.96-3.95-.89-.28-1.78-.6-2.7-.85-.92-.25-1.83-.54-2.77-.76-1.87-.48-3.79-.92-5.75-1.24-3.91-.69-7.99-1.03-12.1-.9-3.88.17-7.71.31-11.51.45-1.9.06-3.78.12-5.63.18-1.86.05-3.69.1-5.5.15-2.33.05-4.6.1-6.81.13-12.03-2.37-22.45-7.17-26.71-9.32-.3-1.46-.6-2.92-.9-4.37-.29-1.4-.58-2.79-.87-4.18-.27-1.39-.54-2.78-.81-4.16-.21-1.06-.41-2.1-.62-3.15,2.8-5.32,10.96-10.45,17.05-13.72.33-.11.65-.22.99-.34,2.74-.92,5.66-1.86,8.67-2.82,1.51-.47,3.05-.96,4.6-1.44,1.56-.48,3.14-.97,4.73-1.46,3.19-.97,6.42-1.96,9.66-2.95,3.24-.99,6.48-1.99,9.67-2.96,1.6-.48,3.18-.98,4.74-1.46,1.56-.49,3.11-.97,4.63-1.44,3.04-.95,5.97-1.89,8.75-2.79,2.78-.9,5.41-1.77,7.83-2.58,4.84-1.63,8.87-3.06,11.68-4.1,1.41-.51,2.5-.95,3.26-1.23.75-.29,1.15-.45,1.15-.45,0,0-.43.03-1.23.11-.8.09-1.98.2-3.46.39-2.98.37-7.21.98-12.26,1.89-2.52.45-5.25.98-8.12,1.58-2.87.6-5.9,1.27-9.01,2.02-1.56.36-3.14.76-4.74,1.17-1.6.4-3.21.82-4.84,1.27-3.25.87-6.53,1.83-9.81,2.81-3.27,1.01-6.53,2.04-9.72,3.15-.8.28-1.59.55-2.38.83-.79.29-1.57.57-2.34.86-1.55.57-3.09,1.14-4.58,1.74-3,1.18-5.87,2.4-8.56,3.64-2.69,1.24-5.2,2.5-7.48,3.76-2.27,1.26-4.31,2.53-6.05,3.76-1.51,1.08-2.79,2.13-3.8,3.14-.18.18-.49.08-.53-.17-.33-1.79-.66-3.58-.99-5.34-.77-3.98-1.42-7.91-2.08-11.76,1.19-9.32,4.65-19.67,6.67-25.18.04-.04.07-.08.11-.13,1.35-1.57,2.81-3.19,4.33-4.87.77-.84,1.54-1.68,2.33-2.54.8-.86,1.6-1.72,2.41-2.59,1.64-1.73,3.28-3.52,4.96-5.27,1.67-1.77,3.34-3.54,4.98-5.29.83-.87,1.64-1.74,2.44-2.6.81-.86,1.6-1.7,2.38-2.55,1.56-1.67,3.06-3.31,4.47-4.87,1.41-1.56,2.74-3.05,3.96-4.43,2.44-2.77,4.43-5.13,5.8-6.81.43-.53.8-.99,1.11-1.38.22-.28-.11-.65-.41-.47-.42.26-.93.57-1.5.94-1.83,1.17-4.4,2.92-7.37,5.16-1.48,1.12-3.07,2.36-4.71,3.7-1.64,1.35-3.36,2.79-5.09,4.33-.87.76-1.74,1.56-2.62,2.37-.88.81-1.76,1.63-2.63,2.49-1.76,1.69-3.49,3.46-5.21,5.25-1.69,1.81-3.37,3.65-4.95,5.52-.4.47-.79.93-1.18,1.4-.38.47-.76.94-1.14,1.41-.75.94-1.49,1.87-2.18,2.82-1.41,1.88-2.7,3.75-3.85,5.58-1.15,1.83-2.17,3.62-3.01,5.33-.84,1.71-1.52,3.34-2,4.83-.09.29-.18.57-.26.85-.09.33-.57.29-.62-.04-.09-.56-.17-1.13-.25-1.69-.36-2.4-.71-4.76-1.05-7.08-.31-2.32-.62-4.6-.92-6.83-.32-2.23-.58-4.42-.84-6.56-.13-1.07-.26-2.13-.39-3.17-.06-.52-.13-1.04-.19-1.56-.06-.52-.12-1.03-.17-1.54-.23-2.04-.45-4.03-.67-5.96-.19-1.94-.37-3.82-.55-5.64-.65-7.29-1.14-13.66-1.39-18.92-.23-5.26-.35-9.39-.34-12.22,0-1.41.02-2.49.03-3.22.02-.73.04-1.11.04-1.11,0,0-.24,1.49-.5,4.31-.25,2.82-.58,6.96-.72,12.25-.16,5.29-.2,11.71.02,19.08.06,1.84.12,3.74.19,5.7.09,1.96.19,3.97.28,6.03.08,2.07.26,4.18.39,6.35.14,2.17.29,4.38.49,6.64.69,9.05,1.77,18.81,3.05,29.13.35,2.57.7,5.18,1.06,7.83.07.54.15,1.09.22,1.64,0,.03,0,.06,0,.09-1.07,6.34-1.79,14.91-2.01,17.8-.02.31-.43.4-.59.13-4.22-6.96-9.73-12.18-13.56-15.3-.04-.03-.07-.08-.09-.13-3.15-7.93-6.24-15.63-9.23-23.03-4.13-10.17-8.05-19.78-11.73-28.62-1.85-4.42-3.61-8.66-5.3-12.68-1.7-4.02-3.32-7.83-4.84-11.42-3.02-7.17-5.73-13.4-7.95-18.52-2.21-5.13-4.02-9.14-5.22-11.88-1.22-2.73-1.88-4.19-1.88-4.19,0,0,.51,1.51,1.47,4.35.98,2.83,2.38,6.99,4.23,12.27,1.84,5.28,4.05,11.69,6.66,19.02,2.6,7.34,5.51,15.62,8.75,24.63,1.62,4.51,3.31,9.2,5.06,14.06,1.76,4.85,3.58,9.87,5.45,15.03,1.77,4.88,3.59,9.88,5.46,14.98.11.29-.22.55-.48.37-1.56-1.1-3.39-2.26-5.43-3.41-2-1.14-4.22-2.27-6.59-3.38-2.37-1.12-4.91-2.19-7.58-3.16-2.67-.97-5.48-1.83-8.35-2.64-2.86-.82-5.77-1.64-8.68-2.47-2.9-.84-5.8-1.65-8.67-2.44-2.86-.79-5.69-1.52-8.43-2.22-2.74-.69-5.38-1.37-7.9-1.97-2.52-.59-4.9-1.16-7.1-1.68-2.2-.51-4.22-.96-6.01-1.35-1.79-.4-3.36-.73-4.65-1-1.91-.39-3.22-.66-3.76-.77-.17-.03-.33.07-.37.23h0c-.04.17.05.33.21.39.53.17,1.8.59,3.65,1.19,2.5.83,6.06,2.01,10.34,3.43,2.14.72,4.45,1.5,6.9,2.32,1.68.57,11.26,3.9,17.96,6.24,16.12,7.35,40.82,19.37,50.75,28.18.19.52.38,1.04.58,1.56.45,1.22.9,2.44,1.35,3.67,1.63,4.43,3.28,8.91,4.94,13.43.19.51.38,1.03.57,1.54.09.23-.11.47-.35.42-.84-.16-1.78-.33-2.8-.45-1.58-.21-3.38-.43-5.34-.58-1.96-.12-4.09-.25-6.34-.26-2.25,0-4.63.03-7.08.29-2.45.21-4.97.66-7.52,1.13-1.27.26-2.55.53-3.83.8-1.28.29-2.57.58-3.85.87-.64.13-1.28.3-1.92.47-.64.16-1.28.33-1.91.49-.64.15-1.27.35-1.89.53-.63.19-1.25.37-1.88.55-1.24.39-2.46.81-3.67,1.23-.6.23-1.19.47-1.77.7-.59.23-1.17.45-1.74.71-1.14.5-2.26.98-3.33,1.54-.53.27-1.07.51-1.58.81-.51.29-1.02.57-1.51.85-1.96,1.18-3.77,2.37-5.31,3.65-1.55,1.27-2.85,2.57-3.9,3.81-1.05,1.24-1.82,2.45-2.37,3.48-.55,1.03-.86,1.9-1.04,2.5-.09.3-.14.54-.17.7-.03.17-.04.25-.04.25l.59.11s.02-.08.06-.21c.05-.14.12-.35.24-.61.23-.53.64-1.3,1.27-2.19.64-.89,1.49-1.92,2.6-2.96,1.11-1.04,2.48-2.1,4.05-3.12,1.57-1.04,3.38-1.97,5.34-2.88.99-.42,2-.88,3.07-1.26,1.05-.42,2.16-.78,3.28-1.15.55-.2,1.13-.35,1.71-.51.43-.12.86-.25,1.3-.37,10.12.22,38.01.31,49.35-4.74,1.39,3.77,2.8,7.55,4.21,11.36,4.38,11.77,8.83,23.74,13.27,35.7.25.66.49,1.31.74,1.97.06.15,0,.32-.16.39-1.57.76-3.56,1.8-5.77,3.12-1.34.8-2.77,1.69-4.25,2.69-1.48.98-3.01,2.07-4.52,3.28-1.51,1.21-3,2.55-4.5,3.93-1.5,1.38-3.03,2.77-4.59,4.13-1.56,1.35-3.12,2.71-4.66,4.04-1.54,1.33-3.03,2.66-4.48,3.95-1.45,1.29-2.86,2.52-4.18,3.72-1.32,1.19-2.57,2.31-3.72,3.35-1.15,1.04-2.2,2-3.13,2.85-.93.85-1.74,1.59-2.41,2.21-.92.85-1.56,1.45-1.87,1.74-.12.11-.14.3-.03.43v.02c.11.13.3.16.44.07l2.13-1.41c.76-.5,1.67-1.11,2.72-1.81,1.05-.7,2.23-1.5,3.51-2.37,1.28-.87,2.67-1.82,4.14-2.82,1.47-1,3.01-2.07,4.6-3.17,1.59-1.1,3.25-2.24,4.9-3.42,1.66-1.18,3.35-2.37,5.03-3.56,1.69-1.19,3.4-2.35,5.1-3.48,1.7-1.13,3.36-2.25,4.89-3.43,1.53-1.18,2.95-2.4,4.26-3.61,1.31-1.2,2.53-2.37,3.62-3.49,1.44-1.46,2.67-2.82,3.68-4,.16-.18.45-.13.54.09,8.27,22.09,16.51,44.08,24.27,64.8.87,2.3,1.72,4.58,2.58,6.84.08.22-.1.45-.34.42-1.56-.2-3.1-.33-4.62-.37-4.2-.14-8.34.36-12.08,1.5-3.75,1.15-7.03,3.04-9.65,5.18-2.59,2.2-4.55,4.6-5.93,6.9-1.39,2.3-2.31,4.43-2.9,6.23-.6,1.79-.9,3.25-1.08,4.23-.17.99-.2,1.52-.2,1.52,0,0,.16-.51.54-1.43.37-.92.98-2.24,1.85-3.84.89-1.59,2.09-3.45,3.69-5.36.19-.24.41-.47.62-.71.22-.24.43-.48.65-.72.33-.33.67-.66,1.01-1.01.02-.02.04-.04.06-.06.13-.11.25-.22.38-.33.25-.23.51-.45.77-.68,0,0,0,0,.01-.01.27-.22.55-.43.83-.65.14-.11.28-.22.41-.33,0,0,.01,0,.02-.01.15-.1.29-.2.44-.3.3-.2.6-.41.9-.62,0,0,.01,0,.02-.01.32-.19.63-.38.96-.57.16-.1.32-.19.48-.29.03-.02.05-.03.08-.05.48-.25.97-.5,1.47-.75.35-.16.72-.31,1.09-.46.72-.33,1.5-.56,2.26-.84.38-.13.79-.22,1.19-.33.2-.05.4-.11.6-.16.2-.06.4-.11.61-.14,3.29-.71,6.88-.87,10.6-.55,1.86.17,3.76.45,5.6.82l.7.13c.39.08.84.22,1.19.26.14.1.24.18.38.28.35.92.69,1.84,1.04,2.76,1.9,5.1,3.77,10.08,5.58,14.95.65,1.95,1.3,3.89,1.94,5.8,1.66,4.91,3.28,9.69,4.84,14.31,1.63,4.6,3.21,9.04,4.72,13.31.76,2.13,1.51,4.22,2.24,6.25.37,1.02.73,2.03,1.08,3.02.37.99.74,1.97,1.1,2.93,1.45,3.86,2.83,7.52,4.13,10.96,1.3,3.44,2.49,6.67,3.65,9.63,1.17,2.96,2.25,5.67,3.23,8.13,1.93,4.91,3.52,8.74,4.57,11.37,1.07,2.62,1.64,4.01,1.64,4.01,0,0-.41-1.54-1.17-4.44-.78-2.89-1.89-7.14-3.39-12.53-.75-2.69-1.53-5.69-2.5-8.92-.93-3.24-2-6.72-3.11-10.45-1.12-3.73-2.31-7.7-3.56-11.89-1.28-4.18-2.7-8.54-4.14-13.11-1.46-4.56-2.98-9.32-4.56-14.24-.78-2.47-1.63-4.95-2.47-7.48-.36-1.09-.73-2.19-1.1-3.29-.66-2.24-1.33-4.51-2.01-6.8-.73-2.55-1.46-5.13-2.2-7.74-.35-1.27-.72-2.54-1.08-3.82-.07-.24.16-.46.4-.39.2.06.41.13.61.19,1.99.57,3.94,1.28,5.9,1.94.98.33,1.95.7,2.92,1.05l1.46.53c.48.18.96.38,1.44.57.96.38,1.91.76,2.86,1.14.94.41,1.88.81,2.81,1.21.94.39,1.84.85,2.76,1.26.92.42,1.83.84,2.71,1.3.89.45,1.78.88,2.64,1.35.87.47,1.72.93,2.58,1.38,3.37,1.89,6.55,3.87,9.45,5.91,2.91,2.03,5.55,4.11,7.89,6.16,4.68,4.09,8.11,8.05,10.29,11,1.09,1.48,1.9,2.69,2.4,3.54.51.85.75,1.33.75,1.33,0,0-.11-.52-.44-1.47-.33-.94-.85-2.33-1.68-4.02-.82-1.69-1.95-3.69-3.41-5.88-1.47-2.19-3.28-4.56-5.46-6.97-2.18-2.41-4.72-4.88-7.58-7.27-2.86-2.39-6.04-4.72-9.48-6.91-.87-.53-1.74-1.07-2.62-1.6-.89-.53-1.81-1.02-2.72-1.53-.91-.52-1.85-1-2.79-1.48-.94-.47-1.89-.97-2.86-1.41-3.84-1.87-7.88-3.42-11.94-4.9-2.05-.67-4.09-1.39-6.16-1.97-1.03-.3-2.06-.61-3.09-.89-.53-.13-1.06-.27-1.59-.4-.11-.03-.2-.11-.23-.22-.45-1.56-.89-3.12-1.32-4.7-1.51-5.43-3.05-10.95-4.6-16.54-.75-2.8-1.5-5.62-2.26-8.45-.77-2.83-1.54-5.68-2.31-8.53-.79-2.85-1.5-5.73-2.25-8.62-.75-2.88-1.5-5.77-2.25-8.67-.37-1.45-.77-2.89-1.13-4.35-.36-1.45-.72-2.91-1.08-4.37-.49-1.96-.97-3.92-1.46-5.88-.07-.28.24-.5.48-.34,1.33.87,2.78,1.78,4.34,2.72,2.17,1.3,4.55,2.66,7.08,4.05,2.54,1.38,5.23,2.8,8.04,4.21,1.4.72,2.84,1.41,4.29,2.12.73.35,1.46.71,2.2,1.07.74.35,1.48.7,2.23,1.05,2.98,1.41,6.04,2.78,9.1,4.14,3.07,1.33,6.15,2.66,9.2,3.91,1.52.64,3.04,1.25,4.54,1.84,1.5.6,2.98,1.19,4.45,1.75,2.93,1.13,5.78,2.19,8.49,3.16,2.71.97,5.29,1.86,7.67,2.66,4.77,1.59,8.8,2.81,11.63,3.61,1.42.41,2.54.69,3.3.9.77.19,1.18.3,1.18.3,0,0-.36-.21-1.05-.62-.69-.39-1.69-.98-2.97-1.69-2.57-1.43-6.27-3.42-10.75-5.71-2.24-1.14-4.67-2.36-7.25-3.62-2.58-1.26-5.31-2.58-8.15-3.9-1.41-.67-2.86-1.34-4.32-2.01-1.46-.68-2.94-1.36-4.44-2.03-2.99-1.37-6.05-2.71-9.09-4.07-3.06-1.33-6.11-2.68-9.14-3.96-.75-.32-1.5-.65-2.25-.97-.75-.32-1.5-.63-2.24-.94-1.48-.62-2.95-1.24-4.39-1.85-2.89-1.2-5.68-2.35-8.33-3.45-2.65-1.09-5.15-2.12-7.47-3.07-2.31-.95-4.43-1.83-6.29-2.63-.32-.14-.62-.27-.93-.4-.09-.04-.16-.12-.18-.21-.64-2.53-1.24-5.08-1.85-7.62-.7-2.92-1.39-5.83-2.09-8.75-1.37-5.83-2.68-11.64-4.01-17.4-.63-2.89-1.25-5.77-1.87-8.63-.14-.66-.29-1.31-.43-1.97-.05-.24.18-.45.41-.37.9.3,1.87.59,2.91.87,2.34.62,5,1.15,7.92,1.61,2.92.45,6.08.83,9.44,1.13,3.35.29,6.89.51,10.55.64,1.83.08,3.69.11,5.57.14.94.01,1.89.02,2.84.04.95,0,1.91,0,2.87,0,3.84,0,7.75-.13,11.63-.27,3.64-.15,7.33.13,10.95.64.49.07.98.13,1.46.22.42.07.83.15,1.25.22.9.14,1.78.34,2.67.51,1.77.37,3.51.8,5.23,1.24,3.42.91,6.71,1.95,9.8,3.03,3.09,1.08,6,2.2,8.66,3.29,5.33,2.18,9.72,4.22,12.79,5.68,1.53.74,2.74,1.31,3.55,1.72.82.41,1.25.63,1.25.63,0,0-.36-.33-1.06-.92Z"/>
  <g>
    <path class="g" d="m144.38,148.04s14.17-56.13,30.62-45.92c0,0,.11-37.65,28.8-25.66,4.56,1.9,7.9,5.92,9.02,10.74,2.39,10.29,4.52,29.56-7.77,43.84,0,0,5.67,57.26-19.28,86.74,0,0-17.58,15.31,1.7,26.65,0,0,13.04,1.7-14.17,35.72,0,0-4.54,34.02-28.92,19.84,0,0-16.44,1.7,0,22.68,0,0,5.23,15.31-7.31,30.05,0,0,9.01,14.74-12.54,18.14l-39.12,55s-21.54,8.5-26.65,13.04c-5.1,4.54-13.61,20.41-43.09,24.95,0,0-10.21,13.61-11.91,33.45,0,0-12.47-81.09,7.94-102.06,0,0,3.97-17.76-7.37-33.82,0,0-3.4-16.63,23.25-34.77,0,0,9.07-.57-10.21-18.71,0,0-2.83-27.21,20.41-32.88,0,0,12.47-11.91-7.94-23.81,0,0-32.88-2.83,11.34-53.86,0,0,10.77-7.37,1.7-35.15,0,0-27.21-15.31,46.49-58.96,0,0,3.4-26.65,40.25-17.58,0,0,22.11-31.75,51.59-18.71,0,0,10.21,4.54-11.34,24.95-21.54,20.41-25.51,56.13-25.51,56.13Z"/>
    <path class="h" d="m157.99,73.2s-10.21,49.89-21.54,58.4c0,0-9.07-25.51-35.15-35.72,0,0,28.92,21.54,28.35,45.92,0,0-5.67,31.18-6.24,40.82,0,0-43.66-32.32-79.94-33.45,0,0,60.1,18.71,80.51,45.36,0,0,1.13,12.47,0,27.21,0,0-72.57-14.17-96.38,13.04,0,0,43.66-22.28,95.25-3.48,0,0-6.64,34.1-15.51,41.47,0,0-61.03,22.11-79.74,26.65,0,0,49.33-9.07,77.11-15.87,0,0-22.11,60.1-25.51,61.8,0,0-41.39,6.24-68.6,7.37,0,0,62.37,1.51,58.4,8.69,0,0-64.12,100.97-63.5,112.07,0,0,52.16-91.28,72.57-106.02,0,0,11.91,7.94,9.64,48.76,0,0,9.07-13.61-2.83-60.67,0,0,27.78-53.86,30.62-64.63,0,0,15.43,10.77,21.61,61.8,0,0,8.44-31.49-15.94-72.16l11.34-35s36.85,20.98,25.51,47.63c0,0,30.05-16.39-14.17-55.25,0,0-15.88-24.12,7.94-28.09,23.81-3.97,33.7-9.16,40.25-12.47,0,0-25.51,2.27-39.69,1.7,0,0,14.74-42.52,48.19-64.07l-27.78,16.44s15.47-51.41,27.78-57.83c0,0-22.11,19.11-64.07,109.91,0,0-2.57-26.4,1.7-53.21,0,0,13.61-31.18,19.84-77.11Z"/>
  </g>
  <g>
    <path class="e" d="m337.77,512.03v86.56c0,43.84-35.54,79.38-79.38,79.38h-24.95c-43.84,0-79.38-35.54-79.38-79.38v-86.56c0-8.14,6.6-14.74,14.74-14.74h154.22c8.14,0,14.74,6.6,14.74,14.74Z"/>
    <path class="c" d="m180.19,497.29c0,71.45-2.12,129.37-4.75,129.37s-4.75-57.92-4.75-129.37h9.5Z"/>
  </g>
</svg>