<?xml version="1.0" encoding="UTF-8"?>
<svg id="a" data-name="Lager 1" xmlns="http://www.w3.org/2000/svg" viewBox="0 0 576.27 659.79">
  <defs>
    <style>
      .c {
        fill: #f9ded2;
      }

      .d {
        fill: #683f0e;
      }

      .e, .f, .g {
        fill: #134c2f;
      }

      .h {
        fill: #f2bfa5;
      }

      .i {
        fill: #fac8ac;
        opacity: .55;
      }

      .j {
        fill: #fbd9cf;
      }

      .k {
        fill: #0a3d30;
        opacity: .68;
      }

      .l {
        opacity: .52;
      }

      .l, .m {
        fill: #6b916d;
      }

      .n {
        fill: #216943;
      }

      .f {
        opacity: .54;
      }

      .o {
        fill: #fde7e3;
      }

      .g {
        opacity: .59;
      }

      .m {
        opacity: .67;
      }
    </style>
  </defs>
  <g id="b" data-name="Flower7">
    <path class="n" d="m277,469.54c-29.86-.03-66.15-77.03-84.22-130.66-6.96-20.67-11.22-37.86-11.35-45.83-.01-.47-.01-.94-.04-1.39-.99-27.08-17.5-21.62-17.5-21.62,0,0-1.59-30.56-17.76-37.71,0,0,.47-32.64-13.37-36.19,0,0,1.78-27.02-14.44-28.38,0,0,2.3-23.45-6.45-25.04,0,0-20.35-71.9-12.87-87.35,0,0,23.38,62.9,38.72,66.46,0,0,1.55,31.36,26.16,29.77,0,0-10.18,21.31,7.91,33.82,2.31,1.59,5.06,3.04,8.37,4.29,0,0-3.61,25.59,16.49,30.82,0,0,2.19,29.9,23.11,33.56.13.03.28.04.42.07,0,0,2.78,30.21,29.97,31.51,0,0,15.42,73.24,43.08,80.6,0,0,25.12,103.31-16.24,103.28Z"/>
    <path class="f" d="m277,469.54c-29.86-.03-66.15-77.03-84.22-130.66,7.94-12.65,17.39-21.09,18.24-40.42,1.21-27.41-16.62-37.98-29.52-75.8-2.94-8.62-7.14-23.1-9.71-37.24,2.31,1.59,5.06,3.04,8.37,4.29,0,0-3.61,25.59,16.49,30.82,0,0,2.19,29.9,23.11,33.56.13.03.28.04.42.07,0,0,2.78,30.21,29.97,31.51,0,0,15.42,73.24,43.08,80.6,0,0,25.12,103.31-16.24,103.28Z"/>
    <path class="j" d="m391.41,477.54l-.07,1.13-.13,1.48-9.24,100.23-3.89,42.19-1.83,19.73-.92,9.99s-66.65,18.78-150.28-3.13l-10.24-65.33-16.09-102.59-.51-3.47c.42-.7,1.17-1.3,2.24-1.96,4.26.97,13.41,2.93,26.04,4.99,32.48,5.27,87.87,11.1,141.68,2,7.69-1.29,15.36-2.88,22.91-4.84.12-.03.23-.4.35-.43Z"/>
    <path class="i" d="m378.07,622.57l-2.75,29.73s-66.65,18.78-150.28-3.13l-26.33-167.92-.51-3.47c.42-.7,1.17-1.3,2.23-1.96,4.26.97,13.41,2.93,26.04,4.99,3.17,27.02,14.58,69.98,53.35,103.63,33.63,29.18,71.31,36.98,98.24,38.14Z"/>
    <path class="o" d="m391.41,477.54l-.07,1.13-.13,1.48-9.24,100.23c-6.54-12.54-12.3-27.84-15.07-45.77-3.1-20.14-1.54-37.92,1.26-51.8,7.69-1.29,15.36-2.88,22.91-4.84.12-.03.23-.4.35-.43Z"/>
    <ellipse class="c" cx="294.8" cy="477.43" rx="96.61" ry="17.44"/>
    <ellipse class="d" cx="295.6" cy="475.08" rx="83.75" ry="11.74"/>
    <path class="e" d="m330.06,360.47s-.95,6.85-3,16.81c-5.97,29.08-21.34,84.64-50,73.32-16.54-6.54-25.18-39.31-28.86-76.68-4.89-49.58-1.02-107.27,4.71-122.57,10.06-26.83-7.88-27.84-7.88-27.84,0,0,9.73-29.01-2.69-41.59,0,0,12.42-30.19.85-38.58,0,0,11.57-24.49-3.03-31.7,0,0,10.74-20.96,3.19-25.66,0,0,7.45-74.36,20.07-85.99,0,0-1.33,67.09,11.63,76.04,0,0-10.06,29.74,13.41,37.29,0,0-21.97,20.47,1.19,41.43,0,0-12.76,22.47,4.02,34.71,0,0-9.05,29.01,9.55,39.92,0,0-8.5,29.13,16.33,40.3,0,0-12.52,73.8,10.52,90.78Z"/>
    <path class="k" d="m327.06,377.28c-5.97,29.08-21.34,84.64-50,73.32-16.54-6.54-25.18-39.31-28.86-76.68,4.32,5.41,10.3,10.59,18.52,13.78,18.81,7.27,41.25.91,55-16.11,1.78,1.9,3.55,3.79,5.34,5.69Z"/>
    <path class="e" d="m329.2,478.72c-6.17,2.03-10.39,2.66-12.23,2.85-.35,0-.72-.01-1.08-.03-6.14-.2-14.06-.73-23.23-1.93-38.56-5.03-99.47-21.87-146.42-76.14-6.33-7.3-12.39-15.27-18.11-23.98C55,268.12,0,271.49,0,271.49c0,0,3.19-8.73,12.92-5.71.89.28,1.89.53,3,.75,10.96,2.18,31.04,1.77,31.04,1.77,6.38,13.08,27.68,11.57,27.68,11.57,2,12.92,23.14,13.08,23.14,13.08-.67,18.96,26.67,19.29,26.67,19.29.5,25.99,24.49,24.15,24.49,24.15,1.17,20.63,31.03,28.67,31.03,28.67.19,4.23,1.13,7.58,2.55,10.23,6.44,12.04,22.78,9.57,22.78,9.57,0,0-2.68,18.11,58.37,42.93,28.23,11.47,44.54,23.82,53.94,33.76,7.17,7.59,10.3,13.79,11.61,17.16Z"/>
    <path class="n" d="m517.88,104.45c-1.02,1.11-53.23,58.46-100.35,159.17-12.14,25.98-23.96,54.83-34.46,86.35-45.54,136.61-74.39,126.73-80.59,122.48-.83-.59-1.26-1.05-1.26-1.05,0,0-32.87-6.04-8.72-49.65,24.14-43.61,10.96-48.36,10.96-48.36,0,0,21.24-9.33,17.66-30.57,0,0,26.84-14.98,23.48-42.72,0,0,23.04-5.59,20.13-26.83,0,0,25.94-8.95,22.13-37.58,0,0,28.19-13.18,26.62-35.77,0,0,27.94-10.74,26.61-32.21,0,0,22.81-7.59,21.24-20.13l56.55-43.14Z"/>
    <path class="g" d="m417.52,263.62c-12.14,25.98-23.96,54.83-34.46,86.35-45.54,136.61-74.39,126.73-80.59,122.48,10.4-35.9,26.73-78.44,52.79-123,20.14-34.42,41.91-62.89,62.26-85.84Z"/>
    <path class="e" d="m576.27,303.01s-75.79,6.07-138.02,79.86c-3.25,3.83-6.44,7.84-9.58,12.05-43.83,58.6-80.72,77.62-99.47,83.79-6.17,2.03-10.39,2.66-12.23,2.85-.7.07-1.05.09-1.05.09,0,0-.01-.04-.03-.12-.25-.98-1.87-8.32,1.7-19.98,4.67-15.24,18.23-37.87,55.41-63.28,0,0,6.98-5.62,9.08-11.76.22-.66.38-1.33.48-1.99,0,0,13.58,1.24,14.25-11.12,0,0,16.09-2.68,22.64-14.51,1.65-2.96,2.69-6.5,2.74-10.71,0,0,29.74-2.68,31.3-21.69,0,0,25.72-.67,30.19-17.22,0,0,16.53,1.11,24.6-7.68.85-.91,1.59-1.92,2.22-3.06,0,0,44.95-17.89,65.75,4.48Z"/>
    <path class="m" d="m182.5,375.29c-12.48-2.14-27.47-6.41-42.58-15.11-29.14-16.78-29.84-33.43-61.72-58.35-28.47-22.26-53.38-28.92-62.29-35.3,10.96,2.18,31.04,1.77,31.04,1.77,6.38,13.08,27.68,11.57,27.68,11.57,2,12.92,23.14,13.08,23.14,13.08-.67,18.96,26.67,19.29,26.67,19.29.5,25.99,24.49,24.15,24.49,24.15,1.17,20.63,31.03,28.67,31.03,28.67.19,4.23,1.13,7.58,2.55,10.23Z"/>
    <path class="l" d="m508.29,301.59c-10.37,18.14-27.57,38.81-55.08,49.87-12.14,4.89-23.76,6.88-33.76,7.43,1.65-2.96,2.69-6.5,2.74-10.71,0,0,29.74-2.68,31.3-21.69,0,0,25.72-.67,30.19-17.22,0,0,16.53,1.11,24.6-7.68Z"/>
    <path class="m" d="m277.84,219.03c-.06,38.81-4.61,86.18,14.09,122.33,1.94,8.28-.02,15.97-6.5,21.53-63.56,42.24-7.59-147.13-7.59-143.86Z"/>
    <path class="k" d="m438.25,382.87c-3.25,3.83-6.44,7.84-9.58,12.05-43.83,58.6-80.72,77.62-99.47,83.79-6.17,2.03-10.39,2.66-12.23,2.85-.7.07-1.05.09-1.05.09,0,0-.01-.04-.03-.12-.25-.98-1.87-8.32,1.7-19.98,4.67-15.24,18.23-37.87,55.41-63.28,0,0,6.98-5.62,9.08-11.76,8.82,1.14,15.02,4.2,29.1,3.19,11.53-.83,20.38-3.82,27.08-6.83Z"/>
    <path class="h" d="m376.24,642.31l-.92,9.99s-66.65,18.78-150.28-3.13l-10.24-65.33c8.75,12.96,20.57,26.13,36.48,37.32,44.72,31.45,94.4,27.98,124.96,21.15Z"/>
    <path class="k" d="m292.66,479.61c-38.56-5.03-99.47-21.87-146.42-76.14,13.05,5.82,26.27,11.95,39.64,18.43,38.24,18.53,73.82,37.96,106.77,57.71Z"/>
  </g>
</svg>