<?xml version="1.0" encoding="UTF-8"?>
<svg id="a" data-name="Lager 1" xmlns="http://www.w3.org/2000/svg" viewBox="0 0 562.04 635.69">
  <defs>
    <style>
      .c, .d {
        fill: #134c2f;
      }

      .e {
        fill: #d4e6d4;
      }

      .f {
        fill: #6b916d;
      }

      .g {
        fill: #7d6d4b;
      }

      .h {
        fill: #ffefa5;
      }

      .i {
        fill: #5f8463;
      }

      .j {
        fill: #e0b815;
      }

      .k {
        fill: #f3977f;
      }

      .d {
        opacity: .24;
      }

      .l {
        fill: #f5d657;
      }

      .m {
        fill: #fae594;
      }

      .n {
        fill: #e2c033;
        opacity: .56;
      }

      .o {
        fill: #395131;
      }

      .p {
        fill: #476c4b;
      }
    </style>
  </defs>
  <g id="b" data-name="Flower8">
    <g>
      <path class="m" d="m452.13,587.27c.25,24.25-19.15,44.22-43.5,44.58-56.78.83-113.58,1.64-170.37,2.46-32.03.46-64.08.93-96.12,1.38-24.44.35-44.51-19.22-44.76-43.66-.3-28.19-.6-56.37-.92-84.56-.17-16.56-.35-33.12-.52-49.68-.04-4-.09-8.01-.13-12.01,9.19-.13,18.37-.27,27.57-.4,17.16-.25,34.31-.5,51.47-.75,18.42-.27,36.85-.54,55.26-.8,4.39-.07,8.79-.12,13.18-.19,3.03-.04,6.04-.09,9.07-.13,2.27-.03,4.52-.07,6.79-.09.85-.02,1.7-.03,2.55-.04,3.53-.06,7.07-.1,10.6-.16,1.3-.02,2.6-.03,3.9-.06,2.96-.04,5.93-.09,8.89-.12,6.57-.1,13.15-.2,19.71-.29,3.18-.04,6.36-.09,9.54-.13,35.51-.53,71-1.04,106.51-1.54h.01c9.11-.13,18.24-.27,27.35-.4.12,4.5.25,9.01.37,13.51,1.2,44.12,2.38,88.22,3.56,132.34.01.25.01.5.01.75Z"/>
      <path class="n" d="m452.13,587.27c.25,24.25-19.15,44.22-43.5,44.58-56.78.83-113.58,1.64-170.37,2.46-32.03.46-64.08.93-96.12,1.38-24.44.35-44.51-19.22-44.76-43.66-.3-28.19-.6-56.37-.92-84.56-.17-16.56-.35-33.12-.52-49.68-.04-4-.09-8.01-.13-12.01,9.19-.13,18.37-.27,27.57-.4,17.16-.25,34.31-.5,51.47-.75.41,5.41,1.09,10.91,2.1,16.49,1.23,6.85,2.94,13.79,5.25,20.73,2.45,7.39,5.56,14.78,9.47,22.07,39.18,73.06,145.01,111.53,260.48,83.35Z"/>
      <path class="h" d="m458.45,435.19c2.39,33.39-82.3,47.71-185.26,50.33-102.95,2.61-182.59-16.17-187.57-40.86-8.71-43.18,82.3-47.71,185.26-50.33,102.95-2.61,184.63-.14,187.57,40.86Z"/>
      <path class="l" d="m421.46,440.48c-16.4,15.96-77.3,23.42-148.84,25.23-74.74,1.9-134.54-7.61-150.65-21.42-2.21-1.9-3.6-3.88-4.09-5.92-7.04-29.56,68.13-32.99,153.15-35.16,85.02-2.16,152.46-.75,154.73,27.34.29,3.63-1.22,6.94-4.31,9.93Z"/>
      <path class="g" d="m421.46,440.48c-13.74,13.38-58.74,20.79-115.06,23.89-3.28.19-6.61.36-9.97.5-2.62.12-5.28.23-7.95.34-3.07.12-6.17.22-9.28.31-1.89.07-3.78.12-5.67.17-.29.01-.59.01-.89.02-1.04.02-2.08.06-3.12.08-3.17.07-6.31.11-9.42.15h-.22c-4.58.03-9.09.02-13.53-.01-4.61-.06-9.15-.15-13.59-.28-55.55-1.71-97.65-10.11-110.77-21.36,13.43-13.3,55.19-17.76,106.16-19.9,4.19-.18,8.45-.33,12.77-.48,1.38-.06,2.79-.1,4.19-.15,2.95-.1,5.91-.19,8.9-.28,1.31-.03,2.61-.08,3.93-.11,4.22-.12,8.48-.23,12.77-.33.11,0,.23-.01.35-.01,1.02-.02,2.03-.06,3.04-.08,2.83-.07,5.64-.13,8.42-.19,10.6-.22,20.89-.38,30.75-.4,3.07-.02,6.11-.01,9.1,0h.01c49.33.26,86.8,4.13,99.1,18.13Z"/>
      <path class="o" d="m475.63,274.41c-1.3-.53-78.81-31.65-153.27,147.94h-.01c-5.34,12.89-10.67,26.86-15.95,42.02-3.28.19-6.61.36-9.97.5,3.36-9.43,9.05-24.62,16.82-42.52,27.96-64.42,82.9-163.83,152.84-155.01l9.55,7.07Z"/>
      <path class="c" d="m273.52,465.69c-.29.01-.59.01-.89.02-1.04.02-2.08.06-3.12.08-3.17.07-6.31.11-9.42.15-.36-10.48-.82-20.64-1.4-30.48-.23-4.09-.49-8.11-.77-12.08-3.94-57.35-11.55-103.74-21.36-141.26h0c-2.32-8.9-4.77-17.29-7.33-25.22h0C183.8,115.54,105.49,123.8,105.49,123.8l16.26-5.79c53.44,9.21,88.13,58.89,110.65,118.63h0c2.4,6.36,4.66,12.82,6.78,19.37,18.91,58.16,27.56,122.39,31.51,167.02,1.59,17.95,2.41,32.72,2.83,42.65Z"/>
      <path class="p" d="m236.57,282.09c-2.18,29.5-2.19,63.8.77,103.7.57,7.66,1.24,15.52,2.03,23.6.47,4.76.97,9.59,1.53,14.51,1.49,13.44,3.29,27.43,5.44,42.02-4.61-.06-9.15-.15-13.59-.28-1.35-10-3.06-24.19-4.61-41.26-1.26-13.97-2.41-29.87-3.13-46.95-.23-5.41-.42-10.93-.56-16.56-.8-32.89.16-69.1,4.79-103.98.92-6.8,1.95-13.57,3.16-20.24,11.37-63.33,36.63-119.04,87.93-137.78l17.02,2.78s-79,5.89-98.17,154.37c-1.07,8.24-1.95,16.93-2.61,26.08Z"/>
      <path class="o" d="m269.51,465.79c-3.17.07-6.31.11-9.42.15h-.22c-4.87-15.19-9.8-29.22-14.78-42.17-1.9-4.95-3.8-9.73-5.72-14.36h0c-4.77-11.58-9.56-22.22-14.36-31.97-63.18-128.45-126.7-106.43-129.15-105.54l9.68-6.79c49.47-4.91,90.07,43.78,118.9,95.76h0c4.6,8.3,8.9,16.68,12.89,24.92h0c6.36,13.16,11.92,25.99,16.65,37.7,1.68,4.14,3.24,8.15,4.7,11.97,4.76,12.41,8.38,22.93,10.81,30.33Z"/>
      <path class="o" d="m282.5,422.75c1.49,13.28,3.45,27.41,5.98,42.45-3.07.12-6.17.22-9.28.31-1.56-10.25-3.56-25.11-5.12-42.58-6.22-70.05-5.24-182.13,59.87-207.75l11.79,1.62s-85.27,8.49-63.24,205.94Z"/>
      <path class="k" d="m502.72,272.08c-24.59-64.25,17.67-80.92,42.45-28.43,2.21,9.01-1.37,13.21,1.41,31.29,1.86,12.11,3.76,12.09,4.4,21.32,3.2,29.01-8.43,30.63-17.24,51.38,1.63,12.39.71,17.79-10.11,23.59-22.78,35.5,14.19,39.99-51.04,103.16,17.29-42.42,6.77-41.92-3.94-69.47,2.53-53.53-24.36-47.21-40.14-106.89-16.31-73.2,45.44-125.43,74.22-25.95Z"/>
      <path class="p" d="m551.78,295.73c5.05,13.34,5.42,19.59-5.08,28.85-16.07,45.4,26.19,40.76-29.85,127.97,8.16-51.66-3.4-48.36-22.48-76.19-6.48-34.98-18.73-44.88-34.37-59.27-11.25-10.34-24.25-23.03-38.11-49.08-35.46-73.47,12.82-144.25,67.54-61.63-29.77-55.39,9.71-77.38,47.97-29.22,2.54,4.98,2.93,8.89,3.89,14.33.84,4.86,2.14,10.93,5.83,20.08,5.23,12.97,7.33,12.45,10.44,22.55,11.11,31.41-1.38,36.25-5.77,61.61Z"/>
      <path class="k" d="m129.36,262.9c40.11-53.9,120.54,6.57,61.73,49.87-16.65.92-8.31,17.66-22,22.98-17.89,5.7-9.81,6.36-16.26,16.13-17.29,2.01-13.07,3.79-7.56,17.91.51,13.46-13.16,21.41-25.05,18.65-3.86,1.9-1.93,6.84-6.74,10.14-17.17,4.38-19.34,14.55-30.65,29.01-11.4,8.25-20.78,13.54-30.77,29.72-5.11-25.42,7.44-26.63,13.49-47.19,3.13-20.77-5.83-20.91,7.92-36.12-2.64-7.99-9.36-22.65-1.38-31.71,1.2-18.17-14.07-25.58,1.6-54.22,13.84-12.57,6.25-22.36,2.53-38.38-9.19-66.17,76.91-37.23,53.13,13.21Z"/>
      <path class="p" d="m213.48,243.99c-1.16,6.57-4,13.25-8.88,19.7-3.73,4.96-8.67,9.78-14.97,14.34-2.02-.01-3.72.26-5.16.73-11.24,3.67-6.54,20.37-19.85,25.14-19.52,5.54-10.91,6.89-18.44,18.09-18.65,1.2-14.24,3.62-9.21,20.83-.3,16.08-15.45,24.62-28.01,20.48-4.24,2-2.49,8.02-7.85,11.62-18.67,4.03-21.62,15.99-34.66,32.45-12.73,9.04-23.11,14.69-34.84,33.29-3.86-30.67,9.65-31.24,17.42-55.32,4.66-24.55-4.94-25.34,10.76-42.52-2.32-9.71-8.6-27.65.51-37.9,2.42-21.58-13.47-31.49,5.12-64.55,1.37-1.23,2.57-2.46,3.61-3.66,0-.01.01-.02.01-.02,10.7-12.54,4.21-24.25,1.51-41.89-.95-13.21.76-23.12,4.14-30.17,11.67-24.44,43.35-14.73,54,9.66,4.79,10.95,5.34,24.85-2.06,39.96,36.12-47.9,94.12-11.26,86.84,29.73Z"/>
      <g>
        <path class="i" d="m320.25,216.31c4.19-14.93.55-30.34-9.58-38.62-18.35-14.99-50.21-.17-53.21,12.69-1.41,6.04,3.95,9.9,1.55,18.65-2.15,7.85-12.27,10.89-12.96,17.52-.7,6.73.87,11.25,3.89,18.24,5.3,12.24-1.61,11.67-2.19,25.28-1.07,25.08,31.73,58.61,55.12,69.96,5.86,2.85,13.83,5.7,21.37,14.05,8.38,9.28,10.68,19.19,12,23.25,4.09,12.6,17.99,28.5,61.69,42.39,1.29-21.18-2.96-35.46-7.23-44.7-3.34-7.23-8.03-14.31-9.11-26.22-.77-8.49,1.17-9.8.56-19.58-.85-13.43-4.9-17.24-6.31-27.46-1.84-13.36,3.47-18.55,5.94-32.06,3.75-20.51-.34-53.09-19.16-62.11-16.84-8.07-38.49,6.1-42.36,8.72Z"/>
        <path class="o" d="m370.79,382.89c-13.25-22.79-30.59-52.71-41.13-92.78-6.76-25.71-7.94-51.03-9.59-71.22-.81,14.97-.47,32.42,2.4,51.46,8.18,54.27,32.49,92.15,48.33,112.55Z"/>
        <path class="o" d="m320.4,244.37c7.7.9,17.8,2.91,29.1,7.49,7.25,2.94,13.43,6.31,18.48,9.48-3.38-2.83-7.55-5.83-12.54-8.51-14.23-7.64-27.44-8.59-35.03-8.46Z"/>
        <path class="o" d="m327.62,287.5c7.01,4.2,15.89,10.53,24.97,19.97,5.83,6.05,10.48,12.07,14.13,17.42-2.19-4.29-5.06-9.08-8.83-13.9-10.75-13.75-22.98-20.36-30.27-23.48Z"/>
        <path class="o" d="m315.12,329.13c-.22-7.55.29-17.63,3.12-29.41,1.81-7.56,4.18-14.19,6.53-19.69-2.25,3.84-4.55,8.47-6.43,13.81-5.36,15.23-4.41,28.06-3.21,35.29Z"/>
        <path class="o" d="m340.7,373.71c-.84-5.71-1.34-13.41-.25-22.6.7-5.9,1.92-11.14,3.21-15.52-1.37,3.11-2.7,6.83-3.66,11.05-2.72,12.04-.86,21.69.7,27.07Z"/>
        <path class="o" d="m284.28,296.53c3.41-10.25,9.04-23.53,18.6-37.96,6.14-9.26,12.58-17,18.42-23.24-4.91,4.05-10.26,9.14-15.41,15.39-14.67,17.82-19.69,35.51-21.62,45.81Z"/>
      </g>
      <path class="o" d="m529.7,374.8c-.31-26.36-.75-60.94-12.23-100.75-7.37-25.55-19.33-47.88-28.26-66.07,8.37,12.44,17.02,27.6,24.31,45.41,20.79,50.79,19.33,95.78,16.18,121.41Z"/>
      <path class="o" d="m501.98,230.03c-6.16,4.72-13.79,11.62-21.15,21.34-4.72,6.24-8.3,12.3-11.01,17.61,1.46-4.16,3.5-8.87,6.41-13.73,8.3-13.85,19.15-21.44,25.75-25.22Z"/>
      <path class="o" d="m515.48,264.23c-5.12,6.36-11.26,15.38-16.52,27.37-3.37,7.7-5.66,14.95-7.23,21.23.57-4.78,1.61-10.27,3.47-16.1,5.33-16.62,14.52-27.06,20.27-32.5Z"/>
      <path class="o" d="m549.95,300.11c-3.68-6.6-9.29-14.99-17.75-23.66-5.43-5.56-10.86-10.04-15.7-13.56,3.9,2.14,8.25,4.94,12.6,8.56,12.41,10.33,18.17,21.83,20.84,28.65Z"/>
      <path class="o" d="m514.82,356.58c.77-5.72,2.4-13.26,5.98-21.79,2.3-5.48,4.91-10.18,7.35-14.04-2.17,2.62-4.48,5.82-6.56,9.62-5.92,10.82-6.79,20.61-6.78,26.21Z"/>
      <path class="o" d="m549.05,250.63c-6.8-5.86-16.47-12.94-29.44-19.17-8.32-3.99-16.21-6.77-23.04-8.73,5.23.8,11.22,2.15,17.55,4.42,18.06,6.47,29.17,16.95,34.93,23.48Z"/>
      <path class="o" d="m65.47,379.48c5.42-25.8,10.95-66.93,29.95-103.75,12.19-23.63,19.53-39.7,31.03-56.77-10.62,10.58-13.99,20.47-24.6,36.54-30.26,45.79-34.48,98.23-36.37,123.99Z"/>
      <path class="o" d="m111.01,240.51c6,4.92,13.41,12.07,20.44,22.03,4.51,6.39,7.89,12.56,10.43,17.96-1.32-4.21-3.21-8.98-5.96-13.94-7.84-14.12-18.44-22.06-24.9-26.05Z"/>
      <path class="d" d="m213.48,243.99c-2.96,6.57-5.92,13.13-8.88,19.7-3.73,4.96-8.67,9.78-14.97,14.34-2.02-.01-3.72.26-5.16.73-18.32-36.56-52.86-57.55-85.03-53.73-12.11,1.43-22.3,6.2-30.4,11.67,10.7-12.54,4.21-24.25,1.51-41.89-.95-13.21.76-23.12,4.14-30.17,18,3.22,36,6.44,54,9.66,4.79,10.95,5.34,24.85-2.06,39.96,36.12-47.9,94.12-11.26,86.84,29.73Z"/>
      <path class="o" d="m96.4,274.25c4.91,6.53,10.75,15.74,15.61,27.9,3.12,7.8,5.16,15.13,6.53,21.45-.41-4.79-1.27-10.31-2.94-16.21-4.78-16.79-13.62-27.52-19.2-33.15Z"/>
      <path class="o" d="m64.55,297.72c3.9-6.48,9.77-14.68,18.51-23.06,5.61-5.38,11.19-9.67,16.14-13.04-3.97,2.01-8.41,4.66-12.88,8.14-12.74,9.92-18.88,21.22-21.77,27.95Z"/>
      <path class="o" d="m94.02,366.57c-.58-5.75-1.96-13.33-5.26-21.98-2.12-5.55-4.57-10.34-6.89-14.27,2.08,2.69,4.28,5.97,6.24,9.83,5.56,11.01,6.11,20.82,5.91,26.42Z"/>
      <path class="o" d="m63.29,259.56c6.99-5.64,16.89-12.4,30.06-18.19,8.45-3.72,16.42-6.24,23.32-7.97-5.25.63-11.28,1.78-17.69,3.84-18.26,5.87-29.71,15.99-35.69,22.32Z"/>
      <path class="e" d="m460.39,223.82c0,4.77-2.68,8.63-5.98,8.63s-5.98-3.86-5.98-8.63,2.68-8.63,5.98-8.63,5.98,3.86,5.98,8.63Z"/>
      <path class="e" d="m523.06,198.6c3.96,2.65,5.69,7.02,3.86,9.76-1.83,2.74-6.53,2.82-10.5.18-3.96-2.65-5.69-7.02-3.86-9.76,1.83-2.74,6.53-2.82,10.5-.18Z"/>
      <path class="e" d="m544.04,300.94c3.73,2.49,5.36,6.61,3.63,9.19-1.73,2.58-6.15,2.66-9.88.17-3.73-2.49-5.36-6.61-3.63-9.19,1.73-2.58,6.15-2.66,9.88-.17Z"/>
      <path class="e" d="m366.06,386.31c3.73,2.49,5.36,6.61,3.63,9.19-1.73,2.58-6.15,2.66-9.88.17-3.73-2.49-5.36-6.61-3.63-9.19,1.73-2.58,6.15-2.66,9.88-.17Z"/>
      <path class="e" d="m363.81,334.56c3.82,0,6.92,2.14,6.92,4.79s-3.1,4.79-6.92,4.79-6.92-2.14-6.92-4.79,3.1-4.79,6.92-4.79Z"/>
      <path class="e" d="m116.66,333.88c3.82,0,6.92,2.15,6.92,4.79s-3.1,4.79-6.92,4.79-6.92-2.15-6.92-4.79,3.1-4.79,6.92-4.79Z"/>
      <path class="e" d="m294.85,200c3.73,2.49,5.36,6.61,3.63,9.19-1.73,2.58-6.15,2.66-9.88.17s-5.36-6.61-3.63-9.19c1.73-2.58,6.15-2.66,9.88-.17Z"/>
      <path class="e" d="m120.56,275.82c3.73,2.49,5.36,6.61,3.63,9.19-1.73,2.58-6.15,2.66-9.88.17-3.73-2.49-5.36-6.61-3.63-9.19,1.73-2.58,6.15-2.66,9.88-.17Z"/>
      <path class="e" d="m161.99,219.74c3.73,2.49,5.36,6.61,3.63,9.19-1.73,2.58-6.15,2.66-9.88.17-3.73-2.49-5.36-6.61-3.63-9.19,1.73-2.58,6.15-2.66,9.88-.17Z"/>
      <path class="e" d="m450.29,261.33c0,2.4-1.95,4.35-4.35,4.35s-4.35-1.95-4.35-4.35,1.95-4.35,4.35-4.35,4.35,1.95,4.35,4.35Z"/>
      <path class="e" d="m434.51,240.51c0,2.4-1.95,4.35-4.35,4.35s-4.35-1.95-4.35-4.35,1.95-4.35,4.35-4.35,4.35,1.95,4.35,4.35Z"/>
      <path class="e" d="m267.19,241.52c0,2.4-1.95,4.35-4.35,4.35s-4.35-1.95-4.35-4.35,1.95-4.35,4.35-4.35,4.35,1.95,4.35,4.35Z"/>
      <path class="e" d="m164.9,288.53c0,2.4-1.95,4.35-4.35,4.35s-4.35-1.95-4.35-4.35,1.95-4.35,4.35-4.35,4.35,1.95,4.35,4.35Z"/>
      <path class="e" d="m298.44,312.83c0,2.4-1.95,4.35-4.35,4.35s-4.35-1.95-4.35-4.35,1.95-4.35,4.35-4.35,4.35,1.95,4.35,4.35Z"/>
      <path class="e" d="m359.48,227.08c0,2.4-1.95,4.35-4.35,4.35s-4.35-1.95-4.35-4.35,1.95-4.35,4.35-4.35,4.35,1.95,4.35,4.35Z"/>
      <circle class="e" cx="62.32" cy="393.6" r="4.35"/>
      <path class="e" d="m72.96,314.89c0,2.4-1.95,4.35-4.35,4.35s-4.35-1.95-4.35-4.35,1.95-4.35,4.35-4.35,4.35,1.95,4.35,4.35Z"/>
      <circle class="e" cx="475.63" cy="310.54" r="4.35"/>
      <path class="e" d="m491.73,273.34c0,2.4-1.95,4.35-4.35,4.35s-4.35-1.95-4.35-4.35,1.95-4.35,4.35-4.35,4.35,1.95,4.35,4.35Z"/>
      <ellipse class="e" cx="528.02" cy="252.25" rx="5.21" ry="2.74"/>
      <path class="e" d="m343.82,266.79c0,1.51-2.33,2.74-5.21,2.74s-5.21-1.23-5.21-2.74,2.33-2.74,5.21-2.74,5.21,1.23,5.21,2.74Z"/>
      <path class="e" d="m516.4,375c1.44.46,1.9,3.05,1.03,5.79-.87,2.74-2.75,4.59-4.19,4.13-1.44-.46-1.9-3.05-1.03-5.79.87-2.74,2.75-4.59,4.19-4.13Z"/>
      <path class="e" d="m506.35,319.09c1.31.76,1.21,3.39-.23,5.88-1.44,2.49-3.67,3.9-4.98,3.14-1.31-.76-1.21-3.39.23-5.88,1.44-2.49,3.67-3.9,4.98-3.14Z"/>
      <g>
        <path class="f" d="m152.1,93.82c68.81-16.07,57.47-62.18-1.57-53.11-8.91,3.32-10.29,8.85-27.17,16.94-11.3,5.42-12.42,3.77-20.58,8.58-26.32,14.07-20.7,25.04-32.87,44.68-11.4,5.78-15.39,9.71-13.78,22.4-16.19,40.25-42.17,10.96-56.14,103.87,25.31-39.52,31.2-30.16,60.81-36.9,43.52-33.23,54.35-6.37,114.02-27.38,71.37-28.39,78.24-111.95-22.73-79.07Z"/>
        <path class="o" d="m34.85,191.29c14.6-18.72,33.77-43.25,63.71-65.51,19.21-14.28,39.96-23.76,56.28-31.92-12.78,4.35-27.24,10.49-42.18,19.28-42.59,25.05-66.08,58.08-77.81,78.15Z"/>
        <path class="o" d="m131.43,105.04c2.48,9.12,4.8,21.45,4.75,36.31-.03,9.53-1.03,18.05-2.32,25.2,1.66-5.11,3.16-11.19,3.92-18.05,2.18-19.56-2.75-34.93-6.35-43.46Z"/>
        <path class="o" d="m147.02,97.22c5.96,7.34,13.05,17.69,19,31.3,3.82,8.74,6.35,16.93,8.05,24-.54-5.35-1.63-11.51-3.7-18.1-5.9-18.77-16.61-30.85-23.35-37.2Z"/>
        <path class="o" d="m100.61,121.86c-1.28,8.07-3.85,18.67-9.22,30.61-3.44,7.66-7.3,14.23-10.89,19.6,3.16-3.63,6.54-8.08,9.61-13.38,8.76-15.1,10.33-28.92,10.5-36.84Z"/>
        <path class="o" d="m64.96,123.14c6.93-3.02,16.47-6.3,28.45-8.07,7.69-1.14,14.72-1.41,20.7-1.28-4.4-.66-9.55-1.07-15.21-.82-16.13.7-27.68,6.36-33.94,10.17Z"/>
        <path class="o" d="m31.03,172.64c4.41-3.73,10.68-8.22,19.06-12.14,5.38-2.52,10.47-4.25,14.88-5.47-3.37.48-7.23,1.31-11.32,2.73-11.66,4.05-18.87,10.72-22.62,14.88Z"/>
        <path class="o" d="m86.17,92.94c8.05-.49,18.82-.29,31.48,2.32,8.13,1.68,15.28,3.98,21.23,6.3-4.17-2.27-9.19-4.57-14.95-6.39-16.43-5.2-30.09-3.75-37.76-2.23Z"/>
        <path class="e" d="m162.19,58.05c3.96,2.65,5.69,7.02,3.86,9.76-1.83,2.74-6.53,2.82-10.5.18-3.96-2.65-5.69-7.02-3.86-9.76,1.83-2.74,6.53-2.82,10.5-.18Z"/>
        <path class="e" d="m195.04,117.19c3.73,2.49,5.36,6.61,3.63,9.19-1.73,2.58-6.15,2.66-9.88.17-3.73-2.49-5.36-6.61-3.63-9.19,1.73-2.58,6.15-2.66,9.88-.17Z"/>
        <path class="e" d="m218.46,118.79c0,2.4-1.95,4.35-4.35,4.35s-4.35-1.95-4.35-4.35,1.95-4.35,4.35-4.35,4.35,1.95,4.35,4.35Z"/>
        <path class="e" d="m130.8,145.55c0,2.4-1.95,4.35-4.35,4.35s-4.35-1.95-4.35-4.35,1.95-4.35,4.35-4.35,4.35,1.95,4.35,4.35Z"/>
        <ellipse class="e" cx="95.29" cy="105.49" rx="5.32" ry="3.93"/>
        <path class="e" d="m68.61,185.67c0,2.17-2.38,3.93-5.32,3.93s-5.32-1.76-5.32-3.93,2.38-3.93,5.32-3.93,5.32,1.76,5.32,3.93Z"/>
        <ellipse class="e" cx="21.52" cy="190.27" rx="3.93" ry="2.9"/>
      </g>
      <path class="d" d="m541.28,191.49c-12.16,3.79-29.45,11.2-45.3,25.49-.06.04-.1.09-.16.15-6.92,6.25-13.57,13.84-19.39,23.01-17.75,27.98-18.93,56.78-16.44,76.95-11.25-10.34-24.25-23.03-38.11-49.08-35.46-73.47,12.82-144.25,67.54-61.63-29.77-55.39,9.71-77.38,47.97-29.22,2.54,4.98,2.93,8.89,3.89,14.33Z"/>
      <path class="f" d="m299.58,76.29c-35.41-52.59,39.03-114.22,60.12-46.41-3.81,16.25,10.7,13.27,13.74,27.13,2.54,11.57,4.9,7.56,11.55,16.3,0,0-.52,7.47,6.43,8.82,21.33,5.61,9.69,34.15,20.84,44.68,4.72,27.88,19.96,46.59,33.67,74.35-23.34-1.7-20.91-14.09-36.97-25.25-17.05-8.41-19.66.17-28.98-17.01-7.63.46-22.13,3.12-27.75-6.92-40.97,6.19-41.84-32.08-78.77-28.05-59.65-8.35-10.84-83.64,26.11-47.66Z"/>
      <path class="o" d="m418.98,175.16c-14.41-18.86-33.33-43.59-63.04-66.15-19.07-14.48-39.72-24.16-55.96-32.49,12.73,4.48,27.13,10.76,41.99,19.7,42.34,25.48,65.49,58.74,77.01,78.93Z"/>
      <path class="o" d="m321.79,86.02c-2.11,7.46-4.12,17.56-4.2,29.75-.05,7.82.69,14.82,1.7,20.7-1.32-4.21-2.5-9.21-3.07-14.84-1.63-16.07,2.54-28.64,5.57-35.61Z"/>
      <path class="o" d="m353.92,105.07c1.2,8.08,3.66,18.71,8.91,30.71,3.37,7.7,7.15,14.3,10.69,19.71-3.13-3.66-6.45-8.14-9.47-13.47-8.6-15.19-10.03-29.02-10.13-36.94Z"/>
      <path class="o" d="m389.56,106.7c-6.9-3.09-16.4-6.47-28.37-8.36-7.68-1.21-14.71-1.55-20.69-1.49,4.41-.61,9.56-.97,15.22-.67,16.12.87,27.62,6.64,33.84,10.52Z"/>
      <path class="o" d="m408.58,133.65c-4.96-2.96-11.88-6.37-20.79-8.86-5.72-1.6-11.02-2.49-15.57-2.97,3.4-.07,7.34.11,11.61.85,12.16,2.09,20.37,7.49,24.75,10.99Z"/>
      <path class="o" d="m368.66,76.29c-8.05-.57-18.82-.48-31.5,2-8.14,1.59-15.32,3.83-21.29,6.08,4.2-2.23,9.23-4.48,15.02-6.24,16.48-5.04,30.12-3.45,37.78-1.84Z"/>
      <path class="e" d="m319.18,42.16c3.96,2.65,5.69,7.02,3.86,9.76-1.83,2.74-6.53,2.82-10.5.18-3.96-2.65-5.69-7.02-3.86-9.76s6.53-2.82,10.5-.18Z"/>
      <path class="e" d="m343.37,119.41c.54,4.46-1.53,8.37-4.61,8.74-3.09.37-6.02-2.94-6.56-7.39-.54-4.46,1.53-8.37,4.61-8.74,3.08-.37,6.02,2.94,6.56,7.39Z"/>
      <path class="e" d="m381.03,87.16c.43,3.54-1.21,6.65-3.66,6.94-2.45.3-4.78-2.33-5.21-5.87-.43-3.54,1.21-6.65,3.66-6.94,2.45-.3,4.78,2.33,5.21,5.87Z"/>
      <path class="e" d="m300.78,105.07c0,2.4-1.95,4.35-4.35,4.35s-4.35-1.95-4.35-4.35,1.95-4.35,4.35-4.35,4.35,1.95,4.35,4.35Z"/>
      <path class="e" d="m368.08,58.67c0,2.4-1.95,4.35-4.35,4.35s-4.35-1.95-4.35-4.35,1.95-4.35,4.35-4.35,4.35,1.95,4.35,4.35Z"/>
      <circle class="e" cx="407.09" cy="146.1" r="4.35"/>
    </g>
    <path class="j" d="m238.25,634.3c-32.03.46-64.08.93-96.12,1.38-24.44.35-44.51-19.22-44.76-43.66-.3-28.19-.6-56.37-.92-84.56,9.23,21.62,24.3,47.99,49.11,72.35,29.93,29.42,63.51,45.59,92.69,54.48Z"/>
  </g>
</svg>