<?xml version="1.0" encoding="UTF-8"?>
<svg id="a" data-name="Lager 1" xmlns="http://www.w3.org/2000/svg" viewBox="0 0 532.54 539.94">
  <defs>
    <style>
      .b {
        fill: #af893d;
      }

      .c {
        fill: #644a1d;
      }

      .d {
        fill: #70975f;
      }

      .e {
        fill: #57764a;
      }

      .f {
        fill: #88b478;
      }

      .g {
        fill: #ebd575;
      }

      .h {
        fill: #f4e49e;
      }

      .i {
        fill: #c9b251;
      }
    </style>
  </defs>
  <g>
    <polygon class="b" points="229.79 539.94 379.77 539.94 411.27 446.62 378.78 353.3 243.66 353.3 193.26 439.52 229.79 539.94"/>
    <polygon class="i" points="345.94 539.94 340.53 427.42 370.7 472.6 411.27 446.62 379.77 539.94 345.94 539.94"/>
    <polygon class="g" points="298.63 539.94 285.45 427.42 301.43 509.7 339.11 444.36 301.44 353.3 260.04 353.3 247.44 438.17 298.63 539.94"/>
    <polygon class="g" points="247.44 539.94 193.26 439.52 220.35 353.3 243.66 353.3 229.79 438.31 247.44 539.94"/>
    <polygon class="g" points="345.94 539.94 370.7 472.6 358.32 539.94 345.94 539.94"/>
    <polygon class="i" points="193.26 439.52 229.79 539.94 273.35 539.94 259.48 462.11 245.95 537.18 193.26 439.52"/>
    <polygon class="i" points="298.63 539.94 313.93 539.94 315.71 493.22 331.95 516.58 339.11 444.36 301.43 509.7 285.45 427.42 298.63 539.94"/>
    <polygon class="i" points="322.74 353.3 358.32 353.3 358.32 427.42 322.74 353.3"/>
    <polygon class="h" points="273.35 377.39 270.33 483.68 247.44 438.17 260.04 353.3 301.44 353.3 321.91 402.79 273.35 377.39"/>
    <polygon class="h" points="285.45 427.42 307.83 475.78 327.33 464.79 301.43 509.7 285.45 427.42"/>
  </g>
  <polygon class="c" points="276.85 361.36 250.78 355.59 358.32 358.48 335.36 361.36 276.85 361.36"/>
  <path class="e" d="m312.97,361.36s-9.34-113.22,12.77-133.07c2.49-2.23,10.89,2.23,13.38,0,5.52-4.94-3.68-26.81,3.24-29.46,4.58-1.75,9.98,14.71,14.62,13.1,8.69-3.03-2.37-32.92,6.19-36.29,4.86-1.91,11.54,13.88,16.61,12.65,10.54-2.55,7.85-39.71,18.68-39.15,5.11.26,1.9,18.12,6.88,19.26,4.7,1.08,8.95-13.26,13.77-13.53,5.46-.3,11.74,13.82,17.21,13.53,4.01-.22,7.77-12.79,11.47-11.23,3.7,1.56-3.06,13.46,0,16.06,5.75,4.9,24.07-9.73,29.83-4.83,1.38,1.17-1.28,5.96,0,7.24,2.03,2.03,9.44-2.03,11.47,0,3.43,3.43-4.03,16.7,0,19.39,3.1,2.07,10.67-7.8,13.77-5.74,2.63,1.75-2.23,10.39,0,12.62,1.83,1.83,8.85-2.12,10.33,0,2.36,3.39-7.25,11.65-5.74,15.49,1.77,4.47,14.68,4.51,17.21,8.6,1.66,2.68.87,9.58,0,12.61-.75,2.6-7.05,6.81-5.74,9.18,1.39,2.51,9.45-2.03,11.47,0,4.87,4.87,0,27.53,0,27.53,0,0-23.62-10.69-27.53-17.9-2.24-4.13,3.41-15.57,0-18.81-4.16-3.95-22.94,1.14-22.94,0s10.14-16.72,6.88-21.26c-3.51-4.9-19.18,3.54-24.09.04-3.58-2.55-1.34-16.77-5.74-16.63-4.31.14-.55,15.12-4.59,16.63-7.07,2.66-18.84-20.67-25.24-16.63-3.55,2.24,5.41,13.82,2.29,16.63-6.07,5.47-24.68-11.86-31.74-7.75-3.93,2.29-1.54,14.51-4.97,17.5-4.58,4-22.64-2.47-24.09,3.44-.82,3.33,11.58,4.62,11.14,8.03-.81,6.32-21.9,3.09-23.76,9.18-1.18,3.86,10.6,9.44,9.25,13.25-1.9,5.36-17.9,2.19-21.87,6.25-14.29,14.63-20.65,94.07-20.65,94.07h-9.77Z"/>
  <path class="d" d="m293.91,346.45s-32.57-45.32-25.83-60.26c2.44-5.41,20.67-1.79,22.54-7.42,3.09-9.31-23.44-22.35-22.54-32.12.42-4.49,13.02-8.11,12.91-12.62-.1-4.32-13.49-7.19-12.91-11.47.48-3.57,12.49-2.82,12.91-6.4.5-4.18-12.75-6.6-12.91-10.8-.17-4.51,13.8-8.19,12.91-12.62-1.07-5.33-19.87-2.6-20.21-8.03-.29-4.71,16.53-4.34,16.56-9.06.05-7.63-26.19-7.41-26.57-15.03-.23-4.46,15.95-6.06,14.6-10.33-.61-1.91-6.88-7.53-8.03-9.18-3.32-4.76,16.15-6.95,14.91-12.62-1.21-5.54-15.89-10.82-13.72-16.06,2.85-6.88,16,2.41,20.6-3.44,4.93-6.26-12.16-17.48-6.36-22.94,2.74-2.58,9.63.86,13.24-.19,4.65-1.35,7.91-13.52,12.61-14.73,3.95-1.02,11.33,6.71,15.29,5.74,4.87-1.19,8.42-14.31,13.4-14.91,3.54-.43,8.39,9.12,11.78,8.03,3.78-1.22,2.17-12.64,5.42-14.91,1.41-.99,5.67,1.22,6.88,0,3.45-3.45-3.45-16.06,0-19.5,2.45-2.45,11.91,2.87,13.84,0,1.73-2.57-5.1-8.41-4.66-11.47,1.1-7.62,19.17-24.09,19.17-24.09,0,0,.41,25.47,6.07,30.97,1.25,1.22,6.05-.39,6.88,1.15,2.39,4.4-9.15,13.47-8.03,18.36.59,2.58,8.73,4.33,8.03,6.88-.87,3.17-11.26-.53-12.95,2.29-2.01,3.37,7.58,12.03,4.92,14.91-2.45,2.64-11.54-6.08-13.99-3.44-2.64,2.84,7.09,11.59,4.81,14.73-1.5,2.08-8.44-1.81-10.25,0-2.26,2.26,2.2,10.48,0,12.81-3.36,3.57-16.21-2.42-19.58,1.15-2.17,2.3,2.35,10.52,0,12.62-3.75,3.34-16.2-5.64-19.95-2.29-3,2.67,2.84,13.22,0,16.06-3.17,3.17-15.79-3.95-17.91,0-1.3,2.43,6.19,6.42,6.1,9.18-.08,2.52-5.96,5.51-6.1,8.03-.17,2.99,7.14,7.51,6.1,10.33-1.83,4.97-19.91,1.59-20.02,6.88-.11,5.37,17.82,2.89,20.02,7.79,1.78,3.97-8.47,12.65-6.1,16.3,1.8,2.78,12.05-2.26,13.21.84,2.76,7.33-24.26,14.56-22.18,22.11,1.03,3.75,13.9.09,15.07,3.79,1.45,4.57-13.9,9.97-12.5,14.56.95,3.1,11.42.38,12.5,3.44,1.64,4.67-13.86,11.65-11.61,16.06,1.16,2.27,9.04-2.27,10.21,0,2.19,4.25-12.37,10.94-11.1,15.54,1.42,5.15,18.31,3.36,19.61,8.55.86,3.43-9.96,7.77-8.76,11.09,1.16,3.24,11.69-.05,13.46,2.9,8.41,14.01-17.91,77.78-17.91,77.78l-13.91-14.91Z"/>
  <path class="f" d="m307.83,361.36h-22.94s-11.47-81.45-63.09-152.58c-9.5-13.09-21.33-27.3-36.99-40.39-.01-.01-.02-.01-.02-.01-23.35-19.51-55.24-36.48-100.65-43.34-44.46-6.72-78.01,25.24-78.01,25.24,0,0,17.67-51.21,33.27-53.92,3.61-.63,7.84,9.66,11.47,9.18,5.29-.7,7.31-16.66,12.62-17.21,3.84-.39,7.64,9.9,11.47,10.33,5.23.57,13.24-11.55,18.36-10.33,4.03.96,5.4,12.08,9.18,13.77,7.41,3.32,26-9.9,32.12-4.59,1.51,1.32-1.42,6.61,0,8.03,4.46,4.46,20.78-4.46,25.24,0,2.43,2.43-2.43,11.33,0,13.77,5.47,5.47,25.5-5.47,30.97,0,2.43,2.43-2.43,11.33,0,13.77,2.43,2.43,10.96-2,13.77,0,4.96,3.52,3.07,19.42,8.03,22.94,4.1,2.9,16.53-3.54,20.08,0,4.46,4.46-4.46,20.78,0,25.24,1.93,1.93,8.81-1.76,10.9,0,6.46,5.44-.72,27.83,5.74,33.27,5.48,4.62,23.61-5.07,28.68,0,4.26,4.26-4.26,19.83,0,24.09,1.22,1.22,5.59-1.12,6.88,0,5.52,4.78,1.59,20.71,2.19,31.25.22,4.12,1.12,7.4,3.54,8.9,3.86,2.39,13.53-8.39,17.21-5.74,13.73,9.89,0,88.33,0,88.33Z"/>
  <path class="e" d="m307.83,361.36h-22.94s-11.47-81.45-63.09-152.58c-9.5-13.09-21.33-27.3-36.99-40.39,1.18.65,39.36,22.11,93.2,98.52,1.54,2.19,4.88,2.99,9.07,2.95.22,4.12,1.12,7.4,3.54,8.9,3.86,2.39,13.53-8.39,17.21-5.74,17.74,12.77,0,88.33,0,88.33Z"/>
  <path class="f" d="m440.9,115.87c-1.15,3.44-17.65,10-18.36,16.06-.3,2.63,7.63,5.5,6.88,8.03-1.69,5.75-22.12.95-22.94,6.88-.52,3.71,13.08,4.31,12.62,8.03-.67,5.4-17.67,2.33-20.65,6.88-1.73,2.65,3.28,10.28,1.15,12.62-3.27,3.58-18.02-4.65-19.39,0-1.04,3.57,12.75,4.32,12.51,8.03-.42,6.65-24.04,4.81-24.09,11.47-.02,3.23,11.4,2.51,11.59,5.74.46,8.2-29.96,9.9-27.65,17.78,1.14,3.86,14.55-3.72,16.06,0,2.87,7.04-24.67,14.18-21.8,21.22.76,1.86,6.95-1.7,8.03,0,2.89,4.56-10.8,14.36-9.18,19.5.7,2.2,7.67,2.31,8.03,4.59.72,4.61-13.58,9.2-12.62,13.77.79,3.76,13.42,2.35,14.09,6.14.84,4.78-14.8,8.57-14.09,13.36.47,3.17,11.17,2.55,11.47,5.74.39,4.27-13.96,6.05-13.67,10.33.17,2.71,8.6,2.77,9.45,5.35,2.49,7.56-12.99,43.98-12.99,43.98h-12.62l-14.91-57.36s13.19,3.3,14.91,0c4.11-7.89-24.53-21.25-20.42-29.14,1.18-2.26,8.73,2.08,10.21,0,4.51-6.33-14.72-23.03-10.21-29.37,1.48-2.08,8.68,2.04,10.21,0,5.37-7.19-15.58-27.22-10.21-34.41,3.05-4.1,17.47,4.18,20.42,0,4.38-6.22-15.6-23.31-10.21-28.68,2.99-2.99,12.48,8.17,15.95,5.74,7.74-5.45-7.8-32.5,0-37.86,3.29-2.26,11.22,7.26,14.91,5.74,5.22-2.16,3.53-20.31,9.18-20.65,3.34-.21,3.54,11.68,6.88,11.47,5.64-.34,3.83-18.84,9.18-20.65,3.41-1.15,9.25,8.13,12.62,6.88,6.89-2.57,3.35-25.2,10.33-27.53,3.54-1.18,9.34,9.83,12.62,8.03,3.52-1.93-3.52-14.13,0-16.06,3.28-1.8,9.13,9.38,12.62,8.03,4.15-1.62,1.06-14.5,4.59-17.21,7.27-5.59,36.71,0,36.71,0,0,0-33.02,17.67-28.68,26.39,1.28,2.58,12.62-2.29,11.47,1.15Z"/>
  <path class="d" d="m440.9,115.87c-1.15,3.44-17.65,10-18.36,16.06-.3,2.63,7.63,5.5,6.88,8.03-1.69,5.75-22.12.95-22.94,6.88-.52,3.71,13.08,4.31,12.62,8.03-.67,5.4-17.67,2.33-20.65,6.88-1.73,2.65,3.28,10.28,1.15,12.62-3.27,3.58-18.02-4.65-19.39,0-1.04,3.57,12.75,4.32,12.51,8.03-.42,6.65-24.04,4.81-24.09,11.47-.02,3.23,11.4,2.51,11.59,5.74.46,8.2-29.96,9.9-27.65,17.78,1.14,3.86,14.55-3.72,16.06,0,2.87,7.04-24.67,14.18-21.8,21.22.76,1.86,6.95-1.7,8.03,0,2.89,4.56-10.8,14.36-9.18,19.5.7,2.2,7.67,2.31,8.03,4.59.72,4.61-13.58,9.2-12.62,13.77.79,3.76,13.42,2.35,14.09,6.14.84,4.78-14.8,8.57-14.09,13.36.47,3.17,11.17,2.55,11.47,5.74.39,4.27-13.96,6.05-13.67,10.33.17,2.71,8.6,2.77,9.45,5.35,2.49,7.56-12.99,43.98-12.99,43.98h-8.03s2.83-64.3,4.62-80.68c2.4-22.1,2.82-68.18,12.96-87.96,3.77-7.34,19.26-15.99,23.71-22.94,2.18-3.41,2.05-12.95,5.36-15.29,2.81-2,11.09,2.17,13.77,0,2.88-2.34.17-12.19,3.05-14.53,2.09-1.69,8.82,1.89,10.71,0,2.57-2.57-2.05-11.53,0-14.53,2.66-3.9,14.15-3.65,17.59-6.88,4.46-4.19,5.67-18.22,10.32-22.17,5.68-4.82,28.68-8.03,28.68-8.03,0,0-33.02,17.67-28.68,26.39,1.28,2.58,12.62-2.29,11.47,1.15Z"/>
  <path class="f" d="m130.01,385.45s-23.31-31.5-21.8-43.59c.52-4.14,10.81-8.45,10.9-12.62.09-4.39-11.21-9.39-10.9-13.77.27-3.74,9.41-6.88,10.9-10.32,2.15-5.01-3.85-17.94,0-21.8,3.55-3.55,16.96,3.94,20.08,0,3.84-4.86-9.57-19.23-5.74-24.09,3.73-4.73,19.83,4.26,24.09,0,2.84-2.84-2.84-13.22,0-16.06,2.43-2.43,10.42.79,13.77,0,2.5-.59,6.61-4.62,9.18-4.59,5.52.06,14.03,11,19.5,10.33,3.83-.47,7.62-10.15,11.47-10.33,2.86-.13,6.31,6.71,9.18,6.88,3.46.21,8.58-6.8,12.04-6.88,11.41-.28,33.3,11.98,40.73,20.65,9.03,10.54,17.21,52.77,17.21,52.77,0,0-26.26-33.73-39.01-39-12.06-4.99-42.97-9.23-52.2,0-2.03,2.03,2.19,9.63,0,11.47-2.56,2.15-10.25-3.89-13.19-2.29-4.47,2.42-6.88,16.06-5.74,19.5,1.15,3.44-10.89-4.27-13.77-2.29-2.6,1.79,2.23,10.39,0,12.62-2.64,2.64-12.89-3.13-14.91,0-3.42,5.28,14.71,18.43,10.32,22.94-2.6,2.67-10.61-7.72-13.77-5.74-4.62,2.91,3.57,19.05-1.15,21.8-2.22,1.29-6.87-5.71-9.18-4.59-8.96,4.35-8.03,39-8.03,39Z"/>
  <path class="d" d="m362.89,312.03c-3.96,2.6-14.63-7.54-18.35-4.64-2.9,2.27,2.93,12.51,0,14.73-2.68,2.04-10.31-5.63-13-3.59-3.05,2.32,2.21,12.17,0,15.29-1.35,1.89-7.45,1.16-8.8,3.06-1.39,1.95,0,24.47,0,24.47h-21.3s7.3-24.11,6.39-27.53c-.71-2.65-8.89-3.29-9.18-6.01-.34-3.25,7.94-6.26,9.18-9.28,1.38-3.36-1.95-11.47,0-14.54,1.97-3.1,9.93-4.78,13.33-6.2,1.97-.81,4.97-1.95,8.34-3.2,10.07-3.72,23.55-8.42,23.55-8.42l12.14,11.62s.71,12.24-2.29,14.23Z"/>
  <path class="d" d="m0,232.5s9.34-39.3,20.65-40.53c4.19-.46,6.53,13.55,10.71,13,4.58-.6,3.18-15.66,7.65-16.82,3.72-.97,11.47,8.41,13.77,6.88,2.29-1.53,8.04-14.57,13-15.3,4.88-.71,11.13,11.24,16.06,11.47,5.9.27,18.35-10.71,20.65-11.47,2.3-.76,7.55,6.5,10.71,6.88,5.6.69,14.75-13.06,19.88-10.71,3.2,1.46,3.06,13.77,5.35,13,2.29-.76,15.98-9.85,21.59-8.41,3.13.8,5.12,9.07,8.23,9.94,5.65,1.58,17.01-10.41,22.18-7.65,3.31,1.77.82,12.27,3.82,14.53,6.27,4.71,25.75-6.24,31.36-.76,3.15,3.08-2.93,14.33,0,17.61,2.95,3.3,13.59.1,17.59,1.99,4.08,1.92,2.2,19.23,5.35,22.46,2.37,2.42,15.59-3.15,16.82,0,1.6,4.09-3.11,14.49,0,17.6,1.89,1.89,9.06-2.11,10.71,0,3.88,4.97-10.22,19.69-6.12,24.47,3.38,3.93,17.74-6.2,20.65-1.91,2.83,4.18-11.23,13.36-9.18,17.97,1.81,4.06,15.42.51,17.2,4.59,1.69,3.9-6.99,10.87-8.02,14.99-3.73,14.89-1.19,30.2,0,45.05h-13.77s-11.84-47.54-9.94-45.05c-2.51-3.37-13.58-5.44-13.77-9.64-.15-3.25,10.27-5.17,9.94-8.41-.64-6.28-22.34-5.77-22.18-12.08.08-3.18,11.69-2.34,11.47-5.51-.42-6.21-21.48-1.83-23.71-7.65-1.9-4.96,13.59-13.89,10.71-18.35-3.01-4.66-22.18,2.29-22.18,0s11.91-13.18,8.41-16.07c-4.83-3.99-17.21,15.68-21.41,13.01-4.21-2.68.23-19.02-4.82-20.65-2.29-.74-3.48,7.79-5.89,7.64-4.88-.3-5.22-15.57-9.94-16.82-4.47-1.18-11.44,9.27-16.06,9.18-6.99-.14-16.75-14.16-23.71-14.82-3.88-.37-10.64,5.89-14.53,5.64-5.99-.38-15.11-11.76-21.1-11.47-3.43.17-9.49,6.41-11.78,7.03-2.29.62-22.26-6.04-29.83-5.5-3.87.28-10.68,4.96-14.53,5.5-3.61.51-10.94-1.79-14.53-1.2-10.09,1.67-37.48,16.35-37.48,16.35Z"/>
  <path class="f" d="m297.92,349.87c-3.35,4.65-19.51-4.6-22.94,0-5.83,7.82.18,11.67-1.15,15.49-2.03,5.82-16.91-.83-18.35,5.16-.95,3.96,12.62,6.24,12.62,10.32s-10.88,6.64-12.62,10.32c-1.72,3.62,2.85,13.22,0,16.06-1.42,1.41-6.91-1.66-8.03,0-3.46,5.12,12.64,17.83,9.18,22.94-1.28,1.89-7.55-1.63-9.18,0-2.83,2.83,2.85,13.22,0,16.06-1.62,1.62-7.8-1.85-9.18,0-3.57,4.81,10.46,18.14,6.88,22.94-3.07,4.14-17-3.65-20.65,0-1.62,1.62,1.63,7.55,0,9.18-2.43,2.43-11.33-2.43-13.77,0-4,4-.08,22.55-.01,22.93-.53-.48-17.2-15.88-17.2-22.93,0-2.87,6.63-6.32,6.88-9.18.34-3.83-8.76-10.42-6.88-13.77,1.7-3.02,11.88,1.74,13.77-1.15,3.31-5.11-11.75-18.14-8.03-22.94,2.12-2.73,11.92,4.06,13.77,1.15,3.37-5.32-14.26-15.72-12.62-21.8,1.2-4.46,15.73-4.57,16.06-9.18.38-5.09-15.26-7.58-16.06-12.62-.65-4.08,9.75-9.67,9.18-13.77-.52-3.73-11.98-6.02-11.47-9.75.59-4.39,13.97-3.56,16.06-7.46,1.79-3.33-4.92-12.22-2.29-14.91,3.22-3.32,14.89,5.36,18.35,2.29,2.36-2.09-2.23-10.39,0-12.62,4.67-4.67,21.91,4.84,26.39,0,2.55-2.74-4.16-12.71-1.15-14.91,7.95-5.82,29.67,7.51,36.57,14.77.06.05.09.09.14.14.53.56,1.12,1.33,1.73,2.24,2.95,4.37,6.19,11.92,4,14.97Z"/>
  <path class="e" d="m362.89,312.03c-3.96,2.6-14.63-7.54-18.35-4.64-2.9,2.27,2.93,12.51,0,14.73-2.68,2.04-10.31-5.63-13-3.59-3.05,2.32,2.21,12.17,0,15.29-1.35,1.89-7.45,1.16-8.8,3.06-1.39,1.95,0,24.47,0,24.47h-9.77c1.56-19.08,7.43-51.69,16.53-66.76,10.07-3.72,23.55-8.42,23.55-8.42l12.14,11.62s.71,12.24-2.29,14.23Z"/>
  <path class="f" d="m429.43,480.67s-38.96-8.12-45.89-18.36c-1.77-2.62,2.23-10.39,0-12.62-2.43-2.43-11.33,2.43-13.77,0-4.46-4.46,3.57-20.04,0-25.24-2.26-3.29-13.87-1.88-14.91-5.74-1.43-5.32,14.19-11.71,13.77-17.21-.36-4.66-13.86-7.95-13.77-12.62.09-4.89,15.42-7.77,14.91-12.62-.8-7.79-26.51-7.15-27.53-14.91-.92-7.04,21.38-12.44,20.65-19.5-.63-6.02-21-6.59-20.65-12.62.24-4.1,14.74-2.78,14.91-6.88.31-7.57-22.56-8.36-26.38-14.91-1.3-2.23,2.06-8.79,0-10.32-4.81-3.58-22.94,6.88-22.94,6.88,0,0,2.71-14.17,17.91-20.42,4.3-1.77,9.6-2.9,16.13-2.9,3.83,0,8.44,1.33,13.17,3.46,9.88,4.44,20.25,12.33,25.06,18.71,2.63,3.49,7.87,11.81,6.88,16.06-.6,2.58-8.35,4.26-8.03,6.88.63,5.09,16.29,4.49,18.36,9.18,1.69,3.82-6.33,12.26-4.59,16.06,1.71,3.73,14.59,2.79,14.91,6.88.16,2.06-6.24,2.63-6.88,4.59-1.8,5.52,8.25,15.99,8.03,21.8-.13,3.46-6.47,9.23-5.74,12.62.64,2.98,8.49,5.06,9.18,8.03.85,3.64-6.46,10.11-5.74,13.77.39,1.99,5.12,3.81,5.74,5.74,1.07,3.33-3.76,10.6-2.3,13.77.7,1.51,4.68,2.15,5.74,3.44,6.54,8.01,13.77,39,13.77,39Z"/>
  <path class="d" d="m293.91,334.9c-6.44.41-12.86,1.48-19.07,3.15-6.95,1.87-15.36,4.25-20.28,9.88-5.21,5.97-8.72,13.42-11.51,20.78-2.65,7-5.33,14.47-6.16,21.95-1.06,9.58-.15,19.27-2.72,28.66-2.02,7.39-4.4,14.71-6.7,22.02-3.27,10.44-7.65,23.1-18.49,27.84-1.72.75-1.69-1.66-.4-2.22,13.98-6.12,16.82-26.72,20.97-39.7,1.85-5.77,3.73-11.67,4.04-17.75.24-4.73.16-9.49.54-14.2.56-7.03,2.21-13.83,4.47-20.49,3.99-11.76,9.29-26.81,20.82-33.21,9.75-5.41,21.36-8.11,32.62-9.06.06.05.09.09.14.14.53.56,1.12,1.33,1.73,2.24Z"/>
  <path class="d" d="m413.6,469.91c-6.38-7.79-11.61-16.74-15.48-26.04-4.23-10.22-4.99-20.86-7.24-31.56-4.87-23.12-15.37-44.9-19.25-68.22-1.66-9.98-.92-19.97-2.15-29.95-1.3-10.58-6.44-19.61-14.67-26.43-7.74-6.42-16.53-6.49-25.97-4.73-.98.18-2.02.38-3.11.61,4.3-1.77,9.6-2.9,16.13-2.9,3.83,0,8.44,1.33,13.17,3.46,5.05,3.53,9.29,8.55,12.1,13.63,4.31,7.78,5.05,16.12,5.23,24.86.57,26.34,10.22,50.21,17.51,75.21,3.53,12.14,4.18,24.88,7.82,36.94,3.58,11.79,9.95,23.4,17.74,32.94.87,1.06-1.02,3.2-1.84,2.19Z"/>
  <polygon class="h" points="307.83 368.74 335.36 361.36 276.85 361.36 307.83 368.74"/>
</svg>