<?xml version="1.0" encoding="utf-8"?>
<!-- Generator: Adobe Illustrator 28.2.0, SVG Export Plug-In . SVG Version: 6.00 Build 0)  -->
<svg version="1.1" id="Layer_1" xmlns="http://www.w3.org/2000/svg" xmlns:xlink="http://www.w3.org/1999/xlink" x="0px" y="0px"
	 viewBox="0 0 400.83 830.47" style="enable-background:new 0 0 400.83 830.47;" xml:space="preserve">
<style type="text/css">
	.st0{fill-rule:evenodd;clip-rule:evenodd;fill:#66BE62;}
	.st1{fill-rule:evenodd;clip-rule:evenodd;fill:#FFFFFF;}
	.st2{fill-rule:evenodd;clip-rule:evenodd;fill:#F6F6F6;}
	.st3{fill-rule:evenodd;clip-rule:evenodd;fill:#C3C3C3;}
	.st4{fill-rule:evenodd;clip-rule:evenodd;fill:#E0E1E0;}
	.st5{fill-rule:evenodd;clip-rule:evenodd;fill:#C9DF89;}
	.st6{fill-rule:evenodd;clip-rule:evenodd;fill:#BCD85E;}
	.st7{fill-rule:evenodd;clip-rule:evenodd;fill:#B0C0CD;}
	.st8{fill-rule:evenodd;clip-rule:evenodd;fill:#DDF2FA;}
	.st9{fill-rule:evenodd;clip-rule:evenodd;fill:#C3E2F7;}
	.st10{fill-rule:evenodd;clip-rule:evenodd;fill:#D3DEEA;}
	.st11{fill-rule:evenodd;clip-rule:evenodd;fill:#4C4D52;}
	.st12{fill-rule:evenodd;clip-rule:evenodd;fill:#EDA030;}
	.st13{fill-rule:evenodd;clip-rule:evenodd;fill:#FFDB8C;}
	.st14{fill-rule:evenodd;clip-rule:evenodd;fill:#FFD165;}
	.st15{fill-rule:evenodd;clip-rule:evenodd;fill:#EF472D;}
</style>
<rect x="-1670" y="19.45" class="st0" width="731.87" height="966.67"/>
<g>
	<path class="st1" d="M57.32,790.32L34.44,406.08c-6.92-3.81-12.12-10.39-14.06-18.24H7.13c-2.21,0-4.12-0.91-5.52-2.62
		c-1.4-1.72-1.9-3.77-1.45-5.94l9.49-45.67c0.69-3.34,3.56-5.67,6.96-5.67l4.12,0c0.49-0.39,1-0.75,1.52-1.09
		c5.42-66.78,47.75-125.07,109.34-150.94L101.32,20.09c-0.75-3.85,1.78-7.59,5.63-8.34l59.73-11.61c4.04-0.78,7.97,1.87,8.76,5.91
		l30.3,155.91c92.18,2.28,167.14,74.05,174.45,164.9c0.52,0.34,1.03,0.7,1.52,1.09l4.11,0c3.41,0,6.27,2.33,6.97,5.67l9.49,45.67
		c0.45,2.17-0.05,4.22-1.45,5.94c-1.4,1.72-3.3,2.62-5.52,2.62h-13.24c-1.95,7.85-7.14,14.43-14.07,18.24l-22.88,384.23
		c-0.64,23.18-33.78,29.87-51.52,33.11c-29.79,5.44-62.14,7.04-92.38,7.04c-30.24,0-62.59-1.6-92.38-7.04
		C91.1,820.18,57.96,813.5,57.32,790.32L57.32,790.32L57.32,790.32z"/>
	<path class="st2" d="M201.22,339.93H39.45c0-89.34,72.43-161.77,161.77-161.77c89.34,0,161.77,72.43,161.77,161.77H201.22
		L201.22,339.93z"/>
	<path class="st3" d="M369.39,339.93H33.05c-1.18,0-2.14,0.96-2.14,2.13l0,0c0,1.17,0.96,2.14,2.14,2.14h336.34
		c1.17,0,2.13-0.96,2.13-2.14l0,0C371.52,340.88,370.56,339.93,369.39,339.93L369.39,339.93L369.39,339.93z"/>
	<polygon class="st4" points="25.3,344.19 377.14,344.19 382.19,368.52 20.24,368.52 25.3,344.19 	"/>
	<path class="st5" d="M37.32,368.52h327.81v10.88c0,5.99-4.9,10.89-10.89,10.89H48.2c-5.99,0-10.88-4.9-10.88-10.89V368.52
		L37.32,368.52z"/>
	<path class="st6" d="M75.09,788.1L51.4,390.29h299.63l-23.69,397.8v0c0,12.73-56.47,23.05-126.12,23.05
		C131.56,811.15,75.09,800.83,75.09,788.1L75.09,788.1L75.09,788.1z"/>
	<polygon class="st7" points="120.81,25.64 159.94,18.03 227.85,368.52 187.45,368.52 120.81,25.64 	"/>
	<path class="st8" d="M159.94,18.03l-39.13,7.61l31.12,160.16c12.47-3.98,25.6-6.5,39.19-7.33L159.94,18.03L159.94,18.03z"/>
	<path class="st9" d="M191.12,178.47c-13.58,0.83-26.72,3.35-39.19,7.33l29.95,154.13h40.61L191.12,178.47L191.12,178.47z"/>
	<polygon class="st10" points="222.5,339.93 181.89,339.93 182.72,344.19 223.33,344.19 222.5,339.93 	"/>
	<path class="st1" d="M327.91,281.31c-8.73-5.32-46.77-50.35-48.22-58.54C273.63,188.6,361.08,301.53,327.91,281.31L327.91,281.31
		L327.91,281.31z"/>
	<path class="st11" d="M136.13,695.32c11.55,0,20.91,9.36,20.91,20.92c0,11.55-9.36,20.91-20.91,20.91
		c-11.55,0-20.92-9.36-20.92-20.91C115.21,704.69,124.58,695.32,136.13,695.32L136.13,695.32z"/>
	<path class="st11" d="M278.26,768.1c8.72,0,15.79,7.07,15.79,15.79s-7.07,15.79-15.79,15.79c-8.72,0-15.79-7.07-15.79-15.79
		S269.54,768.1,278.26,768.1L278.26,768.1L278.26,768.1z"/>
	<path class="st11" d="M137.84,743.77c10.02,0,18.14,8.12,18.14,18.14c0,10.02-8.12,18.14-18.14,18.14
		c-10.02,0-18.14-8.12-18.14-18.14C119.7,751.89,127.82,743.77,137.84,743.77L137.84,743.77L137.84,743.77z"/>
	<path class="st11" d="M222.78,703.43c9.43,0,17.07,7.64,17.07,17.07c0,9.43-7.64,17.07-17.07,17.07c-9.43,0-17.07-7.65-17.07-17.07
		C205.7,711.08,213.35,703.43,222.78,703.43L222.78,703.43L222.78,703.43z"/>
	<path class="st11" d="M214.24,752.73c9.43,0,17.07,7.65,17.07,17.07c0,9.43-7.64,17.07-17.07,17.07c-9.43,0-17.07-7.64-17.07-17.07
		C197.16,760.38,204.81,752.73,214.24,752.73L214.24,752.73L214.24,752.73z"/>
	<path class="st11" d="M183.51,719.87c10.02,0,18.14,8.12,18.14,18.14c0,10.02-8.12,18.14-18.14,18.14
		c-10.02,0-18.14-8.12-18.14-18.14C165.37,727.99,173.49,719.87,183.51,719.87L183.51,719.87L183.51,719.87z"/>
	<path class="st11" d="M98.14,719.87c10.02,0,18.14,8.12,18.14,18.14c0,10.02-8.12,18.14-18.14,18.14
		c-10.02,0-18.14-8.12-18.14-18.14C80,727.99,88.12,719.87,98.14,719.87L98.14,719.87L98.14,719.87z"/>
	<path class="st11" d="M98.99,760.41c10.02,0,18.14,8.12,18.14,18.14c0,10.02-8.12,18.14-18.14,18.14
		c-10.02,0-18.14-8.12-18.14-18.14C80.85,768.53,88.98,760.41,98.99,760.41L98.99,760.41L98.99,760.41z"/>
	<path class="st11" d="M172.84,769.38c10.02,0,18.14,8.12,18.14,18.14c0,10.02-8.12,18.14-18.14,18.14
		c-10.02,0-18.14-8.12-18.14-18.14C154.7,777.5,162.82,769.38,172.84,769.38L172.84,769.38L172.84,769.38z"/>
	<path class="st11" d="M249.67,736.51c10.02,0,18.14,8.12,18.14,18.14c0,10.02-8.12,18.14-18.14,18.14
		c-10.02,0-18.14-8.12-18.14-18.14C231.53,744.63,239.65,736.51,249.67,736.51L249.67,736.51L249.67,736.51z"/>
	<path class="st11" d="M306.44,711.33c10.02,0,18.14,8.12,18.14,18.14c0,10.02-8.12,18.14-18.14,18.14
		c-10.02,0-18.14-8.12-18.14-18.14C288.29,719.45,296.42,711.33,306.44,711.33L306.44,711.33L306.44,711.33z"/>
	<path class="st11" d="M308.57,749.32c10.02,0,18.14,8.12,18.14,18.14c0,10.02-8.12,18.14-18.14,18.14
		c-10.02,0-18.14-8.12-18.14-18.14C290.43,757.44,298.55,749.32,308.57,749.32L308.57,749.32L308.57,749.32z"/>
	<path class="st11" d="M269.73,704.07c8.72,0,15.79,7.07,15.79,15.79c0,8.72-7.07,15.79-15.79,15.79c-8.72,0-15.79-7.07-15.79-15.79
		C253.93,711.14,261,704.07,269.73,704.07L269.73,704.07L269.73,704.07z"/>
	<path class="st11" d="M245.4,774.92c8.72,0,15.79,7.07,15.79,15.79c0,8.72-7.07,15.79-15.79,15.79c-8.72,0-15.79-7.07-15.79-15.79
		C229.6,782,236.67,774.92,245.4,774.92L245.4,774.92L245.4,774.92z"/>
	<path class="st11" d="M181.37,681.88c8.72,0,15.79,7.07,15.79,15.79c0,8.72-7.07,15.79-15.79,15.79c-8.72,0-15.79-7.07-15.79-15.79
		C165.58,688.95,172.65,681.88,181.37,681.88L181.37,681.88L181.37,681.88z"/>
	<path class="st11" d="M311.98,678.04c8.72,0,15.79,7.07,15.79,15.79c0,8.72-7.07,15.79-15.79,15.79c-8.72,0-15.79-7.07-15.79-15.79
		C296.19,685.11,303.26,678.04,311.98,678.04L311.98,678.04L311.98,678.04z"/>
	<path class="st11" d="M94.26,686.14c8.72,0,15.79,7.07,15.79,15.79c0,8.72-7.07,15.79-15.79,15.79c-8.72,0-15.79-7.07-15.79-15.79
		C78.46,693.22,85.53,686.14,94.26,686.14L94.26,686.14L94.26,686.14z"/>
	<path class="st11" d="M273.57,668.22c8.72,0,15.79,7.07,15.79,15.79c0,8.72-7.07,15.79-15.79,15.79c-8.72,0-15.79-7.07-15.79-15.79
		C257.77,675.29,264.85,668.22,273.57,668.22L273.57,668.22L273.57,668.22z"/>
	<path class="st11" d="M229.18,669.07c8.72,0,15.79,7.07,15.79,15.79c0,8.72-7.07,15.79-15.79,15.79c-8.72,0-15.79-7.07-15.79-15.79
		C213.39,676.14,220.45,669.07,229.18,669.07L229.18,669.07L229.18,669.07z"/>
	<path class="st11" d="M149.32,665.3c8.72,0,15.79,7.07,15.79,15.79c0,8.72-7.07,15.79-15.79,15.79c-8.72,0-15.79-7.07-15.79-15.79
		C133.52,672.37,140.59,665.3,149.32,665.3L149.32,665.3L149.32,665.3z"/>
	<path class="st12" d="M284.79,553.63c-7.66,0-13.88,6.21-13.88,13.88c0,7.66,6.21,13.88,13.88,13.88s13.88-6.21,13.88-13.88
		C298.66,559.84,292.45,553.63,284.79,553.63L284.79,553.63L284.79,553.63z"/>
	<path class="st12" d="M129.67,553.63c7.66,0,13.88,6.21,13.88,13.88c0,7.66-6.21,13.88-13.88,13.88c-7.66,0-13.88-6.21-13.88-13.88
		C115.79,559.84,122,553.63,129.67,553.63L129.67,553.63L129.67,553.63z"/>
	<path class="st11" d="M149.77,515.35c6.61,0,12.59,2.68,16.93,7.01c4.33,4.33,7.01,10.32,7.01,16.93c0,6.61-2.68,12.59-7.01,16.92
		c-4.33,4.33-10.32,7.01-16.93,7.01c-6.61,0-12.59-2.68-16.92-7.01c-4.33-4.33-7.01-10.32-7.01-16.92c0-6.61,2.68-12.6,7.01-16.93
		C137.18,518.03,143.16,515.35,149.77,515.35L149.77,515.35L149.77,515.35z"/>
	<path class="st11" d="M249.78,522.36c4.33-4.33,10.31-7.01,16.92-7.01c6.61,0,12.59,2.68,16.93,7.01
		c4.33,4.33,7.01,10.32,7.01,16.93c0,6.61-2.68,12.59-7.01,16.92c-4.33,4.33-10.32,7.01-16.93,7.01c-6.61,0-12.59-2.68-16.92-7.01
		c-4.33-4.33-7.01-10.32-7.01-16.92C242.77,532.68,245.45,526.69,249.78,522.36L249.78,522.36L249.78,522.36z"/>
	<path class="st1" d="M157.1,526.85c5.45,0,9.87,4.42,9.87,9.87c0,5.45-4.42,9.87-9.87,9.87c-5.45,0-9.87-4.42-9.87-9.87
		C147.24,531.26,151.65,526.85,157.1,526.85L157.1,526.85L157.1,526.85z"/>
	<path class="st1" d="M258.71,526.85c5.45,0,9.87,4.42,9.87,9.87c0,5.45-4.42,9.87-9.87,9.87c-5.45,0-9.87-4.42-9.87-9.87
		C248.84,531.26,253.26,526.85,258.71,526.85L258.71,526.85L258.71,526.85z"/>
	<path class="st11" d="M176.33,578.65c0-2.11,1.71-3.82,3.82-3.82c2.11,0,3.82,1.71,3.82,3.82c0,2.97,1.2,5.65,3.15,7.59
		c1.94,1.94,4.62,3.14,7.59,3.14c2.96,0,5.65-1.2,7.59-3.14c1.94-1.94,3.14-4.63,3.14-7.59c0-2.11,1.71-3.82,3.82-3.82
		c2.11,0,3.82,1.71,3.82,3.82c0,2.97,1.2,5.65,3.14,7.59c1.94,1.94,4.63,3.14,7.59,3.14c2.96,0,5.65-1.2,7.59-3.14
		c1.94-1.94,3.14-4.63,3.14-7.59c0-2.11,1.71-3.82,3.82-3.82c2.11,0,3.82,1.71,3.82,3.82c0,5.07-2.06,9.67-5.38,12.99
		c-3.32,3.32-7.92,5.38-12.99,5.38c-5.07,0-9.67-2.06-12.99-5.38c-0.56-0.56-1.08-1.15-1.56-1.78c-0.48,0.63-1,1.22-1.56,1.78
		c-3.33,3.32-7.92,5.38-12.99,5.38c-5.07,0-9.66-2.06-12.99-5.38C178.39,588.32,176.33,583.72,176.33,578.65L176.33,578.65
		L176.33,578.65z"/>
</g>
<path class="st1" d="M613.78,666.06l-33.26-558.48c-10.06-5.53-17.61-15.1-20.44-26.51h-19.25c-3.22,0-5.99-1.32-8.02-3.81
	c-2.03-2.5-2.76-5.48-2.1-8.63l13.8-66.38c1-4.85,5.17-8.24,10.12-8.24l5.98,0c0.71-0.56,1.45-1.09,2.21-1.58
	c7.88-97.07,69.41-181.79,158.93-219.39l-44.01-226.48c-1.09-5.59,2.59-11.04,8.18-12.12l86.82-16.87
	c5.87-1.14,11.59,2.72,12.73,8.59l44.04,226.61c133.99,3.31,242.93,107.62,253.56,239.67c0.76,0.49,1.5,1.02,2.21,1.58l5.98,0
	c4.96,0,9.12,3.39,10.13,8.24l13.79,66.38c0.66,3.15-0.07,6.13-2.1,8.63c-2.03,2.5-4.8,3.81-8.02,3.81h-19.25
	c-2.83,11.41-10.38,20.98-20.45,26.52l-33.26,558.47c-0.93,33.69-49.1,43.41-74.88,48.12c-43.29,7.91-90.32,10.24-134.27,10.24
	c-43.95,0-90.98-2.32-134.27-10.24C662.88,709.46,614.71,699.74,613.78,666.06L613.78,666.06L613.78,666.06z"/>
<path class="st2" d="M822.93,11.42H587.81c0-129.86,105.27-235.13,235.12-235.13c129.86,0,235.13,105.27,235.13,235.13H822.93
	L822.93,11.42z"/>
<path class="st3" d="M1067.36,11.42H578.5c-1.71,0-3.1,1.39-3.1,3.1l0,0c0,1.7,1.4,3.1,3.1,3.1h488.86c1.71,0,3.1-1.4,3.1-3.1l0,0
	C1070.46,12.82,1069.07,11.42,1067.36,11.42L1067.36,11.42L1067.36,11.42z"/>
<polygon class="st4" points="567.24,17.63 1078.62,17.63 1085.97,52.99 559.89,52.99 567.24,17.63 "/>
<path class="st13" d="M584.71,52.99h476.45v15.82c0,8.7-7.12,15.82-15.82,15.82H600.53c-8.7,0-15.82-7.12-15.82-15.82V52.99
	L584.71,52.99z"/>
<path class="st14" d="M639.61,662.83l-34.43-578.2h435.5l-34.43,578.19v0c0,18.5-82.08,33.5-183.32,33.5
	C721.69,696.33,639.61,681.33,639.61,662.83L639.61,662.83L639.61,662.83z"/>
<polygon class="st7" points="706.06,-445.38 762.94,-456.44 861.64,52.99 802.91,52.99 706.06,-445.38 "/>
<path class="st8" d="M762.94-456.44l-56.88,11.05l45.24,232.79c18.13-5.79,37.21-9.44,56.96-10.66L762.94-456.44L762.94-456.44z"/>
<path class="st9" d="M808.26-223.25c-19.74,1.21-38.83,4.87-56.96,10.66l43.53,224.02h59.02L808.26-223.25L808.26-223.25z"/>
<polygon class="st10" points="853.86,11.42 794.84,11.42 796.04,17.63 855.07,17.63 853.86,11.42 "/>
<path class="st1" d="M1007.07-73.77c-12.68-7.74-67.97-73.18-70.08-85.08C928.17-208.52,1055.28-44.38,1007.07-73.77L1007.07-73.77
	L1007.07-73.77z"/>
<path class="st11" d="M728.33,527.98c16.79,0,30.4,13.61,30.4,30.4c0,16.78-13.61,30.4-30.4,30.4c-16.79,0-30.4-13.61-30.4-30.4
	C697.93,541.59,711.54,527.98,728.33,527.98L728.33,527.98z"/>
<path class="st11" d="M934.91,633.75c12.68,0,22.95,10.28,22.95,22.96c0,12.68-10.27,22.95-22.95,22.95
	c-12.68,0-22.95-10.28-22.95-22.95C911.96,644.03,922.23,633.75,934.91,633.75L934.91,633.75L934.91,633.75z"/>
<path class="st11" d="M730.81,598.39c14.56,0,26.37,11.81,26.37,26.37c0,14.56-11.8,26.37-26.37,26.37
	c-14.56,0-26.37-11.8-26.37-26.37C704.44,610.2,716.25,598.39,730.81,598.39L730.81,598.39L730.81,598.39z"/>
<path class="st11" d="M854.27,539.77c13.7,0,24.81,11.11,24.81,24.82c0,13.7-11.11,24.81-24.81,24.81
	c-13.71,0-24.82-11.11-24.82-24.81C829.45,550.88,840.56,539.77,854.27,539.77L854.27,539.77L854.27,539.77z"/>
<path class="st11" d="M841.86,611.42c13.7,0,24.81,11.11,24.81,24.82c0,13.71-11.11,24.81-24.81,24.81
	c-13.71,0-24.82-11.11-24.82-24.81C817.04,622.53,828.15,611.42,841.86,611.42L841.86,611.42L841.86,611.42z"/>
<path class="st11" d="M797.19,563.65c14.56,0,26.36,11.8,26.36,26.37c0,14.56-11.8,26.37-26.36,26.37
	c-14.56,0-26.37-11.8-26.37-26.37C770.82,575.45,782.63,563.65,797.19,563.65L797.19,563.65L797.19,563.65z"/>
<path class="st11" d="M673.11,563.65c14.56,0,26.37,11.8,26.37,26.37c0,14.56-11.81,26.37-26.37,26.37
	c-14.56,0-26.36-11.8-26.36-26.37C646.75,575.45,658.55,563.65,673.11,563.65L673.11,563.65L673.11,563.65z"/>
<path class="st11" d="M674.35,622.59c14.56,0,26.37,11.8,26.37,26.37c0,14.56-11.8,26.37-26.37,26.37
	c-14.56,0-26.37-11.81-26.37-26.37C647.99,634.39,659.79,622.59,674.35,622.59L674.35,622.59L674.35,622.59z"/>
<path class="st11" d="M781.68,635.62c14.56,0,26.36,11.8,26.36,26.37c0,14.56-11.8,26.37-26.36,26.37
	c-14.56,0-26.37-11.8-26.37-26.37C755.31,647.42,767.12,635.62,781.68,635.62L781.68,635.62L781.68,635.62z"/>
<path class="st11" d="M893.35,587.84c14.56,0,26.37,11.81,26.37,26.37c0,14.56-11.8,26.36-26.37,26.36
	c-14.56,0-26.36-11.81-26.36-26.36C866.99,599.65,878.79,587.84,893.35,587.84L893.35,587.84L893.35,587.84z"/>
<path class="st11" d="M975.86,551.24c14.56,0,26.36,11.8,26.36,26.37c0,14.56-11.8,26.37-26.37,26.37
	c-14.56,0-26.37-11.8-26.37-26.37C949.49,563.05,961.3,551.24,975.86,551.24L975.86,551.24L975.86,551.24z"/>
<path class="st11" d="M978.96,606.46c14.56,0,26.37,11.8,26.37,26.37c0,14.56-11.81,26.36-26.37,26.36
	c-14.56,0-26.37-11.8-26.37-26.36C952.59,618.26,964.4,606.46,978.96,606.46L978.96,606.46L978.96,606.46z"/>
<path class="st11" d="M922.5,540.7c12.68,0,22.95,10.28,22.95,22.96c0,12.68-10.27,22.95-22.95,22.95
	c-12.68,0-22.96-10.27-22.96-22.95C899.55,550.97,909.82,540.7,922.5,540.7L922.5,540.7L922.5,540.7z"/>
<path class="st11" d="M887.14,643.68c12.68,0,22.95,10.28,22.95,22.96c0,12.68-10.27,22.95-22.95,22.95
	c-12.68,0-22.95-10.28-22.95-22.95C864.19,653.96,874.46,643.68,887.14,643.68L887.14,643.68L887.14,643.68z"/>
<path class="st11" d="M794.08,508.44c12.68,0,22.96,10.27,22.96,22.95c0,12.68-10.27,22.96-22.96,22.96
	c-12.68,0-22.95-10.28-22.95-22.96C771.13,518.71,781.41,508.44,794.08,508.44L794.08,508.44L794.08,508.44z"/>
<path class="st11" d="M983.92,502.85c12.68,0,22.95,10.27,22.95,22.95c0,12.68-10.28,22.95-22.95,22.95
	c-12.68,0-22.96-10.28-22.96-22.95C960.97,513.13,971.24,502.85,983.92,502.85L983.92,502.85L983.92,502.85z"/>
<path class="st11" d="M667.47,514.64c12.67,0,22.95,10.28,22.95,22.96c0,12.68-10.28,22.95-22.95,22.95
	c-12.68,0-22.96-10.28-22.96-22.95C644.51,524.92,654.79,514.64,667.47,514.64L667.47,514.64L667.47,514.64z"/>
<path class="st11" d="M928.09,488.58c12.68,0,22.96,10.28,22.96,22.96c0,12.68-10.28,22.95-22.96,22.95
	c-12.68,0-22.95-10.28-22.95-22.95C905.13,498.86,915.41,488.58,928.09,488.58L928.09,488.58L928.09,488.58z"/>
<path class="st11" d="M863.57,489.82c12.68,0,22.95,10.28,22.95,22.96c0,12.67-10.28,22.95-22.95,22.95
	c-12.68,0-22.95-10.27-22.95-22.95C840.62,500.1,850.89,489.82,863.57,489.82L863.57,489.82L863.57,489.82z"/>
<path class="st11" d="M747.5,484.35c12.67,0,22.95,10.27,22.95,22.95c0,12.68-10.27,22.96-22.95,22.96
	c-12.68,0-22.95-10.28-22.95-22.96C724.54,494.62,734.82,484.35,747.5,484.35L747.5,484.35L747.5,484.35z"/>
<path class="st15" d="M944.4,322.04c-11.14,0-20.17,9.03-20.17,20.17c0,11.14,9.03,20.17,20.17,20.17
	c11.14,0,20.17-9.03,20.17-20.17C964.57,331.07,955.54,322.04,944.4,322.04L944.4,322.04L944.4,322.04z"/>
<path class="st15" d="M718.94,322.04c11.14,0,20.17,9.03,20.17,20.17c0,11.14-9.03,20.17-20.17,20.17
	c-11.14,0-20.17-9.03-20.17-20.17C698.76,331.07,707.8,322.04,718.94,322.04L718.94,322.04L718.94,322.04z"/>
<path class="st11" d="M748.16,266.39c9.61,0,18.31,3.89,24.6,10.19c6.3,6.29,10.19,14.99,10.19,24.6c0,9.6-3.9,18.3-10.19,24.6
	c-6.3,6.3-14.99,10.19-24.6,10.19c-9.6,0-18.3-3.89-24.6-10.19c-6.3-6.29-10.19-14.99-10.19-24.6c0-9.61,3.89-18.31,10.19-24.6
	C729.85,270.29,738.55,266.39,748.16,266.39L748.16,266.39L748.16,266.39z"/>
<path class="st11" d="M893.52,276.58c6.29-6.3,14.99-10.19,24.6-10.19c9.61,0,18.31,3.89,24.6,10.19
	c6.3,6.29,10.19,14.99,10.19,24.6c0,9.6-3.9,18.3-10.19,24.6c-6.29,6.3-14.99,10.19-24.6,10.19c-9.6,0-18.3-3.89-24.6-10.19
	c-6.3-6.29-10.19-14.99-10.19-24.6C883.32,291.58,887.22,282.88,893.52,276.58L893.52,276.58L893.52,276.58z"/>
<path class="st1" d="M758.81,283.11c7.92,0,14.35,6.42,14.35,14.35c0,7.92-6.42,14.34-14.35,14.34c-7.92,0-14.34-6.42-14.34-14.34
	C744.47,289.53,750.89,283.11,758.81,283.11L758.81,283.11L758.81,283.11z"/>
<path class="st1" d="M906.49,283.11c7.92,0,14.35,6.42,14.35,14.35c0,7.92-6.42,14.34-14.35,14.34c-7.92,0-14.35-6.42-14.35-14.34
	C892.15,289.53,898.57,283.11,906.49,283.11L906.49,283.11L906.49,283.11z"/>
<path class="st11" d="M786.76,358.4c0-3.06,2.48-5.55,5.55-5.55c3.07,0,5.55,2.48,5.55,5.55c0,4.31,1.75,8.21,4.57,11.03
	c2.82,2.82,6.72,4.57,11.03,4.57c4.31,0,8.21-1.74,11.03-4.57c2.82-2.83,4.57-6.72,4.57-11.03c0-3.06,2.48-5.55,5.55-5.55
	c3.07,0,5.55,2.48,5.55,5.55c0,4.31,1.74,8.21,4.57,11.03c2.82,2.82,6.72,4.57,11.03,4.57c4.31,0,8.21-1.74,11.03-4.57
	c2.82-2.83,4.57-6.72,4.57-11.03c0-3.06,2.48-5.55,5.55-5.55c3.07,0,5.55,2.48,5.55,5.55c0,7.38-2.99,14.05-7.82,18.88
	c-4.83,4.83-11.51,7.82-18.88,7.82c-7.37,0-14.05-2.99-18.88-7.82c-0.81-0.81-1.57-1.67-2.27-2.58c-0.7,0.91-1.46,1.77-2.27,2.58
	c-4.83,4.83-11.51,7.82-18.88,7.82s-14.05-2.99-18.88-7.82C789.75,372.45,786.76,365.77,786.76,358.4L786.76,358.4L786.76,358.4z"/>
</svg>
