<svg xmlns="http://www.w3.org/2000/svg" viewBox="0 0 400 300" width="406" height="306" class="illustration styles_illustrationTablet__1DWOa"><g id="_102_traveling_outline" data-name="#102_traveling_outline"><rect x="226.39" y="160.89" width="9.1" height="21.64" fill="#ffbc0e"></rect><path d="M235.48,183.53h-9.09a1,1,0,0,1-1-1V160.89a1,1,0,0,1,1-1h9.09a1,1,0,0,1,1,1v21.64A1,1,0,0,1,235.48,183.53Zm-8.09-2h7.09V161.89h-7.09Z" fill="#093f68"></path><path d="M135.38,238.42H138a0,0,0,0,1,0,0v2.81a1.31,1.31,0,0,1-1.31,1.31h0a1.31,1.31,0,0,1-1.31-1.31v-2.81A0,0,0,0,1,135.38,238.42Z" fill="#093f68"></path><path d="M136.69,243.54a2.32,2.32,0,0,1-2.31-2.32v-2.8a1,1,0,0,1,1-1H138a1,1,0,0,1,1,1v2.8A2.31,2.31,0,0,1,136.69,243.54Zm-.31-4.12v1.8a.31.31,0,1,0,.62,0v-1.8Z" fill="#093f68"></path><path d="M168.14,238.42h2.63a0,0,0,0,1,0,0v2.81a1.31,1.31,0,0,1-1.31,1.31h0a1.31,1.31,0,0,1-1.31-1.31v-2.81a0,0,0,0,1,0,0Z" fill="#093f68"></path><path d="M169.45,243.54a2.31,2.31,0,0,1-2.31-2.32v-2.8a1,1,0,0,1,1-1h2.62a1,1,0,0,1,1,1v2.8A2.31,2.31,0,0,1,169.45,243.54Zm-.31-4.12v1.8a.31.31,0,1,0,.62,0v-1.8Z" fill="#093f68"></path><path d="M160.5,187.13H145.64a1,1,0,0,1-1-1v-8.68a1,1,0,0,1,1-1H160.5a1,1,0,0,1,1,1v8.68A1,1,0,0,1,160.5,187.13Zm-13.86-2H159.5v-6.68H146.64Z" fill="#093f68"></path><rect x="130.77" y="186.13" width="44.6" height="52.6" rx="6.26" fill="#d9bea4"></rect><path d="M169.1,239.73H137a7.28,7.28,0,0,1-7.27-7.27V192.39a7.27,7.27,0,0,1,7.27-7.26H169.1a7.27,7.27,0,0,1,7.27,7.26v40.07A7.28,7.28,0,0,1,169.1,239.73ZM137,187.13a5.27,5.27,0,0,0-5.27,5.26v40.07a5.28,5.28,0,0,0,5.27,5.27H169.1a5.28,5.28,0,0,0,5.27-5.27V192.39a5.27,5.27,0,0,0-5.27-5.26Z" fill="#093f68"></path><rect x="144.21" y="174.79" width="17.72" height="2.86" rx="1.05" fill="#d9bea4"></rect><path d="M160.88,178.65H145.26a2.06,2.06,0,0,1-2-2.06v-.75a2.05,2.05,0,0,1,2-2.05h15.62a2.05,2.05,0,0,1,2.05,2.05v.75A2.06,2.06,0,0,1,160.88,178.65Zm-15.62-2.86,0,.8,15.67.06a.06.06,0,0,0,.05-.06v-.75Z" fill="#093f68"></path><path d="M140.33,239a1,1,0,0,1-1-1V186.87a1,1,0,0,1,2,0V238A1,1,0,0,1,140.33,239Z" fill="#093f68"></path><path d="M165,239a1,1,0,0,1-1-1V186.87a1,1,0,0,1,2,0V238A1,1,0,0,1,165,239Z" fill="#093f68"></path><rect x="147.03" y="190.4" width="13.18" height="10.53" transform="translate(-41.54 41.41) rotate(-13.54)" fill="#f56132"></rect><path d="M148.44,203.32a1.07,1.07,0,0,1-.52-.14,1,1,0,0,1-.45-.62L145,192.32a1,1,0,0,1,.11-.75,1,1,0,0,1,.62-.45L158.56,188a1,1,0,0,1,1.21.74L162.23,199a1,1,0,0,1-.74,1.21l-12.81,3.09Zm-1.26-10.49,2,8.29,10.87-2.62-2-8.29Z" fill="#093f68"></path><circle cx="150.75" cy="212.43" r="6.13" fill="#ffbc0e"></circle><path d="M150.75,219.56a7.13,7.13,0,1,1,7.13-7.13A7.14,7.14,0,0,1,150.75,219.56Zm0-12.26a5.13,5.13,0,1,0,5.13,5.13A5.14,5.14,0,0,0,150.75,207.3Z" fill="#093f68"></path><polygon points="155.8 222.79 147.37 229.43 159.87 233.52 155.8 222.79" fill="#70cc40"></polygon><path d="M159.87,234.52a1.06,1.06,0,0,1-.31-.05l-12.5-4.09a1,1,0,0,1-.31-1.73l8.43-6.64a1,1,0,0,1,1.55.43l4.07,10.72a1,1,0,0,1-.93,1.36Zm-10.41-5.46,8.73,2.86-2.85-7.5Z" fill="#093f68"></path><path d="M255.11,121.81c.23-.06,2.58-4.54,2.58-4.54s-.12-3.78-.11-5.63,1.43-2.16,1.83-1.25a29.31,29.31,0,0,1,.72,3.58c.08,0,2.21-6,2.74-6.31s6.06,2.61,6.34,4.47c.14.91-.79,3.93-1.87,6.8-.3.8-3.09,2.54-3.09,2.54a20.5,20.5,0,0,1-2.09,3.33Z" fill="#ffc9b0"></path><path d="M262.16,125.8a1,1,0,0,1-.39-.08l-7-3a1,1,0,0,1-.61-1,1,1,0,0,1,.32-.67c.29-.41,1.35-2.33,2.25-4,0-.89-.11-3.82-.1-5.4a2.5,2.5,0,0,1,1.76-2.7,1.77,1.77,0,0,1,2,1,3.09,3.09,0,0,1,.14.4c1.18-3,1.49-3.38,1.94-3.61s.92-.31,2.85.68c1.08.56,4.63,2.52,4.94,4.53.19,1.26-.94,4.67-1.92,7.3-.33.88-1.91,2-3.27,2.89a18.87,18.87,0,0,1-2.12,3.31A1,1,0,0,1,262.16,125.8Zm-5.55-4.44,5.24,2.22a24.87,24.87,0,0,0,1.5-2.56,1,1,0,0,1,.37-.4,12.59,12.59,0,0,0,2.7-2.08c1.42-3.81,1.86-5.83,1.8-6.26-.14-.92-3.48-3-4.89-3.52-.48,1-1.38,3.31-1.75,4.29-.63,1.66-.74,2-1.49,1.92s-.95-.73-1.08-1.62c-.08-.53-.22-1.53-.38-2.15a1.72,1.72,0,0,0-.05.44c0,1.81.11,5.56.11,5.59a1,1,0,0,1-.11.5C257.65,119.5,257,120.63,256.61,121.36Zm-1.77-.51Zm0,0Z" fill="#093f68"></path><path d="M261.79,119.27a1,1,0,0,1-1-1,5.69,5.69,0,0,0-1.35-3.63,1,1,0,0,1,1.38-1.45,7.68,7.68,0,0,1,2,5,1,1,0,0,1-.94,1.06Z" fill="#093f68"></path><path d="M198.66,163.42h17.9a0,0,0,0,1,0,0v6.5a6.35,6.35,0,0,1-6.35,6.35H205a6.35,6.35,0,0,1-6.35-6.35v-6.5A0,0,0,0,1,198.66,163.42Z" fill="#093f68"></path><path d="M210.21,177.27H205a7.36,7.36,0,0,1-7.35-7.35v-6.5a1,1,0,0,1,1-1h17.9a1,1,0,0,1,1,1v6.5A7.36,7.36,0,0,1,210.21,177.27Zm-10.55-12.85v5.5a5.36,5.36,0,0,0,5.35,5.35h5.2a5.36,5.36,0,0,0,5.35-5.35v-5.5Z" fill="#093f68"></path><rect x="191.39" y="163.42" width="10.43" height="71.13" fill="#093f68"></rect><path d="M201.82,235.55H191.39a1,1,0,0,1-1-1V163.42a1,1,0,0,1,1-1h10.43a1,1,0,0,1,1,1v71.13A1,1,0,0,1,201.82,235.55Zm-9.43-2h8.43V164.42h-8.43Z" fill="#093f68"></path><rect x="213.4" y="163.42" width="10.43" height="71.13" fill="#093f68"></rect><path d="M223.83,235.55H213.4a1,1,0,0,1-1-1V163.42a1,1,0,0,1,1-1h10.43a1,1,0,0,1,1,1v71.13A1,1,0,0,1,223.83,235.55Zm-9.43-2h8.43V164.42H214.4Z" fill="#093f68"></path><path d="M201.82,234.55v8H183.4s1-6.15,8.31-8Z" fill="#ad7972"></path><path d="M201.82,243.54H183.4a1,1,0,0,1-.77-.35,1,1,0,0,1-.22-.81c0-.28,1.18-6.83,9.06-8.8a1,1,0,0,1,.24,0h10.11a1,1,0,0,1,1,1v8A1,1,0,0,1,201.82,243.54Zm-17.1-2h16.1v-6h-9A9.89,9.89,0,0,0,184.72,241.54Z" fill="#093f68"></path><path d="M213.4,234.55v8h18.43s-1-6.15-8.32-8Z" fill="#ad7972"></path><path d="M231.83,243.54H213.4a1,1,0,0,1-1-1v-8a1,1,0,0,1,1-1h10.11a.93.93,0,0,1,.24,0c7.88,2,9,8.52,9.06,8.8a1,1,0,0,1-.22.81A1,1,0,0,1,231.83,243.54Zm-17.43-2h16.1a9.87,9.87,0,0,0-7.11-6h-9Z" fill="#093f68"></path><path d="M165.54,166.54c4.62-9.09,17-18.86,22.84-24.95v44.54h38l.06-44a21,21,0,0,0,2.42,1.93c2.61,1.78,5.72,3.52,8.07,3.52a19.92,19.92,0,0,0,8.86-2.07c10.77-5.26,18.17-17.86,19.09-19.2L254.2,119c-1.92,2.8-8.31,10.71-14.68,13.82-3.45,1.68-7.83-1.17-11.17-4.18a20.17,20.17,0,0,0-13.74-5.26c-5.51.06-20.06-.84-26.18,1.47s-26.6,18.26-35.32,35.43Z" fill="#d9bea4"></path><path d="M226.35,187.13h-38a1,1,0,0,1-1-1V144c-1.24,1.21-2.65,2.52-4.11,3.88-6,5.62-13.53,12.6-16.84,19.11a1,1,0,0,1-1.34.44l-12.43-6.31a1,1,0,0,1-.5-.58,1,1,0,0,1,.06-.77c8.76-17.24,29.2-33.4,35.86-35.91,5-1.89,15.31-1.7,22.11-1.58,1.75,0,3.27.06,4.41,0A21.3,21.3,0,0,1,229,127.85c2.93,2.64,7.06,5.49,10.07,4,6.17-3,12.54-11,14.29-13.48a1,1,0,0,1,1.39-.26l10.65,7.35a1,1,0,0,1,.42.65,1,1,0,0,1-.16.75c-.08.11-.2.29-.36.55-6,9.32-12.42,15.7-19.13,19a20.81,20.81,0,0,1-9.29,2.18c-2.17,0-5-1.21-8.64-3.69-.3-.21-.59-.42-.85-.62l-.06,41.86A1,1,0,0,1,226.35,187.13Zm-37-2h36l.06-43a1,1,0,0,1,.61-.92,1,1,0,0,1,1.08.2,21.1,21.1,0,0,0,2.29,1.83c4.05,2.76,6.32,3.34,7.51,3.34a18.88,18.88,0,0,0,8.41-2c4.36-2.13,11-7,18.18-18l-9.05-6.25C252,123.68,246,130.71,240,133.67c-3.22,1.57-7.35.11-12.28-4.34a19.07,19.07,0,0,0-13.06-5c-1.16,0-2.69,0-4.47,0-6.64-.12-16.69-.31-21.37,1.45-6.14,2.31-25.66,17.84-34.32,34.06l10.66,5.42c3.65-6.56,10.91-13.32,16.79-18.79,2.16-2,4.21-3.92,5.75-5.52a1,1,0,0,1,1.72.69Z" fill="#093f68"></path><rect x="199.49" y="123.26" width="15.3" height="67.69" fill="#093f68"></rect><path d="M214.78,192H199.49a1,1,0,0,1-1-1V123.26a1,1,0,0,1,1-1h15.29a1,1,0,0,1,1,1V191A1,1,0,0,1,214.78,192Zm-14.29-2h13.29V124.26H200.49Z" fill="#093f68"></path><rect x="199.49" y="123.26" width="15.3" height="36.96" fill="#f56132"></rect><path d="M214.78,161.22H199.49a1,1,0,0,1-1-1v-37a1,1,0,0,1,1-1h15.29a1,1,0,0,1,1,1v37A1,1,0,0,1,214.78,161.22Zm-14.29-2h13.29v-35H200.49Z" fill="#093f68"></path><path d="M179.12,115.55c2.35,2.59,6.17,3.37,9.65,3,3.88-.36,7.82-2.07,9.92-5.35s1.72-8.21-1.45-10.46-10.32-1.48-12,2.44c-.76,1.74-.22,3.85-.74,5.66a6.47,6.47,0,0,1-2.19,3.28C182,114.43,179.54,116,179.12,115.55Z" fill="#725858"></path><path d="M187.27,119.67a11.83,11.83,0,0,1-8.89-3.44h0a1,1,0,0,1,1.08-1.62,10.53,10.53,0,0,0,2.2-1.22,5.55,5.55,0,0,0,1.85-2.78,9.75,9.75,0,0,0,.23-2.3,9.16,9.16,0,0,1,.55-3.48,7.35,7.35,0,0,1,5-3.85c3.06-.85,6.48-.45,8.51,1,3.82,2.72,4,8.31,1.71,11.82-2.05,3.21-6,5.38-10.66,5.81C188.32,119.65,187.79,119.67,187.27,119.67Zm-6.05-3.62a11.6,11.6,0,0,0,7.46,1.55c4-.37,7.44-2.19,9.17-4.89s1.66-7.09-1.19-9.11c-1.52-1.08-4.39-1.37-6.82-.69a5.38,5.38,0,0,0-3.71,2.72,7.49,7.49,0,0,0-.39,2.72,10.77,10.77,0,0,1-.31,2.81,7.48,7.48,0,0,1-2.52,3.79A12.59,12.59,0,0,1,181.22,116.05Z" fill="#093f68"></path><path d="M234.62,115.55c-2.36,2.59-6.17,3.37-9.66,3-3.87-.36-7.82-2.07-9.91-5.35s-1.72-8.21,1.45-10.46,10.32-1.48,12,2.44c.75,1.74.22,3.85.74,5.66a6.41,6.41,0,0,0,2.19,3.28C231.78,114.43,234.2,116,234.62,115.55Z" fill="#725858"></path><path d="M226.47,119.67c-.52,0-1.06,0-1.6-.07-4.62-.43-8.61-2.6-10.67-5.81-2.25-3.51-2.1-9.1,1.72-11.82,2-1.44,5.45-1.84,8.51-1a7.3,7.3,0,0,1,5,3.85,8.79,8.79,0,0,1,.55,3.48,9.23,9.23,0,0,0,.24,2.3,5.55,5.55,0,0,0,1.85,2.78,10.53,10.53,0,0,0,2.2,1.22,1,1,0,0,1,1,.2,1,1,0,0,1,.07,1.42h0A11.79,11.79,0,0,1,226.47,119.67Zm-5.3-17.12a7.32,7.32,0,0,0-4.09,1c-2.85,2-2.91,6.43-1.19,9.11s5.15,4.52,9.17,4.89a11.6,11.6,0,0,0,7.46-1.55,12.59,12.59,0,0,1-1.69-1.1,7.48,7.48,0,0,1-2.52-3.79,10.77,10.77,0,0,1-.31-2.81,7.49,7.49,0,0,0-.39-2.72,5.38,5.38,0,0,0-3.71-2.72A10.09,10.09,0,0,0,221.17,102.55Z" fill="#093f68"></path><path d="M203.56,120.23h7.15a0,0,0,0,1,0,0v4.12a3,3,0,0,1-3,3H206.6a3,3,0,0,1-3-3v-4.12A0,0,0,0,1,203.56,120.23Z" fill="#ffc9b0"></path><path d="M207.68,128.39H206.6a4,4,0,0,1-4-4v-4.12a1,1,0,0,1,1-1h7.15a1,1,0,0,1,1,1v4.12A4,4,0,0,1,207.68,128.39Zm-3.12-7.16v3.12a2,2,0,0,0,2,2h1.08a2,2,0,0,0,2-2v-3.12Z" fill="#093f68"></path><path d="M183.89,100.83a14.06,14.06,0,0,1-2.12-2.78,22.46,22.46,0,0,1-2.27-6.57c-1.16-5.35-.42-11.63,1-16.87a14.12,14.12,0,0,1,2.82-5.9c1.86-2,5.39-3.38,7.12-.58-.32-.53,2.44-4,2.9-4.44a19,19,0,0,1,4.14-2.9,25.48,25.48,0,0,1,11.12-3.28c9.47-.54,17.57,4,21.69,12.58,2.55,5.3,3.44,11.21,3.74,17,.18,3.48.78,10.33-2.29,12.86-1.64,1.35-6.57.32-8.68.39l-18.87.59c-3.28.1-6.56-.13-9.85,0a22.29,22.29,0,0,0-4.22.56c-1,.22-2.38,1-3.35.93A4.72,4.72,0,0,1,183.89,100.83Z" fill="#725858"></path><path d="M186.82,103.4h-.1a5.51,5.51,0,0,1-3.53-1.86h0a14.53,14.53,0,0,1-2.28-3,23,23,0,0,1-2.39-6.86c-1.42-6.58,0-13.69,1-17.34a14.94,14.94,0,0,1,3-6.31,7.08,7.08,0,0,1,5.5-2.49,4,4,0,0,1,2,.74,20.09,20.09,0,0,1,2.54-3.3A19.76,19.76,0,0,1,197,59.92a26.48,26.48,0,0,1,11.56-3.41c9.94-.56,18.4,4.35,22.64,13.15,2.24,4.66,3.46,10.19,3.84,17.41l0,.66c.21,3.86.58,10.32-2.69,13-1.48,1.22-4.42,1-7,.75a20.87,20.87,0,0,0-2.26-.13l-18.88.59c-1.71.05-3.45,0-5.13,0s-3.15-.06-4.72,0a21.24,21.24,0,0,0-4,.54,10.61,10.61,0,0,0-1.1.36A7.46,7.46,0,0,1,186.82,103.4Zm-2.23-3.28a3.83,3.83,0,0,0,2.2,1.28,6.27,6.27,0,0,0,1.76-.47,10.84,10.84,0,0,1,1.34-.43,22.2,22.2,0,0,1,4.42-.58c1.61,0,3.24,0,4.81,0s3.37.07,5,0L223,99.37a24.73,24.73,0,0,1,2.5.13c1.88.16,4.73.41,5.58-.29,2.49-2,2.14-8.11,2-11.36l0-.67c-.36-7-1.52-12.24-3.64-16.65a21,21,0,0,0-20.73-12A24.58,24.58,0,0,0,198,61.66,18.54,18.54,0,0,0,194,64.4a21.53,21.53,0,0,0-2.6,3.62,1,1,0,0,1-1.85.64,2.13,2.13,0,0,0-1.69-1.12,5.2,5.2,0,0,0-3.84,1.84,13.26,13.26,0,0,0-2.59,5.5c-.94,3.47-2.32,10.22-1,16.39a21.18,21.18,0,0,0,2.16,6.28,13.23,13.23,0,0,0,2,2.57Zm6.69-32.52h0Z" fill="#093f68"></path><ellipse cx="186.69" cy="101.65" rx="6.95" ry="5.99" fill="#ffc9b0"></ellipse><path d="M186.69,108.64c-4.38,0-7.95-3.13-7.95-7s3.57-7,7.95-7,7.95,3.14,7.95,7S191.08,108.64,186.69,108.64Zm0-12c-3.28,0-5.95,2.24-5.95,5s2.67,5,5.95,5,5.95-2.24,5.95-5S190,96.66,186.69,96.66Z" fill="#093f68"></path><ellipse cx="227.21" cy="101.65" rx="6.95" ry="5.99" fill="#ffc9b0"></ellipse><path d="M227.21,108.64c-4.38,0-8-3.13-8-7s3.57-7,8-7,7.95,3.14,7.95,7S231.6,108.64,227.21,108.64Zm0-12c-3.28,0-6,2.24-6,5s2.67,5,6,5,5.95-2.24,5.95-5S230.49,96.66,227.21,96.66Z" fill="#093f68"></path><path d="M207.14,121.17h0a21,21,0,0,1-21-21V87.9s11-11.88,9.32-14.26c8.48,9.7,20.9,10.8,32.61,9.33v17.24A21,21,0,0,1,207.14,121.17Z" fill="#ffc9b0"></path><path d="M207.14,122.17a22,22,0,0,1-22-22V87.9a1,1,0,0,1,.27-.68c5.32-5.73,9.63-11.82,9.22-13a1,1,0,0,1,.2-1.35,1,1,0,0,1,1.38.14c6.88,7.87,17.26,10.82,31.73,9a1,1,0,0,1,1.13,1v17.24A22,22,0,0,1,207.14,122.17Zm-20-33.87v11.91a20,20,0,0,0,39.93,0V84.09c-13.6,1.51-23.72-1.17-30.84-8.18C195,79.46,190.42,84.78,187.17,88.3Z" fill="#093f68"></path><path d="M214.78,106.53a7.65,7.65,0,0,1-15.29,0Z" fill="#fff"></path><path d="M207.14,115.17a8.66,8.66,0,0,1-8.65-8.64,1,1,0,0,1,1-1h15.29a1,1,0,0,1,1,1A8.65,8.65,0,0,1,207.14,115.17Zm-6.58-7.64a6.65,6.65,0,0,0,13.15,0Z" fill="#093f68"></path><path d="M207,104.69a11.05,11.05,0,0,1-1.95-.17,1,1,0,0,1,.34-2,9.33,9.33,0,0,0,2.43.09A26.69,26.69,0,0,0,206.19,96a1,1,0,0,1,1.89-.67c.9,2.54,2.29,7,1.51,8.47a1.39,1.39,0,0,1-.88.71A7.33,7.33,0,0,1,207,104.69Z" fill="#093f68"></path><path d="M202.12,89.41h0l-9.26-.17a2,2,0,0,1,0-4h0l9.26.17a2,2,0,0,1,0,4Z" fill="#093f68"></path><path d="M213.74,89.74a2,2,0,0,1,0-4l9.25-.17a2,2,0,1,1,.08,4l-9.26.17Z" fill="#093f68"></path><path d="M191.88,91.71h11.22a2.67,2.67,0,0,1,2.67,2.67v.75a8,8,0,0,1-8,8h-.63a8,8,0,0,1-8-8v-.75a2.67,2.67,0,0,1,2.67-2.67Z" fill="#093f68"></path><path d="M211.51,91.71h11.22a2.67,2.67,0,0,1,2.67,2.67v.75a8,8,0,0,1-8,8h-.63a8,8,0,0,1-8-8v-.75a2.67,2.67,0,0,1,2.67-2.67Z" fill="#093f68"></path><path d="M188.66,96.29h-2.49a1,1,0,0,1,0-2h2.49a1,1,0,0,1,0,2Z" fill="#093f68"></path><path d="M208.84,96.38h-3.07a1,1,0,1,1,0-2h3.07a1,1,0,1,1,0,2Z" fill="#093f68"></path><path d="M228.1,96.29h-2a1,1,0,0,1,0-2h2a1,1,0,0,1,0,2Z" fill="#093f68"></path><path d="M226.41,143.13a1,1,0,0,1-1-1v-7.51a1,1,0,0,1,2,0v7.51A1,1,0,0,1,226.41,143.13Z" fill="#093f68"></path><path d="M163.75,165.87l-3.48,3.3a12.33,12.33,0,0,1-.77,4.93l-2.13-.25a5,5,0,0,1-3.45,3.51,5.1,5.1,0,0,1-6.29-5c-.25-4,7.25-11.25,7.25-11.25Z" fill="#ffc9b0"></path><path d="M152.78,178.48a6,6,0,0,1-6.14-6c-.28-4.34,6.74-11.26,7.54-12a1,1,0,0,1,1.16-.16l8.88,4.71a1,1,0,0,1,.22,1.6l-3.15,3a15.24,15.24,0,0,1-.84,4.83,1,1,0,0,1-1.07.7l-1.34-.17a5.65,5.65,0,0,1-3.91,3.4A6.14,6.14,0,0,1,152.78,178.48Zm2.28-16.09c-2.76,2.79-6.58,7.54-6.43,10a4.11,4.11,0,0,0,5.08,4,4,4,0,0,0,2.69-2.78,1,1,0,0,1,1.09-.75l1.29.16a11,11,0,0,0,.5-3.71,1,1,0,0,1,.3-.86l2.47-2.34Z" fill="#093f68"></path><path d="M230.93,167.32a1,1,0,0,1-.66-.26c-19.69-17.55-40.66-42.91-40.87-43.17a1,1,0,0,1,1.54-1.27c.21.25,21.09,25.5,40.66,42.95a1,1,0,0,1,.08,1.41A1,1,0,0,1,230.93,167.32Z" fill="#093f68"></path><path d="M188.38,142.59a1,1,0,0,1-1-1V135a1,1,0,1,1,2,0v6.55A1,1,0,0,1,188.38,142.59Z" fill="#093f68"></path><path d="M237.69,177.78a1,1,0,0,1-1-1V161.89h-1.21a1,1,0,0,1,0-2h2.21a1,1,0,0,1,1,1v15.89A1,1,0,0,1,237.69,177.78Z" fill="#093f68"></path><path d="M235.14,167.66H227a1,1,0,0,1,0-2h8.17a1,1,0,0,1,0,2Z" fill="#093f68"></path></g></svg>