<svg width="462" height="410" viewBox="0 0 462 410" fill="none" xmlns="http://www.w3.org/2000/svg">
<path d="M320 3.99982C321.225 4.24128 321.225 4.24128 322.475 4.48762C352.205 10.5678 380.421 24.9029 402.539 45.6912C404.725 47.742 406.961 49.691 409.25 51.6248C413.238 55.1122 416.655 58.8975 420 62.9998C421.125 64.3688 421.125 64.3688 422.273 65.7654C441.092 89.3921 453.208 116.411 459 146C459.227 147.154 459.454 148.307 459.687 149.496C462.949 170.176 462.594 193.573 458 214C457.807 214.867 457.613 215.734 457.414 216.627C453.282 234.49 446.425 260.575 433 274C433.503 280.655 435.17 286.872 436.941 293.289C437.531 295.469 438.12 297.648 438.709 299.828C439.637 303.236 440.568 306.644 441.501 310.052C442.404 313.358 443.298 316.667 444.191 319.976C444.473 320.992 444.754 322.008 445.043 323.054C447.63 332.662 447.63 332.662 447 337C445.726 338.664 445.726 338.664 444 340C436.948 339.776 430.41 337.926 423.648 336.023C421.477 335.429 419.305 334.835 417.133 334.242C413.743 333.308 410.355 332.369 406.969 331.424C403.678 330.508 400.382 329.608 397.086 328.711C396.078 328.424 395.071 328.138 394.033 327.843C387.675 326.125 382.755 325.163 376.621 328.164C375.54 328.887 375.54 328.887 374.437 329.625C357.226 340.453 338.737 346.79 318.926 350.957C317.671 351.228 317.671 351.228 316.391 351.504C314.87 351.819 313.342 352.107 311.808 352.355C305.936 353.454 303.307 356.109 299.5 360.375C271.666 389.651 229.016 407.574 188.73 409.126C149.977 409.973 115.432 402.106 81.9999 382C81.6699 381.67 81.3399 381.34 80.9999 381C73.993 381.46 67.5696 383.031 60.8319 384.941C59.2743 385.372 59.2743 385.372 57.6851 385.811C53.2758 387.031 48.8709 388.266 44.466 389.501C41.2355 390.404 38.0026 391.298 34.7694 392.191C33.7787 392.472 32.788 392.754 31.7672 393.043C22.3837 395.633 22.3837 395.633 17.9999 395C16.3347 393.757 16.3347 393.757 14.9999 392C14.3956 384.913 17.0261 377.44 18.9413 370.699C19.2284 369.66 19.5156 368.62 19.8114 367.549C20.7207 364.26 21.6405 360.973 22.5624 357.687C23.4873 354.383 24.4096 351.079 25.3241 347.772C25.891 345.722 26.4639 343.674 27.0435 341.628C27.429 340.236 27.4291 340.236 27.8224 338.815C28.0503 338.004 28.2783 337.192 28.5131 336.356C29.3788 332.166 29.4513 329.081 27.0937 325.461C26.6834 324.808 26.2732 324.155 25.8505 323.483C25.182 322.439 25.182 322.439 24.4999 321.375C1.67242 284.047 -5.2572 235.934 4.60196 193.403C12.9203 159.6 29.0367 130.339 53.9999 106C54.5735 105.381 55.1472 104.762 55.7382 104.125C78.055 80.5892 111.729 63.5792 143.828 58.9493C151.714 57.8042 156.709 56.2217 162 49.9998C201.174 8.48102 265.217 -7.02021 320 3.99982ZM183 46.9998C182.025 47.7604 181.051 48.5209 180.047 49.3045C176.476 52.095 176.476 52.095 173 54.9998C173 55.3298 173 55.6598 173 55.9998C173.738 56.0395 174.476 56.0791 175.237 56.1199C206.063 57.8499 234.711 62.8153 262 77.9998C263.039 78.5631 264.078 79.1265 265.148 79.7069C277.869 86.8349 289.071 95.4345 299.52 105.567C300.896 106.899 302.289 108.214 303.684 109.527C335.493 140.146 352.501 185.423 353.356 229.053C353.561 266.275 343.733 305.248 320.434 334.996C318.806 336.86 318.806 336.86 319 339C337.482 335.708 364.315 327.685 378 314C384.178 313.519 389.499 314.969 395.422 316.625C396.404 316.891 397.385 317.158 398.397 317.432C401.517 318.28 404.634 319.139 407.75 320C410.881 320.859 414.013 321.715 417.146 322.568C419.091 323.098 421.036 323.632 422.979 324.17C423.857 324.41 424.735 324.651 425.64 324.898C426.411 325.111 427.183 325.325 427.978 325.544C430.142 326.11 430.142 326.11 433 326C431.375 314.978 428.175 304.358 425.163 293.656C424.474 291.204 423.795 288.748 423.117 286.293C422.798 285.177 422.798 285.177 422.473 284.039C421.145 279.208 419.915 274.64 421.899 269.813C422.315 269.143 422.731 268.474 423.16 267.785C423.621 267.024 424.081 266.264 424.556 265.48C425.053 264.682 425.55 263.884 426.062 263.062C447.87 226.622 456.136 183.012 446.366 141.291C438.6 110.443 424.279 83.7459 402 60.9998C401.242 60.1916 400.484 59.3833 399.703 58.5506C372.203 29.7956 330.452 13.0321 290.984 11.7967C251.925 11.2135 213.66 22.2764 183 46.9998ZM76.9999 101C76.1362 101.661 75.2726 102.322 74.3827 103.004C39.8308 130.195 18.3442 169.987 12.683 213.432C8.71642 249.504 16.035 293.695 38.9999 323C41.5409 326.811 41.3321 328.445 40.9999 333C40.2873 336.521 39.3419 339.963 38.3749 343.422C38.1086 344.403 37.8422 345.385 37.5678 346.397C36.7201 349.517 35.8607 352.633 34.9999 355.75C34.1409 358.881 33.2843 362.013 32.432 365.146C31.9022 367.091 31.3681 369.035 30.8295 370.979C30.4691 372.296 30.4691 372.296 30.1015 373.639C29.8883 374.411 29.6751 375.183 29.4555 375.978C28.89 378.142 28.89 378.142 28.9999 381C35.4429 379.848 41.7284 378.321 48.0429 376.617C49.2693 376.287 49.2693 376.287 50.5204 375.95C53.9438 375.027 57.3662 374.1 60.7858 373.162C63.3069 372.473 65.8309 371.794 68.3554 371.117C69.5009 370.798 69.5009 370.798 70.6696 370.473C76.4425 368.937 81.6536 367.742 87.1483 370.687C88.2131 371.45 89.2779 372.214 90.3749 373C123.768 395.761 168.058 402.937 207.431 395.543C251.919 386.673 290.219 361.538 315.565 323.843C340.197 286.145 348.367 241.164 339.414 197.117C329.559 153.437 302.766 115.865 265 91.9998C207.734 56.0227 130.413 58.7215 76.9999 101Z" fill="url(#paint0_linear_75_221)"/>
<path d="M148.813 149.812C161.253 158.862 166.24 169.988 169 185C169.618 184.711 170.235 184.422 170.871 184.125C178.797 180.651 184.764 179.688 193.063 182.437C199.713 185.353 204.178 190.508 207.5 196.875C208.793 204.956 208.382 211.531 205 219C206.013 218.948 206.013 218.948 207.047 218.895C207.939 218.867 208.831 218.84 209.75 218.812C211.073 218.76 211.073 218.76 212.422 218.707C215.647 219.073 216.855 219.543 219 222C219.458 224.685 219.695 226.996 219.75 229.687C219.78 230.389 219.809 231.091 219.84 231.814C219.911 233.542 219.958 235.271 220 237C220.886 236.285 221.771 235.569 222.684 234.832C229.735 229.152 236.83 223.53 244 218C244.693 217.461 245.386 216.922 246.1 216.366C258.033 207.212 258.033 207.212 263.563 207.812C268.025 208.69 269.972 210.399 272.771 213.887C274.981 217.686 274.819 221.395 274.745 225.696C274.752 226.643 274.759 227.59 274.767 228.566C274.783 231.681 274.756 234.795 274.727 237.91C274.726 240.083 274.727 242.256 274.73 244.429C274.73 248.976 274.709 253.522 274.673 258.069C274.627 263.892 274.626 269.714 274.64 275.537C274.646 280.021 274.633 284.505 274.613 288.989C274.606 291.136 274.603 293.283 274.606 295.43C274.607 298.432 274.582 301.432 274.549 304.434C274.554 305.318 274.559 306.201 274.564 307.112C274.468 312.689 273.596 315.689 270 320C267.156 322.235 263.922 322.606 260.328 322.5C252.233 320.761 245.293 313.736 239.125 308.555C232.963 303.44 226.431 298.768 220 294C219.963 295.048 219.925 296.096 219.887 297.176C219.821 298.555 219.755 299.934 219.688 301.312C219.665 302.003 219.643 302.693 219.619 303.404C219.348 308.506 219.348 308.506 217.803 310.7C215.334 312.481 213.68 312.375 210.648 312.374C209.538 312.381 208.427 312.388 207.283 312.395C206.065 312.388 204.846 312.38 203.59 312.372C201.665 312.378 201.665 312.378 199.702 312.383C196.181 312.393 192.661 312.383 189.14 312.37C185.458 312.359 181.776 312.363 178.094 312.365C171.91 312.366 165.726 312.355 159.542 312.336C152.39 312.315 145.238 312.311 138.086 312.318C131.209 312.323 124.333 312.318 117.456 312.307C114.528 312.302 111.6 312.301 108.671 312.303C104.584 312.305 100.497 312.291 96.4103 312.275C95.1915 312.277 93.9727 312.28 92.717 312.282C91.6065 312.275 90.4961 312.268 89.3519 312.261C88.3852 312.259 87.4184 312.257 86.4224 312.254C84.0001 312 84.0001 312 81.0001 310C80.698 307.176 80.5908 304.57 80.612 301.742C80.6067 300.889 80.6014 300.035 80.596 299.155C80.5828 296.323 80.5916 293.492 80.6017 290.66C80.5997 288.697 80.5968 286.734 80.593 284.771C80.5886 280.653 80.595 276.535 80.609 272.416C80.6261 267.132 80.6163 261.848 80.5983 256.564C80.5875 252.509 80.5909 248.454 80.5987 244.399C80.6007 242.45 80.5982 240.502 80.5913 238.553C80.5836 235.831 80.5952 233.109 80.612 230.387C80.6059 229.578 80.5998 228.769 80.5936 227.936C80.6556 222.496 80.6556 222.496 82.383 220.008C84.5087 218.683 86.1993 218.493 88.6876 218.312C89.4959 218.247 90.3041 218.181 91.1369 218.113C91.7517 218.076 92.3666 218.038 93.0001 218C92.5412 217.455 92.0823 216.909 91.6095 216.348C81.958 204.486 79.7842 193.041 81.0001 178C82.9764 167.061 88.9415 157.664 97.8751 151.062C113.76 140.84 132.537 139.575 148.813 149.812ZM98.0001 167C92.698 175.344 90.9545 183.159 92.0001 193C95.5039 204.759 101.326 211.236 111.906 217.047C119.398 220.412 128.507 220.199 136.188 217.562C144.907 213.515 151.177 207.035 155.16 198.359C158.593 188.715 157.334 180.128 153 171C148.196 162.531 140.544 157.157 131.238 154.473C118.231 151.726 106.44 157.06 98.0001 167ZM172.625 197.125C170.399 201.063 169.683 204.483 170 209C171.252 213.043 173.305 215.521 176.813 217.937C181.49 219.497 185.119 219.831 189.688 217.812C192.847 215.336 195.202 212.597 197 209C197.043 204.612 196.545 200.963 194.375 197.125C187.203 190.708 179.797 190.708 172.625 197.125ZM159 213C157.638 214.981 156.304 216.981 155 219C157.31 219 159.62 219 162 219C161.34 217.02 160.68 215.04 160 213C159.67 213 159.34 213 159 213ZM254.625 224.375C253.541 225.304 252.455 226.231 251.367 227.156C250.809 227.632 250.25 228.108 249.675 228.598C247.089 230.763 244.425 232.82 241.75 234.875C241.228 235.294 240.706 235.713 240.168 236.144C237.109 238.56 234.078 240.539 230.621 242.348C224.895 245.555 220.133 248.477 218.042 254.981C216.517 263.318 215.703 273.707 220.367 281.194C223.885 284.937 228.163 287.284 232.664 289.672C236.723 291.979 240.286 294.92 243.938 297.812C245.35 298.898 246.764 299.981 248.18 301.062C252.468 304.356 256.744 307.665 261 311C261.66 310.67 262.32 310.34 263 310C263 280.3 263 250.6 263 220C258.862 220 257.721 221.677 254.625 224.375ZM92.0001 230C92.0001 239.9 92.0001 249.8 92.0001 260C98.5879 260.091 98.5879 260.091 105.309 260.184C108.801 260.235 112.294 260.286 115.787 260.339C119.479 260.394 123.171 260.448 126.863 260.497C130.416 260.545 133.969 260.597 137.522 260.653C138.881 260.673 140.239 260.692 141.597 260.709C143.494 260.733 145.391 260.764 147.287 260.795C148.368 260.81 149.45 260.826 150.564 260.842C153 261 153 261 154 262C154.1 264.279 154.131 266.562 154.133 268.844C154.134 269.528 154.135 270.212 154.136 270.917C154.137 272.367 154.135 273.816 154.131 275.265C154.125 277.491 154.13 279.716 154.137 281.941C154.136 283.346 154.135 284.751 154.133 286.156C154.132 287.443 154.131 288.73 154.13 290.057C154 293 154 293 153 294C151.099 294.123 149.192 294.178 147.287 294.205C146.066 294.225 144.845 294.245 143.586 294.266C142.244 294.283 140.901 294.3 139.559 294.316C138.193 294.337 136.826 294.358 135.46 294.379C131.858 294.435 128.256 294.484 124.654 294.532C120.981 294.582 117.308 294.638 113.635 294.693C106.423 294.801 99.2118 294.902 92.0001 295C92.0001 296.98 92.0001 298.96 92.0001 301C130.28 301 168.56 301 208 301C208 277.57 208 254.14 208 230C169.72 230 131.44 230 92.0001 230ZM92.0001 271C92.0001 275.29 92.0001 279.58 92.0001 284C109.16 284 126.32 284 144 284C144 279.71 144 275.42 144 271C126.84 271 109.68 271 92.0001 271Z" fill="url(#paint1_linear_75_221)"/>
<path d="M340 33C346.64 33.4311 351.322 35.2571 357.125 38.4375C357.952 38.8834 358.78 39.3294 359.633 39.7888C370.312 45.6657 379.854 52.5916 388.769 60.9258C390.812 62.8248 392.914 64.5984 395.062 66.375C400.027 70.6963 403.97 75.8229 408 81C408.566 81.6768 409.132 82.3535 409.715 83.0508C412.035 85.9497 413 87.5464 413 91.3125C412 94 412 94 409 96C406.094 95.9805 406.094 95.9805 403 95C400.719 92.5508 400.719 92.5508 398.5 89.3125C384.836 70.402 367.172 57.3459 346.165 47.5388C345.122 47.0336 344.079 46.5284 343.004 46.0078C341.593 45.3526 341.593 45.3526 340.154 44.6841C338 43 338 43 337.097 39.9604C337 37 337 37 338.437 34.625C339.211 33.8206 339.211 33.8206 340 33Z" fill="url(#paint2_linear_75_221)"/>
<path d="M136 170C140.333 173.882 143.527 178.16 144.25 184.027C144.569 189.847 143.427 194.258 140 199C135.35 203.862 131.654 206.129 124.813 206.313C119.381 206.241 115.327 205.375 111 202C105.818 196.313 104.683 191.317 104.793 183.719C105.206 178.293 107.479 175.29 111.375 171.75C118.815 165.817 127.716 165.122 136 170ZM118 181C115.671 183.876 115.671 183.876 116.063 187.438C116.742 191.061 116.742 191.061 119.125 193.5C122.916 195.478 124.928 195.131 129 194C131.648 192.323 131.955 191.149 132.875 188.125C133.026 184.349 132.351 182.919 130 180C125.329 176.935 122.41 177.947 118 181Z" fill="url(#paint3_linear_75_221)"/>
<path d="M259 355C260.875 356.062 260.875 356.062 262 358C262.008 361.34 262.008 361.34 261 365C258.598 366.927 256.701 368.155 254 369.5C253.283 369.877 252.566 370.253 251.827 370.642C235.5 379.042 216.384 387.045 197.75 387.187C196.899 387.202 196.048 387.216 195.172 387.23C193 387 193 387 191 385C190.439 379.728 190.439 379.728 192.258 377.366C194.308 375.758 195.619 375.452 198.183 375.078C199.436 374.877 199.436 374.877 200.713 374.671C201.612 374.532 202.511 374.393 203.437 374.25C219.425 371.454 233.724 366.25 247.823 358.201C254.773 354.286 254.773 354.286 259 355Z" fill="url(#paint4_linear_75_221)"/>
<path d="M292.438 21.0623C293.355 21.1147 294.273 21.167 295.219 21.221C302.057 21.6897 308.763 22.6228 315.5 23.8748C316.816 24.1166 316.816 24.1166 318.158 24.3633C322.579 25.2546 326.402 26.1126 330 28.9998C330.5 31.9998 330.5 31.9998 330 34.9998C328.695 36.6951 328.695 36.6951 327 37.9998C322.63 37.8491 318.555 37.1053 314.262 36.2889C312.862 36.0248 311.462 35.7618 310.062 35.4998C309.343 35.3636 308.624 35.2275 307.884 35.0872C301.565 33.9567 295.303 33.5592 288.889 33.4666C285.693 33.3769 283.356 33.1929 280.52 31.656C279 29.9998 279 29.9998 278.5 26.9998C279 23.9998 279 23.9998 280.441 22.3084C284.404 20.2816 288.071 20.7786 292.438 21.0623Z" fill="url(#paint5_linear_75_221)"/>
<path d="M284.75 333.063C287 334 287 334 289 336C289.449 338.774 289.449 338.774 289 342C287.311 344.16 285.81 345.81 283.813 347.625C283.33 348.089 282.847 348.553 282.35 349.031C273.192 357.734 273.192 357.734 268 358C265.75 357.375 265.75 357.375 264 356C263.027 353.359 262.722 351.79 263.664 349.114C265.446 346.295 267.635 344.624 270.25 342.563C273.392 340.081 276.451 337.608 279.375 334.875C282 333 282 333 284.75 333.063Z" fill="url(#paint6_linear_75_221)"/>
<defs>
<linearGradient id="paint0_linear_75_221" x1="231.038" y1="0.561035" x2="231.038" y2="409.187" gradientUnits="userSpaceOnUse">
<stop stop-color="#D94F5B"/>
<stop offset="1" stop-color="#3C0005"/>
</linearGradient>
<linearGradient id="paint1_linear_75_221" x1="177.685" y1="142.736" x2="177.685" y2="322.516" gradientUnits="userSpaceOnUse">
<stop stop-color="#D94F5B"/>
<stop offset="1" stop-color="#3C0005"/>
</linearGradient>
<linearGradient id="paint2_linear_75_221" x1="375.031" y1="33" x2="375.031" y2="96" gradientUnits="userSpaceOnUse">
<stop stop-color="#D94F5B"/>
<stop offset="1" stop-color="#3C0005"/>
</linearGradient>
<linearGradient id="paint3_linear_75_221" x1="124.544" y1="166.769" x2="124.544" y2="206.313" gradientUnits="userSpaceOnUse">
<stop stop-color="#D94F5B"/>
<stop offset="1" stop-color="#3C0005"/>
</linearGradient>
<linearGradient id="paint4_linear_75_221" x1="226.336" y1="354.637" x2="226.336" y2="387.23" gradientUnits="userSpaceOnUse">
<stop stop-color="#D94F5B"/>
<stop offset="1" stop-color="#3C0005"/>
</linearGradient>
<linearGradient id="paint5_linear_75_221" x1="304.438" y1="20.7944" x2="304.438" y2="37.9998" gradientUnits="userSpaceOnUse">
<stop stop-color="#D94F5B"/>
<stop offset="1" stop-color="#3C0005"/>
</linearGradient>
<linearGradient id="paint6_linear_75_221" x1="276.216" y1="333.045" x2="276.216" y2="358" gradientUnits="userSpaceOnUse">
<stop stop-color="#D94F5B"/>
<stop offset="1" stop-color="#3C0005"/>
</linearGradient>
</defs>
</svg>
