<svg xmlns="http://www.w3.org/2000/svg" viewBox="0 0 400 300" width="406" height="306" class="illustration styles_illustrationTablet__1DWOa"><g id="_364_customer_service_outline" data-name="#364_customer_service_outline"><path d="M240.09,96a1,1,0,0,1-1-1v-6.4a41.78,41.78,0,0,0-83.55,0V95a1,1,0,1,1-2,0v-6.4a43.78,43.78,0,0,1,87.55,0V95A1,1,0,0,1,240.09,96Z" fill="#093f68"></path><path d="M237.11,228.5c0,3.81,6.77,3.79,15.12,3.79s15.11,0,15.11-3.79-6.77-9-15.11-9S237.11,224.69,237.11,228.5Z" fill="#f56132"></path><path d="M252.54,233.29h-.47a70.1,70.1,0,0,1-10.75-.49c-1.29-.22-5.21-.91-5.21-4.3,0-4.5,7.44-10,16.12-10s16.11,5.51,16.11,10c0,3.39-3.92,4.08-5.21,4.3A67.89,67.89,0,0,1,252.54,233.29Zm-.47-2h.46a67,67,0,0,0,10.26-.46c3.55-.62,3.55-1.82,3.55-2.33,0-3.16-6.32-8-14.11-8s-14.12,4.85-14.12,8c0,.51,0,1.71,3.55,2.33A70.46,70.46,0,0,0,252.07,231.29Z" fill="#093f68"></path><path d="M236.28,215.71s5.07,1.69,6.19,3.75,2.07,10.7,4.88,9.95.38-9.38,2.63-9.2,17.74,7.7,17.36,3.76-7.41-10.14-13.42-13.14-16.25-4.32-16.25-4.32Z" fill="#ffc9b0"></path><path d="M247,230.46a2.3,2.3,0,0,1-1.15-.32c-1.58-.92-2.37-3.54-3.32-7.14a18.06,18.06,0,0,0-.95-3.06c-.68-1.25-3.81-2.67-5.63-3.28a1,1,0,0,1-.67-1.1l1.4-9.2a1,1,0,0,1,1.11-.84c.43,0,10.48,1.37,16.57,4.41,5.56,2.79,13.51,9.18,14,13.94a1.87,1.87,0,0,1-.71,1.74c-1.79,1.37-6.63-.32-13.27-2.86-1.67-.63-3.54-1.35-4.27-1.51a13.6,13.6,0,0,0-.2,2.86c0,2.67,0,5.69-2.27,6.28A2.47,2.47,0,0,1,247,230.46Zm-9.62-15.41c1.59.6,4.94,2.06,6,3.94a18.44,18.44,0,0,1,1.13,3.5c.52,2,1.4,5.35,2.39,5.92a.23.23,0,0,0,.22,0c.75-.2.78-2.91.79-4.36,0-2,0-3.65.91-4.45a1.59,1.59,0,0,1,1.27-.42,25.87,25.87,0,0,1,5,1.67c3,1.14,9.92,3.78,11.28,3.17-.38-3.26-6.59-9.2-12.86-12.34-4.73-2.36-12.3-3.67-15-4.08Z" fill="#093f68"></path><path d="M203.81,93.64c-14.31-1.76-32.64,1.93-43.11,12.28a12.33,12.33,0,0,0-3.64,5.41c-1.79,6.9-.16,13.64-6.25,18.83-1.55,1.33-3.33,2.4-4.75,3.88-4.6,4.8-3.65,13.72,1.87,17.44-3.11,3-3.59,7.92-2.64,12.14,1.71,7.64,7.4,14,14.18,17.87s14.59,5.68,22.35,6.72c11.29,1.51,22.91,1.58,33.92-1.32s21.42-8.95,28.25-18.07a21.21,21.21,0,0,0,4.48-9.87c.7-5.61-2-11-4.59-16,3.8-4.47,4.73-10.91,3.38-16.61s-4.76-10.75-8.76-15A57.54,57.54,0,0,0,203.81,93.64Z" fill="#725858"></path><path d="M196.45,190.24a112.39,112.39,0,0,1-14.77-1c-9.78-1.31-16.78-3.42-22.71-6.84-7.67-4.43-13-11.18-14.66-18.52-1.07-4.78-.27-9.25,2.14-12.22a12.57,12.57,0,0,1-4.25-8.35,12.35,12.35,0,0,1,3.14-9.92,23.91,23.91,0,0,1,3-2.54c.63-.47,1.23-.92,1.81-1.41,4-3.37,4.39-7.38,4.91-12a43.91,43.91,0,0,1,1-6.29,13.22,13.22,0,0,1,3.9-5.87c11.16-11,30.11-14.26,43.94-12.57h0a58.9,58.9,0,0,1,35.3,18c4.73,5.06,7.76,10.27,9,15.48,1.49,6.25.3,12.53-3.16,17,2.37,4.58,5.12,10.18,4.4,16.05-.41,3.3-1.94,6.69-4.68,10.34-6.53,8.72-16.76,15.27-28.79,18.44A76.45,76.45,0,0,1,196.45,190.24Zm-.13-96.06c-15.35,0-28.26,5.87-34.92,12.45a11.46,11.46,0,0,0-3.37,5,42.64,42.64,0,0,0-1,6c-.52,4.65-1,9.45-5.61,13.33-.62.53-1.27,1-1.91,1.5a22.61,22.61,0,0,0-2.77,2.31,11,11,0,0,0,1.71,15.92,1,1,0,0,1,.43.74,1,1,0,0,1-.3.81c-2.5,2.44-3.38,6.62-2.36,11.2,1.53,6.8,6.53,13.08,13.71,17.23,5.69,3.28,12.47,5.31,22,6.59,12.77,1.71,23.74,1.28,33.54-1.3,11.6-3,21.43-9.34,27.7-17.7,2.52-3.37,3.93-6.44,4.29-9.39.63-5.09-1.66-10-4.49-15.46a1,1,0,0,1,.13-1.11c3.33-3.91,4.54-9.94,3.17-15.73-1.16-4.87-4-9.77-8.52-14.58a56.89,56.89,0,0,0-34.08-17.32A60.08,60.08,0,0,0,196.32,94.18Z" fill="#093f68"></path><path d="M196.86,54.25h1.57a36.51,36.51,0,0,1,36.51,36.51v10.79a0,0,0,0,1,0,0H160.36a0,0,0,0,1,0,0V90.76a36.51,36.51,0,0,1,36.51-36.51Z" fill="#725858"></path><path d="M235,102.56H160.36a1,1,0,0,1-1-1V90.76a37.55,37.55,0,0,1,37.5-37.51h1.58A37.56,37.56,0,0,1,236,90.76v10.8A1,1,0,0,1,235,102.56Zm-73.59-2H234v-9.8a35.55,35.55,0,0,0-35.51-35.51h-1.58a35.54,35.54,0,0,0-35.5,35.51Z" fill="#093f68"></path><polyline points="190.43 156.57 190.43 148.61 204.27 148.61 204.27 156.57" fill="#ffc9b0"></polyline><path d="M204.27,157.57a1,1,0,0,1-1-1v-7H191.43v7a1,1,0,0,1-2,0v-8a1,1,0,0,1,1-1h13.84a1,1,0,0,1,1,1v8A1,1,0,0,1,204.27,157.57Z" fill="#093f68"></path><path d="M197.32,150.42h0c-20.42,0-37-12.15-37-34.55V100.19c21.79,4.09,25.11-18.53,25.11-18.53,19.77,34.38,48.8,11.64,48.8,11.64v22.57C234.27,138.27,217.73,150.42,197.32,150.42Z" fill="#ffc9b0"></path><path d="M197.32,151.42c-22.71,0-38-14.28-38-35.55V100.19a1,1,0,0,1,1.18-1c6,1.13,11.15.24,15.2-2.66,7.21-5.14,8.73-14.94,8.74-15a1,1,0,0,1,.8-.83,1,1,0,0,1,1.06.48c5.92,10.31,13.26,16.38,21.82,18,13.41,2.61,25.38-6.6,25.5-6.69a1,1,0,0,1,1.62.79v22.57C235.28,137.14,220,151.42,197.32,151.42Zm-36-50v14.49c0,23.18,18.06,33.55,36,33.55s36-10.37,36-33.55V95.22c-3.85,2.54-14,8.18-25.5,6-8.53-1.66-15.88-7.33-21.88-16.85-1,3.5-3.39,9.86-9,13.86C172.66,101.21,167.43,102.28,161.36,101.38Z" fill="#093f68"></path><circle cx="179.01" cy="114.66" r="3.55" fill="#093f68"></circle><circle cx="215.62" cy="114.66" r="3.55" fill="#093f68"></circle><path d="M197.7,126.31a23.42,23.42,0,0,1-3.44-.28,1,1,0,0,1-.81-1.16,1,1,0,0,1,1.16-.81,16.86,16.86,0,0,0,5.37,0c.31-.92-1-4.82-3-8.52a1,1,0,1,1,1.77-.93c1,1.85,4,8.06,3,10.34a1.74,1.74,0,0,1-1.21,1A11.83,11.83,0,0,1,197.7,126.31Z" fill="#093f68"></path><path d="M154.77,88.66h5.59a0,0,0,0,1,0,0v36.54a0,0,0,0,1,0,0h-5.59a7.41,7.41,0,0,1-7.41-7.41V96.07A7.41,7.41,0,0,1,154.77,88.66Z" fill="#70cc40"></path><path d="M160.36,126.19h-5.59a8.41,8.41,0,0,1-8.41-8.4V96.07a8.42,8.42,0,0,1,8.41-8.41h5.59a1,1,0,0,1,1,1v36.53A1,1,0,0,1,160.36,126.19Zm-5.59-36.53a6.41,6.41,0,0,0-6.41,6.41v21.72a6.41,6.41,0,0,0,6.41,6.4h4.59V89.66Z" fill="#093f68"></path><path d="M241.68,88.66h5.59a0,0,0,0,1,0,0v36.54a0,0,0,0,1,0,0h-5.59a7.41,7.41,0,0,1-7.41-7.41V96.07A7.41,7.41,0,0,1,241.68,88.66Z" transform="translate(481.55 213.85) rotate(-180)" fill="#70cc40"></path><path d="M239.86,126.19h-5.58a1,1,0,0,1-1-1V88.66a1,1,0,0,1,1-1h5.58a8.42,8.42,0,0,1,8.41,8.41v21.72A8.41,8.41,0,0,1,239.86,126.19Zm-4.58-2h4.58a6.41,6.41,0,0,0,6.41-6.4V96.07a6.41,6.41,0,0,0-6.41-6.41h-4.58Z" fill="#093f68"></path><path d="M197.66,140a15.34,15.34,0,0,1-7.59-1.83,11.09,11.09,0,0,1-4.85-5.08,1,1,0,0,1,1.86-.74c.16.41,4.24,9.86,21,3.38a1,1,0,0,1,.72,1.87A31.53,31.53,0,0,1,197.66,140Z" fill="#093f68"></path><path d="M173.06,144.16c-4.84,0-11.38-.56-14.69-3.23-5.58-4.52-5.37-15.19-5.36-15.64a1,1,0,0,1,1-1h0a1,1,0,0,1,1,1c0,.1-.19,10.14,4.61,14s19,2.54,19.16,2.53a1,1,0,0,1,1.09.89,1,1,0,0,1-.89,1.1C178.74,143.91,176.27,144.16,173.06,144.16Z" fill="#093f68"></path><rect x="168.25" y="139.02" width="16.46" height="6.88" rx="3.44" fill="#70cc40"></rect><path d="M181.27,146.9h-9.58a4.44,4.44,0,0,1,0-8.88h9.58a4.44,4.44,0,0,1,0,8.88ZM171.69,140a2.44,2.44,0,0,0,0,4.88h9.58a2.44,2.44,0,0,0,0-4.88Z" fill="#093f68"></path><path d="M180.54,156.57h33.61a21.71,21.71,0,0,1,21.71,21.71v47.34a0,0,0,0,1,0,0h-77a0,0,0,0,1,0,0V178.29A21.71,21.71,0,0,1,180.54,156.57Z" fill="#d0c1b4"></path><path d="M235.87,226.63h-77a1,1,0,0,1-1-1V178.29a22.74,22.74,0,0,1,22.71-22.72h33.61a22.74,22.74,0,0,1,22.72,22.72v47.34A1,1,0,0,1,235.87,226.63Zm-76-2h75V178.29a20.75,20.75,0,0,0-20.72-20.72H180.54a20.74,20.74,0,0,0-20.71,20.72Z" fill="#093f68"></path><path d="M170.48,107.46a1.59,1.59,0,0,1-.2-3.16l16.52-2.07a1.59,1.59,0,0,1,.39,3.15l-16.52,2.07Z" fill="#093f68"></path><path d="M224.16,107.46H224l-16.52-2.07a1.59,1.59,0,0,1,.39-3.15l16.52,2.07a1.59,1.59,0,0,1-.19,3.16Z" fill="#093f68"></path><path d="M197.35,174.57c-8.39,0-20.48-18-20.48-18h40.95S205.73,174.57,197.35,174.57Z" fill="#fff"></path><path d="M197.35,175.57c-8.82,0-20.8-17.69-21.31-18.44a1,1,0,0,1,0-1,1,1,0,0,1,.88-.53h40.95a1,1,0,0,1,.89.53,1,1,0,0,1-.06,1C218.15,157.88,206.16,175.57,197.35,175.57Zm-18.56-18c4,5.59,12.72,16,18.56,16s14.53-10.41,18.56-16Z" fill="#093f68"></path><path d="M182.47,156.57s5.91,6,8.63,5.24,6.14-5.24,6.14-5.24Z" fill="#fff"></path><path d="M190.63,162.87c-3.18,0-7.9-4.6-8.87-5.59a1,1,0,0,1,.71-1.71h14.77a1,1,0,0,1,.9.56,1,1,0,0,1-.1,1.05c-.37.49-3.71,4.78-6.67,5.59A2.59,2.59,0,0,1,190.63,162.87Zm-5.63-5.3c2.31,2,4.79,3.56,5.84,3.28,1.32-.37,3-1.94,4.25-3.28Z" fill="#093f68"></path><path d="M212.23,156.57s-5.92,6-8.64,5.24-6.14-5.24-6.14-5.24Z" fill="#fff"></path><path d="M204.06,162.87a2.52,2.52,0,0,1-.73-.1c-3-.81-6.3-5.1-6.67-5.59a1,1,0,0,1,.79-1.61h14.78a1,1,0,0,1,.92.62,1,1,0,0,1-.21,1.09C212,158.26,207.24,162.87,204.06,162.87Zm-4.45-5.3c1.23,1.34,2.92,2.91,4.25,3.28,1,.28,3.53-1.29,5.83-3.28Zm12.62,0h0Z" fill="#093f68"></path><path d="M197.45,175.57a1,1,0,0,1-1-1v-18a1,1,0,0,1,2,0v18A1,1,0,0,1,197.45,175.57Z" fill="#093f68"></path><path d="M150.67,152.57s-25.25,47.81-16,57.9,20.83,3.33,24.21-4S163.81,158,163.81,158Z" fill="#d0c1b4"></path><path d="M145.22,216.58c-3.22,0-7.3-1.14-11.25-5.43-9.66-10.5,14.77-57.07,15.81-59.05a1,1,0,0,1,1.27-.45l13.14,5.44a1,1,0,0,1,.62,1c-.07,1.69-1.56,41.43-5,48.85a17.32,17.32,0,0,1-12.46,9.51A14.31,14.31,0,0,1,145.22,216.58Zm5.91-62.74c-7.15,13.73-22.77,48.26-15.69,55.95,3.4,3.7,7.42,5.3,11.62,4.64A15.37,15.37,0,0,0,158,206.06c3-6.54,4.55-42,4.77-47.39Z" fill="#093f68"></path><path d="M158.55,134.17s16.71-1.68,18.21,2.07-3.76,4.69-9.95,3.94c0,0,5.07,2.82,5.07,7.7S163.81,158,163.81,158l-13.14-5.44S150.85,138.49,158.55,134.17Z" fill="#ffc9b0"></path><path d="M163.81,159a1.07,1.07,0,0,1-.39-.07l-13.14-5.45a1,1,0,0,1-.61-.93c0-.6.29-14.71,8.39-19.26a.89.89,0,0,1,.39-.12c4.1-.41,17.59-1.44,19.24,2.69a3.32,3.32,0,0,1-.31,3.45c-1.35,1.77-4.53,2.15-7.4,2.1a9.25,9.25,0,0,1,2.9,6.46c0,5.36-8.18,10.74-8.53,11A1,1,0,0,1,163.81,159Zm-12.11-7.1,12,5c2.35-1.63,7.19-5.67,7.19-9,0-4.25-4.51-6.8-4.56-6.82a1,1,0,0,1,.61-1.87c5.42.66,8.17-.17,8.87-1.09.17-.23.37-.63,0-1.49-.75-1.87-9.34-2.21-17-1.46C152.84,138.72,151.85,149.16,151.7,151.91Z" fill="#093f68"></path><path d="M235,240.21H156.72a7.22,7.22,0,0,1-7.21-6.67l-3.49-45a7.23,7.23,0,0,1,7.21-7.79h85.25a7.23,7.23,0,0,1,7.21,7.79l-3.49,45A7.22,7.22,0,0,1,235,240.21Z" fill="#fff"></path><path d="M235,241.21H156.72a8.27,8.27,0,0,1-8.21-7.59l-3.49-45a8.24,8.24,0,0,1,8.21-8.87h85.25a8.24,8.24,0,0,1,8.21,8.87l-3.49,45A8.27,8.27,0,0,1,235,241.21Zm-81.76-59.49a6.23,6.23,0,0,0-6.21,6.72l3.48,45a6.26,6.26,0,0,0,6.22,5.75H235a6.26,6.26,0,0,0,6.22-5.75l3.48-45a6.23,6.23,0,0,0-6.21-6.72Z" fill="#093f68"></path><path d="M195.85,218.65a8.18,8.18,0,1,1,8.18-8.18A8.19,8.19,0,0,1,195.85,218.65Zm0-14.36a6.18,6.18,0,1,0,6.18,6.18A6.19,6.19,0,0,0,195.85,204.29Z" fill="#dfeaef"></path></g></svg>