<?xml version="1.0" encoding="iso-8859-1"?>
<!-- Generator: Adobe Illustrator 27.4.0, SVG Export Plug-In . SVG Version: 6.00 Build 0)  -->
<svg version="1.1" baseProfile="basic" xmlns="http://www.w3.org/2000/svg" xmlns:xlink="http://www.w3.org/1999/xlink" x="0px"
	 y="0px" viewBox="0 0 120 120" xml:space="preserve">
<g id="&#x421;&#x43B;&#x43E;&#x439;_1">
</g>
<g id="&#x421;&#x43B;&#x43E;&#x439;_2">
	<circle style="opacity:0.35;" cx="18.5" cy="58.499" r="12.5"/>
	<circle style="opacity:0.35;" cx="101.5" cy="58.499" r="12.5"/>
	<path style="opacity:0.35;" d="M91.5,17.999c-2.537,0-4.809,1.118-6.366,2.881l-19.006-7.198l-8.978,27.383l5.701,1.869
		l7.022-21.418l13.128,4.972c0,0.004-0.001,0.007-0.001,0.011c0,4.694,3.806,8.5,8.5,8.5s8.5-3.806,8.5-8.5
		C100,21.804,96.194,17.999,91.5,17.999z"/>
	<ellipse style="opacity:0.35;" cx="60" cy="75.999" rx="51" ry="37"/>
	<g>
		<polygon style="fill:#52AFFF;" points="62.851,39.933 57.149,38.064 66.127,10.681 92.562,20.693 90.438,26.304 69.873,18.515 		
			"/>
	</g>
	<circle style="fill:#52AFFF;" cx="18.5" cy="54.499" r="12.5"/>
	<circle style="fill:#52AFFF;" cx="101.5" cy="54.499" r="12.5"/>
	<ellipse style="fill:#A4E2F1;" cx="60" cy="71.999" rx="51" ry="37"/>
	<g style="opacity:0.35;">
		<path d="M60,102.999c-12.062,0-22.979-5.457-27.163-13.578l5.334-2.748C41.353,92.849,50.125,96.999,60,96.999
			c9.864,0,18.633-4.144,21.821-10.312l5.33,2.756C82.894,97.678,72.236,102.999,60,102.999z"/>
	</g>
	<circle style="opacity:0.35;" cx="41.5" cy="70.499" r="8.5"/>
	<circle style="opacity:0.35;" cx="78.5" cy="70.499" r="8.5"/>
	<g>
		<path style="fill:#52AFFF;" d="M60,99.999c-12.062,0-22.979-5.457-27.163-13.578l5.334-2.748
			C41.353,89.849,50.125,93.999,60,93.999c9.864,0,18.633-4.144,21.821-10.312l5.33,2.756C82.894,94.678,72.236,99.999,60,99.999z"
			/>
	</g>
	<circle style="fill:#FF1200;" cx="41.5" cy="67.499" r="8.5"/>
	<circle style="fill:#FF1200;" cx="78.5" cy="67.499" r="8.5"/>
	<circle style="fill:#52AFFF;" cx="91.5" cy="23.499" r="8.5"/>
</g>
</svg>