<svg viewBox="0 0 64 64" xmlns="http://www.w3.org/2000/svg" aria-labelledby="title"
aria-describedby="desc" role="img" xmlns:xlink="http://www.w3.org/1999/xlink">
  <title>Hospitality</title>
  <desc>A color styled icon from Orion Icon Library.</desc>
  <path fill="#eae3b0"
  d="M18 12.647v6.211c6-1.159 22-1.092 28 0v-6.211c-6-.947-22-.723-28 0z"
  data-name="layer2"></path>
  <path fill="#bc5163" d="M31.973 1.983C22.035 1.983 18 4.016 18 8.016v4.631c6-.723 22-.948 28 0V8.016c0-4-4.027-6.033-14.027-6.033zM20.153 49.28c-1.431 1-3.536 1.047-6.144 1.51C1.991 52.923 2 62.017 2 62.017h60s.007-8.7-12.007-11a32.487 32.487 0 0 1-5.925-1.617l-.084.072a14.867 14.867 0 0 1-12 6.314"
  data-name="layer3"></path>
  <path fill="#eae3b0" d="M20.153 49.28c4.612-1 3.847-3.736 3.847-5.262h.018a17.979 17.979 0 0 0 7.966 2.382 18.211 18.211 0 0 0 8-2.383h.014c0 1.517-.408 3.523 4.068 5.327-.05.043-.084.015-.084.015a14.83 14.83 0 0 1-12 6.429s-7.156.896-11.829-6.508z"
  data-name="layer2"></path>
  <path fill="#e8d4d4" d="M46 19.017v3.011c3 .053 2.9 1.779 2.9 2.719s-.7 7.231-3.724 7.267a18.279 18.279 0 0 1-5.2 8.774L40 40.8v3.212h-.014a18.211 18.211 0 0 1-8 2.383 17.979 17.979 0 0 1-7.967-2.383h-.018V40.79l.025-.011a18.3 18.3 0 0 1-5.184-8.761c-3.047 0-3.758-6.323-3.758-7.27S15 22.053 18 22.024v-3.007a79.035 79.035 0 0 1 14-1 79.035 79.035 0 0 1 14 1z"
  data-name="layer1"></path>
  <path opacity=".15" fill="#000064" d="M24 18.11c.124-.992 0-9.046 0-11.046a5.977 5.977 0 0 1 3.18-4.858C20.721 2.8 18 4.735 18 8.016v14.008c-3 .029-2.917 1.781-2.917 2.724s.711 7.27 3.758 7.27a18.3 18.3 0 0 0 5.184 8.761L24 40.79v3.227c0 1.526.309 3.448-4.016 5.337a26.843 26.843 0 0 1-5.976 1.436C1.991 52.923 2 62.017 2 62.017h7c0-1 2-8 9-8 11 0 18-12 18-12C21.328 45.93 21.009 23.065 23.81 18.32z"
  data-name="opacity"></path>
  <path stroke-width="2" stroke-linejoin="round" stroke-linecap="round"
  stroke="#2e4369" fill="none" d="M26.018 42.285a17.236 17.236 0 0 1-7.172-10.267c-3.047 0-3.754-6.323-3.754-7.27s-.121-2.695 2.926-2.724v-3.007m19.988 23.268a17.221 17.221 0 0 0 7.17-10.27c3.025-.036 3.728-6.323 3.728-7.267s.117-2.666-2.9-2.719v-3.012"
  data-name="stroke"></path>
  <path stroke-width="2" stroke-linejoin="round" stroke-linecap="round"
  stroke="#2e4369" fill="none" d="M24.018 40.79v3.227c0 2 1.008 5.046-10 7C2 53.151 2 62.017 2 62.017h60s0-8.7-12.014-11c-10.711-2.05-10-5-10-7V40.8M18.018 18.858c5.967-1.159 22.01-1.092 27.988 0V8.016c0-4-4.021-6.033-14.021-6.033-9.937 0-13.967 2.033-13.967 6.033zm0-6.211c5.967-.723 22.01-.948 27.988 0"
  data-name="stroke"></path>
  <path stroke-width="2" stroke-linejoin="round" stroke-linecap="round"
  stroke="#2e4369" fill="none" d="M24.018 44.017a17.979 17.979 0 0 0 7.966 2.383 18.211 18.211 0 0 0 8-2.383m-20 5.456a14.8 14.8 0 0 0 12 6.542 14.8 14.8 0 0 0 12-6.542M32.002 46.4v15.617"
  data-name="stroke"></path>
</svg>