<?xml version="1.0" encoding="UTF-8"?>
<svg id="a" data-name="Lager 1" xmlns="http://www.w3.org/2000/svg" viewBox="0 0 538.92 586.21">
  <defs>
    <style>
      .c {
        fill: #e3daa6;
      }

      .d {
        fill: #6b916d;
      }

      .e {
        fill: #c98783;
      }

      .f {
        fill: #d8c694;
      }

      .g {
        fill: #e98160;
      }

      .h {
        fill: #f4efb8;
      }

      .i, .j {
        fill: #c5af81;
      }

      .k {
        opacity: .51;
      }

      .k, .l {
        fill: #8dba75;
      }

      .m {
        opacity: .69;
      }

      .m, .n {
        fill: #374e2b;
      }

      .o {
        opacity: .78;
      }

      .o, .p {
        fill: #eab8b1;
      }

      .j {
        opacity: .58;
      }

      .q {
        fill: #5a7e4c;
        opacity: .5;
      }

      .r {
        fill: #da9993;
      }

      .s {
        fill: #715030;
      }

      .t {
        fill: #4e6c5d;
      }
    </style>
  </defs>
  <g id="b" data-name="Flower9">
    <path class="t" d="m257.79,384.17c-1.45.84-7.71-14.14-19.85-29.72-1.81-2.33-3.76-4.66-5.83-6.96-6.03-6.68-13.21-13.06-21.61-17.86-5.81-3.34-12.22-5.93-19.24-7.36-18.06-3.69-25.18,3.36-48.05-3.7-2.6-.81-4.94-1.64-7.07-2.51-15.96-6.47-20.71-14.25-38.2-16.89-13.93-2.11-24.43.81-41.58,5.54-13.71,3.79-33.83,10.88-56.36,24.95,1.96-5.47,5.09-12.67,10.16-20.33,21.74-32.8,67.75-56.43,115.42-55.68,4.72.07,9.47.39,14.2.96,12.72,1.52,25.4,4.89,37.62,10.37,31.87,14.3,51.95,39.18,64.11,62.51,5.08,9.73,8.78,19.19,11.39,27.51,5.18,16.49,6.07,28.49,4.89,29.17Z"/>
    <path class="m" d="m252.91,355c-4.99-.18-9.97-.36-14.96-.54-1.81-2.33-3.76-4.66-5.83-6.96-6.03-6.68-13.21-13.06-21.61-17.86-5.81-3.34-12.22-5.93-19.24-7.36-18.06-3.69-25.18,3.36-48.05-3.7-2.6-.81-4.94-1.64-7.07-2.51,4.75-10.63,6.43-22.31,4.38-33.68-2.22-12.29-8.32-21.76-14.94-28.73,4.72.07,9.47.39,14.2.96,12.72,1.52,25.4,4.89,37.62,10.37,31.87,14.3,51.95,39.18,64.11,62.51,5.08,9.73,8.78,19.19,11.39,27.51Z"/>
    <path class="t" d="m96.29,151.22c8.28,12.59,21.82,29.37,42.96,42.04,20.89,12.52,36.03,13.14,49.89,18.48,21.96,8.46,48.42,31.72,66.99,97.48-8.16,5.85-16.32,11.7-24.49,17.56-25.4-53.52-54.59-78.8-77.61-91.94-11.55-6.59-31.86-16.01-45.28-38.35-9.8-16.32-12.12-33.2-12.47-45.27Z"/>
    <g>
      <path class="f" d="m398.28,467.31c-3.79,20.68-11.72,41.25-26.32,58.82-7.2,8.65-52.74,41.52-105.64,32.34-12.64-2.2-23.93-6.64-33.87-12.35-25.49-14.65-42.08-37.61-49.75-52.32-7.65-14.68-12.19-29.86-14.64-44.63-3.96-23.86-2.48-46.6.13-64.32,1.01-6.86,2.19-12.97,3.28-18.08.92-4.28,1.77-7.87,2.44-10.65,5.41-.05,10.83-.09,16.24-.14,19.57,6.22,43.26,11.65,70.39,13.77,48.86,3.84,89.59-5.77,118.39-15.39,3.11-.03,6.24-.05,9.35-.08.73,2.01,4.63,13.65,7.96,30.62,4.26,21.73,7.57,52.19,2.04,82.41Z"/>
      <ellipse class="c" cx="283.1" cy="354.27" rx="124.36" ry="33.42"/>
      <ellipse class="s" cx="281.11" cy="367.34" rx="109.34" ry="37.42"/>
      <path class="i" d="m398.28,467.31c-3.79,20.68-11.72,41.25-26.32,58.82-7.2,8.65-52.74,41.52-105.64,32.34-45.06-7.83-72.96-44.22-83.61-64.67-7.65-14.68-12.19-29.86-14.64-44.63,17.17,16.63,47.33,39.67,90.4,48.32,61.22,12.29,111.86-11.84,139.81-30.18Z"/>
      <path class="j" d="m232.46,546.12c-25.49-14.65-42.08-37.61-49.75-52.32-7.65-14.68-12.19-29.86-14.64-44.63-3.96-23.86-2.48-46.6.13-64.32,1.01-6.86,2.19-12.97,3.28-18.08,16.75,6.31,33.51,12.62,50.26,18.92-5.7,22.02-12.84,61.54-4.16,109.49,3.51,19.41,8.95,36.47,14.87,50.94Z"/>
      <path class="h" d="m415.82,380.14c-4.96,1.45-14.8,5.81-20.75,7.55-4.62,1.34-9.18,2.68-13.7,3.99-31.96,9.3-62.34,17.39-103.34,16.8-19.65-.28-37.87-2.24-54.35-5.39-22.47-4.28-41.75-10.79-57.11-18.24-5.05-2.45-9.71-5.17-13.96-8.17-.84-2.46-2.42-8.23-.72-15.24,2.14-8.71,7.97-13.71,9.91-15.25,7.91,3.24,16.99,6.62,27.19,9.79,10.11,3.14,21.32,6.09,33.5,8.51,11.88,2.36,24.7,4.2,38.37,5.26,37.79,2.91,70.81-1.9,97.38-8.59,8.51-2.14,16.36-4.46,23.49-6.8,8.66-2.84,16.28-5.67,22.73-8.17,2.36,2,6.69,7.69,9.24,13.17,4.25,9.19,2.81,17.69,2.12,20.79Z"/>
      <path class="c" d="m415.82,380.14c-4.96,1.45-14.8,5.81-20.75,7.55-4.62,1.34-9.18,2.68-13.7,3.99-1.62-6.84-4.82-14.01-10.63-20.54-3.9-4.38-8.21-7.61-12.49-9.98,8.51-2.14,16.36-4.46,23.49-6.8,8.66-2.84,16.28-5.67,22.73-8.17,2.36,2,6.69,7.69,9.24,13.17,4.25,9.19,2.81,17.69,2.12,20.79Z"/>
      <path class="c" d="m223.68,403.09c-22.47-4.28-41.75-10.79-57.11-18.24-5.05-2.45-9.71-5.17-13.96-8.17-.84-2.46-2.42-8.23-.72-15.24,2.14-8.71,7.97-13.71,9.91-15.25,7.91,3.24,16.99,6.62,27.19,9.79,10.11,3.14,21.32,6.09,33.5,8.51-3.64,3.76-6.09,9.87-6.29,15.66-.32,9.37,1.39,17.09,7.48,22.95Z"/>
    </g>
    <path class="d" d="m276.92,300.26c-10.75,1.31-21.51,2.62-32.26,3.93-.64.08-1.28.15-1.92.23-24.58-21.69-31.83-41.23-33.73-55.44-2.95-22.12,6.26-37.55-3.23-54.97-6.93-12.73-19.84-19.19-29.57-22.64.82-.28,2.51-.85,4.91-1.51,12.71-3.55,45.31-9.86,72.7,8.9,33.75,23.11,46.14,75.06,23.1,121.5Z"/>
    <path class="t" d="m276.92,300.26c-10.75,1.31-21.51,2.62-32.26,3.93,18.4-40.84,11.3-86.07-16.29-112.27-15.24-14.48-33.46-20.02-47.26-22.05,12.71-3.55,45.31-9.86,72.7,8.9,33.75,23.11,46.14,75.06,23.1,121.5Z"/>
    <path class="l" d="m432.47,462.96c-.89-8.45-6.88-57.5-50.11-89.39-2.84-2.1-5.69-4.01-8.54-5.74-26.22-16.08-52-18-62.85-18.24,5.05-12.11,17.08-35.39,39.04-41.3,26.35-7.08,56.04,13.77,74.91,42.03,7.27,10.9,12.93,22.9,16.18,34.82,9.61,35.33-3.08,66.2-8.62,77.83Z"/>
    <path class="q" d="m424.91,350.32c-12.85-2.54-25.65-2.12-36.62,3.96-6.83,3.77-11,8.66-14.48,13.56-26.22-16.08-52-18-62.85-18.24,5.05-12.11,17.08-35.39,39.04-41.3,26.35-7.08,56.04,13.77,74.91,42.03Z"/>
    <path class="t" d="m315.78,343.88c1.54-3.45,25.01-54.01,71.38-64.45,9.63-2.17,27.89-6.28,47.12.69,8.08,2.93,11.58,6.09,22.18,9.01,16.58,4.56,27.33,2.12,33.96,2.77,13.18,1.29,30.58,16.76,48.51,80.39-20.21-26.17-40.01-36.08-54.75-40.19-12.14-3.39-14.38-1.03-42.27-4.16-39.35-4.41-45.42-10.28-63.75-9.7-15.3.48-36.75,5.38-62.37,25.64Z"/>
    <path class="d" d="m418.99,188.16c-7.64-.73-43.3-3.32-66.33,20.7-15.6,16.28-18.02,37.08-18.01,59.4,0,4.99.12,10.04.24,15.15.08,3.21.24,6.82.56,10.77.16,1.97.35,4.04.6,6.19.62,5.6,1.56,11.77,2.94,18.38.1.46.2.94.3,1.41-2.68,2.49-5.2,4.97-7.58,7.42-3.13,3.23-6.01,6.45-8.64,9.57-1.64-1.63-3.28-3.26-4.93-4.91-.99-.98-1.96-1.95-2.95-2.93-2.54-2.54-5.09-5.07-7.63-7.6-2.86-2.85-5.72-5.69-8.58-8.54-4.94-4.92-9.86-9.82-14.8-14.74-4.29-81.65,36-138.18,75.31-141.45,15.47-1.29,29.79,5.76,41.11,14.19,7.7,5.74,14.01,12.13,18.36,16.97Z"/>
    <path class="n" d="m271.67,186.37s-24.13,85.01,15.6,104.72l3.08-4.35s-33.95-30.76-12.97-96.98l-5.71-3.39Z"/>
    <path class="k" d="m400.62,171.18c-14.59-.97-32.94.66-50.75,10.23-40.42,21.71-61.74,75.51-48.05,131.2-.94.19-1.88.38-2.82.56-4.94-4.92-9.86-9.82-14.8-14.74-4.29-81.65,36-138.18,75.31-141.45,15.47-1.29,29.79,5.76,41.11,14.19Z"/>
    <path class="d" d="m243.97,337.85c-2.93.63-6.06,1.41-9.3,2.39-1.5.45-3.02.95-4.55,1.5-11.96,4.24-24.52,11.39-32.58,23.82-7.28,11.25-5.61,18.7-8.13,31.97-.4,2.12-.91,4.38-1.57,6.84-3.5,12.88-10.24,26.67-19.48,38.72-13.03,17.01-31.02,30.58-51.89,33.34-7.46.99-23.03,1.61-42.97-9.02,9.57-2.97,23.01-8.73,33.96-20.78,13.16-14.49,13.52-27.91,22.87-56.83,4.57-14.16,8.27-25.59,11.86-34.79,5.66-14.5,11.07-23.47,19.32-28.97,4.94-3.28,23.23-13.69,63.69,2.9,2.59,1.06,5.28,2.24,8.05,3.53,1.53.72,3.08,1.46,4.66,2.25,1.97.98,4,2.01,6.06,3.11Z"/>
    <g>
      <path class="t" d="m538.92,162.49c-37.03,13.66-60.77,31.81-75.77,46.2-22.97,22.01-26.17,35.86-44.96,55.12-3.5,3.58-7.54,7.34-12.33,11.39-27.66,23.32-36.49,18.44-62.83,41.59-1.28,1.12-2.52,2.25-3.73,3.36-2.68,2.49-5.2,4.97-7.58,7.42-3.13,3.23-6.01,6.45-8.64,9.57-.54.64-1.07,1.28-1.59,1.91-18.42,22.45-24.61,40.56-26.5,39.63-.28-.14-.47-.71-.57-1.67-.59-5.89,2.54-26.51,12.21-52.76.31-.85.62-1.69.96-2.55,4.21-11.13,9.59-23.19,16.34-35.52,3.25-5.94,6.82-11.95,10.73-17.94,14.23-21.85,32.98-43.53,57.35-61.42,56.93-41.81,119.65-44.75,146.92-44.35Z"/>
      <path class="n" d="m418.19,263.81c-3.5,3.58-7.54,7.34-12.33,11.39-27.66,23.32-36.49,18.44-62.83,41.59-1.28,1.12-2.52,2.25-3.73,3.36-2.68,2.49-5.2,4.97-7.58,7.42-3.13,3.23-6.01,6.45-8.64,9.57-.54.64-1.07,1.28-1.59,1.91-18.42,22.45-24.61,40.56-26.5,39.63-.28-.14-.47-.71-.57-1.67,3.36-10.78,9.58-27.83,19.51-45.48.41-.75.85-1.48,1.28-2.23,3.61-6.23,7.68-12.49,12.26-18.55,2.69-3.56,5.55-7.04,8.59-10.41,14.14-15.64,32.22-28.67,55-34.04,7.27-1.71,16.36-2.96,27.13-2.51Z"/>
    </g>
    <path class="g" d="m398.49,94.63c-8.87-11.86-16.5-14.35-21.51-14.67-20.4-1.3-33.69,30.96-68.67,74.97-5.46,6.87-10.76,13.16-15.77,18.85-10.6,12.05-30.51,6.23-32.78-9.66-2.25-15.72-2.97-29.05-3.1-39.56-.32-24.84,2.52-44.17-9.01-52.78-8.49-6.34-20.96-4.02-29.66-1.33,1.4-1.94,11.51-15.47,29.37-16.56,12.55-.77,21.66,5.06,24.56,7.09-.53-2.99-2.25-10.14-8.37-16.23-10.02-9.97-23.47-8.79-25.43-8.59,10.65-10.17,25.77-13.95,39.5-9.77,18.09,5.5,24.79,22.09,25.58,24.15,3.73-5,8.06-11.84,11.61-20.55,4.84-11.88,6.33-22.56,6.76-29.99,4.77,7.98,11.36,21.45,13.65,39.27,1.41,10.97.78,20.48-.28,27.65.74-1.16,12.44-18.99,29.64-18.52,17.6.48,35.37,19.96,33.92,46.23Z"/>
    <path class="p" d="m398.25,113.86c-8.68-12-16.27-14.59-21.29-14.99-15.13-1.21-26.62,16.17-46.13,42.99-.19.26-.37.51-.56.78-6.63,9.09-14.18,19.27-23.11,30.15-5.57,6.78-10.97,13-16.06,18.6-10.79,11.9-30.6,5.76-32.63-10.15-2-15.76-2.52-29.09-2.5-39.6.01-2.06.03-4.07.07-6.04.07-3.58.17-7.01.25-10.3.08-3.22.14-6.31.12-9.22-.08-12.39-1.56-21.9-8.63-27.36-7.86-6.05-19.29-4.58-27.89-2.29-.59.16-1.18.33-1.75.49,1.43-1.91,11.75-15.28,29.62-16.1,3.55-.17,6.79.2,9.72.85h.01c7.43,1.62,12.66,5.13,14.72,6.62-.49-2.99-2.09-10.17-8.13-16.36-9.85-10.12-23.32-9.16-25.29-8.99,1.4-1.29,2.86-2.48,4.4-3.55h.01c7.79-5.47,17.12-8.06,26.35-7.35h.02c2.98.23,5.96.8,8.86,1.73,18.01,5.78,24.45,22.46,25.22,24.55,3.8-4.95,8.23-11.72,11.92-20.37,5.03-11.81,6.68-22.45,7.22-29.88,4.64,8.06,11.03,21.61,13.05,39.47,1.24,11,.46,20.49-.72,27.64.76-1.14,12.73-18.79,29.92-18.05,1.23.05,2.47.2,3.69.43,16.25,3.11,31.24,21.9,29.52,46.3Z"/>
    <path class="t" d="m203.89,329.58c-11.27,3.66-26.18,10.64-34.65,24.95-13.67,23.1,1.87,42.11-9.24,67.91-5.28,12.26-17.96,27.33-51.28,37.88,7.14-2.94,17.71-8.42,27.72-18.48,12.53-12.6,24.13-31.09,21.88-49.62-2.09-17.2-.56-36.68,12.31-49.7,11.92-12.06,28.08-12.89,33.26-12.94Z"/>
    <path class="q" d="m233.24,332.49c-1.04,3.08-2.09,6.17-3.12,9.25-11.96,4.24-24.52,11.39-32.58,23.82-7.28,11.25-5.61,18.7-8.13,31.97-5.21-30.34-15.27-49.45-27.6-51.35-6.54-1.01-13.33,2.9-19.62,8.84,5.66-14.5,11.07-23.47,19.32-28.97,4.94-3.28,23.23-13.69,63.69,2.9,2.59,1.06,5.28,2.24,8.05,3.53Z"/>
    <path class="l" d="m310.97,449.55c-3.9,76.18-20.36,96.62-26.36,103.4-16.25,18.33-36.83,27.94-54.51,33.26,2.62-10.35,6.41-27.52,8.31-48.98,2.36-26.64,1.02-51.01-2.07-73.28-10.4-75.49-40.64-126.73-13.64-159.56,4.95-6.01,16.69-17.36,34.18-21.26.94-.21,1.87-.39,2.8-.54.5-.09,1.02-.17,1.52-.23,19.72-2.82,36.29,5.41,42.8,9.1,4.51,36.32,6.58,68.69,7.39,96.1.72,23.97.47,44.47-.43,61.99Z"/>
    <path class="d" d="m265.34,511.15c7.05-30.37,10.66-45.89,9.7-64.45-1.9-36.91-19.74-45.46-27.03-78.3-4.27-19.28-5.03-47.53,11.68-85.8.5-.09,1.02-.17,1.52-.23-2.83,11.29-5.48,26.25-5.57,43.76-.22,42.47,14.8,69.41,21.48,91.47,9.09,30,10.45,76.35-27.03,146.22,4.34-12.44,10.09-30.47,15.25-52.67Z"/>
    <path class="q" d="m310.97,449.55c-3.9,76.18-20.36,96.62-26.36,103.4-16.25,18.33-36.83,27.94-54.51,33.26,2.62-10.35,6.41-27.52,8.31-48.98,2.36-26.64,1.02-51.01-2.07-73.28,6.53,3.18,14.03,5.49,22.53,6.07,19.11,1.32,38.02-6.43,52.1-20.48Z"/>
    <path class="e" d="m256.3,125.29c.08-3.22.14-6.31.12-9.22-.08-12.39-1.56-21.9-8.63-27.36-7.86-6.05-19.29-4.58-27.89-2.29,8.62-4.03,23.41-8.57,40.36-3.54,29.32,8.69,37.86,37.93,38.35,39.73-14.18,4.32-28.37,8.64-42.55,12.97.07-3.58.17-7.01.25-10.3Z"/>
    <path class="r" d="m351.43,128.08s-9.15-2.15-21.86,15.55c-3.8,5.27-7.91,12.31-12.19,21.7-.34.74-.67,1.49-1.02,2.26-.76,1.71-1.53,3.33-2.33,4.88-1.82,3.53-3.76,6.62-5.75,9.33-19.21,26.11-44.78,16.94-44.78,16.94,0,0-21.2-15.38-12.34-45.83.51-1.76,1.13-3.58,1.85-5.44,12.76-32.8-20.07-20.13-22.5-19.16-.09.04-.14.06-.14.06,0,0,17.71-23.12,34.84-7.81,0,0,5.37-17.56-8.12-23.64,0,0,24.52-2.44,32.39,18.76,0,0,8.46-20.65,25.23-22.64,16.75-1.97,20.81,4.73,20.81,4.73,0,0-17.52,4.53-18.19,25.03,0,0,25.28-11.81,34.1,5.27Z"/>
    <path class="e" d="m308.28,181.79c-19.21,26.11-44.78,16.94-44.78,16.94,0,0-21.2-15.38-12.34-45.83.51-1.76,1.13-3.58,1.85-5.44,12.76-32.8-20.07-20.13-22.5-19.16,5.31-3.37,11.54-6.77,18.8-6,9.07.95,12.8,5.78,13.86,12.63,3.54,22.95,5.06,30.93,12.01,40.35,3.78,5.12,13.51,12.94,33.09,6.51Z"/>
    <path class="o" d="m329.57,143.63c-3.8,5.27-7.91,12.31-12.19,21.7-.34.74-.67,1.49-1.02,2.26-.76,1.71-1.53,3.33-2.33,4.88-18.91-2.23-30.42-14.85-29.61-24.9.69-8.5,10.37-17,21.26-17.86,9.86-.79,19.36,4.81,23.89,13.93Z"/>
  </g>
</svg>