<?xml version="1.0" encoding="UTF-8"?>
<svg id="a" data-name="Lager 1" xmlns="http://www.w3.org/2000/svg" viewBox="0 0 504.46 536.76">
  <defs>
    <style>
      .c {
        fill: #e3daa6;
      }

      .d, .e {
        fill: #134c2f;
      }

      .f {
        opacity: .56;
      }

      .f, .g {
        fill: #d7e294;
      }

      .h {
        fill: #ad825e;
      }

      .i {
        fill: #c74430;
      }

      .j, .k, .l {
        fill: #94b354;
      }

      .m {
        fill: #efa438;
      }

      .k {
        opacity: .28;
      }

      .n {
        fill: #fbc589;
      }

      .o {
        fill: #036137;
      }

      .p {
        fill: #d8c694;
      }

      .q {
        fill: #f1d0a3;
      }

      .r {
        fill: #5e8e30;
      }

      .s {
        fill: #e8553b;
      }

      .t {
        fill: #f4efb8;
      }

      .u {
        fill: #b5d273;
      }

      .v, .w {
        fill: #c5af81;
      }

      .x, .y {
        fill: #d1a072;
      }

      .y {
        opacity: .3;
      }

      .z {
        fill: #587d2d;
      }

      .w {
        opacity: .58;
      }

      .aa {
        fill: #f7b59d;
      }

      .aa, .ab {
        opacity: .31;
      }

      .ab {
        fill: #f5d657;
      }

      .ac {
        fill: #32491f;
      }

      .ad {
        fill: #6d4012;
      }

      .ae {
        fill: #db7e0c;
      }

      .e {
        opacity: .44;
      }

      .af {
        fill: #fac8ac;
      }

      .ag {
        fill: #699933;
      }

      .ah {
        fill: #406127;
      }

      .ai {
        fill: #53782c;
      }

      .aj {
        fill: #89674b;
      }

      .l {
        opacity: .45;
      }
    </style>
  </defs>
  <g>
    <path class="z" d="m488.12,340.15c.42-3.76,1.61-7.21,1.61-7.21l.04-.14c.27-.41,3.54.04,7.53,1.24,4,1.21,7.11,2.62,6.96,3.14-.16.53-3.53-.04-7.53-1.24-2.04-.62-3.85-1.29-5.11-1.86.92,1.04,2.11,2.6,3.31,4.41,2.31,3.48,3.82,6.55,3.36,6.86-.45.3-2.7-2.27-5.01-5.76-1.28-1.92-2.31-3.72-2.9-4.99.06,1.4-.04,3.47-.29,5.77-.46,4.15-1.27,7.47-1.82,7.42-.54-.06-.61-3.48-.15-7.63Z"/>
    <path class="z" d="m248.14,278.97c3.21,1.15,6,2.93,6,2.93l.11.06c.3.32-.77,3.1-2.67,6.36-1.9,3.27-3.79,5.7-4.22,5.45-.43-.25.77-3.1,2.67-6.36.97-1.66,1.94-3.11,2.71-4.1-1.11.59-2.73,1.31-4.56,1.98-3.54,1.3-6.56,1.99-6.73,1.52-.17-.46,2.56-1.9,6.11-3.2,1.96-.72,3.75-1.25,4.99-1.5-1.25-.24-3.04-.76-5.01-1.46-3.55-1.27-6.3-2.68-6.14-3.15.17-.46,3.19.19,6.74,1.46Z"/>
    <path class="ah" d="m407.29,188.47c-3.6-1.05-6.41-2.46-6.53-3.26-.07-.03-.11-.06-.15-.12-.47-.65,1.76-3.07,4.98-5.39,3.23-2.33,6.22-3.69,6.69-3.04.47.65-1.76,3.07-4.99,5.4-1.58,1.14-3.1,2.05-4.3,2.6,1.33.1,3.15.44,5.11,1.01,3.82,1.11,6.74,2.63,6.51,3.4-.22.78-3.5.51-7.32-.6Z"/>
    <path class="z" d="m358.83,7.33c-1.07,3.6-2.5,6.4-3.3,6.51-.03.07-.06.11-.12.15-.65.47-3.06-1.77-5.37-5.01-2.32-3.24-3.66-6.24-3.01-6.71.65-.47,3.06,1.77,5.37,5.02,1.13,1.59,2.04,3.11,2.58,4.32.1-1.33.46-3.14,1.04-5.1,1.13-3.82,2.66-6.72,3.43-6.49.78.23.49,3.5-.64,7.32Z"/>
    <path class="u" d="m427.82,73.69c-2.11,2-4.76,3.78-7.81,5.15-9.69,4.35-19.78,2.89-22.54-3.27-2.47-5.49,1.71-12.83,9.49-17.44.96-.57,1.98-1.11,3.05-1.58,9.69-4.35,19.78-2.88,22.54,3.28,1.89,4.22-.14,9.54-4.72,13.86Z"/>
    <path class="j" d="m385.21,56.6c-8.8-2.59-18.34,6.74-21.16,9.48-21.41,20.92-18.35,66.22,0,75.14,8.82,4.28,20.53-.14,27.36-5.84,23.57-19.67,11.73-73.51-6.2-78.79Z"/>
    <path class="u" d="m384.13,46.09c-1.18,8.63-5.07,15.92-10.59,17.82-10.95,3.75-30.02-13.12-31.36-31.37-.63-8.42,2.29-20.5,10.03-24.67.64-.35,1.3-.64,2-.87,10.28-3.36,22.27,7.87,26.99,17.88,3.08,6.54,3.87,14.3,2.93,21.21Z"/>
    <path class="f" d="m384.13,46.09c-15.68-3.81-27.46-12.52-30.99-24.17-1.22-4.05-1.74-9.38-.93-14.05.64-.35,1.3-.64,2-.87,10.28-3.36,22.27,7.87,26.99,17.88,3.08,6.54,3.87,14.3,2.93,21.21Z"/>
    <path class="g" d="m427.82,73.69c-5.37-.8-11.48-2.95-16.09-8.13-.65-.74-3.29-3.7-4.77-7.43.96-.57,1.98-1.11,3.05-1.58,9.69-4.35,19.78-2.88,22.54,3.28,1.89,4.22-.14,9.54-4.72,13.86Z"/>
    <ellipse class="j" cx="317.83" cy="247.32" rx="20.06" ry="29.54"/>
    <path class="j" d="m470.12,324.72c.68,6.92,9.07,12.09,16.53,12.28,7.68.19,17.25-4.84,17.79-12.95.51-7.71-7.41-14.15-14.74-15.03-9.8-1.18-20.39,7.37-19.57,15.71Z"/>
    <path class="p" d="m456.74,411.97c-.35,1.54-.7,3.08-1.05,4.61-.83,3.63-1.65,7.26-2.48,10.9-3.44,15.12-6.89,30.23-10.32,45.34-1.43,6.27-2.86,12.54-4.29,18.81-1.66,7.32-5.36,13.8-10.46,18.86-5.64,5.62-13,9.47-21.21,10.77-6.11.97-12.88,1.54-20.23,1.41-1.05-.02-2.11-.05-3.17-.1-2.3-.1-4.54-.28-6.71-.51-5.13-.52-9.91-1.38-14.31-2.41-14.44-3.37-25.67-14.71-28.92-29.17-1.54-6.83-3.08-13.66-4.62-20.5-3.64-16.15-7.27-32.31-10.91-48.45-.52-2.3-1.03-4.6-1.55-6.9-.13-.58-.26-1.15-.39-1.73,9.69-.06,19.37-.13,29.05-.19.8,0,1.6,0,2.39-.02,6.54-.04,13.08-.09,19.62-.13.62,0,1.24,0,1.87-.02,10.82-.07,21.66-.14,32.49-.21,18.4-.12,36.79-.25,55.2-.37Z"/>
    <path class="aj" d="m473.37,365.82c0-6.09-37.24-13.21-84.7-13.21s-86,6.97-86,13.06,38.54,8.99,86,8.99,84.7-2.75,84.7-8.84Z"/>
    <path class="ai" d="m471.44,341.75c-2.46,4.16-5.17,8.07-7.99,11.52-5.03,6.14-10.53,10.97-15.88,14.74-8.39,5.93-16.42,9.28-21.69,11.16-7.78-2.55-15.56-5.11-23.34-7.66.92-18.95,4.86-36.1,11.33-50,7.65-16.47,18.87-28.35,32.81-33.17.52-.18,1.06-.36,1.62-.52.96-.29,1.99-.57,3.07-.84,4.84-1.16,10.67-1.86,16-1.11,4.25.59,8.18,2.1,11.04,5.02,9.75,9.93,3.76,32.73-6.96,50.85Z"/>
    <path class="ai" d="m373.35,376.62c-10.57-.12-21.15-.25-31.73-.37-4.49-2.16-36.91-18.29-48.56-46.95-2.08-5.11-3.49-10.62-3.97-16.51-.49-6.1-2.08-25.54,11.31-36.47,8.99-7.35,21.94-8.59,32.63-5.33,2.82.87,5.47,2.04,7.86,3.5,6.7,4.11,12.47,11.21,22.25,51.44,5.06,20.78,8.23,38.28,10.21,50.7Z"/>
    <path class="j" d="m279.66,261.86c12.3,8.6,17.93,21.79,12.56,29.47-5.36,7.68-19.69,6.94-31.99-1.66-12.3-8.6-17.93-21.79-12.56-29.47,5.36-7.68,19.69-6.94,31.99,1.66Z"/>
    <path class="ag" d="m426.6,313.88c-1.47,5.58-3.09,11.99-4.82,19.18-3.21,13.43-6.74,29.54-10.13,47.93-12.77-.37-25.53-.72-38.3-1.09-5.05-12.46-48.71-123.34-3.64-166.69,2.65-2.55,20.42-19.65,38.18-16.56.76.13,1.54.29,2.3.51,21.3,5.87,27.5,39.08,28.45,44.13,4.02,21.45-2.11,34.81-12.03,72.58Z"/>
    <path class="l" d="m426.6,313.88c-1.47,5.58-3.09,11.99-4.82,19.18-6.67-1.97-14.23-5.31-21.42-10.96-28.52-22.46-25.31-61.23-24.62-67.84,3.01-28.82,20.67-47.99,32.14-57.61.76.13,1.54.29,2.3.51,21.3,5.87,27.5,39.08,28.45,44.13,4.02,21.45-2.11,34.81-12.03,72.58Z"/>
    <path class="r" d="m399.07,219.65c-9.7,8.69-31.15,2.49-43.04-7.29-3.01-2.47-8.69-6.39-14.95-14.96-10.42-14.24-13.08-21.73-13.86-28.82-1.12-10.11,3.37-21.84,11.68-28.45,2.08-1.65,4.36-2.96,6.78-3.94,18.71-7.57,45.89,4.05,54.12,20.72,1.07,2.16,2.81,6.18,4.3,11.33,1.27,4.42,2.35,9.68,2.64,15.3,1.22,23.72-2.18,31.2-7.66,36.11Z"/>
    <path class="k" d="m330.52,294.75c-5.76,16.1-19.68,28.48-37.45,34.56-2.08-5.11-3.49-10.62-3.97-16.51-.49-6.1-2.08-25.54,11.31-36.47,8.99-7.35,21.94-8.59,32.63-5.33.76,6.42.68,14.83-2.51,23.76Z"/>
    <path class="k" d="m471.44,341.75c-15.87-7.81-26.14-21.95-26.76-36.78-.27-6.58,1.39-12.4,3.6-17.14.96-.29,1.99-.57,3.07-.84,4.84-1.16,10.67-1.86,16-1.11,4.25.59,8.18,2.1,11.04,5.02,9.75,9.93,3.76,32.73-6.96,50.85Z"/>
    <path class="k" d="m404.09,168.24c-15.08,4.66-31.14,1.96-42.57-7.53-7.91-6.57-13.76-16.52-15.85-24.51,18.71-7.57,45.89,4.05,54.12,20.72,1.07,2.16,2.81,6.18,4.3,11.33Z"/>
    <path class="u" d="m264.46,248.9c-.86,6.48-5.3,13.08-11.79,13.93-8.06,1.05-14.86-7.37-16.15-14.94-.85-4.96.44-10.78,3.41-14.66,1.44-1.87,3.26-3.28,5.42-3.94,8.03-2.42,18.46,6.32,19.21,16.15.09,1.12.05,2.28-.1,3.44Z"/>
    <path class="g" d="m264.46,248.9c-6.63.02-14.28-1.51-19.54-7.29-2.04-2.23-3.87-5.29-4.99-8.38,1.44-1.87,3.26-3.28,5.42-3.94,8.03-2.42,18.46,6.32,19.21,16.15.09,1.12.05,2.28-.1,3.44Z"/>
    <path class="j" d="m497.22,212.76c-10.43-16.88-38.51-15.67-55.18-5.42-10.4,6.4-22.79,20.27-20.09,34.2,3.72,19.25,35.18,33.25,57.13,21.76,17.73-9.28,28.01-34.55,18.13-50.54Z"/>
    <path class="u" d="m480.82,190.9c-1.6,16.52-15.15,32.15-25.14,30.76-11.24-1.57-19.81-24.92-14.24-42.57.56-1.76,1.34-3.76,2.35-5.81,3.44-7.01,9.39-14.53,17.02-14.54,10.55,0,18.87,14.4,20.02,25.94.21,2.07.19,4.15,0,6.22Z"/>
    <path class="ah" d="m396.32,85.12c-2.96,2.31-5.75,3.75-6.47,3.38-.06.04-.12.06-.18.06-.8,0-1.46-3.22-1.46-7.2s.65-7.21,1.46-7.21,1.46,3.22,1.46,7.21c0,1.95-.15,3.71-.41,5.01.86-1.03,2.2-2.29,3.81-3.55,3.13-2.45,6.08-3.92,6.57-3.28.5.64-1.64,3.13-4.77,5.58Z"/>
    <path class="ah" d="m404.05,120.51c-3.73-.44-6.73-1.37-6.98-2.13-.07-.02-.12-.04-.17-.09-.57-.56,1.23-3.32,4.02-6.15,2.8-2.84,5.52-4.67,6.1-4.11.57.56-1.23,3.32-4.02,6.15-1.37,1.39-2.72,2.54-3.81,3.28,1.33-.13,3.18-.08,5.2.15,3.95.46,7.08,1.48,6.98,2.28-.09.8-3.37,1.08-7.32.62Z"/>
    <path class="ah" d="m396.87,150.94c-3.16,2.03-6.07,3.22-6.75,2.78-.07.03-.12.04-.19.04-.8-.07-1.16-3.34-.8-7.3.36-3.97,1.3-7.12,2.1-7.04.8.07,1.16,3.34.8,7.31-.18,1.94-.49,3.69-.87,4.95.95-.94,2.4-2.08,4.11-3.19,3.34-2.16,6.41-3.36,6.84-2.68.44.68-1.92,2.97-5.26,5.13Z"/>
    <path class="ah" d="m353.26,92.95c2.31,2.96,3.75,5.75,3.38,6.47.04.06.06.12.06.18,0,.8-3.22,1.46-7.2,1.46s-7.21-.65-7.21-1.46,3.22-1.46,7.21-1.46c1.95,0,3.71.15,5.01.41-1.03-.86-2.29-2.2-3.55-3.81-2.45-3.13-3.92-6.08-3.28-6.57.64-.5,3.13,1.64,5.58,4.77Z"/>
    <path class="ah" d="m344.3,29.26c3.57,1.17,6.33,2.67,6.42,3.48.07.03.11.07.15.12.45.67-1.86,3.01-5.16,5.23-3.31,2.23-6.34,3.48-6.79,2.82-.45-.67,1.86-3.01,5.16-5.23,1.62-1.09,3.17-1.95,4.39-2.46-1.33-.14-3.13-.55-5.07-1.18-3.78-1.23-6.65-2.85-6.39-3.62.25-.77,3.51-.39,7.3.84Z"/>
    <path class="z" d="m380.11,26.54c-1.07,3.6-2.5,6.4-3.3,6.51-.03.07-.06.11-.12.15-.65.47-3.06-1.77-5.37-5.01-2.32-3.24-3.66-6.24-3.01-6.71.65-.47,3.06,1.77,5.37,5.02,1.13,1.59,2.04,3.11,2.58,4.32.1-1.33.46-3.14,1.04-5.1,1.13-3.82,2.66-6.72,3.43-6.49.78.23.49,3.5-.64,7.32Z"/>
    <path class="z" d="m443.61,181.98c2.31,2.96,3.75,5.75,3.38,6.47.04.06.06.12.06.18,0,.8-3.22,1.46-7.2,1.46s-7.21-.65-7.21-1.46,3.22-1.46,7.21-1.46c1.95,0,3.71.15,5.01.41-1.03-.86-2.29-2.2-3.55-3.81-2.45-3.13-3.92-6.08-3.28-6.57.64-.5,3.13,1.64,5.58,4.77Z"/>
    <path class="z" d="m336.21,251.36c-3.06,2.17-5.91,3.49-6.61,3.09-.07.04-.12.05-.19.05-.8-.04-1.31-3.28-1.13-7.26.18-3.98.97-7.17,1.78-7.13.8.04,1.31,3.28,1.13,7.26-.09,1.95-.32,3.7-.64,4.99.9-.99,2.3-2.19,3.96-3.37,3.24-2.31,6.25-3.64,6.71-2.99.47.66-1.78,3.06-5.02,5.36Z"/>
    <path class="z" d="m423,56.99c-2.59,2.22-5.52,3.76-5.52,3.76l-.11.06c-.43.11-2.31-2.21-4.2-5.47-1.89-3.27-3.07-6.12-2.64-6.37.43-.25,2.3,2.21,4.19,5.47.96,1.67,1.74,3.23,2.22,4.38.03-1.26.22-3.02.54-4.95.63-3.72,1.53-6.68,2.02-6.6.49.08.38,3.17-.25,6.89-.35,2.06-.78,3.87-1.18,5.08.83-.96,2.17-2.26,3.76-3.63,2.87-2.46,5.46-4.14,5.78-3.76.32.38-1.75,2.67-4.62,5.13Z"/>
    <path class="z" d="m479.03,189.7c-2.7-2.08-4.81-4.63-4.81-4.63l-.09-.1c-.19-.4,1.69-2.72,4.49-5.23,2.81-2.52,5.36-4.26,5.69-3.89.33.37-1.69,2.71-4.5,5.23-1.44,1.28-2.8,2.36-3.84,3.07,1.24-.22,3-.4,4.95-.48,3.77-.15,6.85.13,6.87.62.02.49-3.02,1.02-6.8,1.17-2.08.08-3.95.04-5.21-.11,1.11.61,2.66,1.66,4.32,2.93,2.99,2.3,5.17,4.49,4.87,4.88-.3.39-2.97-1.16-5.96-3.47Z"/>
    <path class="z" d="m262.68,251.1c-2.7-2.08-4.81-4.63-4.81-4.63l-.09-.1c-.19-.4,1.69-2.72,4.49-5.23,2.81-2.52,5.36-4.26,5.69-3.89.33.37-1.69,2.71-4.5,5.23-1.44,1.28-2.8,2.36-3.84,3.07,1.24-.22,3-.4,4.95-.48,3.77-.15,6.85.13,6.87.62.02.49-3.02,1.02-6.8,1.17-2.08.08-3.95.04-5.21-.11,1.11.61,2.66,1.66,4.32,2.93,2.99,2.3,5.17,4.49,4.87,4.88-.3.39-2.97-1.16-5.96-3.47Z"/>
    <path class="z" d="m464.73,217.7c.41-3.39,1.53-6.5,1.53-6.5l.04-.12c.25-.37,3.2.07,6.79,1.2,3.6,1.13,6.4,2.44,6.25,2.91-.15.47-3.19-.07-6.79-1.2-1.84-.58-3.46-1.21-4.6-1.73.82.95,1.88,2.37,2.94,4.01,2.05,3.17,3.38,5.96,2.97,6.23-.41.27-2.42-2.08-4.47-5.25-1.13-1.75-2.04-3.38-2.56-4.54.04,1.27-.07,3.14-.32,5.21-.46,3.75-1.23,6.74-1.72,6.68-.49-.06-.51-3.15-.06-6.9Z"/>
    <path class="ah" d="m368.43,112.18c3.62,1.09,6.8,2.89,6.8,2.89l.13.07c.36.34-.68,3.48-2.58,7.19-1.91,3.72-3.86,6.52-4.35,6.27-.49-.25.67-3.47,2.59-7.18.98-1.89,1.96-3.55,2.75-4.69-1.19.72-2.94,1.6-4.93,2.45-3.84,1.65-7.13,2.57-7.35,2.07-.22-.5,2.72-2.25,6.57-3.89,2.12-.91,4.07-1.6,5.43-1.95-1.39-.2-3.41-.67-5.63-1.33-4-1.2-7.12-2.6-6.97-3.13.16-.52,3.53.03,7.54,1.23Z"/>
    <path class="ac" d="m369.33,189.29c.91-3.67,2.55-6.94,2.55-6.94l.06-.13c.32-.37,3.51.5,7.31,2.22,3.81,1.72,6.71,3.54,6.48,4.04-.23.5-3.5-.5-7.3-2.23-1.94-.88-3.64-1.79-4.82-2.52.78,1.15,1.74,2.86,2.69,4.8,1.83,3.76,2.92,7,2.43,7.24-.49.24-2.38-2.61-4.21-6.37-1.01-2.08-1.8-3.99-2.21-5.33-.13,1.4-.5,3.44-1.05,5.68-1,4.06-2.25,7.24-2.78,7.11-.53-.13-.14-3.53.86-7.59Z"/>
    <path class="ac" d="m357.08,308.58c2.74,2.61,4.76,5.65,4.76,5.65l.08.12c.16.46-2.18,2.79-5.55,5.24-3.39,2.45-6.39,4.07-6.72,3.63-.32-.44,2.17-2.79,5.55-5.24,1.73-1.25,3.36-2.28,4.58-2.94-1.39.1-3.35.1-5.51-.04-4.17-.27-7.53-.93-7.49-1.48.03-.55,3.45-.77,7.62-.5,2.3.15,4.35.42,5.73.72-1.15-.8-2.74-2.14-4.42-3.73-3.03-2.88-5.18-5.54-4.8-5.94.38-.39,3.14,1.62,6.17,4.5Z"/>
    <path class="ac" d="m295.33,337.25c3.4-1.64,6.97-2.46,6.97-2.46l.14-.04c.49,0,1.85,3.02,2.94,7.05,1.1,4.03,1.55,7.42,1.02,7.57-.53.15-1.84-3.01-2.94-7.04-.56-2.06-.95-3.94-1.13-5.32-.39,1.34-1.09,3.17-1.98,5.14-1.72,3.81-3.53,6.71-4.03,6.49-.5-.22.49-3.5,2.23-7.3.95-2.1,1.93-3.93,2.7-5.1-1.16.79-2.97,1.81-5.05,2.81-3.76,1.82-7.01,2.89-7.25,2.39-.23-.49,2.63-2.36,6.39-4.18Z"/>
    <path class="ac" d="m417.96,356.61c-3.53-1.34-6.59-3.35-6.59-3.35l-.12-.07c-.33-.36.92-3.42,3.08-6.99,2.17-3.58,4.31-6.24,4.78-5.95.47.28-.91,3.41-3.08,6.98-1.11,1.82-2.21,3.4-3.07,4.49,1.24-.64,3.05-1.39,5.09-2.1,3.95-1.38,7.3-2.07,7.48-1.55.18.52-2.87,2.05-6.82,3.42-2.18.76-4.17,1.31-5.56,1.56,1.37.29,3.35.9,5.52,1.72,3.91,1.48,6.92,3.09,6.73,3.61-.2.51-3.52-.28-7.43-1.75Z"/>
    <path class="ac" d="m482.93,301.03c-3.53-1.34-6.59-3.36-6.59-3.36l-.12-.07c-.33-.36.92-3.42,3.08-6.99,2.17-3.58,4.31-6.24,4.78-5.95.47.28-.91,3.41-3.08,6.98-1.11,1.82-2.21,3.4-3.07,4.49,1.24-.64,3.05-1.39,5.09-2.1,3.95-1.38,7.3-2.07,7.48-1.55.18.52-2.87,2.05-6.82,3.42-2.18.76-4.17,1.31-5.56,1.56,1.37.29,3.35.9,5.52,1.72,3.91,1.48,6.92,3.09,6.73,3.61-.2.51-3.52-.28-7.43-1.75Z"/>
    <path class="z" d="m424.49,247.45c3.65-.96,7.31-1.09,7.31-1.09h.14c.48.09,1.24,3.31,1.55,7.47.32,4.17.12,7.58-.43,7.62-.55.04-1.24-3.31-1.55-7.47-.16-2.13-.18-4.05-.1-5.44-.64,1.24-1.67,2.9-2.92,4.67-2.41,3.41-4.74,5.92-5.19,5.6-.45-.31,1.15-3.34,3.57-6.75,1.34-1.88,2.64-3.49,3.62-4.5-1.29.56-3.25,1.21-5.49,1.81-4.04,1.07-7.43,1.5-7.57.97-.14-.53,3.03-1.82,7.07-2.89Z"/>
    <path class="z" d="m475.42,259.23c.42-3.76,1.61-7.21,1.61-7.21l.04-.14c.27-.41,3.54.04,7.53,1.24,4,1.21,7.11,2.62,6.96,3.14-.16.53-3.53-.04-7.53-1.24-2.04-.62-3.85-1.29-5.11-1.86.92,1.04,2.11,2.6,3.31,4.41,2.31,3.48,3.82,6.55,3.36,6.86-.45.3-2.7-2.27-5.01-5.76-1.28-1.92-2.31-3.72-2.9-4.99.06,1.4-.04,3.47-.29,5.77-.46,4.15-1.27,7.47-1.82,7.42-.54-.06-.61-3.48-.15-7.63Z"/>
    <path class="ac" d="m366.78,153.37c-2.87,2.46-6.11,4.16-6.11,4.16l-.12.07c-.48.12-2.56-2.45-4.65-6.06-2.1-3.62-3.4-6.78-2.92-7.05.47-.28,2.55,2.44,4.64,6.06,1.06,1.85,1.92,3.57,2.46,4.85.04-1.39.24-3.34.6-5.48.69-4.12,1.69-7.39,2.24-7.3.54.09.42,3.51-.28,7.63-.38,2.28-.86,4.29-1.3,5.62.92-1.06,2.4-2.51,4.16-4.01,3.17-2.72,6.04-4.58,6.4-4.17.35.42-1.94,2.96-5.11,5.67Z"/>
    <path class="ah" d="m338.16,189.15c3.62,1.09,6.8,2.89,6.8,2.89l.13.07c.36.34-.68,3.48-2.58,7.19-1.91,3.72-3.86,6.52-4.35,6.27-.49-.25.67-3.47,2.59-7.18.98-1.89,1.96-3.55,2.75-4.69-1.19.72-2.94,1.6-4.93,2.45-3.84,1.65-7.13,2.57-7.35,2.07-.22-.5,2.72-2.25,6.57-3.89,2.12-.91,4.07-1.6,5.43-1.95-1.39-.2-3.41-.67-5.63-1.33-4-1.2-7.12-2.6-6.97-3.13.16-.52,3.53.03,7.54,1.23Z"/>
    <path class="ah" d="m395.62,222.26c-.81-3.66-.92-6.81-.27-7.29,0-.07,0-.13.03-.19.35-.73,3.53.07,7.12,1.78,3.6,1.71,6.23,3.69,5.88,4.41s-3.53-.07-7.13-1.78c-1.76-.84-3.29-1.73-4.35-2.53.56,1.22,1.12,2.97,1.57,4.96.86,3.88.93,7.17.14,7.34-.79.18-2.12-2.83-2.99-6.71Z"/>
    <path class="ah" d="m409.54,291.58c-3.65.85-6.8.99-7.29.35-.07,0-.13,0-.19-.03-.73-.34.03-3.53,1.7-7.14,1.67-3.62,3.62-6.27,4.35-5.93.73.34-.03,3.53-1.7,7.15-.82,1.77-1.7,3.31-2.48,4.37,1.21-.57,2.96-1.15,4.95-1.62,3.87-.91,7.16-1.01,7.34-.22.19.79-2.8,2.16-6.68,3.06Z"/>
    <path class="ah" d="m453.82,335.32c-3.65.85-6.8.99-7.29.35-.07,0-.13,0-.19-.03-.73-.34.03-3.53,1.7-7.14,1.67-3.62,3.62-6.27,4.35-5.93.73.34-.03,3.53-1.7,7.15-.82,1.77-1.7,3.31-2.48,4.37,1.21-.57,2.96-1.15,4.95-1.62,3.87-.91,7.16-1.01,7.34-.22.19.79-2.8,2.16-6.68,3.06Z"/>
    <path class="ah" d="m323.49,296.65c-1.37,3.49-3.03,6.16-3.84,6.21-.03.07-.07.11-.13.14-.69.41-2.89-2.03-4.92-5.45-2.03-3.43-3.11-6.53-2.42-6.94.69-.41,2.89,2.03,4.93,5.46.99,1.68,1.76,3.27,2.2,4.52.22-1.32.73-3.09,1.47-4.99,1.45-3.71,3.23-6.47,3.98-6.18.76.29.19,3.53-1.26,7.24Z"/>
    <path class="ah" d="m330.44,351.79c-.64-3.7-.61-6.84.06-7.3,0-.08,0-.13.04-.19.38-.71,3.53.23,7.04,2.1,3.52,1.88,6.05,3.97,5.67,4.68-.38.71-3.53-.23-7.04-2.11-1.72-.92-3.21-1.88-4.23-2.72.5,1.24.98,3.02,1.34,5.03.69,3.92.6,7.21-.19,7.34-.8.14-1.99-2.92-2.68-6.84Z"/>
    <path class="ah" d="m378.08,267c.74,3.68.78,6.82.12,7.3,0,.07,0,.13-.03.19-.36.72-3.53-.14-7.09-1.92-3.56-1.79-6.15-3.81-5.79-4.53.36-.72,3.53.14,7.09,1.93,1.74.87,3.25,1.8,4.29,2.61-.53-1.23-1.06-3-1.46-5-.79-3.9-.78-7.19,0-7.35.79-.16,2.07,2.87,2.85,6.77Z"/>
    <path class="ah" d="m379.46,344.88c.74,3.68.78,6.82.12,7.3,0,.07,0,.13-.03.19-.36.72-3.53-.14-7.09-1.92-3.56-1.79-6.15-3.81-5.79-4.53.36-.72,3.53.14,7.09,1.93,1.74.87,3.25,1.8,4.29,2.61-.53-1.23-1.06-3-1.46-5-.79-3.9-.78-7.19,0-7.35.79-.16,2.07,2.87,2.85,6.77Z"/>
    <path class="z" d="m310.57,229.03c-.35,3.76-1.48,7.24-1.48,7.24l-.04.14c-.26.42-3.54.03-7.56-1.11-4.02-1.14-7.16-2.49-7.01-3.02.15-.53,3.53-.03,7.55,1.11,2.05.58,3.87,1.22,5.14,1.77-.94-1.02-2.15-2.57-3.38-4.35-2.38-3.44-3.94-6.48-3.48-6.8.45-.31,2.74,2.23,5.11,5.67,1.31,1.9,2.37,3.68,2.98,4.94-.08-1.4-.02-3.47.19-5.78.38-4.16,1.14-7.5,1.69-7.45.54.05.67,3.47.29,7.63Z"/>
    <path class="v" d="m442.88,472.82c-1.43,6.27-2.86,12.54-4.29,18.81-1.66,7.32-5.36,13.8-10.46,18.86-5.64,5.62-13,9.47-21.21,10.77-6.98,1.11-14.83,1.7-23.4,1.3-2.3-.1-4.54-.28-6.71-.51-5.13-.52-9.91-1.38-14.31-2.41-14.44-3.37-25.67-14.71-28.92-29.17-1.54-6.83-3.08-13.66-4.62-20.5,8.87,7.11,20.27,13.8,34.38,17.47,1.66.43,3.33.82,5,1.15,25.13,5.01,51.79-.93,74.53-15.78Z"/>
    <path class="w" d="m386.7,522.67c-1.05-.02-2.11-.05-3.17-.1-2.3-.1-4.54-.28-6.71-.51-5.13-.52-9.91-1.38-14.31-2.41-14.44-3.37-25.67-14.71-28.92-29.17-1.54-6.83-3.08-13.66-4.62-20.5-3.64-16.15-7.27-32.31-10.91-48.45-.52-2.3-1.03-4.6-1.55-6.9-.13-.58-.26-1.15-.39-1.73,9.69-.06,19.37-.13,29.05-.19-.94,10.94-.76,23.97,2.13,38.27,6.84,33.91,25.39,57.73,39.4,71.69Z"/>
    <path class="t" d="m473.99,386.25c-.35,2.07-.8,4.05-1.35,5.94-1.14,3.93-2.67,7.48-4.4,10.63-3.06,5.62-7.4,10.29-12.56,13.76-5.23,3.53-11.29,5.82-17.73,6.61-16.66,2.04-34.61,3.29-52.92,2.97-6.73-.12-13.2-.29-19.49-.58-6.04-.29-11.91-.69-17.69-1.29-4.56-.47-9.04-1.06-13.5-1.81-6.66-1.11-12.76-3.87-17.86-7.85-7.41-5.77-12.73-14.12-14.6-23.74-.03-.14-.06-.28-.09-.42-.3-1.63-.52-3.22-.68-4.76-.87-8.66.44-15.76,1.53-20.03,14.63,1.89,30.45,3.45,47.32,4.42,9,.52,18.29.88,27.88,1.03,2.62.04,5.27.07,7.94.08,32.46.14,61.86-2.11,87.57-5.38,1.11,4.96,2,12.11.62,20.42Z"/>
    <path class="c" d="m472.64,392.19c-1.14,3.93-2.67,7.48-4.4,10.63-3.06,5.62-7.4,10.29-12.56,13.76-5.23,3.53-11.29,5.82-17.73,6.61-16.66,2.04-34.61,3.29-52.92,2.97-6.73-.12-13.2-.29-19.49-.58-6.04-.29-11.91-.69-17.69-1.29-4.56-.47-9.04-1.06-13.5-1.81-6.66-1.11-12.76-3.87-17.86-7.85-7.41-5.77-12.73-14.12-14.6-23.74-.03-.14-.06-.28-.09-.42-.3-1.63-.52-3.22-.68-4.76,7.5,5.86,14.82,10.28,21.55,13.66,14.62,7.34,29.67,11.35,44.54,13,.61.07,1.22.14,1.83.19,11.03,1.08,21.94.88,32.49-.21,27.94-2.9,53.24-12.04,71.1-20.15Z"/>
  </g>
  <g id="b" data-name="Flower15">
    <ellipse class="c" cx="138.35" cy="502.51" rx="93.17" ry="34.25"/>
    <ellipse class="x" cx="138.35" cy="498.33" rx="70.53" ry="25.92"/>
    <ellipse class="h" cx="139.64" cy="496.83" rx="59.09" ry="21.72"/>
    <path class="af" d="m146.91,183.32c0,1.79-1.45,3.24-3.24,3.24s-3.24-1.45-3.24-3.24,1.45-3.24,3.24-3.24,3.24,1.45,3.24,3.24Z"/>
    <path class="n" d="m115.25,180.26c-.18,1.7-1.71,2.94-3.42,2.75-1.7-.18-2.94-1.71-2.75-3.42s1.71-2.94,3.42-2.75c1.7.18,2.94,1.71,2.75,3.42Z"/>
    <path class="n" d="m135.58,206.96c0,2.05-1.66,3.72-3.72,3.72s-3.72-1.66-3.72-3.72,1.66-3.72,3.72-3.72,3.72,1.66,3.72,3.72Z"/>
    <path class="q" d="m186.39,503.72c-29.99,9.28-62.98,9.82-94.67,0-30.28-23.09-46.45-59.53-39.28-98.2.13,0,160.4-3.35,168.71-3.53,7.19,36.9-4.61,75.63-34.76,101.72Z"/>
    <path class="x" d="m52.43,405.53c-2.53,13.65-2.14,27.02.74,39.63,47.82,27.16,115.07,22.33,167.26,2.24,3.41-14.77,3.67-30.24.72-45.39-8.31.17-168.58,3.52-168.71,3.53Z"/>
    <path class="c" d="m221.97,439.48c-.56,3.66-1.32,7.52-2.57,12.03-52.86,27.88-113.92,26.64-165.2-2.22-.87-3.04-1.69-6.94-2.2-10.07,53.15,29.68,116.41,29.91,169.97.27Z"/>
    <path class="y" d="m91.71,503.72c30.28,9.38,61.73,9.28,90.62,1.17-46.13-16.76-84.23-53.41-98.98-100.02-18.29.38-30.89.65-30.92.65-7.17,38.67,9,75.11,39.28,98.2Z"/>
    <ellipse class="c" cx="136.95" cy="396.96" rx="88.64" ry="34.5"/>
    <ellipse class="ad" cx="136.95" cy="396.06" rx="82.89" ry="25.55"/>
    <path class="o" d="m148.39,391.67c-1.65,3.57-3.83,6.54-6.57,8.87-.24.21-.48.41-.74.59-4.23,3.29-9.5,5.04-15.22,5.64-2.35.25-4.78.31-7.24.2-3.51-.15-7.08-.64-10.59-1.38-7.62-1.61-14.92-4.41-20.61-7.57-.18-.1-.35-.2-.52-.3-4.59-2.59-8.61-5.69-12.15-9.17-23.72-23.29-25.35-63.5-26.11-82.69-.78-19.2,1.97-35.55,5.03-47.61.67-2.65,1.35-5.07,2.02-7.29,1.35.16,2.69.34,4.04.51,2.99.37,5.96.75,8.95,1.12,1.3.15,2.58.32,3.88.48,2.78.34,5.57.69,8.35,1.04l8.24,1.02c2.22.29,4.43.56,6.64.83.2.03.38.06.58.08,1.25.15,2.51.32,3.77.47,3.99.49,7.97.99,11.96,1.49,34.27,58.91,47.39,109.66,36.28,133.65Z"/>
    <path class="o" d="m228.4,283.38c-1.57,16.8-4.29,45.83-12.49,72.02-4.32,13.8-10.15,26.82-18.12,36.83-3.13,3.94-6.6,7.41-10.44,10.29-.37.27-.75.55-1.13.82-4.62,3.26-10.19,6.04-15.92,7.67-2.8.79-5.63,1.3-8.41,1.45-5.55.32-10.89-.79-15.32-3.95-2.05-1.46-3.91-3.37-5.5-5.79-1.03-1.57-1.94-3.35-2.71-5.32-11.57-28.99,3.71-99.33,40.59-180.67,8.43-1.05,16.87-2.11,25.31-3.16,7.69-.97,15.39-1.92,23.07-2.89,2.04,16.46,3.95,41.94,1.08,72.7Z"/>
    <path class="d" d="m194.84,219.83c-10.51,24.7-20.99,53.58-29.73,86.35-10.05,37.73-15.58,72.36-18.55,102.33-2.05-1.46-3.91-3.37-5.5-5.79-1.03-1.57-1.94-3.35-2.71-5.32,2.69-26.6,7.57-56.9,16.11-89.71,8.62-33.12,19.2-62.02,29.73-86.34,3.55-.5,7.11-1.02,10.65-1.53Z"/>
    <path class="d" d="m86.91,397.73c-4.59-2.59-8.61-5.69-12.15-9.17-5.39-16.14-10.53-33.53-13.35-52.2-4.71-31.08-2.19-59.87-1.67-84.89,2.99.37,5.96.75,8.95,1.12-1.05,23.8-4.15,50.72-.07,78.89,3.53,24.21,10.97,46.16,18.28,66.24Z"/>
    <path class="d" d="m148.39,391.67c-1.65,3.57-3.83,6.54-6.57,8.87-.24.21-.48.41-.74.59-4.8-26.89-8.46-58.17-20.68-89.51-8.32-21.32-20.29-39.63-31.25-56.48,2.22.29,4.43.56,6.64.83.2.03.38.06.58.08,1.25.15,2.51.32,3.77.47,10.15,16.54,20.87,34.72,28.94,55.76,10.62,27.66,14.69,55.38,19.31,79.38Z"/>
    <path class="d" d="m224.26,229.72c-1.38,25.81-1.23,57.62-7.24,91.03-4.78,26.6-12.08,50.2-19.23,71.48-3.13,3.94-6.6,7.41-10.44,10.29-.37.27-.75.55-1.13.82,8.2-25.21,17-52.92,22.75-85.83,5.79-33.11,6.63-66.31,8.16-92.47,2.37,1.56,4.76,3.12,7.13,4.68Z"/>
    <path class="d" d="m205.01,224.5c-1.38,25.81-4.41,55.89-10.42,89.29-6.65,37.05-15.45,69.74-24.29,97.21-2.8.79-5.63,1.3-8.41,1.45,6.45-30.62,14.28-63.27,21.16-102.62,5.8-33.11,13.31-63.85,14.84-90.01,2.38,1.56,4.75,3.12,7.13,4.68Z"/>
    <path class="d" d="m118.63,406.97c-3.51-.15-7.08-.64-10.59-1.38-4.2-21.17-8.79-43.85-14.86-68.93-7.38-30.56-12.57-59.82-20.61-83.58,2.78.34,5.57.69,8.35,1.04,8.5,23.27,17.08,50.55,24.43,81.56,6.04,25.47,10.29,49.42,13.28,71.29Z"/>
    <path class="e" d="m215.91,355.39c-4.32,13.8-10.15,26.82-18.12,36.83-3.13,3.94-6.6,7.41-10.44,10.29-.37.27-.75.55-1.13.82-4.62,3.26-10.19,6.04-15.92,7.67-2.8.79-5.63,1.3-8.41,1.45-5.55.32-10.89-.79-15.32-3.95-2.05-1.46-3.91-3.37-5.5-5.79-1.03-1.57-1.94-3.35-2.71-5.32-11.57-28.99,3.71-99.33,40.59-180.67,8.43-1.05,16.87-2.11,25.31-3.16-38.53,22.24-51.86,71.42-31.46,107.35,9.43,16.62,25.08,28.64,43.12,34.48Z"/>
    <path class="s" d="m259.61,214.09c-3.67,10.79-11.67,19.38-19.25,18.58-2.42-.26-8.83-.27-12.26-4.19-1.97,1.54-16.23,8.7-33.71,4.46-9.21-2.23-21.21-8.46-23.97-11.3-18.3-1.3-26.17-13.38-27.49-27.93-.33-3.66.4-7.75,2.03-11.76,4.99-12.35,18.44-23.89,35.31-19.45,5.11-2.24,18.53-5.58,37.88.26,9.99,3.02,17.07,8.21,21.24,11.87,1.14.37,18.28,6.18,21.59,21.24,1.31,5.96.6,12.41-1.36,18.22Z"/>
    <path class="aa" d="m259.61,214.09c-1.23-.24-2.51-.59-3.84-1.08-6.82-2.48-10.71-7.08-12.21-9.07-.53.42-5.4,4.1-11.72,2.39-6.14-1.66-8.53-7.02-8.81-7.68-3.65,1.83-15.74,7.36-31.23,4.28-14.45-2.88-23.19-11.52-26.06-14.61-2.84.33-7.15.42-11.83-1.22-3.26-1.14-6.34-3-8.95-5.17,4.99-12.35,18.44-23.89,35.31-19.45,5.11-2.24,18.53-5.58,37.88.26,9.99,3.02,17.07,8.21,21.24,11.87,1.14.37,18.28,6.18,21.59,21.24,1.31,5.96.6,12.41-1.36,18.22Z"/>
    <path class="e" d="m125.87,406.78c-13.01,1.38-28.3-3.14-38.44-8.75-35.87-19.83-37.89-70-38.78-92.16-.78-19.2,1.97-35.55,5.03-47.61,14.03-.76,28.08-1.52,42.11-2.28.23-.01.46-.02.69-.03-.03.03-.07.08-.11.11-8.41,8.83-22.86,26.86-25.74,52.27-4.15,36.67,17.39,74.95,55.23,98.45Z"/>
    <path class="m" d="m131.74,227.95c-2.1,14.23-10.73,24.84-15.86,30.07-.88.89-1.65,1.61-2.26,2.19-.42.38-.83.76-1.26,1.12-2.36,2.04-4.81,3.81-7.3,5.32-6.17,3.78-12.66,6.05-18.87,7.36-.02,0-.03.01-.05.01-1.26.26-2.51.48-3.76.67-1.11.18-2.21.32-3.29.43-5.44.57-10.47.48-14.68.14-4-.33-7.27-.88-9.44-1.32-1.42-.3-2.37-.54-2.78-.64-4.78.45-12.2.49-19.95-2.45-1.63-.6-3.26-1.35-4.9-2.25-15.79-8.72-25.57-28.98-24.19-44.89.43-4.99,1.94-9.54,4.72-13.19,1.16-1.53,3.13-3.66,6.45-5.61,2.56-1.49,5.92-2.88,10.34-3.79.09-.15.21-.35.36-.59.75-1.2,2.25-3.46,4.56-6.14,4.55-5.32,12.17-12.26,23.06-15.71,1.53-.49,3.12-.91,4.78-1.24.92-.19,1.87-.35,2.83-.48,14.01-1.93,24.98,3.13,29.2,5.37,3.77-1.82,8.9-3.48,14.59-2.76.18.02.34.04.52.07,10.88,1.65,19.06,11.41,23.6,22.47,2.2,5.34,3.54,10.97,3.93,16.14.26,3.39.11,6.64-.34,9.72Z"/>
    <path class="ab" d="m128.15,202.09c-2.17,2.86-4.93,5.11-8.15,6.51-4.71,2.05-9.18,1.76-11.75,1.35-6.93,5.38-18.77,13.2-35.26,17.79-20.81,5.8-38.47,3.54-47.67,1.68-2.34.3-5.77.46-9.74-.34-4.73-.94-9.13-3.04-12.44-5.38.43-4.99,1.94-9.54,4.72-13.19,1.16-1.53,3.13-3.66,6.45-5.61,2.56-1.49,5.92-2.88,10.34-3.79.09-.15.21-.35.36-.59.75-1.2,2.25-3.46,4.56-6.14,4.55-5.32,12.17-12.26,23.06-15.71,1.53-.49,3.12-.91,4.78-1.24.92-.19,1.87-.35,2.83-.48,14.01-1.93,24.98,3.13,29.2,5.37,3.77-1.82,8.9-3.48,14.59-2.76.18.02.34.04.52.07,10.88,1.65,19.06,11.41,23.6,22.47Z"/>
    <path class="ae" d="m32.22,270.85c-2.29,0-4.01-.57-5.65-1.47-20.74-11.45-29.49-43.29-19.03-59.39,1.15-1.77,2.79-5.09,6.75-5.09-3.17,3.71-5.49,9.36-6.95,15.03-2.65,10.33.42,26.24,24.87,50.91Z"/>
    <path class="ae" d="m131.74,227.95c-1.18-10.84-4.96-25.52-16.11-38.15-3.8-4.3-7.81-7.65-11.6-10.25.16-.33.61-.34.79-.3,15.72,3.67,25.17,20.38,28.12,36.02.65,3.44,1.32,10.01-1.2,12.67Z"/>
    <path class="i" d="m180.26,162.5c.01-.44-.46-1.87-1.51-2.41,0,0-1.01-.55-2.52-.17-3.45.87-12.27,13.92-13.09,31.39-.29,6.03.11,18.43,8.23,33.07.16.19.44.46.86.65.96.43,2.21-.12,2.46-.35-.69-2.07-1.68-5.28-3.02-8.9-3-8.14-4.34-15.74-4.31-20.82.03-4.88.71-24.23,12.9-32.47Z"/>
    <path class="i" d="m233.06,169.8c.06-.44,1.97-1.89,3.1-2.24,0,0,2.36-.63,4.34,1.01,2.74,2.26,8.44,12.39,6.14,29.9-.79,6.05-4.47,17.97-15.07,31.1-.2.16-.57.79-1.78.68-1.4-.36-1.68-1.34-1.68-1.78,1.04-1.94,2.48-4.32,4.44-7.68,4.41-7.56,7.08-14.88,7.95-19.93.84-4.86,3.09-20.73-7.44-31.06Z"/>
    <path class="i" d="m211.83,161.12c.07-.51.91-1.68,2.2-2.09,0,0,1.25-.43,2.89.32,3.72,1.7,11.03,18.52,8.36,38.82-.92,7.01-3.93,21.2-16.15,36.43-.23.19-.6.44-1.11.57-1.17.3-2.48-.6-2.72-.91,1.21-2.24,3-5.73,5.26-9.63,5.08-8.77,8.17-17.26,9.18-23.11.97-5.63,4.2-28.44-7.91-40.4Z"/>
    <path class="i" d="m160.04,164.83c.02-.36-.46-1.49-1.51-1.93,0,0-1.01-.45-2.52-.14-3.45.72-12.27,11.52-13.09,25.99-.28,5,.11,15.26,8.23,27.38.16.16.44.38.86.54.96.36,2.21-.1,2.46-.29-.69-1.71-1.68-4.37-3.02-7.37-3-6.74-4.34-13.04-4.31-17.24.03-4.04.71-20.13,12.9-26.95Z"/>
    <path class="ae" d="m64.4,275.25c-4.73,1.57-10.21.5-12.22-1.95-5.69-3.8-13.19-8.95-18.3-16.85-3.25-5.02-10-15.46-11.75-29.21-1.26-9.95.05-17.54,1.84-25.24.47-2.03,1.32-5.56,5.59-7.62-1.94,5.86-3.63,13.55-3.42,22.45.59,23.35,13.99,39.36,15.96,41.64,7.54,8.75,16,13.86,22.29,16.78Z"/>
    <path class="ae" d="m115.88,258.02c-.52,2.61-2.03,4.37-2.64,4.94-2.75,2.53-4.15,3.36-8.18,3.68,2.7-4.95,4.83-10.63,5.79-16.99,2.73-18.22-1.27-32.15-9.94-48.85-5.35-10.28-6.25-11.67-11.46-18.49-.27-.44.35-1.14,1.13-.52,4.79,3.77,9.83,10.04,16.75,20.84,2.65,4.14,15.73,31.04,8.56,55.39Z"/>
    <path class="ae" d="m86.13,274.01c-2.04,1.44-3.99,1.85-7.05,1.1-1.68-14.75-4.59-31.29-9.44-49.04-4.96-18.1-10.98-33.96-17.01-47.4,1.07-1.16,2.57-1.69,4.78-1.24,6.18,13.32,12.33,28.78,17.6,46.29,5.45,18.13,8.93,35.1,11.12,50.3Z"/>
    <path class="n" d="m28.64,193.75c1.73,1.14,2.2,3.46,1.06,5.19-1.14,1.73-3.46,2.2-5.19,1.06-1.73-1.14-2.2-3.46-1.06-5.19,1.14-1.73,3.46-2.2,5.19-1.06Z"/>
    <path class="n" d="m71.45,219.5c1.73,1.14,2.2,3.46,1.06,5.19-1.14,1.73-3.46,2.2-5.19,1.06-1.73-1.14-2.2-3.46-1.06-5.19,1.14-1.73,3.46-2.2,5.19-1.06Z"/>
    <path class="n" d="m29.18,221.41c0,2.54-2.06,4.6-4.6,4.6s-4.6-2.06-4.6-4.6,2.06-4.6,4.6-4.6,4.6,2.06,4.6,4.6Z"/>
    <path class="n" d="m43.48,263.08c0,1.71-1.39,3.1-3.1,3.1s-3.1-1.39-3.1-3.1,1.39-3.1,3.1-3.1,3.1,1.39,3.1,3.1Z"/>
    <path class="n" d="m64.38,186.96c-.18,1.7-1.71,2.94-3.42,2.75-1.7-.18-2.94-1.71-2.75-3.42s1.71-2.94,3.42-2.75c1.7.18,2.94,1.71,2.75,3.42Z"/>
    <circle class="n" cx="4.6" cy="234.26" r="4.6"/>
    <path class="n" d="m86.91,257.68c0,2.54-2.06,4.6-4.6,4.6s-4.6-2.06-4.6-4.6,2.06-4.6,4.6-4.6,4.6,2.06,4.6,4.6Z"/>
    <path class="n" d="m110.75,200.3c0,2.54-2.06,4.6-4.6,4.6s-4.6-2.06-4.6-4.6,2.06-4.6,4.6-4.6,4.6,2.06,4.6,4.6Z"/>
    <path class="af" d="m169.21,176.03c0,2.27-1.84,4.12-4.12,4.12s-4.12-1.84-4.12-4.12,1.84-4.12,4.12-4.12,4.12,1.84,4.12,4.12Z"/>
    <path class="af" d="m171.94,203.12c0,2.95-2.39,5.35-5.35,5.35s-5.35-2.39-5.35-5.35,2.39-5.35,5.35-5.35,5.35,2.39,5.35,5.35Z"/>
    <path class="af" d="m226.76,171.91c0,1.94-1.57,3.51-3.51,3.51s-3.51-1.57-3.51-3.51,1.57-3.51,3.51-3.51,3.51,1.57,3.51,3.51Z"/>
    <path class="af" d="m222.22,209.54c0,1.84-1.49,3.32-3.32,3.32s-3.32-1.49-3.32-3.32,1.49-3.32,3.32-3.32,3.32,1.49,3.32,3.32Z"/>
    <circle class="af" cx="246.09" cy="189.73" r="3.32"/>
    <circle class="af" cx="238.29" cy="217.94" r="3.84"/>
    <circle class="n" cx="112.24" cy="239.75" r="3.72"/>
    <path class="n" d="m16.34,259.51c0,1.97-1.6,3.57-3.57,3.57s-3.57-1.6-3.57-3.57,1.6-3.57,3.57-3.57,3.57,1.6,3.57,3.57Z"/>
    <path class="af" d="m154.07,206.35c0,1.79-1.45,3.24-3.24,3.24s-3.24-1.45-3.24-3.24,1.45-3.24,3.24-3.24,3.24,1.45,3.24,3.24Z"/>
  </g>
</svg>