<?xml version="1.0" encoding="UTF-8"?>
<svg id="a" data-name="Lager 1" xmlns="http://www.w3.org/2000/svg" viewBox="0 0 556.15 633.28">
  <defs>
    <style>
      .b {
        fill: #80b927;
      }

      .c {
        fill: #4f9033;
      }

      .d {
        fill: #50ae32;
      }

      .e {
        fill: #023828;
      }

      .f {
        fill: #7faf29;
      }

      .g {
        fill: #b4b4b4;
      }

      .h {
        fill: #183d1e;
      }

      .i {
        fill: #4e4d4d;
      }

      .j {
        fill: #5ba332;
      }

      .k {
        fill: #2c7b33;
      }
    </style>
  </defs>
  <rect class="k" x="246.77" y="347.44" width="3.71" height="146.59" transform="translate(-75.92 55.35) rotate(-11.03)"/>
  <rect class="k" x="259.6" y="379.65" width="3.71" height="110.66" transform="translate(-44.76 30.26) rotate(-6.1)"/>
  <rect class="k" x="200.72" y="417.81" width="140.67" height="3.71" transform="translate(-151.37 686.41) rotate(-89.41)"/>
  <rect class="k" x="207.53" y="432.27" width="120.8" height="3.71" transform="translate(-173.27 690.23) rotate(-88.45)"/>
  <rect class="k" x="229.8" y="425.63" width="126.74" height="3.71" transform="translate(-176.47 646.87) rotate(-80.6)"/>
  <rect class="k" x="211.46" y="399.42" width="180.33" height="3.71" transform="translate(-146.98 626.56) rotate(-79.73)"/>
  <g>
    <ellipse class="d" cx="392.04" cy="428.7" rx="29.66" ry="136.02" transform="translate(-158.51 614.11) rotate(-66.17)"/>
    <path class="h" d="m475.72,457.88c-8.1,2.41-15.25,2.38-15.97-.06-.72-2.44,5.25-6.36,13.35-8.77,8.1-2.41,15.25-2.38,15.97.06.72,2.44-5.25,6.36-13.35,8.77Z"/>
    <path class="e" d="m516.46,483.66s-3.9-1.68-10.74-4.62c-3.42-1.47-7.56-3.26-12.32-5.3-4.76-2.05-10.12-4.37-15.98-6.9-5.85-2.54-12.19-5.29-18.89-8.19-6.7-2.91-13.76-5.99-21.07-9.17-14.61-6.39-30.18-13.2-45.76-20.01-15.56-6.86-31.12-13.72-45.7-20.15-7.29-3.22-14.33-6.35-21-9.33-6.67-2.98-12.98-5.8-18.8-8.4-5.82-2.6-11.15-5.01-15.86-7.16-2.36-1.08-4.56-2.08-6.6-3.01-2.04-.94-3.91-1.8-5.6-2.58-1.69-.78-3.19-1.48-4.5-2.1-.65-.31-1.26-.59-1.81-.85-.55-.27-1.05-.51-1.5-.73-.45-.22-.84-.41-1.18-.58-.34-.17-.62-.33-.85-.45-.45-.24-.69-.37-.69-.37,0,0,.24.12.69.36.23.12.51.27.85.44.34.16.74.35,1.19.57.45.21.95.45,1.51.71.56.26,1.16.53,1.82.84,1.31.61,2.82,1.29,4.52,2.05,1.7.76,3.58,1.6,5.62,2.52,2.05.91,4.26,1.89,6.63,2.95,4.74,2.09,10.08,4.45,15.92,7.03,11.67,5.13,25.29,11.12,39.89,17.53,14.6,6.4,30.17,13.24,45.74,20.07,15.57,6.84,31.13,13.68,45.73,20.09,14.59,6.42,28.2,12.42,39.88,17.56,23.33,10.32,38.88,17.19,38.88,17.19Z"/>
    <ellipse class="h" cx="479.92" cy="473.61" rx="4.05" ry="7.58" transform="translate(-174.98 313.19) rotate(-30.86)"/>
    <path class="h" d="m465.76,469.29c-3.37-7.56-8.42-12.65-11.27-11.38-2.86,1.27-2.44,8.43.93,15.99,3.37,7.56,8.42,12.65,11.27,11.38,2.86-1.27,2.44-8.43-.93-15.99Z"/>
    <path class="h" d="m436.74,458.39c-2.08-1.15-2.93-3.57-1.92-5.4,1.02-1.83,3.52-2.39,5.6-1.24,2.08,1.15,2.93,3.57,1.92,5.4s-3.52,2.39-5.6,1.24Z"/>
    <ellipse class="h" cx="446.51" cy="438.16" rx="18.82" ry="6.3" transform="translate(-115.55 163.49) rotate(-18.42)"/>
    <path class="h" d="m406.68,424.35c-10.71,3.57-20.36,3.55-21.56-.03-1.19-3.58,6.52-9.38,17.23-12.95s20.36-3.55,21.56.03c1.19,3.58-6.52,9.38-17.23,12.95Z"/>
    <path class="h" d="m363.12,405.57c-10.68,3.67-20.33,3.75-21.56.17-1.23-3.57,6.43-9.44,17.11-13.11,10.68-3.67,20.33-3.75,21.56-.17,1.23,3.57-6.43,9.44-17.11,13.11Z"/>
    <path class="h" d="m326.17,391.05c-9.62,3.31-18.32,3.38-19.43.16-1.11-3.22,5.8-8.51,15.42-11.82,9.62-3.31,18.32-3.38,19.43-.16s-5.8,8.51-15.42,11.82Z"/>
    <path class="h" d="m412.61,436.35c-2.11-1.17-2.86-3.86-1.67-6.02,1.19-2.15,3.87-2.95,5.99-1.78,2.11,1.17,2.86,3.86,1.67,6.02-1.19,2.15-3.87,2.95-5.99,1.78Z"/>
    <path class="h" d="m395.96,444.8c-2.57-1.42-3.58-4.5-2.27-6.87,1.31-2.37,4.46-3.14,7.03-1.72,2.57,1.42,3.58,4.5,2.27,6.87s-4.46,3.14-7.03,1.72Z"/>
    <path class="h" d="m420.62,461.09c-3.87-9.23-4.68-17.68-1.82-18.88s8.31,5.31,12.18,14.54,4.68,17.68,1.82,18.88c-2.86,1.2-8.31-5.31-12.18-14.54Z"/>
    <path class="h" d="m374.86,443.37c-4.25-10.14-5.06-19.47-1.81-20.84s9.33,5.76,13.58,15.9c4.25,10.14,5.06,19.47,1.81,20.84-3.25,1.36-9.33-5.76-13.58-15.9Z"/>
    <path class="h" d="m336.51,425.9c-4.25-10.14-5.06-19.47-1.81-20.84,3.25-1.36,9.33,5.76,13.58,15.9,4.25,10.14,5.06,19.47,1.81,20.84-3.25,1.36-9.33-5.76-13.58-15.9Z"/>
    <path class="h" d="m307.06,410.85c-4.03-9.63-5.04-18.39-2.24-19.56,2.8-1.17,8.33,5.69,12.37,15.32,4.03,9.63,5.04,18.39,2.24,19.56s-8.33-5.69-12.37-15.32Z"/>
    <path class="h" d="m278.48,390.4c-1.43-5.49-1.3-10.28.29-10.69,1.59-.42,4.05,3.7,5.48,9.19,1.43,5.49,1.3,10.28-.29,10.69s-4.05-3.7-5.48-9.19Z"/>
    <path class="h" d="m370.43,416.74c-2.49-1.38-3.43-4.45-2.09-6.86,1.33-2.41,4.44-3.25,6.93-1.87,2.49,1.38,3.43,4.45,2.09,6.86-1.33,2.41-4.44,3.25-6.93,1.87Z"/>
    <path class="h" d="m353.45,424.5c-2.11-1.17-2.86-3.86-1.67-6.01,1.19-2.15,3.87-2.95,5.98-1.78,2.11,1.17,2.86,3.86,1.67,6.01-1.19,2.15-3.87,2.95-5.98,1.78Z"/>
    <path class="h" d="m331.77,398.04c-1.7-.94-2.36-2.99-1.49-4.57.88-1.59,2.97-2.11,4.66-1.17,1.7.94,2.36,2.99,1.49,4.57-.88,1.59-2.97,2.11-4.66,1.17Z"/>
    <path class="h" d="m319.1,406.73c-1.62-.9-2.19-2.97-1.27-4.63.92-1.66,2.98-2.28,4.6-1.38,1.62.9,2.19,2.97,1.27,4.63s-2.98,2.28-4.6,1.38Z"/>
    <path class="h" d="m299.07,384.22c-1.02-.56-1.34-1.94-.71-3.07.63-1.13,1.96-1.59,2.98-1.03,1.02.56,1.34,1.94.71,3.07-.63,1.13-1.96,1.59-2.98,1.03Z"/>
    <path class="h" d="m289.59,391.65c-1.25-.69-1.76-2.14-1.16-3.23s2.11-1.42,3.35-.73c1.25.69,1.76,2.14,1.16,3.23-.61,1.09-2.11,1.42-3.35.73Z"/>
    <path class="h" d="m288.66,371.03c5.8-2.52,11.09-3.21,11.82-1.52s-3.37,5.09-9.17,7.62c-5.8,2.52-11.09,3.21-11.82,1.52-.73-1.68,3.37-5.09,9.17-7.62Z"/>
  </g>
  <g>
    <ellipse class="f" cx="428.67" cy="303.82" rx="140.93" ry="27.64" transform="translate(-89.48 216.72) rotate(-25.78)"/>
    <path class="h" d="m507.76,258.03c-3.52,7.38-8.32,12.68-10.73,11.85-2.41-.83-1.52-7.49,2-14.87,3.52-7.38,8.32-12.68,10.73-11.85s1.52,7.49-2,14.87Z"/>
    <path class="e" d="m555.43,242.24s-3.94,1.96-10.84,5.38c-3.45,1.71-7.64,3.79-12.45,6.18-4.81,2.38-10.23,5.07-16.15,8-5.92,2.92-12.34,6.09-19.13,9.43-6.79,3.34-13.95,6.86-21.36,10.51-14.83,7.27-30.64,15.02-46.46,22.77-15.84,7.71-31.68,15.41-46.53,22.64-7.43,3.61-14.62,7.08-21.44,10.36-6.82,3.28-13.28,6.38-19.23,9.24-5.96,2.86-11.43,5.46-16.28,7.76-2.43,1.15-4.7,2.22-6.8,3.21-2.1.99-4.04,1.89-5.78,2.71-1.75.82-3.31,1.54-4.67,2.16-.68.31-1.31.6-1.89.87-.58.26-1.11.49-1.58.7-.47.21-.89.4-1.25.56-.36.16-.67.28-.92.38-.5.2-.75.3-.75.3,0,0,.26-.11.75-.31.25-.1.56-.22.92-.39.36-.16.77-.35,1.24-.57.47-.21.99-.45,1.57-.72.57-.27,1.2-.56,1.88-.88,1.36-.63,2.91-1.37,4.65-2.2,1.74-.83,3.66-1.76,5.76-2.76,2.09-1.01,4.35-2.1,6.77-3.27,4.83-2.35,10.27-4.99,16.22-7.88,11.87-5.79,25.73-12.55,40.57-19.79,14.84-7.25,30.66-14.98,46.49-22.71,15.83-7.72,31.66-15.45,46.5-22.69,14.85-7.23,28.7-13.98,40.58-19.76,23.77-11.54,39.62-19.23,39.62-19.23Z"/>
    <path class="h" d="m522.34,267.52c-4.28-.43-7.44-2.46-7.06-4.53.38-2.08,4.15-3.41,8.43-2.98s7.44,2.46,7.06,4.53c-.38,2.08-4.15,3.41-8.43,2.98Z"/>
    <path class="h" d="m510.12,271.86c-8.23-1.75-15.64-.87-16.55,1.97-.9,2.84,5.04,6.57,13.27,8.32,8.23,1.75,15.64.87,16.55-1.97.9-2.84-5.04-6.57-13.27-8.32Z"/>
    <path class="h" d="m482.08,287.3c-2.3.9-4.79.17-5.56-1.62s.47-3.97,2.77-4.86c2.3-.9,4.79-.17,5.56,1.62.77,1.79-.47,3.97-2.77,4.86Z"/>
    <path class="h" d="m478.68,270.53c-4,9.18-9.96,15.78-13.31,14.74-3.35-1.04-2.81-9.33,1.19-18.52,4-9.18,9.96-15.78,13.31-14.74,3.35,1.04,2.81,9.33-1.19,18.52Z"/>
    <path class="h" d="m435.02,290.48c-4.35,9.98-10.82,17.15-14.46,16.02-3.63-1.13-3.05-10.14,1.3-20.12,4.35-9.98,10.82-17.15,14.46-16.02,3.63,1.13,3.05,10.14-1.3,20.12Z"/>
    <path class="h" d="m391.01,312.3c-4.25,10.01-10.64,17.23-14.29,16.13s-3.16-10.11,1.08-20.12c4.25-10.01,10.64-17.23,14.29-16.13,3.65,1.1,3.16,10.11-1.08,20.12Z"/>
    <ellipse class="h" cx="348.84" cy="329.81" rx="17.76" ry="6.18" transform="translate(-93.83 515.57) rotate(-66.16)"/>
    <path class="h" d="m448.49,292.83c-2.34.91-4.97-.05-5.88-2.15s.26-4.54,2.6-5.46c2.34-.91,4.97.05,5.88,2.15.91,2.1-.26,4.54-2.6,5.46Z"/>
    <path class="h" d="m444.03,309.98c-2.84,1.11-5.95.13-6.95-2.18-1-2.31.5-5.09,3.34-6.2,2.84-1.11,5.95-.13,6.95,2.18,1,2.31-.5,5.09-3.34,6.2Z"/>
    <ellipse class="h" cx="475.17" cy="295.74" rx="5.34" ry="18.4" transform="translate(82.21 694.28) rotate(-77.3)"/>
    <path class="h" d="m428.77,324.87c-10.87-2.56-18.79-7.21-17.69-10.4,1.1-3.19,10.8-3.7,21.67-1.14,10.87,2.56,18.79,7.21,17.69,10.4-1.1,3.19-10.8,3.7-21.67,1.14Z"/>
    <path class="h" d="m389.28,343.55c-10.87-2.56-18.79-7.21-17.69-10.4,1.1-3.19,10.8-3.7,21.67-1.14,10.87,2.56,18.79,7.21,17.69,10.4-1.1,3.19-10.8,3.7-21.67,1.14Z"/>
    <path class="h" d="m357.66,356.97c-10.32-2.43-17.92-6.62-16.97-9.35.95-2.74,10.08-2.99,20.4-.57s17.92,6.62,16.97,9.35c-.95,2.74-10.08,2.99-20.4.57Z"/>
    <path class="h" d="m322.36,366.71c-5.3-2.03-9-4.83-8.26-6.25s5.63-.92,10.94,1.11c5.3,2.03,9,4.83,8.26,6.25-.74,1.42-5.63.92-10.94-1.11Z"/>
    <path class="h" d="m404.74,313.15c-2.76,1.08-5.82.04-6.83-2.31-1.01-2.35.4-5.13,3.16-6.2s5.82-.04,6.83,2.31c1.01,2.35-.4,5.13-3.16,6.2Z"/>
    <path class="h" d="m399.52,330.16c-2.34.91-4.97-.05-5.88-2.15-.9-2.1.26-4.54,2.6-5.45,2.34-.91,4.97.05,5.87,2.15.9,2.1-.26,4.54-2.6,5.45Z"/>
    <path class="h" d="m364.07,331.37c-1.88.73-3.95.07-4.61-1.47-.67-1.55.32-3.39,2.2-4.13,1.88-.73,3.95-.07,4.61,1.47.67,1.55-.32,3.39-2.2,4.13Z"/>
    <path class="h" d="m362.46,345.7c-1.8.7-3.82-.04-4.52-1.66-.7-1.62.19-3.5,1.99-4.2,1.8-.7,3.82.04,4.52,1.66.7,1.62-.19,3.5-1.99,4.2Z"/>
    <path class="h" d="m331.24,347.91c-1.13.44-2.43-.1-2.9-1.2s.05-2.36,1.18-2.8c1.13-.44,2.43.1,2.9,1.2.48,1.1-.05,2.36-1.18,2.8Z"/>
    <path class="h" d="m330.78,359.15c-1.38.54-2.87.11-3.33-.96-.46-1.07.28-2.37,1.66-2.91,1.38-.54,2.87-.11,3.33.96.46,1.07-.28,2.37-1.66,2.91Z"/>
    <path class="h" d="m313.85,348.22c1.88-5.73,4.89-10.05,6.71-9.65,1.82.4,1.77,5.38-.11,11.11-1.88,5.73-4.89,10.05-6.71,9.65-1.82-.4-1.77-5.38.11-11.11Z"/>
  </g>
  <g>
    <ellipse class="j" cx="400.56" cy="191.5" rx="148.06" ry="31.22" transform="translate(18.23 417.21) rotate(-56.11)"/>
    <path class="h" d="m448.74,107.13c.52,9.5-1.16,17.34-3.74,17.51-2.58.17-5.09-7.39-5.61-16.88-.52-9.5,1.16-17.34,3.74-17.51s5.09,7.39,5.61,16.88Z"/>
    <path class="e" d="m483.66,69s-2.56,3.86-7.05,10.6c-2.24,3.37-4.97,7.47-8.09,12.17-3.13,4.69-6.66,9.99-10.52,15.77-3.86,5.77-8.04,12.02-12.47,18.63-4.43,6.61-9.1,13.57-13.93,20.78-9.69,14.4-20.03,29.75-30.36,45.11-10.38,15.32-20.76,30.64-30.49,45-4.87,7.18-9.6,14.1-14.08,20.66-4.49,6.56-8.74,12.76-12.66,18.48-3.92,5.72-7.54,10.95-10.75,15.57-1.61,2.31-3.11,4.47-4.51,6.47-1.4,1.99-2.68,3.83-3.84,5.48-1.16,1.65-2.2,3.13-3.12,4.4-.46.64-.88,1.23-1.26,1.77-.39.54-.75,1.02-1.07,1.46-.32.44-.6.82-.85,1.15-.24.33-.47.6-.64.82-.35.44-.52.66-.52.66,0,0,.18-.23.52-.67.17-.22.39-.49.63-.82.24-.33.52-.72.83-1.16.31-.44.67-.93,1.05-1.47.38-.55.8-1.14,1.25-1.78.9-1.28,1.93-2.77,3.08-4.44,1.14-1.67,2.41-3.51,3.79-5.52,1.37-2.02,2.86-4.19,4.45-6.52,3.17-4.67,6.74-9.93,10.63-15.67,7.77-11.5,16.84-24.91,26.56-39.29,9.71-14.38,20.06-29.72,30.42-45.06,10.36-15.33,20.73-30.67,30.44-45.04,9.72-14.37,18.8-27.78,26.58-39.27,15.59-22.96,25.99-38.27,25.99-38.27Z"/>
    <path class="h" d="m466.55,110.88c-4.05,1.44-7.9.66-8.59-1.74-.69-2.4,2.03-5.51,6.08-6.95,4.05-1.44,7.9-.66,8.59,1.74.69,2.4-2.03,5.51-6.08,6.95Z"/>
    <path class="h" d="m457.74,120.97c-8.26,1.77-14.47,6.01-13.87,9.47.6,3.46,7.79,4.83,16.05,3.06,8.26-1.77,14.47-6.01,13.87-9.47-.6-3.46-7.79-4.83-16.05-3.06Z"/>
    <path class="h" d="m440.26,150.03c-1.62,1.98-4.21,2.31-5.79.73-1.58-1.58-1.56-4.47.06-6.46s4.21-2.31,5.79-.73c1.58,1.58,1.56,4.47-.06,6.46Z"/>
    <path class="h" d="m428.86,133.49c.98,11.66-1.08,21.4-4.61,21.76-3.52.36-7.17-8.79-8.15-20.45-.98-11.66,1.08-21.4,4.61-21.76,3.52-.36,7.17,8.79,8.15,20.45Z"/>
    <path class="h" d="m399.62,174.32c1.06,12.66-1.17,23.25-5,23.64-3.83.39-7.79-9.55-8.85-22.22-1.06-12.66,1.17-23.25,5-23.64,3.83-.39,7.79,9.55,8.85,22.22Z"/>
    <ellipse class="h" cx="364.06" cy="218.11" rx="6.96" ry="23.01" transform="translate(-18.19 33.73) rotate(-5.18)"/>
    <path class="h" d="m348.09,254.16c1.06,11.4-.88,20.97-4.32,21.36-3.44.39-7.09-8.54-8.15-19.94-1.06-11.4.88-20.97,4.32-21.36,3.44-.39,7.09,8.54,8.15,19.94Z"/>
    <path class="h" d="m412.87,170.88c-1.65,2.02-4.49,2.15-6.35.29-1.86-1.86-2.03-5-.38-7.02,1.65-2.02,4.49-2.15,6.35-.29,1.86,1.86,2.03,5,.38,7.02Z"/>
    <path class="h" d="m417.41,191.3c-2,2.45-5.28,2.78-7.33.73-2.05-2.05-2.09-5.7-.09-8.15,2-2.45,5.28-2.78,7.33-.73,2.05,2.05,2.09,5.7.09,8.15Z"/>
    <path class="h" d="m439.22,168.41c-10.03,1.89-18.59.62-19.12-2.83s7.18-7.77,17.2-9.65,18.59-.62,19.12,2.83c.53,3.45-7.18,7.77-17.2,9.65Z"/>
    <path class="h" d="m411.13,214.09c-11.03,2.07-20.45.58-21.05-3.34-.6-3.92,7.85-8.77,18.88-10.85,11.03-2.07,20.45-.58,21.05,3.34.6,3.92-7.85,8.77-18.88,10.85Z"/>
    <path class="h" d="m384.99,251.71c-11.03,2.07-20.45.58-21.05-3.34-.6-3.92,7.85-8.77,18.88-10.84,11.03-2.07,20.45-.58,21.05,3.34.6,3.92-7.85,8.77-18.88,10.85Z"/>
    <path class="h" d="m363.29,280.18c-10.47,1.97-19.37.83-19.89-2.53-.52-3.37,7.55-7.69,18.02-9.66,10.47-1.97,19.37-.83,19.89,2.53.52,3.37-7.55,7.69-18.02,9.66Z"/>
    <path class="h" d="m336.45,306.32c-5.77.17-10.48-1.2-10.52-3.05-.04-1.85,4.6-3.5,10.36-3.66,5.77-.17,10.48,1.2,10.52,3.05.04,1.85-4.6,3.5-10.36,3.66Z"/>
    <path class="h" d="m383.73,212.15c-1.94,2.38-5.2,2.63-7.28.55s-2.19-5.7-.25-8.08c1.94-2.38,5.2-2.63,7.28-.55s2.19,5.7.25,8.08Z"/>
    <path class="h" d="m387.51,232.76c-1.65,2.02-4.49,2.15-6.34.3-1.86-1.86-2.03-5-.38-7.02,1.65-2.02,4.49-2.15,6.34-.3,1.86,1.86,2.03,5,.38,7.02Z"/>
    <path class="h" d="m356.29,249.8c-1.32,1.62-3.5,1.83-4.87.46-1.37-1.37-1.4-3.79-.08-5.42,1.32-1.62,3.5-1.83,4.87-.46,1.37,1.37,1.4,3.79.08,5.42Z"/>
    <path class="h" d="m361.99,265.92c-1.26,1.55-3.45,1.65-4.88.21-1.43-1.43-1.57-3.85-.31-5.4,1.26-1.55,3.45-1.65,4.88-.21,1.43,1.43,1.57,3.85.31,5.4Z"/>
    <path class="h" d="m335.07,282.15c-.79.97-2.23.97-3.21,0-.98-.98-1.13-2.56-.33-3.53.79-.97,2.23-.97,3.21,0,.98.98,1.13,2.56.33,3.53Z"/>
    <path class="h" d="m340.25,294.44c-.97,1.19-2.52,1.39-3.47.45-.94-.94-.92-2.67.05-3.87.97-1.19,2.52-1.39,3.47-.45s.92,2.67-.05,3.87Z"/>
    <path class="h" d="m319.61,290.2c-1.16-7-.62-12.99,1.22-13.36,1.84-.37,4.27,5,5.43,12,1.16,7,.62,12.99-1.22,13.36-1.84.37-4.27-5-5.43-12Z"/>
  </g>
  <g>
    <ellipse class="f" cx="281.45" cy="175.2" rx="175.45" ry="35.97" transform="translate(91.16 446.68) rotate(-86.87)"/>
    <path class="h" d="m279.04,60.98c6.17,8.63,9.19,17.25,6.73,19.25-2.46,2-9.46-3.38-15.64-12.01-6.17-8.63-9.19-17.25-6.73-19.25s9.46,3.38,15.64,12.01Z"/>
    <path class="e" d="m291,.01s-.25,5.48-.68,15.06c-.22,4.79-.48,10.61-.79,17.29-.31,6.68-.66,14.21-1.05,22.42-.4,8.21-.83,17.11-1.28,26.53-.46,9.41-.95,19.34-1.46,29.61-1.05,20.53-2.16,42.44-3.28,64.34-1.18,21.9-2.36,43.8-3.47,64.33-.56,10.27-1.13,20.19-1.67,29.6-.55,9.41-1.08,18.3-1.56,26.51-.48,8.21-.96,15.74-1.4,22.4-.22,3.33-.43,6.45-.62,9.34-.2,2.88-.38,5.53-.55,7.93-.17,2.39-.32,4.53-.47,6.39-.07.93-.14,1.79-.2,2.58-.07.79-.13,1.5-.19,2.14-.06.64-.11,1.21-.15,1.69-.05.49-.11.9-.15,1.23-.08.66-.13,1-.13,1,0,0,.04-.34.12-1,.03-.33.09-.74.14-1.23.04-.49.08-1.05.14-1.69.05-.64.11-1.36.17-2.14.05-.79.11-1.65.18-2.58.13-1.86.27-4,.41-6.39.14-2.39.3-5.05.47-7.93.16-2.89.34-6.01.53-9.34.36-6.67.77-14.2,1.22-22.41.87-16.43,1.88-35.59,2.97-56.12,1.07-20.53,2.21-42.43,3.36-64.34,1.16-21.9,2.31-43.8,3.4-64.33,1.1-20.53,2.12-39.69,3-56.12C289.8,21.91,291,.01,291,.01Z"/>
    <path class="h" d="m298.97,51.86c-3.17,4.25-7.46,6.24-9.58,4.46s-1.27-6.67,1.9-10.91c3.17-4.25,7.46-6.24,9.58-4.46,2.12,1.78,1.27,6.67-1.9,10.91Z"/>
    <path class="h" d="m296.23,67.69c-7.15,7.55-10.8,15.99-8.13,18.83,2.66,2.85,10.62-.96,17.77-8.52,7.15-7.55,10.8-15.99,8.13-18.83-2.66-2.85-10.62.96-17.77,8.52Z"/>
    <path class="h" d="m296.18,107.66c-.42,3.03-2.81,5.18-5.32,4.81-2.52-.37-4.21-3.13-3.79-6.16.42-3.03,2.81-5.18,5.32-4.81,2.52.37,4.21,3.13,3.79,6.16Z"/>
    <ellipse class="h" cx="269.05" cy="105.26" rx="7.86" ry="23.6" transform="translate(-9.18 183.06) rotate(-36.99)"/>
    <ellipse class="h" cx="263.83" cy="165.2" rx="8.53" ry="25.64" transform="translate(-46.3 191.98) rotate(-36.99)"/>
    <path class="h" d="m267.46,220.71c8.71,11.15,12.9,22.73,9.36,25.87-3.54,3.13-13.46-3.37-22.17-14.53-8.71-11.15-12.9-22.73-9.36-25.87,3.54-3.13,13.46,3.37,22.17,14.53Z"/>
    <ellipse class="h" cx="260.91" cy="277.01" rx="7.69" ry="23.1" transform="translate(-114.76 216.29) rotate(-37.53)"/>
    <path class="h" d="m281.4,146.9c-.43,3.09-3.17,5.23-6.13,4.79-2.95-.44-5-3.3-4.57-6.38s3.17-5.23,6.13-4.79c2.95.44,5,3.3,4.57,6.38Z"/>
    <path class="h" d="m298.08,163.03c-.52,3.75-3.59,6.39-6.84,5.91-3.25-.48-5.47-3.91-4.95-7.66.52-3.75,3.59-6.39,6.84-5.91,3.25.48,5.47,3.91,4.94,7.66Z"/>
    <path class="h" d="m306.11,125.81c-8.84,8.92-18.1,13.81-20.68,10.92-2.58-2.89,2.5-12.46,11.34-21.39,8.84-8.92,18.1-13.81,20.68-10.92,2.58,2.89-2.5,12.46-11.34,21.39Z"/>
    <ellipse class="h" cx="300.12" cy="183.14" rx="25.01" ry="7.95" transform="translate(-40.63 269.78) rotate(-45.66)"/>
    <ellipse class="h" cx="296.57" cy="237.39" rx="25.01" ry="7.95" transform="translate(-80.49 283.57) rotate(-45.66)"/>
    <ellipse class="h" cx="292.73" cy="280.63" rx="23.74" ry="6.84" transform="translate(-112.59 293.29) rotate(-45.58)"/>
    <path class="h" d="m286.21,329.6c-5.63,4.26-11.13,6.32-12.28,4.59-1.15-1.73,2.48-6.58,8.11-10.84,5.63-4.26,11.13-6.32,12.28-4.59,1.15,1.73-2.48,6.58-8.11,10.84Z"/>
    <path class="h" d="m277.05,206.74c-.51,3.64-3.6,6.19-6.91,5.69s-5.57-3.84-5.07-7.47,3.6-6.19,6.91-5.69c3.31.49,5.57,3.84,5.07,7.47Z"/>
    <path class="h" d="m293.09,223.58c-.43,3.09-3.17,5.23-6.12,4.79-2.95-.44-4.99-3.29-4.56-6.38.43-3.09,3.17-5.23,6.12-4.79,2.95.44,4.99,3.29,4.56,6.38Z"/>
    <path class="h" d="m272.23,261.93c-.35,2.48-2.39,4.23-4.56,3.9-2.17-.32-3.66-2.59-3.31-5.07.35-2.48,2.39-4.23,4.56-3.9,2.17.32,3.66,2.59,3.31,5.07Z"/>
    <path class="h" d="m287.5,273.16c-.33,2.37-2.45,4.02-4.72,3.68-2.28-.34-3.86-2.53-3.52-4.9s2.45-4.02,4.72-3.68c2.28.34,3.86,2.53,3.52,4.9Z"/>
    <path class="h" d="m270.43,307.69c-.21,1.49-1.64,2.51-3.19,2.28s-2.64-1.62-2.44-3.11c.21-1.49,1.64-2.51,3.19-2.28s2.64,1.62,2.44,3.11Z"/>
    <path class="h" d="m282.9,315.65c-.25,1.82-1.68,3.11-3.18,2.89s-2.51-1.88-2.26-3.7c.25-1.82,1.68-3.11,3.18-2.89,1.5.22,2.51,1.88,2.26,3.7Z"/>
    <path class="h" d="m259.87,326.31c-5.33-5.81-8.35-11.86-6.75-13.52s7.22,1.7,12.55,7.51,8.35,11.86,6.75,13.52-7.22-1.7-12.55-7.51Z"/>
  </g>
  <g>
    <ellipse class="b" cx="177.62" cy="184.23" rx="38.26" ry="175.45" transform="translate(-50.74 68.73) rotate(-19.22)"/>
    <ellipse class="h" cx="128.44" cy="84.78" rx="5.94" ry="19.73" transform="translate(-9.67 152.66) rotate(-59.6)"/>
    <path class="e" d="m119.87,18.55s1.85,5.16,5.1,14.19c1.62,4.52,3.59,10,5.85,16.29,2.25,6.29,4.79,13.39,7.56,21.13,2.76,7.75,5.75,16.14,8.91,25.02,3.15,8.88,6.48,18.25,9.92,27.94,6.84,19.39,14.14,40.07,21.44,60.76,7.23,20.71,14.46,41.41,21.24,60.82,3.39,9.71,6.63,19.1,9.7,28.01,3.06,8.91,5.96,17.34,8.63,25.12,2.67,7.78,5.09,14.92,7.21,21.26,1.06,3.17,2.05,6.13,2.97,8.88.91,2.75,1.74,5.27,2.5,7.54.75,2.28,1.42,4.31,1.98,6.09.28.89.55,1.71.79,2.46.23.75.44,1.44.63,2.05.19.61.35,1.16.5,1.63.14.47.24.87.32,1.19.17.64.26.97.26.97,0,0-.09-.33-.27-.97-.09-.32-.19-.72-.34-1.19-.15-.47-.32-1.01-.52-1.62-.2-.61-.41-1.3-.65-2.05-.25-.75-.52-1.57-.82-2.45-.58-1.77-1.27-3.8-2.04-6.07-.78-2.27-1.64-4.78-2.57-7.52-.95-2.73-1.97-5.69-3.06-8.84-2.2-6.31-4.68-13.43-7.39-21.2-5.44-15.52-11.79-33.63-18.59-53.04-6.82-19.4-14.09-40.09-21.36-60.78-7.26-20.7-14.52-41.39-21.32-60.8-6.79-19.41-13.13-37.52-18.56-53.05-10.81-31.07-18.02-51.78-18.02-51.78Z"/>
    <path class="h" d="m147.6,63.29c-1.5,5.19-4.96,8.74-7.73,7.94-2.77-.8-3.81-5.65-2.31-10.84,1.5-5.19,4.96-8.74,7.73-7.94,2.77.8,3.81,5.65,2.31,10.84Z"/>
    <path class="h" d="m150.96,79c-4.16,9.83-4.51,19.07-.8,20.65,3.72,1.57,10.1-5.12,14.25-14.96,4.16-9.83,4.51-19.07.8-20.65-3.72-1.57-10.1,5.12-14.25,14.96Z"/>
    <path class="h" d="m166.25,115.95c.74,2.97-.78,5.91-3.4,6.57-2.62.66-5.35-1.22-6.1-4.18s.78-5.91,3.4-6.57c2.62-.66,5.35,1.22,6.1,4.18Z"/>
    <path class="h" d="m142.46,117.41c11.78,6.4,19.58,14.79,17.44,18.73-2.14,3.94-13.43,1.95-25.21-4.46-11.78-6.4-19.58-14.79-17.44-18.73,2.14-3.94,13.43-1.95,25.21,4.46Z"/>
    <path class="h" d="m160.63,174.26c12.79,6.96,21.28,16.07,18.95,20.35-2.33,4.28-14.59,2.11-27.38-4.85-12.79-6.96-21.28-16.07-18.95-20.35,2.33-4.28,14.59-2.11,27.38,4.85Z"/>
    <path class="h" d="m181.28,231.86c12.86,6.83,21.43,15.86,19.14,20.17-2.29,4.3-14.57,2.25-27.43-4.58-12.86-6.83-21.43-15.86-19.14-20.17,2.29-4.3,14.57-2.25,27.43,4.58Z"/>
    <ellipse class="h" cx="196.4" cy="286.49" rx="7.95" ry="23.77" transform="translate(-148.75 325.47) rotate(-62.01)"/>
    <path class="h" d="m166.72,158.1c.76,3.02-1.12,6.1-4.2,6.87-3.08.77-6.19-1.05-6.95-4.07-.76-3.02,1.12-6.1,4.2-6.87s6.19,1.05,6.95,4.07Z"/>
    <path class="h" d="m189.34,166.35c.92,3.67-1.08,7.34-4.48,8.19-3.39.85-6.89-1.43-7.81-5.1-.92-3.67,1.08-7.34,4.48-8.19,3.39-.85,6.89,1.43,7.81,5.1Z"/>
    <path class="h" d="m182.99,128.77c-5.29,11.77-12.55,19.98-16.19,18.34-3.65-1.64-2.32-12.51,2.98-24.28,5.29-11.77,12.55-19.98,16.19-18.34,3.65,1.64,2.32,12.51-2.98,24.28Z"/>
    <ellipse class="h" cx="199.07" cy="184.12" rx="25.69" ry="8.24" transform="translate(-50.52 290.12) rotate(-65.78)"/>
    <path class="h" d="m223.88,239.04c-5.82,12.94-13.9,21.91-18.05,20.05-4.15-1.87-2.79-13.87,3.03-26.81,5.82-12.94,13.9-21.91,18.05-20.05,4.15,1.87,2.79,13.87-3.03,26.81Z"/>
    <ellipse class="h" cx="229.16" cy="277.15" rx="24.39" ry="7.08" transform="translate(-117.61 372.42) rotate(-65.78)"/>
    <path class="h" d="m241.5,324.99c-3.92,6.18-8.55,10.28-10.34,9.14-1.79-1.14-.08-7.07,3.84-13.25,3.92-6.18,8.55-10.28,10.34-9.14,1.79,1.14.08,7.07-3.84,13.25Z"/>
    <path class="h" d="m185.37,215.13c.89,3.56-1.18,7.15-4.62,8.02-3.45.86-6.97-1.32-7.86-4.88-.89-3.56,1.18-7.15,4.62-8.02s6.97,1.32,7.86,4.88Z"/>
    <path class="h" d="m207.64,224.29c.76,3.02-1.12,6.1-4.2,6.87s-6.18-1.05-6.94-4.08c-.76-3.02,1.12-6.1,4.2-6.87,3.08-.77,6.18,1.05,6.94,4.08Z"/>
    <path class="h" d="m201.78,268.04c.61,2.43-.73,4.86-3,5.43-2.27.57-4.6-.94-5.21-3.37s.73-4.86,3-5.43c2.27-.57,4.6.94,5.21,3.37Z"/>
    <path class="h" d="m221.14,272.33c.58,2.32-.87,4.69-3.25,5.28-2.37.6-4.77-.8-5.35-3.12-.58-2.32.87-4.69,3.25-5.28,2.37-.6,4.77.8,5.35,3.12Z"/>
    <path class="h" d="m217.55,311.04c.37,1.46-.65,2.97-2.27,3.37-1.62.41-3.23-.45-3.59-1.9-.37-1.46.65-2.97,2.27-3.37,1.62-.41,3.23.45,3.59,1.9Z"/>
    <path class="h" d="m232.9,313.42c.45,1.78-.46,3.54-2.03,3.94-1.57.39-3.2-.73-3.64-2.51-.45-1.78.46-3.54,2.03-3.94s3.2.73,3.64,2.51Z"/>
    <path class="h" d="m214.28,332.45c-7.48-3.24-12.79-7.63-11.84-9.8s7.77-1.3,15.25,1.94c7.48,3.24,12.79,7.63,11.84,9.8-.94,2.17-7.77,1.3-15.25-1.94Z"/>
  </g>
  <g>
    <ellipse class="c" cx="128.98" cy="330.66" rx="24.39" ry="137.89" transform="translate(-225.94 332.12) rotate(-68.93)"/>
    <path class="h" d="m43.09,303.68c7.91-1.76,15.07-1.52,15.98.54.91,2.06-4.77,5.16-12.69,6.92-7.91,1.76-15.07,1.52-15.98-.54-.91-2.06,4.77-5.16,12.69-6.92Z"/>
    <path class="e" d="m.39,280.87s4.03,1.52,11.09,4.19c3.53,1.33,7.81,2.96,12.73,4.81,4.91,1.86,10.45,3.97,16.5,6.26,6.04,2.3,12.59,4.79,19.51,7.43,6.92,2.64,14.22,5.43,21.77,8.31,15.09,5.79,31.18,11.96,47.28,18.14,16.08,6.22,32.15,12.43,47.23,18.26,7.54,2.91,14.81,5.75,21.71,8.45,6.9,2.7,13.42,5.25,19.43,7.61,6.02,2.36,11.52,4.54,16.4,6.48,2.44.97,4.72,1.88,6.83,2.72,2.11.85,4.04,1.62,5.79,2.33,1.75.7,3.31,1.34,4.66,1.89.68.28,1.3.53,1.88.77.57.24,1.09.46,1.55.66.46.2.87.37,1.23.52.35.15.64.29.88.4.47.22.72.33.72.33,0,0-.24-.11-.72-.32-.24-.1-.53-.24-.88-.39-.36-.15-.77-.32-1.23-.51-.47-.19-.99-.41-1.56-.64-.58-.23-1.2-.48-1.88-.75-1.36-.55-2.92-1.17-4.68-1.86-1.75-.69-3.7-1.45-5.81-2.28-2.12-.82-4.41-1.72-6.85-2.67-4.9-1.9-10.42-4.04-16.45-6.37-12.06-4.65-26.14-10.08-41.21-15.89-15.08-5.8-31.17-12-47.26-18.19-16.08-6.2-32.17-12.4-47.25-18.21-15.07-5.82-29.15-11.25-41.21-15.91-24.11-9.34-40.18-15.57-40.18-15.57Z"/>
    <path class="h" d="m41.01,288.77c2.42,3.07,2.89,6.29,1.06,7.19s-5.28-.86-7.7-3.93c-2.42-3.07-2.89-6.29-1.06-7.19s5.28.86,7.7,3.93Z"/>
    <ellipse class="h" cx="57.18" cy="292.68" rx="5.16" ry="13.69" transform="translate(-152.39 80.52) rotate(-33.59)"/>
    <path class="h" d="m82.03,304.46c2.16,1.02,3.2,3.07,2.33,4.58-.88,1.5-3.34,1.89-5.5.86-2.16-1.02-3.2-3.07-2.33-4.58.88-1.5,3.34-1.89,5.5-.86Z"/>
    <path class="h" d="m71.34,316c9.61-2.44,18.5-2.15,19.85.64,1.35,2.79-5.35,7.04-14.96,9.47-9.61,2.44-18.5,2.15-19.85-.64-1.35-2.79,5.35-7.04,14.96-9.47Z"/>
    <path class="h" d="m114.66,333.84c10.44-2.65,20.1-2.34,21.56.69,1.46,3.03-5.81,7.64-16.26,10.29-10.44,2.65-20.1,2.34-21.56-.69-1.46-3.03,5.81-7.64,16.26-10.29Z"/>
    <ellipse class="h" cx="162.36" cy="356.36" rx="19.52" ry="5.97" transform="translate(-78.8 47.83) rotate(-13.52)"/>
    <ellipse class="h" cx="200.14" cy="369.1" rx="17.59" ry="5.38" transform="translate(-80.73 57.01) rotate(-13.52)"/>
    <path class="h" d="m107.83,323.63c2.2,1.04,3.15,3.32,2.12,5.08s-3.65,2.35-5.85,1.3c-2.2-1.04-3.15-3.32-2.12-5.08,1.03-1.76,3.65-2.35,5.85-1.3Z"/>
    <path class="h" d="m123.83,317.08c2.67,1.27,3.92,3.87,2.79,5.81s-4.22,2.49-6.9,1.22-3.92-3.87-2.79-5.81c1.13-1.94,4.22-2.49,6.9-1.22Z"/>
    <path class="h" d="m97.95,302.7c4.56,7.83,6.02,14.92,3.24,15.84-2.77.91-8.72-4.7-13.28-12.53-4.56-7.83-6.02-14.92-3.24-15.84,2.77-.91,8.72,4.7,13.28,12.53Z"/>
    <path class="h" d="m145.05,318.92c5.02,8.61,6.53,16.43,3.38,17.47-3.15,1.04-9.77-5.1-14.79-13.71s-6.53-16.43-3.38-17.47c3.15-1.04,9.77,5.1,14.79,13.71Z"/>
    <path class="h" d="m184.72,334.71c5.02,8.61,6.53,16.43,3.38,17.47-3.15,1.04-9.77-5.1-14.79-13.71-5.02-8.61-6.53-16.43-3.38-17.47,3.15-1.04,9.77,5.1,14.79,13.71Z"/>
    <path class="h" d="m215.31,348.21c4.76,8.18,6.43,15.53,3.72,16.42-2.71.89-8.76-5.01-13.53-13.19-4.76-8.18-6.43-15.53-3.72-16.42,2.71-.89,8.76,5.01,13.53,13.19Z"/>
    <path class="h" d="m245.43,366.18c1.85,4.63,2.08,8.63.51,8.93-1.56.3-4.33-3.22-6.17-7.85s-2.08-8.63-.51-8.93c1.56-.3,4.33,3.22,6.17,7.85Z"/>
    <path class="h" d="m151.49,341.32c2.6,1.23,3.77,3.83,2.61,5.8-1.15,1.97-4.19,2.58-6.79,1.35-2.6-1.23-3.77-3.83-2.61-5.8,1.15-1.97,4.19-2.58,6.79-1.35Z"/>
    <path class="h" d="m167.88,335.36c2.2,1.04,3.15,3.32,2.13,5.08-1.03,1.76-3.65,2.34-5.85,1.3s-3.15-3.32-2.13-5.08c1.03-1.76,3.65-2.34,5.85-1.3Z"/>
    <path class="h" d="m191.57,358.15c1.77.84,2.59,2.57,1.83,3.87-.76,1.3-2.81,1.67-4.58.83-1.77-.84-2.59-2.57-1.83-3.87.76-1.3,2.81-1.67,4.58-.83Z"/>
    <path class="h" d="m203.58,351.27c1.69.8,2.42,2.55,1.62,3.91-.79,1.36-2.81,1.81-4.5,1.01-1.69-.8-2.42-2.55-1.62-3.91.79-1.36,2.81-1.81,4.5-1.01Z"/>
    <path class="h" d="m225.32,370.71c1.06.5,1.48,1.66.94,2.59-.54.93-1.84,1.27-2.9.77s-1.48-1.66-.94-2.59c.54-.93,1.84-1.27,2.9-.77Z"/>
    <path class="h" d="m234.23,364.79c1.3.61,1.93,1.84,1.4,2.74-.52.9-2,1.12-3.3.51-1.3-.61-1.93-1.84-1.4-2.74.52-.9,2-1.12,3.3-.51Z"/>
    <path class="h" d="m236.72,382.06c-5.61,1.93-10.85,2.34-11.71.91-.86-1.43,2.99-4.15,8.59-6.08,5.61-1.93,10.85-2.34,11.71-.91.86,1.43-2.99,4.15-8.59,6.08Z"/>
  </g>
  <path class="c" d="m281.64,489.81s12.15-22.57,13.48-24.83l-7.57,25.89-5.91-.54"/>
  <polygon class="c" points="251.7 464.05 264.44 492.15 259.54 493.04 251.7 464.05"/>
  <polygon class="c" points="267.92 489.27 273.64 462.72 272.19 490.02 267.92 489.27"/>
  <g>
    <path class="i" d="m349.72,497.53v70.81c0,35.86-29.07,64.94-64.94,64.94h-20.41c-35.86,0-64.94-29.07-64.94-64.94v-70.81c0-6.66,5.4-12.06,12.06-12.06h126.16c6.66,0,12.06,5.4,12.06,12.06Z"/>
    <path class="g" d="m220.82,485.47c0,58.45-1.74,105.83-3.88,105.83s-3.88-47.38-3.88-105.83h7.77Z"/>
  </g>
</svg>