<svg width="973" height="125" viewBox="0 0 973 125" fill="none" xmlns="http://www.w3.org/2000/svg">
<g filter="url(#filter0_dd_12_34)">
<path d="M62.32 99.96C54.544 99.96 47.936 98.376 42.496 95.208C37.088 92.008 32.96 87.624 30.112 82.056C27.264 76.488 25.84 70.136 25.84 63C25.84 55.864 27.264 49.512 30.112 43.944C32.96 38.376 37.088 34.008 42.496 30.84C47.936 27.64 54.544 26.04 62.32 26.04C65.072 26.04 67.536 26.504 69.712 27.432C71.92 28.328 73.936 29.624 75.76 31.32L87.568 27H87.76V49.56H87.376C85.232 45.176 82.992 41.256 80.656 37.8C78.32 34.312 75.744 31.56 72.928 29.544C70.112 27.528 66.896 26.52 63.28 26.52C60.304 26.52 57.84 27.592 55.888 29.736C53.968 31.848 52.464 34.68 51.376 38.232C50.288 41.752 49.52 45.672 49.072 49.992C48.624 54.28 48.4 58.616 48.4 63C48.4 67.352 48.624 71.688 49.072 76.008C49.52 80.328 50.288 84.264 51.376 87.816C52.464 91.336 53.968 94.168 55.888 96.312C57.84 98.424 60.304 99.48 63.28 99.48C66.512 99.48 69.376 98.888 71.872 97.704C74.4 96.488 76.656 94.824 78.64 92.712C80.656 90.6 82.448 88.152 84.016 85.368C85.616 82.584 87.088 79.608 88.432 76.44H88.72V99H88.528L77.824 94.008C75.808 95.864 73.52 97.32 70.96 98.376C68.432 99.432 65.552 99.96 62.32 99.96ZM115.94 99V98.808H126.5V27.192H115.94V27H158.66V27.192H147.14V98.808H158.66V99H115.94ZM193.199 27V98.808H203.855V99H183.503V98.808H193.007V27.192H183.503V27H193.199ZM254.063 27V27.192H243.983V99.96H243.791L193.103 27H217.583L243.791 64.728V27.192H233.231V27H254.063ZM278.909 99V98.808H287.549V27.192H278.909V27H337.949V46.68H337.757C336.797 43.256 335.149 40.072 332.813 37.128C330.509 34.152 327.725 31.752 324.461 29.928C321.197 28.104 317.693 27.192 313.949 27.192H308.189V98.808H312.989C317.373 98.808 321.325 97.88 324.845 96.024C328.365 94.136 331.309 91.576 333.677 88.344C336.077 85.112 337.757 81.464 338.717 77.4H338.909V99H278.909ZM324.317 75.192C323.357 73.048 322.029 70.952 320.333 68.904C318.669 66.856 316.845 65.176 314.861 63.864C312.877 62.52 310.973 61.848 309.149 61.848H303.869V61.656H309.149C310.973 61.656 312.877 61.032 314.861 59.784C316.845 58.536 318.669 56.936 320.333 54.984C322.029 53 323.357 50.936 324.317 48.792H324.509V75.192H324.317ZM399.397 99.96L372.709 27H393.445L409.861 70.488L425.125 27H425.317L399.781 99.96H399.397ZM372.805 27V98.808H380.293V99H365.701V98.808H372.613V27.192H365.221V27H372.805ZM452.581 27V27.192H445.861V98.808H452.581V99H417.541V98.808H425.221V27H452.581ZM495.073 75.576V75.384H519.169V75.576H495.073ZM522.049 25.56L547.441 98.808H554.209V99H516.769V98.808H523.441L506.017 44.952L486.961 98.808H498.529V99H477.409V98.808H486.673L512.641 25.56H522.049ZM663.883 99.96C656.107 99.96 649.499 98.376 644.059 95.208C638.651 92.008 634.523 87.624 631.675 82.056C628.827 76.488 627.403 70.136 627.403 63C627.403 55.864 628.827 49.512 631.675 43.944C634.523 38.376 638.651 34.008 644.059 30.84C649.499 27.64 656.107 26.04 663.883 26.04C666.635 26.04 669.099 26.504 671.275 27.432C673.483 28.328 675.499 29.624 677.323 31.32L689.131 27H689.323V49.56H688.939C686.795 45.176 684.555 41.256 682.219 37.8C679.883 34.312 677.307 31.56 674.491 29.544C671.675 27.528 668.459 26.52 664.843 26.52C661.867 26.52 659.403 27.592 657.451 29.736C655.531 31.848 654.027 34.68 652.939 38.232C651.851 41.752 651.083 45.672 650.635 49.992C650.187 54.28 649.963 58.616 649.963 63C649.963 67.352 650.187 71.688 650.635 76.008C651.083 80.328 651.851 84.264 652.939 87.816C654.027 91.336 655.531 94.168 657.451 96.312C659.403 98.424 661.867 99.48 664.843 99.48C668.075 99.48 670.939 98.888 673.435 97.704C675.963 96.488 678.219 94.824 680.203 92.712C682.219 90.6 684.011 88.152 685.579 85.368C687.179 82.584 688.651 79.608 689.995 76.44H690.283V99H690.091L679.387 94.008C677.371 95.864 675.083 97.32 672.523 98.376C669.995 99.432 667.115 99.96 663.883 99.96ZM717.503 99V98.808H728.062V27.192H717.503V27H760.223V27.192H748.703V98.808H760.223V99H717.503ZM797.545 99V98.808H808.105V27.192H805.225C802.889 27.192 800.665 27.88 798.553 29.256C796.473 30.6 794.553 32.44 792.793 34.776C791.065 37.08 789.561 39.688 788.281 42.6C787.001 45.48 785.993 48.44 785.257 51.48H785.065V27H851.785V51.48H851.593C850.889 48.44 849.881 45.48 848.569 42.6C847.289 39.688 845.769 37.08 844.009 34.776C842.281 32.44 840.361 30.6 838.249 29.256C836.169 27.88 833.961 27.192 831.625 27.192H828.745V98.808H839.305V99H797.545ZM893.908 99V98.808H902.548V64.44L882.004 27.192H876.148V27H915.508V27.192H906.004L922.996 62.136L938.548 27.192H927.508V27H947.668V27.192H938.836L923.188 62.232V98.808H932.788V99H893.908Z" fill="#FFF3E1"/>
<path d="M42.496 95.208L41.9867 96.0686L41.9928 96.0721L42.496 95.208ZM30.112 82.056L31.0023 81.6006L31.0023 81.6006L30.112 82.056ZM30.112 43.944L31.0023 44.3994L31.0023 44.3994L30.112 43.944ZM42.496 30.84L43.0015 31.7028L43.003 31.7019L42.496 30.84ZM69.712 27.432L69.3197 28.3518L69.3278 28.3553L69.336 28.3586L69.712 27.432ZM75.76 31.32L75.0791 32.0523L75.5279 32.4697L76.1036 32.2591L75.76 31.32ZM87.568 27V26H87.3908L87.2244 26.0609L87.568 27ZM87.76 27H88.76V26H87.76V27ZM87.76 49.56V50.56H88.76V49.56H87.76ZM87.376 49.56L86.4777 49.9993L86.7519 50.56H87.376V49.56ZM80.656 37.8L79.8251 38.3565L79.8275 38.36L80.656 37.8ZM72.928 29.544L72.3459 30.3571L72.3459 30.3571L72.928 29.544ZM55.888 29.736L55.1486 29.0628L55.1481 29.0633L55.888 29.736ZM51.376 38.232L52.3314 38.5273L52.3322 38.5249L51.376 38.232ZM49.072 49.992L50.0666 50.0959L50.0667 50.0951L49.072 49.992ZM49.072 76.008L50.0667 75.9048L50.0667 75.9048L49.072 76.008ZM51.376 87.816L50.4198 88.1089L50.4206 88.1113L51.376 87.816ZM55.888 96.312L55.1431 96.9791L55.1483 96.985L55.1536 96.9907L55.888 96.312ZM71.872 97.704L72.3006 98.6075L72.3055 98.6052L71.872 97.704ZM78.64 92.712L77.9166 92.0215L77.9112 92.0273L78.64 92.712ZM84.016 85.368L83.149 84.8697L83.1447 84.8773L84.016 85.368ZM88.432 76.44V75.44H87.77L87.5114 76.0494L88.432 76.44ZM88.72 76.44H89.72V75.44H88.72V76.44ZM88.72 99V100H89.72V99H88.72ZM88.528 99L88.1053 99.9063L88.3063 100H88.528V99ZM77.824 94.008L78.2467 93.1017L77.6395 92.8186L77.1467 93.2723L77.824 94.008ZM70.96 98.376L70.5787 97.4516L70.5746 97.4533L70.96 98.376ZM62.32 98.96C54.6795 98.96 48.2543 97.4042 42.9992 94.3439L41.9928 96.0721C47.6177 99.3478 54.4085 100.96 62.32 100.96V98.96ZM43.0052 94.3474C37.7592 91.2432 33.7637 86.9994 31.0023 81.6006L29.2217 82.5114C32.1563 88.2486 36.4168 92.7728 41.9868 96.0686L43.0052 94.3474ZM31.0023 81.6006C28.236 76.1923 26.84 70.0001 26.84 63H24.84C24.84 70.2719 26.292 76.7837 29.2217 82.5114L31.0023 81.6006ZM26.84 63C26.84 55.9999 28.236 49.8077 31.0023 44.3994L29.2217 43.4886C26.292 49.2163 24.84 55.7281 24.84 63H26.84ZM31.0023 44.3994C33.7633 39.0015 37.7576 34.7747 43.0015 31.7028L41.9905 29.9771C36.4184 33.2413 32.1567 37.7505 29.2217 43.4886L31.0023 44.3994ZM43.003 31.7019C48.2574 28.6111 54.6812 27.04 62.32 27.04V25.04C54.4068 25.04 47.6146 26.6689 41.989 29.9781L43.003 31.7019ZM62.32 27.04C64.959 27.04 67.2863 27.4847 69.3197 28.3518L70.1043 26.5122C67.7857 25.5233 65.185 25.04 62.32 25.04V27.04ZM69.336 28.3586C71.4263 29.2069 73.34 30.4353 75.0791 32.0523L76.4409 30.5877C74.532 28.8127 72.4137 27.4491 70.088 26.5054L69.336 28.3586ZM76.1036 32.2591L87.9116 27.9391L87.2244 26.0609L75.4164 30.3809L76.1036 32.2591ZM87.568 28H87.76V26H87.568V28ZM86.76 27V49.56H88.76V27H86.76ZM87.76 48.56H87.376V50.56H87.76V48.56ZM88.2743 49.1207C86.1132 44.7017 83.8505 40.7404 81.4845 37.24L79.8275 38.36C82.1335 41.7716 84.3508 45.6503 86.4777 49.9993L88.2743 49.1207ZM81.4869 37.2435C79.0978 33.6763 76.442 30.8299 73.5101 28.7309L72.3459 30.3571C75.046 32.2901 77.5422 34.9477 79.8251 38.3565L81.4869 37.2435ZM73.5101 28.7309C70.5165 26.5878 67.095 25.52 63.28 25.52V27.52C66.697 27.52 69.7075 28.4682 72.3459 30.3571L73.5101 28.7309ZM63.28 25.52C60.031 25.52 57.2957 26.7045 55.1486 29.0628L56.6274 30.4092C58.3843 28.4795 60.577 27.52 63.28 27.52V25.52ZM55.1481 29.0633C53.1037 31.3121 51.5385 34.2869 50.4199 37.9391L52.3322 38.5249C53.3895 35.073 54.8323 32.3839 56.6279 30.4087L55.1481 29.0633ZM50.4206 37.9367C49.3102 41.5292 48.5309 45.5149 48.0773 49.8888L50.0667 50.0951C50.5091 45.8291 51.2658 41.9748 52.3314 38.5273L50.4206 37.9367ZM48.0774 49.8881C47.6257 54.2112 47.4 58.5819 47.4 63H49.4C49.4 58.6501 49.6223 54.3488 50.0666 50.0959L48.0774 49.8881ZM47.4 63C47.4 67.3864 47.6258 71.7568 48.0773 76.1111L50.0667 75.9048C49.6222 71.6192 49.4 67.3176 49.4 63H47.4ZM48.0773 76.1111C48.5309 80.485 49.31 84.4857 50.4199 88.1089L52.3322 87.5231C51.266 84.0423 50.5091 80.171 50.0667 75.9048L48.0773 76.1111ZM50.4206 88.1113C51.5397 91.7318 53.104 94.7022 55.1431 96.9791L56.633 95.6449C54.832 93.6338 53.3883 90.9402 52.3314 87.5207L50.4206 88.1113ZM55.1536 96.9907C57.3022 99.3155 60.0361 100.48 63.28 100.48V98.48C60.5719 98.48 58.3778 97.5325 56.6224 95.6333L55.1536 96.9907ZM63.28 100.48C66.6352 100.48 69.6497 99.865 72.3006 98.6075L71.4434 96.8005C69.1023 97.911 66.3888 98.48 63.28 98.48V100.48ZM72.3055 98.6052C74.9481 97.334 77.3034 95.5954 79.3689 93.3967L77.9112 92.0273C76.0086 94.0526 73.8519 95.642 71.4385 96.8028L72.3055 98.6052ZM79.3634 93.4025C81.4419 91.2249 83.2823 88.7085 84.8873 85.8587L83.1447 84.8773C81.6137 87.5955 79.8701 89.9751 77.9166 92.0215L79.3634 93.4025ZM84.883 85.8663C86.5044 83.0451 87.994 80.0329 89.3526 76.8305L87.5114 76.0494C86.182 79.1831 84.7276 82.1229 83.149 84.8697L84.883 85.8663ZM88.432 77.44H88.72V75.44H88.432V77.44ZM87.72 76.44V99H89.72V76.44H87.72ZM88.72 98H88.528V100H88.72V98ZM88.9507 98.0937L78.2467 93.1017L77.4013 94.9143L88.1053 99.9063L88.9507 98.0937ZM77.1467 93.2723C75.2184 95.0476 73.0308 96.44 70.5787 97.4516L71.3413 99.3004C74.0092 98.2 76.3976 96.6804 78.5013 94.7437L77.1467 93.2723ZM70.5746 97.4533C68.1885 98.45 65.4431 98.96 62.32 98.96V100.96C65.6609 100.96 68.6755 100.414 71.3454 99.2987L70.5746 97.4533ZM115.94 99H114.94V100H115.94V99ZM115.94 98.808V97.808H114.94V98.808H115.94ZM126.5 98.808V99.808H127.5V98.808H126.5ZM126.5 27.192H127.5V26.192H126.5V27.192ZM115.94 27.192H114.94V28.192H115.94V27.192ZM115.94 27V26H114.94V27H115.94ZM158.66 27H159.66V26H158.66V27ZM158.66 27.192V28.192H159.66V27.192H158.66ZM147.14 27.192V26.192H146.14V27.192H147.14ZM147.14 98.808H146.14V99.808H147.14V98.808ZM158.66 98.808H159.66V97.808H158.66V98.808ZM158.66 99V100H159.66V99H158.66ZM116.94 99V98.808H114.94V99H116.94ZM115.94 99.808H126.5V97.808H115.94V99.808ZM127.5 98.808V27.192H125.5V98.808H127.5ZM126.5 26.192H115.94V28.192H126.5V26.192ZM116.94 27.192V27H114.94V27.192H116.94ZM115.94 28H158.66V26H115.94V28ZM157.66 27V27.192H159.66V27H157.66ZM158.66 26.192H147.14V28.192H158.66V26.192ZM146.14 27.192V98.808H148.14V27.192H146.14ZM147.14 99.808H158.66V97.808H147.14V99.808ZM157.66 98.808V99H159.66V98.808H157.66ZM158.66 98H115.94V100H158.66V98ZM193.199 27H194.199V26H193.199V27ZM193.199 98.808H192.199V99.808H193.199V98.808ZM203.855 98.808H204.855V97.808H203.855V98.808ZM203.855 99V100H204.855V99H203.855ZM183.503 99H182.503V100H183.503V99ZM183.503 98.808V97.808H182.503V98.808H183.503ZM193.007 98.808V99.808H194.007V98.808H193.007ZM193.007 27.192H194.007V26.192H193.007V27.192ZM183.503 27.192H182.503V28.192H183.503V27.192ZM183.503 27V26H182.503V27H183.503ZM254.063 27H255.063V26H254.063V27ZM254.063 27.192V28.192H255.063V27.192H254.063ZM243.983 27.192V26.192H242.983V27.192H243.983ZM243.983 99.96V100.96H244.983V99.96H243.983ZM243.791 99.96L242.969 100.531L243.268 100.96H243.791V99.96ZM193.103 27V26H191.19L192.281 27.5706L193.103 27ZM217.583 27L218.404 26.4295L218.105 26H217.583V27ZM243.791 64.728L242.969 65.2985L244.791 67.9204V64.728H243.791ZM243.791 27.192H244.791V26.192H243.791V27.192ZM233.231 27.192H232.231V28.192H233.231V27.192ZM233.231 27V26H232.231V27H233.231ZM192.199 27V98.808H194.199V27H192.199ZM193.199 99.808H203.855V97.808H193.199V99.808ZM202.855 98.808V99H204.855V98.808H202.855ZM203.855 98H183.503V100H203.855V98ZM184.503 99V98.808H182.503V99H184.503ZM183.503 99.808H193.007V97.808H183.503V99.808ZM194.007 98.808V27.192H192.007V98.808H194.007ZM193.007 26.192H183.503V28.192H193.007V26.192ZM184.503 27.192V27H182.503V27.192H184.503ZM183.503 28H193.199V26H183.503V28ZM253.063 27V27.192H255.063V27H253.063ZM254.063 26.192H243.983V28.192H254.063V26.192ZM242.983 27.192V99.96H244.983V27.192H242.983ZM243.983 98.96H243.791V100.96H243.983V98.96ZM244.612 99.3894L193.924 26.4294L192.281 27.5706L242.969 100.531L244.612 99.3894ZM193.103 28H217.583V26H193.103V28ZM216.761 27.5705L242.969 65.2985L244.612 64.1575L218.404 26.4295L216.761 27.5705ZM244.791 64.728V27.192H242.791V64.728H244.791ZM243.791 26.192H233.231V28.192H243.791V26.192ZM234.231 27.192V27H232.231V27.192H234.231ZM233.231 28H254.063V26H233.231V28ZM278.909 99H277.909V100H278.909V99ZM278.909 98.808V97.808H277.909V98.808H278.909ZM287.549 98.808V99.808H288.549V98.808H287.549ZM287.549 27.192H288.549V26.192H287.549V27.192ZM278.909 27.192H277.909V28.192H278.909V27.192ZM278.909 27V26H277.909V27H278.909ZM337.949 27H338.949V26H337.949V27ZM337.949 46.68V47.68H338.949V46.68H337.949ZM337.757 46.68L336.794 46.95L336.999 47.68H337.757V46.68ZM332.813 37.128L332.022 37.7402L332.029 37.7496L332.813 37.128ZM324.461 29.928L323.973 30.8009L323.973 30.8009L324.461 29.928ZM308.189 27.192V26.192H307.189V27.192H308.189ZM308.189 98.808H307.189V99.808H308.189V98.808ZM324.845 96.024L325.311 96.9086L325.317 96.9052L324.845 96.024ZM333.677 88.344L332.874 87.7478L332.87 87.753L333.677 88.344ZM338.717 77.4V76.4H337.925L337.744 77.1701L338.717 77.4ZM338.909 77.4H339.909V76.4H338.909V77.4ZM338.909 99V100H339.909V99H338.909ZM324.317 75.192L323.404 75.6007L323.669 76.192H324.317V75.192ZM320.333 68.904L319.557 69.5346L319.563 69.5418L320.333 68.904ZM314.861 63.864L314.3 64.692L314.309 64.6981L314.861 63.864ZM303.869 61.848H302.869V62.848H303.869V61.848ZM303.869 61.656V60.656H302.869V61.656H303.869ZM314.861 59.784L315.393 60.6305L315.393 60.6305L314.861 59.784ZM320.333 54.984L319.573 54.3342L319.572 54.3353L320.333 54.984ZM324.317 48.792V47.792H323.669L323.404 48.3833L324.317 48.792ZM324.509 48.792H325.509V47.792H324.509V48.792ZM324.509 75.192V76.192H325.509V75.192H324.509ZM279.909 99V98.808H277.909V99H279.909ZM278.909 99.808H287.549V97.808H278.909V99.808ZM288.549 98.808V27.192H286.549V98.808H288.549ZM287.549 26.192H278.909V28.192H287.549V26.192ZM279.909 27.192V27H277.909V27.192H279.909ZM278.909 28H337.949V26H278.909V28ZM336.949 27V46.68H338.949V27H336.949ZM337.949 45.68H337.757V47.68H337.949V45.68ZM338.72 46.41C337.722 42.8509 336.01 39.5485 333.596 36.5064L332.029 37.7496C334.288 40.5955 335.872 43.6611 336.794 46.95L338.72 46.41ZM333.603 36.5158C331.218 33.4341 328.331 30.9452 324.949 29.0551L323.973 30.8009C327.119 32.5588 329.8 34.8699 332.022 37.7402L333.603 36.5158ZM324.949 29.0551C321.535 27.1476 317.863 26.192 313.949 26.192V28.192C317.522 28.192 320.858 29.0604 323.973 30.8009L324.949 29.0551ZM313.949 26.192H308.189V28.192H313.949V26.192ZM307.189 27.192V98.808H309.189V27.192H307.189ZM308.189 99.808H312.989V97.808H308.189V99.808ZM312.989 99.808C317.518 99.808 321.633 98.8479 325.311 96.9086L324.378 95.1394C321.016 96.9121 317.227 97.808 312.989 97.808V99.808ZM325.317 96.9052C328.969 94.9464 332.027 92.2871 334.483 88.935L332.87 87.753C330.59 90.8649 327.76 93.3256 324.372 95.1428L325.317 96.9052ZM334.48 88.9402C336.964 85.5949 338.7 81.8213 339.69 77.6299L337.744 77.1701C336.814 81.1067 335.19 84.6291 332.874 87.7478L334.48 88.9402ZM338.717 78.4H338.909V76.4H338.717V78.4ZM337.909 77.4V99H339.909V77.4H337.909ZM338.909 98H278.909V100H338.909V98ZM325.229 74.7833C324.228 72.5468 322.849 70.3748 321.103 68.2662L319.563 69.5418C321.208 71.5292 322.485 73.5492 323.404 75.6007L325.229 74.7833ZM321.109 68.2734C319.388 66.1551 317.49 64.4037 315.412 63.0299L314.309 64.6981C316.2 65.9483 317.95 67.5569 319.557 69.5346L321.109 68.2734ZM315.422 63.0361C313.323 61.6147 311.227 60.848 309.149 60.848V62.848C310.719 62.848 312.43 63.4253 314.3 64.6919L315.422 63.0361ZM309.149 60.848H303.869V62.848H309.149V60.848ZM304.869 61.848V61.656H302.869V61.848H304.869ZM303.869 62.656H309.149V60.656H303.869V62.656ZM309.149 62.656C311.208 62.656 313.295 61.9506 315.393 60.6305L314.328 58.9375C312.459 60.1134 310.738 60.656 309.149 60.656V62.656ZM315.393 60.6305C317.471 59.3237 319.37 57.6546 321.094 55.6327L319.572 54.3353C317.967 56.2174 316.219 57.7483 314.328 58.9375L315.393 60.6305ZM321.093 55.6338C322.844 53.5851 324.226 51.441 325.229 49.2007L323.404 48.3833C322.487 50.431 321.213 52.4149 319.573 54.3342L321.093 55.6338ZM324.317 49.792H324.509V47.792H324.317V49.792ZM323.509 48.792V75.192H325.509V48.792H323.509ZM324.509 74.192H324.317V76.192H324.509V74.192ZM399.397 99.96L398.458 100.304L398.698 100.96H399.397V99.96ZM372.709 27V26H371.279L371.77 27.3435L372.709 27ZM393.445 27L394.381 26.6468L394.137 26H393.445V27ZM409.861 70.488L408.926 70.8412L409.895 73.4101L410.805 70.8192L409.861 70.488ZM425.125 27V26H424.416L424.182 26.6688L425.125 27ZM425.317 27L426.261 27.3303L426.727 26H425.317V27ZM399.781 99.96V100.96H400.491L400.725 100.29L399.781 99.96ZM372.805 27H373.805V26H372.805V27ZM372.805 98.808H371.805V99.808H372.805V98.808ZM380.293 98.808H381.293V97.808H380.293V98.808ZM380.293 99V100H381.293V99H380.293ZM365.701 99H364.701V100H365.701V99ZM365.701 98.808V97.808H364.701V98.808H365.701ZM372.613 98.808V99.808H373.613V98.808H372.613ZM372.613 27.192H373.613V26.192H372.613V27.192ZM365.221 27.192H364.221V28.192H365.221V27.192ZM365.221 27V26H364.221V27H365.221ZM452.581 27H453.581V26H452.581V27ZM452.581 27.192V28.192H453.581V27.192H452.581ZM445.861 27.192V26.192H444.861V27.192H445.861ZM445.861 98.808H444.861V99.808H445.861V98.808ZM452.581 98.808H453.581V97.808H452.581V98.808ZM452.581 99V100H453.581V99H452.581ZM417.541 99H416.541V100H417.541V99ZM417.541 98.808V97.808H416.541V98.808H417.541ZM425.221 98.808V99.808H426.221V98.808H425.221ZM425.221 27V26H424.221V27H425.221ZM400.336 99.6165L373.648 26.6565L371.77 27.3435L398.458 100.304L400.336 99.6165ZM372.709 28H393.445V26H372.709V28ZM392.51 27.3532L408.926 70.8412L410.797 70.1348L394.381 26.6468L392.51 27.3532ZM410.805 70.8192L426.069 27.3312L424.182 26.6688L408.918 70.1568L410.805 70.8192ZM425.125 28H425.317V26H425.125V28ZM424.373 26.6696L398.837 99.6296L400.725 100.29L426.261 27.3303L424.373 26.6696ZM399.781 98.96H399.397V100.96H399.781V98.96ZM371.805 27V98.808H373.805V27H371.805ZM372.805 99.808H380.293V97.808H372.805V99.808ZM379.293 98.808V99H381.293V98.808H379.293ZM380.293 98H365.701V100H380.293V98ZM366.701 99V98.808H364.701V99H366.701ZM365.701 99.808H372.613V97.808H365.701V99.808ZM373.613 98.808V27.192H371.613V98.808H373.613ZM372.613 26.192H365.221V28.192H372.613V26.192ZM366.221 27.192V27H364.221V27.192H366.221ZM365.221 28H372.805V26H365.221V28ZM451.581 27V27.192H453.581V27H451.581ZM452.581 26.192H445.861V28.192H452.581V26.192ZM444.861 27.192V98.808H446.861V27.192H444.861ZM445.861 99.808H452.581V97.808H445.861V99.808ZM451.581 98.808V99H453.581V98.808H451.581ZM452.581 98H417.541V100H452.581V98ZM418.541 99V98.808H416.541V99H418.541ZM417.541 99.808H425.221V97.808H417.541V99.808ZM426.221 98.808V27H424.221V98.808H426.221ZM425.221 28H452.581V26H425.221V28ZM495.073 75.576H494.073V76.576H495.073V75.576ZM495.073 75.384V74.384H494.073V75.384H495.073ZM519.169 75.384H520.169V74.384H519.169V75.384ZM519.169 75.576V76.576H520.169V75.576H519.169ZM522.049 25.56L522.994 25.2325L522.76 24.56H522.049V25.56ZM547.441 98.808L546.496 99.1355L546.729 99.808H547.441V98.808ZM554.209 98.808H555.209V97.808H554.209V98.808ZM554.209 99V100H555.209V99H554.209ZM516.769 99H515.769V100H516.769V99ZM516.769 98.808V97.808H515.769V98.808H516.769ZM523.441 98.808V99.808H524.815L524.392 98.5002L523.441 98.808ZM506.017 44.952L506.968 44.6442L506.059 41.8343L505.074 44.6184L506.017 44.952ZM486.961 98.808L486.018 98.4744L485.546 99.808H486.961V98.808ZM498.529 98.808H499.529V97.808H498.529V98.808ZM498.529 99V100H499.529V99H498.529ZM477.409 99H476.409V100H477.409V99ZM477.409 98.808V97.808H476.409V98.808H477.409ZM486.673 98.808V99.808H487.379L487.615 99.1421L486.673 98.808ZM512.641 25.56V24.56H511.934L511.698 25.2259L512.641 25.56ZM496.073 75.576V75.384H494.073V75.576H496.073ZM495.073 76.384H519.169V74.384H495.073V76.384ZM518.169 75.384V75.576H520.169V75.384H518.169ZM519.169 74.576H495.073V76.576H519.169V74.576ZM521.104 25.8875L546.496 99.1355L548.386 98.4805L522.994 25.2325L521.104 25.8875ZM547.441 99.808H554.209V97.808H547.441V99.808ZM553.209 98.808V99H555.209V98.808H553.209ZM554.209 98H516.769V100H554.209V98ZM517.769 99V98.808H515.769V99H517.769ZM516.769 99.808H523.441V97.808H516.769V99.808ZM524.392 98.5002L506.968 44.6442L505.065 45.2598L522.489 99.1158L524.392 98.5002ZM505.074 44.6184L486.018 98.4744L487.903 99.1416L506.959 45.2856L505.074 44.6184ZM486.961 99.808H498.529V97.808H486.961V99.808ZM497.529 98.808V99H499.529V98.808H497.529ZM498.529 98H477.409V100H498.529V98ZM478.409 99V98.808H476.409V99H478.409ZM477.409 99.808H486.673V97.808H477.409V99.808ZM487.615 99.1421L513.583 25.8941L511.698 25.2259L485.73 98.4739L487.615 99.1421ZM512.641 26.56H522.049V24.56H512.641V26.56ZM644.059 95.208L643.549 96.0686L643.555 96.0721L644.059 95.208ZM631.675 82.056L632.565 81.6006L632.565 81.6006L631.675 82.056ZM631.675 43.944L632.565 44.3994L632.565 44.3994L631.675 43.944ZM644.059 30.84L644.564 31.7028L644.566 31.7019L644.059 30.84ZM671.275 27.432L670.882 28.3518L670.89 28.3553L670.898 28.3586L671.275 27.432ZM677.323 31.32L676.642 32.0523L677.09 32.4697L677.666 32.2591L677.323 31.32ZM689.131 27V26H688.953L688.787 26.0609L689.131 27ZM689.323 27H690.323V26H689.323V27ZM689.323 49.56V50.56H690.323V49.56H689.323ZM688.939 49.56L688.04 49.9993L688.314 50.56H688.939V49.56ZM682.219 37.8L681.388 38.3565L681.39 38.36L682.219 37.8ZM674.491 29.544L673.908 30.3571L673.908 30.3571L674.491 29.544ZM657.451 29.736L656.711 29.0628L656.711 29.0633L657.451 29.736ZM652.939 38.232L653.894 38.5273L653.895 38.5249L652.939 38.232ZM650.635 49.992L651.629 50.0959L651.629 50.0951L650.635 49.992ZM650.635 76.008L651.629 75.9048L651.629 75.9048L650.635 76.008ZM652.939 87.816L651.982 88.1089L651.983 88.1113L652.939 87.816ZM657.451 96.312L656.706 96.9791L656.711 96.985L656.716 96.9907L657.451 96.312ZM673.435 97.704L673.863 98.6075L673.868 98.6052L673.435 97.704ZM680.203 92.712L679.479 92.0215L679.474 92.0273L680.203 92.712ZM685.579 85.368L684.711 84.8697L684.707 84.8773L685.579 85.368ZM689.995 76.44V75.44H689.332L689.074 76.0494L689.995 76.44ZM690.283 76.44H691.283V75.44H690.283V76.44ZM690.283 99V100H691.283V99H690.283ZM690.091 99L689.668 99.9063L689.869 100H690.091V99ZM679.387 94.008L679.809 93.1017L679.202 92.8186L678.709 93.2723L679.387 94.008ZM672.523 98.376L672.141 97.4516L672.137 97.4533L672.523 98.376ZM663.883 98.96C656.242 98.96 649.817 97.4042 644.562 94.3439L643.555 96.0721C649.18 99.3478 655.971 100.96 663.883 100.96V98.96ZM644.568 94.3474C639.322 91.2432 635.326 86.9994 632.565 81.6006L630.784 82.5114C633.719 88.2486 637.979 92.7728 643.549 96.0686L644.568 94.3474ZM632.565 81.6006C629.798 76.1923 628.403 70.0001 628.403 63H626.403C626.403 70.2719 627.855 76.7837 630.784 82.5114L632.565 81.6006ZM628.403 63C628.403 55.9999 629.798 49.8077 632.565 44.3994L630.784 43.4886C627.855 49.2163 626.403 55.7281 626.403 63H628.403ZM632.565 44.3994C635.326 39.0015 639.32 34.7747 644.564 31.7028L643.553 29.9771C637.981 33.2413 633.719 37.7505 630.784 43.4886L632.565 44.3994ZM644.566 31.7019C649.82 28.6111 656.244 27.04 663.883 27.04V25.04C655.969 25.04 649.177 26.6689 643.551 29.9781L644.566 31.7019ZM663.883 27.04C666.521 27.04 668.849 27.4847 670.882 28.3518L671.667 26.5122C669.348 25.5233 666.748 25.04 663.883 25.04V27.04ZM670.898 28.3586C672.989 29.2069 674.902 30.4353 676.642 32.0523L678.003 30.5877C676.095 28.8127 673.976 27.4491 671.651 26.5054L670.898 28.3586ZM677.666 32.2591L689.474 27.9391L688.787 26.0609L676.979 30.3809L677.666 32.2591ZM689.131 28H689.323V26H689.131V28ZM688.323 27V49.56H690.323V27H688.323ZM689.323 48.56H688.939V50.56H689.323V48.56ZM689.837 49.1207C687.676 44.7017 685.413 40.7404 683.047 37.24L681.39 38.36C683.696 41.7716 685.913 45.6503 688.04 49.9993L689.837 49.1207ZM683.049 37.2435C680.66 33.6763 678.005 30.8299 675.073 28.7309L673.908 30.3571C676.608 32.2901 679.105 34.9477 681.388 38.3565L683.049 37.2435ZM675.073 28.7309C672.079 26.5878 668.657 25.52 664.843 25.52V27.52C668.26 27.52 671.27 28.4682 673.908 30.3571L675.073 28.7309ZM664.843 25.52C661.593 25.52 658.858 26.7045 656.711 29.0628L658.19 30.4092C659.947 28.4795 662.14 27.52 664.843 27.52V25.52ZM656.711 29.0633C654.666 31.3121 653.101 34.2869 651.982 37.9391L653.895 38.5249C654.952 35.073 656.395 32.3839 658.19 30.4087L656.711 29.0633ZM651.983 37.9367C650.873 41.5292 650.093 45.5149 649.64 49.8888L651.629 50.0951C652.072 45.8291 652.828 41.9748 653.894 38.5273L651.983 37.9367ZM649.64 49.8881C649.188 54.2112 648.963 58.5819 648.963 63H650.963C650.963 58.6501 651.185 54.3488 651.629 50.0959L649.64 49.8881ZM648.963 63C648.963 67.3864 649.188 71.7568 649.64 76.1111L651.629 75.9048C651.185 71.6192 650.963 67.3176 650.963 63H648.963ZM649.64 76.1111C650.093 80.485 650.873 84.4857 651.982 88.1089L653.895 87.5231C652.828 84.0423 652.072 80.171 651.629 75.9048L649.64 76.1111ZM651.983 88.1113C653.102 91.7318 654.666 94.7022 656.706 96.9791L658.195 95.6449C656.395 93.6338 654.951 90.9402 653.894 87.5207L651.983 88.1113ZM656.716 96.9907C658.865 99.3155 661.599 100.48 664.843 100.48V98.48C662.134 98.48 659.94 97.5325 658.185 95.6333L656.716 96.9907ZM664.843 100.48C668.198 100.48 671.212 99.865 673.863 98.6075L673.006 96.8005C670.665 97.911 667.951 98.48 664.843 98.48V100.48ZM673.868 98.6052C676.511 97.334 678.866 95.5954 680.931 93.3967L679.474 92.0273C677.571 94.0526 675.414 95.642 673.001 96.8028L673.868 98.6052ZM680.926 93.4025C683.004 91.2249 684.845 88.7085 686.45 85.8587L684.707 84.8773C683.176 87.5955 681.433 89.9751 679.479 92.0215L680.926 93.4025ZM686.446 85.8663C688.067 83.0451 689.557 80.0329 690.915 76.8305L689.074 76.0494C687.744 79.1831 686.29 82.1229 684.711 84.8697L686.446 85.8663ZM689.995 77.44H690.283V75.44H689.995V77.44ZM689.283 76.44V99H691.283V76.44H689.283ZM690.283 98H690.091V100H690.283V98ZM690.513 98.0937L679.809 93.1017L678.964 94.9143L689.668 99.9063L690.513 98.0937ZM678.709 93.2723C676.781 95.0476 674.593 96.44 672.141 97.4516L672.904 99.3004C675.572 98.2 677.96 96.6804 680.064 94.7437L678.709 93.2723ZM672.137 97.4533C669.751 98.45 667.006 98.96 663.883 98.96V100.96C667.223 100.96 670.238 100.414 672.908 99.2987L672.137 97.4533ZM717.503 99H716.503V100H717.503V99ZM717.503 98.808V97.808H716.503V98.808H717.503ZM728.062 98.808V99.808H729.062V98.808H728.062ZM728.062 27.192H729.062V26.192H728.062V27.192ZM717.503 27.192H716.503V28.192H717.503V27.192ZM717.503 27V26H716.503V27H717.503ZM760.223 27H761.223V26H760.223V27ZM760.223 27.192V28.192H761.223V27.192H760.223ZM748.703 27.192V26.192H747.703V27.192H748.703ZM748.703 98.808H747.703V99.808H748.703V98.808ZM760.223 98.808H761.223V97.808H760.223V98.808ZM760.223 99V100H761.223V99H760.223ZM718.503 99V98.808H716.503V99H718.503ZM717.503 99.808H728.062V97.808H717.503V99.808ZM729.062 98.808V27.192H727.062V98.808H729.062ZM728.062 26.192H717.503V28.192H728.062V26.192ZM718.503 27.192V27H716.503V27.192H718.503ZM717.503 28H760.223V26H717.503V28ZM759.223 27V27.192H761.223V27H759.223ZM760.223 26.192H748.703V28.192H760.223V26.192ZM747.703 27.192V98.808H749.703V27.192H747.703ZM748.703 99.808H760.223V97.808H748.703V99.808ZM759.223 98.808V99H761.223V98.808H759.223ZM760.223 98H717.503V100H760.223V98ZM797.545 99H796.545V100H797.545V99ZM797.545 98.808V97.808H796.545V98.808H797.545ZM808.105 98.808V99.808H809.105V98.808H808.105ZM808.105 27.192H809.105V26.192H808.105V27.192ZM798.553 29.256L799.096 30.0959L799.099 30.0939L798.553 29.256ZM792.793 34.776L791.994 34.1742L791.993 34.176L792.793 34.776ZM788.281 42.6L789.195 43.0061L789.196 43.0024L788.281 42.6ZM785.257 51.48V52.48H786.044L786.229 51.7153L785.257 51.48ZM785.065 51.48H784.065V52.48H785.065V51.48ZM785.065 27V26H784.065V27H785.065ZM851.785 27H852.785V26H851.785V27ZM851.785 51.48V52.48H852.785V51.48H851.785ZM851.593 51.48L850.619 51.7056L850.798 52.48H851.593V51.48ZM848.569 42.6L847.653 43.0024L847.659 43.0146L848.569 42.6ZM844.009 34.776L843.205 35.3707L843.21 35.3769L843.214 35.383L844.009 34.776ZM838.249 29.256L837.697 30.09L837.705 30.0949L837.712 30.0997L838.249 29.256ZM828.745 27.192V26.192H827.745V27.192H828.745ZM828.745 98.808H827.745V99.808H828.745V98.808ZM839.305 98.808H840.305V97.808H839.305V98.808ZM839.305 99V100H840.305V99H839.305ZM798.545 99V98.808H796.545V99H798.545ZM797.545 99.808H808.105V97.808H797.545V99.808ZM809.105 98.808V27.192H807.105V98.808H809.105ZM808.105 26.192H805.225V28.192H808.105V26.192ZM805.225 26.192C802.68 26.192 800.268 26.9451 798.007 28.4181L799.099 30.0939C801.062 28.8149 803.098 28.192 805.225 28.192V26.192ZM798.01 28.4161C795.816 29.8342 793.812 31.761 791.994 34.1742L793.592 35.3777C795.294 33.119 797.13 31.3658 799.096 30.0959L798.01 28.4161ZM791.993 34.176C790.215 36.5472 788.673 39.2227 787.366 42.1976L789.196 43.0024C790.449 40.1533 791.915 37.6128 793.593 35.376L791.993 34.176ZM787.367 42.1939C786.063 45.1285 785.035 48.1457 784.285 51.2447L786.229 51.7153C786.951 48.7343 787.939 45.8315 789.195 43.0061L787.367 42.1939ZM785.257 50.48H785.065V52.48H785.257V50.48ZM786.065 51.48V27H784.065V51.48H786.065ZM785.065 28H851.785V26H785.065V28ZM850.785 27V51.48H852.785V27H850.785ZM851.785 50.48H851.593V52.48H851.785V50.48ZM852.567 51.2544C851.848 48.1485 850.818 45.1253 849.479 42.1854L847.659 43.0146C848.944 45.8347 849.93 48.7315 850.619 51.7056L852.567 51.2544ZM849.484 42.1976C848.176 39.2198 846.616 36.5419 844.804 34.169L843.214 35.383C844.922 37.6181 846.402 40.1562 847.654 43.0024L849.484 42.1976ZM844.813 34.1813C843.024 31.7622 841.017 29.8319 838.786 28.4123L837.712 30.0997C839.705 31.3681 841.538 33.1178 843.205 35.3707L844.813 34.1813ZM838.801 28.422C836.569 26.9454 834.171 26.192 831.625 26.192V28.192C833.751 28.192 835.769 28.8146 837.697 30.09L838.801 28.422ZM831.625 26.192H828.745V28.192H831.625V26.192ZM827.745 27.192V98.808H829.745V27.192H827.745ZM828.745 99.808H839.305V97.808H828.745V99.808ZM838.305 98.808V99H840.305V98.808H838.305ZM839.305 98H797.545V100H839.305V98ZM893.908 99H892.908V100H893.908V99ZM893.908 98.808V97.808H892.908V98.808H893.908ZM902.548 98.808V99.808H903.548V98.808H902.548ZM902.548 64.44H903.548V64.1825L903.423 63.957L902.548 64.44ZM882.004 27.192L882.879 26.709L882.594 26.192H882.004V27.192ZM876.148 27.192H875.148V28.192H876.148V27.192ZM876.148 27V26H875.148V27H876.148ZM915.508 27H916.508V26H915.508V27ZM915.508 27.192V28.192H916.508V27.192H915.508ZM906.004 27.192V26.192H904.405L905.104 27.6293L906.004 27.192ZM922.996 62.136L922.096 62.5733L923.036 64.5052L923.909 62.5426L922.996 62.136ZM938.548 27.192L939.461 27.5986L940.087 26.192H938.548V27.192ZM927.508 27.192H926.508V28.192H927.508V27.192ZM927.508 27V26H926.508V27H927.508ZM947.668 27H948.668V26H947.668V27ZM947.668 27.192V28.192H948.668V27.192H947.668ZM938.836 27.192V26.192H938.187L937.922 26.7842L938.836 27.192ZM923.188 62.232L922.274 61.8242L922.188 62.0189V62.232H923.188ZM923.188 98.808H922.188V99.808H923.188V98.808ZM932.788 98.808H933.788V97.808H932.788V98.808ZM932.788 99V100H933.788V99H932.788ZM894.908 99V98.808H892.908V99H894.908ZM893.908 99.808H902.548V97.808H893.908V99.808ZM903.548 98.808V64.44H901.548V98.808H903.548ZM903.423 63.957L882.879 26.709L881.128 27.675L901.672 64.923L903.423 63.957ZM882.004 26.192H876.148V28.192H882.004V26.192ZM877.148 27.192V27H875.148V27.192H877.148ZM876.148 28H915.508V26H876.148V28ZM914.508 27V27.192H916.508V27H914.508ZM915.508 26.192H906.004V28.192H915.508V26.192ZM905.104 27.6293L922.096 62.5733L923.895 61.6987L906.903 26.7547L905.104 27.6293ZM923.909 62.5426L939.461 27.5986L937.634 26.7854L922.082 61.7294L923.909 62.5426ZM938.548 26.192H927.508V28.192H938.548V26.192ZM928.508 27.192V27H926.508V27.192H928.508ZM927.508 28H947.668V26H927.508V28ZM946.668 27V27.192H948.668V27H946.668ZM947.668 26.192H938.836V28.192H947.668V26.192ZM937.922 26.7842L922.274 61.8242L924.101 62.6398L939.749 27.5998L937.922 26.7842ZM922.188 62.232V98.808H924.188V62.232H922.188ZM923.188 99.808H932.788V97.808H923.188V99.808ZM931.788 98.808V99H933.788V98.808H931.788ZM932.788 98H893.908V100H932.788V98Z" fill="#F5C57F"/>
</g>
<defs>
<filter id="filter0_dd_12_34" x="0.840027" y="0.560059" width="971.827" height="124.4" filterUnits="userSpaceOnUse" color-interpolation-filters="sRGB">
<feFlood flood-opacity="0" result="BackgroundImageFix"/>
<feColorMatrix in="SourceAlpha" type="matrix" values="0 0 0 0 0 0 0 0 0 0 0 0 0 0 0 0 0 0 127 0" result="hardAlpha"/>
<feOffset/>
<feGaussianBlur stdDeviation="12.5"/>
<feComposite in2="hardAlpha" operator="out"/>
<feColorMatrix type="matrix" values="0 0 0 0 0.960784 0 0 0 0 0.772549 0 0 0 0 0.498039 0 0 0 1 0"/>
<feBlend mode="normal" in2="BackgroundImageFix" result="effect1_dropShadow_12_34"/>
<feColorMatrix in="SourceAlpha" type="matrix" values="0 0 0 0 0 0 0 0 0 0 0 0 0 0 0 0 0 0 127 0" result="hardAlpha"/>
<feOffset/>
<feGaussianBlur stdDeviation="12.5"/>
<feComposite in2="hardAlpha" operator="out"/>
<feColorMatrix type="matrix" values="0 0 0 0 0.960784 0 0 0 0 0.772549 0 0 0 0 0.498039 0 0 0 0.5 0"/>
<feBlend mode="normal" in2="effect1_dropShadow_12_34" result="effect2_dropShadow_12_34"/>
<feBlend mode="normal" in="SourceGraphic" in2="effect2_dropShadow_12_34" result="shape"/>
</filter>
</defs>
</svg>
