<?xml version="1.0" encoding="UTF-8"?>
<svg id="a" data-name="Lager 1" xmlns="http://www.w3.org/2000/svg" viewBox="0 0 539.15 549.5">
  <defs>
    <style>
      .b {
        fill: #99c76c;
      }

      .c {
        fill: #596876;
      }

      .d {
        fill: #853046;
      }

      .e {
        fill: #fff;
        opacity: .18;
      }

      .f {
        fill: #a69d82;
      }

      .g {
        fill: #75a843;
      }

      .h {
        fill: #43474d;
      }

      .i {
        fill: #010101;
        opacity: .29;
      }

      .j {
        fill: #89bd5c;
      }

      .k {
        fill: #d8d8d7;
      }

      .l {
        fill: #ac495a;
      }

      .m {
        fill: #628f2f;
      }
    </style>
  </defs>
  <path class="c" d="m385.39,406.09c-.05,2.06-.11,4.14-.18,6.23-.1,3.15-.21,6.34-.35,9.56-.29,6.66-.69,13.42-1.21,20.1-.16,2.22-.35,4.44-.55,6.65-.16,1.84-.34,3.66-.53,5.47-.44,4.21-.93,8.36-1.5,12.41-.68,5.01-1.48,9.86-2.37,14.48-.87,4.49-1.84,8.77-2.94,12.75-3.04,11.11-6.97,20.03-12.04,25.33-34.91,36.45-133.2,40.02-181.73,11.48-2.33-1.38-4.55-2.81-6.65-4.34-3.05-2.22-5.84-4.6-8.31-7.14-2.96-3.04-5.55-7.35-7.82-12.61-.76-1.75-1.48-3.61-2.16-5.56-4.2-11.98-7.11-27.56-9.12-44.18-.4-3.43-.78-6.91-1.12-10.4-4.59-47.38-2.71-98.87-2.71-98.87,0,0,17.09-15.18,72.46-21.55,13.28-1.54,28.77-2.56,46.75-2.74,72.08-.75,121.34,19.03,121.34,19.03,0,0,1.55,29.02.74,63.91Z"/>
  <path class="f" d="m381.06,466.51c-.68,5.01-1.48,9.86-2.37,14.48-.87,4.49-1.84,8.77-2.94,12.75-3.22-1.53-6.14-2.51-8.64-2.76-4.58-.45-12.3,6.6-16.81,7.57-6.84,1.46-20.99,0-27.99,0-18.25,0-55.66-5.64-73.02,0-7.66,2.49-18.82,15.44-26.08,18.92-8.45,4.05-24.87,8.85-41.23,13.08-2.33-1.38-4.55-2.81-6.65-4.34-3.05-2.22-5.84-4.6-8.31-7.14-2.96-3.04-5.55-7.35-7.82-12.61,17.11,1.58,37.81,3.44,40.98,3.44,5.54,0,15.45-3.32,20.1-5.68,7.63-3.86,20.66-15.9,28.86-18.29,11.72-3.4,36.6.15,48.81,0,12.23-.15,37.16,2.02,48.95-1.26,8.61-2.4,22.44-15.37,31.07-17.66.83-.21,1.89-.39,3.09-.5Z"/>
  <path class="f" d="m385.39,406.09c-.05,2.06-.11,4.14-.18,6.23-.1,3.15-.21,6.34-.35,9.56-2.16-.72-4.92-1.63-7.78-2.52-.32-.1-.64-.2-.97-.3-4.45-1.37-8.97-2.64-11.53-3-6.91-1.01-21-.66-27.95,0-9.67.91-28.96,4.14-38.15,7.24-11.46,3.88-43.3,21.68-43.3,21.68,0,0,32.16,11.1,43.3,10.69,9.88-.35,27.82-10.64,37.57-12.2,8.22-1.3,22.53-1.67,37.47-1.59,1.01,0,2.02,0,3.02.01,2.37.03,4.75.05,7.11.09-.16,2.22-.35,4.44-.55,6.65-.16,1.84-.34,3.66-.53,5.47-11.35-.02-22.02.35-28.26,1.56-11.63,2.25-32.12,17.29-43.95,17.66-15.68.49-43.7-17.42-59.88-20.01-.4-.06-.79-.11-1.17-.16-7.23-.84-22.34-.39-29.01,2.52-.67.29-1.34.72-2.03,1.26-5.5,4.3-11.62,15.46-17.38,16.4-11.54,1.88-31.1-18.32-42.78-18.92-2.31-.11-6.22.95-10.16,2.31-.4-3.43-.78-6.91-1.12-10.4,25.51,1.24,64.56.97,81.38-2.84,20.49-4.63,57.3-26.37,77.02-33.62,10.22-3.76,30.8-12.33,41.68-12.59,8.26-.19,26.5,5.04,38.49,8.83Z"/>
  <path class="k" d="m298.48,423.29c-11.46,3.88-43.3,21.68-43.3,21.68,0,0,32.16,11.1,43.3,10.69,9.88-.35,27.82-10.64,37.57-12.2,8.22-1.3,22.53-1.67,37.47-1.59,1.01,0,2.02,0,3.02.01,2.37.03,4.75.05,7.11.09-.16,2.22-.35,4.44-.55,6.65-15.27.13-29.95.66-38.37,1.99-9.13,1.44-26.17,9.55-35.31,10.93-5.93.9-18.06,1.01-23.96,0-7.14-1.24-20.09-9.29-27.33-9.67-1.93-.1-4.84.66-7.66,1.43-.4-.06-.79-.11-1.17-.16-7.23-.84-22.34-.39-29.01,2.52-.67.29-1.34.72-2.03,1.26-5.35.16-10.33.09-13.94-.42-2.32-.33-8.89-2.95-8.89-2.95,0,0,32.97-3.2,43.36-6.72,4.99-1.69,13.8-7.71,18.5-10.09,9.52-4.82,28.47-14.98,38.67-18.07,8.95-2.72,26.93-7.28,36.16-8.83,7.79-1.31,24.05-2.91,31.95-2.52,4.65.21,13.17,2.52,21.15,5-.1,3.15-.21,6.34-.35,9.56-2.16-.72-4.92-1.63-7.78-2.52-.32-.1-.64-.2-.97-.3-4.45-1.37-8.97-2.64-11.53-3-6.91-1.01-21-.66-27.95,0-9.67.91-28.96,4.14-38.15,7.24Z"/>
  <path class="k" d="m378.69,480.99c-.87,4.49-1.84,8.77-2.94,12.75-3.22-1.53-6.14-2.51-8.64-2.76-4.58-.45-12.3,6.6-16.81,7.57-6.84,1.46-20.99,0-27.99,0-18.25,0-55.66-5.64-73.02,0-7.66,2.49-18.82,15.44-26.08,18.92-8.45,4.05-24.87,8.85-41.23,13.08-2.33-1.38-4.55-2.81-6.65-4.34,9.79-2.04,18.87-4.01,24.35-5.37,5.94-1.48,18.12-3.88,23.55-6.73,7.47-3.92,18.34-18.04,26.06-21.44,6.13-2.7,19.8-3.91,26.49-3.78,7.59.15,22.31,4.7,29.85,5.47,10.67,1.07,32.4,3.07,42.88.83,8.16-1.73,21.95-12.85,30.18-14.19Z"/>
  <path class="i" d="m385.39,406.09c-.05,2.06-.11,4.14-.18,6.23-.1,3.15-.21,6.34-.35,9.56-.29,6.66-.69,13.42-1.21,20.1-.16,2.22-.35,4.44-.55,6.65-.16,1.84-.34,3.66-.53,5.47-.44,4.21-.93,8.36-1.5,12.41-.68,5.01-1.48,9.86-2.37,14.48-.87,4.49-1.84,8.77-2.94,12.75-3.04,11.11-6.97,20.03-12.04,25.33-34.91,36.45-133.2,40.02-181.73,11.48-2.33-1.38-4.55-2.81-6.65-4.34-3.05-2.22-5.84-4.6-8.31-7.14-2.96-3.04-5.55-7.35-7.82-12.61-.76-1.75-1.48-3.61-2.16-5.56,19.69,9.35,54.75,21.35,87.63,9,43.88-16.48,29.42-148.59,29.42-148.59l-50.89,4.4-2.93-25.65-3.73-14.16c13.28-1.54,28.77-2.56,46.75-2.74,72.08-.75,121.34,19.03,121.34,19.03,0,0,1.55,29.02.74,63.91Z"/>
  <ellipse class="h" cx="264.67" cy="361.3" rx="106.57" ry="16.36"/>
  <path class="g" d="m524.66,267.75s-5.5-26.56-9.67-34.47c-3.58-6.8-19.76-23.55-19.76-23.55,0,0,8.34,23.95,5.04,31.11-4.88,10.62-39.93,24.38-39.93,24.38,0,0,22.07-1.87,28.16,1.68,7.68,4.48,19.33,29.85,19.33,29.85,0,0-22.4,6.85-30.05,6.31-4.49-.32-16.65-5.94-17.4-6.29,1.17.92,34.76,27.02,29.8,57.81-3.13,19.49-51.28,55.27-51.28,55.27l-24.34-28.59h-25.55l-1.66,25.22s-27.04-2.04-35.05-5.89c-10.9-5.22-34.1-29.13-40.36-35.7-.91-.95-1.45-1.54-1.56-1.65.09.19.68,1.27,1.56,2.99,4.09,7.96,14.39,29.45,10.87,37.18-6.18,13.57-53.75,33.35-53.75,33.35,0,0-27.75-23.55-24.38-50.12,2.46-19.45,23.53-32.05,23.53-32.05l-19.07-41.43s4.78,21.86-4.46,41.43c-12.76,27.01-43.31,43.49-43.31,43.49,0,0-72.63-14.64-81.98-34.86-3.83-8.3,10.93-34.92,10.93-34.92l-29.04-10.58s1.64,16.4,0,21.52c-4.45,13.87-33.95,47.41-33.95,47.41,0,0-26.13-39.01-17.72-63.39,3.57-10.35,34.9-26.49,34.9-26.49l-17.18-18.73s8.5,18.73-11.41,29.23c-18.75,9.9-42.46-10.51-42.46-10.51l30.27-47.96-19.33-11.97s17.33-41.05,29.51-48.22c12.49-7.34,57.91-2.42,57.91-2.42,0,0-26.08-15-31.09-23.33-4.09-6.78-4.89-31.32-4.89-31.32l54.5,22.7,31.11-28.59s-22.69-9.17-26.49-15.89c-2.52-4.43,0-20.39,0-20.39l20.48-25.83,32.85-17.38s58.6,2.62,68.16,17.38c5.78,8.94-7.3,41.94-7.3,41.94,0,0,29.47-4.86,39.25-3.62,5.7.72,20.96,7.34,22.85,8.16-2.41-1.16-27.34-13.26-31.68-21.29-3.69-6.86-.33-31.18-.33-31.18l47.77,17.37s25.8-13.42,34.8-11.63c7.29,1.45,22.44,19.48,22.44,19.48h45.4s8.26,22.84,5.89,43.73c-3.37,29.5-10.86,42.04-10.86,42.04,0,0,44.22-8.08,58.78-5.68,10.92,1.82,40.36,18.29,40.36,18.29l-28.59,13.46s37.9,10.18,42.88,21.02c5.63,12.22-13.44,52.13-13.44,52.13Z"/>
  <path class="m" d="m524.66,267.75s-5.5-26.56-9.67-34.47c-3.58-6.8-19.76-23.55-19.76-23.55,0,0,8.34,23.95,5.04,31.11-4.88,10.62-39.93,24.38-39.93,24.38,0,0,22.07-1.87,28.16,1.68,7.68,4.48,19.33,29.85,19.33,29.85,0,0-22.4,6.85-30.05,6.31-4.49-.32-16.65-5.94-17.4-6.29,1.17.92,34.76,27.02,29.8,57.81-3.13,19.49-51.28,55.27-51.28,55.27l-24.34-28.59h-25.55l-1.66,25.22s-27.04-2.04-35.05-5.89c-10.9-5.22-34.1-29.13-40.36-35.7v-10.3h72.3l-13.46,23.08,43.78-8.27h39.48l6.31-41.95-73-52.97s22.22-46.06,37.33-49.82c9.42-2.33,34.9,16.25,35.65,16.79-.1-.81-4.12-31.48.01-40.61,3.15-6.99,17.61-15.48,24.85-18,9.13-3.18,38.63-1.69,38.63-1.69l-28.59,13.46s37.9,10.18,42.88,21.02c5.63,12.22-13.44,52.13-13.44,52.13Z"/>
  <path class="m" d="m311.94,366.22c4.09,7.96,14.39,29.45,10.87,37.18-6.18,13.57-53.75,33.35-53.75,33.35,0,0-27.75-23.55-24.38-50.12,2.46-19.45,23.53-32.05,23.53-32.05l-19.07-41.43s4.78,21.86-4.46,41.43c-12.76,27.01-43.31,43.49-43.31,43.49,0,0-72.63-14.64-81.98-34.86-3.83-8.3,10.93-34.92,10.93-34.92l-29.04-10.58s1.64,16.4,0,21.52c-4.45,13.87-33.95,47.41-33.95,47.41,0,0,1.5-40.4,6.92-52.45,4.24-9.4,27.03-31.11,27.03-31.11l15.59-30.27,14.49,30.27,76.32,4.2s-17.34-69.68-5.38-88.28c11.15-17.33,76.95-29.53,76.95-29.53l-26.99,97.63,46.24,43.73-36.87,50.45,9.96,34.8,40.36-29.23v-20.6Z"/>
  <path class="j" d="m73.15,287.09s-10-47.32-3.78-61.38c5.51-12.44,42.46-34.05,42.46-34.05,0,0,26.41,36,23.12,49.19-4.67,18.72-61.8,46.24-61.8,46.24Z"/>
  <path class="j" d="m0,257.66s47.74-1.07,61.38-8.41c16.85-9.07,50.45-57.6,50.45-57.6,0,0-53.23.57-68.11,9.17C28.2,209.8,0,257.66,0,257.66Z"/>
  <path class="j" d="m55.91,126.49s1.27,36.31,9.67,43.71c12.2,10.74,64.74,5.9,64.74,5.9,0,0-11.85-58.37-28.17-65.58-11.19-4.95-46.24,15.97-46.24,15.97Z"/>
  <path class="j" d="m0,176.1s39.12-2.34,47.7-11.07c6.9-7.03,8.22-38.54,8.22-38.54,0,0-29.27,4.41-36.57,10.51C10.97,143.99,0,176.1,0,176.1Z"/>
  <path class="j" d="m95.34,63.43s-33.81,14.96-39.43,25.22c-4.54,8.3,0,37.84,0,37.84,0,0,33.68-11.44,39.43-21.02,5.41-9.01,0-42.04,0-42.04Z"/>
  <path class="j" d="m246.78,296.76s-26.16-56.4-16.4-72.1c13.59-21.83,100.06-23.83,100.06-23.83,0,0-.95,47.98-10.09,60.2-12.25,16.37-73.57,35.73-73.57,35.73Z"/>
  <path class="j" d="m402.74,323.24s-62.19-33.68-72.31-53.81c-7.7-15.33,0-68.6,0-68.6,0,0,68.35,10.48,79.88,28.25,12.85,19.82-7.57,94.17-7.57,94.17Z"/>
  <path class="j" d="m361.81,57.55s-25.22-2.35-31.38-7.57c-7.39-6.26-15.13-35.66-15.13-35.66,0,0,39.12,2.01,46.51,11.43,4.9,6.25,0,31.79,0,31.79Z"/>
  <path class="j" d="m416.2,46.16s-20.54,15.97-28.85,17.28c-6.47,1.02-25.54-5.88-25.54-5.88,0,0,3.43-18.89,8.56-21.61,10.37-5.49,45.82,10.22,45.82,10.22Z"/>
  <path class="j" d="m178.25,35.94s-45.44.18-55.28,10.22c-12.01,12.25-11.14,67.73-11.14,67.73,0,0,46.11-27.82,56.07-42.27,5.27-7.65,10.35-35.67,10.35-35.67Z"/>
  <path class="j" d="m215.25,72.26c11.18,4.53,47.08,10.51,47.08,10.51,0,0-.61-48.7-12.61-57.02-14.84-10.28-71.47,10.18-71.47,10.18,0,0,15.22,27.5,37,36.32Z"/>
  <path class="j" d="m195.28,94.96s-39.21,27.58-39.83,42.04c-.78,18.4,45.93,57.59,45.93,57.59,0,0,51.93-47.82,47.5-68.11-3.32-15.19-53.6-31.53-53.6-31.53Z"/>
  <path class="j" d="m339.01,303.06s-52.33,15.02-58.6,30.27c-7.65,18.6,24.8,76.51,24.8,76.51,0,0,68.01-22.27,73.15-42.82,4.55-18.21-39.35-63.96-39.35-63.96Z"/>
  <path class="j" d="m460.34,110.1s-24.58,24.03-24.8,34.68c-.45,21.14,46.24,70.84,46.24,70.84,0,0,26.78-57.24,20.18-75.67-4.32-12.06-41.62-29.85-41.62-29.85Z"/>
  <path class="j" d="m389.01,67.64s15.28,40.09,27.19,46.24c9.84,5.08,44.14-3.78,44.14-3.78,0,0-4.64-36.67-13.87-43.3-11.67-8.38-57.46.84-57.46.84Z"/>
  <path class="j" d="m495.23,90.34s-1.61,20.19-6.73,23.54c-5.94,3.89-28.17-3.78-28.17-3.78,0,0,3.93-16.8,8.41-19.76,5.52-3.65,26.49,0,26.49,0Z"/>
  <path class="j" d="m185.82,233.28s-50.83,43.14-50.87,63.48c-.05,26.99,67.21,84.5,67.21,84.5,0,0,43.62-66.49,39.15-90.81-3.6-19.59-55.49-57.17-55.49-57.17Z"/>
  <path class="b" d="m161.43,376.21s-20.37,17.15-20.18,25.22c.33,14,36.99,42.04,36.99,42.04,0,0,21.46-41.96,15.13-54.65-3.83-7.69-31.95-12.61-31.95-12.61Z"/>
  <path class="b" d="m84.5,418.67s12-57.15,28.17-63.48c12.36-4.84,48.77,21.02,48.77,21.02,0,0-15.56,28.16-24.38,33.63-11.32,7.02-52.55,8.83-52.55,8.83Z"/>
  <path class="b" d="m241.31,413.21s-42.6,6.39-54.68,0c-9.89-5.23-25.2-37-25.2-37,0,0,29.92-15.64,39.94-12.61,15.24,4.61,39.94,49.61,39.94,49.61Z"/>
  <path class="l" d="m101.28,403.12s12.7-28.81,21.69-32.79c8.89-3.94,38.47,5.88,38.47,5.88,0,0-21.47,23.32-31.11,26.91-6.8,2.53-29.04,0-29.04,0Z"/>
  <path class="l" d="m196.44,376.21c-7.98-3.59-35.01,0-35.01,0,0,0-7.71,20.23-6,26.91,1.67,6.51,17.77,20.18,17.77,20.18,0,0,8.07-17.52,6.9-23.54-.37-1.87-1.76-4.32-3.62-6.92,4.73,4.7,9.6,8.91,13.02,10.28,7.14,2.87,30.79,0,30.79,0,0,0-15.65-23.22-23.85-26.91Z"/>
  <path class="d" d="m194.55,337.54s-37.22-26.85-38.16-40.78c-.91-13.5,31.35-44.14,31.35-44.14,0,0,33.97,24.27,35.41,37,1.57,13.86-28.6,47.93-28.6,47.93Z"/>
  <polygon class="d" points="254.34 274.05 249.3 224.45 336.62 204.69 403.17 233.28 388.48 295.08 339.01 262.03 336.62 212.58 301.01 260.77 254.34 274.05"/>
  <path class="d" d="m20.18,243.15s22.77-29.29,33.72-34.26c16.18-7.35,58.35-16.72,70.96-4.2,6.53,6.48,2.66,28.77-1.89,36.76-6.06,10.64-40.78,27.14-40.78,27.14l-6.37-35.32-55.64,9.88Z"/>
  <path class="d" d="m195.28,105.47s-27.17,21.09-27.37,31.53c-.25,12.87,32.21,40.18,32.21,40.18,0,0,36.06-31.78,33.63-45.77-1.98-11.43-38.47-25.95-38.47-25.95Z"/>
  <path class="d" d="m311.94,386.82s-17.22-37.08-13.45-49.28c3.93-12.71,40.52-34.47,40.52-34.47,0,0,27.23,39.57,22.8,53.39-4.46,13.9-49.87,30.37-49.87,30.37Z"/>
  <path class="d" d="m460.34,110.1s-14.41,31.25-12.19,41.94c2.36,11.36,29.64,35.72,29.64,35.72,0,0,19.12-28.46,17.45-39.01-2.03-12.86-34.89-38.65-34.89-38.65Z"/>
  <path class="d" d="m396.86,72.68s30.15-4.57,38.67,0c9.89,5.31,24.81,37.41,24.81,37.41,0,0-27.77-.33-35.67-4.62-9.44-5.14-27.81-32.79-27.81-32.79Z"/>
  <path class="d" d="m485.14,97.07s-10.3-3.38-13.45-2.1c-4.38,1.78-11.35,15.13-11.35,15.13,0,0,13.69,1.88,17.45-.33,3.16-1.86,7.36-12.7,7.36-12.7Z"/>
  <path class="d" d="m55.91,126.49s-25.9,11.74-32.37,18.43c-3.77,3.9-10.09,19.21-10.09,19.21,0,0,27.35-2.19,33.63-8.14,5.59-5.3,8.83-29.5,8.83-29.5Z"/>
  <path class="d" d="m84.5,80.67s-24.46,9.26-28.59,16.39c-3.69,6.37,0,29.43,0,29.43,0,0,22.26-10.06,26.28-16.73,3.76-6.25,2.31-29.09,2.31-29.09Z"/>
  <path class="d" d="m116.87,155.99s-7.61-28.8-15.59-33.42c-9.86-5.7-45.37,3.92-45.37,3.92,0,0,5.84,31.47,14.29,36.37,10.2,5.91,46.66-6.87,46.66-6.87Z"/>
  <path class="d" d="m167.9,40.1s-31.01,5.28-37.58,12.72c-6.06,6.87-7.36,35.9-7.36,35.9,0,0,31.87-8.9,38.47-17.11,5.04-6.27,6.47-31.51,6.47-31.51Z"/>
  <path class="d" d="m249.15,64.41s-25.35,2.97-33.06,0c-8.46-3.26-26.91-24.31-26.91-24.31,0,0,34.33-15.4,44.56-10.3,8.47,4.22,15.4,34.61,15.4,34.61Z"/>
  <path class="d" d="m443.1,389.63s-31.25-40.67-26.9-55.46c3.64-12.4,37.83-37.42,37.83-37.42,0,0,32.63,39.77,31.11,51.69-1.86,14.59-42.04,41.18-42.04,41.18Z"/>
  <path class="d" d="m450.67,278.68s19.23,15.69,27.12,16.4c5.55.49,20.81-5.47,20.81-5.47,0,0-10.78-19.42-16.82-21.02-7.9-2.1-31.11,10.09-31.11,10.09Z"/>
  <path class="b" d="m164.73,253.42c-1.01,2.7-1.61,4.24-1.61,4.24,0,0-60.74-36.09-67.26-57.17-3.54-11.45,12.61-46.25,12.61-46.25,0,0,21.73-.15,41.18,2.96,12.8,2.04,24.62,5.5,28.6,11.32,10.87,15.89-7.77,69.4-13.52,84.89Z"/>
  <path class="b" d="m30.27,191.66s20.62-36.39,32.79-41.62c10.48-4.5,45.4,4.2,45.4,4.2,0,0-17.16,22.43-25.22,26.91-11.8,6.55-52.97,10.51-52.97,10.51Z"/>
  <path class="b" d="m161.43,125.65s-36.41-6.92-45.4,0c-5.86,4.51-7.57,28.59-7.57,28.59,0,0,26.21,3.94,33.63,0,7.62-4.04,19.34-28.59,19.34-28.59Z"/>
  <path class="l" d="m108.46,154.24s-2.95,36.76,3.36,46.59c6.72,10.45,43.61,23.83,43.61,23.83,0,0,13.05-41.25,6-52.38-7.48-11.82-52.97-18.04-52.97-18.04Z"/>
  <path class="l" d="m141.25,132.38s-14.26-2.16-18.29,0c-5.78,3.1-14.5,21.86-14.5,21.86,0,0,17.28.13,21.86-2.94,4.54-3.04,10.93-18.92,10.93-18.92Z"/>
  <path class="l" d="m55.91,172.27s6.74-15.46,11.41-18.04c9.01-4.96,41.14,0,41.14,0,0,0-18.09,19.29-26.27,21.62-6.38,1.81-26.28-3.58-26.28-3.58Z"/>
  <path class="b" d="m352.3,168.53s0,.01-.01.04c0,.01,0,.03-.01.05,0,.04-.01.09-.04.15-.6,2.02-4.96,16.43-10.12,27.52-2.41,5.17-5.01,9.62-7.48,11.77-17.68,15.26-89.96,25.22-89.96,25.22,0,0,7-22.75,16.94-44.6,8-17.58,17.91-34.58,27.62-38.64,7.66-3.21,23.68,1.55,37.67,7.05,12.91,5.07,24.06,10.76,25.27,11.39.04.02.06.04.09.04.01,0,.02.01.02.01Z"/>
  <path class="b" d="m352.31,168.52h-.01s-.01,0-.02,0c-.03,0-.05-.01-.09-.04-1.34-.49-14.2-5.31-25.27-11.39-7.39-4.06-13.99-8.68-15.82-12.94-3.91-9.11,8.83-38.68,8.83-38.68,0,0,41.99,9.18,47.09,21.02,4.34,10.09-14.19,41.15-14.71,42.02Z"/>
  <path class="b" d="m454.04,183.66s-45.8,20-61.38,16.82c-1.6-.33-3.46-1.08-5.46-2.16-2.62-1.43-5.52-3.38-8.5-5.64-2.17-1.64-4.39-3.44-6.56-5.3-10.1-8.61-19.33-18.34-19.81-18.84-.01,0-.01-.01-.01-.01h-.01s0-.01.01-.02h.01c.92-.77,31-25.27,43.27-24.78,4.02.15,9.23,2.31,14.9,5.54,19.22,10.97,43.55,34.39,43.55,34.39Z"/>
  <path class="b" d="m387.19,198.33c-1.63,15.46-16.4,42.51-16.4,42.51,0,0-21.2-25.63-23.55-36.16-.49-2.22-.43-5.59-.05-9.38,1.06-10.59,4.53-24.56,5.03-26.54.03-.06.04-.11.04-.15.01-.02.01-.04.01-.05.01-.03.01-.04.01-.04h.01s.01.01.01.01c.61.27,13.58,5.88,23.51,12.44h.01c1.35.91,2.65,1.82,3.85,2.74,3.52,2.69,6.21,5.44,7.07,7.94.61,1.77.71,4.05.43,6.67Z"/>
  <path class="l" d="m271.58,210.57s15.22-39.35,26.91-45.53c11.92-6.3,53.81,3.49,53.81,3.49,0,0-24.24,36.27-36.99,42.04-9.96,4.5-43.72,0-43.72,0Z"/>
  <path class="l" d="m333.32,121.31s-7.28,13.81-6.31,18.63c1.89,9.35,25.28,28.59,25.28,28.59,0,0,4.5-28.32,0-36.15-2.74-4.76-18.98-11.07-18.98-11.07Z"/>
  <path class="l" d="m370.79,215.62s-15.83-6.27-18.49-10.93c-4.48-7.85,0-36.15,0-36.15,0,0,24.19,15.48,26.4,24.15,1.49,5.88-7.91,22.93-7.91,22.93Z"/>
  <path class="l" d="m424.68,175.86s-20.26,11.96-27.82,11.96c-3.88,0-9.84-1.98-16.16-4.67-1.6-.68-3.23-1.41-4.86-2.17h-.01c-11.3-5.26-22.32-11.73-23.45-12.4h-.01s-.04-.03-.05-.04h-.02s0-.01.01-.02h.01c.95-.47,33.18-16.29,44.53-14.28,2.53.45,5.97,2.49,9.55,5.13,8.68,6.42,18.28,16.48,18.28,16.48Z"/>
  <path class="b" d="m191.91,65.07c-4.39,4.53-7.77,7.6-7.77,7.6,0,0-5.95-3.36-12.98-8.16-10.47-7.15-23.32-17.48-22.34-24.63.1-.71.39-1.39.86-2.07,3.28-4.87,15.06-9.09,22.42-11.34,3.32-1.02,5.74-1.63,6.09-1.7.01-.01.03-.01.04-.01s.01-.01.01-.01c0,0,.09,0,.26.01.34,0,1,.03,1.89.06h.2s.06.01.09,0c.03.01.05.01.08.01h.1c7.34.34,27.72,1.84,30.17,8.32,2.84,7.51-10.23,22.7-19.13,31.91Z"/>
  <path class="b" d="m137.05,2.89s12.68,18.86,19.34,21.86c4.98,2.24,21.86,0,21.86,0,0,0-1.88-13.24-5.04-15.98-6.93-5.99-36.15-5.89-36.15-5.89Z"/>
  <path class="b" d="m212.3.37s-.01.1-.04.3c-.3,2.35-2.4,17.45-6.27,20.72-4.22,3.56-19.06,3.58-25.12,3.44h-.18s-.06-.01-.09-.01h-.2c-.91-.02-1.56-.05-1.89-.06-.18-.01-.26-.01-.26-.01,0,0,.14-1.1.42-2.83.83-5.26,2.96-16.31,6.31-19.03,5.34-4.33,27.33-2.52,27.33-2.52Z"/>
  <path class="l" d="m178.25,24.76s-18.86,9.88-18.5,15.97c.39,6.57,21.84,14.72,21.84,14.72,0,0,19.93-13.88,18.52-20.68-1.23-5.88-21.86-10.01-21.86-10.01Z"/>
  <path class="l" d="m152.19,10.46s4.49,10.47,7.57,12.41c3.93,2.48,15.85,5.71,18.5,1.89,2.27-3.29-3.75-12.19-7.15-14.29-4.02-2.49-18.92,0-18.92,0Z"/>
  <path class="l" d="m200.11,8.78s-10.62-.18-13.45,1.68c-3.46,2.28-8.41,14.29-8.41,14.29,0,0,13.68-2.5,17.03-5.47,2.17-1.92,4.84-10.51,4.84-10.51Z"/>
  <path class="b" d="m361.54,72.89c-.64,1.73-2.02,3.46-3.92,5.13-.99.88-2.12,1.75-3.36,2.6-13.23,9.09-38.96,16.45-38.96,16.45,0,0-2.32-10.67-3.35-22.13-.98-10.73-.84-22.16,3.35-26.22,3.39-3.28,12.94-2.89,21.48-1.7h.04c7.96,1.08,15.02,2.85,15.45,2.95t.02.01s0,.01.01.04c.2.3,1.7,2.59,3.46,5.64t.01.03c2.22,3.9,4.84,9.04,5.71,13.01h0c.38,1.68.44,3.13.05,4.2Z"/>
  <path class="b" d="m416.2,139.95s-40.6-22.16-49.19-34.48c-3.33-4.77-6.38-14.77-8.83-24.98-.19-.82-.38-1.64-.57-2.46-.42-1.8-.81-3.59-1.17-5.35-2.5-11.75-4.05-22.03-4.14-22.66-.01-.03-.01-.04-.01-.04,0,0,.04,0,.13.01,2.46.18,42.11,3.29,50.74,12.6,1.3,1.4,2.46,3.25,3.52,5.47,9.76,20.57,9.52,71.89,9.52,71.89Z"/>
  <path class="l" d="m356.45,72.68c-2.67,4.07-12.95,6.09-21.53,7.08h-.01c-6.76.78-12.46.92-12.46.92,0,0-.06-1.16-.1-3.01-.13-6.92.05-23.69,4.67-27.68,1.95-1.68,5.69-2.66,9.77-2.96h.04c5.93-.44,12.56.57,15.45,2.95t.02.01c1.34,1.12,2.53,3.19,3.47,5.68t.01.03c.48,1.3.9,2.71,1.22,4.16,1.1,4.93,1.15,10.24-.56,12.84Z"/>
  <path class="l" d="m403.16,105.47s-21.77-8.94-27.32-14.29c-2.41-2.31-5.32-6.58-8.27-11.53-2.05-3.47-4.15-7.26-6.08-10.95h0c-1.64-3.14-3.17-6.18-4.49-8.87-2.68-5.42-4.5-9.43-4.69-9.82-.01-.03-.01-.04-.01-.04,0,0,.04,0,.13.01,2.41.37,39.48,5.99,46.96,15.34.96,1.2,1.71,2.98,2.31,5.11,3.29,11.86,1.48,35.04,1.48,35.04Z"/>
  <path class="e" d="m164.73,253.42c-19.99-7.2-34.91-22.89-38.84-41.91-.67-3.25-1.02-6.61-1.02-10.03,0-15.37,7.09-29.31,18.57-39.45,1.95-1.72,4.03-3.33,6.22-4.83,12.8,2.04,24.62,5.5,28.6,11.32,10.87,15.89-7.77,69.4-13.52,84.89Z"/>
  <path class="e" d="m410.49,149.27c-.86,3.48-2.23,6.86-4.09,10.1-5.2,9.18-14.13,17.33-25.7,23.77-.33.19-.67.38-1.01.57-1.64.88-3.34,1.74-5.1,2.56-.81.39-1.63.77-2.46,1.12-6.66,2.94-13.97,5.37-21.78,7.21-1.05.24-2.09.48-3.15.69,1.06-10.59,4.53-24.56,5.03-26.54-.6,2.02-4.96,16.43-10.12,27.52-3.99.69-8.07,1.24-12.26,1.62-4.73.43-9.57.66-14.5.66-12.99,0-25.38-1.55-36.68-4.36-6.02-1.49-11.73-3.34-17.06-5.51,8-17.58,17.91-34.58,27.62-38.64,7.66-3.21,23.68,1.55,37.67,7.05-7.39-4.06-13.99-8.68-15.82-12.94-3.91-9.11,8.83-38.68,8.83-38.68,0,0,41.99,9.18,47.09,21.02,4.34,10.09-14.19,41.15-14.71,42.02h.01c.92-.77,31-25.27,43.27-24.78,4.02.15,9.23,2.31,14.9,5.54Z"/>
  <path class="e" d="m211.04,33.16c2.84,7.51-10.23,22.7-19.13,31.91-3.67-2.99-6.75-6.55-9.03-10.53-2.96-5.12-4.63-10.94-4.63-17.09,0-4.28.81-8.38,2.28-12.2.05-.14.1-.28.16-.42h0c.09-.21.17-.43.25-.63h.01c2.51-5.93,6.65-11.12,11.94-15.17,0,0,.01-.01.01,0,5.42-4.18,12.04-7.11,19.35-8.36-.3,2.35-2.4,17.45-6.27,20.72-4.22,3.56-19.06,3.58-25.12,3.44,7.34.34,27.72,1.84,30.17,8.32Z"/>
  <path class="e" d="m406.68,68.06c-1.61.83-3.29,1.63-4.99,2.37-10.15,4.52-21.71,7.69-34.12,9.22-3.08.38-6.2.66-9.38.83-.19-.82-.38-1.64-.57-2.46-.99.88-2.12,1.75-3.36,2.6-1.15.04-2.3.05-3.44.05-5.42,0-10.73-.32-15.9-.92h-.01c-4.3-.49-8.49-1.2-12.56-2.09-3.57-.76-7.04-1.68-10.39-2.72-.98-10.73-.84-22.16,3.35-26.22,3.39-3.28,12.94-2.89,21.48-1.7h.04c5.93-.44,12.56.57,15.45,2.95t.02.01s.04,0,.13.01c2.46.18,42.11,3.29,50.74,12.6,1.3,1.4,2.46,3.25,3.52,5.47Z"/>
</svg>