<?xml version="1.0" encoding="UTF-8"?>
<svg id="a" data-name="Ñëîé 1" xmlns="http://www.w3.org/2000/svg" viewBox="0 0 3852.17 3908.55">
  <defs>
    <style>
      .b {
        fill: #4b8820;
      }

      .b, .c, .d, .e, .f, .g, .h, .i, .j, .k, .l, .m, .n, .o, .p, .q, .r, .s, .t, .u, .v, .w, .x, .y, .z, .aa, .ab, .ac, .ad, .ae, .af, .ag, .ah, .ai, .aj, .ak, .al, .am, .an, .ao, .ap, .aq, .ar, .as, .at, .au, .av, .aw, .ax, .ay, .az, .ba, .bb, .bc, .bd, .be, .bf, .bg, .bh, .bi, .bj, .bk, .bl, .bm, .bn, .bo, .bp, .bq, .br, .bs, .bt, .bu, .bv, .bw, .bx, .by, .bz, .ca {
        fill-rule: evenodd;
      }

      .c {
        fill: #ba4943;
      }

      .d {
        fill: #606456;
      }

      .e {
        fill: #1f3a19;
      }

      .f {
        fill: #617373;
      }

      .g {
        fill: #d4c729;
      }

      .h {
        fill: #878137;
      }

      .i {
        fill: #6d9402;
      }

      .j {
        fill: #925b22;
      }

      .k {
        fill: #cf853a;
      }

      .l {
        fill: #c7b632;
      }

      .m {
        fill: #d88237;
      }

      .n {
        fill: #6c732c;
      }

      .o {
        fill: #e2c837;
      }

      .p {
        fill: #e5714c;
      }

      .q {
        fill: #f8e94e;
      }

      .r {
        fill: #b5822f;
      }

      .s {
        fill: #213909;
      }

      .t {
        fill: #7a892a;
      }

      .u {
        fill: #54581d;
      }

      .v {
        fill: #ddc53d;
      }

      .w {
        fill: #dc783a;
      }

      .x {
        fill: #be684d;
      }

      .y {
        fill: #4d9148;
      }

      .z {
        fill: #a19c1e;
      }

      .aa {
        fill: #567c49;
      }

      .ab {
        fill: #c3883c;
      }

      .ac {
        fill: #9ac611;
      }

      .ad {
        fill: #182013;
      }

      .ae {
        fill: #f7a341;
      }

      .af {
        fill: #60682f;
      }

      .ag {
        fill: #376f14;
      }

      .ah {
        fill: #1b2b0c;
      }

      .ai {
        fill: #bc9135;
      }

      .aj {
        fill: #283903;
      }

      .ak {
        fill: #b3b631;
      }

      .al {
        fill: #ebd23a;
      }

      .am {
        fill: #405632;
      }

      .an {
        fill: #8b4a46;
      }

      .ao {
        fill: #ebb841;
      }

      .ap {
        fill: #bf7a2f;
      }

      .aq {
        fill: #d8e0c7;
      }

      .ar {
        fill: #f09c46;
      }

      .as {
        fill: #659855;
      }

      .at {
        fill: #a95d29;
      }

      .au {
        fill: #6b7d29;
      }

      .av {
        fill: #58644c;
      }

      .aw {
        fill: #db9d38;
      }

      .ax {
        fill: #1a1914;
      }

      .ay {
        fill: #fefa75;
      }

      .az {
        fill: #c66737;
      }

      .ba {
        fill: #fbf154;
      }

      .bb {
        fill: #dbc12c;
      }

      .bc {
        fill: #cd6a4b;
      }

      .bd {
        fill: #3e6234;
      }

      .be {
        fill: #dc6344;
      }

      .bf {
        fill: #e59347;
      }

      .bg {
        fill: #445531;
      }

      .bh {
        fill: #2f5b02;
      }

      .bi {
        fill: #234812;
      }

      .bj {
        fill: #2e4d12;
      }

      .bk {
        fill: #7c4c3e;
      }

      .bl {
        fill: #405927;
      }

      .bm {
        fill: #3a3c2e;
      }

      .bn {
        fill: #dabe53;
      }

      .bo {
        fill: #feb252;
      }

      .bp {
        fill: #3d3123;
      }

      .bq {
        fill: #fef86e;
      }

      .br {
        fill: #653328;
      }

      .bs {
        fill: #e48447;
      }

      .bt {
        fill: #f3b64c;
      }

      .bu {
        fill: #8eabab;
      }

      .bv {
        fill: #e78a3a;
      }

      .bw {
        fill: #3b7006;
      }

      .bx {
        fill: #424f4f;
      }

      .by {
        fill: #204000;
      }

      .bz {
        fill: #36721c;
      }

      .ca {
        fill: #1d2e04;
      }
    </style>
  </defs>
  <path class="aq" d="m2175.95,3290.06c183.31-41.53,902.96-96.01,1182.38,66.06,75.35,43.71,510.55,6.18,493.35,84.78-33.48,152.96-271.41,56.78-332.32,213.12-83.92,215.38-620.17-29.63-756.67,50.18-70.72,41.35,192.27,52.09,65.86,146.86-110,82.47-565.33-101.61-526.8-25.64,81.1,159.88-255.38,51.06-414.29-11.96-224.89-89.19-315.94-120.41-429.73-120.71-272.62-.7-428.81-378.23,151.96-340.52,30.66,1.99,565.69-62.04,566.25-62.17h0Z"/>
  <path class="bx" d="m1114.9,2984.78c34.3,241.19,110.53,286.58,144.94,456.65,58.37,288.47,1162.73,262.46,1209.44-28.47,26.81-167.05,19.71-73.76,61.94-207.54,86.97-275.49,120.76-871.89-51.96-1078.32-315.93-377.58-541.58-244.29-1010.58-233.3-359.9,8.44-392.11,821.52-353.78,1090.98h0Z"/>
  <path class="f" d="m1114.41,2962.17c32.96,236.33,106.2,280.81,139.26,447.46,56.08,282.65,1117.13,257.18,1162-27.9,25.76-163.68,18.94-72.27,59.51-203.36,83.56-269.94,116.03-854.33-49.92-1056.6-303.54-369.98-520.33-239.37-970.94-228.6-345.79,8.27-376.73,804.97-339.91,1069h0Z"/>
  <path class="bu" d="m1079.58,2823.97c51.62,884.23,1305.52,752.7,1390.05,243.95,46.42-279.39,141.32-886.95-34.97-1088.45-322.46-368.56-546.69-237.28-1016.78-224.87-360.74,9.52-353.87,802.63-338.3,1069.37h0Z"/>
  <path class="n" d="m1132.01,2073.38c-23.41,6.37-136.27-38.42-160.98-53.29-41.69-25.1-113.3-48.71-171.51-84.35-59.65-36.52-208.12-151.98-238.57-208.83-60.46-112.85-101-231.48-65.63-358.93,30.13-108.59,207.61,94.97,249.55,111.81,142.89,57.34,200.74,140.52,293.84,251.87,33.68,40.27,75.77,104.02,104.57,134.61,12.52,13.3,241.27,254.68,127.69,223.31-11.49-3.17-135.92-17.02-138.95-16.19h0Z"/>
  <path class="br" d="m1121.43,1948.63c-50.06-5.82-28.81-6.56-69.25-16.71-1-.25-298.34,11.76-238.63-11.13,25.75-9.87,86.38,1.79,137.16-6.66,43.45-7.23,16.33-29.7-6.84-41.91-36.62-19.3-46.03-57.1-81.58-3.94-6.59,9.86-28.04,1.54-57.59,32.54-2.1,2.2-62.85,15.58,22.6-26.34,23.99-11.76-1.41-14.18,24.77-32.02,25.02-17.06,59.74-32.01,6.69-41.41-52.83-9.36-116.52,34.42-192.84-11.68-82.84-50.04-3.43-21.39,27.55-2.63,10.08,6.1,172.16,6.03,135.99-28.42-19.39-18.47-7.68,8.4-33.01-27.07-29.12-40.78-82.97-62.43-92.17-32.71-10.38,33.57-58.82,54.58-84.53,54.37-45.14-.38,71.89-34.94,66.29-66.71-4.68-26.52,75.46.52,33.4-45.26-.47.04-65.46-4.98-95.62-8.24-39.91-4.3-48.36-40.4-69.29-66.76-37.98-47.83-69.77-89.71-59.64-78.72,8.89,9.66,43.96,26.93,66.3,55.93,19.95,25.91,30.8,61.31,57.35,56.27,29.13-5.53,62.7,2.02,28.75-53.11-36.34-59.02-53.9-39.14-64.84-68.7-11.1-29.97-39.76-50.62-42.19-84.18-.02-.23-24.6-58.91-9.94-51.37,6.21,3.2,34.94,80.32,72.77,114.91,8.87,8.11,69.04,95.77,67.81,33.24-.89-45.07-8.98-25.17,18.82-73.66,8.83-15.4,19.44-78.98,20.25-12.5.51,42.61-54.98,91.03,21.34,165.41,21.05,20.52,28.52,47.61,43.54.19,5.53-17.46-64.03-114.72-39.65-93.23,35.79,31.56,66.25,84.08,70.26,130.3.82,9.5,27.66,54.21,32.29-9.73.18-2.44,20.87-60.17,44.09-53.72,3.68,1.02,44.11-.77,49.44,16.81,9.57,3.09-5.69,6.41-31.28-5.53-17.85-8.33-41.54,24.9-35.07,44.14.61,1.83-36.88,52.82-22.85,88.84,6.52,16.76,61.02,60.81,69.34,67.92,19.79,16.9-9.89-88.01,17.05-98.07,24.06-8.98-24.17-132.86,18.09-54.94,6.64,12.24,2.93,100.28,9.23,99.22,56.8-9.45,3.04-27.59,59.92-51.27,10.52-4.38,27.62-57.22,59.81-28.09-12.84,9.81-21.44,8-36.87,12.43-5.44,17,14.1,5.71-18.47,23.16-23.73,12.71-.96,37.79-24.13,61.86-24.14,25.08,75.31,46.68,62.94-13.05-4.68-22.62,8.99-88.97,18.54-3.46,7.52,67.34-25.6,35.26-17.1,74.39,1.75,8.05-23.75,43.69,27.5,116.27,29.25,41.42,123.79,19.24,133.21,75.89,15.59,93.71,16.37,53.34,41.97,117.33,6.58,16.46-39.31-11.84-57.08-76.21-11.79-42.74-42.37-57.35-84.6-62.26h0Z"/>
  <path class="an" d="m1560.86,2450.98c-22.31.5-44.88,17.66-67.42,3.21-33.64-21.57-261.05-19.51-309.1-11.52-132.72,22.08-97.68,16.98-223.37,70.2-98.59,41.76-138.92,31.31-230.22,125.7-105.16,108.71-175.54,163.66,41.82,127.5,90.32-15.03,201.27-28.4,287.43-57.64,61.06-20.72,138.61-34.06,189-75.69,1.18-.97,89.78-49.7,117.8-72.5,30.89-25.14,299.25-69.77,238.85-115.93-7.41-5.66-31.67,6.38-44.79,6.66h0Z"/>
  <path class="bv" d="m1759.75,1175.45c-33.79-96.98,220.93-259.31,274.81-332.01,95.44-128.77,81.1-330.55,253.28-493.46,39.77-37.63,15.96-146.97,97.65-230.6,82.34-84.29-183.37,12.17-235.75,124.39-28.09,60.18-116.21,14.81-184.28,168.23-12.07,27.21-155,302.13-166.91,341.5-11.39,37.65-68.29,449.52-72.36,455.69-4.17-10.07,40.64-13.41,33.56-33.75h0Z"/>
  <path class="ad" d="m1516.97,979.54c-199.69,461.65-737.18-31.99-651.48,483.15,33.22,199.69,23.09,386.63,199.96,471.94,285.31,137.61-105.23,620.74,370.9,527.63,116.69-22.82,19.36,72.85,274.74-1.32,165.69-48.12,469.06,149.26,537.75-87.53,48.98-168.84,352.93,45.53,254.76-435.43-41.66-204.1,447.16-669.51-355.55-828.37-108.19-21.41-60.56-168.11-398.29-169.28-101.47-.36-82.57-88.92-171.77,18.32-13.41,16.12-51.03-2.2-61.02,20.89h0Z"/>
  <path class="j" d="m1524.16,1312.42c16.72-34.63,46.18-183.24,111.66-216.56,18.14-9.23,153.42-198.36,238.98-242.79,51.57-26.78,145.27-81,174.73,24.05,28.69,102.28-80.38,222.51-116.65,349.06-24.94,87.01-168.63,146.05-233.58,197.16-114.4,90.01-180.13,24.57-175.14-110.93h0Z"/>
  <path class="ai" d="m2078.34,1275.54c-131.06,56.33-72.26,316.54-36.28,425.25,30.65,92.59,84.94-29.45,158.71-80.54,78.25-54.19,29.68-424.37-86.08-350.17-7.13,4.57-26.63,1.28-36.36,5.47h0Z"/>
  <path class="bk" d="m784.74,2006.55c102.16,85.2,41.85,70.03,178.23,122.26,47.91,18.34,105.52,4.38,160.29,40.46,39.47,26.01,233.82-41.5,301.97-52.84,256.24-42.63-224.33-88.03-250.62-104.38-9.32-5.8-252.35-38-283.58-32.8-12.49,2.08-111.19,23.21-106.29,27.3h0Z"/>
  <path class="bp" d="m2217.86,1579.38c31.87-84.03,248.63-350.92,322.15-425.74,84.34-85.83,330.91-76.94,279.41,18.45-65.02,120.42-63.23,122.07-167.76,224.89-86.83,85.42-237.01,187.97-350.61,222.26-31.57,9.53-112.7,37.93-83.2-39.85h0Z"/>
  <path class="at" d="m920.43,169.58c12.41,45.82,97.88,10.66,146.95,253.3,25.64,126.79,207.85,390.51,278.6,514.58,101.69,178.34-34,292.06-7.3,452.56,26.8,161.08,27.61,117.55,84.49,42.01,40.26-53.47,106.23-320.09,100.29-390.04-3.23-38.13,41.08-144.58,19.85-272.23-34.02-204.53-85.31-251.14-190.48-421.02-49.12-79.36-48.67-52.62-88.62-93.27-58.92-59.94-259.05-115.99-343.78-85.9h0Z"/>
  <path class="ah" d="m962.96,100.64c138.55,170.88,187.13,290.75,308.7,467.25,77.66,112.76,112.86,317.63,124,450.85,6.58,78.7,17.03-82.12,17.13-83.2,5.36-58.09-19.11-268.31-34.43-338.06-22.73-103.49,2.42-169.53-72.87-237.25-3.59-3.22-401.08-412.69-380.86-320.6,3.6,16.41,29.35,49.93,38.33,61.01h0Z"/>
  <path class="au" d="m1817.52,1015.93c1.2-102.92,106.41-450.65,191.89-507.69,46.98-31.35,194.34-239.75,226.96-195.65,101.15,136.77-92.04,373.59-201.59,448.12-25.97,17.66-126.47,147.26-136.7,195.13-9.5,44.43-96.36,202.35-84.98,109.5,1.76-14.34,4.26-35.74,4.42-49.41h0Z"/>
  <path class="ak" d="m2086.27,860.6c22.45-25.27,35.74-131.66,80.01-193.7,96.97-135.91,15.79-51.46,145.6-148.65,90.55-67.8,242.15-286.2,354.1-301.17,2.33-.31,227.57-35.54,158.68-12.17-117.24,39.77-74.61,108.72-171.64,208.91-55.57,57.37-95.1,125.64-164.7,182.13-43.31,35.15-200.74,282.97-219.67,293.64-60.7,34.25-145.32,156.67-174.06,104.33-25.39-46.24-39.65-98.08-8.33-133.31h0Z"/>
  <path class="bw" d="m2373.05,1630.51c295.54-180.92,650.48-223.72,969.03-248.97,5.61-.44,311.66,8.41,246.8,33.49-25.47,9.85-185.21,76.7-192.88,83.75-56.8,52.25-568.11,213.13-658.55,247.86-55.63,21.36-468.4,114.29-410.95-17.8,11.78-27.09-12.02-14.02,37.65-61.57,15.47-14.81.35-31.53,8.9-36.76h0Z"/>
  <path class="ax" d="m2241.69,2076.81c58.35-13.62,275.68,47.55,314.2,123.9,44.61,88.41,178.6,105.43,252.51,304.9,36.74,99.14,101.92,188.13,122.38,257.36,14.42,48.79,25.06,174.48,58.91,218.24,39.99,51.7-143.75-12.13-158.8-9.24-183.53,35.19-317.6,18.21-475.84-78.74-102.94-63.05-59.56-76.68-93.74-174.38-50.11-143.29-49.66-73.44-74.39-248.57-2.14-15.16-37.19-136.82-45.5-186.81-5.48-32.94-31.35-285.76-23.7-287.03,19.16-3.19,127.74,61.4,141.15,82.33l-17.16-1.96h0Z"/>
  <path class="bj" d="m1241.94,1613.91s30.78-168.43,23.24-213.74c-9.56-57.44-35.93-224.1-17.68-271.78,16.32-42.62,8.79-194.84-17.4-244.75-35.62-67.88-87.67-14.76-100.2-35.94-4.82-8.15,58.89-35.91,59.89-42.99,105.56-63.66,117.43-328.66-8.42-399.29-78.43-44.01,89.64-163.32-142.01-73.31-4.99,1.94-100.91,69.89-115.02,83.06-52.27,48.8-110.58,86.66-112.92,189.72-.87,38.45-44.6,36.86-30.97,122,44.37,277.2,77.3,373.45,268.93,581.3,43.55,47.25,159.26,248.02,192.54,305.7h0Z"/>
  <path class="bs" d="m981.18,920.28c-.71.02-186.58-46.09-165.48-16.64,16.32,22.78,298.27,32.93,214.45,74.82-18.81,9.4-59.85-16.67-109.63-8.39-44.2,7.35-142.63,21.02-25.52,22.69,53.39.76,63.47.77,118.08,5.4,24.57,2.08,32.49,11.27,40.72,43.09,5.7,22.06-140.27-15.51-181.38-1.88-16.32,5.41-82.92,10.82-8.94,17.44,32.44,2.9,173.44-2.91,179.79,35.25,9.98,60.02,65.15,23.4-93.46,67.63-17.16,4.78-42.2,12.43-60.02,18.03,9.84,59.17,247.16-93.88,203.91,32.13-10.69,31.17,43.28,74.88-78.04,30.93-31.8-11.52-290.52,11.02-72.37,34.33,57.42,6.13,90.48,20.63,147.4,6.86,2.55-.62,53.86,11.62-24.9,21.55-50.23,6.33,61.68,12.13,53.23,46.53-7.6,30.91-63.03,3.06-85.64,1.86-18.63-.99-155.07-37.29-52.68,20.38,51.78,29.16,145.64,3.64,159.86,47.78,11.85,36.76-76.08,10.79-89.56,10.92-30.63.29-43.55-16.3,2.72,20.39,53.63,42.53,78.58-13.87,121.43,53.77,13.01,20.54,20.96,4.43,30.29,48.9,1.88,8.97,23.75,20.14,19.89,4.6,4.43-69.88-49.54-25.85-2.62-132.35,1.27-2.88,19.93-83.32-13.06-56.24-11.25,9.24-13.83,93.15-39.09,12.28-29.95-95.86,69.79-79.36,53.32-119.5-.1-.24-60.64,11.23-2.11-28.4,11.93-8.08-26.31-21.64-68.15,16.76-.94-.26-26.46-29.1,3.82-34.13,72.64-12.09,39.78-36.46-9.34-28.38-2.87.47-37.53-14,18.47-28.39,37-9.51,115.73-144.18-19.49-36.45-30.95,24.65-22.19-13.22-39.14-37.17-8.9-12.57,33.76-142.47,63.58-121.97,31.75,21.82,45.43-19.46,1.91-27.9-59.2-11.49,34.22-72.21-10.57-87.49-14.17-4.83-76.23,240.5-76.28,131.23-.02-47.29-17.1-63.01,22.32-102.86.11-.11,3.29-31.71-19.44,5.99-1.28,2.13-38.62-19.26,36.94-52.17,26.37-11.48,103.25-82.66,77.72-74.97-27.9,8.4-83.32,39.09-107.51,59.22-29.85,24.85-46.25-37.95-14.52-63.64,3.4-2.75,115.22-3.93,53.75-16.08-24.4-4.82-83.62-6.76-27.79-33.08,27.42-12.93,55.03-12.98,67.38,12.66,14.02,29.09,47.53,22.58,15.29-32.61-17.69-30.28,52.53-23.96,34.89-69.6-3.62-.99-66.24,42.95-79.85,50.73-31.21,17.83-94.04,28.53-14.01-20.91,5.98-3.7,26.57-18.92,26-25.26.24-.18-76.18,31.18-70.1,20.25,14.91-26.8,74.42-75.73,106.24-81.02,4.97,7.03,25.71,81.2,28.84,17.13,2.1-42.84-23.37,6.64-33.16-68.63-4.79-36.8-21.94,41.29-75.33,55.39-46.97,12.4,8.69-15.37-16.09-44.53-1.34-1.57-15.46-43.45,24.62-50.12,80.76-13.44,9.71-18.37-7.72-25.75-31.87-13.5,56.52-60.02,30.12-125.88-58.81,16.88-27.42,90.88-63.22,39.38-17.57-25.27-34.88-15.23-8.56,27.1,4.61,7.42,7.08,43.73-29.5-7.75-4.36-6.15-58.32-29.69,8.52,50.39,28.19,33.77-22.98,14.29-56.43-28.58-38.23-49-25.52,24.45,27.78,59.07,21.6,14.04,40.65,88.16-30.69-2.94-27.39-34.98-122.82-39.51-4.48,56.54,3.27,2.65,73.12,44.34,39.22,51.75-22.65,4.95-68.15-88.82-132.66-102.27-19.37-4.03-8.94,81.08,92.41,108.42,60.02,16.19,59.04,66.51-47.92-6-8.48-5.74-80.3-54.41-80.92-54.3,11.2,67.36,170.36,93.51,165.5,146.66-1.56,17.01-80.22-46.11-96.15-54.04-16.31,7.5-132.67-85.73-51.64,10.58,15.76,18.72,147.22,44.92,162.37,104.19-11.45,3.03-43.48-42.96-105.33-42.61-47.05.27-152.06-93-114.83-6.22,11.52,26.86,156.85,72.46,197.94,112.52.85.83,40.96,63.48-17.06,33.85-37.04-18.91-116.81-30.68-130.57-73.9-1.47-4.63-33.08-82.59-45.62-45.94-7.55,22.07,29.96,38.1,16.01,70.13-14.46,33.2-65.43,9.54-54.23,54.5,8.05,32.33,65.3-48.28,166.37,15.45,2.72,1.72,129.64,34.84,60.74,45.01-22.77,3.36-45.76-40.03-132.32-20.85-37,8.2-14.29,2.28,19.57,22.47,13.7,8.17,57.05-10.23,92.93,10.76,1.5.88,120.94,27.95-11.17,32.06h0Z"/>
  <path class="y" d="m1218.17,1577.19c-47.93-79.63-105.96-113.12-153.45-191.81-20.7-34.32-37.29-98.19-53.71-143.16-92.58-253.43-158.43-468.65-365.32-651.4-226.61-200.16-280.69-214.16-576.24-281.81-104.55-23.93-2.02,335.61,63.72,402.79,78.73,80.44,104.18,217.46,276.24,325.81,214.41,135.02,385.36,232.48,607.16,365.91,24.87,14.96,49.71,48.53,72.38,71.19,21.91,21.9,139.95,120.31,129.22,102.48h0Z"/>
  <path class="ba" d="m66.35,335.93c66.8,59.96,34.34.92,64.68,8.64,13.76,3.5-22.59,23.43,8.12,42.63,70.35,43.98-17.94-83.27,48.93-16.51,1.49,1.48,37.67,17.4-1.52,34.85-20.41,9.1-15.58.79,11.72,42.86,54.48,83.95,58.72-74.32,72.56-76.62,29.58-4.92-15.76,28.25,37.04,17.13,8.88-1.87,32.47,23.76-17.47,41.73-14.25,5.12-38.34,45.4-19.89,80.95,14.18,27.31,67.82-68.78,22.28,19.75-1.31,2.55,27.26,66.71,50.9-1.37,3.51-10.09,30.94-98.37,33.58-97.92,18.98,48.05,8.72,62.85-17.97,117.67-42.15,86.6-21.15,28.98,33.27,89.24,14.41,15.96,36.95-14.82,26.82-56.87-3.19-13.25,20.02-17.04,14.05-74.32-8.24-79.05,29.81,20.27,30.24,20.21,2.82-.4,39.24-43.53,32.28,4.83-5.45,37.85-53.64-30.03-54.23,88.1-.1,19.23-18.18,7.87-5.21,70.24.03.15-7.32,21.98,15.38,32.38,22.39,10.26-1.35,35.22,64.65-21.23,29.59-25.31,12.31-159.36,37.57-133.25,24.98,25.81-34.04,77.66,48.62,62.12,22.28-4.19-12.36-20.47,56.6-9.75,33.21,5.16-84.15,37.18-98.75,70.77-11.39,26.21-66.67,66.21-34.28,89.16,18.35,13,17.89,52.76,51.28-12.25,2.15-4.19,73.73-61,40.67-4.66-24.23,41.3-84.47,53.38-12.96,118.62,12.52,11.43,84.02-180.07,77.91-214.99,18.55-6.19,16.3,70.98,17.3,76.7-4.33,1.19.76,22.63,18.32-10.81,11.71-22.29-8.09,30.46,21.03,25.61,80.43-13.38-58.81,42.46-67.23,59.21-33.09,65.88-80.06,71.58,2.05,152.39,40.01,39.38,44.66,34.63,79.35-29.56,29.09-53.82,23.36-135.44,24.15-134.4,43.22,56.96-35.15,104.47,33.97,107.26,57.45,2.32-48.86-1.42-55.34,75.36-2.6,30.75-43.46,6.69,28.86,81.88,13.06,13.57,33.29,76.99,61.99-21.79,56.23-193.43,1.43,64.87,53.98,4.77,38.78-44.34-30.05,51.08-30.42,52.14-26.72,77.81-13.89,35.04,19.31,81.86,22.04,31.08,45.28-22.43,41.55-62.53-1.41-15.13,40.74-5.72-4.77,91.19-6.91,14.72,41.05,24.82,62,72.87,24.59,56.4,56.47,109.99,96.43,156.71,26.81,31.34,227.45,236.48,265.58,267.36,37.04,30-57.1-18.68-172.55-146.35-41.41-45.79-152.25-156.81-187.01-211.68-3.77-5.95-132.73-144.93-133.52-144.88-149.98,9.68-124.35-45.88-42.35-15.14,37.83,14.18-54.83-73.34-62.64-72.05-48.35,8.05-109.32,11.02-154.32-13.64-13.1-7.19-.22-16.71,30-8.21,21.06,5.93,179.19,32.74,87.88-24.33-86.92-54.31-7.58-45.49-150.36-21.74-13.36,2.22-39.25,8.98-41.97-6.6,23.01-3.83,136.51-19.64,133.02-39.6-1.55-8.85-39.7-39.98-64.58-35.84-39.95,6.65-139.06,2.89-130.8,41.17.6,2.77-25.6,34-2.5-38.4-.27-.39-129.95-37.31-86.29-47.92,8.18-1.99,82.08,41.09,98.23,30.08,2.23.71,146.12,9.68,100.95-37.81-22.09-23.22-90.02-101.48-118.98-96.67-157.64,26.22-71.42,67.69-129.39,79.75-28.79,5.99,26.71-59.94-12.01-65.78-82.98-12.5-86.27-53.39-41.52-28.19,40.23,22.66,255.86-6.27,126.84-54.6-4.31-1.61-82.43,18.3-66.95-3.06,4.02-5.55,107.5-.43,38.44-33.9-.44-.22-99.25,6.13-112.69,33.6-27.52,56.26-78.97,63.47-18.79.85,18.71-19.47-23.86-20.91-55.81-38.41-10.16-5.56-55.17,4.31-57.93-35,40.32-16.94,72.87,40.53,167.34,22.3,38.81-7.5,112.46,14.12,42.85-40.13-46.78-36.45-67.53-17.6-138.26-13.54-.27.02-63.68,35.72-28.92-9.78-2.39-7.15-65.47-12.11-68.63-81.25-.74-16.09,31.17,72.79,118.38,63.77,73.5-7.61,96.64,30.89,40.93-41.92-64.57-84.39-39.62-5.34-170.66-35-12.3-2.79-22.71-29.93,43.06-16.7,123.84,24.9,39.99-94.11-6.05-70.81-38.81,19.63-85.94-11.44-24.82-5.74,38.69,3.6,76.49-24.1-9.35-55.4-61.2-22.31-59.48-92.35-23.27-59.85h0Z"/>
  <path class="be" d="m1277.45,1718.62c-239.95,24.69-249.18-303.79-395.79-405.37-156.46-108.41-289.74-129.05-430.53-279.06-62.29-66.37-411.82-109.14-310.75-16.24,80.58,74.06,29.43,56.15,165.43,123.94,119.98,59.81,149.88,186.88,321.83,272.87,131.2,65.62,158.13,217.31,351.39,237.55,206.96,21.67,135.56,125.96,277.61,109.79,34.58-3.94,53.27-46.82,20.82-43.48h0Z"/>
  <path class="g" d="m2237.27,1913.62c-35.73-238.44,293.58-253.29,388.85-400.98,101.67-157.61,17.57-369.46,209.35-435.85,185.15-64.1,209.93-281.48,193.12-329.88-22.24-64.04-35.76,41.97-98.43,65.17-45.46,16.83-80.51,68.53-135.02,88.94-133.89,50.12-243.34,195.45-355.4,372.51-77.38,122.26-138.01,149.14-149.51,341.9-12.31,206.36-120.26,137.09-97.55,278.22,5.53,34.35,49.43,52.23,44.59,19.97h0Z"/>
  <path class="l" d="m1272.81,1895.94c-103.11-71.84-153.7-172.58-170.36-295.31-21.48-158.27-166.6-72.56-289.15-211.12-30.52-34.51-204.25-45.34-265.63-109.77-37.98-39.87-225.29-133.62-276.35-145.85-54.43-13.04-120.67-82.98-182.05-74.3-.97.14-189.96-107.42-15.02,90,162.65,183.55,280.09,198.61,512.38,286.71,122.75,46.55,342.31,151.16,430.63,254.57,66.03,77.31,32.48,74.6,131.64,126.61,24.6,12.9,31.5,90.74,191.16,156.93,27.27,11.3,48.21,33.59,69.78,44.69-12.59-49.24-110.75-104.87-137.01-123.16h0Z"/>
  <path class="aa" d="m2151.18,1706.75c52.45-97.72,38.01-204.47-21.68-320.04-76.97-149.03,111.44-118.81,141.16-282.7,7.4-40.82,163.37-106.49,181.31-184.12,11.1-48.03,128.92-192.54,169.21-219.97,42.95-29.24,62.05-113.38,124.83-125.35,1-.19,111.92-157.64,69.27,75.98-39.66,217.2-140.35,268.55-303.74,422.47-86.34,81.33-227.69,245.98-246.93,367.28-14.39,90.68,15.36,77.45-45.55,156.08-15.11,19.51,26.18,91.63-82.67,202.48-18.59,18.93-24.53,45.68-37.91,62.6-18.41-48.26,39.34-129.83,52.7-154.72h0Z"/>
  <path class="as" d="m1234.57,2104.75c-5.54,16.13-179.81-34.88-206.95-38.95-59.42-8.93-195.37-2.14-247.44,31.54-26.98,17.45,4.2,21.11,45.02,53.52,103.97,82.53,333.31,104.34,429.57,5.62.22-.22,16.06-49.59-13.75-47.69l-6.45-4.03h0Z"/>
  <path class="bv" d="m1394.59,1906.29c-59.49,45.02-260.06-26.76-322.26-48.02-136.22-46.57-280.35-151.19-444.65-45.93-11.77,7.54-110.02,46.27-126.76,81.39-21.72,45.54-97.58,91.52-63.67,121.34,21.02,18.48,142.17-18.73,223.63-69.34,58.82-36.55,128.11,15.28,162.73,28.33,20.22,7.61,240.82.24,270.69-.32,28.56-.54,325.94-53.22,331.11-51.78-6.03,5.13-18.34-25.1-30.82-15.66h0Z"/>
  <path class="al" d="m2866.88,1513.51c14-28.68,34.97-59.67,69.98-65.5,20.66-3.44-59.17,57.42-19.62,66.76,45.6,10.77,11.57-39.14,39.41-9.6,2.51,2.67-4.53,14.28,21.44,7.05,9.64-36.87.26-10.99,16.46-39.22,6.4-11.14-33.75-69.73,17.55-23.67,4.6,4.12,44.87-62.64,37.26-18.06-2.37,13.92-15.79,14.89-21.37,47.77-3.75,22.12-4.87,21.11,36.98,11.98,11.96-2.61-14.63-12.55,20-5.56,18.69,3.78-9.08-25.49,22.73-47.52,8.95-6.2,36.56-54.03,39.98-22.04,1.02,9.56-78.75,80.26-9.23,63.88,9.26-2.18,2.53-16.23,21.15-28.82.61-.42,38.58-52.27,13.29.27-4.58,9.51-34.79,33.87,27.5,21.21,1.86-.38,20.81-12.03,20.76-12.35-3.17-19.07-8.37-62.28-8.33-61.94.06.5,25.01,43.52,40.07,12.11,2.86-5.95,60.27-32.27,9.49,11.02-13.18,11.24-12.33,38.22,5.31,34.94,12.77-2.38,58.57-1.94,60.28-14.89,2.91-21.98-18.01-42.64,12.68-40.56,8.92,21.61,4.33,18.16,20.65.94,7.76-8.19,32.4-6.44,4.59,16.52-20.58,17,29.87,13.36,49.28,3.83,14.81-7.27,112.16-20.23,128.78-16.99,22.01,4.29,72.05,6.02-1.25,16.27-11.75,1.64-107.66,16.42-111.22,19.49-14.61,12.6,30.64,33.17-38.51,13.58-.5-.14-84-.13-38.97,19.64,12.16,5.34,13.29,19.36-19.41,8.08-38.69-13.34-87.85-.53-57.82,19.19,14.88,9.77,28.22,37.69-21.2,13.24-60.92-30.13-9.82,13.12-61.68-6.03-31.73-11.72-9.89,35.31,32.75,36.45,6.05.16,6.63,18.82-54.24-7.69-5.29-2.3-51.96-17.48-57.06-16.29-.39.09-16.91,26.13-43.47,16.38-.81-.3-39.7-1.14-24.03,13.54,72.86,68.27-44.03-1.26-60.05-2.69-6.57-.58-94.57,36.44-108.84,26.35-31.1-22-5.7-13.92-12.03-57.59l-.04-3.5h0Z"/>
  <path class="bz" d="m1257.77,2378.67c-5.25,22.62,24.38,123.88-18.54,204.72-28.54,53.75,14.54,115.42-77.81,205.44-80.93,78.89-35.35,130.09-173.13,237.71-80.71,63.04-72.16,79.87-194.98,100.3-79.82,13.28-194.35,24.77-256.93,65.07-51.91,33.43-73.84-4.04-33.39-62.85,22.59-32.84,27.46-299.39,50.17-369.19,46.87-144.11,7.82-203.28,161.19-282.39,68.87-35.52,168.8-96.42,235.25-118.97,67.88-23.03,274.82-77.11,308.52,15l-.35,5.17h0Z"/>
  <path class="c" d="m2286.08,2557.01c19.86,19.87,28.78,112.99,17.14,138.66-27.43,60.53,5.14,240.56,14.27,85.08,1.23-20.9,26.95-200.15,63.2-175.91,34.46,23.05,43.92,29.27,49.98,84.35.25,2.31-40.06,78.81-45.27,97.44-7.82,27.95-73.62,43.94-4.34,43.03,4.61,4.7,22.77,69.44,45.01,71.34,8.91-11.22-16.13-63.07-9.72-87.98,9.02-35.08,33.9-135.62,41.08-140.82,34.72-25.1,89.1-7.36,33.02,63.19-17.15,21.58-7.91,52.11,21.33-1.36,37.25-68.13,58.16-.87,34.19,14.51-35.46,22.75-6.38,98.96-68.13,118.6-35.24,11.21-52.09,91.94-4.31,33.67,23.15-28.23,45.71,53.47,71.83,58.94,12.02,2.52,61.9,22.49,9.22-23.08-83.72-72.41,15.81-118.94,22.96-200.57,12.56-2.09,31.07,20.29,55.73,33.76,18.98,10.37-15.34,61.52-20.33,105.12-.04.32-25.54,78.48,1.37,70.88,6.24-1.76,13.95-87.85,23.9-110.23,15.13-34.04.1-73.94,52.09-37.54,32.18,22.52,6.02,33.21.65,68.21-.45,2.92-10.74,39.33,6.88,7.88,11.22-20.04,16.49-92.04,60.94-27.64,13.54,19.63-115.2,142.78-54.85,105.41,28.49-17.64,1.04-47.75,35.69-5.15,2.58,3.17,37.99,13.45,19.05-19.39-.15-.26,2.16-62.75,38.23-52.53,58.79,16.67,18.84,21.24,24.6,55.88,17.41-1.69,17-65.5,41.08-13.91,4.97,10.65-27.56,61.62,3.75,40.43,14.14-9.56,28.75-91.44,39.71-14.61,7.25,50.78,108.24,67.71,79.4,36.43-16.48-17.86-64.34-69.31-68.01-99.22-1.94-15.77-31.56,10.12-60.71-21.91-32.38-35.59-3-22.99,29.64-47.72,24.87-18.83,48.24,59.41,46.57,19.85-1.44-34.21-23.69-9.77-16.27-67.69,5.77-45.05-20.22-26.4-12.78,10.92,2.84,14.25-84.2,57.54-94.95,47.01-33.51-32.84-20.27-6.19,10.28-45.54,33.84-43.59-31.84,16.87-34.58,17.33-22.55,3.75-31.65-20.41,4.21-40.95,29.29-16.78,17.76-52.42,80.59-32.89,51.85,16.11-26.84-30.32-31.75-29.69-44.31,5.66-77.41,107.45-121.27,67.07-22.87-21.06-13.06,17.13-20.58-28.11-12.36,2.06-29.53,19.61-52.81-16.27-.44-.68,130-128.62,170.46-61.64,38.45,63.67,11.55-38.23-11.3-34.43-48.24,8.03,18.24-72.95-33.24-33.21-13.16,10.16,5.17,23.87-51.66,41.64-.67.21-6.2,12.77-24.97,17.96-27.76,7.67-59.49,69.58-95.43,44.07-71.49-50.72,6.47-65.4-120.01-92.66-28.94-6.24-37.27-48.42-69.84-44.06-51.77,6.94-93.78-60.96-122.31-10.63-2.66,4.7-2.39,14.93,1.36,18.69h0Z"/>
  <path class="o" d="m1249.75,2388.45c-29.67,28.9-37.04,34.11-88.63,72.66-58.78,43.91,75.56,74.95,27.28,80.69-28.92,3.44-40.3-58.88-80.33-12.48-2.52,2.93,22.88,17.09,38.41,31.3,7.88,7.21,76.54,53.76,6.08,27.57-6.21-2.31-69.92-65.24-87.77-12.99-2.84,8.32,65.84,36.71,83.58,65.72,3.33,5.44,52.37,55.74,5.79,28.86-4.83-2.79-90.05-66.22-96.31-73.32-5.36-6.06-45.2,15.96-13.32,18.95,26.34,2.47-26.64,42.03,38.65,79.27,13.3,7.59,21.58,27.95,67.38,52.45.17.09,28.13,35.42-18.48,5.17-73.59-47.75-61.35-43.35-123.83-102.92-6.88-6.56-78.5,14.6-17.04,39.29,43.15,17.33,40.28,101.53,126.97,127.73,20.29,6.13,9.05,11.67-20.77-.14-39.76-15.74,5.32,87.09-22.3,88.69-18.55,1.07-20.19-117.33-55.87-159.41-11.88-14.01-52.95-75.15-67.61-54.05-27.2,39.17-131.63,72.07-41.69,112.53,10.95,4.93,70.37,72.06,97.08,75.07,1.08.13,61.25,55.94-.46,21.17-53.55-30.17-110.36-54.26-138.56-106.12-1.32.22-44.18,20.75-20.08,43.64,18.99,18.04,31.76,52.57,70.41,78.14,6.56,4.34,79.14,70.56,58.74,66.6-53.17-10.32-77.66-73.98-122.49-104.65-12.81-8.76-44.27-69.29-63.57,10.06-.21.86,184.82,202.84,109.07,144.06-51.83-40.21-77.65-82.57-122.7-116.46-8.32-6.26-29.11,19.62-29.64,19.9,6.16,26.47-15.19,11.89,21.5,65.44,4.43,6.47,92.38,119.56,40.9,85.4-29.98-19.9-90.83-119.68-95.67-118.34-20.2,45.35-56.63,32.31,7.3,100.23,87.65,93.12-3.34,35.08-37.31-18.74-25.99-41.19-74.74-7.35,12.59,67.43,40.67,34.82-32.07,13.31-42.93-12.71-14.68-35.18-7.42-27.38-36.09-9.1-6.24,3.98-19.35,25.49-52.39,41.27-5.04,2.41-21.48,30.34-27.45,36.92-33.85,37.36-26.72-7.17,9.02-49.46,36.76-43.5,20.87-29.6,64.82-68.67,75.13-66.78-32.45-30.56-69.26-84.07-17.63-25.61,78.2,52.89,113.58,18.17,11.07-10.87,33.83-60.67,33.35-60.57-1.48.3-128.08-18.14-114.56-23.26,45.83-17.36,111.3,16.24,63.33-35.74-25.34-27.46-89.25-141.86-18.67-55.17,6.9,8.48,84.27,83.23,86.58,83.19,4.05,5.43,45.31-51.3,69.55-59.75,12.95-4.51-120.88-53.25-123.25-53.13-6.01-6.84-84.27-46.69-7.53-35.54,69.28,10.07,149.09,123.32,176.7,35.98,2.64-8.34-54.99-35.19-79.38-52.56-44.66-31.79-170.54-9.02-126.44-50.46,18.09-17.01,96.37,22.23,37.5-45.43-3.12-3.59-14.78-56.89,3.87-21.74,16.14,30.42,37.58,70.37,71.44,78.35,57.78,13.62,117.46,64.81,118.26,65.05,1.03.31,32.54-9.34,1.58-24.95-42.27-21.33-156.53-97.72-30.96-32.29,70.86,36.92,52.21,32.86,84.9-8.13,1.64-2.06-230.21-169.38-62.94-67.66,3.57,2.17,73.69,31.2,75.66,30.2,79.47-40.09,13.63-50.51-27.94-119.34-52.66-87.2,31.04,35.39,55.98,35.32.31,0,73.07,40,57.89-.26-3.13-8.31-103.97-133.48-54.94-109.8,23.44,11.32,57.67,86.28,69.88,107.32,3.95-2.2,141.44-147.35,180.71-173.22,21-13.84,176.12-99.33,173.74-86.02-12.06,67.25-85.17,44.08-120.89,78.88h0Z"/>
  <path class="bm" d="m1570.19,2530.32c-45.28,15.11-249.73,358.25-27.73,426.43,128,39.31,50.06,90.91,148.86,118.96,63.88,18.14,280.27,5.31,324.59,31.08,20.84,12.12-1.39-116.3,27.99-158,29.67-42.12-6.94-259.57-58.96-302.67-2.91-2.41-33.07-97.2-48.19-115-88.8-104.55-72.85-87.81-217.45-69.15-6.18.79-131.22,52.76-140.11,63.42l-9,4.93h0Z"/>
  <path class="bt" d="m2145.72,2153.38c47.96-46.27,306.86,3.98,387.38,23.23,186.16,44.52,239.78-41.02,437.13,105.16,50.19,37.18,93.34,55.99,123.18,111.35,19.39,35.99,78.85,160.72,24.3,174.36-99.72,24.93-117.32,32.98-225.31,30.94-103.01-1.96-307.06-84.32-398.56-135.43-101.77-56.85-213.88-113.26-288.34-205.22-.33-.41-80.94-84-59.79-104.39h0Z"/>
  <path class="av" d="m2420.55,2178.9c63.75,41.42,79.87,75.06,129.89,133.49,13.55,15.83,60.05-33.76,98.81-41.76,19.57-4.03,74.16-51.28,85.95-40.77-5.88,16.89-75.84,38.84-72.89,78.03.57,7.65-89.42,73.8,46.19,8.11,48.43-23.45,59.05-98.1,62.6-93.67,26.28,32.73-26.5,42.26,39.34,18,47.57-17.53-26.86,34.05-36.9,56.9-3.96,9.01-70.61,66.44-20.05,68.27,6.13.22,94.95-76.78,94.26-88.05-.07-1.23,15.63-71.57,15.44-7.79,3.41,1.2,63.71-20.19,56.06,2.26-.08.24-55.53,16.7-60.91,26.26-17.98,31.97-19.95,15.41-46.27,52.56-32.22,45.48,1.36,56.91,13.16,30,16.19-36.92,46.63-74.7,34.49-40.64-24.93,69.98,1.47,42.25,30.72-8.08,1.01-1.74,40.91-89.56,32.46-47.16-4.44,22.27-24.94,43.76,26.57,1.46,26.44-21.72-7.87,34.84-48.79,52.16-14.85,6.29-48.73,87.37,8.52,43.03,20.89-16.18-6.78-21.41,20.79-30.25,1.4-.45,60.9-93.23,49.76-41.25-.48,2.22-96.13,107.88-43.16,95.07,22.08-5.34,75.39-110.74,81.92-72.34.33,1.93-101.51,143.44-21.7,77.34,3.32-2.75,81.52-105.59,31.17-17.84-.54.96-70.91,83-9.95,45.07.26-.16,26.12-42.73,51.96-52.33,24.43-9.07-24.97,22.32,10.37,32.67.14.04,32.26,24.81,7.01,14.97-58.32-22.71-63.29,35.45-25.34,12.47,15.78,5.54,5.73,7.6,38.73,15.77,16.55,4.1,27.06,18.01-19.77,10.83-10.97,9.96,25.57,29.33,33.49,61.08,3.14,12.57,20.84,31.55-4.34,25.09-4-1.03-64.53-98.33-40.46-6.63,1.49,5.68-22.87,23.9-21.75-43.4-45.29-18.56,18.77,51.23-14.72,53.45-3.64.25-25.84-103.2-50.07-95.75-1.25,15.14,56.53,112.44,27.41,104.28-10.05-2.82-8.48-40.1-23.03-46.32-27.24-5.64,15.27,53.94-7.64,62.63-26.16,9.92-20.04-2.94-6.13-14.26,5.44-4.43-8.77-23.68-13.61-36.84-5.18-14.11,23.65-46.8.86-81.33-17.12-25.95-2.87,75.56-31.93,3.38-11.48-28.51-8.39,25.69-.08,52.39,13.28,42.66-3.9,48.92-8.65,20.37-3.43-20.63-6.83-96.34-30.71-92.14-14.31,2.5,23.45,127.64-3.34,87.02-3.93-5.95-21.95-117.99-42.4-92.29-.82,1.03-1.02,78.04,18.65,96.31,17.82,16.54,55.3,53.15,57.82,58.99,5.62,12.96-48-24.32-70.83-51.25-7.24-8.53.53,44.43-5.6,43.67-2.83-.35-17-29.36-21.98-50.35-6.22-26.16,24.71-102.1-9.77-110.72-39.6-9.9-1.55,42.99-4.11,76.42-9.42,5.23-33.19-114.29-59.46-83.74-5.12,5.95-22.26,40.53-62.25-.48-8.15-8.36-24.17,8.77-60.43-24.31-47.18-43.07-67.52,1.39-153.5-133.91-60-94.42-160.19-30.88-176.73-59.25-11.45-19.65,95.82-33.72,124.83-14.87h0Z"/>
  <path class="d" d="m2023.83,2172.38c187.04,11.22,179.97-41.41,403.58,32.1,248.79,81.8,146.87,19.55,292.47,206.39,15.73,20.19,120.98,128.71,119.86,140.34-4.2,43.74-187.43,17.43-280.77,98.9-102.46,89.43-219.17,20.73-363.06,23.87-101.29,2.21-308.89-72.67-365.34-167.7-29.44-49.56-125.92-103.7-57.16-184.74,53.18-62.67,232.11-90.57,240.7-144.83,6.52-3.24.15-4.91,9.7-4.33h0Z"/>
  <path class="ab" d="m2028.85,1151.51c-36.82-143.73-66.38-289.6,49.1-399.77,51.45-49.08,205.28-70.98,181.5,54.8-23.04,121.87-99.43,305.55-153.71,420.37-23.16,48.98-72.98-60.15-76.89-75.4h0Z"/>
  <path class="u" d="m2284.09,557.85c14.44,9.39,90.35,48.12,134.23,104.34,73.66,94.36,140.78,225.72,144.44,251.6,8.26,58.41,74.1,157.08,32.29,235.02-30.58,57.02-10.74,109.22-75.42,162.74-104.75,86.67-45.3,126.35-170.91,249.67-33.75,33.14-191.14,225.17-159.53,55.4,26.99-144.95,70.28-141.31,40.42-320.79-14.94-89.85-41.19-231.9-36.9-319.26.78-15.76-27.12-182.05-.35-202.07.47-87.54,88.23-71.2,66.58-142.52-14.85-48.94,16.01-80.07,25.15-74.12h0Z"/>
  <path class="ae" d="m2249.57,1530.75c31.53-46.16-152.98-131.63-6.44-82.43,19.54,6.56,41.26-32.14-16.59-39.81-8.2-15.49-57.62-25.09,23.17-36.51,14.68-2.08,31.43-43.18-31.26-68.39-86.3-34.7-87.9-84.29,7.97-39.57.35-.2,107.16,8.02,22.72-34.65-18.39-9.3-174.62-78.86-87.13-85.03,15.63-1.1,114.08,62.63,97.74-1.87-2.75-10.85-95.65-55.48-124.07-88.55-67.29-78.27,63.74-18.25,117.1-6.87,9.69,2.07,17.41-8.24-19.19-33.12-62.03-42.17,60.11,7.06,57.88-1.8-10.28-40.9-194.55-73.3-91.87-80.53,1-.07,101.03,45.06,88.21-5.62-.37-1.44-48.04-46.23-55.62-34.79-17.54,26.43-31.21,10.8-40.36-3.51-4.14-6.48,8.59-70.04,82.21-21.26,44.2-23.78-69.4-58.78,9.84-46.91,30.1,4.51,10.53-38.88-60.56-23.44-21.43,4.65-45.3-88.19,44.49-32.17,28.95,18.06,55.08,16.26,4.57-24.21-4.58-3.67,24.01-5.51-.24-31.69-6.62-7.16,17.31-30.28,17.25-58.26-.06-28.75-30.61-50.5-.05-65.79,25.57-12.8,51.48,64.67,52.06,65.94,6.51,14.19,130.19,10.58,41.98,68.64-45.19,29.75,45.52,6.21,29.32,17.55-37.89,26.52-11.31,3.21-54.45,16.02-7.09,2.11-5.46,66.57,66.61,4.48,17.37-14.96,101.43,13.78-13.65,50.94-11.06,3.57,1.35,18.1-21.56,46.77-40.76,50.98,59.24,16.61,90.16-38.6,6.06-10.81,58.87,6.78-53.26,82.15-16.82,11.31-84.73,45.19-1.74,26.84.27-.06,52.56-46.58,48.47-17.12-2.62,18.83-66.48,25.45-97.25,57.42-39.43,40.97,39.42-.01,65.33-22.77,17.94-15.76,41.08-8.64,82.41-54.9,13.16-14.73,43.2,32.24-24.49,62.51-.49.22-103.69,87.53-99.96,90.02,23.07,15.34-62.04,42.78,23.42,25.81,45.01-8.94,9.01-79.51,35.26-47.57,16.23,19.74-18.81,35.17,31.81,18.15.22-.56,41.55-42.7,14.48-43.2-.58-.01-47.04,33.38-39.5,5.07,1-3.77,26.04.71,38.87-28.99,10.61-2.87,88.11-66.39,40.18,20.19-14.31,25.85,80.52,71.12,39.95,79.66-.96.2-115.95-69.97-46.47,7.73,66.22,74.04-12.33,30.19-34.3,17.56-.65-.38-43.64-7.37-16.59,10.03,28.29,18.2-14.01,65.56-25.9-5.91-17.42,2.9-137.48,34.29-98.63,57.04,20.4,11.95,46.45,2.95,62.88-17.88,14.31-18.14,61.61,20.98-53.05,37.91-21.46,3.17,88.94,34.3,29.46,37.97-20.87,1.29-25.41-35.78-36.35.09-7.58,24.85-20.18,1.63-13.19,43.59,35.86,16.68,136.7-87.41,183.98-107.45,8.95-3.79,59.22-51.08,46.11-5.58-8.41,29.17-41.39-9.21-25.14,45.73,2.75,9.31-126.11-6.51-39.19,24.88,40.88,14.77-69.09,1.71-38.25,41.25,9.68,12.41,107.49-2.07,37.2,27.33-35.83,14.98-76.45-25.8-135.99,5.53-22.33,11.75-38.2-3.1-35.77,65.91.7,19.92-25.05,122.5-33.17,147.3-6.46,19.75-8.71,55.58-28.22,78.29-6.31,7.34-139.09-50.11-33.63-49.59h0Z"/>
  <path class="ag" d="m1759.15,0c56.35,43.21,143.99,167.16,182.77,228.9,21.78,34.67,46.39,136.87,21.09,178.84-10.19,16.9-21.39,138.75-57.45,211.55-37.54,75.78-183.17,558.87-216.48,548.43-64.81-20.31-97.73-218.34-95.72-277.6,1.9-55.74-9.35-280.49-19.05-338.79-5.3-31.9-32.8-209.83-25.01-229.65,32.19-81.89,95.37-302.65,209.84-321.7h0Z"/>
  <path class="v" d="m1873.98,966.22c-4.11-13.77,50.56-58.42,60.6-102.72,13.32-58.76-15.1-34.65-48.92-75.87-18.65-22.73,68.42,45.02,89.39-.83,7.43-16.26,5.58-5.78-28.15-26.97-2.1-1.33-99.91-48.58-21.43-28.8,18.79,4.74,77.39,59.3,63.64-5.51-.13-.64-42.01-12.92-49.19-24.31-36.31-57.64-1.22-55.29,2.84-23.13.45,3.57,37.58,59.62,83.01,16.1,27.75-26.59-53.53-10.79-69.85-84.48-11.79-53.24,2.27-12.68,32.66,23.5,10.66,12.7,41.3,32.77,48.13,5.55,11.19-44.58,59.74-8.99-29.06-73.11-23.8-17.19-26.38-37.44,7.38-2.97,3.29,3.35,57.22,31.1,62.49,15.14,5.38-16.3,22.43,8.62-18.91-49.34-24.16-33.88-8.96-68.51,8.28-19.77,9.24,26.12,47.32,47.26,58.43-3.35,8.02-36.54,8.38-6.23-29.89-53.49-44.81-55.33,35.72,20.87,45.02,5.04-.55-10.96,42.67-25.68,4.81-54.73-4.2-3.23-17.27-46.97,10.09-3.43,12.52,19.91,27.19-32.43,45.68-55.23,13.74-16.93,54.51-45.1,12.94,4.9-22.3,26.82-44.98,83.42,25.31,25.59,5.29,15.2-48.44,32.57-65.28,76.16-9.55,24.71-4.41,18.14,28.54-5.54,53.11-38.17,53.36-26.1,27.77-2.9-22.14,20.07-67.54,49.44-67.61,50.19-2.41,25.3-63.58,58.66-.65,44,9.7-2.26,110-67.58,36.19-8.45-36.23,29.03-59.74,10.71-102.23,66.16-37.86,49.41,92.13-23.54,98.86-24.66.95,19.04-113.87,52.17-119.22,84.2-.91,5.45-38.81,51.5-7.1,38.88.42-.17,103.06-94.56,72.01-49.19-16.54,24.17-41.87,33.4-65.47,63.42-9.09,11.57-92.42,38.37-88.41,105.18,1.12,18.7-53.19,111.63-73.15,128.53-8.74,7.4-84.09,159.19-88.47,137.99l48.9-111.72h0Z"/>
  <path class="q" d="m1692.47,1074.01c17.05-68.07,6.91-136.26,45.21-188.89,24.21-33.28,7.17-37,26.48-50.91,27-19.46,101.48-81,43.43-56.86-16.88,7.02-54.97,44.01-61.1,38.55-78.39-69.66,105.81-54.32,113.65-102.57.28-1.69,20.53-55.73,27.11-71.67,10.91-26.42-45.18,75.08-63.54,77-16.14,1.69-68.99,34.54-70.39,24.6-4.63-33.01-15.18-74.43,30.24-84.24,22.9-4.94,50.83,24.06,79.79-37.59,4.58-9.76,39.72-24.65,54.33-62.78,16.15-42.14,4.3-42.39-3.32-14.47-11.28,41.32-66.4,63.72-100.9,79.64-34.64,15.97-12.5,10.77-58.84,22.85-3.15.82-18.16,13.31-21.58-17.26-2.44-21.81,68.19-114.9,104.35-117.8,32.29-2.59,20.06-12.76,57.88,15.6,9.42,7.06,30.26,4.19-2.09-17.42-33.38-22.3,65.66-34.71,52.87-111.58-3.29-19.8-11.59,59.97-38.6,70.18-20.98,7.93-118.52,75.4-103.26,3.27,6.56-31.01,45.85-43.2,47.46-81.96,1.28-30.68,25-40.82,24.86-91.93-.07-24.17,54.65-4.22,62.83,9.08,5.62,9.14,12.67,26.56,23.25,24.8-11.6-69.76-73.87-26.83-50.96-106.04,9.22-31.85-21.91-41.94-13.62,8.5,1.36,8.29-83.73,162.27-101.89,154.08-23.94-10.8-26.91-90.7-12.75-99.83,27.31-17.59,24.67-6.84,51.23-36.83,3.28-3.7,14.54,2.19,28.88-12.58,2.59-2.67,51.28-29.49,1.65-10.29-25.02,9.68-97.06,76.6-80.94,15.92,3.62-13.63,59.27-14.34,71.81-35.24,3.47-5.78,39.84-15.18,44.35-41.71-6.59,1.1-35.48,38.36-76.67,40.95-1.69.11-71.49,38.44-29.81-24.36,11.94-17.98,110.74-57.8,67.08-52.29-.28.04-1.99,7.08-39.95,10.89-8.2.82-39.41,30.06-32.76-9.06,1.64-.49,107.92-57.57,29.81-29.63-24.52,8.77-30.26,31.28-31.29-6.9-.06-2.28,75.12-51.54,13.65-27.98-29.78,11.41-28.08.19-37.65-57.32-2.26-13.62-15.24,1.08-14.64,50.14.36,30.12-54.14-44.65-33.62-3.09.14.29,63.99,69.05,27.61,54.37-.31-.13-42.65-57.41-68-29.89-3.64,3.95,25,13.84,39.83,25.68,36.06,28.76,29.61,15.21,39.05,71.98,7.29,43.83-75.47-81.45-78.63-75.91-9.2,16.14,12.16,35.25-22.43,20.58-12.97-5.5-41.99,18.33,20.94,13.37,28.83-2.27,60.11,46.91,65.6,79.93,5.16,30.99-.99,33.25-23.67,12.52-2.5-2.28-20.53-21.2-21.59-21.14-15.99-18.22-18.73,2.86-41.86-52.59-11.63-27.88,2.77,15.78-13.29,20.39-62.89,18.05,2.18,7.25,11.66,15.93,19.19,17.58,93.9,66.78,89.56,91.29-7.91,44.72-15.66,35.66-55.42,11.36-12.31-7.52-51.28-65.62-53.96-81.76-7.17-43.1-9.55,7.71-12.13,8.14-5.73.96-41.41-8.63-31.89,16,.36.06,38.27-31.06,60.23,37.02,2.59,8.04,75.3,63.97,31.89,65.81-2.83.12-94-37.5-76.35-89.17.37-1.08-4.01-21.39-9.54,2.29-3.5,15,5.46,10.4-7.91,24.23-.85.87-37.56,46.93-37.05,49.99,39.18-6.52,1.16-40.02,48.16-20.07,12.68,5.38,69.74,58.07,73.37,79.87,12.19,73.26,2.89,71.19,42.46,136.08,7.37,12.07,4.28,76.14-2.96,91.06-25.95,53.41,27.95,92.72-4.47,197.22-12.91,41.62,10.27,64.29-16.76,117.84-9.4,18.63-26.41,177.12,5.27,159.54,4.5-2.49-1.24-10.92.26-16.89h0Z"/>
  <path class="ao" d="m1323.45,2104.88c-5.29-49.41,82.4-81.19,52.23-180.32-16.23-53.32,35.39-59.06,37.7-94.04,7.15-108.26,140.4-20.24,204.86-77.86,132.16-118.13,339.02,201.01,365.58,73.3,24.21-116.4-312.67-325.52-285.76-374.95,29.98-55.07,105.11-79.69,52.26-102.32-56.07-24.02-198.8-50.26-217.22,28.45-14.64,62.54-21.65,128.74-81.38,155.9-79.63,36.21-115.07,47.69-120.46,121.26-5.43,73.9-164.99,84.82-218.07,261.98-4.83,16.11-217.52,140.85-81.64,149.49,22.28,1.41,77.32-73.13,135.5-95.83,29.06-11.34,115.93-28.18,119.66,2.42,9.84,80.8-50.25,112.87-32.08,146.99,2.3,4.32,57.09,60.66,65.32,21.68.71-3.35,3.95-32.02,3.51-36.14h0Z"/>
  <path class="h" d="m1802.11,1031.72c-13.01-52.28,12.24-351.55-19.11-398.01-51.49-76.31-125.74-131.74-169.73-213.27-66.18-122.63-109.5-91.34-154.72-137.27-49.56-50.33-120.19-114.39-159.05,7.94-31.16,98.07,46.3,269.4,68.02,323.15,73.18,181.02,113.46,142.23,154.69,390.09,5.68,34.17,193.1,381.65,226.62,340.88,29-35.28,58.57-47.03,55.62-118.71-1.2-29.12,7.17-156.57-2.35-194.81h0Z"/>
  <path class="az" d="m1699.72,2549.62c-57.18,46.76-73.39,30.91-140.01,63.94-58.77,29.14-91.08,83.95-18.58,28.01,16.56-12.77,139.36-73.32,145.08-46.01,9.52,45.55,34.29,11.11-35.23,55.78-29.89,19.21-33.86,30.32-77.17,50.33-13.38,6.19-85.81,82.4-93.93,94.27-19.25,28.14-34.87,73.5-4.96,30.5,11.42-16.41,227.15-216.33,226.93-171.31-.14,30.25,53.89,30.84-49.01,76.99-22,9.86-89.9,57.58-96.61,78.93-4.58,14.59-36.65,93.86-30.93,115.52,4.84-.81,35.83-97.36,63.01-121.58,43.31-38.58,56.27-36.57,94.44-70.04,7.04-6.17,20.84-12.89,28.61-17.82.59-14.78,69.62,21.72,5.74,55.02-22.28,11.61-18.31,37.56-69.82,65.58-38.63,21.01-58.96,83.01-57.07,123.44,2.3,49.35,6.63-59.54,63.43-88.6.29-.15,38.78-47.57,53.58-59.4,40.65-32.45,25.55-74.62,72.92-7,34.01,48.56-123.94,144.64-112.3,214.62.79-.27,47.41-89.04,81.93-122.63,2.15-2.09,61.27-82.57,67.05-24.69.85,8.52-38.83,33.69-38.74,62.17.02,5.04-29.67,25.59-35.33,51.79-.11.54-33.42,103.12,7.14,37.15,9.95-16.18-13.57-24.76,41.33-81.55,16.3-16.87,40.11-92.57,59.71-30.97.4,1.27,16.15,28.15,16.16,28.28-9.87,8.87-12.17,25.89-46.01,52.88-28.07,22.38-52.57,94.6,21.36,9.63,13.6-15.64,39.09-55.17,59.2-26.32,12.89,18.5,22.75,44.55,42.61,60.34,4.93,3.91,88.02,102.74,70.48,48.45-.11-.33-51.14-46.67-59.52-62.78-44.86-86.16-67.08-91.63,62.8-117.02,19.46-3.8,42.85-21.27-3.89-13.5-72.9,12.13-92.89,52.61-139.19-3.61-14.11-17.14,209.32-103.48,128.58-90.05-30.2,5.02-130.15,88.73-150.25,61.64-25.13-33.89,28.22-34.71,62.65-65.35,8.08-7.19,138.21-114.52,56.63-57.1-17.74,12.49-146.64,132.12-157.21,68.59-2.12-12.72,54.63-29.22,80.79-60.08,2.29-2.7,94.17-70.58,62.19-63.78-4.7,1-92.36,75.4-107.26,83.53-39.11,21.33-44.93,36.09-70.29-26.37-16.05-39.53,156.56-87.24,129.27-105.8-.64-.43-65.79,37.59-77.65,39-27.58,3.27-80.84,83.56-85.24-5.93-.95-19.3,91.07-41.92,117.44-70.22,56.69-60.85-23.2.31-23.8.19-9.7,10.16-126.35,74.45-112.3,27.46,9.18-30.71,13.92-11.39,46.69-40.38,24.01-21.24-47.56,17.77-55.74,2.86-11.82-21.56,5.18-8.26-19.7-37.05h0Z"/>
  <path class="aa" d="m1324.5,2143.56c-45.21,8.69,23.25-123.09-47.36-122.2-13.58.17-17.14-59.89-70.83-80.56-53.44-20.58-112.08-42.25-147.51-83.94-2.41-2.83-137.18-67.57-144.96-59.52-39.24,40.56,2.44,147.23,11.44,199.15,14.17,81.64,254.29,174.21,328.44,185.63,77.32,11.91,96.99-43.61,70.78-38.56h0Z"/>
  <path class="bn" d="m1649.75,1087.88c-9.85-19.8,115.46-76.97,125.78-81.89,6.63-3.16,23.24-20.1-5.87-13.49-37.17,8.43-102.84,64.12-126.51,62.18-8.18-.67-38.63-53.98-26.55-55.99,40.73-6.77,238.77-77.97,62.15-48.59-22.69,3.78-90.08,38.58-76.3-25.11.66-3.07,136.65-23.84,151.06-17.63,77.73,33.54-19.07-15.71,5.93-50.66,8.44-11.8,19.02-21.56,16.65-35.8-29.65,2.88-5.89,53.14-111.67,70.73-52.18,8.68-57.94,22.95-71.04-29.91-5.79-23.34,108.87,17.11,150.15-47.58,16.46-25.8,111.58-125.28,7.81-47.1-50.89,38.35-.71,29.16-104.21,71.98-55.42,22.92-83.93-44.69-10.31-50.59.46-.04,47.85-20.13,67.4-23.38,74.02-12.31,105.15-79.06,59.89-42.45-63.86,51.66-70.15-3.05-.5-17.69,32.58-6.85,22.66-24.78-26.8-16.55-38.62,6.42,16.22-16.56,7.77-67.36-43.63,3.13-20.31,120.3-109.82,129.69-41.84,4.39-26.68-42.93-61.83-71.28-34.73-28.01-55.23-73.38-49.25-116.24,8.73-62.45-53.11-63.38-69.2-160.07-16.27-97.8,25.8-20.93,55.37-64.46,19.02-27.99-74.17,24.81-82.49-47.22-.43-3.66-87.35-99.79-17.45,3.2,36.8,54.23-73.06-45.33-61.22-14.45,1.99,5.19,19.04,2.11,37.31,28.42,8.93,12.85,85.47,104.59,14.44,55.42-3.84-2.66-100.84-153.56-74.21-73.44.28.84,166.61,196.42,102.25,166.14-13.06-6.14-162.56-240.58-98.83-114.25,7.83,15.52,115.61,152.74,102.27,154.96-43.79,7.29-71.42-106.73-108.61-130.31-14.78-9.37,56.86,110.94,68.57,130.02,42.99,70.02,11.82,48.86-23.34-1.78-23.29-33.54-58.85-25.03-19.33,3.42,24.51,17.65,93.65,172.23,123.84,209.44,24.8,30.56,79.85,248.69,97.16,298.84,6.36,18.43,95.38,244.11,114.15,180.81,1.72-5.82,9.6-11.87,6.99-23.33-.69-3.07,51.43-15.66,70.25-36.5,24.94-27.6,29.54-77.66,27.87-82.05-1.28-3.39-23.45,53.58-52.99,74.14-19.47,13.55-58.11,8.8-68,1.27-11.05-8.41-13.97-23.91-18.73-33.48h0Z"/>
  <path class="k" d="m2233.95,1885.71c86.55-98.5,68.81-192.99,151.27-290.51.91-1.08,38.98-104.09,63.65-132.83,59.63-69.44,24.3-77.3,141.79-142.59,86.23-47.92,94.96-98.62,222.93-157.53,29.67-13.66,196.22-72.79,224.47-51.63,76.01,56.92-27.5,210.72-58.44,275.27-34.72,72.46-112.32,126.57-177.44,172.84-1.39.99-368.95,206.46-373.05,207.93-72.22,25.84-206.15,225.36-209.04,138.18-.02-.65,12-17.03,13.85-19.14h0Z"/>
  <path class="af" d="m2377.52,1752.19c7.78-43.15,5.54-13.05-7.04-76.15-3.28-16.46,33.18-35.32,27.43-87.92-.02-.2,9.35-70.01,12.46-15.14.81,14.32-2.36,88.65,9.18,87.26,43.52-5.27,23.78-47.11,8.09-81.11-14.1-30.54-4.83-99.81,9.79-38.91,3.8,15.84,50.93,40.79,11.63-45.39-12.47-27.37,19.21-11.7,29.77,51.84,11.23,67.5,18.3,6.12,36.75,3.65,10.08-1.35,33.09-75.73,7.57-80.48-51.57-9.6-79.44-71.49-38.27-41.87,81.2,58.4,19.38-78.75,42.24-62.41,2.3,1.64,11.98,83.56,24.42,18.16,4.09-21.5.07-66.78,13.73-1.93,7.33,34.82-27.18,184.12,54.62,170.52,26.96-4.48,3.94-80.68-22.98-107.06-31.48-30.85-13.63-146.22,2.36-50.13,11.96,71.87,38.1,32.64,48.42,116.65,1.17,9.54,52.16,33.16-5.51-89.12-.19-.41-39.41-132.42-14.6-89.9,10.34,17.73,56.6,140.92,37.39,25.44-4.15-24.93,83.73-146.39,28-19.86-3.78,8.58,64.72,71.52,31.3,69.75-11.09-.59-15.58-82.93-38.36,4.53-18.11,69.52,80.9-15.3,78.98-26.84-2.48-14.93-3.1-78.64-20.23-72.5-21.64,7.74-4.5-20.01-35.82-81.75-9.74-19.2,23.56-3.05,36.97,31.94,9.98,26.04,21.21-14.44,37.98,86.37,7.16,43.06,19.4-.71,50.55-28.34,37.27-33.07-55.8-112.1-22.72-136.55.37-.27,37.19,47.44,38.46,56.8,2.54,18.75,20.01,50.59,25.49-7.44,1.25-13.2,20.48-30.39,13.58,24.19-5.8,45.89,26.31,20.97,25.87-15.36-.17-14.32,116.71-192.12,99.35-114.14-3.52,15.84-70.08,94.58-20.94,68.42,9.3-4.95,29.29-54.6,49.71-53.79,2.94,17.68-50.79,34.03-14.68,44.29,21.29,6.05,35.85,61.36-1.04,23.53-26.99-27.66-99.66,61.7-76.05,57.77,9.61-1.6,115.73-33.08,73.88-.09-18.57,14.63-74.77-14.07-106.75,31.69-15.55,22.25,20.33,10.55,41.05,7.11,4.7-.78,80.96-21.85,30.3,4.4-48.14,24.94-25.15,6.62-2.83,32.13,19.76,22.58-54.55.81-55.85.85-66.75,1.81-23.07-42.45-77.58,2.37-58.55,48.14,70.91,30.07,45.14,55.68-18.67,18.56-61.4-32.52-81.24-1.2-.17.28-56.86,7.15,38.46,31.47,39.44,10.06,38.77-1.62,80.46-46.75,23.79-25.75,42.93-9.66,5.57,25.92-22.58,21.51-37.59,58.95-63.01,45.92-16.64-8.52-34.68-6.98-74.9-27.83-30.6-15.86-46.15,25.98-78.14,34.75-12.41,3.4,10.33,27.92-30.51,56.74-60.41,42.64-66.36,87.31-167.37,108.92-.72.15-73.11,48.39-90.22,56.33-31.51,14.63-64.37,160.89-61.16,71.09.07-2.17.13-2.33.88-6.48h0Z"/>
  <path class="bq" d="m2169.47,1797.95c5.29-141.49-10.32-98.78,22.57-236.7,6.65-27.88-107.9-54.05,32.74-155.59,32.48-23.45-15.23-96.71,157.72-105.04,105.86-5.1,187.75-18.58,277.15-73.67,54.29-33.45,56.46,3.65,125.82-76.66,19.76-22.89,296.41-162.8,279.35-62.69-18.92,7.82-75.66,62.42-49.45,104.61,93.89,151.15-86.25,30.34-126.62,37.06-151.37,25.18-147.29,56.9-276.05,125.69-90,48.08-60.84,80.47-222.51,144.95-69.94,27.89-38.36,46.47-119,72.64-27.36,8.87-86.66,78.63-75.59,134.21.94,4.74-23.9,198.38-37.83,142.43-3.36-13.51,11.23-38.98,11.68-51.25h0Z"/>
  <path class="b" d="m2278.59,1479.13c-11.09-8.56-36.19-86.48-1.77-44.11,23.74,29.23,28.61,75.39,63.3,33.12,11.54-14.06-73.9-65.4-39.09-68.49,5.04-.45,18.22,27.23,40.32,36.08,29.52,11.83,43.93,34.83,78.54,11.36,13.72-9.3-131.19-61.1-85.94-58.8,13.22.67,113.3,72.47,108.51,28.01-1.39-12.86-78.68-21.37-99.52-64.9-32.8-68.49,12.89-23.03,18.8-3.01,3.57,12.13,91.69,58.76,102.37,51.71,44.62-29.45-31.5-19.17,23.52-30.25,2.47-.5,45.67,5.73,26.1-11.36-21.34-18.64-104.52,1.36-147.82-45.01-13.34-14.28,32.71-2.99,48.54,4.88,32.71,7.98,123.24,40.55,139.07,28.42,39.73-30.43,29-16.51-25.74-33.24-6.08-1.86-114.49-3.99-93.4-7.5,33.04-5.5,64.97-17.65,86.59-7.52,3.26,1.53,141.8,47.94,78.11-6.27-35.66-30.35,29.71,2.58,37.31-2.25,22.37-14.22-15.1-13.81,34.14-43.3,9.55-5.72,22.46-29.19,36.69-26.18-4.58,6.39-3.85-1.92-16.59,22.18-2.62,4.95-46.98,35.03-.29,25.44,36.88-7.58,66.55-106.68,91.42-96.74,26.38,10.54-37.11,66.83.45,60.59,50.73-8.44,18.16-64.15,32.11-78.73,12.2-12.76,16.76-10.35,23.65-31.23.76-2.32,38.22-17.76,18.57,32.98-16.87,43.57,57.51,37.12,49.01-13.92-7.22-43.41,87.49-60.41,102.63-77.93,1.57-1.82,44.57-9.17,21.59,6.1-30.88,20.52-48.79,24.52-67.47,54.41-5.67,9.07-19.95-4.2-14.27,29.97,73.91-12.3,31.21-20.48,39.48,29.21,2.05,12.33,101.97,112.08-8.16,49.5-44.45-25.26-38.91-31.29-99.46-21.22-47.46,7.9-19.48,18.44-80.01,29.36-.64.11-45.95,11.95-63.71,24.44-35.07,24.67-102.95,58-136.58,80.22-34.83,23.01-79.77,63.52-114.35,95.1-16.1,14.7-137.1,56.24-144.39,70.39-3.06,5.94-141.87,93.39-100.17,36.59,15.47-21.07,105.53-15.9,37.92-68.11h0Z"/>
  <path class="r" d="m1445.81,581.17c-56.83,31.29-114.88,118.11-144.38,173.93-96.19,182.04-113.71,170.53-107.43,400.02.37,13.47,58.65,536.59,103.49,410.21,19.4-54.69,103.43-134.04,143.14-219.21,51.76-111.01,142.63-408.55,122.66-528.57-12.05-72.4-41.13-187.76-101.69-234.21-2.81-2.15-1.68-9.95-15.79-2.18h0Z"/>
  <path class="bl" d="m2150.17,1663.99c-54.62-3.34-116.9-257.4-176.15-339.82-58.56-81.45-82.4-169.49-207.8-180.25-174.7-14.98-218.93-21.71-388.05,6.42-54.13,9,136.85,236,157,273.86,41.91,78.71,213.53,175.22,296.17,204.68,38.39,13.68,408.26,232.85,327.88,57.04-1.26-2.76-8.98-21.92-9.04-21.92h0Z"/>
  <path class="ar" d="m2190.09,1748.08c-55.9-14.75-121.22-138.97-104.03-208.97,4.05-16.48-40.85-142.62-13.66,20.81.97,5.82-4.19,81.51-22.65,49.92-15.38-2.04-52.86-85.58-21.93-115.37,20.74-19.98-19.46-86.42-10.66-19.97.19,1.41-22.39,74.53-27.6-17.58-1.62-28.54-12.65-165.6-19.09-54.18-2.55,44.19,13.78,107.71,6.75,137.37-.09.37-65.43-30.64-70.25-59.62-5.29-31.82,16.22-91.48,44.38-104.86,6.42-3.05,24.48-102.9.98-32.48-8.84,26.48-42.2,82.16-52.22,21.93-5.77-34.68,40.08-83.75,15.82-119.18-3.04-4.44-14.88,103.23-30.63,30.21-.05-.24,25.29-73.28,3.75-32.36-8.42,15.99-14.99-59.45-46.93-54.14,4.3,25.86,19.09,40.56,26.55,85.42,12.76,76.68,8.44,134.99,3,209.73-1.73,23.72-90.41,1.31-52.03-96.34,7.93-20.18-12.43-100.13,33.5-136.55,3.82-3.03,11.99-44.31-13.44-8.73-6.75,9.44-50.53-75.69-60.5-77.34,14.4,86.58,47.1,56.04,18.87,186.21-7.92,36.51-18.14,61.1-14.11,97.19,1.44,12.9-86.37,32.42-56.64-89.66,13.14-53.97-27.86-68.54,47.36-146.72,12.38-12.86-3.31-12.54-11.66-2.05-11.77,14.77-41.99-114.41-22.74,1.28,2.3,13.84-25.84,108.58-26.15-8.11-.2-75.18,6.59,36.64-37.85-33.23-13.09-20.59-12.24,7.09,8.7,31.81,6.01,7.09,2.24,34.01,17.15,62.62,7.36,14.11,6.86,123.12-10.53,115.21-50-22.75-4.87-68.01-27.37-58.06-3.89,14.19-8.19-6.36-7.9,27.37,0,.09-10.06,9.62-10.47-13.46-.51-28.84-26.84,13.79-16.03-89.56,4.41-42.2,66.17-72.65,27.19-67.36-16.82,2.28-9.31,46.51-46.44-11.12-6.09-9.46-50.68-39.78-25.07,12.05,8.27,16.72,41.11,20.12,11.66,69.36-1.23,2.07-36.58.5-24.33-19.74,8.27-13.67-26.13-47.47-6.79,30.52,3.56,14.36-40.02,17.59-28.49-26.21,6.61-25.13-3.26-12.12,11.97-56.64,15.51-45.36-35.88-2.36-104.78-13.76-15.86-2.62-57.39-2.94-54.12,16.7,5.59,33.61,30.22,17.23,39.58,61,1.2,5.62,33.55,21.55,40.84,50.93.96,3.86,25.65,74.38,34.35,32.68,7.6-36.39,30.19-11.48,62.46,3.09,19.69,8.89-8.05,42.77-36.24,31.53-30.67-12.23-3.67,17.94,3.26,44.36.31,1.17,41.65,68.31,33,16.33-7.09-42.6,9.08-24.8,31.15-57.88,6.74-10.1,60.28,20.53,23,48.75-2.44,1.85-23.29,23-23.38,25.05-21.15,9.05,14.65,59.77,12.99,41.84-4.06-44.02,71.45-110.73,80.35-53.49,2.84,18.27-22.98,16.72-29.88,52.61-9.56,49.76-11.67,39.05,16.55,84.42,43.63,70.13,40.59,12.74,10.79-24.64-14.31-17.95.12-152.72,60.73-48.26,4.73,8.15,53.36,39.54-.43,52.3-8.92,2.11-58.4,2.96-22.28,16.6,39.7,14.98,45.86-52.87,95.92-19.72,29.41,19.48-16.77,74.97-55.09,41.17-56.19-49.56-12.57,53.82,37.73,34.39,33.8-13.06-19.29,42.55,65.86,49.73,8.07-31.92-31-3.36-31.68-71.52-.3-30.18,76.9-30.34,86.72,17.11.07.35-38.17,47.15-7.14,80.72,16.93-2.14-11.4-19.54,8.26-41.02,6.64-7.26,8.64-64.42,31.32-48.19,29.61,21.19-18.02,89.75,6.41,105.42,33.53,21.5-4.47-20.37,18.13-33.97,22.22-13.37-6.78-67.71,33.46-46.15,36.18,19.38,1.26,30.65,63.84,52.61,5.45,1.91,26.62,41.8,67.67,54.45.32.1,73.22,59.3,65.43,28.53-1.92-7.58-14.6-10.56-24.24-13.11h0Z"/>
  <path class="ap" d="m1764.51,1824.06c-23.06-2.89-50.4-56.31-55.27-85.57-5.33-32.01-35.11-18.84-50.82-113.25-5.54-33.32-33.72-114.37-74.84-116.71-59.6-3.39-26.22-59.25-65.79-86.99-81.3-57.01-6.65-60.68-155.72-84.8-11.45-1.85-34.84,50.79,8.1,92.97,36.91,36.26,6.84,96.47-17.53,130.58-47.93,67.07,44.35,109.51,66.28,161.9,18.63,44.51,64.99,67.51,110,77.11,26.99,5.75,13.8,34.97,87.34,56.7,14.64,4.33,9.75,24.29,66.18,37.41,25.47,5.93,125.01,25.4,117.14-21.89-2.1-12.61-27.63-46.53-35.08-47.46h0Z"/>
  <path class="t" d="m2199.33,1797.6c-45.13-7.44-13.38-38.54-166.99-29.17-63.9,3.9-262.7-127.97-333.47-143.54-17.25-3.8-80.81-118.43-52.86-126.66,172.99-50.96,261.18,24.56,427.57,82.89,88.67,31.09,66.7,29.31,164.84,40.73,108.77,12.65-55.97,66.9-53.47,81.93.83,4.98,91.01,141.85,20.78,103.97-2.69-1.46-4.86-9.88-6.4-10.13h0Z"/>
  <path class="i" d="m2307.52,1762.02c-30.17-29.49-56.22-200.35-29.85-259.4,6.51-14.57,62.78-253.11,61.91-258.31-19.23-115.6-.3-48.18-45.23-149.11-45.7-102.69,34.58-244.85-243.97-268.21-167.62-14.06-203.58,181.88-107.83,266.43,66.65,58.86-77,176.11,103.05,295.15,29.19,19.3-16.42,132.28,147.5,242.03,44.82,30.01,115.69,257.91,114.5,138.97l-.08-7.55h0Z"/>
  <path class="bc" d="m1850.43,2318.27c14.01,2.5,89.07,47.98,135.27,35.02,29.5-8.28,120.96-60.32,134.66-72.33,136.56-119.78,27.86,14.32-7.2,28.21-27.3,10.82-101.77,61.22-98.32,62.31,15.9,5.03,28.51,8.2,35.09,8.14,43.16-.43,81.97,32.3,103.63-26.99,11.45-31.34,160.86-195.72,127.56-130.27-10.65,20.93-102.12,114.94-104.79,138.15-2.14,18.57-28.9,20.46,15.72,34.04,48.19,14.67,55.73-61.7,92.99-96.96,41.69-39.45,25.87-71.74,100.2-96.83,10.6-3.58-75.73,85.11-80.25,98.31-6.65,19.45-72.84,101.02-47.32,102.96,95.31,7.26,47.04,3.18,102.17-86.26,5.49-8.91,57.52-83.92,38.33-30.5-6.79,18.9-31.74,46.54-44.43,87.63-3.33,10.8-22.55,35.33-2.25,37.59,13.69,1.53,66.56-110.18,86.24-112.6,2.37-.29,6.22-.38-1.09,15.83-6.45,14.29-15.94,40-35.22,67.41-23.75,33.79-59.28,23.98,67.22,50.48,5.09,1.07,42.42-76.01,48.63-98.47,2.04-7.41,44.43-60.51,39.88-39.63-6.98,32.06-32.83,98.33-48.36,126-23.13,41.24,65.4,28.25,88.07,31.24,11.35,1.5,68.35-62.04,83.65-60.65,6.61.6-60.46,63.11-15.67,74.29,44.01,10.99,92.74,28.89,128.55,60.69,80.69,71.63-34.87,4.72-55.37-5.74-51.43-26.25-49.73-13.23-43.45,55.32,1.96,21.27-35.26-60.23-35.66-63.55-3.44-28.99-40.65-20.6-72.64-30.3-7.02-2.13-16.99,20.88-4.66,39.27,2.17,3.24,31.68,128.72-4.32,78.2-30.1-42.23-5.16-117.24-75.33-125.26-50.76-5.81-45.3-18.61-45.13,57.68.09,37.74.94,56.23,5.23,94.8,2.12,19.09-12.43,40.88-22.19,2.08-8.64-34.36-16.38-101.22-9.96-134.87,8.08-42.25-48.85-38.77-74.61-41.17-20.5-1.91-39.97,35.04-35.37,62.72,1.95,11.69,8.58,139.19,3.03,140.47-35.38,8.15-9.54-204.92-24.34-215.97-16.98-12.67-48.13-15.8-55.31,16.35-9.37,41.92-74.13,152.57-.36,168.91,33.66,7.45-40.97,29.05-46.25-2.68-7.12-42.78,3.32-87.01,13.36-123.91,5.68-20.88,46.51-85.73-24.85-73.86-23.55,3.92-69.8,104.95-69.16,129.6.75,28.83-1.61,48.29-18.24,74.46-29.96-37.26,57.64-201.95,49.44-207.56-44.31-30.3-78.9,59.72-99.01,86.09-3.88,5.09-58.15,96.78-64.95,91.49-17.02-13.23,15.33-28.48,22.12-53.63,5.57-20.62,98.95-136.46,64.66-129.44-.13.02-53.8-11.19-93.4-34.03-71.7-41.35-10.94,198.08-43.81,188.98-12.24-3.39-1.11-202.91-12.96-207.01-52.16-18.01-98.95-33.1-102.07-34.57-44.11-20.83,20.29-11.88,32.62-9.69h0Z"/>
  <path class="e" d="m1336.26,2270.27c.75,2.93,120.34,179.72,140.05,224.11,6.62,14.92,155.98,91.15,178.32,80.17,71.29-35.05,92.23,42.09,250.85-27.61,74.36-32.67,134.05,15.25-7.61-139.98-117.73-129.01-356.68-182.84-523.62-163.03-.37.04-38.41,24.68-38,26.33h0Z"/>
  <path class="bg" d="m2146.99,1847.27c261.18-43.45,443.42-56.99,703.66-26.09,23.48,2.79,100.85-11.55,138.71,7.37.65.33,112.8,2.21,150.76,29.41,7.14,5.11,228.79,96.01,176.01,100.23-8.23.66-120.97,44.17-137.68,68.59-35.22,51.49-303.21,211.56-372.73,223.12-290.26,48.28-253.11,5.06-485.13-174.62-51.98-40.26-163.6-45.07-183.75-166.21-5.09-30.61-71.99-48.14,10.16-61.81h0Z"/>
  <path class="x" d="m2337.07,2045.76c28.3,67.8,173.2,92.12,199.06,126.43,27.76,36.82-1.12,47.29,61.88,73.7,55.57,23.29-21.69-47.58-15.96-66.37,14.56-47.71,67.93-62.84,84.8-52.62,68.56,41.52,39.53,37.7,26.91,69.65-2.03,5.13-20.26,31.82.58,44.36,18.68,11.24,11.84-85.66,52.82-45.89,13.36,12.97-11.61,74.39,18.3,38.9,19.83-23.52-29.75-40.98,41.46-19.37,19.26,5.84,35.74-24.73-21.01-22.26-37.13,1.61-53.16-52.14-64.23-78.69-12.65-30.37,33.65-25.42,44.2-30.67.05-.8,37.08-36.14,17.9,26.8-9.01,29.56,47.24,26.37,20.07-1.91-18.52-19.28,20.38-96.68,39.94-18.59,7.66,30.58,31.54,5.44,21.26,59.85-.06.33-56.57,92.66-16.12,71.14,22.09-11.76,13.49-58.45,42.25-68.03-4.44-26.68,68.76,44.21,86.45-2.88-9.6-14.1-43.26,5.05-74.7-48.78-23.23-39.79-49.17-46.35,26.56-66.31,19.38-5.1,13.98,37.76,32.58,58.12,7,7.67,11.09,48.46,24.99,21.34,13.28-25.9-66.81-71.84-14.64-92.08,50.12-19.45,46.57-43.95,72.74,38.41,5.02,15.78,7.01,57.63,20.2,8.13,1.04-3.92,39.68-5.62,54.7-30.58,20.79-34.56-56.44,17.54-60.57,5.16-4.61-13.82-16.41-51.15-2.26-55.8,27.46-9.03,84.42-38.61,77.81,18.04-2.83,24.19,27.01,25.62,13.14-13.79-10.84-30.82,43.42-61.12,48.72-.11,1.17,13.41,25.48-41.99,82.44-33.77,29.45,4.26,37.91-21.74-30.14-31.78-44.28-6.53-59.8-71.42-55.91-4.93.02.38-27.98,28.04-28.84-22.58-.19-11.21-39.26-62.3-28.76,16.73,3.35,25.19-31.22,7.17-42.69,31.17-8.68,18.15-45.46,10.44-7.94-48.4,12.75-20-24.5-104.16-14.42-18.29,1.25,10.63-14.71,10.71-12.6,34.84,4.59,52.42-67.28,64.49-69.61,48.38-10.94-75.75,22.94-91.2,20.11-108.26-34.93,5.81-34.73,15.31-48.38,52.74-2.49,6.82,3.41,102.99-43.85,89.45-21.97-6.29,41.69-115.38,20.81-111.91-33.88,5.64-28.36,7-35.43,44.99-4.52,24.27,19.94,3.73-10.6,58.17-14.37,25.61-.62,26.84-42.66,33.84-9.25-55.59,2.33-26,20.97-83.44,17.78-54.79-41.41-12.79-46.11,52.13-5.47,75.52-49.86,36.17-23.37-13.42,6.97-13.05-13.9-58.23-13.38-4.12.02,2.44-10.28,29.38-16.38,31.3-.38.12-27.79,95.76-57.24,39-16.46-31.72,87.8-104.9,28.2-89.14-15.97,4.22-28.35,66.53-49.67,70.04-30.92,5.08,11.55,45.71-54.94,67.08-45.46,14.61-39.46,70.79-96.57,36.87-29.59-17.57-83.04-55.06-107.67-48.77-29.64,7.56-102.95-51.8-95.19-33.2h0Z"/>
  <path class="aw" d="m1503.75,2407.46c9.66,30.95,53.55,4.97,52.16,43.71-.29,8.16,35.05,2.12-10.81,49.8-8.5,8.84,12.37,44.45,24.89,16.28,1.8-4.05,5.81-50.82,17.39,6.69,3.36,16.67,16.57,45.96,46.77,27.81,13.39-8.05-28.34-27.06-6.47-47.34,21.35-19.8-5.72-81.34,50.98-36.45,9.01,7.14,68.83,11.74,103.21,31.81,60.85,35.52,59.65-14.09,99.43.46,116.69,42.66,81.4-.25,61.26-2.97-44.98-6.06-24.53-35.47-125.29-33.69-30.78.54-133.69-42.18-145.3-42.89-21.72-1.3-38.96,7.91-67.45,1.86-11.91-2.53-10.24,43.28-34.06,23.17-13.34-11.25,28.89-19.79-50.92-44.66-.27-.08-70.17-45.5-53.26-13.88.51.96,37.08,19.04,37.47,20.27h0Z"/>
  <path class="by" d="m2096.11,1830.49c133.2,22.69,233.57-110.63,314.5-195.82,67.34-70.89,243.58-251.19,346.33-174.41,87.67,65.51,169.77,12.22,200.74,108.08,6.02,18.62,134.12-5.94,196.92,22.34,43.7,19.68,89.87,12.79,159.11,57.7,6.06,3.94-133.05,51.8-161.99,86.45-116.74,139.76-350.5,246.99-536.62,222.97-164.18-21.19-151.44-125.23-254.89-136.99-62.29-7.09-250.08,47.58-292.39,20.4.27-1.18,19.85-12.15,28.28-10.71h0Z"/>
  <path class="m" d="m2425.38,1649.49c4.81-14.24,18.06-30.13,24.41-37.66,22.4-26.59,36.55-16.49,5.19,27.39-6.66,9.32-61.14,96.68-25.88,90.82,77.39-12.87,44.74-24.83,62.51-92.99.16-.6,105.63-162.73,71.52-85.43-10.69,24.22-34.78,43.16-51.05,89.32-9.82,27.87-13.74,30.87-17.27,63.88-3.57,33.27-2.98,29.14,45.31,23.88,49.4-5.38,48.04-94.7,84.77-145.58,16.45-22.78,17.26-42.52,49.72-63.78,12.02-7.87,53.37-51.07,23.7.17-27.49,47.48-100.09,122.34-88.64,191.18.33,1.97,52.09,33.76,63.78-35.71,27.3-162.18,42.13-89.71,32.29-84.48-4.03,21.4-36.95,123.15-8.51,118.6,81.95-13.11,27.83-5.68,69.61-73.33,22.37-36.23-16.46-83.7-25.93-127.79-3.36-15.65,2.93-61.07,13.83,4.47,4.08,24.49,26.15-68.79,18.25-1.84-6.65,56.39,23.16,44.09,24.48,7.49.45-12.66,31.83-2.05,18.97,30.66-12.53,31.89,34.87,28.85,43.19,10.51,7.64-16.85,38.15,1.09,18.05,6.91-.75.22-30.6,27.25-48.27,31.82-14.46,3.74-116.81,149.81-17.07,102.66,5.33-2.52,57.71-49.26,55.6-65.76-.06-.42,27.41-89.84,30.48-100.75,10.66-2.65-10.48,120.73-34.38,147.44-7.54,8.42,56.76,14.07,44.98-44.36-6.45-32,46.82-138.95,18.47-56.75-20.81,60.33,33.07-.05,21.44,21.2-3.66,6.7-18.83,20.01-12.99,30.74,40.78,6.89,25.36-36.58,50.82-40.81,3.41,20.48-23.26,52.91,2.38,42.66,20.27-8.1,12.08-41.52,25.18-23.82,17.46,23.6-75.06,86.7,8.31,35.61,2.32-1.42,73.42-101.3,37.54-27.53-4.59,9.43-48.44,49.25,12.32,34.72,19.06-4.55-8.91-90.04,16.1-59.94,5.13,6.17,3.17,96.8,25.55,33.49,12.55-35.51,30.24,44.85,33.29-15.04,1.21-23.84,52.92,16.31,86.8,12.97,4.6-.46,110.04,34.14-26.74,37.37-29.5,81.59-62.85-35.53-58,42.82.06,1.04-29.32,57.62-33.39,44.6-11.69-37.4,7.37-9.6,5.5-53.51-1.12-26.34-4.44-29.92-40.65-16.8-14.75,5.34,45.31,59.76-4.6,29.46-.19-.12-28.23-49.07-35.61-5.63-4.54,26.65,70.64,17.18,64.56,53.07-11.24,6.1,4.18-11.15-23.12-15.79-1.42-3.68-42.02-2.36-51.13-22.69-28.73,27.57,72.66,33.6,38.59,58.82-5.34,3.96-39.79-52.45-26.08,16.34,3.46,17.38-30.33,31.31-21.98-12.05.12-.65-15.17-66.63-17.13-74.17-1.6-6.18-31.53-.01-26.48,30.36-24.51,4.08-50.07-41.87-31.94,5.43.1.26,70.68,56.16,38.49,49.07-5.25-1.15-55.28-42.78-60.79-66.42-2.32-9.93-60.59-29.16-11.38,59.49,29.41,52.99,81.16,9.09,79,31.48-.82,8.49-31.5-8.65-33.72,27.53-40.59,12.99,15.9-13.89-44.68-32.51-34.08-10.48-1.06,85.87-28.43,39.55-7.8-13.21-19.78-7.4-15.21,20.11,6.34,38.11-36.37-14.35.94-40.21,11.15-7.73,12.4-90.59-19.97-90.6-19.84,0-34.33-16.84-23.69,47.14,11.59,69.7-23.87,36.52-21.76-27.8,1.23-37.63-52.14-20.38-51.95-7.41.31,21.07-12.8,62.87,24.91,48.78,5.88-2.2,11.23-27.92,26.6,4.52,9.01,19.01-46,25.36-16.96,46.25,26.1,18.77,97.16-11.66,41.83,20.53-34.39,20,27.96,23.93-15.3-1.38-1.93-1.12-35.58,1.77-41.11,2.69.03.21,18.1,47.93-3.46,44.86-5.64-.8-2.94-61.49-29.87-30.04-.11.12,4.62,26.68-19.76,20.2,37.7-97.78,30.87-11.16,9.6-139.06-10.16-61.07-51.69,39.58-45.92,101.04,1.24,13.19-22.94-13.15,2.02-93.28,12.15-39-61.15-33.05-60.57-14.05,1.87,61.66-9.95,95.63,46.94,129.54,76.17,45.4-18.77,7.77-10.34,42.64-22.58,12.91-36.81-5.51-23.41-14.77.46-.32,3.46-36.57-18.09-6.49-.5.7-19.51,11.48-5.87-19.52,14.69-33.37-50.97-49.79-37.81,17.33,1.95,9.95-43.08,22.35-29.22-18.93,2.69-7.99-3.8-30.86-21.02.2-.91,1.65-34.96,23.31-13.74-15.59,12.83-23.54-58.08-46.93-26.17-53.25,15.22-3.01,42.04,48.53,75.27,30.91,10.97-5.82,41.59,24.14,26.47-54.71-3.11-16.23,63.29-70.41-72.12-47.89-13.37,2.22-14.47,50.63-4.07,62.77.28.33-12.19,12.61-17.23-17.67-12.42-74.65-58.92-34.72-140.39-23.44-3.25.45-34.17,32.33-85.08,31.76-4.5-.05,42.63-30.67,43.04-30.87,4.21-2.37,71.74-21.77,79.35-37.95,17.55-37.31,28.54-71.36,33.96-87.39h0Z"/>
  <path class="am" d="m972.08,2171.37c-93.79,24.8-162.93,86.79-278.68,110.08-127.91,25.74-130.56,153.31-202.07,220.15-32.61,30.48,85.84,85.22,220.65-67.55,49.38-55.97,146.44-52.92,241.81-160.46,14.09-15.88,233.69-174.59,70.4-111.68-6.01,2.32-38.16,5.77-52.12,9.46h0Z"/>
  <path class="aj" d="m1762.67,1842.67c43.95,143.28,36.59,279.52,213.74,309.32.82.14,111.67,74.34,128.55,84.63,45,27.46,48.13,77.84,77.11,2.22,3.78-9.85-17.35-217.12-53.06-246.7-21.6-17.89-35.39-89.05-147.56-136.57-71.57-30.32-151.47-113.18-216.94-27.06-4.48,5.9-6.45-.86-1.84,14.15h0Z"/>
  <path class="z" d="m1894.95,1883.39c60.78,52.05,5.73,63.61,132.42,66.91,15.51.4,153.54,54.99,59.97,44.39-25.1-2.84-28.91-21.37-64.48-17.47-11.7,1.28-107.38-36.2-63.15,10.51,42.91,45.31,90.9,11.34,138.91,42.48-.83,11.45-59.54-7.36-86.78-4.61-24.4,2.46-4.27,13.38,10.62,29.6,23.68,25.8,129.62,49.25,118,56.67-.22.14-51-11.7-61.52-9.95-19.8,3.3,46.52,54.49,49.8,84.8.04.37,25.69,58.75,25.9,65.5,1,31.49-39.37-68.09-43.63-70.88-10.2-6.7-62.68-110.03-51.6-17.19.96,8,25.2,48.05-7.46,9.1-27.74-33.07,18.17-53.47-22.55-90.35-24.47-22.16-15.81-35.69-24.76,9.48-.06.3-38.29,36.86-46.14,38.49-6.99,1.46-26.14,10.23-3.38-8.55,12.52-10.33,47.21-52.98,36.27-71.05-10.63-17.57-17.78-30.32-33.89-40.1-26.99-16.4-19.08,101.58-26.75,94.79-4.28-3.79-6.68-36.1-4.34-69.12,1.78-25.28,7.61-52.16,5.5-57.75-9.53-25.26-26.16-42.39-28.18-55.97-4.75-31.97-43.53-33.27-59.05-73.09-4.58-11.74-41.15-37.04,7.34-30.67,35.93,23.75,4.21,21.8,39.41,59.5,1.75,1.87,1.37,2.67,3.55,4.54h0Z"/>
  <path class="bf" d="m1823.13,1808.56c217.05-8.17,120.21,100.83,205.57,119.13,153.81,32.96,252.74,118.66,406.4,168.47,28.75,9.32,163.79,67.13,179.74,98.72,36.58,72.42,45.06,129.1,83.47.74,19.74-65.97,37.35-232.26-73.03-213.89-75.64,12.58-77.92-28.09-150.48-78.17-93.23-64.34-63.36-46.75-180.24-86.07-42.04-14.14-231.34,11.17-323.16-21.2-90.72-31.98-215.68,12.89-157.45,7.57,5.45-.5,2.17,4.95,9.2,4.69h0Z"/>
  <path class="ac" d="m1266.39,1629.74c71.24,9.77,98.03-147.09,88.21-206.15-22.44-134.88,3.74-212.32,48.71-276.89,67.62-97.09,67.29-182.76,150.14-279.27,49.74-57.94,109.52-135.03,179.4-204.93,29.85-29.86,67.12-54.68,84.15-94.87,103.87-245.12,173.82-88.87,162.82-165.33-12.04-83.7-121.77-112.53-129.71-123.15-122.67-33.68-290.86-14.02-391.07,97.11-55.54,61.59-80.49,145.9-101.46,221.48-36.31,130.88-104.31,334.36-79.29,460.76,13.28,67.06,31.73,125.24,21.62,133.49-175.18,143.06,6.37,246.7,9.81,267.41,3.01,18.12-44.44,170.2-43.31,170.35h0Z"/>
  <path class="ca" d="m1346.71,2101.4c33.73,127.09-94.9,230.83-164.58,343.79-94.16,152.65-255.59,78.35-311.46,153.44-31.53,42.39,20.63,34.82-49.8,96.72-15.97,14.03,12.04,116.87-84.18,31.3-35.23-31.33-69.88-97.41-114.42-163.05-62.46-92.02-72.57-181.89,2.93-248.02-60.98-146.19,215.87-137.24,278.33-179.31,67.55-45.49,190.95-85.37,293.23-48.84,54.48,19.46,137.88-31.58,149.96,13.96h0Z"/>
  <path class="bb" d="m1949.44,1033.58c20.69,37.1,76.85-.56,71.64-36.77-3.27-22.7-15.1-78.45-38.17-87.61-3.95-1.57-42.48-59.5.76-26.17,16.72,12.89,3.09-78.7,34.26-13.72.13.26,20.08,91.37,21.65,102.24,4.72,32.73-51.96,230.49,27.89,101.3,4.82-7.79,30-67.45,18.98-16.23-3.75,17.42-44.43,83.27-24.55,91.71,14.58,6.19,46.04-85.69,47.9-106.9,8.8-100.25,31.26-111.09-38.17-188.88-10.77-12.07,5.21-32.72,48.31,37.04,30.99,50.16,58.52-61.98,87.37,7.14,7.94,19.02-66.22,21.6-60.74,86.27,2.35,27.68-34.81,139.55-56.19,163.91-21.9,24.93-12.69,94.02,48.77,16.5,5.13-6.47,69.5-112.53,69.39-125.44-.37-42.44,18.96-5.16-.23-109.22-3.69-20,14.75,7.12,19.33,49.66,6.96,64.77,42.01-42.27,34.14,14.11-6.69,47.91-158.26,219.02-142.71,253.04,26.04,6.07,114.49-88.66,135.88-112.19,6.77-7.44,41.42-66.65,29.94-16.32-17.36,76.14-162.2,142.6-145.39,179.43,40.73,1.5,32.78-26.56,86.76-35.54,4.61,32-48.28,36.81-59.56,72.02-19.04,59.44,84.75-29.99,105.16-69.84,4.53-8.85,31.92-7.15,8.53,19.5-15.9,18.12-30.4,38.75-61.57,64.4-48.89,40.23-24.98,43.33-14.1,95.58,1.57,7.53,35.3-2.1,50.13-19.53,4.51-5.3,66.51-59.1,45.8-23.5-23.62,40.61-64.34,57.77-83.18,76.4,5.24,68.78-1.61,64.14,25.35,132.63,15.25,38.74,20.9,104.57,50.84,139.85.16.18-5.92,25.94-32.54-25.04-15.88-30.4-39.87-180.04-95.79-178.57-61.38,1.62-19.26-22.87-15.32-29.9,7.36-13.13,7.51-64.91-.24-63.21-33.13,7.23-92.2-74.17-42.45-40.42,15.13,10.26,50.32,12.24,19.73-31.43-11.27-16.1-68.22-47.91-109.62-45.75-18.22.96-75.58-58.55-20.91-31.03,2.91,1.47,108.2,28.62,106.25,15.09-1.83-12.66-22.03-60.36-32.51-54.7-44.58,24.05-140.78-89.57-69.62-43.28,8.42,5.48,93.94,35.76,59.96-16.78-16.68-25.78-31.78-18.51-39.73-62.66-2.72-15.12-33-.25-50.66-21.84-1.97-13.66,60.25,20.33,32.51-25.38-3.56-5.87-64.94-25.73-72.81-80.44,21.48-3.57,10.66,4.55,19.55,20.49h0Z"/>
  <path class="bd" d="m1335.13,2206.9c128.43,27.8,313.35,20.7,441.9-20.54,98.34-31.55,126.14-6.15,215.74-55.53,74.46-41.03,44.12,91.76,54.98,157.05,17.88,107.48-190.43,246.6-295.06,192.08-82.76-43.13-321.55-73.53-342.81-136.21-.82-2.42-144.36-151.91-74.75-136.85h0Z"/>
  <path class="w" d="m1339.21,2096.33c-24.9,21.18-12.74,39.8-65.02,48.57-34.59,5.8-16.03,41.99-68.88,4.43-13.94-9.91-96.36-66.47-109.22-59.85-9.43,4.85,153.35,84.78,101.07,100.21-8.8,2.6-36.89,25.5-39.59,37.24-.22-.36-65.9-34.66-88.58-62.84-24.03-29.86-104.95-66.02-49.4-28.98,28.66,19.11,20.09,37,84.71,68.48,47.53,23.17-.34,72.06-24.25,60.39-45.61-22.26-104.04-56.67-114.03-105.87-2.48-12.22-59.48-38.09-24.62-5.48,30.87,28.89,13.4,8.27,28.12,47.75,6.3,16.9-171.79-60.04-127.61-27.73,1.07.78,53.09,24.68,56.21,25.43.49,2.08,91.81,24.65,110.36,33.08,13.23,6.01,89.77,48.22,56.61,58.88-10.54,3.39-56.15,21.63-58.52,33.2-.32,1.54-18.11.69-28.27-18.42-4.06-7.65-29.25-34.64-29.3-34.82-29.86-13.32-2.42,17.57-40.94-20.12-13.25-12.97-29.81,13.68-40.34-22.01-1.16-3.94-8.87-.23-16.68-21.55-2.53-6.9-83.32-58.6-61.96-11.67.8,1.75,17.65-2.82,24.71,7.7,10.17,15.13,54.61,33.21-15.75,22.86-56.7-8.35-49.31-.23-102.28-12.32-32.66-7.45,25.94,30.1,59.83,36.63,33.43,6.43,35.26,2.8,75.18,15.05,43.47,13.34,22.82-16.25,93.27,29.28,22.17,14.33,75.31,26.45,44.28,51.42-9.17,7.38-35.43,27.7-46.23,27.03-14.99-.92-122.56-43.64-123.88-53.48-1.97-14.72-2.8-13.95-5.76-25.38-55.47-20.02-16.5-19.25-71.59-43.81-10.55-4.7-105.8-22.27-48.95,5.36,44.71,21.72-71.77-3.36-4.82,26.07,35.87,15.77-60.97,27.97-22.29,32.98,25.52,3.3,44.67,7.43,72.63-3.27,6.08-2.33,48.77-1.59,34.7,5.27-19.22,9.38,5.83,9.16-43.15,16.22-74.83,10.78-28.04,57.21,14.35,19.65,12.23-10.83,101.13.39,123.12,14.74,32.33,21.1,87.05,19.23,54.12,47.26-18.99,16.17.28,44.88-73.77,16-41.27-16.09-112.38-58.98-155.02-59.04-5.09,0-97.68-22.01-29.47,9.78,24.44,11.39,54.77,4.69,66.77,24.01,4.22,6.81,214.49,46.79,114.39,83.45-34.36,12.58-49.88-13.63-98.18-15.41-5.06-.18-50.56-14.85,2.16-20.32,16.68-1.73,43.51-30.44-44.15-17.34-28.34,4.23-24.52-21.04-51.94-40.93-8.5-6.17-23.49-40.3-36.07-1.49-.07.2,8.06,53.06,16.99,52.84,7.31-.18,47.31,23.37,47.86,26.67,4.37,25.92-48.79-7.73-54.76-11.19-11.43,14.1,55.18,33.82,5.06,46.99-7.71,2.03,15.82,43.64,32.32,11.41,2.31-4.5,24.58-4.21,42.64-19.28,16.57-13.83,27.92,19.91,52.16,1.06,4.39-3.41,70.45,7.19,64.38,14.6-16.68,20.34-21.01-4.65-18.12,33.17.49,6.39-61.35,38.04-106.32-7.83-26.07-26.58-65.28,8.87-26.87,9.38,7.89.1,37.23,23.38,5.78,35.66-3.04,11.48,24.54,14.42,45.19-.5,4.43-3.2,101.41-5.65,65.63,15.55-13.75,8.15-4.76,29.63-48.11,11.85-21.22-8.7-83.44-1.38-4.61,23.3,14.97,4.68,77.02-15.4,44.28,11.78-6.48,5.38-73.8-17.28-56.15,4.46,11.08,13.65,80.51-6.82,42.21,31.88-3.06,3.09,28.04,96.96,55.36,24.91,5.13-13.54-62.72-19.99,22.07-53.12,45.39-17.74,8.38-52.93,14.21-61.64,12.77-19.06,9.85-44.34,41.1-25.23,17.13,10.48,22.09-15.52-33.87-13.83-1.16.04-41.55,36.27-20.26-11.58,8.97-20.16,36.3,10.78,62.45,8.95,29.91-2.09,28.48,19.08,52-2,11.09-9.93-42.81-6.85-44.67-9.53-22.51-32.29-55.11,7.48-37.21-41.95,4.09-11.32,78.67.16,61.28,29.48-1.15,1.94,1.44,16.95,16.31-2.26,9.62-12.44,49.05-7.07,51.59,7.52.14.83,9.76,23.97,17.02.97,4.9-15.53-12.65-85.61-39.54-78.28-25.44,6.93,87.39,92.31-50.49,35.34-39.71-16.41,7.2-75.23,30.39-76.67,45.69-2.84,27.96,14.94,84.39,39.1,31.3,13.4,24.45,100.87,44.37,56.18,3.64-8.16-21.86-61.73,20.87-17.85,27.96,28.71,56.32,1.31-6.43-25.88-18.67-8.09,113.6-13.5-17.29-21.05-58.51-3.37-57.14-23.66-97.29-44.75-4.05-2.12-6.63-39.09,63-15.42,39.45,13.41,61.62,5.14,105.89,46.16,41.71,38.64-1.05-39.27-50.53-43.69-7.9-.71-73.35-22.5-73.4-22.78-4.43-25.21,63.99-36.58,80.83-27.61,10.13,5.4,112.32,33.32,120.48,31.81-1.39-.34-5.32-16.59-30.22-23.34-11.78-3.19-106.85-25.5-102.45-32.23,23.26-35.67,42.01-14.46,94.58,4.5,26.74,9.64,45.75,35.97,66.95,20.6-2.22-16.54-133.04-54.06-105.88-67.77,59.57-30.06,16.46-48.29,95.24-4.32,17.43,9.72,38.62,98.78,33.18,16.32-1.17-17.56-29.74-47.45-55.95-46.16-7.84.39,5.13-22.1,23.65-25.02,30.51-4.82,40.38-37.88,68.27-46.65.31-.1,62-37.15,63.79-43.88,3.86-14.53-29.21-25.71-29.46-25.5h0Z"/>
  <path class="p" d="m2008.47,2138.56c.14-.1,21.63-10.49,11.87-2.36-5.49,4.58-6.9,22.56-38.84,38.65-18.42,9.28-48.53,19.27-22.88,33.11,34.19,18.45,63.03,85.52,48.05,76-10.52-6.69-24.5-84.07-81.73-74.55-100.86,16.78,135.19,99.2,38.58,76.85-17.61-4.07-122.42-83.44-111-48.11,2.51,7.78,21.84,4.62,34.93,23.15,12.96,18.35,100.1,56.28,107.05,98.09-.31.05-50.79-43.88-59.31-49.98-25.94-18.54-86.93-73.9-116.42-67.95-19.31,3.89,23.31,40.86,33.41,54.48,4.27,5.77,115.65,107.55,91.73,107.47-2.75,0-34.78-28.3-66.38-61.02-26.09-27.02-60.12-52.64-79.68-76.46-9.34-11.38-60.45,12.77-7.37,73.28,41.35,47.13,63.2,47.32,102.71,83.6,8.27,7.59-1.03,14.24-21.1-3.32-16.46-14.4,4.44,78.79-15.14,42.55-9.6-17.76-4.34-38.15-37.45-70.41-11.02-10.73-55.81-75.73-76.22-85.13-5.53-2.55-47.14-11.28-43.78,8.92,3.98,23.92,97.32,133.29,85.56,135.24-8.86,1.47-83.97-97.01-93.12-110.37-13.06-19.05-27.28-50.87-50.6-15.29-14.42,22,73.85,159.62,36.35,118.17-15.68-17.33-54.4-132.2-69.64-107.54-12.52,20.25,24.88,147.2-8.22,64.06-27.69-69.55-27.03-81.02,47.96-114.01,52.28-23.01,39.42,1.5,107.54-44.19,65.75-44.11,139.77-20.01,253.15-102.94h0Z"/>
  <path class="bh" d="m1819.33,1806.21c58.16,68.16,152.51,297.64,54.35,361.92-24.29,15.91-156.23,123.78-172.62,127.59-251.28,58.45-150.43,94.36-227.04,156.61-38.72,31.46-64.98-79.69-99.59-126.02-132.17-176.95-39.1-128.03-40.52-308.3-.93-118.21,155.83-109.91,261.3-170.99,70.85-41.02,168.78-105.67,224.12-40.81h0Z"/>
  <path class="g" d="m1762.77,1802.13c-9.11,14.3-52.05,77.09-63.83,79.05-16.8,2.79-92.04-30.29-125.17-10.53,23.23,16.61,147.84-10.96,97.45,48.3-7.02,8.25-11.92,25.86-59.25,1.29-27.98-14.53-200.73-11.15-207.43,22.37,51.57,4.68,74.28-36.19,188.82-8.82,7.44,1.78,76.86,20.75,54.86,29.65-18.05,7.31-7.39,74.7-92.84,34.78-35.94-16.79-242.25-8.28-149.36,3.6,19.59,2.5,29.78-6.43,67.24,2.42,22.55,5.33,85.02,16.95,104.39,16.23,68.58-2.52,10.39,64.19,7.06,64.75-56.4,9.38-173.1-19.22-230.14,1.62,1.33,26.61,232.39-7.61,213.62,44.39-6.57,18.21-17.24,69.81-35.59,72.86-5.75.96-239.3,1.28-192.96,15.5,28.97,8.89,197.23-23,180.87,19.14-8.75,22.54-15.5,35.8-21.84,47.36-4.04,7.37-86.33,13.59-109.45,48.11-4.47,6.67,103.08-44.52,85.37-.19-26.37,66.01.44,140.56,4.72,84.33.19-2.46,30.12-92.96,33.71-107.74,11.34-46.75,87.89-15.24,118.27-20.29,10.42-1.73,20.83-3.47,31.25-5.2-3.11-18.68-74.88.17-89.28-13.75-6.73-6.5-44.02,16.67-11.39-44.99,12.17-22.98,78.09,32.29,126.7,31.27,78.72-1.65,32.21-12.65,31.94-12.59-16.03,3.44-85.35-1.76-89.75-17.19-15.43-2.43-59.03-20.94-45.06-38.44,19.27-24.15,5.18-8.77,56.43,2.78,84.22,18.97-35.97-22.32-37.29-33.08-4.09-33.35,49.34-6.12,87.38-.27,43.98,6.75,100.63,80.37,67.33,25.22-29.53-48.9-176.28-30.21-121.34-87.63,17.8-18.6,1.48-43.63,74.94-9.17,50.5,23.69,42.15.84,102.48,47.36,8.35,6.43,2.94-18.1-62.28-44.45-24.02-9.7-108.27-26.37-91.37-52.18,26.46-40.39,33.22-26.51,89.16-11.79,70.2,18.47,86.49,60.45,97.8,65.36,28.49,12.38-28.43-44.34-31.28-46.31-58.16-40.35-26.41-19.03-88.72-40.16-12.03-4.08-46.42-3.38-38.4-25.19,4.16-11.3,97.1-20.93,127.18-4.14,19.47,10.87,74.6-5.88-2.14-12.85-29.57-2.69-58.86-10.36-90.97-6.08-41.23,5.5,29.14-47.05,27.6-75.88-.17-3.1,57.63-97.31,31.95-83.44-11.83-5.52-17.97-.79-21.41,4.61h0Z"/>
  <path class="ay" d="m1315.42,1196.35c.32-38.83-39.67-194.33-30.83-181.56,9.08,13.11,45.33,180.84,55.73,93.2,1.6-13.46-67.15-239.16-30.63-195.1,12.35,14.9,34,170.11,49.59,165.83,4.07-60-57.38-254.95-34.87-289.11,4.56-.23,51.29,350.66,48.54,171.36-.4-26.25-36.92-258.73-19.33-255.73,3.12,7.67,37.07,270.42,43.4,186.16,7.94-105.67-15.25-166.15,7.58-290.44,2.48-13.5,14.56-177.31,29.45-61.05.43,3.37-34.63,251.75-17.74,221.83,10.81-19.15-4.73-47.83,23.06-58.48,29.5-11.31,10.77-338.91,64.03-347.76,3.38,13.93-52.49,326.71-5.95,196.04.34-.96,59.49-285.42,74.41-222.46.24,1-96.03,309.7-34.79,170.34,48.58-110.57,11.23-80.77,101.42-180.54,28.63-31.68,116.08-44.34,60.28-3.32-.5.37-46.5,61.76-96.75,80-28.55,10.37-89.74,193.35,5.85,59.6,15.18-21.24,135.29-166.95,154.35-165.19,44.06,4.06-165.87,177.57-96.85,166.09,31.75-5.28,125.87-242.3,234.01-137.13,20.38,19.83-56.73-.3-66.13,11-19.8,23.82-59.46,38.99-69,67.94-16.38,49.78,4.23,28.41,48.48,7.7,27.75-12.98,89.99-109.54,55.67-26.69-15.11,36.5,90.81-36.25,100.22,12.16,5.25,26.98-149.28,13.29-139.45,72.37,13.42,80.64-36.16,112.69-43.38,56.71-4.22-32.72-27.11-68.46-67.79-40.82-15.83,10.77,71.64,75.48,12.28,162.66-34.09,50.07-7.26-32.99-36-83.42-1.27-2.23-11.09-61.38-46.02-31.06-27.31,23.72,14.54,54.91,28.95,81.73,22.9,42.65,35.22,61.78-17.37,13.5-11.28-10.35-59.29-104.1-71.6-44.71-8.81,42.47,98.15,114.67,72.46,120.91-32.43,7.88-19.2-36.47-23.31,44.1-.71,13.91-63.53,91.5-65.88,56.65-2.94-43.65,72.6-12.79-17.7-190.54-18.44-36.3-95.46,59.25,6.86,110.69,12.44,6.25,24.63,74.53-6.27,46.11-39.97-36.76-67.08-121.84-79.13-72.13-1.21,4.98,10.41,93.01,39.06,93.36,92.18,1.15,16.25,27.32,17.58,35.33,2.03,12.17,15.46,48.96-18.02,15.9-9.02,1.5,6.11,78.88-37.77,119.52-4.84,4.48-72.65,84.36-70.97,53.23.78-14.43,41.58-30.89,54.42-84.2,22.88-94.99,18.03-36.8.77-140.53-20.13-121-7.98,119.07-8.61,119.67-15.6,14.71-11.28-100.8-23.19-102.83,1.01,6.1-10.21,47.48-1.51,89.5.93,4.49,38.23,129.63-3.62,52.07-25.31-46.9-6.81,19.17-25.05,48.35-5.35,8.56-9.93,79.62,35.87,30.46,50.73-54.43,22.75,33.59-34.87,41.29-41.37,5.53,14.89,6.94-.16,32.81-.3.51-2.29,69.5-42.22,96.58-40.23,27.3,17.44-88.56-15.93-27.27-30.61,56.21,10.79,32.61-65.76,95.51-72.34,59.44-18.37-2.33,14.64-29.6,6.95-5.74,25.41-24.88,25.51-36.58h0Z"/>
  <path class="ay" d="m1338.16,1239.75c-83.66,78.03-68.85,9.66-50.37,150.09,3.07,23.37,85.26,103.93,14.93,154.81-6.21,4.5-7.89,26.85-11.87,35.4,1.39,2.57-22.08,74.48,33.77-15.03,66.36-106.35-69.01-227.84,14.67-306.17,10.15-9.5,11.82-31.18-1.13-19.1h0Z"/>
  <path class="bo" d="m2177.46,1748.35c-57.37-29.77-72.12-46.13-7.42-68.34,9.6-3.29,42.8,2.71,46.59-6.92-22.2-15.33-55.48,11.1-110.89-21.83-29.05-17.26,110.8,9.45,99.26-6.96-4.97-7.07-9.09-7.44-53.6-13.72-28.63-4.04-123.74,11.23-43.13-23.64,16.24-7.02-20.88-14.56-45.33,3.59-36.09,26.79-19.29-22.02-22.56-31.48-7.49-21.61-27.78,64.67-65.72-14.68-9.09-19.01-92.85-37.64-41.49-3.61,67.52,44.74,30.41,37.28-23.33,4.51-22.31-13.61-10.24-11.54-18.1-31.76-19.65,4.66,10.87,33.58-16.57,27.14-19.98-4.69,2.9-33.69-52.81-41.67-61.63-8.83,66.66,39.42-13.54,26.39-20.34-3.31-44.54-10.84-40.93-36.28.39-2.77,40.66-3.6,20.51-15.02-12.95-7.35-108.25,48.45-62.44,12.93,54.05-41.9-104.17-2.6-78.15,7.37,47.74,18.27,3.29,30.05,54.37,84.62,6.38,6.82,53.08,40.45,61.78,40.7,4.94.14-13.4-24.11-30.88-36.18-14.86-10.27-54.8-73.55-15.15-66.9,8.7,1.46-2.36,18.87,21.92,36.67,17.27,12.66-32.07,13.96,68.67,58.62,4.83-5.35,29.86-26.8,27.65,46.17-.08,3.04,25.43-23.51-1.29-78.83-.13-.26,21.93-44.58-27.31-22.37-20.68,9.33,1.24,29.69-42.7-.64-.9-.62-10.28-24.07-14.97-29.63-10.34-12.25,65.12,19.84,80.55,15.95,1.31-.33,111.65,58.01,97.48,59.12-9.02.71-38.56,44.89-37.92,45.43,6.32,5.32,47.56,0,50.04-25.71,1.6-16.56,24.4-17.72,15.28,4.58-15.35,37.52,28.18,81.93,49.2,77.42-.09-.76-84.45-106.16-8.91-85.08.27.07,19.94,37.78,45.16,39.8,5.06.4,37.24,43.43,51.74,63.98,19.45,27.56,37.18,28.86,14.75-14.94-.3-.58-92.64-86.12-45.7-69.89.6.21,103.49,124.6,116.67,100.02.5-.93.04-8.47-.8-8.91h0Z"/>
  <path class="s" d="m1946.29,1793.3c12.18,21.68,89.75,69.32,115.32,65.57,60.6-8.9,44.22-2.01,98.04-18.62.58-.18,178.22-44.07,127.13-13.94-4.84,2.86-44.2,7.74-66.22,17.2-31.9,13.69-50.47.88-75.66,23.91-12.17,11.13-88.63,18.26-4.49,36.52,27.32,5.93,91.98-73.35,203.06-52.68,13.99,2.6,51.29.68,57.78,26.12,21.33,5.97-75.82-7.84-76.79-7.65-38.28,7.72-52.83,1.71-91.86,19.22-15.28,6.86-52.49,15.03-12.71,35.15,13.77,6.97,81.78-19.62,132.28-1.32,38.11,13.81,125.74-42.11,94.72-3.67-14.35,17.78-19.67,5.89,39.95,22.19,46.61,12.74,59.31,49.62,8.33,19.38-13.24-7.86-100.4-7.03-119.4-10.18-5.64-.93-117.91-17.55-89.81,11.19,11.05,11.29,53.1,29.16,67.79,26.72,87.81-14.61,58.13-17.45,150.21-7.48,33.64,3.64-41.29,16.59-73.87,8.35-.31-.08-71.01,2.94-27.36,27.97,34.16,19.58,181.68-47.97,213.15-11.33,3.57,4.16-21.28,19.08-43.96,10.58-38.02-14.26-85.23,11.98-123.43,16.91-6.66.86,47.73,73.59,107,29.92,20.57-15.15,19.98,11.08,51.09-27.12.16-.19,33.27-39.51,50.19-42.32,2.88,17.29-59.07,52.2,9.07,62.83,16.96,2.64,33.1,72.77,3.42,23.05-15.54-26.03-206.59,3.15-96.54,42.81,46.68,16.82,58.64-44.88,116.98,4.53,18.39,15.58.76,37.49-.83,25.66-1.07-7.86-19.34-25.04-34.66-24.77-112.2,1.93-11.34,54.02,15.39,49.87,14.25-2.21,30.85-15.67,22.03,12.22-2.7,8.55-50.98-2.3-51.48-2.17,4.99,29.99,27.68,19.93,23.95,72.19-20.74,3.45-1.03-23.03-31.5-55.67-26.32-28.2-93.03-74.17-129.21-88.01-32.48-12.43-25.33-40.64-59.86-38.68-77.68,4.42,25.43-30.09-43.66-39.6-26.75-3.68-43.15-14.09-80.94-30.96-31.72-14.15-65.53-15.38-92.64-36.8-16.75-13.23-57.5-13.82-95.22-36.02-9.83-5.77-118.03-11.14-123.7-51.82-3.7-26.53-31.87-46.46-67.5-65.18-15.04-7.9-15.96-8.8-6.18-22.11l12.6-1.97h0Z"/>
  <path class="bi" d="m1707.13,1793.84c-7.6-29.21-85.16-68.4-48.3-130.61,2.12-3.59-11.88-16.48-24.12,22.22-10.78,34.09-23.4-22.45-32.7-36.69-26.36-40.38,41.63-2.35,21.69-37.27-4.52-7.92,21.91-63,5.16-47.11-7.01,6.65-41.8,64.91-33.13,16.33,3.64-20.41-12.37-15.56-10.24,14.17-11.79,8.81-32.07-15.45-12.52-20.16,16.81-4.05-57.1-67.73,19.26-43.36,1.77.56,31.23,34.88,22.99,2.31-.15-.58-40.7-32.18-72.26-15.58-35.94,18.91,5.63-47.27-45.74-82.33-15.94-10.88-21.05-22.15-6.13,24.03.13.4,55.99,93.68-22.12,36.16-22.47-16.54-.07-77.04-62.35-111.59-.49-.27-35.21-54.55-45.73-13.1-1.79,7.04,32.05,11.3,36.5,34.77,2.42,12.82,21.41,18.56,19.35,30.69-21.7,3.61-25.47-18.11-25.42-18.38-49.47-47.25-15.64-12.25-10.66,4.6,19.7,66.72,11.13,21.23,39.69,48.38,8.18,7.77-25.24,45.42-28.76,54.22-.08.18-41.7,30.7-23.98,48.55,23.11-9.54,25.32-57.08,58.94-61.32,17.49-2.21,13.4,33.62-15.92,40.91-13.03,32.69-8.04,12.13-49.48,36.04-6.49,3.74-3.39,36.9,41.65.34,16.44-13.35,40.94-1.8,66.69-6.74,14.04-2.69,73.69,40.61,11.9,14.28-19.46-8.29-123.16,38.04-69.41,33.54,31.89-2.66,35.76-15.25,68.32-.54,3.21,1.45,17.23-7.98,65.13,20.04,15.71,9.19,62.91,36.48,3.38,25.91-90.21-16.01-35.59-9.12-66.04-28.93-24.1-15.67-13.94,34.39-43.66-2.86-10.73-13.45-38.08,31.48-32.74,41.31,10.05,18.48-2.74-3.6,9.53,34.47.65,2.02,50.98,23.86,36.9-2.14-19.76-36.45,25.57-3.72,36.84-28.73,1-2.22,28.79-1.16,52.8.54,79.76,5.66,65.19,2.8,72.06,24.62-1.05,1.66-72.56,8.06-98.47,18.24-15.58,6.12-102.1,38.07-21.36,24.63,39.84-6.63,91.58-28.91,129.85-23.59.33.04,56.98,23.8,2.17,30.72-21.28,2.68-58.84,43.31-49.68,65.46,2.62,6.34,27.91-52.85,68.02-53.46,35.93-.54,36.34,19.05,58.66,26.97,1.75.62,45.43,48.06,22.15,5.03-2.82-5.21-17.78-11.29-18.74-15h0Z"/>
</svg>