<?xml version="1.0" encoding="UTF-8"?>
<svg width="700pt" height="700pt" version="1.1" viewBox="0 0 700 700" xmlns="http://www.w3.org/2000/svg" xmlns:xlink="http://www.w3.org/1999/xlink">
 <defs>
  <symbol id="l" overflow="visible">
   <path d="m37.516-2.25c-1.9297 1.0117-3.9453 1.7734-6.0469 2.2812-2.0938 0.50781-4.2812 0.76562-6.5625 0.76562-6.793 0-12.18-1.8984-16.156-5.7031-3.9688-3.8008-5.9531-8.957-5.9531-15.469 0-6.5195 1.9844-11.68 5.9531-15.484 3.9766-3.8008 9.3633-5.7031 16.156-5.7031 2.2812 0 4.4688 0.25781 6.5625 0.76562 2.1016 0.51172 4.1172 1.2656 6.0469 2.2656v8.4531c-1.9492-1.332-3.8711-2.3047-5.7656-2.9219-1.8984-0.625-3.8906-0.9375-5.9844-0.9375-3.7617 0-6.7188 1.2031-8.875 3.6094-2.1484 2.4062-3.2188 5.7266-3.2188 9.9531 0 4.2109 1.0703 7.5156 3.2188 9.9219 2.1562 2.4062 5.1133 3.6094 8.875 3.6094 2.0938 0 4.0859-0.30469 5.9844-0.92188 1.8945-0.625 3.8164-1.5977 5.7656-2.9219z"/>
  </symbol>
  <symbol id="b" overflow="visible">
   <path d="m27.453-22.281c-0.85547-0.40625-1.7109-0.70312-2.5625-0.89062-0.84375-0.19531-1.6953-0.29688-2.5469-0.29688-2.5234 0-4.4609 0.80859-5.8125 2.4219-1.3555 1.6172-2.0312 3.9297-2.0312 6.9375v14.109h-9.7969v-30.625h9.7969v5.0312c1.25-2.0078 2.6914-3.4727 4.3281-4.3906 1.6328-0.91406 3.5859-1.375 5.8594-1.375 0.33203 0 0.6875 0.015625 1.0625 0.046875 0.38281 0.023438 0.94141 0.078125 1.6719 0.17188z"/>
  </symbol>
  <symbol id="a" overflow="visible">
   <path d="m35.281-15.391v2.7812h-22.891c0.23828 2.3047 1.0664 4.0273 2.4844 5.1719 1.4258 1.1484 3.4141 1.7188 5.9688 1.7188 2.0508 0 4.1562-0.30078 6.3125-0.90625 2.1641-0.61328 4.3906-1.5391 6.6719-2.7812v7.5469c-2.3125 0.875-4.6328 1.5391-6.9531 1.9844-2.3125 0.44531-4.625 0.67188-6.9375 0.67188-5.543 0-9.8516-1.4062-12.922-4.2188-3.0742-2.8203-4.6094-6.7734-4.6094-11.859 0-5 1.5039-8.9258 4.5156-11.781 3.0195-2.8633 7.1758-4.2969 12.469-4.2969 4.8125 0 8.6602 1.4492 11.547 4.3438 2.8945 2.8984 4.3438 6.7734 4.3438 11.625zm-10.062-3.2656c0-1.8516-0.54688-3.3477-1.6406-4.4844-1.0859-1.1445-2.5-1.7188-4.25-1.7188-1.8984 0-3.4375 0.53906-4.625 1.6094-1.1797 1.0625-1.9141 2.5938-2.2031 4.5938z"/>
  </symbol>
  <symbol id="h" overflow="visible">
   <path d="m18.438-13.781c-2.043 0-3.5781 0.35156-4.6094 1.0469-1.0312 0.6875-1.5469 1.7031-1.5469 3.0469 0 1.2422 0.41016 2.2148 1.2344 2.9219 0.83203 0.69922 1.9883 1.0469 3.4688 1.0469 1.8438 0 3.3906-0.66016 4.6406-1.9844 1.2578-1.3203 1.8906-2.9727 1.8906-4.9531v-1.125zm14.953-3.6875v17.469h-9.875v-4.5469c-1.3125 1.8672-2.793 3.2266-4.4375 4.0781-1.6367 0.84375-3.6328 1.2656-5.9844 1.2656-3.168 0-5.7422-0.92578-7.7188-2.7812-1.9805-1.8516-2.9688-4.2539-2.9688-7.2031 0-3.5938 1.2344-6.2266 3.7031-7.9062 2.4688-1.6758 6.3477-2.5156 11.641-2.5156h5.7656v-0.76562c0-1.5508-0.60938-2.6875-1.8281-3.4062s-3.125-1.0781-5.7188-1.0781c-2.0938 0-4.0469 0.21484-5.8594 0.64062-1.8047 0.41797-3.4766 1.043-5.0156 1.875v-7.4688c2.0938-0.50781 4.1953-0.89453 6.3125-1.1562 2.1133-0.25781 4.2266-0.39062 6.3438-0.39062 5.5195 0 9.5039 1.0898 11.953 3.2656 2.457 2.1797 3.6875 5.7188 3.6875 10.625z"/>
  </symbol>
  <symbol id="g" overflow="visible">
   <path d="m15.391-39.328v8.7031h10.094v7h-10.094v12.984c0 1.4297 0.28125 2.3906 0.84375 2.8906 0.57031 0.5 1.6953 0.75 3.375 0.75h5.0312v7h-8.3906c-3.8672 0-6.6055-0.80469-8.2188-2.4219-1.6172-1.6133-2.4219-4.3516-2.4219-8.2188v-12.984h-4.875v-7h4.875v-8.7031z"/>
  </symbol>
  <symbol id="f" overflow="visible">
   <path d="m25.547-26.141v-16.406h9.8438v42.547h-9.8438v-4.4375c-1.3555 1.8125-2.8438 3.1406-4.4688 3.9844-1.6172 0.83203-3.4922 1.25-5.625 1.25-3.7734 0-6.8711-1.5-9.2969-4.5-2.4297-3-3.6406-6.8594-3.6406-11.578 0-4.7266 1.2109-8.5859 3.6406-11.578 2.4258-3 5.5234-4.5 9.2969-4.5 2.1133 0 3.9844 0.42188 5.6094 1.2656 1.6328 0.84375 3.1289 2.1641 4.4844 3.9531zm-6.4531 19.828c2.0938 0 3.6914-0.76562 4.7969-2.2969 1.1016-1.5312 1.6562-3.7539 1.6562-6.6719 0-2.9141-0.55469-5.1406-1.6562-6.6719-1.1055-1.5312-2.7031-2.2969-4.7969-2.2969-2.0859 0-3.6797 0.76562-4.7812 2.2969-1.1055 1.5312-1.6562 3.7578-1.6562 6.6719 0 2.918 0.55078 5.1406 1.6562 6.6719 1.1016 1.5312 2.6953 2.2969 4.7812 2.2969z"/>
  </symbol>
  <symbol id="e" overflow="visible">
   <path d="m21-6.3125c2.0938 0 3.6914-0.76562 4.7969-2.2969 1.1016-1.5312 1.6562-3.7539 1.6562-6.6719 0-2.9141-0.55469-5.1406-1.6562-6.6719-1.1055-1.5312-2.7031-2.2969-4.7969-2.2969s-3.7031 0.77344-4.8281 2.3125c-1.1172 1.5312-1.6719 3.75-1.6719 6.6562 0 2.8984 0.55469 5.1172 1.6719 6.6562 1.125 1.543 2.7344 2.3125 4.8281 2.3125zm-6.5-19.828c1.3438-1.7891 2.832-3.1094 4.4688-3.9531 1.6445-0.84375 3.5352-1.2656 5.6719-1.2656 3.7695 0 6.8672 1.5 9.2969 4.5 2.4258 2.9922 3.6406 6.8516 3.6406 11.578 0 4.7188-1.2148 8.5781-3.6406 11.578-2.4297 3-5.5273 4.5-9.2969 4.5-2.1367 0-4.0273-0.42188-5.6719-1.2656-1.6367-0.85156-3.125-2.1758-4.4688-3.9688v4.4375h-9.7969v-42.547h9.7969z"/>
  </symbol>
  <symbol id="d" overflow="visible">
   <path d="m0.6875-30.625h9.7812l8.2344 20.781 7-20.781h9.7969l-12.891 33.531c-1.293 3.4062-2.8047 5.7852-4.5312 7.1406-1.7188 1.3633-3.9922 2.0469-6.8125 2.0469h-5.6562v-6.4375h3.0625c1.6562 0 2.8594-0.26562 3.6094-0.79688 0.75781-0.52344 1.3516-1.4648 1.7812-2.8281l0.26562-0.85938z"/>
  </symbol>
  <symbol id="c" overflow="visible">
   <path d="m21.5-25.016c1.6562 0 2.9102-0.36328 3.7656-1.0938 0.85156-0.72656 1.2812-1.8047 1.2812-3.2344 0-1.4062-0.42969-2.4727-1.2812-3.2031-0.85547-0.73828-2.1094-1.1094-3.7656-1.1094h-5.8281v8.6406zm0.34375 17.844c2.1133 0 3.7031-0.44141 4.7656-1.3281 1.0703-0.89453 1.6094-2.2422 1.6094-4.0469 0-1.7695-0.53125-3.0977-1.5938-3.9844-1.0547-0.88281-2.6484-1.3281-4.7812-1.3281h-6.1719v10.688zm9.7969-14.672c2.2578 0.65625 4.0078 1.8711 5.25 3.6406 1.2383 1.7617 1.8594 3.9297 1.8594 6.5 0 3.9375-1.3359 6.875-4 8.8125-2.6562 1.9297-6.7031 2.8906-12.141 2.8906h-17.469v-40.828h15.812c5.6641 0 9.7695 0.85938 12.312 2.5781 2.5391 1.7109 3.8125 4.4492 3.8125 8.2188 0 1.9922-0.46484 3.6836-1.3906 5.0781-0.92969 1.3984-2.2773 2.4336-4.0469 3.1094z"/>
  </symbol>
  <symbol id="k" overflow="visible">
   <path d="m29.453-29.672v7.9844c-1.3359-0.90625-2.6719-1.5781-4.0156-2.0156-1.3359-0.4375-2.7188-0.65625-4.1562-0.65625-2.7422 0-4.8711 0.79688-6.3906 2.3906-1.5234 1.5938-2.2812 3.8242-2.2812 6.6875 0 2.8555 0.75781 5.0859 2.2812 6.6875 1.5195 1.5938 3.6484 2.3906 6.3906 2.3906 1.5312 0 2.9844-0.22656 4.3594-0.6875 1.375-0.45703 2.6445-1.1328 3.8125-2.0312v8.0156c-1.5312 0.5625-3.0898 0.98438-4.6719 1.2656-1.5742 0.28906-3.1523 0.4375-4.7344 0.4375-5.5234 0-9.8438-1.4141-12.969-4.25-3.1172-2.8438-4.6719-6.7852-4.6719-11.828 0-5.0508 1.5547-8.9922 4.6719-11.828 3.125-2.832 7.4453-4.25 12.969-4.25 1.6016 0 3.1797 0.14062 4.7344 0.42188 1.5625 0.28125 3.1172 0.70312 4.6719 1.2656z"/>
  </symbol>
  <symbol id="j" overflow="visible">
   <path d="m4.7031-30.625h9.7969v30.625h-9.7969zm0-11.922h9.7969v7.9844h-9.7969z"/>
  </symbol>
  <symbol id="i" overflow="visible">
   <path d="m28.625-29.672v7.4375c-2.0938-0.875-4.1172-1.5312-6.0625-1.9688-1.9492-0.4375-3.793-0.65625-5.5312-0.65625-1.8555 0-3.2344 0.23438-4.1406 0.70312-0.89844 0.46094-1.3438 1.1719-1.3438 2.1406 0 0.78125 0.33594 1.3867 1.0156 1.8125 0.6875 0.41797 1.9141 0.72656 3.6875 0.92188l1.7188 0.25c5.0078 0.63672 8.3789 1.6836 10.109 3.1406 1.7383 1.4609 2.6094 3.7461 2.6094 6.8594 0 3.2734-1.2031 5.7305-3.6094 7.375-2.4062 1.6367-6 2.4531-10.781 2.4531-2.0234 0-4.1172-0.16406-6.2812-0.48438-2.1562-0.32031-4.375-0.80078-6.6562-1.4375v-7.4375c1.957 0.94922 3.957 1.6641 6 2.1406 2.0508 0.46875 4.1328 0.70312 6.25 0.70312 1.9141 0 3.3594-0.25781 4.3281-0.78125 0.96875-0.53125 1.4531-1.3164 1.4531-2.3594 0-0.875-0.33594-1.5234-1-1.9531-0.66797-0.42578-1.9961-0.75781-3.9844-1l-1.7188-0.21875c-4.3555-0.55078-7.4062-1.5625-9.1562-3.0312-1.75-1.4766-2.625-3.7227-2.625-6.7344 0-3.2383 1.1094-5.6406 3.3281-7.2031 2.2266-1.5703 5.6406-2.3594 10.234-2.3594 1.8008 0 3.6914 0.13672 5.6719 0.40625 1.9883 0.27344 4.1484 0.69922 6.4844 1.2812z"/>
  </symbol>
 </defs>
 <g>
  <path d="m428.4 280h-1.1641c40.992-25.781 68.367-71.301 68.367-123.2 0-80.281-65.32-145.6-145.6-145.6s-145.6 65.32-145.6 145.6c0 51.902 27.371 97.418 68.363 123.2h-1.1602c-104.99 0-190.4 85.41-190.4 190.4v78.398h537.6v-78.398c0-104.99-85.41-190.4-190.4-190.4zm-30.07 22.398-48.328 88.617-48.328-88.617zm-171.53-145.6c0-67.93 55.273-123.2 123.2-123.2 67.93 0 123.2 55.273 123.2 123.2 0 67.93-55.273 123.2-123.2 123.2-67.93 0-123.2-55.273-123.2-123.2zm369.6 369.6h-492.8v-56c0-92.637 75.363-168 168-168h4.5469l73.852 135.39 73.852-135.39h4.5469c92.637 0 168 75.363 168 168z"/>
  <use x="70" y="728" xlink:href="#l"/>
  <use x="111.097656" y="728" xlink:href="#b"/>
  <use x="138.714844" y="728" xlink:href="#a"/>
  <use x="176.695312" y="728" xlink:href="#h"/>
  <use x="214.484375" y="728" xlink:href="#g"/>
  <use x="241.253906" y="728" xlink:href="#a"/>
  <use x="279.234375" y="728" xlink:href="#f"/>
  <use x="338.816406" y="728" xlink:href="#e"/>
  <use x="378.902344" y="728" xlink:href="#d"/>
  <use x="434.902344" y="728" xlink:href="#c"/>
  <use x="477.585938" y="728" xlink:href="#a"/>
  <use x="515.566406" y="728" xlink:href="#k"/>
  <use x="548.761719" y="728" xlink:href="#b"/>
  <use x="576.378906" y="728" xlink:href="#j"/>
  <use x="595.574219" y="728" xlink:href="#i"/>
 </g>
</svg>
