<?xml version="1.0" encoding="UTF-8"?>
<svg id="a" data-name="Lager 1" xmlns="http://www.w3.org/2000/svg" viewBox="0 0 489.43 502.08">
  <defs>
    <style>
      .b {
        fill: #09070d;
      }

      .c {
        fill: #afb655;
      }

      .d {
        fill: #aca195;
      }

      .e {
        fill: #cabdad;
      }

      .f {
        fill: #d6dd8b;
      }

      .g {
        fill: #decfc0;
      }

      .h {
        fill: #3c5523;
      }

      .i {
        fill: #29381c;
      }
    </style>
  </defs>
  <g>
    <path class="e" d="m171.11,380.6l12.99,92.09s1.49,14.79,17.32,20.93c0,0,57.01,21.65,99.6-4.33,0,0,7.14-5.97,10.1-20.21l15.16-88.48s-64.13,33.44-155.17,0Z"/>
    <path class="g" d="m178.81,366.89s55.01-22.29,131.35-2.41c0,0,27.91,7.22,13.23,20.21,0,0-27.79,18.64-94.9,12.15-67.12-6.5-64.71-22.37-49.68-29.95Z"/>
    <path class="d" d="m186.5,383.73s-13.58-6.9-4.81-13.71c0,0,26.46-15.16,96.23-8.42,0,0,49.73,6.25,39.21,19l-4.57,3.13s-2.41-8.9-42.82-12.43c0,0-90.93-4.41-83.24,12.43Z"/>
    <path class="b" d="m312.56,383.73s-43.29,22.61-126.06,0c0,0-8.07-8.46,23.68-11.93,31.76-3.47,92.53-3.71,102.38,11.93Z"/>
  </g>
  <g>
    <g>
      <path class="i" d="m316,247.34s-38.04,16.05-45.2,23.33c0,0-17.95,8.76-27.24-1.8,0,0,7.06-8.58,12.64-13.48,0,0,41.99-16.39,59.8-8.05Z"/>
      <path class="c" d="m256.59,274.19c-.84.02-.74-1.47-1.28-2.08s-1.09-1.27-1.21-2.12c-.12-.85.39-1.93,1.23-2.12.46-.1.9.07,1.35.1.45.03,1.03-.2,1.14-.68.04-.18,0-.36-.06-.53-.23-.63-.75-1.1-.94-1.75-.24-.78.06-1.75.71-2.33.65-.58,1.6-.73,2.28-.35.8.44,1.79.72,2.75.63.96-.09,2-.97,1.94-1.95,2.47.72,5.34.33,7.78-1.06,1.11-.63,2.15-1.47,3.35-1.78,1.08-.29,2.17-.11,3.27-.19,3.34-.24,6.31-2.74,9.1-4.97,1.79-1.42,3.85-2.87,5.94-2.66.53.05,1.04.21,1.57.22,1.4.02,2.71-.95,4.03-1.6,3.31-1.62,7.26-1.19,9.76,1.07,0,0-32.76,13.58-38.48,20.63,0,0-8.78,3.37-14.22,3.52Z"/>
      <path class="h" d="m256.21,255.39s19.2-36.91,61.11-51.88c0,0,35.79-17.26,52.44-6.88,0,0,5.95,4.96,19.12-3.03,0,0,7.99-.3,14.01,1.45,0,0,2.83-3.86,8.96-4.77,0,0,5.7-1.07,8.78,2.3,0,0,3.99,4.94,8.9,1,4.91-3.94,19.19-6.26,27.78,19.35,0,0,3.85,2.27,9.12,1.45,0,0,5.4,2.12,6.84,6.81,0,0,5.04,6.78,9.73,10.45,0,0,6.16,6.74,6.43,11.02,0,0-20.89-.65-29.94,5.31,0,0-8.18,4.73-13.92,4.41,0,0-12.2,1.93-24.82,6.02,0,0-8.01.59-16.19,3.76,0,0-10.2.23-16.17-.55,0,0-25.7-.12-51.95-10.23,0,0-13.47-3.21-26.62-4.96-9.53-1.27-19.67,1.61-27.8,8.26-.29.24-.58.48-.85.72,0,0-8.57,7.11-24.96-.01Z"/>
      <path class="f" d="m330.16,245.17c6.68-.16,13.22,1.21,19.05,3.97.27-2.39-1.73-4.05-3.54-5.29.82-1.83,3.38-1.61,4.88-.63,1.5.97,3.08,2.39,4.9,1.78-.89-1.1-1.38-2.56-1.38-4.08l13.01,6.09c-.45-1.5-.9-2.99-1.34-4.49,2.09.29,3.99,1.34,5.32,2.93.65.77,1.17,1.68,1.97,2.29.79.61,1.98.87,2.89.24s1.07-2.31.11-2.62c2.17.04,4.23.95,5.66,2.5.22-1.2-.04-2.43-.69-3.34,3.06-.21,6.05.73,8.31,2.6-.32-1.55-.65-3.11-.97-4.66,2.19,1.08,4.38,2.16,6.57,3.24-1.03-1.68-1.11-4.01-.2-5.99,1.44,1.58,2.88,3.16,4.33,4.73.26.29.57.59.97.59.85,0,1.22-1.28,1.04-2.13-.18-.85-.58-1.77-.11-2.57.87-1.49,2.93-.25,3.58,1.18.66,1.44,2.2,3.39,3.69,2.61,1.01-1.59.74-3.65-.19-5.07-.92-1.42-2.37-2.33-3.79-3.21,2.81-1.88,6.81-.34,7.38,2.83,3.48,2.16,7.46,4.51,10.94,6.67,1.21.75,2.97,1.4,4.01.18.63-.74.59-1.86.15-2.62-.44-.76-1.2-1.24-1.93-1.71.1-1.29,2.02-1.21,3.01-.56,2.55,1.67,4.89,3.93,8.01,4.24,1.11.11,2.64-.42,2.72-1.6.04-.62-.37-1.11-.77-1.53-2.79-2.95-5.82-5.66-9.05-8.09,5.43-.92,9.64,5.09,15.05,3.91-.85-1.06-1.7-2.12-2.55-3.17-.03-1.36,2.44-1.82,3.64-1.39,2.19.79,4.38,1.58,6.56,2.37,5.17-1.96,10.76-2.15,15.64-.53-4.64-2.08-9.28-4.15-13.92-6.23-1.24-.55-2.52-1.12-3.93-1.06-1.62.06-3.9.58-4.22-1.02,1.58-1.18,3.23-2.24,4.93-3.18.12-1.58-2-1.96-3.46-1.38-1.47.58-3.04,1.61-4.4,1.09,1.3-.89,2.48-1.98,3.49-3.23-.91-.87-2.46-.29-3.73.2-1.27.49-2.98.7-3.48-.5,1.45-2.16,4.08-3.44,6.42-3.15-.31-1.73-2.5-2.2-4.18-1.55s-3.06,2.01-4.65,2.93c-3.35,1.94-7.59,1.61-10.16-.8,2.91-1.61,5.51-3.68,8.43-5.29-2.85-.83-5.88-1.17-8.94-.98,1.92-1.84,4.68-1.78,7.14-1.85,2.46-.07,5.43-.73,6.6-3.12-.72-2.47-3.88-2.86-6.44-2.3-2.56.56-5.27,1.67-7.59.82-.64-.24-1.24-.62-1.94-.64-.9-.02-1.77.56-2.56,1.12-1.57,1.1-3.13,2.21-4.7,3.31-.86.61-1.83,1.25-2.8,1.14-1.64-.18-1.97-2.95-.47-3.9-1.18-.58-2.75-.08-3.88.85-1.14.93-1.94,2.23-2.71,3.5-.33.55-.71,1.14-1.27,1.41-.95.46-2-.25-2.29-1.22s-.06-2.07.18-3.11c-1.15.02-2.26.71-3.24,1.46-.98.75-1.94,1.6-3.06,2.02-1.12.42-2.49.29-3.07-.68-.58-.96.21-2.72,1.35-2.68-.33-1.54-2.61-1.25-3.92-.22s-2.5,2.56-4.06,2.71c-.5-1.21-.1-2.98,1.06-3.78,1.16-.79,2.54-1,3.86-1.17,4.38-.59,8.76-1.18,13.13-1.78-6.03-2.49-13.72-1.1-19.34,3.48-2.28,1.86-4.59,4.34-7.31,4.29.95-1.78-1.32-3.37-3.18-2.93-1.85.44-3.52,1.86-5.39,2.12.2-.91.39-1.82.59-2.74-2.87-1.09-5.82,3.17-9,3.38-.32.02-.65,0-.9-.18-.9-.63.1-2.3,1.21-2.73s2.41-.4,3.3-1.26c-1.47-1.92-4.73-.81-6.71,1s-3.61,4.26-6.02,5.24c-.8-.28-1.58-.69-2.38-.97,1.3-2.05,2.94-3.9,4.82-5.4-1.82-1.37-4.59.54-6.2,2.55-1.61,2.01-3.35,4.5-5.73,4.63-.28-1.6.84-3.48,2.39-4.04-.31-1.68-2.88-1.06-4.13.25-1.26,1.31-2.51,3.15-4.17,3.07.94-1.82,2.07-3.55,3.37-5.13-3.76,1.45-7.29,3.78-10.23,6.75-.49-1.9.76-4.3,2.64-5.07-1.99-1.21-5.06-.32-6.5,1.88-.48.74-.79,1.58-1.33,2.27-.54.7-1.44,1.23-2.17.93s-.7-1.7.1-1.91c-1-1.03-2.74.53-3.58,1.91-.84,1.38-2.46,3.02-3.56,2.11.26-.87.3-1.78.13-2.63-3.03.89-5.78,3.22-7.28,6.18-.61,1.21-1.12,2.62-2.25,3.32-1.14.7-2.89-.32-2.23-1.51-.18-1.04-1.03-.98-1.93-.33-1.9,1.36-2.44,3.95-3.6,6.02-.27.49-.61.98-1.09,1.24-.48.26-1.13.19-1.34-.27-.19-.4,0-.93-.05-1.39-.14-1.31-2.07-1.32-3.11-.4-1.04.91-1.58,2.3-2.52,3.32-.48.52-1.13.96-1.76.88s-1.07-.93-.62-1.48c-1.11-.06-2.25-.11-3.35.25s-2.18,1.21-2.52,2.36c-.44,1.48.38,3.2-.58,4.43-.58.74-1.09.75-1.74.22-.65-.53-1.33-1.25-2.19-1.03-.84.22-1.3,1.21-1.62,2.06.63.54,1.28,1.12,1.52,1.95.24.83-.13,1.98-.97,2.3-.77.29-1.49-.22-2.2-.5-.71-.28-1.85-.07-1.98.75-.07.43.19.79.43,1.11.82,1.05,1.65,2.11,2.47,3.16.74.94,1.44,2.42.52,3.39-1.11,1.17-2.75-.16-4.24-.08-1.22.06-2.31,1.12-2.99,2.26-.68,1.14-1.1,2.41-1.83,3.51,1.53.53,3.32.94,4.99.8,1.06-.09,2.12-.31,3.18-.44,2.77-.33,5.81-.07,8.12-1.94,7.11-5.75,16.32-8.17,24.77-7.87,2.28.08,4.5.43,6.71.81,5.33.91,10.68-1.26,16.2-1.39Z"/>
      <path class="h" d="m439.43,228.47s-65.57-14.45-123.42,18.87l-6.18-.92s56.41-35.21,129.6-17.95Z"/>
      <path class="f" d="m441.94,205.16c.53-.04,1.01.18,1.46.41,2.07,1.07,3.99,2.43,5.68,4.04-.05.39-.46.67-.83.71-.37.04-.71-.11-1.04-.26-1.68-.75-3.65-1.33-5.2-2.3-.81-.51-2.24-2.44-.07-2.61Z"/>
      <path class="f" d="m441.14,241.16c.22-.11.46-.11.69-.1,1.91.11,3.76.54,5.46,1.29,1.34.58,2.62,1.4,3.35,2.69-1.18.6-2.49.19-3.63-.23-1.44-.53-2.86-1.09-4.32-1.57-.43-.14-3.43-1.16-1.55-2.08Z"/>
      <path class="f" d="m404.05,248.05c.37.07.79.17.96.52.26.53-.23,1.19-.68,1.66-1.67-.55-5.22-.91-5.91-2.83,1.23-.8,4.31.36,5.63.65Z"/>
      <path class="f" d="m328.04,204.82c.15-.05.33-.1.45,0,.06.05.1.13.12.21.17.59-.12,1.29-.56,1.79-.44.49-1.02.82-1.59,1.12-.93.5-6.68,4.07-5.24.86.86-1.91,5.1-3.39,6.81-3.97Z"/>
      <path class="f" d="m365.36,248.16c.46.24.93.49,1.32.84.45.42.77,1.12.45,1.74-.26.5-.86.75-1.38.71s-.97-.3-1.4-.55c-.97-.56-6.02-2.71-5.14-3.95,1.14-1.6,5.13.68,6.15,1.21Z"/>
      <path class="f" d="m305.22,218.21c.04-1.03.66-2.09,1.55-2.65.41-.25.99-.37,1.22,0,.07.11.1.25.11.39.1,1.14-.61,2.4-1.65,2.93-.18.09-.37.16-.55.14-.33-.04-.52-.39-.53-.74,0-.35.14-.7.27-1.03"/>
      <path class="f" d="m407.93,201.94c.1-.33.19-.66.29-.99.84-.3,1.69-.6,2.56-.69.86-.08,1.75.08,2.38.62-.15.68-.76,1.23-1.39,1.47-.64.25-1.31.25-1.96.25-.4,0-.81,0-1.16-.17s-.61-.56-.51-.98"/>
    </g>
    <g>
      <path class="i" d="m252.22,207.12s-6.77-2.79-18.81-15.68c-1.22-1.31-.72-4.64-4.28-8.45-1.39-1.49-6.93-3.97-8.31-5.6-3.99-4.72-5.65-10.65-9.39-17.96-1.73-3.38-8.63-7.92-10.57-11.31-7.57-13.25-6.01-19.74-13.74-39.95,0,0-5.34-17.24-2.43-23.97,2.91-6.73,1.48-9.61,1.26-11.86-.23-2.25,2.98-11.65,5.82-13.45,2.84-1.8,4.22-10.64,4.22-10.64,0,0-.12-4.91,3.89-6.45,4.01-1.54,6.34-12.18,5.92-12.99-.42-.81,1.82-6.71,7.13-7.53s4.57-8.12,4.57-8.12c0,0,4.4-6.97,14.6-4.32,0,0,6.01-2.31,7.77-4.48,1.77-2.17,9.1-2.63,11.57-3.44,2.47-.82,6.72,1.87,8.99-.91,0,0,3.79,1.03,4.98,4.32,0,0,5.19,11.96,8.95,9.87,0,0,7.67,2.91,8.98,10.16,0,0-.16,3.99,3.35,7.89s2.25,19.35,2.14,21.06c-.11,1.71,2.45,4.57,4.34,6.37,1.88,1.79,4.76,10.58,4.85,14.26.09,3.68-1.03,8.9,1.11,10.67,2.14,1.77,4.93,11.98,1.82,17.97,0,0-3.11,20.84-1.75,30.54s-7.09,19.64-10.53,23.01-12.41,15.64-12.67,20.58c-.25,4.94-3.84,10.6-7.54,15.14s-9.55,3.71-16.23,15.27Z"/>
      <path class="f" d="m267.62,52.8c1.75-.92,3.67-1.52,5.63-1.78-.71,2.97-1.42,5.94-2.13,8.91,3.25-1.51,6.42-3.21,9.48-5.08-.88,1.65-.2,3.95,1.44,4.86.87.49,2.07.73,2.37,1.69.37,1.15-.95,2.14-2.13,2.43-1.18.29-2.57.41-3.23,1.43-.12,1.73,1.97,3.19,3.55,2.48-.41,4.72-8.97,4.95-9.57,9.65,2.86-.67,5.72-1.35,8.58-2.02-3.36,2.12-3.82,7.6-.86,10.25,2.41-3.57,5.24-6.86,8.42-9.77,1.98,2.21,1.17,5.72-.19,8.35-1.36,2.64-3.21,5.29-2.99,8.25,1.34-1.54,3.07-2.74,4.98-3.45-1.17,3.8-2.01,7.7-2.53,11.65,1.32.89,2.71-.99,3.29-2.47.58-1.48,2.39-3.14,3.42-1.93.39.46.38,1.12.31,1.71-.39,3.47-2.15,6.77-4.82,9.02-1.4,1.18-3.05,2.09-4.25,3.47-1.21,1.38-.9,3.79.04,5.36l3.84-1.46c1.44,2.6-.88,5.67-3.23,7.49-2.35,1.82-5.2,3.91-5.09,6.88l6.35-3.83c-.15,4.82-2.62,9.52-6.52,12.37-.91.66-1.91,1.26-2.51,2.21-.6.95-.6,2.4.34,3.02.94.62,2.5-.56,1.89-1.5,1.96.57,2.77,3.06,2.3,5.05-.47,1.99-1.82,3.63-2.95,5.34-3.79,5.76-5.16,12.71-7,19.36-1.83,6.65-4.45,13.5-9.87,17.77-2.13,1.68-4.62,2.89-6.57,4.77-1.64,1.58-2.83,3.57-4.44,5.18-1.61,1.61-3.88,2.85-6.1,2.34-2.64-.61-4.11-3.35-5.32-5.78-6.7-13.43-15.67-25.72-26.41-36.21-2.01-1.96-4.18-4.05-4.71-6.8,1.46.69,2.95-1.37,2.48-2.91-.47-1.54-1.96-2.49-3.26-3.44-2.55-1.86-4.75-4.2-6.45-6.86,1.24-.33,2.48-.67,3.72-1-.14-.69-.28-1.61-.69-2.19-2.12-3.01-4.79-5.61-6.9-8.63s-3.68-6.67-3.16-10.32c3.86-.07,4.83,6.23,8.58,7.13,1.32-2.16-.52-4.8-2.15-6.74-3.23-3.83-6.07-8.01-8.43-12.43-1.33-2.47-2.44-5.72-.66-7.89,2.68,1.98,4.74,4.78,5.84,7.93,1.09-.98-.83-2.83-.21-4.16.32-.68,1.22-.9,1.94-.69.72.21,1.29.75,1.83,1.27l5.01,4.8c.54-.99-.4-2.7-1.46-3.09-2.53-3.23-4.55-6.86-5.95-10.72.85-1.46,3.06.01,3.83,1.51.77,1.5,2.36,3.38,3.72,2.38.82-.61.72-1.85.43-2.82-.74-2.47-2.24-4.72-4.24-6.34-1.58-1.28-3.64-3.52-2.11-4.86,1.17-1.02,2.91.11,4.11,1.1,1.2.98,3.35,1.65,4.01.24-1.84-2.03-1.42-5.66.84-7.22,1.81,3.09,4.35,5.75,7.35,7.7,1.46-1.09,1.78-3.23,1.23-4.96s-1.77-3.16-2.97-4.53c-2.46-2.82-4.92-5.64-7.37-8.46-1.23-1.41-2.51-2.91-2.92-4.74-.41-1.83.36-4.08,2.15-4.65,3.89,3.92,7.79,7.84,11.68,11.77,1.43,1.44,3.53,2.98,5.27,1.95-2.31-5.97-5.71-11.51-9.99-16.27-.81-.9-1.67-1.81-2.05-2.95-.38-1.15-.12-2.61.92-3.21,1.14,2.09,3.51,3.44,5.89,3.36.51-1.87-1.27-3.48-2.57-4.92-1.3-1.44-2-4.19-.21-4.95,3.64,4.01,8.04,7.32,12.9,9.71-.13-1.6-.39-3.5-1.56-4.61-3.63-3.46-6.46-7.75-8.23-12.44,1.85,2.21,4.26,3.86,6.64,5.48.89.61,1.78,1.21,2.67,1.82.45-1.16-.49-2.34-1.28-3.29-3.05-3.66-4.87-8.32-5.11-13.08-.05-.89.25-2.09,1.14-2.07.25,0,.48.12.68.26.93.7,1.05,2.01,1.39,3.12.34,1.11,1.4,2.29,2.47,1.84,1.16-.48.94-2.17.52-3.35-.58-1.63-1.18-3.31-1.13-5.04s.9-3.56,2.49-4.25c.44,3.59,1.44,7.12,2.96,10.41.46.99,1.67,2.11,2.43,1.32.11-.35.23-.7.34-1.05.58-1.79-.2-3.4-.71-5.21-.5-1.82-.95-3.78-.3-5.55.65-1.77,2.84-3.09,4.47-2.14,1.29.74,1.73,2.53,3.07,3.18,2.1-.71.48-5.06,2.63-5.62.86-.22,1.66.43,2.43.85,2.79,1.51,6.78-.46,7.3-3.58,1.93,1.95,2.38,5.19,1.06,7.59-.61,1.12-1.6,2.26-1.24,3.49.31,1.07,1.58,1.61,2.68,1.47s2.07-.77,2.99-1.4c1.13,2.37.5,5.46-1.47,7.21,1.94.69,4.22.32,5.86-.93.65-.5,1.23-1.14,2.03-1.32,1.8-.41,3.16,1.98,2.63,3.74-.54,1.76-2.14,2.94-3.53,4.15-1.4,1.2-2.77,2.8-2.59,4.64.04.42.19.87.53,1.12.97.7,2.28-.67,3.43-.36,1.38.38,1.05,2.5.13,3.6-.92,1.1-2.22,2.32-1.79,3.69,3.01-1.61,6.02-3.21,9.03-4.82,1.88.96,1.73,3.89.33,5.47-1.4,1.58-3.53,2.23-5.44,3.12-1.91.88-2.47,2.41-2.76,4.5Z"/>
      <g>
        <path class="f" d="m207.72,73.32l.3-.23c-.94-.77-1.33-2-1.91-3.06-.58-1.07-1.6-2.11-2.8-1.96-.09.01-.18.03-.27.07-.22.1-.37.34-.43.57-.24.91.51,1.79,1.3,2.3.79.51,1.73.9,2.24,1.69.28.43.41.95.74,1.33s1.03.53,1.32.11c.26-.33-.09-.91-.5-.83Z"/>
        <path class="f" d="m198.19,75.47c-.13,1.08,1.05,1.83,2.1,2.1,1.08.28,2.21.36,3.32.24l.33-.36c-.96-.86-1.56-2.1-2.63-2.82-1.07-.72-2.96-.45-3.12.83Z"/>
        <path class="f" d="m207.66,46.23c-.39.94-.79,1.9-.87,2.91-.08,1.01.2,2.11.98,2.77l-.06-.56c.83.72,1.54,1.58,2.09,2.53.38.24.92-.05,1.09-.47.17-.42.09-.89,0-1.33-.44-2.28-1.12-4.9-3.24-5.85Z"/>
        <path class="f" d="m275.4,33.09c-1.28.05-2.34.98-3.28,1.85-.45.42-.94.9-1.02,1.52-.08.64.36,1.31.99,1.48.28.07.57.03.83-.07l-.13.12c1.33-.36,2.61-.93,3.76-1.7.3-.2.59-.42.78-.72.66-1.1-.65-2.53-1.94-2.48Z"/>
        <path class="f" d="m289.09,67.52c-.31-.2-.68-.33-1.04-.26-.69.15-.99.94-1.18,1.61-.27.96-.54,1.92-.81,2.88-.19.66-.25,1.57.39,1.81.3.11.64,0,.93-.13,1.16-.56,2.05-1.67,2.35-2.92l-.24.83c1.04-1.03.84-3.02-.38-3.82Z"/>
      </g>
      <path class="i" d="m249.13,17.32s-20.48,138.27,10.05,309.43l5.46-.55s-18.78-72.75-15.51-308.87Z"/>
    </g>
    <g>
      <path class="i" d="m184.22,190.11s15.83,31.76,16.42,40.52c0,0,6.8,15.76,18.77,14.07,0,0,.2-9.54-.7-15.87,0,0-18.21-34.2-34.49-38.72Z"/>
      <path class="c" d="m207.94,240.89c.53.49,1.31-.54,2-.64.69-.09,1.42-.22,1.98-.71.55-.49.83-1.48.38-2.07-.24-.32-.63-.45-.94-.69-.31-.24-.56-.71-.36-1.08.08-.14.2-.24.33-.31.51-.28,1.1-.3,1.6-.61.59-.37.94-1.18.84-1.92-.1-.74-.64-1.37-1.29-1.51-.77-.16-1.57-.53-2.15-1.13-.57-.6-.76-1.75-.17-2.36-2.02-.92-3.67-2.77-4.48-5.04-.37-1.03-.58-2.16-1.19-3.04-.55-.79-1.35-1.29-2.02-1.95-2.04-2.02-2.58-5.32-3.16-8.34-.37-1.93-.91-4.02-2.38-5.06-.37-.26-.79-.44-1.15-.74-.92-.77-1.23-2.14-1.73-3.3-1.25-2.91-4.07-4.84-6.97-4.77,0,0,13.76,27.19,13.55,35,0,0,3.84,7.11,7.3,10.26Z"/>
      <path class="h" d="m218.71,228.84s8.14-34.82-10.81-68.04c0,0-13.68-31.29-30.35-33.85,0,0-6.66-.09-10.77-12.68,0,0-5.04-4.67-9.95-6.9,0,0,.32-4.1-3.17-8.13,0,0-3.12-3.89-7.02-3.42,0,0-5.37.99-6.37-4.33-1-5.32-9.01-14.82-28.94-2.93,0,0-3.78-.67-6.76-4.16,0,0-4.71-1.64-8.27.61,0,0-7.09,1.6-12.19,1.37,0,0-7.79.95-10.37,3.59,0,0,13.99,11.27,16.55,20.22,0,0,2.69,7.66,6.61,10.67,0,0,6.88,8.09,12.82,17.82,0,0,4.89,4.87,8.45,11.52,0,0,6.52,5.87,10.85,8.7,0,0,16.83,14.31,39.6,22.41,0,0,10.58,5.45,20.13,11.67,6.93,4.51,11.93,12.06,13.51,20.95.06.32.11.64.15.95,0,0,1.61,9.44,16.28,13.97Z"/>
      <path class="f" d="m176.21,180.77c-4.27-3.84-9.3-6.62-14.64-8.07,1.16-1.7,3.4-1.67,5.27-1.47.49-1.65-1.31-2.94-2.83-3.15-1.52-.2-3.34-.16-4.19-1.59,1.2-.22,2.33-.9,3.18-1.89l-11.89-3.31c1.13-.73,2.26-1.45,3.39-2.18-1.52-.98-3.35-1.36-5.11-1.07-.86.14-1.7.44-2.56.39-.86-.04-1.77-.54-2.02-1.47-.24-.92.6-2.11,1.4-1.77-1.44-1.19-3.29-1.75-5.09-1.54.53-.9,1.38-1.56,2.32-1.79-1.87-1.85-4.35-2.91-6.87-2.95l3.24-2.5c-2.03-.52-4.07-1.04-6.1-1.57,1.61-.52,2.97-2,3.48-3.79-1.82.22-3.65.44-5.47.67-.33.04-.7.07-.96-.16-.55-.48-.08-1.52.52-1.97.59-.45,1.37-.83,1.51-1.61.27-1.46-1.77-1.8-3-1.23-1.23.57-3.34.98-3.87-.36.23-1.6,1.57-2.8,2.96-3.2,1.4-.41,2.85-.19,4.27.03-.78-2.8-4.25-4.04-6.4-2.29-3.47-.54-7.39-1.24-10.87-1.78-1.2-.19-2.72-.75-2.72-2.13,0-.84.66-1.54,1.37-1.79.71-.25,1.48-.14,2.21-.03.65-.9-.64-1.92-1.65-2.05-2.59-.34-5.39-.17-7.6-1.72-.78-.55-1.49-1.75-.88-2.56.32-.43.87-.52,1.36-.57,3.47-.36,6.96-.43,10.43-.21-3.03-3.64-9.13-2.08-12-5.88,1.15-.21,2.29-.43,3.44-.64.78-.87-.58-2.56-1.6-2.94-1.87-.71-3.74-1.42-5.61-2.13-2.27-4.17-5.81-7.42-9.91-9.1,4.19,1.24,8.38,2.49,12.57,3.73,1.12.33,2.27.68,3.16,1.5,1.02.94,2.21,2.56,3.33,1.69-.37-1.65-.85-3.27-1.43-4.83.8-1.1,2.4-.16,3.03,1.04.63,1.2,1.08,2.75,2.26,3.17-.35-1.31-.51-2.68-.47-4.06,1.08-.06,1.77,1.19,2.32,2.22.55,1.03,1.55,2.13,2.55,1.62.26-2.22-.73-4.53-2.43-5.65,1.17-.96,2.86-.03,3.59,1.33.73,1.36.87,3.03,1.39,4.51,1.1,3.14,4.05,5.3,7.08,5.17-1-2.68-1.54-5.49-2.53-8.17,2.32,1.05,4.49,2.53,6.38,4.36-.22-2.27-2.06-3.78-3.62-5.2-1.57-1.42-3.13-3.51-2.56-5.73,1.85-1.21,4.13.31,5.49,2.1s2.5,4.04,4.49,4.78c.55.21,1.16.29,1.62.67.6.49.84,1.36,1.04,2.17.4,1.6.81,3.19,1.21,4.79.22.88.49,1.84,1.19,2.31,1.17.8,2.94-.82,2.49-2.28,1.1.29,1.84,1.48,2.06,2.73.22,1.24.01,2.54-.2,3.8-.09.55-.18,1.14.04,1.63.36.83,1.44.95,2.18.49.73-.46,1.2-1.31,1.62-2.13.74.66,1.08,1.73,1.3,2.77s.37,2.13.87,3.03c.5.9,1.46,1.58,2.38,1.28.92-.3,1.39-1.89.62-2.5,1.08-.82,2.4.64,2.68,2.05.28,1.41.2,3.07,1.13,4.04,1-.51,1.73-1.89,1.42-3.06-.31-1.17-1.1-2.07-1.86-2.93-2.52-2.84-5.05-5.67-7.57-8.51,5.32,1.75,9.56,6.96,10.66,13.1.45,2.48.56,5.4,2.37,6.89.37-1.69,2.75-1.45,3.71-.13s1.26,3.18,2.33,4.4c.38-.7.77-1.41,1.15-2.11,2.48.9,2.02,5.32,3.98,7.24.2.19.43.36.69.39.94.09,1.22-1.55.74-2.45-.48-.9-1.35-1.61-1.45-2.66,2.03-.43,3.53,2.12,3.81,4.41s-.03,4.8.99,6.78c.68.26,1.42.43,2.09.7.3-2.07.26-4.19-.12-6.22,1.96.13,2.69,2.92,2.62,5.13-.08,2.21-.33,4.81,1.15,6.22,1.07-.89,1.4-2.74.7-3.97,1.14-.92,2.47.92,2.56,2.47.09,1.56-.13,3.46,1,4.34.41-1.71.63-3.47.67-5.24,1.64,3.05,2.64,6.55,2.89,10.13,1.38-.97,1.91-3.23,1.12-4.79,1.98.33,3.48,2.62,3.18,4.87-.1.75-.37,1.47-.41,2.23-.04.76.25,1.61.89,1.82.64.21,1.41-.72,1-1.3,1.23-.11,1.49,1.88,1.27,3.25-.23,1.37-.08,3.35,1.14,3.37.32-.71.8-1.33,1.38-1.79,1.48,2.27,1.97,5.34,1.29,8.1-.28,1.13-.74,2.33-.39,3.43.35,1.09,2.07,1.41,2.3.26.7-.58,1.22-.06,1.45.87.48,1.95-.62,3.94-1.02,5.94-.1.47-.15.98.02,1.42.17.44.63.76,1.03.58.35-.16.52-.61.81-.88.83-.78,2.09.3,2.25,1.47.17,1.18-.25,2.38-.21,3.58.02.61.2,1.26.65,1.56.46.3,1.21,0,1.23-.61.76.58,1.53,1.19,2.05,2.04.52.85.74,2.01.32,2.95-.55,1.21-2.03,1.87-2.1,3.22-.04.81.29,1.1,1.01,1.11.72.02,1.57-.08,2,.55.43.61.17,1.52-.1,2.25-.71,0-1.46.01-2.08.43-.62.41-1.02,1.37-.65,2.04.34.62,1.1.69,1.72.91.62.22,1.25.99.87,1.6-.19.32-.57.41-.9.48-1.13.23-2.25.45-3.38.68-1.01.2-2.29.77-2.24,1.92.07,1.39,1.88,1.44,2.81,2.32.76.72.88,2.02.68,3.14-.19,1.12-.63,2.19-.77,3.32-1.29-.51-2.69-1.24-3.7-2.27-.64-.65-1.21-1.39-1.83-2.06-1.63-1.76-3.75-3.3-4.21-5.81-1.42-7.73-6.07-14.47-11.75-19-1.53-1.22-3.17-2.24-4.83-3.23-3.99-2.39-6.26-6.8-9.79-9.97Z"/>
      <path class="h" d="m114.29,108.71s50.85,27.28,69.92,81.4l4.54,2.86s-17.07-54.54-74.47-84.26Z"/>
      <path class="f" d="m125.7,92.1c-.32-.32-.76-.45-1.18-.55-1.95-.46-3.96-.65-5.97-.55-.18.28-.08.7.14.93s.53.33.82.41c1.51.45,3.12,1.18,4.68,1.41.82.12,2.82-.33,1.51-1.66Z"/>
      <path class="f" d="m106.08,116.03c-.08-.2-.24-.33-.4-.45-1.3-1-2.75-1.75-4.28-2.22-1.2-.37-2.49-.56-3.69-.12.43,1.06,1.51,1.52,2.5,1.88,1.23.46,2.48.89,3.7,1.39.36.15,2.88,1.17,2.18-.49Z"/>
      <path class="f" d="m126.4,141.29c-.28-.16-.61-.33-.92-.2-.46.2-.52.91-.49,1.46,1.4.58,3.92,2.33,5.44,1.46-.35-1.21-3.01-2.18-4.04-2.73Z"/>
      <path class="f" d="m200.18,155.65c-.07-.12-.16-.25-.29-.26-.07,0-.14.03-.2.07-.44.29-.65.91-.64,1.48.01.57.21,1.11.41,1.62.33.85,2.08,6.39,2.93,3.49.51-1.73-1.43-5.07-2.22-6.41Z"/>
      <path class="f" d="m151.58,163.02c-.44-.1-.88-.2-1.33-.19-.53.02-1.13.3-1.27.88-.11.47.14.97.5,1.23.36.26.8.35,1.22.43.95.17,5.45,1.6,5.57.3.15-1.68-3.72-2.43-4.69-2.65Z"/>
      <path class="f" d="m207.55,177.15c.55-.69.74-1.73.47-2.6-.12-.39-.44-.79-.8-.68-.11.03-.21.11-.29.2-.71.68-.95,1.91-.57,2.84.06.16.15.31.28.4.24.15.56.04.76-.19s.3-.53.4-.83"/>
      <path class="f" d="m149.69,109.04l.36-.81c-.38-.67-.77-1.34-1.28-1.88-.52-.54-1.19-.93-1.9-.93-.28.53-.19,1.22.09,1.74.28.52.71.9,1.14,1.26.26.22.53.46.85.54.32.08.71-.03.88-.35"/>
    </g>
    <g>
      <path class="i" d="m287.69,226.67s-19.52,24.66-40.75,84.61c0,0-4.35,48.99-8.62,74.45l-8.3-.91s4.67-116.75,53.93-160.68l3.74,2.53Z"/>
      <path class="i" d="m268.82,237.28s-28.4-40.2,25.55-66.65c6.63-3.25,13.02-7.06,19.18-11.3,7.88-5.43,22.76-12.78,47.48-15.08,10.09-.94,20.37.06,30.53,2.62,6.47,1.63,16.5,2.61,29.55-.83,0,0,9.8-2.36,19.77,3.5,0,0,18.27,6.61,34.17,7.19,0,0,5.88.1,11.52,9.48,0,0-10-12.05-22.15-4.99,0,0-9.67,8.94-10.91,22.04,0,0-11.66,25.94-32.56,24.78,0,0-6.92-2.05-15.89,8.37,0,0-8.17,20.97-20.62,19.01,0,0-14.38,2.64-20.68,11.59,0,0-38.2,8.38-67.96-.15l-26.97-9.57Z"/>
      <path class="f" d="m328.45,179.95c-.09-5.28,3.14-10.02,7.43-10.88-.54.85-1.08,1.77-1.15,2.87-.06,1.1.53,2.41,1.47,2.62,1.62.36,2.06-2.28,2.52-4.09.48-1.89,1.8-3.51,3.48-3.58,1.69-.07,3.52,1.87,3.3,3.86-.22,1.01-.44,2.01-.66,3.02,1.58-2.89,3.17-5.77,4.75-8.66.86-1.56,1.84-3.23,3.39-3.68,1.55-.45,3.67,1.21,3.35,3.08-.23,1.33-1.51,2.02-1.76,3.34-.1.55,0,1.18.27,1.69.79,1.46,2.69,1.42,3.67.35.99-1.07,1.64-2.84,2.42-4.14,1.34-2.23,1.44-5.29,2.48-7.76s3.99-4.17,5.78-2.06c-1.4,1.24-1.63,3.98-.49,5.8,1.14,1.82,3.45,2.42,4.91,1.28-1.39-3.33-1.08-7.42.77-10.04.69,4.03,2.65,7.87,5.38,10.57,1.18-.94-.43-3.18-.53-4.95-.1-1.67,1.41-2.83,2.81-2.59s2.62,1.45,3.58,2.77c.41-2.06,2.5-3.24,4.23-2.38-1.24,1.96-.95,5.16.63,7.06,1.59,1.9,4.27,2.26,5.91.78.24-.21.46-.47.55-.81.45-1.63-1.96-2.48-2.69-4.1-.8-1.77,1.17-3.64,2.7-2.82,1.53.81,2.22,3.11,2.06,5.02-.07.89-.28,1.81-.01,2.68.63,2.05,3.26,2.02,4.42.54,1.16-1.48,1.45-3.68,2.25-5.47.81-1.8,2.7-3.25,4.27-2.09.67.5,1.1,1.35,1.65,2.05,2.83,3.61,7.72,2.42,11.18.51,4,2.64,8.61.5,12.43-1.71s8.33-4.48,12.41-2.04c-4.43,1.91-7.85,6.44-9.02,11.93-.25,1.17-.42,2.43-1.08,3.3-1.52,2.02-4.61.92-6.56,2.34-.47,2.47,3.81,3.96,3.37,6.45-.16.91-.93,1.39-1.65,1.73-2.15,1.02-4.97,2.58-7.27,1.53-.48-.22-.52.81-.15,1.24.37.43.93.9.8,1.45-.06.24-.24.39-.41.52-4.2,3.23-10.02,3.91-15.05,1.69-1.34-.59-2.72-1.19-4.09-1.1-1.37.1-2.73,1.09-2.95,2.7.4.48.68,1.11.76,1.76-1.65.38-3.3.76-4.96,1.15-.44.1-.93.25-1.12.72-.31.76.37,1.67,1.02,2.15s1.45,1.04,1.52,1.92c-4.72,1.74-10.08-1.9-15.13-1.74-.76.02-1.55.15-2.13.69-.58.54-.86,1.59-.44,2.41.42.83,1.32,1.07,2.08,1.4.76.34,1.6,1.18,1.38,2.06-3.07.4-6.2.4-9.33.02,3.35,2.84,5.33,6.48,7.91,10.31-.33,2.2-3.22,1.25-4.71-.34-1.49-1.58-3.8-3.43-4.99-1.79-1.03,1.42.21,3.73,1.39,5.23-3.64-.06-7.33-1.15-10.71-3.14-.19,2.04-.38,4.08-.56,6.13.86.85,1.72,1.71,2.58,2.56-.49,1.99-2.72,2.41-4.47,1.81s-3.38-1.89-5.17-2.19-3.87,1.06-3.58,3.19c.17,1.23,1.05,2.19,1.9,2.97,3.11,2.82,6.75,4.76,10.48,5.58-1.14,2.54-4.31,2.71-6.63,1.3-2.32-1.41-4.04-3.92-5.91-6.12-1.8-2.13-4.22-4.17-6.51-3.5s-2.68,5.61-.27,6.19c-3.08.23-6.16.47-9.25.7-.57.04-1.18.08-1.7-.28-.79-.54-1.06-1.72-1.51-2.67-1.12-2.4-3.91-3.51-5.78-2.3s-2.45,4.49-1.2,6.8c-6.12-3.33-13.02-4.13-19.17-2.23-1.49.46-2.94,1.07-4.38,1.69-1.08.46-1.82,1.55-2.83,2.17l2.69,4.96c-3.32,2.56-8.11,2.34-11.68-.52-1.02-.82-1.94-1.83-3.03-2.47-2.93-1.74-6.52-.6-9.29-2.71-3.16-2.41-3.56-7.56-3.58-11.85,0-2.03-.02-4.06-.02-6.09.76-1.39,2.26-2.1,3.7-1.77,1.91,1.01,1.12,5.31,3.07,6.15,1.09.47,2.12-.75,2.28-2.06.16-1.31-.25-2.68-.43-4.03-.6-4.5,1.67-9,5.17-10.28,1.73.97,2.11,3.65,2.53,5.84.42,2.19,1.83,4.86,3.61,4.41,1.27-.32,1.76-2.12,1.75-3.69s-.29-3.26.2-4.67c.5-1.41,2.3-2.14,3.15-.85.46.7.45,1.67.88,2.38.88,1.45,2.8.76,3.6-.58.8-1.34,1.1-3.13,2.15-4.19,1.05-1.06,3.33-.45,3.29,1.26-1.33,1.48-1.74,4.03-1,6.2,3.81-.51,6.16-4.92,7.03-9.33.87-4.41.74-9.18,1.94-13.44.36-1.26,1.21-2.66,2.32-2.2.51.21.87.78,1.2,1.3,1.1,1.78,2.2,3.55,3.3,5.33.49-4.31,1.55-7.09,1.47-11.5Z"/>
      <path class="f" d="m328.04,191.99c.28-1.83.31-3.87,1.31-5.25.15-.21.33-.41.37-.69.08-.52-.38-.99-.81-1.04-.82-.1-1.5.73-1.82,1.64s-.39,1.93-.7,2.84c-.45,1.32-1.34,2.3-1.99,3.48-.77,1.39-1.24,4.82.96,4.71,1.67-.09,2.46-4.24,2.69-5.7Z"/>
      <path class="f" d="m372.02,224.5c-.07.72.51,1.4,1.12,1.59.6.19,1.21,0,1.79-.17.75-.23,1.49-.46,2.24-.69.78-.24,1.66-.61,1.85-1.54.14-.72-.22-1.53-.74-2.04-.51-.5-1.15-.77-1.76-1.02-1.58-.65-3.17-1.3-4.75-1.94-1.23,1.64.8,4.72-.09,6.66"/>
      <path class="f" d="m334.66,181.09c.74.39,1.47.78,2.21,1.16.35.18.73.37,1.08.25.54-.19.75-.97.87-1.65.16-.89.32-1.82.11-2.71-.21-.89-.93-1.69-1.66-1.53-.36.08-.66.37-.92.67-.84.98-1.46,2.24-1.77,3.62"/>
      <path class="f" d="m413.31,193.27c1.11-.04,2.23-.26,3.33.07,1.1.33,2.22,1.41,2.27,2.75-1.65.34-3.29.69-4.94,1.03-.84.17-1.68.35-2.54.31-1.09-.05-2.16-.43-3.23-.81-1.29-.46-2.79-1.14-3.26-2.66,1.41-.27,3.83,1.39,3.38-1.61,1.67.53,3.29.99,4.99.92Z"/>
      <path class="i" d="m425.88,166.77s-141.11,60.93-157.06,70.51l4.82,1.71s141.1-63.75,152.24-72.22Z"/>
    </g>
    <g>
      <path class="i" d="m191.52,224.43s15.87,18.33,39.29,74.67c0,0,21.33,63.26,20.98,87.1l7.69.55s-24.44-124.13-64.15-164l-3.82,1.68Z"/>
      <path class="i" d="m198.48,227.36s27.27-32.41-17.06-59c-5.45-3.27-10.65-7-15.63-11.09-6.36-5.22-18.59-12.61-39.62-16.38-8.58-1.54-17.47-1.43-26.36.03-5.67.93-14.34,1.04-25.28-2.86,0,0-8.23-2.73-17.2,1.56,0,0-16.14,4.34-29.82,3.68,0,0-5.05-.34-10.57,7.29,0,0,9.45-9.6,19.36-2.67,0,0,7.65,8.37,7.75,19.69,0,0,8.12,23.09,26.12,23.61,0,0,6.08-1.26,13.02,8.33,0,0,5.48,18.57,16.3,17.8,0,0,12.14,3.31,16.89,11.44,0,0,32.14,9.96,58.28,4.81l23.82-6.24Z"/>
      <path class="f" d="m151.52,173.87c.46-4.52-1.97-8.82-5.58-9.87.41.76.8,1.59.78,2.55-.02.95-.63,2.03-1.45,2.14-1.42.19-1.6-2.11-1.86-3.69-.27-1.65-1.29-3.14-2.73-3.32s-3.15,1.35-3.11,3.07c.12.88.23,1.76.35,2.64-1.15-2.59-2.29-5.18-3.44-7.77-.62-1.4-1.34-2.9-2.64-3.4-1.3-.49-3.24.77-3.1,2.4.1,1.16,1.15,1.84,1.27,2.99.05.48-.08,1.01-.35,1.43-.78,1.2-2.41,1.02-3.18.03-.77-.99-1.2-2.55-1.77-3.72-.99-2.01-.85-4.64-1.56-6.83-.71-2.19-3.12-3.87-4.81-2.19,1.11,1.17,1.11,3.53,0,5.01-1.11,1.48-3.13,1.83-4.3.74,1.44-2.75,1.46-6.29.07-8.67-.89,3.41-2.84,6.56-5.38,8.67-.94-.89.6-2.69.82-4.2.2-1.43-1.01-2.53-2.22-2.42-1.22.1-2.35,1.06-3.27,2.11-.21-1.8-1.91-2.96-3.45-2.35.92,1.77.44,4.49-1.06,6.01s-3.82,1.63-5.12.24c-.19-.2-.36-.43-.41-.73-.27-1.43,1.86-1.98,2.6-3.32.81-1.46-.74-3.2-2.11-2.62-1.37.59-2.13,2.5-2.13,4.15,0,.77.11,1.57-.19,2.3-.69,1.71-2.94,1.49-3.83.14-.89-1.35-.97-3.26-1.53-4.86-.56-1.6-2.08-2.98-3.51-2.1-.61.38-1.04,1.08-1.56,1.64-2.69,2.89-6.79,1.52-9.62-.38-3.62,1.97-7.42-.2-10.53-2.37-3.11-2.17-6.82-4.45-10.49-2.65,3.66,1.96,6.26,6.09,6.87,10.88.13,1.02.19,2.11.69,2.91,1.16,1.85,3.88,1.12,5.45,2.48.23,2.15-3.55,3.12-3.35,5.28.07.79.7,1.26,1.29,1.6,1.77,1.03,4.07,2.57,6.12,1.84.42-.15.39.73.04,1.08-.35.35-.87.7-.79,1.19.03.21.17.35.31.48,3.37,3.07,8.3,4.08,12.78,2.54,1.19-.41,2.42-.82,3.59-.64,1.17.18,2.27,1.13,2.33,2.53-.38.38-.66.9-.78,1.45,1.39.45,2.78.9,4.17,1.34.37.12.78.28.91.7.21.67-.44,1.4-1.03,1.77-.59.37-1.31.78-1.44,1.53,3.92,1.84,8.78-.9,13.1-.39.65.08,1.32.24,1.77.75.46.5.62,1.43.21,2.1-.42.68-1.21.82-1.88,1.05-.67.23-1.45.9-1.34,1.66,2.6.56,5.29.79,8,.69-3.08,2.2-5.04,5.17-7.53,8.26.12,1.91,2.67,1.3,4.06.05s3.51-2.67,4.41-1.18c.78,1.29-.45,3.18-1.57,4.39,3.12.21,6.37-.45,9.41-1.91.01,1.76.03,3.53.04,5.29-.8.67-1.6,1.34-2.4,2.01.28,1.74,2.16,2.27,3.7,1.87s3.04-1.38,4.59-1.5c1.55-.13,3.24,1.19,2.83,2.99-.23,1.04-1.06,1.8-1.85,2.41-2.87,2.19-6.13,3.59-9.39,4.02.79,2.26,3.5,2.64,5.59,1.6,2.09-1.04,3.75-3.07,5.51-4.82,1.7-1.69,3.92-3.27,5.84-2.53,1.92.74,1.89,5.01-.22,5.33,2.63.43,5.25.85,7.88,1.28.49.08,1.01.15,1.48-.11.72-.4,1.04-1.4,1.49-2.18,1.13-1.97,3.61-2.72,5.12-1.55,1.52,1.17,1.77,4.03.53,5.92,5.49-2.41,11.47-2.6,16.6-.52,1.25.5,2.44,1.13,3.63,1.76.89.47,1.45,1.46,2.27,2.07-.89,1.35-1.78,2.7-2.67,4.06,2.66,2.43,6.79,2.6,10.05.4.93-.63,1.8-1.42,2.78-1.9,2.64-1.28,5.63-.04,8.16-1.65,2.88-1.83,3.6-6.22,3.93-9.9.15-1.74.31-3.48.46-5.22-.55-1.24-1.78-1.97-3.04-1.79-1.71.73-1.35,4.47-3.08,5.05-.97.33-1.76-.8-1.8-1.93-.04-1.14.41-2.28.66-3.42.84-3.81-.78-7.84-3.69-9.19-1.56.71-2.07,2.97-2.59,4.82-.52,1.85-1.93,4.03-3.41,3.52-1.06-.37-1.35-1.94-1.23-3.29s.49-2.77.16-4.02c-.33-1.24-1.81-2.01-2.64-.95-.44.56-.5,1.4-.93,1.98-.86,1.18-2.45.45-3.04-.76-.59-1.2-.72-2.76-1.54-3.75s-2.82-.63-2.91.84c1.03,1.37,1.2,3.58.41,5.39-3.23-.71-4.93-4.66-5.35-8.51-.42-3.85.03-7.93-.69-11.67-.21-1.1-.85-2.37-1.83-2.05-.45.15-.81.6-1.13,1.03-1.07,1.44-2.14,2.88-3.21,4.33-.11-3.73-.81-6.19-.43-9.97Z"/>
      <path class="f" d="m161.71,184.29c.15-1.58.54-3.29,0-4.65-.08-.2-.19-.41-.17-.65.04-.45.52-.75.9-.7.7.08,1.1.92,1.18,1.75.08.82-.07,1.69,0,2.51.1,1.19.64,2.2.95,3.32.36,1.32.04,4.28-1.77,3.74-1.37-.42-1.18-4.05-1.07-5.31Z"/>
      <path class="f" d="m110.92,208.91c0,.62-.54,1.17-1.07,1.28-.53.12-1.04-.08-1.52-.28-.62-.25-1.25-.5-1.87-.76-.65-.26-1.38-.64-1.47-1.46-.07-.63.3-1.3.78-1.69s1.04-.58,1.59-.75c1.41-.44,2.81-.88,4.22-1.32.94,1.5-1.03,3.99-.41,5.72"/>
      <path class="f" d="m158.43,173.82c-.69.17-1.39.34-2.08.52-.33.08-.68.16-.96-.02-.42-.27-.42-.97-.39-1.55.05-.78.11-1.59.47-2.29s1.12-1.22,1.7-.93c.28.14.47.44.63.75.5.99.76,2.17.73,3.39"/>
      <path class="f" d="m77.79,179.13c-.95-.12-1.89-.38-2.86-.18s-2.01,1.05-2.15,2.19c1.39.41,2.77.83,4.16,1.24.7.21,1.41.42,2.16.45.93.04,1.89-.21,2.83-.46,1.14-.3,2.47-.77,2.99-2.04-1.19-.33-3.39.91-2.78-1.63-1.47.33-2.89.61-4.35.43Z"/>
      <path class="i" d="m68.94,155.5s116.57,62.49,129.54,71.86l-4.25,1.11s-116.35-64.91-125.29-72.98Z"/>
    </g>
    <g>
      <path class="h" d="m235.04,238.99c-3.42,3.54-8.1,5.61-13.02,5.68-6.18.09-14.35-.47-18.43-3.6-7.09-5.42-15.13-6.86-15.13-6.86,0,0-10.48-1.24-12.07-8.19-1.59-6.95-7.08-9.53-10.84-10.46-3.75-.93-7.84-7.2-9.19-12.19-1.34-4.99-6.44-10.9-10.19-11.83-3.75-.93-14.74-6.09-14.74-6.09,0,0,17.01-17.31,35.65-15.59s12.42-11.09,41.22-9.62c0,0,13.14-.86,23.39,10.49,0,0,.75,5.88,5.78,10.34,5.03,4.46,6.29,6.05,6.43,8.97.14,2.91,4.51,6.81,6.72,8.52s3.18,5.79,2.85,8.59c-.33,2.81,5.1,5.87,3.87,8.14-1.23,2.27-5.44,21.57-22.09,23.47l-.21.22Z"/>
      <path class="f" d="m225.72,234.88c-.29.89-1.69.79-2.33.1-.64-.68-.88-1.66-1.46-2.41-1.78-2.28-5.31-1.17-8.17-.75-2.34.34-4.77.04-6.95-.87.62-1.92,4.18-1.52,4.64-3.48.4-1.71-1.96-2.58-3.71-2.69-6.34-.41-12.68-.82-19.02-1.22-.25-1.74,1.47-3.27,3.22-3.49s3.46.5,5.08,1.19c.51-.37.48-1.2.1-1.7s-1-.77-1.59-.98c-2.24-.81-4.58-1.32-6.95-1.51.56-1.03,1.5-1.85,2.6-2.26.08-1.07-1.27-1.69-2.33-1.55-1.06.14-2.04.72-3.11.73-.58,0-1.16-.16-1.65-.48-1.23-.8-1.72-2.42-1.56-3.88.16-1.46.84-2.8,1.51-4.11-3.52-.3-7.04-.6-10.55-.9-.91-.08-1.85-.16-2.64-.61s-1.4-1.37-1.19-2.25c.52-2.2,4.28-1.19,5.77-2.88-3.48-1.76-6.96-3.52-10.44-5.28,2.03-1.36,3.61-3.38,4.44-5.67-1.25-1.16-3.05-1.7-4.73-1.43-.39-1.87-.26-3.84.37-5.64-4.26-.64-8.65-.4-12.81.71-1.05-.61-1.89-.82-2.57-1.82.75-.4,1.51-.8,2.26-1.2.25-.13.51-.28.62-.54.24-.6-.53-1.08-1.14-1.28-1.75-.56-3.51-1.12-5.26-1.68,6.76-2.69,14.07-5.31,21.22-3.98,2.39.44,4.74,1.3,7.17,1.24,4.6-.11,8.53-3.4,13.04-4.32.44-.09.91-.16,1.34-.02,1.13.36,1.39,1.83,2.18,2.72,1.17,1.32,3.34,1.12,4.88.26,1.54-.86,2.75-2.22,4.27-3.1s3.68-1.15,4.9.12c.19.2.35.43.38.7.13,1.18-1.9,1.21-2.53,2.22-.4.64-.07,1.54.54,1.99.61.45,1.4.55,2.15.57,2.63.08,5.27-.61,7.53-1.95,1.4.82,2.24,2.49,2.06,4.1s-1.38,3.05-2.92,3.54c1.32,2.3,4.57,3.23,6.9,1.97,1.05,2.68,1.87,6.28-.45,7.98-.35.26-.75.45-1.04.77-.94,1.06.1,2.93,1.5,3.11,1.4.18,2.71-.85,3.42-2.08.71-1.22.99-2.64,1.48-3.97.49-1.33,1.3-2.65,2.61-3.18,1.81,1.74,1.63,4.79.42,6.98-1.21,2.2-3.22,3.82-4.93,5.66-.69.74-1.36,1.58-1.45,2.59-.15,1.77,1.75,3.22,3.52,3.1,1.77-.13,3.27-1.4,4.27-2.88.28-.41.54-.85.98-1.08,1.24-.66,2.56.94,2.67,2.34.16,2.03-.94,4.11-2.71,5.13-.66.38-1.39.62-1.99,1.09-1.35,1.06-1.61,3.26-.53,4.6,1.08,1.34,3.28,1.57,4.61.47.78-.64,1.22-1.61,1.86-2.38.65-.78,1.73-1.39,2.65-.97.89.4,1.15,1.6.85,2.52-.31.92-1.03,1.63-1.72,2.32-1.75,1.76-3.52,3.92-3.32,6.39,1.65.68,3.4,1.14,5.18,1.35-.99.57-1.47,1.89-1.08,2.96.39,1.07,1.62,1.76,2.74,1.55.57,2.49-1.66,4.72-3.87,6.01-2.23,1.3-4.67,2.24-7.19,2.77-1.15.24-2.62.75-2.59,1.93-.43-.39,1-.91.57-1.3Z"/>
      <path class="h" d="m183.26,177.1s55.55,48.38,78.06,208.01l5.06-.88s-13.1-154.25-83.12-207.13Z"/>
    </g>
    <g>
      <path class="h" d="m256.65,250.94s-18.17,24.06-8.86,132.88l-4.06,1.47s-11.86-99.11,8.98-134.34h3.94Z"/>
      <path class="i" d="m292.1,193.48s-23.32,41.12-24.3,52.38c0,0-10.06,20.38-27.31,18.43,0,0-.14-12.27,1.25-20.41,0,0,26.8-44.29,50.37-50.4Z"/>
      <path class="c" d="m257.11,259.18c-.78.64-1.88-.68-2.88-.78-1-.11-2.05-.25-2.84-.87-.79-.62-1.17-1.89-.52-2.66.35-.42.91-.6,1.37-.9.45-.31.82-.92.54-1.39-.11-.18-.29-.3-.48-.39-.73-.35-1.59-.37-2.29-.76-.84-.47-1.34-1.5-1.19-2.45.15-.96.94-1.78,1.88-1.96,1.12-.22,2.28-.71,3.12-1.49.84-.78,1.12-2.27.28-3.04,2.93-1.21,5.33-3.63,6.54-6.56.55-1.33.87-2.79,1.76-3.92.8-1.03,1.97-1.68,2.95-2.55,2.98-2.64,3.81-6.88,4.68-10.77.56-2.49,1.37-5.19,3.51-6.55.54-.34,1.15-.58,1.67-.97,1.34-1,1.81-2.77,2.55-4.28,1.85-3.77,5.95-6.3,10.13-6.25,0,0-20.27,35.2-20.08,45.23,0,0-5.65,9.21-10.69,13.32Z"/>
      <path class="h" d="m241.74,243.87s-11.24-44.63,16.62-87.68c0,0,27.04-36.45,51.15-40.03,0,0,9.62-.24,15.74-16.5,0,0,2.99-7.01,10.1-9.97,0,0,3.18-3.67,6.5-9.97,0,0,2.71-1.39,8.33-.85,0,0,5.31-6.13,6.83-12.98,1.52-6.86,13.24-19.22,41.83-4.28,0,0,5.47-.93,9.82-5.47,0,0,6.82-2.19,11.93.64,0,0,10.21,1.93,17.58,1.55,0,0,11.23,1.08,14.91,4.43,0,0-20.37,14.74-24.19,26.29,0,0-3.99,9.9-9.71,13.83,0,0-10.05,10.52-18.77,23.13,0,0-7.14,6.34-12.37,14.96,0,0-9.51,7.66-15.8,11.37,0,0-24.5,18.7-57.51,29.52,0,0-15.36,7.19-29.24,15.35-10.06,5.92-17.4,15.72-19.81,27.18-.09.41-.17.82-.24,1.22,0,0-2.46,12.16-23.72,18.24Z"/>
      <path class="f" d="m303.81,181.32c6.22-5.02,13.52-8.67,21.26-10.64-1.65-2.17-4.88-2.09-7.58-1.79-.69-2.12,1.93-3.81,4.13-4.1,2.2-.29,4.83-.27,6.07-2.11-1.72-.26-3.35-1.11-4.56-2.37,5.74-1.49,11.48-2.98,17.22-4.47-1.62-.91-3.24-1.82-4.86-2.74,2.21-1.28,4.86-1.81,7.39-1.47,1.23.17,2.45.53,3.69.46,1.24-.07,2.57-.73,2.93-1.92.37-1.19-.83-2.7-1.99-2.25,2.1-1.56,4.78-2.3,7.38-2.06-.75-1.15-1.97-1.98-3.32-2.26,2.73-2.41,6.33-3.82,9.97-3.92-1.55-1.05-3.09-2.1-4.64-3.15,2.94-.71,5.89-1.41,8.83-2.12-2.32-.64-4.25-2.52-4.97-4.82l7.89.76c.48.05,1.01.08,1.39-.22.8-.63.13-1.96-.72-2.53-.85-.57-1.96-1.04-2.16-2.05-.36-1.88,2.58-2.35,4.35-1.64,1.77.71,4.8,1.2,5.59-.54-.31-2.05-2.22-3.57-4.23-4.07-2.01-.5-4.12-.2-6.16.11,1.17-3.61,6.19-5.26,9.27-3.05,5.02-.75,10.69-1.72,15.72-2.47,1.74-.26,3.94-1.01,3.95-2.78,0-1.08-.93-1.97-1.96-2.28-1.03-.31-2.13-.16-3.19,0-.93-1.14.96-2.48,2.42-2.67,3.75-.48,7.79-.32,10.99-2.34,1.14-.72,2.17-2.27,1.31-3.31-.46-.55-1.24-.65-1.95-.71-5.01-.41-10.04-.44-15.05-.09,4.42-4.73,13.21-2.83,17.41-7.77-1.65-.25-3.3-.51-4.96-.76-1.12-1.1.87-3.3,2.35-3.81,2.71-.94,5.42-1.89,8.13-2.83,3.34-5.4,8.5-9.65,14.44-11.88-6.07,1.67-12.13,3.35-18.2,5.02-1.62.45-3.29.92-4.58,1.99-1.49,1.23-3.24,3.33-4.83,2.24.56-2.13,1.27-4.22,2.14-6.24-1.15-1.4-3.46-.16-4.39,1.39s-1.6,3.56-3.31,4.12c.52-1.69.77-3.46.73-5.22-1.56-.06-2.57,1.56-3.38,2.89-.81,1.34-2.28,2.76-3.7,2.13-.34-2.85,1.13-5.84,3.59-7.3-1.67-1.21-4.13.01-5.21,1.77-1.08,1.76-1.3,3.91-2.08,5.83-1.63,4.06-5.93,6.88-10.29,6.77,1.48-3.47,2.3-7.08,3.78-10.55-3.37,1.39-6.51,3.33-9.27,5.72.35-2.92,3.03-4.9,5.31-6.75,2.28-1.85,4.57-4.57,3.79-7.41-2.65-1.52-5.97.47-7.95,2.8-1.98,2.33-3.67,5.23-6.56,6.23-.8.27-1.67.39-2.35.89-.88.64-1.23,1.76-1.54,2.8-.61,2.06-1.21,4.12-1.82,6.18-.33,1.14-.74,2.37-1.75,2.99-1.7,1.05-4.23-1-3.56-2.89-1.59.39-2.68,1.94-3.01,3.55-.33,1.6-.06,3.27.22,4.88.12.7.24,1.46-.08,2.1-.53,1.08-2.1,1.25-3.15.67-1.05-.58-1.71-1.67-2.31-2.71-1.08.86-1.58,2.24-1.92,3.58s-.57,2.74-1.3,3.91c-.73,1.17-2.13,2.06-3.46,1.69-1.33-.37-1.98-2.41-.86-3.21-1.55-1.04-3.48.87-3.9,2.68-.42,1.82-.33,3.95-1.69,5.22-1.44-.64-2.47-2.4-2.01-3.91s1.62-2.68,2.73-3.79c3.69-3.69,7.37-7.38,11.06-11.08-7.71,2.35-13.91,9.12-15.59,17.03-.68,3.2-.9,6.95-3.52,8.9-.51-2.17-3.94-1.82-5.36-.1-1.41,1.72-1.86,4.12-3.43,5.7-.54-.9-1.08-1.8-1.63-2.7-3.6,1.2-3,6.88-5.85,9.38-.29.25-.62.47-1,.51-1.36.13-1.74-1.97-1.03-3.14s1.97-2.09,2.13-3.45c-2.93-.51-5.13,2.79-5.57,5.74-.44,2.95-.02,6.17-1.53,8.74-.98.35-2.05.58-3.03.93-.41-2.65-.32-5.38.26-8-2.82.2-3.93,3.81-3.85,6.65s.41,6.18-1.75,8.02c-1.54-1.12-1.98-3.49-.96-5.1-1.64-1.16-3.58,1.22-3.73,3.23-.15,2,.13,4.44-1.51,5.59-.56-2.19-.86-4.45-.89-6.72-2.42,3.95-3.91,8.46-4.33,13.08-1.98-1.22-2.71-4.12-1.54-6.13-2.86.45-5.06,3.44-4.67,6.31.13.96.51,1.89.56,2.86.04.97-.39,2.08-1.31,2.36s-2.03-.9-1.43-1.66c-1.77-.12-2.18,2.45-1.88,4.2.31,1.75.07,4.3-1.7,4.35-.45-.91-1.14-1.7-1.97-2.27-2.17,2.95-2.92,6.9-1.98,10.44.38,1.45,1.03,2.99.51,4.4-.52,1.41-3.01,1.85-3.32.38-1-.73-1.76-.06-2.1,1.14-.72,2.52.83,5.06,1.39,7.62.13.6.2,1.26-.05,1.82-.25.57-.92.98-1.49.76-.5-.2-.74-.77-1.16-1.11-1.18-.98-3.01.42-3.27,1.94-.26,1.52.33,3.06.26,4.6-.04.78-.3,1.62-.97,2.02s-1.75.01-1.77-.77c-1.1.76-2.22,1.55-2.99,2.65-.76,1.1-1.1,2.6-.51,3.8.77,1.55,2.91,2.37,2.98,4.1.04,1.04-.44,1.42-1.47,1.45s-2.26-.07-2.9.75c-.62.8-.27,1.95.11,2.89,1.03-.01,2.11,0,3,.51.89.52,1.46,1.74.91,2.61-.5.8-1.59.91-2.49,1.2s-1.81,1.29-1.28,2.08c.27.41.81.52,1.29.6,1.62.27,3.25.54,4.87.81,1.45.24,3.3.95,3.2,2.42-.12,1.78-2.74,1.88-4.1,3.04-1.11.94-1.29,2.62-1.03,4.05.26,1.44.88,2.8,1.06,4.25,1.87-.68,3.9-1.65,5.38-2.99.94-.85,1.76-1.81,2.67-2.69,2.37-2.3,5.46-4.31,6.16-7.54,2.16-9.96,8.98-18.71,17.24-24.63,2.23-1.6,4.61-2.93,7.02-4.24,5.8-3.14,9.14-8.85,14.28-12.99Z"/>
      <path class="h" d="m394.26,87.58s-73.81,35.97-102.16,105.89l-6.6,3.76s25.46-70.42,108.76-109.65Z"/>
      <path class="f" d="m378.04,66.43c.47-.42,1.1-.59,1.71-.72,2.83-.63,5.73-.9,8.63-.81.26.36.1.89-.22,1.2s-.77.43-1.19.55c-2.19.61-4.53,1.57-6.77,1.9-1.18.17-4.07-.38-2.16-2.11Z"/>
      <path class="f" d="m406.02,96.85c.11-.25.35-.43.58-.58,1.9-1.31,4-2.3,6.21-2.93,1.74-.49,3.61-.76,5.33-.22-.64,1.37-2.21,1.98-3.63,2.47-1.79.61-3.59,1.19-5.36,1.86-.52.19-4.18,1.55-3.13-.59Z"/>
      <path class="f" d="m376.3,129.68c.41-.21.89-.43,1.33-.27.67.25.73,1.16.68,1.87-2.03.76-5.69,3.06-7.88,1.97.53-1.56,4.38-2.86,5.87-3.58Z"/>
      <path class="f" d="m269.58,149.44c.11-.16.24-.33.43-.34.1,0,.2.04.28.09.63.37.92,1.16.9,1.89-.03.73-.32,1.43-.62,2.1-.48,1.09-3.1,8.26-4.29,4.54-.71-2.21,2.13-6.54,3.3-8.28Z"/>
      <path class="f" d="m339.63,158.06c.63-.14,1.27-.28,1.92-.26.76.02,1.63.37,1.82,1.11.16.61-.22,1.25-.74,1.59-.52.35-1.15.46-1.77.57-1.37.24-7.89,2.16-8.04.48-.2-2.16,5.41-3.19,6.81-3.5Z"/>
      <path class="f" d="m258.61,177.22c-.79-.88-1.05-2.22-.64-3.33.18-.5.64-1.02,1.16-.89.16.04.3.14.42.25,1.01.87,1.34,2.43.77,3.64-.1.2-.22.4-.42.52-.35.2-.81.06-1.09-.23-.28-.29-.43-.68-.56-1.06"/>
      <path class="f" d="m343.17,88.63c-.17-.34-.34-.69-.51-1.03.56-.86,1.13-1.74,1.88-2.44.75-.7,1.73-1.22,2.75-1.22.4.67.26,1.57-.15,2.24-.41.67-1.04,1.16-1.66,1.64-.38.29-.77.59-1.24.71-.47.11-1.03-.02-1.27-.44"/>
    </g>
    <g>
      <path class="i" d="m185.77,270.46s42.63,7.27,51.18,13.09c0,0,20.26,4.67,28.86-8.69,0,0-8.61-7.2-15.19-10.93,0,0-46.89-6.64-64.85,6.53Z"/>
      <path class="c" d="m252.57,283.67c.9-.18.61-1.72,1.11-2.49s1.01-1.6,1.03-2.52-.66-1.92-1.58-1.91c-.5,0-.95.3-1.43.44s-1.13.05-1.3-.42c-.06-.18-.04-.38,0-.57.17-.72.66-1.34.79-2.07.15-.87-.28-1.81-1.05-2.26-.76-.45-1.8-.36-2.48.2-.8.67-1.82,1.2-2.86,1.35-1.03.14-2.26-.51-2.31-1.56-2.55,1.37-5.66,1.68-8.44.84-1.26-.38-2.48-.99-3.8-1.02-1.19-.03-2.34.43-3.51.62-3.59.58-7.08-1.28-10.34-2.92-2.08-1.04-4.47-2.03-6.67-1.3-.56.19-1.08.48-1.65.62-1.49.37-3.01-.32-4.5-.67-3.74-.87-7.9.57-10.29,3.56,0,0,36.67,6.01,43.67,11.95,0,0,9.79,1.32,15.62.13Z"/>
      <path class="h" d="m250.62,263.93s-25.12-33.79-71.74-38.96c0,0-41.48-1.93-57.96,13.08,0,0-5.73,6.67-20.8,1.61,0,0-6.69-1.93-12.91,1.39,0,0-4.44.13-10.83-1.16,0,0-2.56,1.12-5.42,5.41,0,0-7.41.22-13.15-2.67s-21.28-1.74-27.23,27.16c0,0-3.82,3.33-9.56,3.79,0,0-5.5,3.57-6.45,8.82,0,0-4.54,8.35-9.08,13.36,0,0-5.73,8.59-5.49,13.13,0,0,22.23-5.9,32.63-1.93,0,0,9.32,2.9,15.42,1.13,0,0,13.27-1.03,27.25.09,0,0,8.62-1.39,17.76-.11,0,0,10.93-2.3,17.2-4.62,0,0,27.43-6.54,54.19-23.67,0,0,13.98-6.72,27.8-11.83,10.02-3.71,21.2-3.23,30.72,1.69.34.18.68.36,1,.54,0,0,10.04,5.29,26.65-6.25Z"/>
      <path class="f" d="m170.38,271.72c-7.15,1.51-13.97,4.56-19.84,8.91-.58-2.43,1.34-4.66,3.12-6.41-1.1-1.71-3.81-.83-5.29.56-1.48,1.39-2.99,3.27-5.01,3.08.81-1.37,1.15-3.02.96-4.61-4.38,3.2-8.75,6.41-13.13,9.61.29-1.68.58-3.35.87-5.03-2.19.83-4.09,2.4-5.32,4.39-.6.97-1.04,2.05-1.81,2.88-.77.84-2,1.4-3.06.97-1.06-.43-1.43-2.15-.44-2.71-2.32.59-4.4,2.05-5.73,4.03-.38-1.2-.26-2.55.32-3.66-3.29.54-6.37,2.27-8.54,4.79.15-1.7.3-3.41.45-5.11-2.2,1.68-4.41,3.35-6.61,5.03.89-2.01.68-4.47-.54-6.31l-4.03,6.03c-.24.37-.53.76-.96.86-.91.2-1.47-1.04-1.38-1.97s.4-1.99-.2-2.72c-1.12-1.34-3.16.47-3.68,2.13-.52,1.66-1.93,4.1-3.62,3.65-1.27-1.41-1.24-3.64-.44-5.35s2.24-3.03,3.64-4.3c-3.24-1.26-7.31,1.34-7.53,4.8-3.44,3.12-7.41,6.58-10.85,9.7-1.19,1.08-3,2.2-4.26,1.19-.77-.62-.86-1.8-.48-2.71.38-.91,1.12-1.6,1.84-2.26-.27-1.32-2.31-.76-3.29.17-2.51,2.38-4.73,5.33-8.02,6.43-1.17.39-2.87.22-3.11-.99-.12-.64.26-1.26.63-1.79,2.61-3.78,5.5-7.37,8.65-10.72-5.91.39-9.65,7.72-15.58,7.84.78-1.32,1.55-2.64,2.33-3.95-.14-1.43-2.84-1.29-4.06-.54-2.24,1.37-4.47,2.75-6.71,4.12-5.76-.76-11.76.44-16.77,3.36,4.7-3.33,9.39-6.66,14.09-9.99,1.25-.89,2.55-1.8,4.06-2.09,1.73-.34,4.23-.36,4.38-2.13-1.83-.84-3.73-1.54-5.66-2.1-.33-1.62,1.89-2.55,3.53-2.31,1.64.24,3.44.93,4.83.04-1.5-.6-2.9-1.45-4.13-2.5.86-1.14,2.59-.92,4.01-.72,1.42.2,3.27-.01,3.65-1.39-1.82-1.89-4.79-2.58-7.25-1.68.11-1.88,2.4-2.92,4.27-2.66,1.87.26,3.52,1.34,5.33,1.9,3.82,1.19,8.31-.22,10.75-3.38-3.31-.96-6.35-2.47-9.66-3.43,2.94-1.58,6.13-2.69,9.42-3.26-2.28-1.44-5.22-.69-7.85-.14-2.63.54-5.89.59-7.44-1.61.46-2.76,3.79-3.96,6.59-4.01,2.8-.06,5.83.43,8.21-1.04.66-.41,1.25-.96,1.99-1.15.96-.25,1.96.14,2.88.53,1.81.76,3.62,1.53,5.43,2.29,1,.42,2.11.85,3.13.5,1.72-.59,1.73-3.58.01-4.19,1.19-.9,2.92-.77,4.25-.08s2.35,1.85,3.33,2.98c.43.49.9,1.01,1.53,1.16,1.07.24,2.1-.76,2.3-1.84.2-1.08-.2-2.17-.58-3.21,1.23-.27,2.5.18,3.65.71,1.14.54,2.27,1.18,3.52,1.34,1.25.16,2.69-.32,3.2-1.47.5-1.15-.56-2.79-1.78-2.46.16-1.69,2.63-1.96,4.16-1.21,1.53.75,2.99,2.05,4.68,1.82.38-1.39-.27-3.14-1.6-3.68-1.34-.54-2.83-.41-4.27-.26-4.75.48-9.5.95-14.25,1.43,6.13-4.1,14.51-4.58,21.09-1.19,2.66,1.37,5.44,3.39,8.34,2.65-1.24-1.62.99-3.85,3.03-3.86,2.03,0,4,1.06,6.02.87-.32-.9-.65-1.81-.97-2.71,2.93-1.86,6.61,1.86,10.03,1.28.34-.06.7-.17.94-.42.88-.89-.39-2.38-1.63-2.55-1.24-.17-2.62.19-3.68-.49,1.33-2.37,4.94-2.03,7.29-.63,2.34,1.4,4.39,3.55,7.08,3.97.82-.49,1.6-1.12,2.42-1.61-1.64-1.82-3.63-3.34-5.82-4.44,1.77-1.89,4.97-.58,6.94,1.12,1.97,1.7,4.14,3.87,6.7,3.4.1-1.74-1.33-3.43-3.06-3.63.13-1.83,2.94-1.83,4.44-.77s3.07,2.66,4.84,2.16c-1.23-1.67-2.66-3.19-4.24-4.52,4.2.57,8.26,2.13,11.77,4.5.28-2.11-1.35-4.31-3.45-4.64,1.97-1.76,5.36-1.6,7.17.35.6.65,1.04,1.45,1.7,2.05.66.59,1.7.93,2.43.44.74-.49.54-1.96-.35-1.97.94-1.33,3-.13,4.06,1.1s3.01,2.54,4.07,1.31c-.38-.85-.55-1.79-.47-2.71,3.34.17,6.58,1.92,8.55,4.64.81,1.11,1.52,2.46,2.82,2.91,1.3.45,3.05-1.06,2.19-2.13.06-1.14.98-1.28,2.02-.83,2.2.95,3.1,3.52,4.6,5.39.35.44.77.87,1.32,1.02s1.23-.08,1.4-.62c.15-.47-.12-.97-.12-1.46-.01-1.41,2.04-1.89,3.27-1.2,1.23.7,1.98,2.01,3.11,2.84.57.42,1.32.73,1.99.48.67-.24,1.02-1.24.48-1.7,1.18-.34,2.39-.68,3.61-.58,1.22.1,2.48.72,2.99,1.84.65,1.44,0,3.43,1.18,4.49.71.63,1.26.51,1.88-.2.62-.71,1.26-1.64,2.21-1.62.93.02,1.54.94,1.99,1.75-.6.72-1.23,1.49-1.37,2.42s.39,2.04,1.33,2.16c.86.11,1.56-.6,2.29-1.07s1.96-.54,2.21.29c.13.43-.1.88-.32,1.27-.75,1.31-1.49,2.61-2.24,3.92-.67,1.17-1.24,2.89-.13,3.67,1.33.95,2.92-.85,4.52-1.15,1.31-.24,2.6.6,3.47,1.62.87,1.02,1.48,2.24,2.4,3.22-1.57.93-3.42,1.81-5.23,2.08-1.14.17-2.3.2-3.45.34-3,.35-6.21,1.38-8.91,0-8.31-4.23-18.45-4.46-27.43-2.04-2.42.65-4.75,1.57-7.07,2.52-5.58,2.29-11.56,1.36-17.47,2.6Z"/>
      <path class="h" d="m51.62,281.57s68.2-31.48,134.14-11.11l6.48-2.51s-64.63-22.71-140.63,13.62Z"/>
      <path class="f" d="m46.02,257.83c-.57.09-1.05.44-1.5.8-2.08,1.64-3.95,3.54-5.56,5.65.11.39.57.59.97.54.4-.05.75-.29,1.08-.53,1.7-1.2,3.73-2.3,5.26-3.7.81-.74,2.09-3.11-.25-2.75Z"/>
      <path class="f" d="m51.39,295.26c-.25-.06-.5,0-.75.07-2.02.59-3.95,1.51-5.67,2.71-1.35.94-2.63,2.12-3.24,3.65,1.34.34,2.68-.42,3.85-1.15,1.47-.91,2.92-1.85,4.42-2.72.44-.25,3.52-2.06,1.4-2.56Z"/>
      <path class="f" d="m91.85,293.2c-.39.17-.82.38-.96.78-.21.62.4,1.19.93,1.57,1.72-1,5.46-2.26,5.96-4.44-1.41-.53-4.56,1.45-5.93,2.09Z"/>
      <path class="f" d="m167.6,229.01c-.17-.02-.37-.02-.49.11-.06.07-.09.16-.1.25-.11.66.29,1.32.82,1.73.54.4,1.2.6,1.84.78,1.05.29,7.64,2.58,5.7-.41-1.16-1.78-5.87-2.27-7.77-2.45Z"/>
      <path class="f" d="m133.18,283.64c-.47.37-.94.74-1.3,1.21-.43.55-.68,1.37-.27,1.93.34.46,1.01.57,1.56.4s.99-.55,1.43-.92c.96-.83,6.09-4.34,5-5.42-1.42-1.39-5.39,1.99-6.41,2.8Z"/>
      <path class="f" d="m193.63,237.31c-.17-1.07-.96-2.02-1.99-2.38-.46-.16-1.1-.14-1.3.31-.06.14-.07.29-.07.44.03,1.22.95,2.36,2.13,2.65.2.05.41.08.61,0,.34-.13.51-.54.47-.91-.04-.37-.23-.69-.42-1.01"/>
      <path class="f" d="m81.93,245.97c-.14-.32-.29-.64-.44-.96-.94-.1-1.88-.21-2.82-.08-.93.13-1.86.52-2.46,1.24.24.68.96,1.09,1.67,1.19.71.1,1.43-.07,2.13-.23.43-.1.87-.2,1.22-.47.35-.27.58-.74.43-1.15"/>
    </g>
    <g>
      <path class="h" d="m280.98,328.24s-11-14.65,2.87-30.32c13.87-15.67,9.41-29.17,22.27-32.98,12.86-3.81,13.68-1.08,17.39-3.3,3.71-2.22,9.82-2.94,13.48-1.51s10.8-.41,12.83-1.34c2.03-.93,10.65,1.73,12.51,4.38s9.57,2.61,14.1.54c4.53-2.07,24.76,2.01,28.13,7.98,3.37,5.97,12.05,10.15,14.77,10.46s10.69,3.65,11.8,8.2c1.11,4.54,13.37,10.2,15.96,10.95,2.6.75,10.3,7.72,11.5,11.05,0,0-11.51-7.55-16.65-7.53-5.14.02-12.27,1.34-14.07.22-1.8-1.12-3.01-.95-10.2,2.34-7.19,3.29-19.69,13.28-25.45,11.26-5.76-2.03-10.29.05-12,1.22s-3.17,2.23-7.8-2.26c-4.63-4.49-14.57-2.27-17.06.03-2.49,2.3-4.27,5.45-7.93,5.19-3.66-.27-1.05-6.51-11.82-1.2s-12.66,5.41-15.82,4.13c-3.16-1.27-9.26-4.76-11.77-3.19-2.51,1.56-12.86,7.08-17,5.09-4.13-1.99-10.04.58-10.04.58Z"/>
      <path class="f" d="m413.86,293.29c4.74-.66,9.97,1,14.17,4.49-1.47,1.97-3.43,3.46-5.66,4.28l-1.8-3.61c-2.06.13-4.12.25-6.18.38-2.38.15-.81,6.18-3.21,6.17-.85,0-1.62-.81-2.45-1.16-2.11-.9-3.9,1.26-4.56,3.46-.25.81-.52,1.77-1.28,1.95-.34.08-.71-.02-1.07-.14-2.2-.75-4.28-2.23-5.9-4.2-1.36,1.01-2.09,3.31-3.83,3.13-1.58-.16-2.57-2.99-1.4-3.98-2.14-2.35-5.5-1.25-7.37.78-1.86,2.04-3.16,4.86-5.59,6.02-.66-1.86-1.38-3.82-2.78-5.12-1.4-1.3-3.69-1.5-4.43.09-.26.55-.4,1.35-.98,1.4s-.4-1.37-.05-.78c.65-.34.68-1.86.13-2.54-2.92-.61-5.04,2.11-6.77,4.47-1.73,2.36-4.33,4.75-7.14,3.4l4.84-8.98c-2.84-.35-5.51,1.47-6.4,4.34-1.36-1.13-2.46-2.68-3.13-4.4-3.76,3.93-6.64,9.3-11.63,11.16-.85.32-1.8.53-2.77-.53-.65-.71-1-1.72-.97-2.66.06-1.86,1.19-3.16,2.27-4.35-1.6-.66-3.35-.51-4.66.4-1,.7-1.71,1.79-2.63,2.61-.92.82-2.2,1.36-3.41.78-.6-.29-1.08-.97-1.28-1.66-.27-.93-1.07-1.56-1.86-1.36-.94.24-1.85.57-2.72.99-1.96.72-2.08,4.89-4.24,4.72-1.11-.09-1.86-1.13-2.33-2.4-.58-1.55-2.34-2.18-3.39-1.27-.89.77-1.59,1.81-1.99,3.03-.39,1.16-.53,2.51-1.25,3.41-1.1,1.38-3.25,1.23-4.88.19-1.64-1.04-2.88-2.75-4.07-4.41-1.26,1.02-2.17,2.53-2.61,4.26-.39,1.52-2.07,1.88-3.26.72-1.21-1.18-2.23-2.62-2.95-4.21-.72.29-1.88.66-3.04,1.02-1.71.54-3.66-.89-4.06-2.99-.15-.78-.37-1.55-.81-2.28-.56-.91-3.23-1.96-3.62-2.96,1.92-3.43,4.86-6.75,7.25-9.75,1.77-2.21,5.4-7.73,7.4-9.67,4.86-4.73,9.64-6.11,14.5-10.84,2.55.31,2.94,3.81,1.59,6.01-1.35,2.2-3.68,3.79-3.9,6.6,3.67.66,5.21-4.32,5.57-8.35.36-4.03,1.63-9.06,5.3-8.73,1.07,2.97,1.02,6.26-.15,8.82,3.34-1.25,6.1-3.91,7.67-7.4,1.24,3.2.52,6.95-1.7,8.78,2.78.73,4.47-2.45,6.1-4.72,1.63-2.27,5.67-3.27,6.74-.22-.22,2.21-1.08,4.22-2.42,5.7,4.08.27,7.93-1.8,10.1-5.33.39-.64,1.34-.53,1.72.25.18.38.32.77.41,1.18.44,1.95,2.23,3.39,3.77,2.75.02,0,.03-.01.05-.02.62-.26,1.37.1,1.66.85l.4,1.04c.64,1.66,2.42,2.42,3.61,1.52l11.66-8.81c1.14-.86,2.75-.34,3.41,1.24.54,1.28-.11,1.99-.72,2.6l-4.48,4.52c-1.11,1.11.18,3.44,1.63,2.92,1.83-.65,3.49-2.02,4.78-3.57,2.3-2.75,4.06-6.18,6.98-8.09,2.92-1.91,7.65-1.53,9.69,2.13-2.94,1.27-5.9,2.49-8.89,3.65,5.67,2.93,12.13,3,17.13.18.45,2.89-.2,5.8-1.75,7.84,5.11-.37,10.15-1.1,15.09-2.19l-1.88,5.37c2.43-.5,4.44.42,6.7,2.1Z"/>
      <path class="h" d="m408.38,297.39s-77.57-7.07-127.63,4.72c0,0-.05-.26,3.11-4.2,0,0,97.82-12.35,124.52-.52Z"/>
      <path class="f" d="m353.06,279.32c-.34-.06-.7-.17-.96-.45-.38-.42-.42-1.1-.21-1.57.2-.48.59-.8.98-1.09,2.99-2.3,6.35-4.03,9.93-5.13.37-.11.86-.18,1.14.19.11,1.41-.97,2.35-1.96,3.06-2.38,1.71-5.67,5.55-8.92,5Z"/>
      <path class="f" d="m390.84,277.78c-.69-.26-.91-1.37-.59-2.01s.97-.96,1.55-1.29c.66-.38,1.28-.83,2.01-1.05.72-.23,1.59-.2,2.28.33.69.52,1.1,1.64.71,2.34-.19.34-.52.54-.84.72-.87.49-1.74.99-2.73,1.19-.99.19-2.11.04-3.01-.66"/>
    </g>
    <g>
      <path class="h" d="m270.88,296.43s-2.17-10.82-16.75-9.31c-14.58,1.51-19.29-5.56-27.38-.35-8.08,5.21-7.09,6.6-9.98,7.7-2.9,1.11-6.19,3.97-7.21,6.35-1.02,2.38-5.37,5.37-6.81,6.07s-4.22,6.05-3.76,7.94c.46,1.89-3.25,5.81-6.47,7.39s-10.82,13.35-9.4,17.19-.61,9.76-1.76,11.26c-1.14,1.5-3.26,6.75-1.49,8.94,1.77,2.18-1.22,10.45-2.08,12.04-.86,1.59-1.01,8,.11,9.8,0,0,1.67-8.56,4.14-11.17,2.47-2.62,6.55-5.79,6.84-7.1.29-1.32.96-1.88,6.06-4.38,5.11-2.5,16.15-5.33,17.88-8.99,1.73-3.66,4.94-5.23,6.36-5.69,1.42-.46,2.64-.83,2.58-4.78-.06-3.96,5.81-8.24,8.17-8.69,2.36-.45,4.81-.24,6.42-2.21,1.62-1.96-2.8-2.85,5.05-6.46,7.85-3.61,8.8-4.54,9.66-6.61.86-2.07,2.02-6.42,4.01-7.14s9.74-4.05,10.71-6.87c.97-2.82,5.1-4.92,5.1-4.92Z"/>
      <path class="f" d="m189.63,351.83c-2.6,2.18-4.26,5.44-4.5,8.83,1.7-.05,3.39-.52,4.88-1.37l-.97-2.2c1.05-1.01,2.1-2.01,3.15-3.02,1.21-1.16,3.52,1.78,4.67.56.4-.43.36-1.11.58-1.66.55-1.39,2.5-1.54,3.93-1.1.53.16,1.15.36,1.6.04.2-.14.33-.37.44-.6.67-1.39.92-2.98.69-4.5,1.16-.34,2.68.11,3.42-.84.68-.86-.28-2.37-1.35-2.13-.17-1.93,2-3.25,3.92-3.48,1.92-.23,3.98.11,5.73-.71-.63-.99-1.28-2.06-1.26-3.24.01-1.18,1-2.42,2.16-2.23.4.07.88.27,1.18,0s-.51-.69-.37-.31c-.49.21-1.27-.31-1.35-.84,1.08-1.71,3.48-1.82,5.5-1.87,2.02-.04,4.48-.52,5.14-2.43l-6.87-.72c1.18-1.57,3.38-2.29,5.26-1.73.08-1.09-.18-2.21-.73-3.16,3.79-.52,7.89-.09,11.22-1.97.57-.32,1.13-.73,1.05-1.6-.05-.59-.39-1.12-.89-1.44-.97-.63-2.17-.52-3.29-.39.43-1.05,1.35-1.89,2.43-2.23.83-.26,1.73-.24,2.58-.41s1.74-.64,2.02-1.46c.14-.41.02-.89-.23-1.24-.34-.47-.28-1.1.2-1.43.57-.39,1.17-.74,1.8-1.04,1.3-.74,3.47.68,4.42-.49.49-.6.32-1.35-.1-2.04-.51-.85.01-1.97.98-2.18.82-.18,1.68-.17,2.49.06.77.22,1.52.62,2.33.57,1.23-.07,2.17-1.22,2.43-2.42.26-1.2-.02-2.45-.29-3.65,1.12-.28,2.32-.21,3.41.18.96.34,1.94-.39,1.93-1.41-.02-1.04-.26-2.07-.72-3,.49-.27,1.23-.73,1.97-1.19,1.09-.68,1.3-2.18.43-3.13-.32-.36-.61-.74-.77-1.22-.2-.61.55-2.35.23-2.9-2.65-.24-5.75.08-8.41.24-1.97.11-6.5,0-8.44.34-4.72.8-7.71,2.75-12.43,3.55-1.06,1.41.52,2.85,2.29,2.95,1.76.09,3.68-.53,5.21.35-1.42,2.11-4.68,1.12-6.9-.12-2.22-1.24-5.38-2.38-6.96-.4.99,1.6,2.69,2.74,4.55,3.06-2.23,1.26-4.9,1.72-7.42,1.28,1.03,1.77,3.28,2.73,5.27,2.25-.96,1.68-3.38,1.41-5.31,1.43s-4.37,1.73-3.34,3.36c1.23.67,2.66.95,4.05.79-1.82,2.18-4.7,3.41-7.53,3.26-.51-.03-.91.5-.7.96.1.23.24.44.4.63.78.92.66,2.34-.41,2.9-.01,0-.02.01-.03.02-.43.22-.61.74-.36,1.15l.34.57c.54.92.07,2.1-.96,2.38l-10.04,2.82c-.98.28-1.49,1.29-1,2.18.39.73,1.06.65,1.66.56l4.44-.68c1.09-.17,1.66,1.31.7,1.87-1.2.7-2.69,1.06-4.09,1.17-2.49.19-5.07-.13-7.44.69-2.36.81-4.43,3.36-3.55,5.7,2.05-1.05,4.08-2.13,6.1-3.24-1.23,3.93-4.28,7.26-8.1,8.81,1.25,1.26,3.04,1.96,4.81,1.89-2.63,2.48-5.41,4.79-8.32,6.92l3.62.95c-1.41,1.06-1.91,2.42-2.14,4.17Z"/>
      <path class="h" d="m194.33,350.49s33.5-42.1,63.42-63.46c0,0-.11-.12-3.61.09,0,0-53.03,45.53-59.8,63.37Z"/>
      <path class="f" d="m211.61,315.84c.13-.19.25-.42.23-.65-.03-.34-.36-.6-.7-.67-.34-.07-.69.02-1.02.11-2.59.71-5.08,1.81-7.35,3.25-.24.15-.5.37-.45.65.66.56,1.66.34,2.49.09,2.01-.6,5.53-.92,6.8-2.78Z"/>
      <path class="f" d="m192.77,334.57c.2-.44-.26-.95-.74-1.02-.48-.07-.95.15-1.4.33-.51.2-1.03.36-1.49.65-.46.29-.86.74-.92,1.28-.07.54.3,1.14.85,1.2.26.03.52-.08.77-.17.66-.27,1.34-.54,1.91-.97s1.03-1.06,1.1-1.77"/>
    </g>
    <g>
      <path class="i" d="m234.17,294.96s-.31-36.95-45.49-28.73c-5.55,1.01-11.21,1.58-16.91,1.78-7.29.26-19.79,2.49-36.13,12.17-6.67,3.95-12.59,9.16-17.74,15.25-3.28,3.88-9.06,8.96-18.67,12.73,0,0-7.12,2.96-10.69,10.96,0,0-8.37,12.17-17.97,19.64,0,0-3.6,2.69-2.92,10.87,0,0,.83-11.74,11.5-12.93,0,0,9.97,1.05,16.57,8.4,0,0,18.77,10.41,31.2.35,0,0,3.37-4.33,13.57-2.07,0,0,14.39,8.98,21.23,2.22,0,0,10.08-4.85,17.97-2.27,0,0,27.39-12.06,42.03-30.53l12.45-17.85Z"/>
      <path class="f" d="m171.72,287.11c-2.29-3.22-6.41-4.63-9.44-3.23.71.27,1.46.58,1.99,1.22s.74,1.69.26,2.24c-.84.95-2.29-.45-3.38-1.34-1.14-.92-2.67-1.31-3.75-.6-1.08.71-1.34,2.71-.33,3.8.58.51,1.17,1.02,1.75,1.52-2.27-1.03-4.53-2.06-6.8-3.09-1.23-.56-2.58-1.13-3.74-.7-1.16.43-1.74,2.38-.7,3.36.74.7,1.83.54,2.58,1.22.31.29.53.71.58,1.14.16,1.23-1.03,2.06-2.12,1.85-1.09-.21-2.28-.98-3.34-1.41-1.82-.74-3.25-2.55-4.99-3.57-1.74-1.02-4.33-.73-4.5,1.34,1.42.13,2.78,1.67,2.89,3.28.11,1.61-1.06,3.01-2.47,2.97-.62-2.63-2.64-4.96-4.95-5.71,1.37,2.74,1.87,5.93,1.37,8.78-1.15-.04-1.15-2.11-1.87-3.22-.69-1.05-2.13-1.07-2.89-.3-.76.77-.97,2.05-.99,3.27-1.18-1.06-2.99-.83-3.68.46,1.64.62,2.89,2.68,2.75,4.54s-1.64,3.27-3.31,3.12c-.24-.02-.49-.08-.7-.24-1.01-.78.11-2.37-.16-3.67-.29-1.43-2.34-1.67-2.93-.49-.59,1.18.01,2.87.96,3.95.44.51.98.97,1.2,1.61.52,1.52-1.12,2.68-2.5,2.31-1.38-.37-2.53-1.57-3.83-2.29-1.3-.72-3.12-.75-3.58.65-.2.6-.08,1.31-.11,1.97-.15,3.44-3.7,4.92-6.7,5.31-1.31,3.38-5.11,4.16-8.46,4.53-3.35.37-7.16,1.03-8.6,4.33,3.6-.83,7.73.36,10.9,3.15.67.59,1.34,1.27,2.14,1.51,1.84.54,3.26-1.51,5.1-1.53,1.39,1.28-.59,4.09.78,5.39.5.47,1.2.42,1.79.3,1.78-.35,4.23-.67,5.18-2.33.2-.34.68.25.65.68-.04.43-.18.96.15,1.23.14.12.32.13.49.13,4.04.06,7.94-2.13,10.07-5.72.56-.95,1.16-1.94,2.05-2.49.89-.56,2.18-.57,3.03.31-.04.47.08.97.31,1.4,1.19-.51,2.39-1.02,3.58-1.53.32-.14.68-.27,1.01-.07.53.32.51,1.17.32,1.75-.19.58-.43,1.27-.09,1.83,3.7-1.06,5.4-5.66,8.6-7.83.48-.33,1.03-.6,1.63-.54.6.07,1.24.58,1.35,1.25.11.69-.34,1.23-.66,1.78-.32.54-.46,1.43.06,1.86,2.08-1.14,4.02-2.54,5.79-4.17-.81,3.21-.42,6.29-.31,9.75,1.18,1.18,2.55-.69,2.77-2.31.22-1.62.83-3.77,2.3-3.32,1.27.39,1.53,2.34,1.47,3.78,2.22-1.67,4.03-3.98,5.24-6.69,1.03,1.15,2.05,2.29,3.08,3.44-.15.9-.3,1.8-.46,2.7,1.19.98,2.76.24,3.58-.91.82-1.15,1.25-2.66,2.23-3.64.97-.98,2.87-1.1,3.63.32.44.81.33,1.79.14,2.64-.67,3.09-2.06,5.89-4.01,8.06,1.83,1.02,3.88-.3,4.69-2.18.81-1.88.76-4.17.93-6.34.17-2.09.76-4.4,2.48-5.03s4.16,2.18,2.92,3.61c2.01-1.24,4.03-2.48,6.04-3.72.37-.23.76-.48.93-.93.25-.68-.11-1.51-.26-2.28-.37-1.94.86-3.87,2.56-3.98s3.52,1.61,3.77,3.56c2.31-4.75,6.23-8.32,10.88-9.93,1.13-.39,2.3-.67,3.46-.95.87-.21,1.82.12,2.72.04.18,1.4.36,2.8.54,4.19,3.19.05,6.07-2.22,7-5.54.27-.95.39-1.97.77-2.85,1.04-2.36,3.77-3.28,4.55-5.79.88-2.86-1.16-6.15-3.06-8.74-.9-1.23-1.8-2.45-2.7-3.68-1.09-.5-2.33-.26-3.08.59-.73,1.47,1.67,3.7.83,5.08-.47.77-1.65.5-2.33-.22-.68-.72-1.04-1.73-1.53-2.62-1.63-2.98-5.04-4.68-7.78-3.88-.64,1.36.32,3.14,1.03,4.65.72,1.51,1.03,3.75-.27,4.27-.93.37-2.03-.49-2.73-1.44-.7-.95-1.27-2.1-2.2-2.72s-2.38-.26-2.33.9c.03.62.47,1.21.52,1.83.1,1.27-1.4,1.71-2.48,1.26-1.09-.45-2.08-1.39-3.2-1.56-1.12-.17-2.26,1.22-1.48,2.23,1.48.3,2.87,1.65,3.38,3.29-2.59,1.4-6.01-.2-8.51-2.47-2.5-2.27-4.54-5.2-7.19-7.23-.78-.6-1.94-1.06-2.42-.29-.22.36-.2.86-.16,1.32.11,1.56.22,3.12.33,4.69-2.22-2.38-4.12-3.58-6.03-6.27Z"/>
      <path class="f" d="m184.59,288.03c-.81-1.12-1.53-2.47-2.69-3.04-.17-.09-.36-.16-.49-.33-.23-.32-.08-.79.2-.98.52-.35,1.28-.03,1.8.46s.93,1.15,1.45,1.65c.75.72,1.7,1.07,2.55,1.62,1,.66,2.49,2.78.96,3.47-1.16.52-3.13-1.96-3.78-2.86Z"/>
      <path class="f" d="m164.56,333.47c.36.4.31,1.08.02,1.46-.29.38-.75.55-1.18.7-.56.2-1.13.39-1.69.59-.59.2-1.3.38-1.83-.1-.41-.37-.54-1.02-.45-1.56.09-.53.37-.98.64-1.4.69-1.1,1.39-2.2,2.08-3.3,1.49.44,1.61,3.2,3.02,3.98"/>
      <path class="f" d="m176.34,283.08c-.37.51-.74,1.03-1.11,1.54-.17.24-.37.5-.65.54-.44.06-.84-.39-1.16-.79-.41-.54-.84-1.1-1.01-1.77s.05-1.45.61-1.59c.27-.07.57.02.85.13.91.36,1.76.99,2.44,1.8"/>
      <path class="f" d="m125.08,333.14c-.71.47-1.49.84-2.03,1.53s-.74,1.85-.18,2.67c1.17-.53,2.35-1.06,3.52-1.59.6-.27,1.2-.54,1.71-.95.65-.52,1.15-1.23,1.64-1.93.6-.86,1.22-1.94.84-3.06-.99.47-1.75,2.55-2.81.54-.8,1.07-1.6,2.07-2.68,2.79Z"/>
      <path class="h" d="m105.5,322.8s114.53-26.47,128.67-27.84l-2.22,3.19s-115.78,24.77-126.45,24.65Z"/>
    </g>
    <g>
      <path class="i" d="m235.35,261.04c6.12.83,12.54-2.29,16.25-7.81,4.96-7.37,14.53-16.01,32.49-17.63,32.32-2.91,45.13,36.52,47.12,40.06,1.99,3.54.28,10.75,4.55,17.62,4.27,6.87,3.07,13.9,2.19,17.62-.88,3.72-2.29,12.64-.49,14.96,1.81,2.33,1.95,16.64.7,18.9-1.24,2.26,1.97,19.5,2.96,20.32.99.82-.3,10.22.6,14.36.9,4.14-7.06-4.05-7.29-15.99-.23-11.94-4.34-14.5-6.88-14.76-2.53-.26-13.91-4.04-15.76-5.18-1.85-1.14-8.88-1.38-12.6.39-3.72,1.77-18.22,2.2-23.25-11.42,0,0-11.42-8.55-18.5-8.55-7.08,0-14.68-.78-15.96-2.34s-13.59-6.39-15.84-6.85c-2.25-.47-23.64-13.73-20.05-30.82,2.98-14.19,12.84-25.17,29.76-22.88Z"/>
      <path class="f" d="m328.52,339.75c-.64-.59-1.63-.66-2.54-.77-4.42-.56-8.35-2.91-10.74-6.41-2.94,2.58-7.3,3.05-8.9,0-.28-.54-.43-1.16-.76-1.66-2.06-3.11-8,.69-11.25-1.21-3.95-2.3-.66-10.75-5.15-12.05-.52,3.26-2.91,6.42-6.01,7.95-2.41-1.19-2.72-4.47-2.26-7.29.25-1.58.67-3.19.84-4.76.18-1.69-.96-3.15-2.67-3.1-1.89.05-3.71-.63-4.89-1.94-1.15-1.27-1.99-3.2-3.83-3.21-1.95-.01-3.64,2.26-5.6,2.3-2.42.05-3-3.03-2.86-5.42.13-2.39-.17-5.47-2.54-5.72-1.15,1.51-2.3,3.02-3.44,4.53-.77,1.02-2.1,2.19-3.04,1.56-.58-.38-.58-1.23-.54-1.96.33-6.52-.77-12.83-2.4-18.9-.51-1.95-1.46-3.6-2.68-3.98.19,3.73.38,7.45.57,11.18.18,3.56.26,7.51-3.03,10.35-1.82,1.57-4.5,1.65-5.78-.01-1.96-2.57,1.23-6.4,1.36-9.74.08-2.1-1.21-4.01-3.15-4.65-.24,1.75-1.05,3.46-2.22,4.91-1.55,1.92-4.48,1.36-4.68-.89-.09-1-.34-1.97-.75-2.86-1.62,1.74-4,3.69-5.91,2.76-1.15-.56-1.54-1.96-1.19-3.3.52-1.99,2.15-3.43,3.71-4.77,2.24-1.93,4.48-3.87,6.72-5.8,1.7-1.47,3.48-4.21,1.83-5.29-2.28,2.4-5.32,4.04-8.43,4.68-2.32.48-3.81-1.87-2.58-3.96.45-.76.89-1.52,1.32-2.32,10.15-3.2,21.08-6.76,29.2-14.08,1.7-1.54,3.85-2.57,6.02-2.89.94-.14,1.9-.16,2.82-.49,2.71-.97,4-4.14,6.16-6.15,1.6-1.49,3.76-2.35,5.8-2.29.67.02,1.42.21,1.61.83.15.49-.14,1.06-.45,1.54-1.9,2.91-5,4.86-7.46,7.35-2.47,2.49-4.36,6.29-2.82,8.95,3.62-1.77,7.04-4.05,10.1-6.74,2.94-2.57,6.57-5.04,9.69-3.52l2.25,6.56c1.5-2.16,3.78-4.68,6.15-3.81.97.36,1.59,1.26,1.79,2.28.46,2.36-.74,4.69-1,7.04-.1.85-.03,1.79.58,2.31,1.73,1.5,6.13-1.4,6.62.91.24,1.14-1.12,2.46-.69,3.52.71,1.78,3.88-.72,5.66.02,1.56.65.87,3.03.2,4.74-.01.03-.02.06-.04.09-.6,1.64,1.16,2.74,2.71,1.8.56-.34,1.23-.46,1.82-.35,1.45.27,2.36,1.51,3.08,2.73.89,1.5,1.67,3.23,1.09,5.12-.3,1-1.08,1.89-2.06,2.32-1.95.85-2.71-.82-4.14-1.07-1.28-.22-2.68.84-3.31,2.08-.63,1.24-.69,2.61-.73,3.93.92-1.11,2.7-1.38,3.67-.57,1.01,1.57.7,3.95-.71,5.55-.58.65-1.31,1.18-1.77,1.91-.46.73-.5,1.8.2,2.12,4.03-1.62,8.29-1.95,12.38-1.64-.71,1.59-1.25,3.23-1.61,4.89-.09.43-.18.89-.05,1.28.39,1.2,2.16.96,3.39,1.31,1.78.52,2.41,3.15.9,4.55-.46.43-1.05.71-1.5,1.15-.45.44-.85,1.38-.47,1.78,1.61.31,3.12.92,4.43,1.79.48.32.96.71,1.07,1.29.22,1.18-1.12,2.21-2.1,3.12-.66.6-1.23,1.31-1.68,2.07-.23.4-.44.87-.27,1.25.15.32.52.46.86.57,1.08.34,2.16.68,3.24,1.03.42.13.88.3,1.05.69.35.82-.73,1.7-1.62,2.16-1.4.72-2.79,1.44-4.19,2.17-.11.84-.21,1.73.16,2.43.61,1.12,2.14,1.26,3.41,1.59,2.95.76,5.22,3.15,5.81,6.13.07.37.08.83-.25,1.08-.54.41-1.08-.24-1.51-.64Z"/>
      <path class="i" d="m241.48,260.6s52.27,45.58,68.87,65.14c0,0-43.81-56.31-64.47-67.04l-4.4,1.9Z"/>
      <path class="f" d="m245.16,312.15c.1-2.22.2-4.43.3-6.65.05-1.04.17-2.24,1.03-2.96.47-.4,1.07-.56,1.65-.68,1.01-.2,1.81.71,2,2.75v.12c.03,1.58-.06,3.21-.68,4.76-.62,1.55-1.85,3-3.43,3.55-.16.05-.33.1-.48.07-.37-.09-.42-.57-.4-.96Z"/>
      <path class="f" d="m274.62,318.46c-1.05-1.76-2.11-3.52-3.16-5.28-.25-.41-.5-.83-.84-1.16-.71-.69-1.73-.96-2.72-1.22.67.17,1.44-2.79,3.72-.97,1.6,1.27,3.2,2.55,4.79,3.82.39.31.78.62,1.05,1.04.84,1.31-.02,3.5-1.63,4.17-.24.1-.51.17-.73.09-.22-.08-.35-.29-.47-.48Z"/>
      <path class="f" d="m312.71,291.79c.23-1.56,2.06-2.95,3.51-2.54h0c.98-.56,2.04-.25,2.62.59.39.58.45,1.37.91,1.89.29.33.74.53.91.95.27.67-.35,1.53-1.08,1.86-.73.33-1.52.29-2.29.34-.71.04-1.42.15-2.11.05-1.52-.2-2.71-1.58-2.48-3.14Z"/>
    </g>
  </g>
</svg>