<?xml version="1.0" encoding="UTF-8"?>
<svg id="a" data-name="Lager 1" xmlns="http://www.w3.org/2000/svg" viewBox="0 0 478.13 800.48">
  <defs>
    <style>
      .c {
        fill: #ffefa5;
        opacity: .61;
      }

      .d {
        fill: #8a5a37;
        opacity: .69;
      }

      .e, .f {
        fill: #c8dd9b;
      }

      .g {
        fill: #3f5e26;
      }

      .f {
        opacity: .13;
      }

      .h {
        fill: #bfcf87;
      }

      .i {
        fill: #b1c88c;
      }

      .j, .k {
        fill: #567537;
      }

      .k, .l {
        opacity: .56;
      }

      .m {
        fill: #577f33;
      }

      .n, .o {
        fill: #f5d657;
      }

      .p {
        fill: #e6c8b4;
      }

      .q {
        fill: #a47145;
      }

      .r {
        fill: #b8ce8e;
      }

      .o {
        opacity: .67;
      }

      .s {
        fill: #a2c17a;
      }

      .t {
        fill: #fae8a0;
      }

      .u {
        fill: #c1d293;
      }

      .v {
        fill: #fae594;
      }

      .l {
        fill: #e2c033;
      }

      .w, .x {
        fill: #8cad64;
      }

      .x {
        opacity: .32;
      }

      .y {
        fill: #715030;
      }

      .z {
        fill: #435e2a;
      }

      .aa {
        fill: #547f30;
      }
    </style>
  </defs>
  <g id="b" data-name="Flower13">
    <path class="w" d="m478.13,197.5s-4.68,9.46-12.27,15.12c-3.48,2.59-17.18,12.17-46.28,13.8-19.57,1.1-20.94-2.81-36.58-2.35-15.05.45-25.14,4.4-37.03,9.71-6.48,2.88-13.5,6.17-22.14,9.49-15.15,5.83-38.04,12.84-68.99,15.87,12.57-14.08,25.49-24.59,36.78-32.32,6.61-4.53,12.66-8.09,17.74-10.87,6.65-3.63,14.71-8.02,23.57-12.15,16.88-7.87,36.7-14.8,55.35-13.69,5.17.3,10.25,1.23,15.15,2.92,15.89,5.49,19.39,15.42,36.12,15.72,20.31.37,38.59-11.27,38.59-11.27Z"/>
    <path class="u" d="m388.26,190.12c-13.1,2.36-28.56,6.25-45.28,12.78-3.83,1.49-7.52,3.05-11.07,4.65-16.97,7.62-30.71,16.13-41.16,23.56.15-.93.41-2.4.86-4.28,6.61-4.53,12.66-8.09,17.74-10.87,6.65-3.63,14.71-8.02,23.57-12.15,16.88-7.87,36.7-14.8,55.35-13.69Z"/>
    <path class="u" d="m327.27,216c-.37-.76,23.15-16.71,50.85-19.11,13.77-1.19,22.81,1.46,25.89,2.47,5.47,1.78,9.74,4.07,12.63,5.86-11.11-3.35-26.92-6.51-45.3-4.31-26.57,3.17-43.74,15.76-44.07,15.1Z"/>
    <path class="e" d="m318.95,226.48c20.17-14.77,42.77-17.36,53.85-17.76,4.22-.15,10.07-1.04,32.47.71,9.66.75,10.37,2.05,15.83,2.5-13.21-.9-21.96-.64-38.98.99-25.19,2.41-46.54,7.92-63.17,13.56Z"/>
    <path class="k" d="m345.96,233.77c-6.48,2.88-13.5,6.17-22.14,9.49-15.15,5.83-38.04,12.84-68.99,15.87,12.57-14.08,25.49-24.59,36.78-32.32,6.61-4.53,12.66-8.09,17.74-10.87,6.65-3.63,14.71-8.02,23.57-12.15-.41,1.26-.74,2.51-1,3.74-.4,1.87-3.84,11.59,3.67,20.78,2.56,3.14,6.43,4.66,10.38,5.44Z"/>
    <path class="w" d="m235.66,302.64s-39.71,16.28-71.34,28.31c-17.37,6.61-32.29,11.94-36.9,12.61-8.5,1.22-44.01,7.16-61.67,10.12-4.42.75-7.73,1.3-9.21,1.55h-.01c-.55.09-.86.14-.86.14,8.04-4.24,12.19-12.23,14.31-18.83,4.43-13.78,12.45-26.2,23.11-35.97,12.35-11.32,25.48-18,38.59-21.46,52.17-13.78,103.97,23.53,103.97,23.53Z"/>
    <path class="e" d="m189.29,289.57c-75.48.43-103.55,43.45-115.56,57.32-2.72,3.13-5.42,5.31-7.98,6.79-4.42.75-7.73,1.3-9.21,1.55,10.17-3.37,19.99-16.21,19.99-16.21,38.85-59.86,112.77-49.46,112.77-49.46Z"/>
    <path class="u" d="m178.42,299.05s-56.86,2.31-80.43,34.2c0,0,38.83-28.19,80.43-34.2Z"/>
    <path class="k" d="m164.31,330.96c2.55-14.26-1.51-26.59-12.2-37.23-6.03-5.96-13.07-10.48-20.43-14.61,52.17-13.78,103.97,23.53,103.97,23.53,0,0-39.71,16.28-71.34,28.31Z"/>
    <path class="j" d="m305.3,170.31c-8.53,14.77-25.58,28.35-38.6,42.49-.28.3-.56.61-.84.92-4.33,4.78-8.18,9.63-11.06,14.6-58.67-78.01-54.83-121.47-47.88-134.24.99-1.81,3.82-6.24,5.69-12.46,1.16-3.82,1.95-8.34,1.71-13.35-.54-11.54-6.11-16.53-8.55-25.79-2.27-8.6-2-21.38,9.89-39.44.19-.29.38-.58.58-.88.34-.5.69-1.01,1.05-1.52.14-.22.29-.43.45-.66.3.18.6.36.92.55,1.55.93,3.15,1.94,4.82,3,1.58,1.02,3.22,2.1,4.88,3.26,12.31,8.48,26.47,20.4,38.99,36.69,15.87,20.67,25.49,45.05,31.1,67.15,6.83,26.88,7.75,50.37,6.83,59.66Z"/>
    <path class="e" d="m244.68,125.98c1.3-34.29-18.38-98.16-27.37-125.33.14-.22.29-.43.45-.66.3.18.6.36.92.55,39.37,89.81,25.99,125.43,25.99,125.43Z"/>
    <path class="w" d="m266.7,212.81c-.38,1.87-.71,3.64-.95,5.3.01-1.41.05-2.87.11-4.38.95-23.51,7.4-58.43-1.45-98.98-11.16-51.17-28.41-88.52-40.91-111.19,1.58,1.02,3.22,2.1,4.88,3.26,15.08,21.83,38.12,63.19,46.69,122.3,5.13,35.46-4.56,64.88-8.37,83.69Z"/>
    <path class="z" d="m0,166.39c11.33,1.61,28.63,2.62,48.07-2.77,24.62-6.82,26.37-16.62,42.53-20.34,27.01-6.22,54.06,17.12,108.16,63.79,23.32,20.12,37.26,35.14,33.28,45.3-1.5,3.83-5.19,6.06-8.32,7.4-3.79-6.34-11.31-17.4-24.04-26.81-45.39-33.56-97.81-2.25-156.24-31.43-10.56-5.27-26.83-15.28-43.45-35.13Z"/>
    <path class="z" d="m21.28,90.82c3.9-6.01,28.03-42.01,70.72-47.15,45.09-5.42,92.51,25.79,110.94,77.66-18.49-.92-36.98-1.85-55.47-2.77-3.36-6.86-15.32-29.15-41.6-40.21-42.83-18.03-82.66,11.02-84.59,12.48Z"/>
    <path class="z" d="m250.35,294.94s110.84-81.44,199.87,0c0,0-105.99-42.15-199.87,0Z"/>
    <path class="z" d="m244.26,252.21c-4.05.71-5.96-55.43-43.68-75.59-14.3-7.63-29.41-7.78-40.21-6.58-.97.1-1.89.22-2.78.34-11.95,27.52-27.11,57.55-46.46,88.75-9.4,15.19-18.96,29.27-28.42,42.3-8.18-15.51-21.79-46.38-22.19-87.37-.32-33.34,8.21-59.56,14.56-74.88,32.94-38.39,88.93-46.96,131.11-21.57,1.85,1.11,3.69,2.29,5.48,3.54,62.33,43.26,37.49,130.19,32.59,131.05Z"/>
    <path class="h" d="m158.97,144.64c7.69-2.12,19.79-4.1,33.56-.51,37.31,9.73,51.45,51.15,52.71,55.01-.47-5.53-1.77-13.41-5.58-21.93-10.18-22.79-35.02-42.89-60.59-39.94-4.87.56-12.02,2.22-20.1,7.37Z"/>
    <path class="w" d="m152.84,160.81c17.94-.35,25.34-6.47,49.72,3.93,0,0,30.85,11.79,47.3,79.5,0,0,.27.64.27.64-.83-6.56-3.13-65.73-43.94-89.38-18.14-10.51-35.73-7.25-46.16-7.4,1.99-5.73-9.18,18.44-7.19,12.71Z"/>
    <path class="aa" d="m206.19,117.62c-9.07.61-19.72,3.06-27.8,11.17-6.62,6.64-8.38,13.91-11.1,22.88-2.9,9.57-8.82,18.6-9.71,18.72-1.3,2.99-2.64,6.03-4.02,9.08-11.29,25-25.2,51.87-42.43,79.67-6.83,11.05-13.76,21.5-20.65,31.4,0,0,0,.01-.01.01-1.24,1.77-2.48,3.53-3.71,5.26-1.35,1.91-2.7,3.78-4.05,5.63-.4-.76-.82-1.55-1.24-2.39-.15-.3-.31-.6-.46-.92-.59-1.18-1.21-2.43-1.83-3.75-.74-1.54-1.49-3.19-2.26-4.92-7.59-17.17-16.09-43.15-16.4-75.39-.2-21.29,3.2-39.67,7.35-54.17,2.34-8.21,4.92-15.18,7.22-20.71,11.65-13.59,26.2-23.43,42-29.36,2.28-.87,4.6-1.64,6.92-2.34h.01c5.44-1.62,11-2.79,16.61-3.5h.01c1.47-.19,2.94-.35,4.42-.47,1.59-.13,3.19-.23,4.8-.28h.01c4.56-.17,9.12-.05,13.67.38,1.84.17,3.68.4,5.51.68,1.3.19,2.6.41,3.89.67,11.56,2.19,22.83,6.39,33.25,12.66Z"/>
    <path class="u" d="m81.12,279.53c-.04,5.73.04,11.13.21,16.16v.02c.04,1.14.08,2.25.13,3.35-.15-.3-.31-.6-.46-.92-.59-1.18-1.21-2.43-1.83-3.75-.74-1.54-1.49-3.19-2.26-4.92-1.41-30.37.68-68.92,12.73-111.45,7.59-26.81,17.56-49.61,27.44-68.19,2.28-.87,4.6-1.64,6.92-2.34-9.24,17.18-15.63,32.38-20.04,44.18-5.3,14.21-20.7,58.28-22.65,118.33-.1,3.26-.16,6.41-.19,9.48v.04Z"/>
    <path class="u" d="m172.93,104.96c-11.83,16.35-20.88,31.22-27.37,42.67-7.23,12.75-28.95,52.45-46.24,109.98-3.7,12.32-6.6,23.45-8.85,32.93,0,0,0,.01-.01.01-1.24,1.77-2.48,3.53-3.71,5.26,6.49-31.93,18.71-77.07,42.51-125.36,13.45-27.26,27.47-49.21,39.77-66.15,1.3.19,2.6.41,3.89.67Z"/>
    <path class="e" d="m145.05,103.52c-7.42,12.85-13.24,24.41-17.66,33.76-6.25,13.24-24.96,54.46-37.92,113.11-4.02,18.15-6.54,33.74-8.14,45.3v.02c-.12.83-.23,1.64-.33,2.43-.59-1.18-1.21-2.43-1.83-3.75.54-4.64,1.19-9.61,1.96-14.86v-.04c4.6-31.47,13.56-73.23,31.73-118.24,9.03-22.38,18.67-41.44,27.77-57.25h.01c1.47-.19,2.94-.35,4.42-.47Z"/>
    <path class="e" d="m163.53,103.62c-28.98,32.82-52.06,97.65-52.95,97.2-.79-.4,2.85-22.14,16.95-53.3,8.09-17.88,16.2-32.41,22.32-44.28h.01c4.56-.17,9.12-.05,13.67.38Z"/>
    <path class="z" d="m268.63,242.1c1.51-12.83,10.14-74.97,61.48-107.24,13.63-8.57,45.38-28.53,76.27-14.33,31.65,14.55,37.78,53.64,38.37,57.78-2.63-7.85-9.61-24.8-26.35-34.21-23.45-13.17-49.92-2.47-65.18,3.7-53.9,21.79-77.52,75.96-84.59,94.3Z"/>
    <path class="s" d="m311.61,157.74c4.42-5.2,24.67-27.83,58.47-30.97,22.37-2.08,39.63,5.4,47.15,9.24-10.04-7.98-19.46-11.24-25.19-12.71-33.52-8.58-61.1,13.36-64.25,15.95-8.04,6.61-13.16,13.66-16.18,18.49Z"/>
    <path class="s" d="m40.76,74.22c5.06-4.58,28.06-24.41,61.99-23.15,22.45.83,38.59,10.48,45.56,15.27-8.92-9.22-17.85-13.67-23.34-15.86-32.13-12.85-62.31,5.34-65.77,7.5-8.82,5.51-14.81,11.84-18.43,16.24Z"/>
    <path class="i" d="m301.24,184.6c1.55-6.65,12.72-19.63,41.32-37.92,18.92-12.1,44.73-14.97,53.17-15-12.58-2.49-22.45-1.07-28.22.25-33.72,7.74-60.61,38.68-62.22,42.42-4.11,9.56-2.41,4.89-4.06,10.25Z"/>
    <path class="i" d="m49.98,72.06c5.35-4.24,22.17-7.44,55.94-3.95,22.34,2.31,44.32,16.13,50.95,21.36-8.3-9.78-16.91-14.82-22.24-17.37-31.21-14.94-71.51-7.47-75.1-5.54-9.17,4.92-4.93,2.32-9.56,5.49Z"/>
    <path class="v" d="m361.45,665.12c-9.24,41.91-16.25,85.98-25.49,127.89-12.05,2.57-26.09,4.88-41.82,6.23-11.14.96-23.12,1.43-35.84,1.17-3.53-.07-6.99-.2-10.37-.38-19-.98-35.92-3.46-50.34-6.4-5.79-26.14-11.33-52.74-16.93-79.21-3.25-15.35-6.52-30.66-9.88-45.82,40.53-.52,79.93-1.43,119.62-2.24,23.48-.48,47.07-.93,71.05-1.23Z"/>
    <path class="n" d="m361.45,665.12c-16.2,5.76-38.81,12.23-66.37,15.38-10.05,1.16-20.77,1.87-32.08,1.96-38.92.26-70.73-7.11-92.22-13.87,2.26-.78,14.72-5.33,20.8-18.72,4.71-10.35,2.81-19.85,2.08-22.89,33,.31,65.99.62,98.98.94,15.77.15,31.55.3,47.32.45-.35,3.56-.52,10.45,2.77,18.03,5.32,12.21,15.84,17.41,18.72,18.72Z"/>
    <path class="l" d="m361.45,665.12c-9.24,41.91-16.25,85.98-25.49,127.89-12.05,2.57-26.09,4.88-41.82,6.23,18.95-61.56,14.54-92.47,5.62-109.36-.95-1.79-2.77-5-4.69-9.37-1.68-3.87-3.43-8.65-4.68-14.15-1.18-5.2-1.91-11.05-1.72-17.39.23-8.01,1.88-15.12,3.96-21.05,15.77.15,31.55.3,47.32.45-.35,3.56-.52,10.45,2.77,18.03,5.32,12.21,15.84,17.41,18.72,18.72Z"/>
    <ellipse class="t" cx="266.92" cy="621.65" rx="87.67" ry="19.72"/>
    <path class="y" d="m341.65,620.37c0,6.91-23.02,12.74-54.52,14.57-6.68.38-13.75.59-21.06.59s-14.69-.22-21.5-.62c-31.27-1.85-54.08-7.67-54.08-14.54s24.36-13.08,57.25-14.73h.05c5.86-.29,11.97-.44,18.27-.44,6.68,0,13.16.17,19.33.49,32.37,1.72,56.24,7.63,56.24,14.68Z"/>
    <g>
      <path class="q" d="m285.41,605.7c.78,11.43,1.33,21.3,1.72,29.25-4.15.24-8.47.41-12.88.5-2.69.06-5.41.09-8.17.09-7.47,0-14.69-.22-21.5-.62.87-6.1,1.78-13.52,2.57-22.04.21-2.33.42-4.75.6-7.25.6-7.96,1.06-16.74,1.23-26.18.04-2.08.06-4.08.06-6.01.01-1.55.01-3.05-.01-4.52-.17-22.72-2.33-35.87-3.42-55.27-.53-9.59-.44-18.26.08-26.55.1-1.63.22-3.26.36-4.87.26-3.19.59-6.32.96-9.45.33-2.71.69-5.41,1.07-8.13,3.07-21.8,7.85-44.37,10.06-78.28,1-15.36.26-29.5-1.83-49.75-.33-3.16-.7-6.47-1.09-9.96-.88-7.77-1.91-16.43-3.08-26.27,7.61-5.21,17.45-11.81,25.06-17.02,5.26,24.99,8.17,47.47,9.52,67.5.19,2.7.34,5.36.46,7.97.15,3.18.26,6.28.34,9.32.57,22.8-.87,41.93-2.93,57.48-.36,2.74-.76,5.45-1.17,8.17-.33,2.23-.68,4.45-1.03,6.69-2.91,18.7-6.11,38.47-5.19,67.38.37,11.59,1.26,20.09,2.55,32.49.26,2.49.54,5.15.84,8.02.52,5.18,1.11,11.07,1.73,17.99.26,2.84.52,5.87.81,9.09.04.49.08.99.12,1.49.87,10.36,1.58,19.99,2.17,28.71Z"/>
      <path class="p" d="m279.63,323.29c-3.15,2.95-11.25,9.87-23.32,13.35-.33-3.16-.7-6.47-1.09-9.96,2.77.26,5.85.34,9.16.08,6.38-.48,11.58-2.05,15.25-3.47Z"/>
      <path class="p" d="m287.17,358.86c-16.67-3.42-21.22-10.6-21.22-10.6,9.44,4.52,16.22,4.22,20.75,2.63.19,2.7.34,5.36.46,7.97Z"/>
      <path class="p" d="m283.41,433.84c-.33,2.23-.68,4.45-1.03,6.69-6.03-2.11-10.29-4.53-13.2-6.62-4.08-2.92-5.53-5.22-5.53-5.22,2.07.99,4.04,1.8,5.93,2.48,5.3,1.9,9.9,2.66,13.84,2.67Z"/>
      <path class="p" d="m271.77,470.3s-7.56,4.86-24.75,2.5c.33-2.71.69-5.41,1.07-8.13,5.08,3.26,12.59,5.75,23.69,5.63Z"/>
      <path class="p" d="m260.82,483.98s-4.71,3.02-15.13,3.13c.1-1.63.22-3.26.36-4.87,4.03,1.13,8.9,1.79,14.77,1.73Z"/>
      <path class="p" d="m280.58,548.42c-4.38-2.18-9.94-3.87-16.99-4.63-2.13-.23-4.38-.37-6.79-.42,0,0,2.16-1.3,6.69-2.25,3.75-.79,9.12-1.34,16.26-.73.26,2.49.54,5.15.84,8.02Z"/>
      <path class="p" d="m261.61,367.67s5.55,5.08,20.8,0c0,0-12.48,14.33-20.8,0Z"/>
      <path class="p" d="m283.12,575.5c-4.2,2.12-10.15,2.81-17.25,2.02-5.09-.57-10.77-1.93-16.83-4.07.01-1.55.01-3.05-.01-4.52,3.76,1.79,7.01,2.5,9.11,2.81,0,0,2.85.42,7.21.03,4.54-.41,10.69-1.73,16.96-5.36.26,2.84.52,5.87.81,9.09Z"/>
      <path class="p" d="m277.86,607.18c-2.74,1.93-9.73,6.28-19.72,6.77-4.17.21-7.88-.3-11-1.08.21-2.33.42-4.75.6-7.25,2.55.99,5.51,1.88,8.85,2.48,9.25,1.65,16.92.23,21.26-.93Z"/>
    </g>
    <g>
      <path class="m" d="m295.68,237.31c.01,17.24-8.34,36.64-22.55,47-1.06.76-4.43,3.22-9.22,5.31-1.25.55-2.61,1.07-4.05,1.53-6.92,2.22-15.7,2.98-24.5-1.92-2.12-1.19-4.19-2.66-6.15-4.38-.63-.54-1.23-1.1-1.83-1.69-8.3-8.14-14.02-20.24-11.83-30,1.61-7.16,6.42-8.39,27.63-24.05,23.11-17.08,28.1-23.52,30.38-26.78,5.22-7.41,8.48-15.22,10.53-22.07,0-.01,0-.02.01-.03.13-.43.25-.85.36-1.25t0-.02s.02-.02.02-.03c.15-.54.3-1.06.44-1.58h0c.64-2.42,1.13-4.67,1.53-6.71-.04,5.77.13,14.57,1.39,25.15.02.15.03.31.05.45.63,5.19,1.35,9.45,2.1,13.06,2.67,12.87,5.66,17.68,5.66,28.02Z"/>
      <path class="w" d="m284.15,192.64c-.01.05-.01.11-.01.17-.1,1.11-.21,2.25-.35,3.42-3.01,25.57-14.14,43.38-19.42,51.62-11.35,17.75-24.84,29.6-35.16,37-.63-.54-1.23-1.1-1.83-1.69,10.14-7.94,23.16-20.24,34.38-38.04,16.13-25.59,20.84-50.3,22.35-64.86,0-.01,0-.02.01-.03.13-.43.25-.85.36-1.25.01.19.02.38.02.58v.14c.12,3.6.08,7.97-.35,12.94Z"/>
      <path class="w" d="m290.02,209.29c-.2,20.37-5,35.6-7.49,43.26-5.2,16.04-12.28,28.28-18.62,37.07-1.25.55-2.61,1.07-4.05,1.53,6.61-9.38,14.38-22.89,20.1-40.87,6.53-20.53,8.07-39.61,7.95-54.05.7,4.35,1.4,8.71,2.1,13.06Z"/>
      <path class="h" d="m285.97,192.12c.37,25.73-6.73,44.65-10.12,53.42-8.67,22.43-20.73,36.95-28.6,44.95-.58-.34-1.15-.69-1.73-1.03,7.77-8.64,19.32-23.74,27.9-46.34,7.08-18.68,9.82-36.34,10.72-50.32,0-.06,0-.11.01-.17.3-4.78.38-9.14.35-12.94v-.78c.15-.54.3-1.06.44-1.58.51,4.1.95,9.11,1.02,14.79Z"/>
    </g>
    <path class="d" d="m285.41,605.7c.78,11.43,1.33,21.3,1.72,29.25-4.15.24-8.47.41-12.88.5-1.48-7.62-2.88-15.66-4.16-24.09-.15-.9-.28-1.8-.41-2.71-1.47-9.87-2.76-20.26-3.8-31.14-.18-1.89-.36-3.81-.52-5.75-.79-9.01-1.39-18.34-1.76-27.98-.04-.89-.08-1.77-.1-2.67-.56-15.54-.54-31.86.22-48.85.3-6.67.71-13.22,1.21-19.64.06-.88.13-1.74.2-2.61,1.03-12.56,2.41-24.6,4.06-36.1.12-.92.25-1.83.39-2.74,3.47-23.58,8.01-44.83,12.83-63.5,1.7.17,3.41.34,5.11.51.57,22.8-.87,41.93-2.93,57.48-.36,2.74-.76,5.45-1.17,8.17-.33,2.23-.68,4.45-1.03,6.69-2.91,18.7-6.11,38.47-5.19,67.38.37,11.59,1.26,20.09,2.55,32.49.26,2.49.54,5.15.84,8.02.52,5.18,1.11,11.07,1.73,17.99.26,2.84.52,5.87.81,9.09.04.49.08.99.12,1.49.87,10.36,1.58,19.99,2.17,28.71Z"/>
    <path class="g" d="m292.94,275.08c-2.52,25.27,1.89,48.26,1.35,61.55-2.01,49.08-4.27,57.05-14.52,69.49-4.63,5.61-9.95,9.13-15.3,13.43-2.08,1.67-4.15,3.47-6.2,5.55-.89.91-1.77,1.87-2.65,2.9-.66.79-1.31,1.6-1.96,2.48-1.76,2.36-3.48,5.06-5.1,8.22-2.06,4.01-3.49,7.81-4.51,11.13-.69,2.25-1.18,4.27-1.54,5.99-.07.29-.12.57-.18.85,0,.02-.01.05-.01.07,0-.02-.01-.05-.01-.07-.09-.69-.19-1.4-.3-2.14-.74-4.9-1.95-10.82-4.02-17.34-.78-2.44-1.67-4.97-2.71-7.56v-.02c-1.16-2.9-2.5-5.9-4.04-8.93-.96-1.87-1.81-3.42-2.59-4.72h0c-4.2-7.04-6.14-7.03-9.2-14.01-9.62-21.92,4.47-33.45-2.08-63.1-2.72-12.3-5.87-13.58-6.24-24.26-.07-2.01-.7-27.53,12.48-33.98,5.24-2.57,9.82-.71,16.08,1.45.99.34,2.03.69,3.1,1.03,1.98.62,4.13,1.22,6.51,1.68,1.5.29,3.1.53,4.82.7.2.02.41.04.61.05,2.89.24,5.7.23,8.42.02.46-.04.92-.08,1.37-.12,1.17-.13,2.32-.29,3.46-.48,1.13-.19,2.23-.41,3.32-.67,8.68-2,16.09-5.78,21.65-9.2Z"/>
    <path class="h" d="m264.47,419.55c-2.08,1.67-4.15,3.47-6.2,5.55,8.23-26.68,16.85-73.06,9.71-140.15,1.13-.19,2.23-.41,3.32-.67,2.88,22.31,8.22,81.37-6.82,135.27Z"/>
    <path class="h" d="m235.28,429.62c-1.16-2.9-2.5-5.9-4.04-8.93-.96-1.87-1.81-3.42-2.59-4.72h0c-7.56-58.09,6.69-117.68,11.04-133.89.99.34,2.03.69,3.1,1.03-16.44,69.5-12.85,118.64-7.51,146.51Z"/>
    <path class="r" d="m244.06,449.84c-.69,2.25-1.18,4.27-1.54,5.99-.07.29-.12.57-.18.85,0,.02-.01.05-.01.07,0-.02-.01-.05-.01-.07-.09-.69-.19-1.4-.3-2.14-.74-4.9-1.95-10.82-4.02-17.34-5.74-90.41,5.78-136.25,11.31-152.41,1.5.29,3.1.53,4.82.7.2.02.41.04.61.05,9.01,35.53-4.06,124.57-10.67,164.3Z"/>
    <path class="r" d="m255.62,428.01c-.66.79-1.31,1.6-1.96,2.48,3.19-33.95,9.91-109.87,9.48-144.93.46-.04.92-.08,1.37-.12,1.23,15.75,2.38,58.4-8.9,142.57Z"/>
    <path class="o" d="m247.92,800.02c-19-.98-35.92-3.46-50.34-6.4-5.79-26.14-11.33-52.74-16.93-79.21,4.96,11.52,11.64,24.2,20.65,37.17,15.17,21.81,32.16,37.52,46.62,48.44Z"/>
    <path class="f" d="m298.47,110.65c-12.12,1.4-27.62,1.17-44.24-4.35-3.28-1.09-24.17-8.4-41.61-24.66,1.16-3.82,1.95-8.34,1.71-13.35-.54-11.54-6.11-16.53-8.55-25.79-2.27-8.6-2-21.38,9.89-39.44.19-.29.38-.58.58-.88.34-.5.69-1.01,1.05-1.52.14-.22.29-.43.45-.66.3.18.6.36.92.55,1.55.93,3.15,1.94,4.82,3,1.58,1.02,3.22,2.1,4.88,3.26,12.31,8.48,26.47,20.4,38.99,36.69,15.87,20.67,25.49,45.05,31.1,67.15Z"/>
    <path class="c" d="m189.4,693.28c8.33-10.3,31.68-3.73,45.02,4.7,10.84,6.85,25.48,21.52,21.79,31.17-4.7,12.29-39.71,18.04-57.7,1.11-10.43-9.81-16.18-28.23-9.11-36.98Z"/>
    <path class="x" d="m153.56,179.47c-11.29,25-25.2,51.87-42.43,79.67-6.83,11.05-13.76,21.5-20.65,31.4,0,0,0,.01-.01.01-1.24,1.77-2.48,3.53-3.71,5.26-1.35,1.91-2.7,3.78-4.05,5.63-.4-.76-.82-1.55-1.24-2.39-.15-.3-.31-.6-.46-.92-.59-1.18-1.21-2.43-1.83-3.75-.74-1.54-1.49-3.19-2.26-4.92-7.59-17.17-16.09-43.15-16.4-75.39-.2-21.29,3.2-39.67,7.35-54.17,12.71-7,27.58-9.83,42.38-7.44,17.68,2.84,33.14,12.8,43.32,27Z"/>
  </g>
</svg>