<svg width="66" height="59" viewBox="0 0 66 59" fill="none" xmlns="http://www.w3.org/2000/svg">
<circle cx="30.3921" cy="29.5" r="29.5" fill="#FCEE75"/>
<path d="M30.5681 59C44.4904 59 56.1601 49.3556 59.2608 36.3833H1.87549C4.97613 49.3556 16.6458 59 30.5681 59Z" fill="#21E1BF"/>
<path d="M16.4137 39.1592C16.4677 38.1884 16.5359 37.3564 15.8283 36.3942H54.088C55.0203 36.3942 55.3793 36.8118 55.9314 35.8181C56.2899 35.1729 56.2554 34.4053 56.6227 33.7443C57.0282 33.0144 57.4921 32.021 57.6724 31.2096C57.8104 30.5887 57.9543 29.2139 58.2997 28.739C59.3079 27.3527 60.3127 8.28245 56.7379 8.33366C54.6192 7.33008 52.1677 13.5555 36.713 12.3024C25.4353 10.6316 23.7689 5.99421 22.52 4.46766C21.4871 3.20524 20.4135 0.402395 18.6027 0C11.6514 4.46766 10.6531 24.012 10.6531 25.7947C10.6531 26.7845 10.595 27.7434 10.6531 28.7902C10.7009 29.6503 11.114 30.4059 11.114 31.3248C11.114 32.0793 11.5636 32.5207 10.9348 33.2194C10.2332 33.999 9.09454 33.7036 8.11848 33.9747C4.55058 36.3942 4.40346 40.6727 4.55057 42.5852C4.71327 44.7003 5.26693 45.8146 7.05672 46.7621C7.4224 46.9557 8.51865 47.6337 9.73143 47.6337C12.6956 47.1798 15.1675 43.9333 15.4106 43.6294C15.4106 43.6294 16.2857 41.7498 16.2857 40.4138C16.2857 40.4138 16.3891 39.6027 16.4137 39.1592Z" fill="black"/>
<circle cx="25.7187" cy="25.1214" r="3.59463" stroke="white" stroke-width="2"/>
<path d="M46.9905 27.4903C46.9905 29.4755 45.3812 31.0849 43.3959 31.0849C41.4106 31.0849 39.8013 29.4755 39.8013 27.4903C39.8013 25.505 41.4106 23.8956 43.3959 23.8956C45.3812 23.8956 46.9905 25.505 46.9905 27.4903Z" stroke="white" stroke-width="2"/>
<path d="M55.8975 31.0699C56.3624 31.1606 58.8505 31.0699 63.654 28.1747" stroke="black" stroke-width="1.8" stroke-linecap="round" stroke-linejoin="round"/>
<path d="M55.9729 33.2573C56.3892 33.4159 59.2682 33.8137 63.4452 32.1429" stroke="black" stroke-width="1.8" stroke-linecap="round" stroke-linejoin="round"/>
<path d="M51.9585 35.2756C52.3318 35.4942 58.8504 37.7818 64.4893 36.7376" stroke="black" stroke-width="1.8" stroke-linecap="round" stroke-linejoin="round"/>
<path d="M11.776 30.9192C11.2754 31.0573 10.8654 30.927 10.3807 31.0323C10.0715 31.0996 9.67615 31.1455 9.36246 31.1455C8.85965 31.1455 8.35684 31.1455 7.85402 31.1455C6.81948 31.1455 5.79989 30.5421 4.76172 30.5421" stroke="black" stroke-width="1.8" stroke-linecap="round" stroke-linejoin="round"/>
<path d="M10.9463 28.3548C10.3061 28.2329 9.44489 28.1073 8.87222 27.7892C8.43522 27.5464 7.74098 27.5447 7.35959 27.2235C7.14606 27.0437 6.58635 26.9321 6.30787 26.8464C5.96955 26.7423 4.89898 26.593 4.76172 26.3185" stroke="black" stroke-width="1.8" stroke-linecap="round" stroke-linejoin="round"/>
<path d="M11.9348 26.7921C11.4697 26.4961 9.38005 25.0321 8.98514 24.6591C8.78688 24.4719 8.49946 24.3997 8.30635 24.2066C7.98023 23.8805 7.56146 23.6125 7.21273 23.2638C6.4835 22.5346 5.8429 21.5041 4.91235 21.0389" stroke="black" stroke-width="1.8" stroke-linecap="round" stroke-linejoin="round"/>
</svg>
