<?xml version="1.0" encoding="UTF-8"?>
<svg id="a" data-name="Lager 1" xmlns="http://www.w3.org/2000/svg" viewBox="0 0 561.51 494.07">
  <defs>
    <style>
      .b {
        fill: #d27a62;
      }

      .c {
        fill: #83965a;
      }

      .d {
        fill: #a6b777;
      }

      .e {
        fill: #778748;
      }

      .f {
        fill: #3b5336;
      }

      .g {
        fill: #f4b39f;
      }

      .h {
        fill: #f39b87;
      }

      .i {
        fill: #303d23;
      }

      .j {
        fill: #667c36;
      }
    </style>
  </defs>
  <path class="i" d="m237.41,287.47c-.13-2.71.46-5.63,2.4-7.52,4.79-4.67,12.66.01,17.25,4.87,4.59,4.86,11.3,10.47,17.07,7.1,5.55-3.25,4.21-11.92.29-17.02-4.02-5.24-9.82-8.94-13.68-14.3-3.87-5.36-5.09-13.78.02-17.97,5.11-4.19,12.76-1.53,18.55,1.66,5.79,3.19,12.58,6.88,18.61,4.18,3.34-1.49,5.71-4.94,5.9-8.6.5-9.39-11.52-15.24-12.61-24.58-.78-6.73,5.01-13.05,11.66-14.31,6.65-1.26,13.57,1.68,18.58,6.23,4.35,3.94,8.93,9.56,14.66,8.29,4.01-.89,6.51-5.08,7.16-9.13.65-4.06-.05-8.21.08-12.31.25-8.24,4.28-16.61,11.39-20.79,7.11-4.18,17.25-3.2,22.53,3.15,3.56,4.29,5.45,10.95,10.92,12.05,6.42,1.28,10.84-6.52,11.47-13.04s.07-14.05,4.88-18.5c2.56-2.37,6.24-3.27,9.72-3.04,5.27.35,10.32,3.2,13.33,7.53,2.67,3.84,3.72,8.57,6.04,12.63s6.82,7.63,11.33,6.41c5.72-1.55,6.93-8.89,9.7-14.12,4-7.56,13.47-11.74,21.75-9.62,3.88,1,7.56,3.39,9.34,6.98,1.93,3.89,1.42,8.54,2.63,12.72,1.88,6.49,8.33,11.35,15.09,11.38,3.65.01,7.19-1.23,10.82-1.5,3.64-.27,7.81.8,9.52,4.02.74,1.39.92,3,1.08,4.56,1.33,12.54,2.66,25.08,3.99,37.62.27,2.57.54,5.24-.31,7.69-1.6,4.65-7.12,7.23-11.95,6.33-4.83-.9-8.78-4.7-10.83-9.16-1.47-3.19-2.12-6.77-4.03-9.72-1.91-2.95-5.8-5.14-8.94-3.56-1.37.69-2.34,1.97-3.1,3.31-2.39,4.23-2.99,9.23-4.86,13.72-1.87,4.49-5.85,8.81-10.69,8.46-10.66-.77-11.1-20.84-21.78-21.29-6.25-.26-10.17,7.46-8.97,13.6,1.2,6.13,5.57,11.06,8.95,16.33,3.37,5.27,5.82,12.11,2.9,17.64-8.19-.3-16.39-.59-24.58-.89-3.29-.12-7.22.09-8.93,2.9-2.49,4.09,2.08,8.79,3.07,13.48,1.38,6.52-6.52,12.91-12.61,10.2-2.44-1.09-4.3-3.19-6.7-4.36-4.62-2.26-10.35-.69-15.11-2.65-2.89-1.19-5.11-3.55-7.73-5.25-5.15-3.33-11.98-3.91-17.61-1.48-4.02,1.73-7.67,5.76-6.75,10.04,1.58,7.33,14.31,8.32,14.79,15.8.35,5.43-6.44,8.43-11.87,8.16-3.98-.2-7.91-1.29-11.42-3.16-3.32-1.77-6.38-4.27-10.08-4.94-3.7-.67-8.33,1.62-8.26,5.39.1,5.59,8.78,6.19,11.94,10.81,2.99,4.37-.6,10.81-5.61,12.52-5.01,1.71-10.51.09-15.42-1.88-1.98-.79-3.99-1.66-6.12-1.75-5.71-.25-10.01,4.8-14.12,8.78-6.54,6.31-18.4,15.22-27.39,10.1-6.99-3.98-8.89-11.54-10.05-18.71-1.57-9.63-4.08-17.44-10.46-25.13-6.57-7.92-16.3-15.13-16.83-26.32Z"/>
  <path class="i" d="m324.43,288.32c1.35-2.6,2.1-5.73,1.05-8.47-2.59-6.76-12.44-5.72-19.15-3.03-6.71,2.69-15.84,5.17-19.98-.76-3.98-5.71,1.26-13.62,7.42-16.86,6.33-3.33,13.69-4.34,19.92-7.85,6.23-3.51,11.24-11.23,8.12-17.66-3.12-6.43-11.84-7.29-18.97-6.77-7.13.52-15.47,1.06-20.18-4.32-2.6-2.98-3.37-7.44-1.91-11.12,3.76-9.45,18.22-9.75,23.52-18.43,3.82-6.25.99-15.09-4.97-19.34-5.97-4.25-14.08-4.49-21.07-2.29-6.06,1.91-13.1,5.34-18.16,1.5-3.54-2.69-4.09-7.93-2.9-12.21,1.2-4.28,3.76-8.04,5.5-12.13,3.48-8.21,3.32-18.25-1.78-25.58-5.09-7.32-15.5-10.95-23.55-7.11-5.44,2.6-10.32,8.29-16.18,6.89-6.89-1.65-7.7-11.32-5.36-18,2.34-6.68,6.29-13.84,3.58-20.38-1.45-3.49-4.65-6.04-8.17-7.39-5.33-2.05-11.58-1.53-16.51,1.36-4.36,2.56-7.54,6.73-11.65,9.68-4.11,2.94-10.15,4.41-14.03,1.16-4.91-4.11-2.79-11.87-3.14-18.27-.51-9.23-7.92-17.64-17.01-19.3-4.27-.78-8.96-.1-12.33,2.62-3.66,2.95-5.26,7.75-8.34,11.3-4.79,5.52-13.33,7.37-19.97,4.34-3.59-1.64-6.5-4.46-9.95-6.37-3.45-1.91-8.03-2.75-11.17-.36-1.35,1.03-2.26,2.53-3.13,3.99-6.99,11.72-13.97,23.43-20.96,35.15-1.43,2.4-2.9,4.91-3.18,7.69-.53,5.29,3.72,10.33,8.87,11.63,5.15,1.3,10.75-.64,14.79-4.09,2.89-2.47,5.15-5.69,8.36-7.73,3.21-2.03,8.02-2.42,10.39.55,1.03,1.3,1.41,3,1.55,4.65.43,5.24-1.24,10.42-1.44,15.68-.2,5.25,1.75,11.3,6.67,13.15,10.82,4.07,20.34-15.44,31.03-11.05,6.25,2.57,6.61,11.93,2.65,17.41-3.96,5.48-10.49,8.34-16.18,11.99-5.7,3.65-11.2,9.25-10.84,16.01,8.18,3.42,16.37,6.84,24.55,10.26,3.28,1.37,7.05,3.36,7.46,6.89.59,5.15-6.03,7.7-9.12,11.85-4.31,5.79.56,15.63,7.77,15.73,2.89.04,5.67-1.19,8.56-1.25,5.56-.13,10.48,4.01,16.04,4.24,3.37.14,6.63-1.18,9.97-1.66,6.57-.94,13.54,1.59,17.97,6.52,3.16,3.52,4.93,9.14,2.08,12.92-4.87,6.48-17.82,1.69-21.68,8.82-2.8,5.17,2.51,11.2,7.97,13.39,4,1.6,8.35,2.32,12.65,2.07,4.06-.24,8.2-1.31,12.14-.28,3.94,1.02,7.45,5.37,5.68,9.03-2.64,5.45-11.43,2.11-16.62,5.21-4.92,2.94-4.31,10.89-.16,14.84s10.28,4.84,16,5.13c2.31.12,4.67.18,6.81,1.05,5.72,2.34,7.65,9.25,9.89,15.01,3.56,9.16,11.18,23.28,22.33,22.33,8.67-.74,13.95-7.31,18.35-13.82,5.9-8.75,11.91-15.28,21.65-19.95,10.03-4.8,22.86-7.48,28.45-18.23Z"/>
  <path class="f" d="m155.98,344.23c-2.09-2.05-4.2-4.84-3.34-7.64,1.16-3.78,6.27-4.05,9.88-5.68,7.69-3.48,7.51-16.76-.28-20.02-1.74-.73-3.74-1.05-5.1-2.36-2.76-2.64-1.08-7.52,1.86-9.96s6.79-3.59,9.67-6.09c5.26-4.56,6.07-12.72,3.78-19.3-2.29-6.58-7.05-11.94-11.71-17.12,5.26-8.44,22.79-1.85,25.93-11.29,1.7-5.1-2.97-9.85-6.81-13.62-3.83-3.77-7.28-10.13-3.58-14.03,5.43-5.73,17.26,3.29,22.31-2.77,2.63-3.16.97-7.9-.79-11.61-4.13-8.73-8.26-17.46-12.4-26.18,8.52-5.23,20.69-3.41,27.3,4.09,6.1-3.71,3.27-13-.02-19.34s-5.2-16.16,1.4-18.88c2.83-1.17,6.1-.27,9.08-.95,5.56-1.25,8.49-7.43,9.39-13.06.89-5.63.63-11.63,3.29-16.67.58-1.09,1.34-2.16,2.45-2.68,3.34-1.55,6.38,2.44,9.55,4.31,4.55,2.68,10.71.69,14.27-3.2,3.56-3.9,5.07-9.21,6.17-14.37,1.26-5.88,3.49-13.19,9.47-13.91,7.77-.93,11.75,10.47,19.45,11.82,7.53,1.32,12.65-7.2,15.51-14.29,2.86-7.09,8.22-15.55,15.69-13.96,6.15,1.31,9.14,8.97,15.16,10.78,13.27,3.98,20.99-22.45,34.34-18.73,6.43,1.79,9.04,9.88,15.01,12.87,9.51,4.76,19.2-5.43,28.9-9.78,1.34-.6,2.83-1.1,4.26-.75,2.38.59,3.55,3.17,4.83,5.27,4.7,7.71,14.4,11.18,23.42,10.87,9.02-.31,17.59-3.77,25.95-7.18-2.22,11.45,9.69,23.16,21.1,20.74,6.5-1.38,14.5-5.88,18.69-.72,2.56,3.16,1.35,7.75,1,11.8-.74,8.52,2.92,16.7,5.56,24.83,2.64,8.13,4.14,17.58-.44,24.8-4.58,7.22-17.44,8.7-20.92.89-.98-2.21-1.2-4.96-3.13-6.42-3.58-2.72-8.41,1.92-9.32,6.31-.92,4.4-.55,9.6-3.89,12.6-4.32,3.88-11.53.79-14.91-3.94-3.38-4.73-4.68-10.71-8.13-15.38-3.45-4.68-10.83-7.53-14.96-3.44-6.74,6.67,3.54,21.76-4.72,26.42-2.34,1.32-5.33.93-7.76-.22-5.5-2.6-8.71-8.34-13.29-12.36-4.57-4.01-12.8-5.63-15.99-.45-3.42,5.55,2.06,14.13-2.46,18.83-3.09,3.21-8.41,1.9-12.6.37-8.38-3.07-16.76-6.14-25.14-9.21-2.59-.95-5.48-1.9-8.03-.86-4.91,1.99-4.58,8.97-3.38,14.13,1.36,5.88,2.73,11.75,4.09,17.63-6.64.26-12.93-2.66-19.06-5.22-6.13-2.56-12.84-4.86-19.3-3.31-6.46,1.55-12.01,8.51-9.66,14.72,1.37,3.62,4.85,5.92,7.55,8.69s4.76,7.17,2.62,10.4c-2.12,3.19-7.01,3.04-10.39,1.23-3.38-1.81-6-4.81-9.39-6.59-6.38-3.35-15.08-1.37-19.37,4.43-4.29,5.79-3.67,14.69,1.4,19.82,2.53,2.56,5.91,4.19,8.28,6.9,2.36,2.71,3.26,7.37.48,9.65-1.18.96-2.76,1.28-4.27,1.42-6.01.58-12.06-.95-18.09-.53-6.03.42-12.65,3.71-13.79,9.65-1.67,8.71,8.76,14.47,12.74,22.39.93,1.86,1.47,4.22.29,5.93-.73,1.06-1.96,1.63-3.17,2.06-6.36,2.27-13.37,1.72-19.97,3.17-6.6,1.45-13.5,6.14-13.64,12.89-.11,5.42,4.18,9.92,8.71,12.9,4.53,2.98,9.7,5.23,13.2,9.37,3.5,4.14,4.52,11.15.34,14.6-1.81,1.5-4.23,2.03-6.56,2.34-5.93.8-12.13.57-17.66,2.88-5.52,2.31-10.18,8.39-8.26,14.05,1.84,5.41,8.89,8.58,8.81,14.3-.08,5.39-6.33,8.18-11.51,9.67-9.73,2.79-22.67,4.39-27.71-4.39-5.48-9.53,3.32-23.11-8.74-28.15-11.1-4.64-20.36-7.11-29.58-16.19Z"/>
  <path class="j" d="m208.55,336.44c-.43-4,1.9-7.69,3.58-11.33,3.36-7.27,4.01-16.77-1.56-22.53-4.73-4.89-13.64-7.29-13.66-14.09-.02-7.36,11.4-13.07,7.78-19.48-4.34-7.67-20.13,2.8-23.91-5.16-.77-1.63-.61-3.54-.26-5.31,1.44-7.19,5.68-13.59,7.03-20.8,1.35-7.21-1.9-16.39-9.16-17.35-4.2-.56-8.55,1.84-12.59.57-5.07-1.59-6.79-7.85-7.08-13.15-.29-5.3-.2-11.29-3.99-15.01-.8-.79-1.83-1.46-2.95-1.47-1.75-.02-3.1,1.45-4.21,2.81-2.67,3.28-5.44,6.65-9.15,8.67-3.72,2.02-8.66,2.4-11.98-.24-3.68-2.93-4.12-8.22-4.9-12.86s-3.11-10-7.78-10.59c-2.43-.31-4.81.84-6.78,2.3-3.83,2.85-6.61,6.89-10.19,10.05-3.58,3.16-8.62,5.46-13.09,3.78-3.83-1.44-6.43-5.5-10.45-6.22-6.47-1.16-10.67,6.57-12.2,12.96s-4.01,14.32-10.54,15.13c-5.05.63-10.34-3.73-14.9-1.47-4.22,2.1-4.24,8.06-3.37,12.69s1.65,10.29-2,13.28c-3.47,2.84-9.01,1.41-12.67,3.99-3.47,2.45-3.83,7.31-5.04,11.38-1.21,4.07-5.37,8.35-9.1,6.32-1.14-.62-1.95-1.75-2.42-2.96-3.78-9.69,11.75-19.86,6.86-29.04-2.34-4.4-9-7.23-7.72-12.04,1.5-5.62,10.96-3.35,14.79-7.72,5.97-6.8-8.05-19.33-1.23-25.28,4.93-4.3,12.29,2.71,18.77,1.77,7.12-1.03,9.04-10.4,8.55-17.58-.25-3.59-.64-7.3.58-10.68s4.68-6.28,8.19-5.52c5.02,1.09,6.38,8.17,11.06,10.29,3.94,1.79,8.71-.81,11.02-4.47,2.31-3.66,2.89-8.11,3.88-12.32,1.79-7.64,5.38-15.26,11.85-19.7,6.46-4.44,16.23-4.63,21.54,1.14,2.03,2.2,3.26,5.04,5.26,7.27,2,2.23,5.31,3.81,7.97,2.45,1.77-.9,2.73-2.8,3.71-4.53,3.33-5.86,8.36-11.05,14.78-13.08,6.42-2.03,14.28-.25,18.12,5.29,4.55,6.55,3.09,16.91,9.69,21.39,6.05,4.11,14.22.07,19.92-4.5,5.71-4.57,12.12-10.09,19.31-8.76,9.3,1.73,12.62,13.61,11.47,23-.48,3.94-1.36,8.13.3,11.73,4.72,10.22,22.13,4.36,30.12,12.3,5.11,5.08,4.11,13.51,2.17,20.44-1.94,6.93-4.42,14.58-1.24,21.04,3.81,7.77,14.59,10.91,16.84,19.27,2.51,9.3-7.29,19.21-3.49,28.05,3.76,8.74,18.96,11.26,17.86,20.71-.58,4.96-5.95,8.35-6.45,13.32-.78,7.78,10.44,12.37,10.6,20.19.18,8.68-12.68,11.94-15.13,20.27-1.57,5.33,1.65,11.33-.38,16.51-3.22,8.22-15.35,6.97-22.82,11.68-2.96,1.86-5.16,4.7-7.97,6.78-2.81,2.08-6.77,3.32-9.75,1.49-3.8-2.33-3.62-8.07-1.57-12.02,3.36-6.46,13.63-18.05,2.31-22.86-7.26-3.09-20.87,2.48-22.24-10.19Z"/>
  <path class="e" d="m252.36,334.89c.23-5.39-5.44-10.36-10.65-8.97.13-5.67,8.07-7.68,10.45-12.83,2.63-5.7-2.51-11.71-6.79-16.3-4.28-4.59-8-12.26-3.38-16.51,1.43-1.32,3.42-1.95,4.69-3.42,2.06-2.39,1.46-6.15-.22-8.83-1.68-2.67-4.21-4.68-6.15-7.17-2.74-3.52-4.23-8-4.13-12.46.04-1.6.34-3.34,1.55-4.39,1.08-.94,2.6-1.1,3.97-1.52,4.93-1.51,8.09-7.3,6.7-12.27-1.12-3.99-4.52-6.83-7.1-10.07-2.58-3.24-4.4-8-2.03-11.39,2.62-3.75,8.67-3.44,11.62-6.94,3.49-4.13.62-10.29-1.65-15.21-2.27-4.91-2.72-12.49,2.47-14.03,2.44-.73,5.43.31,7.41-1.29,1.02-.82,1.47-2.14,1.78-3.41,1.87-7.48.58-15.69-3.49-22.24-1.18-1.9-2.64-3.86-2.52-6.09.33-6.39,11.23-5.82,14.34-11.42,4.32-7.79-10.34-17.82-4.65-24.67,3.92-4.71,12.18-.45,17.49-3.52,4.77-2.76,4.6-9.54,4.24-15.04-.35-5.5.92-12.59,6.31-13.71,2.12-.44,4.3.26,6.46.45,6.67.57,13.34-4.56,14.49-11.16,1.05-6.04-.58-14.72,5.35-16.25,2.55-.66,5.14.73,7.76,1.01,9.62,1.03,14.79-11.94,24.02-14.84,1.76-.55,3.78-.8,5-2.18,1.82-2.05.84-5.36,1.94-7.87,2.08-4.75,8.94-3.54,14.11-3.01,9.65,1,19.68-3.85,24.89-12.03,4.85,5.96,13.85,6.73,21.27,4.71,7.42-2.03,14.04-6.26,21.31-8.76,3.19-1.1,6.75-1.85,9.91-.64,3.16,1.2,5.49,5.03,4,8.07-8.03,1.41-13.6,10.81-11,18.53-5.05,4-12.31-4.71-18.31-2.37-3.61,1.41-4.63,6.08-4.22,9.93.41,3.85,1.7,7.78.65,11.51-5.53-2.25-11.32-4.54-17.27-4-5.94.53-12.01,4.88-12.32,10.84-.28,5.22,3,12.19-1.63,14.62-1.4.74-3.08.62-4.66.55-5.81-.26-11.91.37-16.83,3.47-4.93,3.1-8.32,9.18-6.84,14.81.93,3.53,3.62,6.69,3.33,10.33-.52,6.49-8.97,8.21-15.32,9.62-5.12,1.14-10.21,3.32-13.6,7.32-3.4,3.99-4.68,10.07-2.04,14.6,2.13,3.66,6.45,8.29,3.23,11.05-1.11.95-2.7,1.02-4.15,1.16-6.82.65-14.25,5.28-14.22,12.12.02,5.16,4.26,9.5,4.67,14.65.6,7.61-6.89,12.99-12.98,17.61-6.09,4.61-11.99,12.87-7.71,19.2,2.21,3.26,6.83,5.22,7.07,9.15.14,2.39-1.49,4.48-3.12,6.23-5.95,6.4-13.76,14.07-10.83,22.3,1.5,4.21,5.64,7.18,6.69,11.53,2.63,10.88-15.18,20.72-9.66,30.45,1.92,3.38,6.22,5.05,7.69,8.66,3.59,8.8-12.55,16.32-9.58,25.36,1.09,3.31,4.51,5.35,5.89,8.55,2.43,5.64-2.26,11.56-6.03,16.41-3.77,4.85-6.52,12.71-1.61,16.4-6.1,3.83-12.57,7.78-19.77,8.1-11.32.49-24.62-12.35-27.13-22.9,5.18-.32,10.61-3.89,10.85-9.56Z"/>
  <path class="j" d="m271.97,324.04c.4-6.81-2.86-13.24-4.27-19.91-.23-1.09-.39-2.29.18-3.25,1.03-1.74,3.55-1.49,5.57-1.51,6.21-.07,11.86-5.58,12.09-11.78.33-8.92-8.85-17.74-4.67-25.63,3.13-5.91,11.72-6.47,16.02-11.59,6-7.14.66-17.69-.47-26.95-.32-2.62-.23-5.43,1.15-7.68s4.38-3.66,6.77-2.54c1.14.53,2,1.54,3.09,2.18,3.87,2.27,8.88-1.09,10.77-5.16,1.89-4.07,2-8.78,3.78-12.9,1.78-4.12,6.52-7.71,10.56-5.76,1.67.81,2.86,2.41,4.52,3.23,5.29,2.61,10.4-3.62,13.41-8.69,3.44-5.8,7.42-11.28,11.86-16.35,1.43-1.63,3.03-3.3,5.13-3.86,4.82-1.3,8.93,3.6,13.66,5.2,5.83,1.97,12.23-1.36,16.44-5.84,4.21-4.48,7.05-10.1,11.21-14.64.7-.76,1.5-1.53,2.52-1.72,1.69-.31,3.17,1.07,4.46,2.2,8.77,7.69,23.28,7.69,32.05,0,2.16-1.89,5.08-4.33,7.47-2.73,1.11.74,1.56,2.11,2.16,3.3,4.4,8.8,18.09,8.27,25.51,1.8,2.23-1.95,4.93-4.46,7.68-3.39,2.07.8,2.87,3.22,4.14,5.04,2.96,4.23,8.89,5.33,13.97,4.42,5.08-.91,9.73-3.4,14.64-4.98,1.53-.49,3.32-.86,4.63.08,1.62,1.17,1.51,3.59,2.43,5.36,3,5.78,12.8.85,18.08,4.66,1.88,1.35,2.84,3.61,3.71,5.76,3.1,7.6,6.19,15.19,9.29,22.79-7.07,2.74-15.82.26-20.39-5.8-2.52-3.35-5.04-8.21-9.18-7.5-1.9,5.17-3.81,10.34-5.71,15.51-.9,2.44-2.6,5.39-5.17,4.97-1.69-.28-2.73-1.95-3.65-3.4-3.95-6.26-9.76-11.34-16.5-14.42-1.02-.46-2.14-.89-3.23-.65-2.36.53-2.93,3.53-4.05,5.67-2.33,4.44-8.38,5.77-13.17,4.3-4.79-1.46-8.62-5.01-12.26-8.46-2.96,3.04-3.17,7.7-3.92,11.87-.75,4.17-3.01,8.89-7.22,9.4-5.47.66-9.31-6.25-14.81-6.5-3.89-.17-7.1,3.12-8.85,6.6s-2.6,7.41-4.8,10.63c-3.26,4.79-9.47,7.37-15.17,6.32-2.36-.44-4.62-1.44-7.02-1.54-7.12-.29-11.98,7.11-14.31,13.84-2.33,6.74-4.21,14.53-10.35,18.14-7.24,4.27-17.27.67-24.41,5.1-9.7,6.03-7.8,22.54-17.46,28.62-7.17,4.52-18.73,1.77-23.02,9.08-4.73,8.07,5.41,19.18.58,27.19-1.69,2.79-4.81,4.34-7.15,6.62-8.44,8.22-5,23.6-12.9,32.35-7.08,7.84-25.84,11.15-33.59,2.48-5.37-6.01-4.33-20.45-4.95-27.93,6.9,1.54,12.73-5.04,13.12-11.62Z"/>
  <path class="d" d="m215.78,339.74c-3.35,4.25-10.46,3.41-14.42-.27-3.96-3.68-5.57-9.17-7.02-14.38-1.05-3.78-2.1-7.56-3.15-11.34-.28-1.01-.59-2.07-1.37-2.77-2.74-2.48-6.3,1.77-9.5,3.63-4.29,2.49-10.07.03-12.93-4.02-2.85-4.05-3.53-9.2-4.11-14.12-4.18-.2-7.62,3-10.96,5.51-3.35,2.51-8.17,4.47-11.5,1.94-1.86-1.42-2.72-3.94-4.75-5.1-5.58-3.21-11.19,6.62-17.56,5.62-3.33-.53-5.38-3.82-6.99-6.79-.56,4-5.3,5.7-9.24,6.59-8.1,1.82-17,3.56-24.39-.23.22,4.61.41,9.41-1.43,13.65s-6.36,7.69-10.88,6.71c-3.15-.68-5.99-3.36-9.15-2.67.47,6.57.49,14.24-4.63,18.38-3.37,2.73-8.92,4.02-9.35,8.34-.36,3.6,3.47,6.56,3.25,10.17-.39,6.21-11.66,7.66-11.16,13.87.2,2.5,2.51,4.74,1.88,7.17-.69,2.67-4.21,3.26-6.23,5.15-2.09,1.95-2.38,5.09-3.43,7.75-1.05,2.66-4.06,5.2-6.52,3.75-1.01-.6-1.6-1.73-1.93-2.85-2.79-9.49,8.45-20.26,3.09-28.58-1.67-2.6-4.63-4.12-6.44-6.62-1.81-2.5-1.53-7.04,1.5-7.61,1.83-.34,3.9.98,5.48-.01,1.25-.79,1.35-2.53,1.31-4.01-.22-9.33-.43-18.66-.65-27.99,4.56,2.42,10.52-.49,13.09-4.97,2.57-4.48,2.59-9.94,2.25-15.09,4.93,2.39,10.84-1.42,13.59-6.15,2.76-4.73,3.67-10.36,6.42-15.1.66-1.13,1.5-2.27,2.74-2.69,3.37-1.13,5.8,3.53,9.2,4.57,4.62,1.41,8.19-4.05,9.95-8.55,1.94-4.97,3.88-9.93,5.82-14.9.42-1.07.93-2.25,1.99-2.72,2.19-.98,4.07,1.68,5.88,3.26,3.37,2.95,8.8,2.26,12.44-.34,3.64-2.6,5.92-6.66,8.09-10.57,2.57,5.49,6.74,11.93,12.76,11.15,4.22-.54,6.99-4.5,9.8-7.69,2.81-3.2,7.4-6.08,11.08-3.94,1.93,1.13,2.97,3.35,4.76,4.69,3.02,2.26,7.39,1.44,10.71-.36,3.32-1.8,6.17-4.44,9.67-5.87,1.86-.76,4.01-1.13,5.86-.34,5.95,2.56,2.87,13.11,8.2,16.78,5.8,3.99,13.46-4.68,20.19-2.6-.85,3.86-1.7,7.92-.6,11.72,1.1,3.8,4.85,7.15,8.72,6.34,1.21-.25,2.48-.88,3.62-.4,1.72.71,1.66,3.1,1.78,4.96.34,5.56,4.6,9.94,8.13,14.26,3.52,4.32,6.63,10.16,4.33,15.23,4.02-1.82,8.41,2.06,10.2,6.1,1.79,4.04,2.54,8.8,5.83,11.74,1.57,1.41,3.57,2.25,5.18,3.61,4.19,3.57,4.5,10.79.62,14.71-2.54,2.56-6.88,5.02-5.64,8.4,1.07,2.91,5.29,2.87,7.57,4.97,2.29,2.1,1.98,6.02.08,8.48-5.99,7.74-20.54,7.81-26.45.39-5.79-7.27-12.38-18.98-14.68-27.92Z"/>
  <g>
    <path class="b" d="m399.23,346.83c-2.44,23.16-7.6,46.05-15.38,68.01-.46,1.52-1.01,2.99-1.61,4.47-3.73,10.22-8.1,20.31-12.99,30.07-.83,1.7-1.7,3.41-2.62,5.07-.37.78-.78,1.52-1.2,2.3-.14.28-.28.55-.46.83-.83,1.52-1.66,3.04-2.53,4.56v.05c-3.5,5.89-7.51,11.47-12.85,15.7-7.09,5.66-16.02,8.47-24.87,10.59-44.21,10.5-90.99,5.34-134.46-8.01-4.14-1.29-8.47-2.72-11.7-5.66-3.78-3.5-5.53-8.56-7.18-13.45-1.84-5.57-3.68-11.19-5.53-16.81-.51-1.43-.97-2.86-1.43-4.28-1.24-3.73-2.44-7.46-3.64-11.19-.46-1.29-.87-2.58-1.29-3.87-3.27-10.13-6.59-20.31-9.81-30.44-.51-1.57-.97-3.13-1.47-4.65-4.1-12.94-8.15-25.83-12.11-38.59,8.8-7.51,22.2-6.17,32.97-5.2,76.49,6.91,153.62,7.09,230.15.51Z"/>
    <path class="g" d="m400.82,308.43c-43.82,5.19-87.85,6.15-131.93,6.77-43.07.6-86.19,1.06-128.55-7.86-28.91-6.09-41.27,38.29-12.24,44.4,43.69,9.2,87.85,10.17,132.33,9.63,46.89-.57,93.77-1.37,140.39-6.88,29.07-3.44,29.42-49.53,0-46.05Z"/>
    <path class="h" d="m369.25,449.38c-.83,1.7-1.7,3.41-2.62,5.07-.14-.18-.23-.32-.37-.51-2.26-3.18-3.09-7.18-5.2-10.45-6.12-9.26-14.78-8.66-20.26.18-5.57,8.93-11.05,16.49-23.07,14.14-4.33-.87-8.06-3.09-10.87-6.54-1.98-2.44-2.86-5.53-4.56-8.15-5.62-8.7-16.39-11.24-23.21-3.18-6.54,7.74-11.1,17.87-23.16,14.83-6.12-1.57-10.59-6.68-14.78-11.01-3.64-3.73-7.09-8.38-12.62-9.58-12.06-2.72-14.97,7.32-20.58,14.41-5.76,7.28-13.72,9.35-20.35,1.8-6.49-7.41-5.85-18.14-17.41-21.32-3.41-.92-6.58-.87-9.39,0-.46-1.29-.87-2.58-1.29-3.87,8.38-2.76,18.37-.69,25,8.93,3.64,5.34,5.62,22.15,18.01,13.86,3.32-2.21,4.93-8.2,7.51-11.24,3.36-3.87,7.69-6.68,12.85-7.37,19.2-2.53,30.48,34.72,47.75,14.37,6.82-8.01,12.11-18.01,24.45-13.17,6.31,2.49,9.12,7.6,12.62,12.89,8.89,13.58,20.35,12.43,28.41-.92,5.66-9.39,13.91-15.93,24.13-7.37,4.56,3.82,5.94,9.72,9.03,14.18Z"/>
    <path class="h" d="m364.96,457.57c-.83,1.52-1.66,3.04-2.53,4.56-.41-.87-.88-1.75-1.38-2.53-6.12-9.26-14.78-8.66-20.26.18-5.57,8.93-11.05,16.49-23.07,14.14-4.33-.87-8.06-3.09-10.87-6.54-1.98-2.44-2.86-5.53-4.56-8.15-5.62-8.7-16.39-11.24-23.21-3.18-6.54,7.74-11.1,17.87-23.16,14.83-6.12-1.57-10.59-6.68-14.78-11.01-3.64-3.73-7.09-8.38-12.62-9.58-12.06-2.72-14.97,7.32-20.58,14.41-5.76,7.28-13.72,9.35-20.35,1.8-6.49-7.41-5.85-18.14-17.41-21.32-1.47-.41-2.95-.64-4.33-.64-.51-1.43-.97-2.86-1.43-4.28,7.14-.64,14.69,2.21,20.08,9.99,3.64,5.34,5.62,22.15,18.01,13.86,3.32-2.21,4.93-8.2,7.51-11.24,3.36-3.87,7.69-6.68,12.85-7.37,19.2-2.53,30.48,34.72,47.75,14.37,6.82-8.01,12.11-18.01,24.45-13.17,6.31,2.49,9.12,7.6,12.62,12.89,8.89,13.58,20.35,12.43,28.41-.92,5.66-9.39,13.91-15.93,24.13-7.37,2.12,1.75,3.55,3.96,4.74,6.26Z"/>
    <path class="h" d="m383.84,414.84c-.46,1.52-1.01,2.99-1.61,4.47-3.04.51-6.12.64-9.21.37-4.51-.46-7.18-1.89-9.81-5.62-2.21-3.22-3.04-7.18-5.2-10.5-6.08-9.26-14.78-8.66-20.26.18-5.57,8.93-11.05,16.53-23.02,14.14-4.37-.83-8.06-3.09-10.87-6.49-2.03-2.49-2.9-5.53-4.56-8.15-5.62-8.75-16.39-11.24-23.25-3.18-6.54,7.69-11.1,17.82-23.12,14.78-6.12-1.52-10.64-6.68-14.83-10.96-3.59-3.78-7.09-8.38-12.57-9.62-12.11-2.72-15.01,7.37-20.58,14.46-5.76,7.28-13.77,9.3-20.35,1.8-6.54-7.46-5.85-18.19-17.41-21.32-7.41-2.03-13.68.69-17.5,5.57-.51-1.57-.97-3.13-1.47-4.65,8.98-8.1,24.22-8.98,33.25,4.14,3.68,5.3,5.62,22.1,18.01,13.86,3.36-2.26,4.93-8.24,7.55-11.24,3.32-3.87,7.64-6.72,12.85-7.41,19.16-2.53,30.48,34.77,47.75,14.41,6.82-8.06,12.06-18.01,24.45-13.17,6.26,2.44,9.12,7.6,12.57,12.85,8.93,13.63,20.4,12.48,28.46-.87,5.66-9.39,13.91-15.98,24.08-7.41,7.32,6.12,6.45,17.5,17.31,19.85,2.99.64,6.17.51,9.35-.28Z"/>
  </g>
  <path class="d" d="m305.33,300.68c-.02-1.39-.03-2.84.53-4.11,2.08-4.72,9.53-3.59,13.24-7.18,5.98-5.79-2.58-17.02,2.07-23.93.8-1.18,1.99-2.15,3.39-2.44,1.34-.28,2.72.05,4.08.23,6.06.78,12.45-1.92,16.11-6.82,1.78-2.67,1.52-6.18,1.03-9.35-.49-3.17-1.14-6.53.04-9.51,1.18-2.99,5.07-5.13,7.7-3.29.95.67,1.55,1.7,2.3,2.59,3.38,4.04,9.59,4.71,14.55,2.94,4.96-1.77,8.95-5.49,12.69-9.2-1.06,2.88,1.25,5.8,3.39,8,6.55,6.73,15.44,14.06,24.25,10.79,1.18-.44,2.38-1.07,3.62-.84,4.57.85,1.21,9.64,5.27,11.91,1.72.97,3.99.15,5.79.98,4.77,2.2-.29,10.3,2.72,14.6,2.45,3.5,8.34,1.97,11.63,4.7,5.51,4.57-1.38,15.18,3.67,20.26,3.56,3.59,10.07,1.23,14.35,3.91,4.46,2.79,4.26,9.24,3.52,14.45-.92,6.45-1.83,12.91-2.75,19.36-.42,2.99-.84,6.09.06,8.97.71,2.3,2.25,4.39,2.3,6.8.05,1.94-.88,3.74-1.38,5.61-.96,3.56-.39,7.32-.39,11s-.79,7.72-3.66,10.03c-2.87,2.3-8.21,1.38-8.93-2.23-.53-2.65,1.5-5.1,1.99-7.75.32-1.76-.05-3.56-.41-5.3-1.37-6.53-2.73-13.07-4.1-19.6-.53-2.52-1.19-5.26-3.24-6.81-2.49-1.88-6.33-1.44-8.48-3.7-2.79-2.93-.71-7.92-2.18-11.68-1.94-4.98-9.15-5.96-11.57-10.73-.6-1.17-.87-2.53-1.74-3.52-1.61-1.84-4.44-1.64-6.86-1.96-2.42-.31-5.25-2.3-4.38-4.59-7.22,4.76-16.24,6.47-24.82,5.43-3.86-.47-8.27-1.33-11.25,1.18-1.48,1.25-2.27,3.1-3.24,4.77-5.21,8.97-17.34,13.16-26.97,9.34-2.2-.87-4.39-2.13-6.75-1.92-1.6.14-3.04.96-4.52,1.59-5.31,2.29-14.94,2.93-19.67-1.27-5.15-4.58-2.87-14.89-2.97-21.71Z"/>
  <path class="c" d="m247.47,314.68c.46.78.97,1.57,1.13,2.46.44,2.53-2.09,4.6-4.51,5.47.58,4.3-6.76,6.95-5.57,11.12,2.05.83,4.34.8,6.51,1.25s4.45,1.6,5.13,3.71c.63,1.98-.39,4.15-1.85,5.62-1.47,1.47-3.34,2.45-5,3.7-.49.37-.99.8-1.22,1.37-.54,1.31.53,2.8,1.85,3.33,1.31.53,2.78.39,4.19.43,2.98.08,6.04,1.06,8.07,3.24,2.03,2.18,2.75,5.68,1.21,8.23,2.25-.13,4.55-.26,6.71.4,2.15.65,4.17,2.25,4.66,4.45.36,1.6-.12,3.32.35,4.89.96,3.2,5.01,4.06,8.34,4.33,3.33.27,7.37,1.01,8.47,4.17.6,1.73.06,3.71.7,5.42,1.51,4.05,8.16,3.92,9.83,7.91.48,1.15.47,2.54,1.26,3.51.83,1.02,2.25,1.25,3.49,1.69,4.85,1.71,7.34,6.9,9.82,11.4,4.68,8.51,11.52,16.46,20.76,19.44,2.07-2.35-.36-5.96-2.96-7.7s-5.89-3.67-5.82-6.8c.13-5.31,9.82-6.96,8.98-12.2-.6-3.72-5.64-4.13-9.11-5.6-.82-.35-1.67-.89-1.9-1.75-.31-1.19.66-2.28,1.47-3.2,2.45-2.81,3.98-6.4,4.3-10.12-3-1.62-6-3.25-9-4.87-2.17-1.17-4.39-2.39-5.99-4.26-1.6-1.87-2.48-4.57-1.55-6.86.9-2.2,3.15-3.45,5.1-4.81,1.95-1.36,3.88-3.39,3.56-5.74-.48-3.55-5.26-4.39-8.81-3.91-3.55.48-7.97,1-9.96-1.98-1.73-2.61-.2-6.23,2.07-8.38,2.27-2.15,5.23-3.54,7.28-5.9,2.06-2.36,2.82-6.41.41-8.41-2.99-2.47-8.65-.17-10.71-3.46-1.25-2-.02-4.68,1.71-6.27,2.35-2.17,5.55-3.32,7.71-5.68s2.51-6.94-.45-8.17c-1.61-.67-3.41-.03-5.12.3s-3.87.1-4.6-1.48c-1.07-2.34,1.92-4.29,3.95-5.86,5.02-3.91,5.32-12.49.59-16.74-4.74-4.25-13.24-3.01-16.57,2.41-1.82,2.96-2.74,7.21-6.13,7.96-2.58.57-5.06-1.47-6.36-3.78-1.3-2.3-1.9-4.97-3.37-7.17-1.47-2.2-4.35-3.86-6.74-2.72-2.18,1.04-2.82,3.77-3.49,6.1-.67,2.33-2.17,4.97-4.59,4.92-.92-.02-1.78-.45-2.57-.91-2.18-1.27-4.19-2.83-5.94-4.65-1.83-1.89-4.24-4.28-6.64-3.19-.72.33-1.27.94-1.73,1.58-4.3,6.02-.73,10.91,3.1,15.47,3.65,4.34,2.51,11.12,5.55,16.29Z"/>
  <path class="j" d="m255.29,295.78c.53-1.74,1.08-3.96-.35-5.09-1-.78-2.43-.53-3.66-.23-2.96.71-5.92,1.42-8.88,2.12-.89-5.18-2.33-10.27-4.31-15.14-.8-1.99-1.92-4.15-3.98-4.76-3.12-.94-5.85,2.2-7.56,4.97-1.71,2.77-4.24,5.99-7.43,5.3-2.47-.54-3.75-3.17-4.98-5.37-1.23-2.21-3.43-4.53-5.85-3.84-3.16.9-2.92,5.42-4.42,8.35-1.44,2.82-5.15,4.23-8.1,3.07-1.88-.74-3.33-2.32-5.18-3.14-4.14-1.84-9.63,1.41-10.01,5.92-.2,2.35.6,5.2-1.18,6.74-.86.75-2.08.9-3.22,1.01-5.15.51-10.31,1.03-15.46,1.54-.75.07-1.54.16-2.15.62-.74.55-1.02,1.51-1.26,2.4-.61,2.32-1.22,4.74-2.73,6.61s-4.2,3.03-6.37,2.01c-1.07-.5-1.91-1.47-3.05-1.81-2.82-.82-4.97,2.47-6.06,5.19-1.13,2.82-2.12,6.43.02,8.58.72.73,1.74,1.18,2.3,2.04,1.29,1.96-.46,4.48-2.2,6.06-1.74,1.58-3.78,3.68-3.02,5.91.41,1.21,1.56,1.99,2.44,2.93,2.68,2.85,2.74,7.78.12,10.69-1.7,1.89-4.38,3.07-5.18,5.49-1.25,3.82,3.07,7.4,2.96,11.41-.05,1.73-.93,3.33-1.32,5.02-.65,2.82.15,5.94,2.09,8.09,1.18,1.31,2.76,2.31,3.57,3.88.69,1.35.7,2.93.75,4.44.18,6.36,1.18,12.7,2.96,18.81.52,1.78,1.6,3.91,3.45,3.8,1.76-2.04,1.36-5.14.53-7.71-.83-2.56-2.02-5.2-1.51-7.84,1.03-5.37,8.62-8.87,7.16-14.14-.59-2.14-2.68-4.02-2.09-6.16.54-1.96,2.9-2.61,4.7-3.56,3.74-1.98,5.79-6.7,4.69-10.79,2.39-.14,4.89-.39,6.9-1.68,2.02-1.29,3.37-3.94,2.43-6.14-.76-1.78-2.87-3.34-2.18-5.14.56-1.48,2.52-1.67,4.09-1.88,3.97-.53,7.68-2.78,9.98-6.07,1.67-2.39,2.68-5.35,5-7.12,2.04-1.56,5.05-2.19,6.01-4.57.51-1.26.27-2.71.71-3.98,1.56-4.5,8.89-2.95,12.21-6.37.73-.75,1.23-1.72,2.01-2.43.78-.71,2.04-1.08,2.87-.42.89.71.71,2.08.81,3.21.21,2.23,2.02,4.21,4.22,4.62,2.2.41,4.6-.79,5.6-2.8,1.03-2.08,1.12-5.27,3.41-5.69.93,1.82,2,3.56,3.19,5.22.45.63.96,1.27,1.68,1.57,1.32.55,2.84-.29,3.76-1.38s1.51-2.45,2.5-3.48c2.24-2.33,5.92-2.44,9.13-2,2.98.41,6.26,1.29,9.19.25-.05-5.95-1.6-11.07.25-17.15Z"/>
</svg>