<?xml version="1.0" encoding="UTF-8"?>
<svg width="752pt" height="752pt" version="1.1" viewBox="0 0 752 752" xmlns="http://www.w3.org/2000/svg">
 <g fill="#526c69">
  <path d="m506.39 299.04c2.1016 10.293 11.309 17.758 21.887 17.758 4.0469 0 7.9023-1.0195 11.152-2.9375 22.43-13.273 36.363-37.668 36.363-63.656s-13.934-50.383-36.363-63.66c-3.2461-1.918-7.1016-2.9375-11.148-2.9375-10.582 0-19.785 7.4727-21.887 17.758-2.0977 10.281-4.5977 27.098-4.5977 48.84 0 21.738 2.5 38.559 4.5938 48.836zm14.504-94.707c0.69531-3.4336 3.8047-5.9258 7.3867-5.9258 1.3906 0 2.6406 0.30469 3.6094 0.875 17.953 10.629 29.102 30.137 29.102 50.922 0 20.785-11.152 40.293-29.102 50.926-0.96094 0.56641-2.2109 0.87109-3.6094 0.87109-3.582 0-6.6875-2.4922-7.3867-5.9258-1.9609-9.6055-4.2969-25.367-4.2969-45.871 0-20.504 2.3359-36.266 4.2969-45.871z"/>
  <path d="m531.39 242.81h14.801v14.801h-14.801z"/>
  <path d="m568.62 329.29c23.242-19.578 36.773-48.266 36.773-79.086 0-57.125-46.469-103.6-103.6-103.6-6.0234 0-11.938 0.5625-17.723 1.5625l-0.39062-0.77734c-0.21094 0.10547-1.0469 0.55469-2.2344 1.2891-34.57 6.875-63.578 30.898-76.395 64.523h-58.102c-12.816-33.625-41.824-57.652-76.395-64.527-1.1836-0.73438-2.0273-1.1758-2.2422-1.2891l-0.39062 0.77734c-5.7812-0.99609-11.691-1.5586-17.715-1.5586-57.125 0-103.6 46.473-103.6 103.6 0 30.82 13.535 59.508 36.785 79.09-16.234 6.6719-36.785 17.898-36.785 31.906 0 74.367 3.9805 123.98 12.164 151.66l0.73828 2.5547c7.6758 26.926 25.645 89.977 216.49 89.977 190.85 0 208.81-63.055 216.48-89.98l0.73828-2.5586c8.1875-27.676 12.168-77.281 12.168-151.65 0-14.008-20.547-25.234-36.773-31.91zm21.977-79.086c0 30.348-15.324 58.289-40.996 74.75l-1.0859 0.82812c-3.9883 1.75-14.379 5.8164-24.516 5.8164-49.105 0-73.996-24.895-73.996-73.996 0-63.703 27.668-88.383 37.148-94.984 4.7852-0.78906 9.6758-1.2109 14.648-1.2109 48.965 0 88.797 39.832 88.797 88.797zm-429.18 0c0-48.965 39.832-88.797 88.797-88.797 4.9727 0 9.8555 0.42188 14.637 1.2148 9.5234 6.6289 37.16 31.312 37.16 94.98 0 49.105-24.895 73.996-73.996 73.996-9.5391 0-19.379-3.6328-23.836-5.5195l-1.7773-1.1328c-25.66-16.457-40.984-44.398-40.984-74.742zm36.688 89.379c5.4375 2.3242 17.523 6.8164 29.91 6.8164 57.258 0 88.797-31.539 88.797-88.797 0-40.543-10.59-67.137-21.875-84.105 18.426 10.738 32.824 27.992 39.738 49.379l1.6641 5.1289h79.348l1.6562-5.1211c6.9102-21.387 21.32-38.641 39.738-49.379-11.285 16.961-21.875 43.555-21.875 84.098 0 57.258 31.539 88.797 88.797 88.797 12.387 0 24.473-4.4922 29.91-6.8164 19.652 6.957 35.141 16.59 36.43 21-2.3164 5.0938-13.641 22.816-58.941 22.816-25.988 0-42.621-5.8477-61.891-12.625-22.645-7.9531-48.312-16.977-93.504-16.977s-70.859 9.0195-93.504 16.977c-19.266 6.7773-35.902 12.625-61.887 12.625-45.301 0-56.621-17.723-58.938-22.812 1.2773-4.4141 16.773-14.055 36.426-21.004zm380.16 171.77c-6.7617 23.711-22.586 79.238-202.26 79.238s-195.49-55.527-202.25-79.238l-0.77734-2.6953c-6.8906-23.285-10.715-65.723-11.426-126.2 10.633 8.1445 28.613 15.734 59.066 15.734 28.512 0 47.105-6.543 66.797-13.453 22.582-7.9375 45.93-16.145 88.594-16.145 42.668 0 66.012 8.207 88.598 16.145 19.691 6.9141 38.285 13.453 66.797 13.453 30.449 0 48.43-7.5938 59.062-15.73-0.71094 60.469-4.5352 102.9-11.426 126.19z"/>
  <path d="m212.57 313.87c3.25 1.9258 7.1055 2.9375 11.152 2.9375 10.582 0 19.785-7.4727 21.887-17.758 2.0977-10.281 4.5977-27.102 4.5977-48.84 0-21.742-2.5-38.559-4.5938-48.84-2.1055-10.285-11.309-17.758-21.891-17.758-4.0469 0-7.9023 1.0195-11.152 2.9375-22.426 13.273-36.359 37.672-36.359 63.66s13.934 50.383 36.359 63.66zm7.543-114.59c0.96094-0.57031 2.2109-0.87109 3.6094-0.87109 3.582 0 6.6875 2.4922 7.3867 5.9258 1.9609 9.6055 4.2969 25.367 4.2969 45.871 0 20.504-2.3398 36.266-4.3008 45.871-0.69141 3.4336-3.8008 5.9258-7.3828 5.9258-1.3906 0-2.6406-0.30469-3.6094-0.875-17.953-10.633-29.105-30.137-29.105-50.922 0-20.785 11.152-40.293 29.105-50.926z"/>
  <path d="m205.81 242.81h14.801v14.801h-14.801z"/>
 </g>
</svg>
