<?xml version="1.0" encoding="UTF-8"?>
<svg id="a" data-name="Ñëîé 1" xmlns="http://www.w3.org/2000/svg" viewBox="0 0 2333.26 3208.89">
  <defs>
    <style>
      .b {
        fill: #8f71b1;
      }

      .c {
        fill: #0f0f0d;
      }

      .d {
        fill: #e16d8b;
      }

      .e {
        fill: #89bf50;
      }
    </style>
  </defs>
  <path class="c" d="m572.78,1119.67c-15.32-11.04-28.71-23.55-28.07-44.4.82-26.47-27.67-36.94-32.11-62.98-3.1-18.17-1.47-29.21,10.52-39.39,28.05-23.81,61.28-34.33,97.88-35.12,29.55-.64,40.27-10.03,46.2-36.95,2.42-11.01.07-19.83-10.37-21.49-45.53-7.21-91.26-13.19-136.96-19.33-12.81-1.72-15.38,7.13-15.43,17.14-.19,32.35,1.04,64.76-.45,97.04-2.38,51.28-10.47,101.14-51.17,138.36-30.92,28.28-68.62,30.04-100.31,2.19-17.4-15.29-29.69-6.98-42.94,3.05-19.53,14.79-41.04,18.43-65.01,16.23-33.84-3.11-44.98-11.19-42.12-43.58,2.06-23.32-1.68-39.39-20.06-55.49-36.53-32.01-21.96-98.31,9.66-121.5,3.61-2.65,7.78-4.54,11.71-6.75,27.52-15.47,52.92-29.3,39.58-70.88-6.97-21.74,12-41.72,32.63-50.37,57.77-24.22,115.6-39.05,171.78,6.86,39.97,32.67,86.5,49.88,138.84,51.9,93.86,3.62,186.24,21.73,279.61,30.24,24.43,2.23,49.03,2.55,72.44,3.69,9.83-14.98-1.93-21.35-8.73-28.4-61.64-63.86-132.33-117.3-200.93-173.09-21.29-17.32-30.72-14.05-47.69,10.9-36.03,52.95-84.83,71.56-148.3,57.93-16.85-3.62-27.68-12.89-32.87-28.03-6.78-19.8-17.87-18.9-35.5-13.8-62.29,18-130.61-17.16-152.55-73.81-12.25-31.62,7.43-53.17,19.3-76.96,5.89-11.82,18.14-20.47,31.66-35-24.39,2.13-35.72-11.33-47.37-24.59-12.3-14-17.29-32.39-18.19-48.76-1.71-30.99,38.35-75.59,71.98-83.22,11.77-2.67,23.62-5.5,35.38-7.79,27.17-5.29,52.62-4.8,76.4-28.47,21.36-21.26,58.72-16.55,88.35-9.9,60.59,13.6,114.33,41.41,155.66,89.75,27.53,32.2,33.61,67.17,15.35,105.9-9.69,20.55-20.24,40.77-28.47,61.9-12.93,33.17-10.89,46.28,16.18,67.55,36.76,28.88,75.75,54.91,118.25,85.36,7.55-45.31,14.44-86.74,21.36-128.16,4.56-27.31,6.31-55.52,14.54-81.69,9.07-28.84.88-50.65-22.49-63.22-61.26-32.93-69.14-87.31-65.58-147.91,2.09-35.69,4.95-40.78,40.82-45.96,16.32-2.35,24.56-6.45,25.98-24.18,1.71-21.38,10.06-42.63,9.35-63.72-1-29.55,16.92-44.91,37.32-57.09,19.54-11.66,43.03-15.77,65.92-17.56,35.38-2.77,45.07,25.17,55.74,50.06,3.98.32,8.88,1.72,9.53.62,20.46-34.72,54.14-51.34,87.99-69.95,25.23-13.87,38.3-43.96,71.09-52.36,33.41-8.56,67.27-15.17,100.56-24.14,1.44-.39,3.17-.48,4.59-.09,48.76,13.3,93.79,33.67,128.44,71.82,18.08,19.9,17.27,44.37,9.65,71.08,19.1,6.43,37.6,5.59,54.63,11.85,37.02,13.6,49.05,38.28,33.5,74.43-8.26,19.18-22.97,31.93-38.58,44.54-28.52,23.05-56.43,46.83-84.75,70.13-25.55,21.02-32.11,48.32-17.44,76.27,46.45,88.46,56.76,185.8,73.1,281.78,1.54,9.06,1.81,18.56,12.24,27.09,31.15-30.71,66.18-58.93,92.82-93.6,19.8-25.76,21.25-61.41,20.72-94.73-.18-11.22-9.66-15.1-16.87-20.19-7.31-5.16-15.78-8.63-23.55-13.18-58.3-34.14-81.43-88.23-67.18-154.96,3.14-14.69,11.88-22.74,25.47-20.54,32.13,5.2,42.22-9.96,51.61-39.03,12.45-38.53,57.53-51.62,89.75-34,13.72,7.5,20.65,20.24,23.16,32.58,5.01,24.63,21.98,16.47,35.59,15.93,19.05-.75,14.29-15.96,14.44-27.64.36-27.7-.54-55.47,1.2-83.08,3.17-50.19,29.26-66.94,74.76-49.29,4.13,1.6,7.48,6.15,11.57,6.75,15.91,2.34,27.8,7.65,35.47-18.76,16.94-58.31,76.2-86.95,132.13-71.89,27.63,7.44,49.87,25.17,47.9,52.88-2.09,29.43,17.11,34.81,33.54,37.64,32.49,5.58,45.51,28.21,57.53,53.18,6.88,14.3,8.16,31.18,2.66,45.21-9.28,23.66-23.99,44.72-1.38,69.79,5.83,6.47,1.29,20.69-6.59,29.73-28.56,32.77-59.25,61.58-106.69,61.69-10.45.02-18.02.97-26.18,12.27-49.51,68.66-84.72,77.11-173.48,51.08-18.28-5.36-25.56-5.05-37.57,6.96-66.26,66.28-131.93,133.06-202.1,195.51-41.76,37.17-76.61,82.37-111.62,131.68,33.62,1.41,60.45-9.57,88.17-15.64,102.24-22.4,205.46-38.91,309.75-47.91,32.84-2.83,51.44-15.67,58.33-50.89,6.4-32.72,20.16-63.95,39.03-93.07,38.39-59.24,138.67-106.85,208.1-95.48,35.95,5.88,59.34,27.07,58.48,65.33-.66,29.51,14.8,36.82,35.82,42.16,22.64,5.75,43.61,13.63,59.09,31.92,32.26,38.1,34.2,78.17,2.86,110.94-18.72,19.56-20.52,33.27-4.79,53.85,14.66,19.18,10.59,37.95-1.96,59.01-21.83,36.65-54.26,55.89-93.89,55.05-22.9-.49-52.12,8.13-70.79-19.11-5.12-7.46-16.34-2.86-22.62,6.52-31.91,47.69-80.25,49.25-130.32,45.77-6.15-.43-11.62-.62-16.63-5.59-35.43-35.17-74.29-68.07-75.45-124.1-.16-7.68-.71-15.45-2.14-22.98-4.95-26.04-12.89-32.33-40.62-32.49-60.13-.34-120.21,7.27-177.77,21.17-70.74,17.09-143.23,24.43-213.28,43.77-39.43,10.89-75.52,25.98-103.19,59.64-32.04,38.99-63.53,78.13-89.72,121.25-12.89,21.22-18.8,43.48-16.59,69.87,3.32,39.7,2.01,79.97.16,119.88-1.99,42.98-7.58,85.69,12.95,126.47,3.79,7.54,3,18.18,2.03,27.14-1.37,12.73,3.12,20.5,14.86,24.66,45.05,15.96,46.42,51.81,40.8,90.5-1.06,7.27-4.23,14.24-7.28,24.14,24.96,5.66,45.08-10.04,66.65-16.28,60.1-17.38,73.46-72.73,90.35-121.59,8.8-25.46,30.6-50.35,22.97-77.88-7.03-25.36-23.24-48.65-37.78-71.33-24.45-38.13-14.26-80.15-11.59-119.5,2.53-37.31,31.69-47.23,84.19-34.95,2.41-17.5,6.75-34.93,6.63-52.32-.1-14.81,5.44-27.18,12.49-37.99,30.05-46.1,95.63-52.75,136.2-11.93,16.59,16.69,32.32,24.6,55.53,25.2,49.26,1.28,68.8,37.81,52.33,84.13-10.62,29.86-31,51.85-58.92,67.97-23.48,13.56-39.55,31.76-42.71,62.55-4.54,44.35-42.68,84.54-111.76,86.6-42.4,1.26-48.08,5.07-62.91,43.07-9.9,25.36-19.94,50.67-29.49,76.16-3.73,9.95-6.27,20.34-10.06,32.84,24.6,8.91,40.82-11.27,60.69-14.7,31.3-5.4,61.56-16.53,92.68-23.35,44.26-9.7,65.21-36.99,70.37-81.17,2.9-24.83,2.12-49.67,10.74-74.74,26.31-76.55,90.16-105.48,143.13-100.26,31.4,3.09,60.52,13.21,75.27,43.25,8.75,17.82,15.92,16.66,31.26,9.06,18.33-9.08,35.97-19.34,57.06-24.03,57.7-12.84,124.97,41.85,105.82,111.41-7.41,26.9-3.15,40.05,22.32,48.02,5.71,1.78,10.77,5.71,16.03,8.83,55.67,33,60.55,79.4,11.09,121.72-16.62,14.22-33.27,23.86-17.42,49.56,7.66,12.42,1.25,26.88-7.46,38.62-35.79,48.25-120.45,67.74-176.27,39.54-7.25,14.73-13.56,30.03-21.94,44.09-19.93,33.44-74.54,46.39-110.74,32.79-90.37-33.95-128.9-105.63-147.35-193.35-11.3-53.74-23.63-62.35-74.16-47.59-46.77,13.66-93.31,28.18-139.52,43.64-31.15,10.42-35.03,29.2-14.52,55.18,37.24,47.18,80.3,88.79,122.88,130.93,10.3,10.2,18.5,16.53,34.33,8.88,13.21-6.38,29.68-5.62,43.65-10.86,61.3-23.03,113.29.27,163.02,32.42,17.57,11.36,23.55,30.09,9.78,47.85-12.91,16.65-7.99,28.18,5.56,38.83,11.59,9.1,17.03,21.96,21.41,34.51,15.58,44.64-14.23,83.89-61.45,81.73-12.23-.56-24.29-4.37-36.53-5.22-20.93-1.46-38.34-.82-55.67,19.01-30.95,35.4-98.47,38.84-139.4,18.45-23.09-11.5-20.59-36.35-34.85-49.69-13.22-12.37-36.86-3.38-51.84-23.02-35.24-46.23-14.12-129.53,42.78-157.06,32.09-15.53,31.75-15.21,7.33-41.46-40.42-43.47-89.5-79.66-114.25-136.45-4.27-9.79-14.18-10.65-23.87-6.76-22.57,9.07-45.07,18.32-67.69,27.26-13.69,5.42-15.57,15.22-15.63,29.2-.25,56.83-32.28,95.01-88.13,107.88-48.08,11.08-48.39,11.07-49.39,58.47-2.55,120.03-13.66,239.75-12.47,359.92.82,82.04.28,81.95,79.34,81.91,124.7-.07,249.4.49,374.1-.37,30.5-.21,48.83,10.88,66.32,37.29,40.25,60.8,83.44,119.44,114.7,185.87,44.5,94.58,63.89,194.15,58.47,297.97-3.77,72.15-7.66,144.76-23.48,215.45-18.23,81.46-47.49,159.45-81.65,235.73-16.5,36.85-49.34,39.34-81.17,44.41-96,15.29-193.04,16.62-289.91,19.59-183.26,5.63-366.44-2.42-549.64-4.7-90.76-1.13-181.25-7.85-270.62-25.23-29.68-5.77-52.24-22.31-71.57-44.86-37.55-43.8-59.25-97.31-70.08-150.92-24.77-122.71-34.72-246.88-16.19-372.84,18.21-123.79,67.02-231.15,148.95-324.74,25.03-28.6,48.02-58.77,78.75-82.08,17.45-13.24,35.57-22.15,57.52-22.08,69.15.23,138.06-6.27,207.51-2.04,53.47,3.26,107.5-3.59,161.31-4.7,18.84-.39,23.35-10.42,24.52-26.05,5.73-76.72,10.35-153.55,18.18-230.06,3.38-32.97-7.6-55.09-34.16-72.41-40.35-26.32-80.45-53.05-120.25-80.2-18.19-12.41-29.5-9.65-36.48,11.89-20.17,62.27-81.08,77.61-127.39,109.76-57.27-2.65-120.77,15-159.31-48.7-6.39-10.57-13.75-10.83-21.24-2.14-13.73,15.93-29.48,19.11-49.67,13.2-18.74-5.49-37.06,1.24-50.97,13.87-25.62,23.27-55.13,16.1-83.4,11.75-20.34-3.13-36.22-31.73-30.43-59.87,4.87-23.67,1.39-39.55-14.81-57.7-19.59-21.95-9.41-51.98-12.37-84.17-28.89,35.27-63.31,45.66-103.85,36.25-15.36-3.57-25.63,5.92-36.09,15.48-13.71,12.52-29.18,22.91-48.12,25.41-16.21,2.14-33.96,7.99-44.92-11.47,64.12-.36,104.7-36.03,129.77-90.33,8.9,2.98,10.04,7.27,11.78,11.59,15.77,39.14,39.53,42.65,65.48,9.79,18.35-23.24,20.56-50.69,20.45-78.77-.1-24.63-1.68-49.41.5-73.85,2.23-25.03,26.74-39.71,35.21-62.3-49.86-27.82-70.59-47.78-108.08-97.22-25.14-33.15-60.53-46.27-101.6-43.27-27.91,2.04-37.4,16.7-28.92,43.96,4.63,14.89,14.07,27.09,24.24,38.88,8.68,10.05,24.75,13.3,27.64,29.76-13.03,13.58-29.69,13.16-46.33,13.84-30.11,1.22-57.15,11.93-81.08,29.74-14.46,10.77-22.67,25.69-17.76,44.29,4.99,18.88,19.03,26.67,37.91,27.64,11.17.57,23.46-2.4,32.98,5.15-2.9,15.38-13.73,13.63-22.04,16.19-17.6,5.44-35.7,9.79-52.52,17.07-21,9.09-34.91,34.88-30.34,51.53,5.47,19.9,30.84,33.7,56.13,29.96,20.36-3.02,37.29-13.44,53.56-25.49,9.3-6.89,18.99-17.16,31.58-5.28.54,9.38-5.85,14.02-11.69,18.95-24.55,20.71-38.69,43.82-19.7,76.1,3.6,6.11.28,11.34-7.9,11.21-25.51,4.6-22.52-15.52-22.49-28.88.04-25.09-11.01-30.73-34.16-28.22-20.7,2.25-42.05,3.66-56.72-19.13-14.77-22.95-11.1-46.95-10.09-71.18.16-3.89,3.4-9.54,6.75-11.13,32.56-15.47,30.63-38.41,22.43-69.44-8.76-33.12,6.25-51.36,39.71-65.73,25.44-10.93,50.76-22.15,77.16-33.69-22.55-25.93-29.39-55.45-25.12-88.5,2.31-17.8,9.18-25.24,28.69-27.36,58.22-6.32,108.53,8.4,152.39,50.45,33.64-45.86,74.99-80.75,126.71-101.49,18.87-7.56,15.11-18.44,10.97-32.59-4.34-14.83-24.62-27.08-10.98-44.81,13.03-16.93,32.34-23.1,53.04-29.75,30.18-9.69,60.93-2.84,90.44-10.57,24.74,16.32,54.23,13.86,81.4,20.63,18.54,7.34,37.78,13.32,55.39,22.45,14.72,7.62,25.44,4.96,37.8-4.26,79.29-59.12,166.37-104.65,255.95-145.79,14.96-6.87,30.54-13.33,39.09-28.85-12.58-25.01-30.82-43.89-46.24-64.81-8.93-12.11-19.52-17.14-34.82-18.06-78.26-4.69-156.43-10.82-234.67-15.95-23.71-1.55-58.4,44.7-51.46,67.77,2.65,8.82,10.75,9.66,18.29,11.33,15,3.32,30.5,5.49,44.74,10.89,26.55,10.07,36.94,40.2,27.46,74.54-6.36,23.06-27.2,38.49-53.27,31-21.73-6.25-31.1.65-40.45,17.13-6.18,10.89-15.87,18.66-27.53,23.66-24.57,3.09-48.06-5.57-72.25-6.68Zm549.99,428.06c28.41-5.95,48.19-36.33,88.35-30.52-25.56,17.67-45.09,32.47-65.88,45.22-27.46,16.84-53.94,31.73-63.77,67.45-7.4,26.88-9.83,30.22,18.24,33.92,55.37,7.3,106.97-5.98,155.8-31.16,19.61-10.11,38.28-24.17,38.28-48.24,0-26.61-22.82-28.94-42.95-31.99-6.86-1.04-11.88-4.96-10.79-11.9.58-3.73,4.83-7.59,8.38-9.97,3.68-2.47,8.67-2.89,12.81-4.8,29.36-13.48,47.71-46.85,43.25-78.36-3.56-25.16-14.36-32.95-59.09-36.7-16.24-1.36-18.55-7.6-13.69-20.28,2.17-5.66,6.26-10.57,9.36-15.9,11.78-20.25,8.79-38.56-8.52-53.85-17.01-15.02-33.97-7.98-51.18,1.09-19.41,10.23-29.08,29.95-41.02,44.29-13.47-1.85-14.03-10.99-17.52-17.21-11.9-21.17-28.94-31.12-53.49-26.72-25.02,4.49-36,22.72-40.95,44.61-3.35,14.8-3.89,30.56-3.41,45.82.64,19.95-2.57,30.72-27.44,30.45-34.11-.38-42.44,15.24-30.06,46.57,6.44,16.31,75.5,109.36,97.22,130.08,16.15-31.88,21.81-63.52,13.73-97.8-7.04-29.88-12.9-60.04-19.69-89.99-2.23-9.82-3.01-18.31,10.39-23.23,20.49,27.29,6.73,65.55,29.61,96.24,24.2-29.84,28.26-68.93,58.13-102.79-3.57,55.21-34.11,93.37-40.78,138.32-1.28,2.34-4.22,5.49-3.54,6.87,2.64,5.41,6.64,3.13,10.24.47Zm245.23-1215.75c1.16,1.01,2.87,3.14,3.4,2.87,54.01-26.91,95.82-69.13,137.07-111.57,13.18-13.56,5.21-29.75-6.77-40.84-15.65-14.49-34.75-19.07-55.57-11.57-10.11,3.64-19.75,9.08-30.12,11.38-14.26,3.18-20.6-4.27-16.48-18.14,2.14-7.19,6.18-14.32,10.99-20.13,22.92-27.74,7.05-59.44-14.91-76.75-33.25-26.2-70.22-44.82-113.99-41.63-35.63,2.59-75.81,8.89-94.79,38.18-13.55,20.91-28.26,28.94-47.52,36.72-14.14,5.71-29.73,8.78-40.53,20.79-8.45,9.4-11.05,18.68,2.68,26.02,5.42,2.9,10.95,5.6,16.28,8.66,47.02,26.92,52.61,44.7,29.79,93.22-2.35,4.99-8.55,9.53-.47,20.55,27.34,6.09,46.73,24.84,48.84,59.04.79,12.73,9.18,23.13,21.88,27.45,30.45,10.37,59.61,24.72,91.89,29.56,41.43,6.21,55.15-6.3,58.85-54.38l-.52.57Zm-82.65,2716v-.79c96.94,0,193.93,1.8,290.8-.73,51.99-1.36,103.93-9.11,155.62-16,32.14-4.29,54.21-18.68,64.11-55.22,16.2-59.79,22.78-120.63,30.87-181.42,14.95-112.27,14.38-223.47-24.34-332.02-22.3-62.52-21.4-61.49-85.97-49.73-109.16,19.89-220.09,21.69-330.41,24.88-209.1,6.05-418.23,2.08-626.89-14.95-68.79-5.61-138.23-5.4-206.08-20.32-41.73-9.17-48.71-5.34-68.03,32.93-35.84,70.98-55.54,147.23-64.78,224.94-11.36,95.47,5.97,189.92,26.58,283.24,1.62,7.33,5.94,14.16,9.53,20.95,12.99,24.59,30.61,40.42,61.13,41.48,33.65,1.17,67.16,6.76,100.72,10.55,137.38,15.5,275.32,24.46,413.28,31.41,84.42,4.25,169.22.78,253.85.78Zm-95.81-1895.47c3.43-1.01,6.87-2.02,10.3-3.03,3.65-16.13,8.74-32.09,10.66-48.42,4.79-40.68,19.63-75.94,44.55-109.11,39.79-52.98,77.5-108.24,126.24-152.79,51.44-47.01,70.7-96.55,52.56-166.23-19.27-74.03-23.89-151.81-58.57-221.98-7.75-15.67-14.57-28.69-35.37-31.08-41.48-4.76-80.78-18.97-118.75-35.86-17.84-7.93-29.88-8.52-43.08,9.07-20.18,26.89-50.11,41.01-82.35,47.43-49.7,9.9-98.36,25.79-149.33,28.56-18,.98-26.88,7.98-31.86,26.02-20.97,75.93-34.47,152.86-37.74,231.64-.91,21.93,7.08,38.78,23.2,52.64,52.55,45.16,99,95.79,137.29,153.69,5.19,7.85,10.87,14.97,22.92,13.8,19.01-39.97,24.07-85.01,40.4-126.06,11.16-28.05,7.24-49.38-11.79-71.2-30.07-34.47-39.09-75.63-35.38-120.45,3.59-43.46,31.15-65.82,74.76-60.23,8.58,1.1,16.52,8.17,25.81,3.3,10.78-17.91,9.85-38.81,16.18-57.75,12.56-37.61,31.59-49.64,69.03-41.26,41.23,9.23,67.48,41.91,60.19,84.63-4.8,28.15.22,40.02,28.14,49.33,47.25,15.75,57.74,63.7,25.26,101.84-11.07,13-25.27,22.33-39.96,30.98-10.43,6.14-22.51,10.86-26.53,24.18-11.31,37.48-40.89,41.96-73.51,40.36-15.36-.75-31.47.05-45.83-4.38-26.37-8.15-37,4.56-43.44,26.65-12.9,44.25-26.1,88.41-38.8,132.72-3.43,11.97-4.96,24.44,2.38,35.76,34.06,52.46,68.26,104.82,102.42,157.22Zm745.47,377.81c15.92-1.47,20.12,10.4,27.79,17.24,46.87,41.77,89.67,44.78,142.54,10.06,36.44-23.93,37.37-30.96,8.83-67.19-1.89-2.41-4.21-4.51-5.9-7.04-6.58-9.85-4.4-17.66,6.87-21.12,7.24-2.22,15.83-.62,22.68-3.46,19.97-8.26,40.37-17.18,44.78-41.95,4.03-22.64-9.26-37.78-24.26-51.85-11.46-10.76-25.41-17.47-39.75-23.02-12.75-4.94-26.93-6.48-37-16.73-.39-12.56,9.62-19.15,15.27-28,13.96-21.86,12.81-43.33.86-65.51-19.99-37.12-56.21-48.52-98.8-30.8-24.83,10.33-45.52,29.75-72.59,36.31-3.38-6.78-5.91-10.67-7.35-14.92-17.6-52.01-75.08-75.65-120.5-46.83-37.67,23.9-64.55,58.14-69.73,103.94-3.88,34.31-.67,69.25-9.45,106.31,51.07.48,95.59.11,126.33-44.92,11.98-17.54,29.78-31.09,48.54-42.22,8.01-4.75,15.99-9.89,27.24-1.39-19.84,25.1-56.5,36.83-63.48,75.24,33.24,2.4,64.18-15.23,100.58-1.41-26.07,23.05-60.44,9.73-84.24,31.56,20.88,32.2,61.66,41.54,86.68,70-17.84,11.28-29.85,1.53-41.12-5.29-18.4-11.14-37.81-21.97-53-36.8-41.21-40.24-87.42-28.15-134.13-16.6-14.24,3.52-19.58,12.18-16.34,27.43,10.58,49.91,22.7,99.56,53.52,141.22,26.56,35.9,62.64,59.65,108.36,62.82,46.33,3.22,68.48-22.65,63.36-68.38-1.68-14.95-14.36-28-6.58-46.71Zm-987.72-22.58c-4.27-17.58-7.23-27.63-9.1-37.88-5.56-30.44,1.39-47.45,30.4-50.39,31.52-3.2,36.22-20.55,37.09-44.76.63-17.51,6.65-33.12,16.58-47.12,20.11-28.36,60.12-37.74,90.36-21.73,11.99,6.35,19.37,27.02,38.49,11.22,12.29-10.15,21.84-20.76,23.82-37.6,1.96-16.72,5.1-33.45,9.42-49.72,5.55-20.93,1.38-38.68-10.9-56.34-29.82-42.86-59.56-85.85-87.34-130.03-13.4-21.3-27.8-26.06-49.36-14.35-72.8,39.55-149.78,71.31-219.39,116.74-19.23,12.55-36.99,27.4-55.19,41.48-14.2,10.99-17.39,23-6.8,39.67,12.3,19.37,22.29,40.28,32.29,61.01,23.14,47.98,24.78,97.46,8.7,147.87-3.18,9.96-6.24,19.96-10.21,32.66,29.47,2.56,55.06-12.66,83.03-8.2,29.87,4.76,43.9,32.58,78.12,47.47Zm-356.69-188.07c-1.27-3.47-2.55-6.94-3.82-10.41-27.43,0-54.87.48-82.26-.5-4.35-.16-12.5-4.98-8.56-12.97,1.75-3.53,6.4-7.69,9.92-7.86,7.43-.36,15.01,1.53,22.47,2.82,74.8,12.99,125.32-25.79,169.38-78.93,9.44-11.39,6.94-21.25-4.75-25.94-52.66-21.1-105.82-41.86-164.31-35.04-23.85,2.78-56.17.28-63.37,27.46-6.49,24.52,14.57,45.04,36.25,59.37,6.57,4.34,11.94,10.11,7.92,19.02-4,8.85-12.26,8.66-19.69,7.21-58.21-11.31-96.38,25.22-132.95,59.4-35.7,33.36-22.94,80.91,23.23,98.63,12.69,4.87,26.2,9.1,40.49,7.44,7.64-.89,16.01-1.59,19.01,7.73,2.88,8.94-4.22,14.23-9.85,19.13-9.27,8.07-19.95,14.63-28.68,23.2-31.35,30.8-24.38,66.49,15.94,84.3,32.3,14.27,66.92,7.05,92.61-20.2,7.31-7.76,12.82-17.22,19.17-25.88,13.81-18.82,30.91-25.95,51.38-11.38,18.1,12.89,33.08,9.61,50.06-2.67,28.3-20.46,60.92-31.32,95.64-26.04,28.47,4.34,37.88-10.55,46.21-32.69,23.05-61.22,11.07-116.64-21.66-171.35-31.06-51.93-40.36-53.62-77.42-6.36-8.7,11.1-7.68,22.2-7.36,34.62.96,36.88,1.27,73.79.85,110.68-.11,9.4,2.91,21.77-12.03,27-6.22-5.93-6.2-13.35-6.41-20.64-.85-29.2-1.6-58.4-2.51-87.6-.23-7.5.45-16.32-9.2-18.45-6.27-1.39-11.61,2.83-16.04,7.36-20.44,20.87-40.84,41.78-61.36,62.57-4.58,4.64-10.12,7.22-16.04,2.46-6.9-5.55-2.5-11.76,1.21-15.9,15.12-16.87,30.94-33.13,46.5-49.62Zm1500.67-489.52c-32.22,4.03-53.69-10.89-68.19-33.13-20.4-31.31-46.8-34.26-79.73-27.36-22.82,4.78-31.55,16.1-28.05,38.31,7.81,49.54,31.8,89.91,72.12,119.14,17.74,12.86,38.74,15.53,61.56,8.19,34.07-10.97,50.67-32.77,50.96-67.96.07-8.1,1.8-15.92,10.81-17.96,8.35-1.9,14.43,2.78,19.05,9.75,4.23,6.39,8.27,13.17,13.66,18.5,38.02,37.52,96.6,36.32,131.83-2.35,20.73-22.75,20.82-38.08-.77-59.47-8.71-8.63-19.42-15.24-28.16-23.85-9.28-9.14-11.19-18.81,3.8-24.64,5.69-2.21,12.18-2.39,17.79-4.73,45.89-19.19,54.45-64.48,18.51-99.74-20.45-20.06-45.55-30.89-74.15-33.8-10.12-1.03-21.86,3.32-30.32-9.12,2.48-9.35,6.08-19.52,7.79-29.99,5.4-33.22-10.12-54.13-44.04-56-129.8-7.17-199.51,79.42-214.64,188.66-1.04,7.54-1.28,15.87,5.66,21.21,12.21,9.4,52.78-.77,59.85-15.64,20.71-43.56,58.16-70.35,96.11-96.41,7.5-5.15,17.18-13.32,28.5-4.42-60.58,43.87-92.79,77.91-103.58,109.3,27.96,5.28,54.77-5.29,82.28-5.92,7.68-.18,16.88.2,18,9.9,1.07,9.29-7.41,12.37-14.87,13.58-22.1,3.57-45.4-.87-68.15,8.52,6.32,33.11,45.64,36.41,56.35,67.44Zm-1586.76-174.06c10.78,7.03,11.12,13.26,12.9,19.04,15.43,49.86,53.2,65.54,99.77,42.27,40.45-20.22,56.41-58.23,59.85-97.81,2.52-28.94,11.09-53.23,23.23-77.86,7.46-15.14,16.09-29.81,22.35-45.43,10.95-27.35,11.42-54.71-10.18-77.44-42.55-44.77-95-72.29-155.44-84.21-22.03-4.34-50.65-3-59.41,14.74-16.99,34.41-43.11,28.13-69.62,26.79-29.18-1.47-54.86,6.44-76.67,25.47-33.27,29.02-26.38,71.43,14.14,88.31,8.46,3.52,17.83,4.82,26.37,8.2,19.69,7.8,21.64,18.92,5.14,33.24-12.67,10.99-27.98,18.47-38.53,32.46-29.29,38.84-23.87,70.33,15.47,97.3,45.06,30.9,88.31,31.3,130.65-5.08Zm132.58,1090.74c3.51-.34,9.63-1.31,15.76-1.42,7.27-.12,15.87-2.54,19.77,6.66,3.75,8.85-3.38,14.03-7.93,19.9-3.77,4.86-8.19,9.3-11.42,14.49-13.91,22.41-12.16,35.24,6.96,52.53,10.47,9.47,22.84,15.07,36.45,18.98,57.98,16.69,149.15-17.79,182.92-69.09,7.19-10.93,7.88-22.86,10.08-34.95,3.08-16.96,9.7-32.3,26.09-41.45,26.11-14.59,36.96-40.56,47.08-66.35,21.04-53.64,5.56-96.72-44-125.38-6.64-3.84-15.81-5.66-19.84-11.26-28.73-40-65.42-32.51-103.19-18.43-23.33,8.7-45.67,12.94-71.42,6.89-35.05-8.23-66.66,3.35-92.54,29.31-9.59,9.61-12.63,17.24-5.97,31.79,16.42,35.85,15.74,37.45-17.43,63.23-23.55,18.3-35.5,41.73-40.4,70-6.12,35.3,6.76,51.64,43.31,54.43,7.65.59,15.39.08,25.72.08ZM1998.15,169.31c-3.7-7.76-1.75-15.31-.48-22.88,6.9-41.16-4.2-56.64-44.64-62.34-35.86-5.05-68.13,15.66-85.43,56.67-6.53,15.47-9.28,32.49-14.93,48.38-5.51,15.5-14.91,18.86-27.1,5.67-3.14-3.39-5.91-7.26-9.51-10.06-40.02-31.15-69.11-19.1-75.18,32.21-2.52,21.26-2.87,43.01,1.72,64.39,6.13,28.54,16.72,57.1,17.01,85.74.71,68.5,49.11,84.8,100.48,98.77,31.3,8.51,57.13-5.52,79.93-25.63,7.01-6.19,12.74-14.78,9.29-24.53-10.95-30.87,5.29-31.12,27.65-25.7,38.01,9.23,69.81-4.13,97.04-29.23,24.57-22.64,21.58-35.14-9.06-51.34-16.61-8.79-32.25-14.94-52.29-8.11-17.19,5.86-36.24,6.46-54.55,8.71-8.29,1.02-16.17-2.33-16.45-11.55-.2-6.56,6.96-9.93,13-10.29,27.64-1.68,55.34-3.96,82.99-3.64,25.4.3,47.02-5.91,56.49-30.71,9.34-24.45-3.4-44.81-19.22-62.78-9.53-10.82-21.61-16.58-36.31-17.82-13.56-1.14-27.77,3.42-40.45-3.91Zm-934.14,170.03c-10.05,19.79-23.12,18.29-35.01,18.83-15.35.69-30.78,0-46.09,1.03-39.16,2.67-49.96,12.7-57.14,51.48-4.57,24.68-.46,31.84,24.91,30.43,56.74-3.15,112.3-14.72,166.73-30.79,11.29-3.33,21.58-11.61,31.07-19.19,20.72-16.53,31.54-37.2,23.92-64.74-7.08-25.58-26.85-30.07-49.46-33.22-32.12-4.47-33.25-9.19-12.17-35.75,2.86-3.61,6.48-6.64,9.17-10.35,21.7-30.04,16.43-50.53-17.16-65.52-17.08-7.62-35.89-14.9-53.39-6.35-25.87,12.65-35.86,6.73-45.23-20.86-12.49-36.78-33.6-41.62-69.11-24.58-29.43,14.12-41.44,40.11-47.3,69.57-4.18,20.99-5.94,42.48-8.3,63.81-1.51,13.67-5.94,21.44-22.05,23.55-33.77,4.42-46.09,22.41-40.91,55.07,6.74,42.5,34.68,71.2,65.85,96.85,10.81,8.9,20.73,4.07,21.3-11.14.64-17.15,2.48-34.15,11.8-48.73,20.15-31.5,24.31-62.86,13.2-100.01-9.33-31.18-.91-63.58,18.52-90.7q-2.29,73.05,12.31,102.61c16.41-8.19,14.59-32.84,37.88-41.21-5.97,33.07-29.35,56.59-31.71,89.9h98.36ZM354.45,1011.04c9.7,21.17,12.27,39.04,13.73,56.92,1.52,18.6,8.55,32.98,27.17,38.47,17.81,5.26,33.76-1.07,46.59-13.18,13.6-12.83,21.76-29.47,27.63-47.22,19.89-60.15,10.67-121.7,8.26-182.82-.33-8.35-6.35-17.28-11.67-24.51-39.51-53.71-104.91-68.89-164.2-38.66-37.88,19.32-39.93,33.61-9.21,64.21,21.32,21.23,20.38,26.99-8.46,33.62-32.41,7.44-61.49,19.74-81.39,47.6-15.12,21.18-14.07,52.01,1.84,68.2,17.58,17.88,35.34,14.24,52.96-.56,5.9-4.96,13.49-10.24,19.34-1.5,4.72,7.05.34,14.89-4.99,20.67-9.37,10.15-19.41,19.68-28.9,29.73-8.62,9.12-17.28,19.39-10.72,32.51,6.21,12.42,19.55,13.8,32.01,14.33,29.55,1.26,56.47-19.36,67.97-52.17,4.9-13.99,4.56-30.16,22.03-45.63Zm1265.94,816.92c-8.17-17.23.32-31.58,2.01-46.45,3.78-33.46-9.14-63.61-29.41-71.13-26.24-9.73-58.28.04-79.12,24.13-21.16,24.45-25.99,54.95-12.54,81.15,4.96,9.66,12.06,17.53,20.4,24.72,16.43,14.16,31.32-9.69,47.13-1.71,2.79,53.48,19.42,71.96,66.65,74.67,50.52,2.9,69.57-16.33,80.15-81.54,12.57-2.79,18.94,7.6,27.51,13.24,15.55,10.25,31.86,18.75,50.8,20.64,18.52,1.85,38.44,5.46,48.32-16.07,9.71-21.17,7.95-41.95-8.49-60.01-12.72-13.97-28.03-23.74-46.22-29.24-5.82-1.76-11.49-5.37-11.75-12.39-.28-7.46,5.55-10.11,11.69-11.83,12.78-3.56,31.41-2.79,31.25-20.33-.13-14.53-16.75-20.35-28.47-27.58-15.92-9.82-33.28-15.32-51.32-19.88-34.27-8.65-63.38,4.49-92.11,19.9-7.26,3.9-12.04,10.85-7.64,18.89,2.97,5.43,9.78,6.6,16.36,4.92,20.86-5.34,41.8-10.34,62.59-15.93,9.58-2.58,18.45-5.26,20.4,9.09-16.98,13.81-45.5,7.75-57.84,29.96,4.8,11.66,13.04,16.22,19.94,22.15,5.63,4.84,13,9.98,5.95,18.67-4.97,6.12-10.95,2.18-16.74.44-13.07-3.94-22.21-17.1-39.34-16.03-10.98,21.01-3.77,51.8-30.14,67.55Zm-28.16-652.39c34.86-14.24,61.82-24.97,88.53-36.28,12.7-5.38,24.89-11.95,37.38-17.85,24.71-11.69,42.21-30.79,53.45-55.08,7.3-15.77,10.07-34.24-3.17-47.52-12.42-12.47-30.32-13.22-47.79-10.28-12.03,2.03-17.57,18.36-34.13,13.72-5.68-21.11-.03-48.03-30.72-59.17-45.3-16.44-73.27-6.55-92.55,38-7.4,17.1-11.33,34.85-11.73,53.59-.32,14.97,3.03,31.27-12.6,43.6-4.81-1.96-10.47-3.94-15.84-6.51-34.47-16.42-41.59-13.74-53.43,20.36-16.29,46.94,7.56,114.11,51.22,144.24,24.17-26.99,26.47-56.16,12.44-89.3-7.07-16.68-19.17-34.19-10.12-58.41,23.64,15.68,19.93,43.34,35.59,59.54,16.94-5.86,18.61-22.97,25.87-35.82,9.81-17.34,18.45-35.37,28.82-52.35,3.76-6.17,11.28-11.55,19.23-5.39,6,4.66,2.79,11.45.2,16.72-12.63,25.63-30.45,48.77-40.65,84.18Zm-335.86-548.31c-2.45-17.7,5.89-25.67,11.32-34.7,9.2-15.31,10.76-32.05,9.14-49.07-2.44-25.69-23.08-44.71-49-46.35-22.99-1.46-37.68,10.2-42.77,38.91-3.45,19.49-1.91,39.83-3.23,59.74-.65,9.92,4.96,21.85-7.39,28.64-10.91-.21-15.68-9.12-22.57-14.82-14.32-11.84-28.88-26.15-49.08-15.71-21,10.85-28.71,30.51-29.22,53.82-.67,30.73,11.77,56.94,27.23,81.94,6.84,11.06,13.77,30.08,29.7,22.27,16.18-7.93,19.15-25.72,10.98-44.24-6.15-13.94-9.99-29.04-13.56-43.93-1.81-7.58-6.51-17.48,5.82-22.67,19.55,10.63,6.25,40.11,27.96,48.46,24.44-11.07,28.46-45.91,59.38-52.47.44,28.84-32.27,40.43-27.86,67.25,20.61,3.28,35.23-15.47,55.1-8.83-5,19.08-22.69,19.95-35.01,27.37-14.44,8.68-31.07,14.08-42.32,27.41-9.92,11.75-11.17,22.2,7.03,26.87,8.87,2.28,17.79,5.08,26.83,5.8,35.2,2.77,43.23-2.56,51.84-38.98,3.38-14.31,11.6-15.32,22.92-16.56,24.2-2.66,43.48-14.67,57.27-34.6,21.88-31.65,14.15-53.68-20.44-69.05-20.37-9.05-38.49,2.4-60.05,3.5Zm301.15-254.75c-4.62-2.02-9.85-4.59-15.28-6.63-29.29-10.98-39.03-4.4-39.37,27.03-.41,37.83,20.74,62.62,49.67,83.51,21.39,15.44,40.66,25.78,65.16,4.12,12.33-10.91,29.58-16.1,44.2-24.59,27.47-15.96,47.86-38.08,58.92-68.47,6-16.5,11.87-32.77-4.49-46.38-13.7-11.4-28.01-7.82-43.11-.97-32.02,14.51-32.26,13.98-28.59-19.33.5-4.58,1.32-9.16,1.34-13.74.06-11.68-4.63-21.38-15.15-26.58-11.04-5.45-20.65-.5-29.59,6.55-15.31,12.06-23.54,28.42-27.43,46.79-2.86,13.5-2.76,27.75-16.27,38.7ZM454.34,1755.27c-16.65,19.52-27.18,30.62-36.18,42.85-6.29,8.54-11.12,18.03-6.82,30.01,7.45,20.73,32.44,33.23,57.11,27.51,25.83-5.99,52.41-30.85,46.64-48.35-7.54-22.87-3.15-45.83-7.02-68.4-.67-3.93-2.24-5.75-6.21-5.19-13.94-1.14-13.48,25.31-30.86,17.98-3.77-9.81,1.28-16.03,4.45-22.8,11.81-25.22,6.73-33.94-20.12-39.3-14.92-2.98-29.88,7.21-46.54-1.55,15.24-28.91,43.83-22.11,59.53-13.89,36.84,19.3,58.5,2.36,84.21-19.8-29.54-14.65-94.51-23.03-118.41-16.46-39.41,10.83-61.32,61.71-43.09,96,12.71,23.92,33.85,22.82,63.31,21.39Zm-72.29-177.99c-4.87,26.42-9.26,50.25-15.23,82.59,11.83-10.62,16.53-14.25,20.52-18.52,24.98-26.7,53.57-38.25,90.8-27.71,23.39,6.62,48.17,8.42,72.39,11.96,15.73,2.3,56.88-18.94,58.71-34.52,2.27-19.25-8.62-36.95-24.13-49.48-16.06-12.98-32.36-16.85-47.69,2.47-11.44,14.41-24.94,26.71-40.51,36.98-38.17,25.18-75.63,15.82-114.86-3.77Zm242.68-564.41c-17.45-7.08-34.6,21.09-42.22,3.44-9.43-21.84,18.73-20.7,31.42-28.53,2.52-1.55,5.88-1.67,8.7-2.81,6.02-2.42,10.75-6.87,10.33-13.37-.49-7.44-7.17-8.9-13.41-9.58-25.73-2.79-48.8,4.73-68.75,20.31-10.5,8.2-15.61,21.87-5.09,32.07,19.17,18.59,41.7,31.29,34.01,66.77-2.59,11.93,25.63,25.96,44.68,23.88,20.84-2.27,38.3-15.55,41.36-37.38,2.39-17.05,24.37-37.26-3.66-52.47-2.53-1.37-5.88-1.22-9.02-1.81-12.95,13.68-7.18,37.07-23.54,51.78-15.56-18.07-4.23-34.52-4.81-52.31ZM1742.32,413.51c-27.42,24.8-48.94,54.92-82.37,72.02-51.16,26.17-58.88,47.42-41.91,106.65,40.88-30.73,73.91-68.53,109.72-103.48,22.74-22.19,30.44-44.52,14.57-75.2Zm-750.03,1157.51c7.3,32.65,5.24,63.69-10.04,93.22-7,13.53-14.71,26.7-21.33,40.41-3.13,6.48-9.16,12.2-6.26,20.95,4.31,12.97,45.21,42.08,58.52,39.62,21.68-4.01,11.76-24.97,17.82-37.45,5.1-10.51,3.49-24.06,6.69-35.76,14-51.24-11.69-87.19-45.4-120.99Zm107.44,253.36c13.43-33.69,8.66-69.77,15.55-103.76,3.7-18.26-1.13-27.03-20.97-31.95-22.42-5.56-26.81,6.31-30.64,22.23-3.21,13.37-6.99,26.7-8.81,40.27-6.34,47.19-5.16,48.76,44.88,73.21Zm566.76-657.53c-45.28,12.43-75.96,45.39-108.61,74.47-10.69,9.52-2.84,19.25,10.77,21.95,54.18,10.77,100.3-33.59,97.84-96.42Zm-1128.36,525.66c-1.37,13.93-1.92,22.88-3.21,31.72-1.54,10.6-4.05,21.07-5.51,31.68-2.37,17.18,20.48,60.47,35.16,68.35,4.93,2.65,8.85,1.46,12.77-.95,21.27-13.06,23.63-46.38,4.46-61.43q-32.6-25.58-43.67-69.39Zm149.54-693.06c2.78,15.91,22.29,26.48,11.96,45.54-4.26,7.87,6.37,12.2,12.86,14.46,13.5,4.7,23.66-.22,30.26-13.03,7.36-14.28,4.5-27.41-6.47-37.58-13.17-12.22-29.38-14.96-48.62-9.39Z"/>
  <path class="b" d="m654.73,1145.29c-27.16-6.76-56.66-4.31-81.4-20.63-1.59-1.51-1.78-3.18-.56-5,24.19,1.12,47.68,9.78,72.27,6.68-2.12,9.05,5.04,13.35,9.68,18.94Z"/>
  <path class="d" d="m1285.35,3047.98c-84.63,0-169.43,3.47-253.85-.78-137.96-6.95-275.9-15.91-413.28-31.41-33.56-3.78-67.06-9.38-100.72-10.55-30.52-1.06-48.14-16.89-61.13-41.48-3.59-6.79-7.91-13.62-9.53-20.95-20.61-93.32-37.94-187.77-26.58-283.24,9.24-77.72,28.94-153.96,64.78-224.94,19.32-38.27,26.3-42.1,68.03-32.93,67.85,14.92,137.29,14.71,206.08,20.32,208.66,17.02,417.79,20.99,626.89,14.95,110.32-3.19,221.25-5,330.41-24.88,64.58-11.76,63.68-12.79,85.97,49.73,38.71,108.55,39.28,219.75,24.34,332.02-8.1,60.79-14.67,121.63-30.87,181.42-9.9,36.54-31.97,50.93-64.11,55.22-51.69,6.9-103.63,14.64-155.62,16-96.87,2.53-193.86.73-290.8.73v.79Z"/>
  <path class="e" d="m1935.01,1530.33c-7.77,18.72,4.91,31.76,6.58,46.71,5.13,45.73-17.03,71.6-63.36,68.38-45.72-3.17-81.81-26.92-108.36-62.82-30.82-41.66-42.94-91.31-53.52-141.22-3.23-15.25,2.1-23.91,16.34-27.43,46.71-11.55,92.92-23.64,134.13,16.6,15.19,14.84,34.6,25.66,53,36.8,11.27,6.82,23.27,16.57,41.12,5.29-25.02-28.46-65.8-37.8-86.68-70,23.79-21.83,58.17-8.51,84.24-31.56-36.41-13.82-67.34,3.82-100.58,1.41,6.97-38.4,43.64-50.14,63.48-75.24-11.24-8.51-19.23-3.36-27.24,1.39-18.77,11.12-36.57,24.67-48.54,42.22-30.75,45.03-75.27,45.4-126.33,44.92,8.78-37.06,5.57-72,9.45-106.31,5.18-45.8,32.07-80.04,69.73-103.94,45.42-28.82,102.9-5.18,120.5,46.83,1.44,4.25,3.97,8.13,7.35,14.92,27.07-6.56,47.76-25.98,72.59-36.31,42.59-17.72,78.81-6.32,98.8,30.8,11.95,22.18,13.1,43.65-.86,65.51-5.65,8.84-15.66,15.43-15.27,28,10.07,10.25,24.26,11.79,37,16.73,14.34,5.55,28.29,12.26,39.75,23.02,14.99,14.07,28.29,29.2,24.26,51.85-4.41,24.77-24.81,33.69-44.78,41.95-6.86,2.84-15.44,1.23-22.68,3.46-11.26,3.46-13.45,11.27-6.87,21.12,1.69,2.53,4.01,4.63,5.9,7.04,28.54,36.22,27.61,43.26-8.83,67.19-52.87,34.72-95.67,31.71-142.54-10.06-7.67-6.84-11.87-18.71-27.79-17.24Z"/>
  <path class="e" d="m590.6,1319.68c-15.56,16.49-31.37,32.74-46.5,49.62-3.71,4.15-8.11,10.35-1.21,15.9,5.92,4.76,11.46,2.18,16.04-2.46,20.52-20.79,40.92-41.7,61.36-62.57,4.43-4.53,9.77-8.74,16.04-7.36,9.64,2.13,8.96,10.94,9.2,18.45.92,29.2,1.67,58.4,2.51,87.6.21,7.29.19,14.71,6.41,20.64,14.94-5.23,11.92-17.6,12.03-27,.42-36.89.11-73.8-.85-110.68-.32-12.42-1.35-23.52,7.36-34.62,37.06-47.27,46.36-45.57,77.42,6.36,32.73,54.71,44.71,110.14,21.66,171.35-8.34,22.15-17.74,37.03-46.21,32.69-34.72-5.29-67.34,5.58-95.64,26.04-16.98,12.28-31.96,15.56-50.06,2.67-20.47-14.58-37.57-7.45-51.38,11.38-6.35,8.66-11.86,18.12-19.17,25.88-25.69,27.25-60.31,34.47-92.61,20.2-40.32-17.81-47.29-53.51-15.94-84.3,8.73-8.58,19.41-15.13,28.68-23.2,5.63-4.9,12.73-10.19,9.85-19.13-3-9.32-11.37-8.62-19.01-7.73-14.29,1.67-27.79-2.57-40.49-7.44-46.16-17.72-58.93-65.27-23.23-98.63,36.57-34.18,74.74-70.71,132.95-59.4,7.43,1.44,15.7,1.64,19.69-7.21,4.02-8.91-1.36-14.68-7.92-19.02-21.67-14.33-42.74-34.85-36.25-59.37,7.19-27.18,39.51-24.68,63.37-27.46,58.48-6.82,111.64,13.94,164.31,35.04,11.69,4.68,14.19,14.55,4.75,25.94-44.07,53.14-94.58,91.92-169.38,78.93-7.46-1.3-15.04-3.18-22.47-2.82-3.52.17-8.17,4.33-9.92,7.86-3.94,7.99,4.21,12.81,8.56,12.97,27.39.98,54.83.5,82.26.5,1.27,3.47,2.55,6.94,3.82,10.41Z"/>
  <path class="e" d="m2091.27,830.16c-10.7-31.02-50.03-34.33-56.35-67.44,22.75-9.38,46.04-4.95,68.15-8.52,7.46-1.2,15.94-4.29,14.87-13.58-1.12-9.7-10.33-10.07-18-9.9-27.52.63-54.33,11.21-82.28,5.9,10.79-31.38,43-65.41,103.58-109.28-11.31-8.9-20.99-.73-28.5,4.42-37.95,26.06-75.4,52.85-96.11,96.41-7.07,14.87-47.64,25.05-59.85,15.64-6.94-5.35-6.71-13.67-5.66-21.21,15.13-109.24,84.84-195.83,214.64-188.66,33.92,1.87,49.44,22.78,44.04,56-1.71,10.48-5.31,20.65-7.79,29.99,8.45,12.44,20.2,8.09,30.32,9.12,28.59,2.91,53.7,13.74,74.15,33.8,35.94,35.26,27.38,80.55-18.51,99.74-5.61,2.35-12.11,2.52-17.79,4.73-14.99,5.83-13.09,15.5-3.8,24.64,8.74,8.6,19.45,15.22,28.16,23.85,21.59,21.38,21.49,36.72.77,59.47-35.23,38.67-93.82,39.87-131.83,2.35-5.39-5.32-9.42-12.11-13.66-18.5-4.62-6.97-10.69-11.65-19.05-9.75-9.01,2.04-10.74,9.86-10.81,17.96-.3,35.19-16.9,56.99-50.96,67.96-22.81,7.34-43.82,4.67-61.56-8.19-40.32-29.22-64.31-69.6-72.12-119.14-3.5-22.21,5.24-33.53,28.05-38.31,32.93-6.9,59.33-3.95,79.73,27.36,14.49,22.24,35.96,37.16,68.19,33.13Z"/>
  <path class="e" d="m504.52,656.1c-42.35,36.37-85.59,35.97-130.65,5.08-39.35-26.98-44.76-58.46-15.47-97.3,10.55-14,25.87-21.48,38.53-32.46,16.51-14.32,14.55-25.44-5.14-33.24-8.53-3.38-17.91-4.68-26.37-8.2-40.51-16.89-47.4-59.29-14.14-88.31,21.82-19.03,47.49-26.94,76.67-25.47,26.51,1.34,52.63,7.62,69.62-26.79,8.76-17.74,37.38-19.08,59.41-14.74,60.44,11.92,112.89,39.44,155.44,84.21,21.6,22.73,21.13,50.09,10.18,77.44-6.25,15.62-14.88,30.29-22.35,45.43-12.14,24.62-20.71,48.92-23.23,77.86-3.44,39.58-19.39,77.59-59.85,97.81-46.57,23.27-84.34,7.59-99.77-42.27-1.79-5.78-2.12-12.01-12.9-19.04Zm129.82-77.37c-3.46-22.37-15.84-33-28.67-39.49-27.71-14.02-33.94-36.92-34.08-64.65-.13-25.56-4.32-50.6-17.58-74.91v105.13c-40.45-10.53-68.14-42.18-109.38-39.2,29.12,36.31,79.96,42.15,115.76,78.73-24.17,10.48-43.98,18.18-62.95,27.58-17.5,8.67-41.33,8.77-51.45,33.58,7.54,1.29,12.62,3.86,16.11,2.46,18.47-7.43,36.62-15.67,54.72-23.99q60.43-27.78,117.52-5.24Z"/>
  <path class="e" d="m637.09,1746.84c-10.33,0-18.07.5-25.72-.08-36.55-2.8-49.43-19.14-43.31-54.43,4.9-28.27,16.85-51.7,40.4-70,33.17-25.78,33.85-27.38,17.43-63.23-6.66-14.55-3.62-22.18,5.97-31.79,25.88-25.96,57.5-37.54,92.54-29.31,25.75,6.05,48.09,1.81,71.42-6.89,37.77-14.09,74.46-21.58,103.19,18.43,4.03,5.61,13.2,7.43,19.84,11.26,49.55,28.66,65.04,71.74,44,125.38-10.12,25.79-20.97,51.76-47.08,66.35-16.39,9.15-23.01,24.49-26.09,41.45-2.19,12.09-2.88,24.02-10.08,34.95-33.77,51.3-124.94,85.77-182.92,69.09-13.61-3.92-25.99-9.51-36.45-18.98-19.12-17.3-20.87-30.12-6.96-52.53,3.22-5.19,7.65-9.63,11.42-14.49,4.55-5.87,11.68-11.05,7.93-19.9-3.89-9.19-12.5-6.78-19.77-6.66-6.13.1-12.25,1.08-15.76,1.42Zm249.6-54.43c-20.23-22.49-52.71-26.33-64.24-57.88-9.73-26.62-12.86-58.56-39.66-82.56-6.43,37.64,14.58,65.37,19.48,97.62-38.77-.38-66.84-32.17-111.83-26.19,33.96,32.59,79.08,30.66,107.02,57.61-18.03,31.18-58.35,41.54-65.78,88.08,29.47-23.18,52.55-40.83,75.06-59.18,17.52-14.29,34.86-25.61,58.14-11.66,5,2.99,11.9,3.14,21.8-5.84Z"/>
  <path class="e" d="m1998.15,169.31c12.68,7.33,26.89,2.77,40.45,3.91,14.7,1.24,26.79,7,36.31,17.82,15.83,17.98,28.56,38.33,19.22,62.78-9.47,24.79-31.09,31.01-56.49,30.71-27.65-.33-55.35,1.96-82.99,3.64-6.04.37-13.2,3.73-13,10.29.28,9.22,8.16,12.56,16.45,11.55,18.31-2.24,37.36-2.85,54.55-8.71,20.04-6.83,35.68-.67,52.29,8.11,30.64,16.2,33.63,28.7,9.06,51.34-27.24,25.1-59.03,38.46-97.04,29.23-22.35-5.43-38.59-5.18-27.65,25.7,3.46,9.76-2.27,18.35-9.29,24.53-22.8,20.11-48.63,34.14-79.93,25.63-51.37-13.97-99.78-30.26-100.48-98.77-.29-28.64-10.88-57.19-17.01-85.74-4.59-21.38-4.24-43.12-1.72-64.39,6.07-51.31,35.16-63.35,75.18-32.21,3.6,2.8,6.38,6.67,9.51,10.06,12.19,13.19,21.59,9.83,27.1-5.67,5.65-15.89,8.41-32.91,14.93-48.38,17.3-41.01,49.57-61.72,85.43-56.67,40.44,5.7,51.54,21.19,44.64,62.34-1.27,7.56-3.23,15.11.48,22.88Zm-83.23,80.67c-1.66-1.75-3.37-3.46-5.11-5.12-3.56-20.76,12.61-43.28-2.11-63.93-4.84,1.67-6.5,1.79-7.49,2.66-6.48,5.72-6.29,13.76-6.54,21.31-1.82,56.89-17.38,107.86-59.44,149.1-9.79,9.6-21.24,21.83-16.28,43.61,30.37-16.12,39.15-46.33,58.46-66.84,19.99-21.23,38.23-44.27,55.76-67.62,16.11-21.47,41.18-37.71,46.78-71.29-31.36,13.64-38.98,45.28-64.04,58.13Z"/>
  <path class="e" d="m1368.53,331.4c-3.7,48.08-17.43,60.6-58.85,54.39-32.28-4.84-61.44-19.19-91.89-29.56-12.71-4.33-21.1-14.72-21.88-27.45-2.11-34.21-21.49-52.95-48.84-59.04-8.08-11.02-1.87-15.55.47-20.55,22.82-48.52,17.23-66.29-29.79-93.22-5.33-3.05-10.86-5.76-16.28-8.66-13.72-7.34-11.13-16.62-2.68-26.02,10.8-12.01,26.38-15.08,40.53-20.79,19.25-7.78,33.96-15.81,47.52-36.72,18.98-29.28,59.16-35.59,94.79-38.18,43.76-3.18,80.74,15.44,113.99,41.63,21.96,17.31,37.84,49.01,14.91,76.75-4.8,5.81-8.85,12.94-10.99,20.13-4.13,13.88,2.22,21.32,16.48,18.14,10.37-2.31,20.01-7.74,30.12-11.38,20.82-7.51,39.92-2.92,55.57,11.57,11.98,11.09,19.95,27.28,6.77,40.84-41.25,42.45-83.06,84.66-137.07,111.57-.52.26-2.24-1.86-3.4-2.87-8.31-28.19-30.4-51.77-27.94-83.56,28.03-16.19,38.4-38.8,36.55-82.06-25.27,22.98-28.18,53.89-35.98,82.61-26.87-23.26-28.86-59.13-44.5-88.1-6.82-12.64-6.34-29.98-26.61-38.38.36,44.21,30.59,75.52,36.56,114.2-2.32,2.81-4.63,5.61-6.95,8.42-34.57-4.61-59.72-34.64-94.22-38.82-5.6,12.57.01,17.61,6.81,21.68,23.76,14.22,47.93,28.72,74.71,35.33,26.41,6.52,44.45,19.13,52.72,45.32,4.43,14.04,11.82,25.22,29.38,22.77Z"/>
  <path class="e" d="m124.61,1736.69c8.18.13,11.5-5.09,7.9-11.21-19-32.28-4.85-55.39,19.7-76.1,5.84-4.93,12.23-9.57,11.69-18.95-12.59-11.88-22.28-1.61-31.58,5.28-16.28,12.05-33.2,22.48-53.56,25.49-25.29,3.75-50.66-10.05-56.13-29.96-4.58-16.65,9.34-42.44,30.34-51.53,16.82-7.28,34.92-11.63,52.52-17.07,8.3-2.57,19.13-.81,22.04-16.19-9.52-7.54-21.81-4.57-32.98-5.15-18.88-.97-32.92-8.76-37.91-27.64-4.92-18.6,3.3-33.52,17.76-44.29,23.93-17.81,50.97-28.53,81.08-29.74,16.63-.67,33.3-.25,46.33-13.84-2.89-16.46-18.96-19.71-27.64-29.76-10.17-11.78-19.61-23.98-24.24-38.88-8.47-27.26,1.02-41.91,28.92-43.96,41.07-3.01,76.45,10.12,101.6,43.27,37.49,49.44,58.23,69.4,108.08,97.22-8.47,22.59-32.98,37.26-35.21,62.3-2.18,24.44-.6,49.22-.5,73.85.12,28.08-2.1,55.53-20.45,78.77-25.94,32.86-49.71,29.35-65.48-9.79-1.74-4.32-2.88-8.61-11.78-11.59-25.07,54.3-65.65,89.98-129.77,90.33-.01.03-.72-.88-.72-.88Zm194.13-257.39c-42.85,25.43-79.52,16.09-115.72,15.42-16.89-.31-33.92-.04-50.67,1.85-6.99.79-19.77-2.47-18.35,17.4,32.45-5.21,64.58-3.99,98.09,6.63-14.9,28.7-52.04,34.08-55.83,67.76q33.29-5.14,44.1,18.72c14.37-22.23,28.87-41.87,40.32-63.16,12.41-23.05,39.72-31.87,58.06-64.63Z"/>
  <path class="e" d="m1116.06,1540.37c6.69-44.94,37.23-83.1,40.8-138.31-29.87,33.85-33.93,72.95-58.13,102.79-22.88-30.69-9.12-68.95-29.61-96.24-13.39,4.92-12.61,13.41-10.39,23.23,6.79,29.95,12.65,60.11,19.69,89.99,8.08,34.29,2.42,65.92-13.73,97.8-21.72-20.71-90.77-113.77-97.22-130.08-12.38-31.33-4.05-46.95,30.06-46.57,24.87.28,28.08-10.5,27.44-30.45-.49-15.26.06-31.02,3.41-45.82,4.95-21.88,15.93-40.12,40.95-44.61,24.55-4.41,41.59,5.54,53.49,26.72,3.49,6.22,4.06,15.36,17.52,17.21,11.94-14.34,21.61-34.06,41.02-44.29,17.21-9.06,34.17-16.11,51.18-1.09,17.32,15.29,20.31,33.6,8.52,53.85-3.1,5.32-7.19,10.23-9.36,15.9-4.86,12.68-2.55,18.91,13.69,20.28,44.73,3.75,55.53,11.53,59.09,36.7,4.46,31.51-13.89,64.87-43.25,78.36-4.15,1.9-9.13,2.32-12.81,4.8-3.55,2.38-7.8,6.24-8.38,9.97-1.09,6.94,3.93,10.87,10.79,11.9,20.13,3.05,42.94,5.37,42.95,31.99,0,24.08-18.67,38.13-38.28,48.24-48.83,25.19-100.43,38.46-155.8,31.16-28.06-3.7-25.64-7.04-18.24-33.92,9.84-35.72,36.32-50.61,63.77-67.45,20.79-12.75,40.32-27.55,65.88-45.22-40.16-5.81-59.94,24.57-88.35,30.52-2.24-2.45-4.47-4.91-6.71-7.36Z"/>
  <path class="e" d="m1064.01,339.35h-98.36c2.36-33.3,25.74-56.83,31.71-89.9-23.29,8.37-21.47,33.02-37.88,41.2q-14.6-29.56-12.31-102.61c-19.43,27.12-27.85,59.52-18.52,90.7,11.12,37.16,6.95,68.51-13.2,100.01-9.33,14.59-11.16,31.58-11.8,48.73-.57,15.21-10.49,20.04-21.3,11.14-31.17-25.66-59.12-54.35-65.85-96.85-5.18-32.66,7.14-50.66,40.91-55.07,16.1-2.11,20.54-9.88,22.05-23.55,2.36-21.32,4.12-42.82,8.3-63.81,5.87-29.46,17.87-55.45,47.3-69.57,35.51-17.04,56.62-12.2,69.11,24.58,9.37,27.59,19.36,33.5,45.23,20.86,17.5-8.55,36.31-1.27,53.39,6.35,33.59,14.99,38.86,35.48,17.16,65.52-2.69,3.72-6.3,6.75-9.17,10.35-21.07,26.56-19.95,31.28,12.17,35.75,22.61,3.15,42.39,7.64,49.46,33.22,7.62,27.54-3.2,48.21-23.92,64.74-9.49,7.58-19.78,15.86-31.07,19.19-54.43,16.06-109.99,27.64-166.73,30.79-25.38,1.41-29.48-5.75-24.91-30.43,7.18-38.78,17.99-48.81,57.14-51.48,15.31-1.04,30.74-.34,46.09-1.03,11.89-.54,24.96.97,35.01-18.83Zm14.5-2.31c-.87-.87-1.7-2.37-2.61-2.42-.91-.05-1.91,1.34-2.87,2.11.87.87,1.7,2.37,2.61,2.42.91.05,1.91-1.35,2.87-2.11Z"/>
  <path class="e" d="m354.45,1011.04c-17.47,15.46-17.13,31.64-22.03,45.63-11.5,32.82-38.42,53.43-67.97,52.17-12.47-.53-25.8-1.91-32.01-14.33-6.56-13.12,2.1-23.4,10.72-32.51,9.49-10.04,19.53-19.58,28.9-29.73,5.33-5.78,9.71-13.62,4.99-20.67-5.85-8.73-13.44-3.46-19.34,1.5-17.61,14.81-35.37,18.44-52.96.56-15.92-16.19-16.96-47.02-1.84-68.2,19.89-27.86,48.98-40.15,81.39-47.6,28.84-6.62,29.78-12.39,8.46-33.62-30.73-30.59-28.68-44.89,9.21-64.21,59.29-30.23,124.69-15.05,164.2,38.66,5.32,7.23,11.34,16.16,11.67,24.51,2.41,61.12,11.63,122.67-8.26,182.82-5.87,17.75-14.03,34.39-27.63,47.22-12.83,12.11-28.79,18.43-46.59,13.18-18.62-5.49-25.64-19.87-27.17-38.47-1.46-17.87-4.03-35.74-13.73-56.92Zm26.6-.92c15.05-31.73,3.97-61.61,15.09-88.58,11.57-28.08,38.48-38.64,56.91-59.37-4.53-2.44-5.99-3.94-7.21-3.77-35.51,5.05-68.45.98-113.83-14.59-6.82-2.34-12.3-.68-15.58,5.06-3.67,6.42.81,11.45,5.09,15.87,12.37,12.78,32,17.57,40.13,34.77-11.93,22.94-43.09,28.74-49.29,55.72,11.85,6.33,17.19-.57,23.52-4.02,26.1-14.24,28.61-12.91,31.82,17.56,1.25,11.87-2.32,24.69,13.34,41.36Z"/>
  <path class="e" d="m1620.39,1827.97c26.38-15.76,19.17-46.54,30.14-67.55,17.13-1.07,26.28,12.08,39.34,16.03,5.79,1.75,11.77,5.68,16.74-.44,7.05-8.68-.32-13.83-5.95-18.67-6.9-5.93-15.14-10.49-19.94-22.15,12.34-22.21,40.86-16.15,57.84-29.96-1.95-14.35-10.82-11.67-20.4-9.09-20.79,5.6-41.73,10.59-62.59,15.93-6.58,1.68-13.39.51-16.36-4.92-4.4-8.04.38-14.99,7.64-18.89,28.73-15.41,57.85-28.55,92.11-19.9,18.04,4.55,35.41,10.05,51.32,19.88,11.72,7.23,28.34,13.05,28.47,27.58.16,17.54-18.47,16.77-31.25,20.33-6.14,1.71-11.97,4.36-11.69,11.83.26,7.02,5.93,10.63,11.75,12.39,18.18,5.51,33.5,15.27,46.22,29.24,16.44,18.06,18.2,38.84,8.49,60.01-9.87,21.53-29.8,17.92-48.32,16.07-18.94-1.89-35.25-10.39-50.8-20.64-8.56-5.64-14.93-16.03-27.51-13.24-10.58,65.21-29.64,84.44-80.15,81.54-47.23-2.71-63.86-21.19-66.65-74.67-15.82-7.97-30.7,15.88-47.13,1.71-8.34-7.19-15.44-15.06-20.4-24.72-13.45-26.2-8.62-56.71,12.54-81.15,20.84-24.09,52.89-33.86,79.12-24.13,20.27,7.52,33.2,37.67,29.41,71.13-1.68,14.87-10.18,29.22-2.01,46.45Z"/>
  <path class="e" d="m1592.23,1175.58c10.2-35.41,28.02-58.55,40.65-84.18,2.6-5.27,5.81-12.06-.2-16.72-7.94-6.16-15.46-.78-19.23,5.39-10.37,16.98-19.02,35.01-28.82,52.35-7.27,12.85-8.94,29.96-25.87,35.82-15.66-16.19-11.94-43.86-35.59-59.54-9.06,24.22,3.05,41.73,10.12,58.41,14.04,33.14,11.73,62.31-12.45,89.3-43.66-30.13-67.51-97.3-51.22-144.24,11.84-34.11,18.96-36.78,53.43-20.36,5.38,2.56,11.03,4.55,15.84,6.51,15.63-12.34,12.29-28.64,12.6-43.6.4-18.74,4.33-36.49,11.73-53.59,19.29-44.55,47.26-54.44,92.55-38,30.69,11.14,25.04,38.06,30.72,59.17,16.56,4.64,22.1-11.69,34.13-13.72,17.47-2.94,35.36-2.19,47.79,10.28,13.24,13.28,10.47,31.75,3.17,47.52-11.24,24.29-28.74,43.39-53.45,55.08-12.48,5.9-24.68,12.47-37.38,17.85-26.71,11.31-53.67,22.04-88.53,36.28Z"/>
  <path class="e" d="m1256.37,627.27c21.57-1.1,39.69-12.55,60.05-3.5,34.59,15.37,42.32,37.4,20.44,69.05-13.78,19.94-33.07,31.95-57.27,34.6-11.32,1.24-19.53,2.25-22.92,16.56-8.61,36.41-16.64,41.75-51.84,38.98-9.04-.71-17.96-3.52-26.83-5.8-18.2-4.67-16.95-15.13-7.03-26.87,11.26-13.33,27.89-18.73,42.32-27.41,12.33-7.41,30.02-8.29,35.01-27.37-19.87-6.63-34.49,12.12-55.1,8.83-4.4-26.82,28.31-38.41,27.86-67.25-30.92,6.56-34.94,41.4-59.38,52.47-21.7-8.35-8.41-37.83-27.96-48.46-12.33,5.19-7.63,15.09-5.82,22.67,3.56,14.89,7.41,29.99,13.56,43.93,8.17,18.52,5.2,36.31-10.98,44.24-15.93,7.81-22.86-11.21-29.7-22.27-15.46-25-27.91-51.22-27.23-81.94.51-23.32,8.23-42.97,29.22-53.82,20.2-10.44,34.76,3.87,49.08,15.71,6.89,5.7,11.65,14.61,22.57,14.82,12.35-6.79,6.73-18.72,7.39-28.64,1.31-19.92-.23-40.26,3.23-59.74,5.09-28.7,19.78-40.36,42.77-38.91,25.92,1.64,46.56,20.67,49,46.35,1.62,17.03.06,33.77-9.14,49.07-5.43,9.03-13.77,17.01-11.32,34.7Z"/>
  <path class="e" d="m1557.53,372.52c13.5-10.95,13.41-25.2,16.27-38.7,3.89-18.37,12.12-34.73,27.43-46.79,8.95-7.05,18.56-12,29.59-6.55,10.52,5.19,15.21,14.9,15.15,26.58-.02,4.58-.84,9.17-1.34,13.74-3.67,33.31-3.43,33.84,28.59,19.33,15.11-6.85,29.42-10.43,43.11.97,16.36,13.61,10.49,29.89,4.49,46.38-11.06,30.38-31.45,52.51-58.92,68.47-14.61,8.49-31.87,13.69-44.2,24.59-24.49,21.67-43.76,11.33-65.16-4.12-28.93-20.88-50.08-45.68-49.67-83.51.34-31.43,10.09-38.01,39.37-27.03,5.43,2.04,10.66,4.61,15.28,6.63Zm64.5,28.31c-3.69-11.93-.96-19.07,1.26-26.4,2.47-8.14.91-16.37-7.81-18.62-10.09-2.6-13.39,7.06-13.71,13.86-1.3,27.79-14.42,30-36.23,19.41-6.21-3.01-15.02-3.96-18.51,9.66,24.8,16.11,53.55,31.7,48.38,72.83,16.53-54.39,74.23-61.18,107.39-102.18-34.13.89-52.44,27.22-80.77,31.44Z"/>
  <path class="e" d="m454.34,1755.27c-29.46,1.43-50.59,2.53-63.31-21.39-18.23-34.3,3.68-85.17,43.09-96,23.89-6.57,88.87,1.81,118.41,16.46-25.72,22.16-47.37,39.1-84.21,19.8-15.7-8.23-44.29-15.03-59.53,13.89,16.65,8.76,31.62-1.43,46.54,1.55,26.85,5.37,31.93,14.09,20.12,39.3-3.17,6.76-8.22,12.99-4.45,22.8,17.38,7.33,16.92-19.13,30.86-17.98,3.97-.56,5.54,1.26,6.21,5.19,3.86,22.57-.52,45.54,7.02,68.4,5.77,17.51-20.82,42.37-46.64,48.35-24.66,5.72-49.65-6.78-57.11-27.51-4.31-11.98.53-21.46,6.82-30.01,9-12.23,19.54-23.33,36.18-42.85Z"/>
  <path class="e" d="m624.72,1012.87c.58,17.78-10.75,34.24,4.81,52.31,16.37-14.71,10.6-38.1,23.54-51.78,3.14.59,6.49.44,9.02,1.81,28.02,15.21,6.04,35.41,3.66,52.47-3.05,21.83-20.51,35.1-41.36,37.38-19.05,2.07-47.27-11.95-44.68-23.88,7.69-35.48-14.84-48.18-34.01-66.77-10.52-10.2-5.41-23.86,5.09-32.07,19.95-15.58,43.02-23.1,68.75-20.31,6.24.68,12.92,2.14,13.41,9.58.43,6.5-4.31,10.95-10.33,13.37-2.83,1.14-6.19,1.26-8.7,2.81-12.69,7.83-40.86,6.68-31.42,28.53,7.62,17.65,24.77-10.52,42.22-3.44Z"/>
  <path class="e" d="m1666.49,1166.84c2.46,62.83-43.66,107.19-97.84,96.42-13.61-2.7-21.47-12.43-10.77-21.95,32.65-29.08,63.33-62.04,108.61-74.47Z"/>
  <path class="e" d="m538.13,1692.5q11.07,43.8,43.67,69.39c19.18,15.05,16.81,48.37-4.46,61.43-3.92,2.41-7.84,3.6-12.77.95-14.67-7.89-37.53-51.17-35.16-68.35,1.46-10.61,3.98-21.08,5.51-31.68,1.28-8.84,1.84-17.79,3.21-31.72Z"/>
  <path class="e" d="m1122.77,1547.73c-3.6,2.65-7.6,4.93-10.24-.47-.68-1.39,2.26-4.53,3.54-6.88,2.23,2.45,4.47,4.9,6.71,7.35Z"/>
  <path class="c" d="m634.33,578.74q-57.13-22.6-117.52,5.24c-18.1,8.32-36.26,16.56-54.72,23.99-3.48,1.4-8.57-1.18-16.11-2.46,10.13-24.81,33.96-24.91,51.45-33.58,18.97-9.4,38.78-17.09,62.95-27.58-35.8-36.58-86.64-42.42-115.76-78.73,41.24-2.97,68.92,28.67,109.38,39.2v-105.13c13.25,24.3,17.45,49.35,17.58,74.91.14,27.74,6.37,50.64,34.08,64.65,12.83,6.49,25.22,17.12,28.67,39.49Z"/>
  <path class="c" d="m886.7,1692.41c-9.9,8.98-16.81,8.84-21.8,5.84-23.28-13.95-40.62-2.63-58.14,11.66-22.51,18.35-45.59,36.01-75.06,59.18,7.43-46.53,47.75-56.9,65.78-88.08-27.94-26.95-73.06-25.03-107.02-57.61,44.98-5.98,73.06,25.81,111.83,26.19-4.9-32.25-25.91-59.98-19.48-97.62,26.8,24.01,29.93,55.94,39.66,82.56,11.53,31.55,44.02,35.38,64.24,57.88Z"/>
  <path class="c" d="m1914.92,249.98c25.06-12.85,32.68-44.49,64.04-58.13-5.6,33.58-30.67,49.82-46.78,71.29-17.53,23.35-35.77,46.39-55.76,67.62-19.32,20.52-28.1,50.72-58.46,66.84-4.96-21.77,6.5-34.01,16.28-43.61,42.06-41.24,57.62-92.2,59.44-149.1.24-7.55.06-15.59,6.54-21.31.99-.87,2.64-.99,7.49-2.66,14.72,20.66-1.45,43.18,2.14,63.96-3.02,3.07-4.04,6.38-.06,9.17.51.36,3.37-2.63,5.14-4.07Z"/>
  <path class="c" d="m1306.08,236.7c-5.97-38.68-36.2-69.99-36.56-114.2,20.27,8.41,19.79,25.75,26.61,38.38,15.64,28.97,17.63,64.83,44.5,88.1l-.57-.55c-2.45,31.79,19.64,55.36,27.94,83.55,0,0,.53-.58.53-.58-17.56,2.45-24.94-8.73-29.38-22.77-8.27-26.2-26.31-38.8-52.72-45.32-26.78-6.61-50.95-21.11-74.71-35.33-6.8-4.07-12.42-9.11-6.81-21.68,34.5,4.18,59.65,34.21,94.22,38.78,2.71.85,6.51,3.32,7.93,2.35,5.06-3.47,2.8-7.42-.98-10.72Z"/>
  <path class="c" d="m1340.62,248.97c7.8-28.72,10.71-59.63,35.98-82.61,1.85,43.26-8.52,65.86-36.55,82.06,0,0,.57.55.57.55Z"/>
  <path class="c" d="m318.74,1479.3c-18.33,32.76-45.65,41.57-58.06,64.63-11.46,21.28-25.95,40.92-40.32,63.16q-10.81-23.86-44.1-18.72c3.79-33.68,40.93-39.06,55.83-67.76-33.51-10.63-65.64-11.84-98.09-6.63-1.42-19.88,11.36-16.62,18.35-17.4,16.75-1.89,33.78-2.16,50.67-1.85,36.2.67,72.87,10.01,115.72-15.42Z"/>
  <path class="c" d="m1078.51,337.04c-.96.76-1.96,2.16-2.87,2.11-.91-.05-1.74-1.56-2.61-2.42.96-.76,1.96-2.16,2.87-2.11.91.05,1.74,1.55,2.61,2.42Z"/>
  <path class="c" d="m381.05,1010.12c-15.66-16.66-12.09-29.48-13.34-41.36-3.21-30.47-5.72-31.8-31.82-17.56-6.33,3.45-11.67,10.35-23.52,4.02,6.2-26.98,37.36-32.78,49.29-55.72-8.13-17.2-27.77-22-40.13-34.77-4.28-4.42-8.76-9.45-5.09-15.87,3.28-5.74,8.77-7.4,15.58-5.06,45.38,15.57,78.32,19.64,113.83,14.59,1.22-.17,2.68,1.33,7.21,3.77-18.43,20.73-45.34,31.29-56.91,59.37-11.12,26.97-.04,56.85-15.09,88.58Z"/>
  <path class="c" d="m1622.03,400.83c28.33-4.22,46.64-30.55,80.77-31.44-33.16,41-90.85,47.79-107.39,102.18,5.17-41.14-23.59-56.72-48.38-72.83,3.49-13.62,12.3-12.67,18.51-9.66,21.82,10.59,34.94,8.37,36.23-19.41.32-6.8,3.61-16.46,13.71-13.86,8.72,2.24,10.29,10.48,7.81,18.62-2.23,7.34-4.96,14.47-1.26,26.4Z"/>
  <path class="e" d="m1914.92,249.98c-1.77,1.44-4.63,4.43-5.14,4.07-3.99-2.79-2.96-6.09.06-9.17,1.72,1.64,3.42,3.34,5.08,5.09Z"/>
  <path class="e" d="m1306.08,236.7c3.78,3.31,6.04,7.25.98,10.72-1.43.98-5.22-1.5-7.93-2.35,2.31-2.76,4.63-5.57,6.95-8.38Z"/>
</svg>