<?xml version="1.0" encoding="UTF-8"?>
<svg id="a" data-name="Lager 1" xmlns="http://www.w3.org/2000/svg" viewBox="0 0 471.94 766.91">
  <defs>
    <style>
      .b {
        fill: #593a1c;
      }

      .c {
        fill: #9a6636;
      }

      .d {
        fill: #52762c;
      }

      .e {
        fill: #629647;
      }

      .f {
        fill: #f5ae82;
      }

      .g {
        fill: #718585;
      }
    </style>
  </defs>
  <path class="g" d="m124.37,749.07c-.14,0-.27,0-.41-.02-2.36-.22-4.1-2.32-3.87-4.69l38.44-404.8c.22-2.36,2.32-4.08,4.69-3.87,2.36.22,4.1,2.32,3.87,4.69l-38.44,404.8c-.21,2.23-2.08,3.89-4.28,3.89Z"/>
  <path class="g" d="m361.65,749.07c-2.2,0-4.07-1.67-4.28-3.9l-37.64-404.8c-.22-2.37,1.52-4.46,3.88-4.68,2.38-.22,4.46,1.52,4.68,3.88l37.64,404.8c.22,2.37-1.52,4.46-3.88,4.68-.14.01-.27.02-.4.02Z"/>
  <path class="g" d="m89.92,766.91c-.13,0-.27,0-.41-.02-2.36-.22-4.1-2.32-3.88-4.68l39.72-423.92c.22-2.36,2.32-4.1,4.68-3.88,2.36.22,4.1,2.32,3.88,4.68l-39.71,423.92c-.21,2.23-2.08,3.9-4.28,3.9Z"/>
  <path class="g" d="m397.91,766.91c-2.2,0-4.07-1.68-4.28-3.91l-38.92-423.92c-.22-2.37,1.52-4.46,3.89-4.68,2.38-.21,4.46,1.52,4.68,3.89l38.92,423.92c.22,2.37-1.52,4.46-3.89,4.68-.13.01-.27.02-.4.02Z"/>
  <g>
    <rect class="b" x="98.99" y="305.04" width="288.1" height="29.73"/>
    <ellipse class="b" cx="243.04" cy="334.77" rx="144.05" ry="19"/>
    <ellipse class="c" cx="243.04" cy="305.04" rx="144.05" ry="19"/>
  </g>
  <g>
    <path class="d" d="m152.55,56.29c1.39.32,66.2,36.84,39.52,71.46-4.19,5.43-21.54,7.88-32.51-2.79-10.51-10.22-7.01-68.67-7.01-68.67Z"/>
    <path class="d" d="m247.38,58.54c1.44.23,66.59,36.22,34.4,79.85-5.05,6.85-23.81,11.6-34.35.23-10.09-10.89-.05-80.07-.05-80.07Z"/>
    <path class="d" d="m233.86,129.15c-24.7.03-33.12-16.89-22.71-35.08,12.97-22.68,30.79-34.25,30.79-34.25,0,0,31.15,45.75-8.08,69.33Z"/>
    <path class="e" d="m226.49,123.12c-.21,0-.42-.04-.62-.11-.93-.34-1.4-1.38-1.06-2.3.33-.89,8.16-21.8,19.31-33.69.68-.71,1.81-.75,2.53-.08.72.68.76,1.81.08,2.53-10.64,11.36-18.48,32.28-18.56,32.48-.27.72-.96,1.17-1.68,1.17Z"/>
    <path class="d" d="m205.49,135.66c-17.42-2.35-25-19.55-19.41-36.16,6.97-20.71,18.43-30.2,18.43-30.2,0,0,26.39,47.3.98,66.36Z"/>
    <path class="d" d="m288.21,128.61c-5.75-11.39,1.47-28.68,13.76-38.27,15.32-11.96,25.74-12.89,25.74-12.89,0,0-17.59,50.61-39.5,51.16Z"/>
    <path class="f" d="m299.56,307.99h-107.5s-63.17-53.21-63.17-191.08h228.31c0,125.73-57.63,191.08-57.63,191.08Z"/>
    <path class="e" d="m400.2,696.64c-.9,0-1.67-.67-1.78-1.59-.07-.67-7.95-67.9-29.7-135.31-13.49-41.8-23.68-49.09-33.54-56.14-6.23-4.45-12.12-8.66-18.2-20.81-6.23-12.47-8.35-28.16-10.81-46.33-3.7-27.36-7.9-58.37-27.68-88.04-11.9-17.85-21.53-28.56-28.55-36.38-12.91-14.37-18.8-20.93-18.08-46.28.67-23.41-5.11-37.8-11.22-53.03-3.71-9.25-7.55-18.81-9.7-30.42-5.5-29.71-.43-69.64-.38-70.04.13-.98,1.06-1.62,2.01-1.55.98.13,1.67,1.03,1.55,2.01-.05.4-5.05,39.78.35,68.93,2.08,11.25,5.85,20.65,9.5,29.74,5.98,14.9,12.17,30.31,11.48,54.47-.69,23.92,4.54,29.74,17.16,43.78,7.1,7.9,16.82,18.72,28.86,36.79,20.24,30.36,24.49,61.81,28.25,89.55,2.41,17.85,4.5,33.26,10.47,45.2,5.68,11.35,11.21,15.31,17.07,19.5,9.86,7.05,21.03,15.03,34.87,57.96,21.86,67.77,29.78,135.33,29.86,136.01.11.98-.59,1.87-1.58,1.99-.07,0-.14.01-.21.01Z"/>
    <path class="e" d="m246.9,508.45c-.74-2.21-40.44-51.1-27.21-81.25,13.24-30.15,36.76-34.56,46.32-28.68,9.56,5.88,12.87,13.42,12.87,13.42,0,0,27.02-.55,30.33,24.26,3.03,22.7-10.84,25.55-35.11,44.67-24.26,19.12-27.21,27.57-27.21,27.57Z"/>
    <path class="e" d="m417.67,205.77c.72-1.37,32.01-29.31,26.5-50.54-5.51-21.22-20.51-26.62-27.42-23.76-6.91,2.85-9.88,7.46-9.88,7.46,0,0-17.71-3.23-22.51,12.74-4.4,14.6,4.42,17.95,18.35,33.09,13.93,15.14,14.96,21.01,14.96,21.01Z"/>
    <path class="e" d="m103.14,111.27c-.52-1.56-28.69-36.25-19.3-57.63,9.39-21.38,26.08-24.51,32.86-20.34,6.78,4.17,9.13,9.52,9.13,9.52,0,0,19.17-.39,21.51,17.21,2.15,16.1-7.69,18.12-24.9,31.69-17.21,13.56-19.3,19.56-19.3,19.56Z"/>
    <path class="e" d="m331.78,111.7c.5-1.49,27.4-34.63,18.43-55.05-8.97-20.43-24.91-23.42-31.39-19.43-6.48,3.99-8.72,9.09-8.72,9.09,0,0-18.31-.37-20.55,16.44-2.05,15.38,7.35,17.31,23.79,30.27,16.44,12.95,18.43,18.68,18.43,18.68Z"/>
    <path class="e" d="m260.69,604.95c.03-2.02,31.26-102.93,87.31-76.29,8.8,4.18,17.4,27.53,5.88,45.96-11.03,17.65-93.2,30.33-93.2,30.33Z"/>
    <path class="e" d="m146.63,315.64c-.75-1.87-10.82-107.03,51.17-104.04,9.73.47,26.67,18.69,23.14,40.14-3.38,20.53-74.31,63.91-74.31,63.91Z"/>
    <path class="e" d="m329.01,303.42c-.3-1.32,11.42-78.88,52.3-70.35,6.42,1.34,10.43,19.11-1.16,34.18-8.54,11.1-51.15,36.17-51.15,36.17Z"/>
    <path class="e" d="m246.58,209.28c-1.13-.87-44.73-61.15-6.01-81.44,6.08-3.18,22.86,1.85,28.36,16.13,5.27,13.68-22.36,65.31-22.36,65.31Z"/>
    <path class="e" d="m296.72,221.05c.11-1.17,22.8-58.41,54.17-40.4,4.93,2.83,8.87,16.78,1.35,26.97-7.2,9.76-55.52,13.43-55.52,13.43Z"/>
    <path class="e" d="m193.96,116.5c-.51,0-1.02-.22-1.37-.64-25.29-30.14-56.85-42.37-57.17-42.5-.92-.35-1.39-1.39-1.04-2.31.36-.92,1.39-1.4,2.31-1.04.32.12,32.72,12.66,58.64,43.54.63.76.54,1.89-.22,2.53-.34.28-.74.42-1.15.42Z"/>
    <path class="e" d="m174.03,148.64c-.19-.99,4.73-53.67,34.95-46.37,4.74,1.14,11.36,11.7,7.61,21.92-3.59,9.78-42.56,24.45-42.56,24.45Z"/>
    <path class="e" d="m139.87,142.51c-.45-.66-13.04-40.61,11.24-44.58,3.81-.62,11.89,5.04,12.29,13.65.39,8.24-23.53,30.92-23.53,30.92Z"/>
    <path class="e" d="m293.38,36.12c.21,1.41-9.85,75.12-51.86,63.08-6.6-1.89-15.27-17.12-9.39-31.25,5.63-13.53,61.25-31.83,61.25-31.83Z"/>
    <path class="e" d="m163.58,13.28c1.39.32,66.2,36.85,39.52,71.46-4.19,5.43-21.54,7.88-32.51-2.79-10.51-10.22-7.01-68.67-7.01-68.67Z"/>
    <path class="e" d="m467.33,627.33c-.47-1.36-43.92-62.58-75.86-32.17-5.02,4.77-5.65,22.44,6.21,32.34,11.36,9.47,69.65-.17,69.65-.17Z"/>
    <path class="e" d="m372.48,367.04c-.47-1.36-43.92-62.58-75.86-32.17-5.02,4.77-5.65,22.44,6.21,32.34,11.36,9.47,69.65-.17,69.65-.17Z"/>
    <path class="e" d="m471.94,302.66c-.58-.84-42.28-34.41-58.29-7.34-2.51,4.25.48,16.49,10.54,20.98,9.63,4.29,47.75-13.64,47.75-13.64Z"/>
    <path class="e" d="m138.98,192.1c.34-1.26-1.47-69.57-41.03-62.78-6.21,1.07-15.65,14.1-11.7,27.59,3.78,12.92,52.73,35.19,52.73,35.19Z"/>
    <path class="e" d="m320.06,481.24c11.03-14.71,25-18.38,49.26-4.41,24.26,13.97,33.09,25,33.09,25,0,0-67.65,7.35-82.35-20.59Z"/>
    <path class="e" d="m260.81,321.95c-14.34-6.19-26.19-3.01-38.2,17.53-12,20.54-13.86,32.4-13.86,32.4,0,0,53-23.11,52.05-49.92Z"/>
    <path class="e" d="m72.95,156.96c-9.83-13-22.22-16.22-43.69-3.75C7.79,165.67,0,175.48,0,175.48c0,0,60,6.3,72.95-18.52Z"/>
    <path class="e" d="m237.34,283.08c-5.75-11.39,1.47-28.68,13.76-38.27,15.32-11.96,25.74-12.89,25.74-12.89,0,0-17.59,50.61-39.51,51.16Z"/>
    <path class="e" d="m57.2,191.85c11.87,4.69,17.96,22.41,15.15,37.74-3.5,19.12-10.67,26.74-10.67,26.74,0,0-20.49-49.51-4.48-64.48Z"/>
    <path class="e" d="m396.51,679.25c11.2.43,21.41,13.34,23.55,26.88,2.66,16.87-1.06,25.27-1.06,25.27,0,0-31.4-35.08-22.49-52.15Z"/>
    <path class="e" d="m423.56,331.01c9.02,4.21,12.91,18.29,10,30.1-3.63,14.72-9.58,20.31-9.58,20.31,0,0-13.6-39.51-.42-50.4Z"/>
    <path class="e" d="m381.3,111.68c2.96-9.5,16.39-15.26,28.48-13.96,15.07,1.62,21.41,6.76,21.41,6.76,0,0-37.33,18.79-49.89,7.2Z"/>
    <path class="e" d="m55.73,199.59c-.19,0-.39-.03-.58-.1-.94-.32-1.43-1.34-1.11-2.28,1.12-3.28,27.95-80.39,68.73-95.22,41.2-14.97,61.38,9.88,61.58,10.14.61.77.48,1.9-.3,2.51-.77.61-1.9.48-2.52-.29-.76-.95-18.91-23.03-57.54-8.98-39.18,14.25-66.3,92.23-66.56,93.01-.26.74-.95,1.21-1.7,1.21Z"/>
    <path class="e" d="m422.63,334.14c-.62,0-1.22-.32-1.55-.9-.32-.56-32.62-56.91-40.67-119.05-7.88-60.88-84.37-105.59-85.14-106.03-.86-.49-1.16-1.59-.66-2.45.49-.86,1.59-1.16,2.45-.66.79.45,78.8,46.02,86.91,108.68,7.95,61.41,39.9,117.16,40.22,117.71.49.86.2,1.95-.66,2.45-.28.16-.59.24-.9.24Z"/>
    <path class="e" d="m278.88,413.74c-.27,0-.53-.06-.79-.18-.89-.43-1.26-1.51-.83-2.4,1.17-2.4,11.69-23.5,20.11-24.7.97-.15,1.89.54,2.03,1.52.14.98-.54,1.89-1.52,2.03-4.94.7-13.29,14.31-17.39,22.72-.31.64-.95,1.01-1.61,1.01Z"/>
    <path class="e" d="m409.03,143.52c-.66,0-1.3-.37-1.61-1.01-.14-.28-13.68-27.72-37.71-33.69-13.16-3.27-27.15.43-41.6,11.01-.66.48-1.56.46-2.18-.05-.63-.51-.84-1.38-.51-2.12.58-1.31,14.58-32.41,42.14-43.58.92-.38,1.96.07,2.33.99.37.92-.07,1.96-.99,2.33-18.97,7.69-31.48,25.95-36.99,35.56,13.29-8.14,26.27-10.71,38.68-7.61,25.67,6.39,39.48,34.41,40.05,35.6.43.89.06,1.96-.83,2.39-.25.12-.52.18-.78.18Z"/>
    <path class="e" d="m206.09,93.75s-9.93-26.47,2.21-48.53C220.43,23.16,239.18,0,239.18,0c0,0,1.1,48.53-11.03,70.59-12.13,22.06-22.06,23.16-22.06,23.16Z"/>
    <path class="e" d="m249.16,105.23s16.57-2.37,27.79,7.45c11.22,9.82,22.23,23.62,22.23,23.62,0,0-28.21-5.54-39.42-15.36-11.22-9.82-10.59-15.71-10.59-15.71Z"/>
    <path class="e" d="m362.34,80.15s7.19-21.6,21.47-25.89c14.28-4.3,31.81-6.32,31.81-6.32,0,0-13.26,22.77-27.54,27.07-14.28,4.3-25.74,5.15-25.74,5.15Z"/>
    <path class="e" d="m349.47,188.19c-.52,0-1.03-.23-1.39-.66-.63-.77-.51-1.9.26-2.52.42-.34,10.27-8.32,18.2-11.06.93-.33,1.95.17,2.28,1.11.32.94-.17,1.96-1.11,2.28-7.32,2.53-17,10.37-17.1,10.45-.33.27-.73.4-1.13.4Z"/>
    <path class="e" d="m244.14,130.01c-.97,0-1.77-.78-1.79-1.75-.01-.52-.21-12.88,6.74-21.56.62-.78,1.75-.89,2.52-.28.77.62.9,1.75.28,2.52-6.14,7.68-5.95,19.13-5.95,19.24.02.99-.76,1.81-1.75,1.83h-.04Z"/>
    <path class="e" d="m300.57,345.17c-.18,0-.36-.03-.53-.08-11.46-3.58-25.25-5.06-25.39-5.08-.98-.1-1.7-.99-1.59-1.97.11-.98.94-1.7,1.97-1.59.58.06,14.28,1.53,26.08,5.22.94.3,1.47,1.3,1.18,2.25-.24.77-.95,1.26-1.71,1.26Z"/>
    <path class="e" d="m209.4,111.35c-.71,0-1.39-.43-1.67-1.14-4.25-10.8-.54-21.07-.38-21.5.34-.93,1.36-1.42,2.3-1.06.93.34,1.4,1.37,1.06,2.3-.03.1-3.38,9.45.35,18.94.36.92-.09,1.96-1.01,2.32-.21.09-.44.13-.66.13Z"/>
  </g>
  <path class="g" d="m244.68,706.17c-37.16,0-72.12-1.5-98.43-4.22-41.02-4.24-44.45-9.45-44.45-14.42s3.43-10.17,44.45-14.42c26.32-2.72,61.27-4.22,98.43-4.22s72.12,1.5,98.43,4.22c41.02,4.24,44.45,9.45,44.45,14.42s-3.43,10.17-44.45,14.42c-26.32,2.72-61.27,4.22-98.43,4.22Zm-131.86-18.64c12.58,4.62,59.91,10.03,131.86,10.03s119.28-5.41,131.86-10.03c-12.58-4.62-59.91-10.04-131.86-10.04s-119.28,5.42-131.86,10.04Zm266.65,1.55h.01-.01Z"/>
</svg>