<?xml version="1.0" encoding="UTF-8"?>
<svg width="752pt" height="752pt" version="1.1" viewBox="0 0 752 752" xmlns="http://www.w3.org/2000/svg">
 <defs>
  <clipPath id="b">
   <path d="m182 374h388v238.79h-388z"/>
  </clipPath>
  <clipPath id="a">
   <path d="m259 139.21h239v238.79h-239z"/>
  </clipPath>
 </defs>
 <g>
  <g clip-path="url(#b)">
   <path d="m376 612.79c-28.414 0-56.547 0-83.871-0.61719-48.164-0.71094-81.598-24.91-99.453-71.938-20.789-55.312-10.559-99.168 32.254-138.43 6.582-6.0156 13.734-11.32 20.602-16.48l7.3398-5.4961c1.9453-1.418 3.9883-2.6992 6.1094-3.8359l2.082-1.2305c4.207-1.375 8.8086 0.34766 11.078 4.1484 2.2656 3.8008 1.6016 8.6641-1.6055 11.719l-2.5117 1.4688v-0.003907c-1.3867 0.75781-2.7344 1.5977-4.0234 2.5117-2.5273 1.957-5.0352 3.8516-7.5312 5.6836-6.8203 5.1133-13.262 9.9453-19.18 15.344-36.797 33.766-45.227 70.23-27.039 118.02 14.965 39.734 41.863 59.34 82.211 60.191 54.934 0.80469 112.81 0.80469 171.96 0 25.242-0.61328 45.273-8.4297 59.812-23.68 22.262-22.637 30.594-51.617 25.48-86-6.2031-41.582-36.039-66.301-71.465-91.543-2.5938-1.168-4.5273-3.4375-5.2656-6.1836-0.73828-2.75-0.19922-5.6836 1.4609-7.9922 1.6641-2.3086 4.2773-3.7461 7.1172-3.918s5.6055 0.94141 7.5352 3.0312c37.461 26.855 71.605 55.27 78.992 103.86 5.918 39.828-4.7344 75.016-30.453 101.77-18.137 18.941-42.621 28.414-72.98 28.984-30.352 0.56641-59.527 0.61328-88.652 0.61328z"/>
  </g>
  <g clip-path="url(#a)">
   <path d="m377.75 157.77h0.94531c27.168-0.17578 53.199 10.879 71.938 30.547 19.086 19.84 29.426 46.5 28.699 74.023-1.6562 53.371-47.691 96.801-102.53 96.801h-0.37891v-0.003906c-26.18-0.16016-51.176-10.926-69.281-29.836-18.59-18.887-28.988-44.336-28.957-70.836 0.035156-26.504 10.5-51.926 29.133-70.77 18.633-18.844 43.934-29.594 70.434-29.926m0-18.562c-31.395 0.22656-61.43 12.852-83.555 35.125-22.121 22.277-34.547 52.395-34.559 83.793-0.28516 65.164 52.613 119.34 116.69 119.53h0.47266c66.016 0 119.11-51.715 121.09-114.8h0.003906c1.0469-32.309-11.008-63.672-33.43-86.957s-53.305-36.52-85.629-36.695z"/>
  </g>
 </g>
</svg>
