<?xml version="1.0" encoding="iso-8859-1"?>
<!-- Generator: Adobe Illustrator 19.0.0, SVG Export Plug-In . SVG Version: 6.00 Build 0)  -->
<svg version="1.1" id="Capa_1" xmlns="http://www.w3.org/2000/svg" xmlns:xlink="http://www.w3.org/1999/xlink" x="0px" y="0px"
	 viewBox="0 0 490 490" style="enable-background:new 0 0 490 490;" xml:space="preserve">
<g>
	<g>
		<ellipse cx="245" cy="42.4" rx="41.6" ry="42.4"/>
		<path d="M365.6,168.8h29.2l-96.1-94.5c-3.5,5.8-7.8,11.3-13.2,15.9L365.6,168.8z"/>
		<path d="M204.6,90.2c-5.1-4.7-9.7-10.1-13.2-15.9l-96.1,94.5h29.2L204.6,90.2z"/>
		<g>
			<ellipse cx="172.3" cy="339.7" rx="13.2" ry="33.3"/>
			<path d="M0,189.4V490h490V189.4H0z M128.2,381.4c0,4.6-4.1,8.3-9.1,8.3s-9.1-3.7-9.1-8.3V348H85.5v33.3c0,4.6-4.1,8.3-9.1,8.3
				s-9.1-3.7-9.1-8.3V298c0-4.6,4.1-8.3,9.1-8.3s9.1,3.7,9.1,8.3v33.3H110V298c0-4.6,4.1-8.3,9.1-8.3c5,0,9.1,3.7,9.1,8.3
				L128.2,381.4L128.2,381.4z M172.3,389.7c-17.3,0-31.3-22.4-31.3-50s14-50,31.3-50s31.3,22.4,31.3,50S189.6,389.7,172.3,389.7z
				 M268.1,306.4h-12.3v75c0,4.6-4.1,8.3-9.1,8.3s-9.1-3.7-9.1-8.3v-75h-12.3c-5,0-9.1-3.7-9.1-8.3s4.1-8.3,9.1-8.3H268
				c5,0,9.1,3.7,9.1,8.3S273.1,306.4,268.1,306.4z M339.1,331.4c5,0,9.1,3.7,9.1,8.3c0,4.6-4.1,8.3-9.1,8.3h-26.7v25h26.7
				c5,0,9.1,3.7,9.1,8.3s-4.1,8.3-9.1,8.3h-35.8c-5,0-9.1-3.7-9.1-8.3V298c0-4.6,4.1-8.3,9.1-8.3h35.8c5,0,9.1,3.7,9.1,8.3
				s-4.1,8.3-9.1,8.3h-26.7v25h26.7V331.4z M413.5,389.7h-35.8c-5,0-9.1-3.7-9.1-8.3V298c0-4.6,4.1-8.3,9.1-8.3s9.1,3.7,9.1,8.3v75
				h26.7c5,0,9.1,3.7,9.1,8.3S418.5,389.7,413.5,389.7z"/>
		</g>
	</g>
</g>
<g>
</g>
<g>
</g>
<g>
</g>
<g>
</g>
<g>
</g>
<g>
</g>
<g>
</g>
<g>
</g>
<g>
</g>
<g>
</g>
<g>
</g>
<g>
</g>
<g>
</g>
<g>
</g>
<g>
</g>
</svg>
