<svg width="114" height="89" viewBox="0 0 114 89" fill="none" xmlns="http://www.w3.org/2000/svg">
<path d="M23.3608 72.3768C23.4605 70.5824 23.5866 69.0447 22.2788 67.2662H92.993C94.7161 67.2662 95.3798 68.0381 96.4001 66.2014C97.0626 65.0089 96.999 63.5903 97.6778 62.3685C98.4273 61.0194 99.2847 59.1833 99.6179 57.6838C99.873 56.5361 100.139 53.9951 100.777 53.1173C102.641 50.5551 104.498 15.3082 97.8907 15.4028C93.9748 13.548 89.4437 25.0541 60.8793 22.7381C40.0351 19.6501 36.9553 11.0789 34.6468 8.25744C32.7377 5.92415 30.7535 0.743734 27.4067 0C14.5588 8.25744 12.7137 44.3806 12.7137 47.6755C12.7137 49.505 12.6062 51.2773 12.7137 53.212C12.802 54.8017 13.5655 56.1982 13.5655 57.8967C13.5655 59.2912 14.3966 60.1069 13.2342 61.3984C11.9375 62.8392 9.83302 62.2933 8.02901 62.7944C1.43457 67.2662 1.16265 75.1741 1.43455 78.7088C1.73527 82.6182 2.75858 84.6776 6.0666 86.4289C6.74246 86.7867 8.76864 88.0399 11.0102 88.0399C16.4887 87.2009 21.0574 81.2006 21.5068 80.6388C21.5068 80.6388 23.1242 77.1648 23.1242 74.6955C23.1242 74.6955 23.3153 73.1964 23.3608 72.3768Z" fill="black"/>
<circle cx="40.559" cy="46.4308" r="6.49211" stroke="white" stroke-width="4"/>
<path d="M79.7237 50.8093C79.7237 54.3948 76.8171 57.3014 73.2316 57.3014C69.6461 57.3014 66.7395 54.3948 66.7395 50.8093C66.7395 47.2239 69.6461 44.3172 73.2316 44.3172C76.8171 44.3172 79.7237 47.2239 79.7237 50.8093Z" stroke="white" stroke-width="4"/>
<path d="M96.3379 57.4257C97.1973 57.5934 101.796 57.4257 110.674 52.0745" stroke="black" stroke-width="3" stroke-linecap="round" stroke-linejoin="round"/>
<path d="M96.4773 61.4683C97.2468 61.7614 102.568 62.4966 110.288 59.4086" stroke="black" stroke-width="3" stroke-linecap="round" stroke-linejoin="round"/>
<path d="M89.0576 65.1986C89.7476 65.6026 101.796 69.8307 112.218 67.9007" stroke="black" stroke-width="3" stroke-linecap="round" stroke-linejoin="round"/>
<path d="M14.7887 57.1469C13.8635 57.4021 13.1057 57.1612 12.2098 57.356C11.6383 57.4802 10.9076 57.5651 10.3279 57.5651C9.39854 57.5651 8.46921 57.5651 7.53987 57.5651C5.62776 57.5651 3.74329 56.4499 1.82446 56.4499" stroke="black" stroke-width="3" stroke-linecap="round" stroke-linejoin="round"/>
<path d="M13.2553 52.4073C12.072 52.1819 10.4802 51.9498 9.42177 51.3618C8.61408 50.913 7.33093 50.9099 6.62603 50.3163C6.23137 49.9839 5.19687 49.7776 4.68217 49.6193C4.05686 49.4269 2.07816 49.1509 1.82446 48.6435" stroke="black" stroke-width="3" stroke-linecap="round" stroke-linejoin="round"/>
<path d="M15.0827 49.5189C14.223 48.9718 10.3608 46.266 9.63088 45.5767C9.26443 45.2306 8.7332 45.0972 8.37628 44.7403C7.77354 44.1375 6.99953 43.6423 6.35498 42.9978C5.00718 41.65 3.82317 39.7454 2.10327 38.8854" stroke="black" stroke-width="3" stroke-linecap="round" stroke-linejoin="round"/>
</svg>
