<?xml version="1.0" encoding="UTF-8"?>
<svg id="a" data-name="Lager 1" xmlns="http://www.w3.org/2000/svg" viewBox="0 0 449.08 395.33">
  <defs>
    <style>
      .b {
        fill: #2c441d;
      }

      .c {
        fill: #dde596;
      }

      .d {
        fill: #90a12b;
      }

      .e {
        fill: #09070d;
      }

      .f {
        fill: #aca195;
      }

      .g {
        fill: #f6eee9;
      }

      .h {
        fill: #dacec2;
      }

      .i {
        fill: #5a782a;
      }

      .j {
        fill: #e9e0d9;
      }

      .k {
        fill: #3c5523;
      }
    </style>
  </defs>
  <path class="h" d="m136.46,264.13l10.12,93.81c3.16,16.93,30.35,37.39,62.84,37.39h39.56c32.03,0,58.98-20.1,62.71-36.75l12.28-94.45s-77.5,21.16-187.53,0Z"/>
  <path class="j" d="m145.76,247.55s66.48-26.94,158.75-2.91c0,0,33.73,8.72,15.99,24.42,0,0-33.58,22.53-114.7,14.68-81.12-7.85-78.21-27.04-60.04-36.2Z"/>
  <path class="f" d="m155.07,267.91s-16.41-8.34-5.81-16.57c0,0,31.98-18.32,116.3-10.18,0,0,60.11,7.56,47.39,22.97l-5.52,3.78s-2.91-10.76-51.75-15.02c0,0-109.9-5.33-100.6,15.02Z"/>
  <path class="e" d="m307.42,267.91s-52.32,27.33-152.35,0c0,0-9.76-10.23,28.62-14.42,38.38-4.19,111.83-4.48,123.73,14.42Z"/>
  <path class="g" d="m139.59,312.92s38.41,11.9,86.84,13.62c0,0,60.04,0,94.11-13.81l.4-5.63s-30.7,13.34-94.5,13.74c0,0-41.51-1.13-87.16-13.66l.32,5.75Z"/>
  <path class="k" d="m255.38,167.99s-69.74,59.43-88.37,74.01l3.81,6.67s76.82-66.46,87.51-72.72l-2.96-7.97Z"/>
  <path class="b" d="m192.91,216.8s-43.21-34.67-68.23,20c-25.02,54.67,21.64,73.7,53.38,59.23,31.74-14.47,59.83-49.39,14.85-79.23Z"/>
  <path class="c" d="m182.27,228.79c1.41-1.44,3.55-1.62,4.79-.4,1.24,1.21,1.1,3.36-.3,4.8-1.41,1.44-3.55,1.62-4.79.4-1.24-1.21-1.1-3.36.3-4.8Z"/>
  <path class="k" d="m202.59,32.57s37.36,105.68,45.87,133.33l6.38.59s-42.3-116.84-44.76-131.79l-7.5-2.14Z"/>
  <path class="b" d="m246.6,32.35c-2.41,2.89-6.41,7.98-8.86,10.85-3.88,4.54-12.99,10.98-30.11,2.14-24.22-12.5-26.4-13.22-26.4-13.22,0,0-21.65-7.49-5.24-17.65,16.41-10.16,53.52-19.92,78.52-10.94,18.75,6.74.88,18.26-7.91,28.81Z"/>
  <path class="c" d="m214.15,7.97c-.17-.84-1.39-1.3-2.73-1.03-1.34.27-2.28,1.17-2.11,2.02.17.84,1.39,1.3,2.73,1.03,1.34-.27,2.28-1.17,2.11-2.02Z"/>
  <path class="k" d="m131.7,51.54s68.73,123.01,85.14,155.47l8.04-.62S147.67,70.59,141.44,52.59l-9.74-1.06Z"/>
  <path class="i" d="m83.23,77.13c9.19,11.59,24.28,16.75,38.84,14.09,19.36-3.53,46.54-13.5,48.24-41.57,2.66-43.89-55.63-34-67.55-19.76-9.68,11.57-36.51,25.82-19.53,47.24Z"/>
  <path class="c" d="m136.45,30.93c1.83-1.18,4.02-1.03,4.9.33s.1,3.42-1.73,4.59c-1.83,1.18-4.02,1.03-4.9-.33s-.1-3.42,1.73-4.59Z"/>
  <path class="i" d="m291.6,35.57s-32.06,125.59-41.67,157.64l5.75,4.68s34.5-139.49,41.74-155.44l-5.83-6.87Z"/>
  <path class="d" d="m278.4,6.6s-23.13,7.26,13.02,51.48c36.15,44.22,76.3,46.11,76.3,46.11,0,0,27.16-12.51-23.83-68.91,0,0-34.94-40.99-65.48-28.68Z"/>
  <path class="c" d="m301.11,33.31c1.03,1.39,1.03,3.14,0,3.9-1.03.76-2.7.26-3.73-1.13-1.03-1.39-1.03-3.14,0-3.9,1.03-.76,2.7-.26,3.73,1.13Z"/>
  <path class="k" d="m226.59,125.61s8.42,97.28,9.09,131.02l6.62,1.38s-10.59-114.07-8.56-131.62l-7.15-.79Z"/>
  <path class="i" d="m253.8,123.57s12.42-13.45-9.04-38.74c0,0-34.75-34.95-65.66-18.83,0,0-21.54,15.01-5.7,36.86,15.84,21.86,61.64,43.12,80.4,20.71Z"/>
  <path class="c" d="m228.03,106.51c-1.41-.8-2.07-2.44-1.47-3.66s2.23-1.56,3.64-.75c1.41.8,2.07,2.44,1.47,3.66s-2.23,1.56-3.64.75Z"/>
  <g>
    <path class="k" d="m256.8,65.62s-8.59,110.72-14.1,148.71l7.17,2.78s9.27-129.96,14.8-149.28l-7.87-2.21Z"/>
    <path class="d" d="m272.51,56.99s26.27-4.24,47.96-.33l8.07,1.7s-51.64,10.94-75.87,6.7c-24.23-4.24-36.36-10.09-36.36-10.09,0,0,8.59-3.21,30.71.16,19.79,3.02,25.5,1.86,25.5,1.86Z"/>
    <path class="k" d="m328.54,58.36s-73.61,28.08-112.24-3.39c0,0,56.25,11.86,112.24,3.39Z"/>
  </g>
  <path class="i" d="m144.7,108.72s62.09,65.8,82.84,95.5l-4.33,6.76s-68.51-85.77-81.37-99.71l2.86-2.55Z"/>
  <path class="d" d="m128.71,74.05c11.71,5.28,19.46,16.79,19.33,29.64-.16,16.2-9.44,37.79-53.76,46.77-75.17,15.23-113.12-17.45-85.01-42.3,24.91-22.01,78.38-52.61,119.44-34.11Z"/>
  <path class="c" d="m107.37,84.61c-2.01.58-3.25,2.38-2.77,4.03s2.49,2.52,4.49,1.94c2.01-.58,3.25-2.38,2.77-4.03-.47-1.65-2.49-2.52-4.49-1.94Z"/>
  <path class="k" d="m221.41,217.77s-54.92-32.76-81.86-29.38l-1.3,5.85s20.98-4.35,82.62,28.15l.54-4.62Z"/>
  <path class="i" d="m143.33,192.96s1.45,35.36-32.67,39.03c0,0-47.66,9.95-78.32-32.51,0,0-13.14-29.03,3.6-42.68,0,0,28.15-34.27,77.05-14.76,0,0,36.94,8.39,30.34,50.92Z"/>
  <path class="c" d="m114.4,195.95c-1.72-.85-2.52-2.72-1.8-4.19.72-1.47,2.7-1.97,4.42-1.12,1.72.85,2.52,2.72,1.8,4.19s-2.7,1.97-4.42,1.12Z"/>
  <path class="k" d="m320.76,199.67s-40.62-7.06-93.3,7.43l-1.11,5.69s46.64-15.61,94.85-7.56l-.44-5.57Z"/>
  <path class="i" d="m400.71,213.73s-2.95-28.66-32.06-42.51c-29.11-13.85-46.68,1.92-46.68,1.92,0,0-22.76,16.41-18.98,56.98,3.77,40.58,53.66,45.46,69.3,39.66,15.65-5.8,38.14-19.51,28.42-56.06Z"/>
  <path class="c" d="m332.46,197.87c1.46.55,2.27,1.97,1.82,3.18-.45,1.2-2.01,1.73-3.46,1.18-1.46-.55-2.27-1.97-1.82-3.18s2.01-1.73,3.46-1.18Z"/>
  <path class="k" d="m357.7,80.24s-83.51,103.77-106.16,129.64l3.39,6.83s91.72-115.73,105.29-127.55l-2.52-8.91Z"/>
  <path class="i" d="m340.33,66.03s-27.56,32.96,9.49,77.85c37.05,44.9,94.05-13.79,94.05-13.79,0,0,20.82-25.22-20.77-70.88-41.59-45.67-82.78,6.82-82.78,6.82Z"/>
  <path class="c" d="m363,78.51c1.79.77,2.73,2.6,2.09,4.08-.64,1.48-2.61,2.06-4.4,1.28s-2.73-2.6-2.09-4.08c.64-1.48,2.61-2.06,4.4-1.28Z"/>
  <path class="k" d="m183.85,141.8s69.9,86.3,92.02,117.66l7.12-2.91s-82.64-100.73-91.91-118.56l-7.23,3.81Z"/>
  <path class="b" d="m191.94,114.92s-43.14-11.7-62.2,39.99c-19.06,51.68,38.62,59.07,61.69,40.86,23.07-18.21,61.09-72.91.5-80.85Z"/>
  <path class="c" d="m188.43,134.25c-.69,1.68-2.4,2.57-3.81,1.99-1.41-.58-2-2.42-1.31-4.1.69-1.68,2.4-2.57,3.81-1.99,1.41.58,2,2.42,1.31,4.1Z"/>
  <path class="b" d="m177.12,83.57s9.71-39.57-34.08-31.32c-43.79,8.26-28.86,44.65-16.15,52.92,12.71,8.27,42.9,11.89,50.23-21.61Z"/>
  <path class="c" d="m166.61,80c1.48.31,2.47,1.58,2.2,2.84-.26,1.26-1.67,2.03-3.15,1.72-1.48-.31-2.47-1.58-2.2-2.84.26-1.26,1.67-2.03,3.15-1.72Z"/>
  <path class="k" d="m324.06,102.01s-64.4,104.04-82.11,130.19l3.86,5.84s70.53-115.87,81.56-128.19l-3.3-7.84Z"/>
  <path class="b" d="m358.9,135.46s-66.9-21.56-44.7-46.86c22.2-25.3,82.29,22.56,84.67,25.25,4.34,4.92,49.53,53.98-39.97,21.61Z"/>
  <path class="c" d="m333.28,99.12c-.49,1.46-2.72,2.02-4.98,1.25s-3.69-2.56-3.19-4.02c.49-1.46,2.72-2.02,4.98-1.25s3.69,2.56,3.19,4.02Z"/>
  <path class="d" d="m281.17,174.21s-27.39-1.82-35.54-24.57c0,0-10.74-32.28,12.41-48.82,0,0,15.15-18.73,35.79-10.35,0,0,26.44,14.38,27.97,38.51,0,0,2.71,46.52-40.64,45.23Z"/>
  <path class="c" d="m281.88,155.04c-.13-1.53.92-2.87,2.36-2.99,1.44-.13,2.71,1.01,2.84,2.54.13,1.53-.92,2.87-2.36,2.99-1.44.13-2.71-1.01-2.84-2.54Z"/>
  <path class="k" d="m324.27,160.26s-61.26,44.28-77.53,55.04l2.7,5.74s67.54-49.59,76.74-54.03l-1.91-6.75Z"/>
  <path class="b" d="m328.28,145.99s-35.74-11.34-6.49,50.05c0,0,18.82,36.38,18.18,48.16s9.1,21.63,16.43-14.87c7.32-36.51-6.42-74.88-28.12-83.34Z"/>
  <path class="c" d="m324.68,163.29c-.61-1.84.02-3.7,1.4-4.16,1.39-.46,3.01.66,3.62,2.5.61,1.84-.02,3.7-1.4,4.17-1.39.46-3.01-.66-3.62-2.5Z"/>
  <path class="d" d="m239.43,192.4s35.9-4.13,51.9,23.58c0,0,21.65,39.5-4.35,66.52,0,0-15.11,27.99-43.85,21.96,0,0-37.69-12.46-45.46-43.52,0,0-14.68-59.95,41.76-68.54Z"/>
  <path class="c" d="m243.11,217.54c.54,1.96-.5,3.95-2.33,4.46-1.83.5-3.75-.67-4.29-2.63-.54-1.96.5-3.95,2.33-4.46,1.83-.5,3.75.67,4.29,2.63Z"/>
  <path class="i" d="m257.12,206.26s22.72,1.67,26.72-32.07-31.4-29.06-46.43-20.71c-15.03,8.35-34.3,18.04-9.35,39.48,0,0,13.36,11.3,29.06,13.3Z"/>
  <path class="c" d="m246.49,161.34c-.51-.99-1.96-1.27-3.23-.61-1.27.66-1.88,1.99-1.37,2.99.51.99,1.96,1.27,3.23.61,1.27-.66,1.88-1.99,1.37-2.99Z"/>
</svg>