<?xml version="1.0" encoding="UTF-8"?>
<svg xmlns="http://www.w3.org/2000/svg" viewBox="0 0 553 537.05">
  <defs>
    <style>
      .b {
        fill: #b37d56;
      }

      .c, .d {
        fill: #626b3d;
      }

      .e {
        isolation: isolate;
      }

      .f {
        fill: #4b403b;
      }

      .d {
        mix-blend-mode: multiply;
        opacity: .2;
      }

      .g {
        fill: #758d5e;
      }

      .h {
        fill: #56362d;
      }
    </style>
  </defs>
  <g class="e">
    <g id="a" data-name="Lager 1">
      <g>
        <path class="h" d="m328.05,523.69c-2.81,0-5.11-1.85-5.11-4.12v-157.44c0-2.27,2.3-4.12,5.11-4.12s5.11,1.85,5.11,4.12v157.44c0,2.27-2.3,4.12-5.11,4.12Z"/>
        <path class="h" d="m270.87,519.79c-2.81,0-5.11-1.81-5.11-4.01v-153.32c0-2.21,2.3-4.01,5.11-4.01s5.11,1.81,5.11,4.01v153.32c0,2.21-2.3,4.01-5.11,4.01Z"/>
        <path class="b" d="m324.67,331.46c.07-3.46-17.34-6.73-61.86-6.73s-61.93,3.27-61.86,6.73c0,0,.56,95.15.45,127.62,0,2.65,25.94,7.56,61.41,7.62,35.47-.05,61.42-4.97,61.42-7.62-.11-32.46.45-127.62.45-127.62Z"/>
        <path class="f" d="m262.8,326.86c-37.49.07-56.28,2.52-56.43,4.95-.2,3.13,18.93,6.02,56.74,6.11,37.84-.09,56.34-2.97,56.15-6.11-.15-2.44-18.95-4.89-56.46-4.95Z"/>
        <g>
          <path class="c" d="m270.29,225.49c-6.23,50.62-22.38,54.18-12.08,86.99l10.17-1.53c10.68-8.9,8.72-52.18,9.54-98.82,1.2-68.59-6.01-164.47,10.56-190.13,4.44-6.88,10.75-3.58,19.2.51l2.48-.72c-8.92-11.97-23.91-11.98-29.06.46-14.44,34.92-3.28,142.08-10.81,203.23Z"/>
          <g>
            <path class="c" d="m427.24,149.61c-11.64-7.63-14.64-5.2-34.67,27.04-15.3,24.63-49.33,53.5-99.37,85.92-33.05,21.41-45.23,42.57-40.95,72.49.51,3.56,19.33,11.7,23.91-6.1,4.58-17.8-3.59-39.36,30.01-64.61,42.99-32.3,75.84-65.78,89.64-83.32,14.12-17.93,17.68-38.53,29.9-27.58l1.53-3.85Z"/>
            <path class="g" d="m544.37,244.26c-1.53-5.98-4.2-21.62-6.74-22.89-2.54-1.27-16.53-.64-18.06-4.96-1.53-4.32,9.16-3.82,15.39-1.27,6.23,2.54-3.05-8.14-4.45-12.34-1.4-4.2-3.56-14.24-10.3-14.88-6.74-.64-16.02,2.54-26.2-.64-10.17-3.18-13.27-10.85,2.29-6.99,12.84,3.18,21.49,4.14,23.78,2.42,2.03-1.53-.6-3.43-2.42-6.23-1.89-2.91-3.4-5.61-5.34-6.36-8.27-3.18-19.46-3.43-30.14-3.56-9.3-.11-26.71-4.2-24.16-7.63,2.54-3.43,22.13-1.27,28.23-.64,6.1.64,16.37,1.85,21.49,4.07,3.82,1.65,4.58.13,1.02-3.56-4.21-4.36-6.91-11.78-13.23-18.31-7.38-7.63-14.63-5.47-18.95-9.16-9.72-8.29-25.23-12.96-39.93-9.03-21.87,5.85-8.65,26.45-11.95,28.61-3.28,2.14-22.8-12.79-38.41,3.31-16.28,16.79-12.45,45.53,9.16,68.17,5.34,5.6,9.03,8.9,10.81,7.25,3.56-3.31-1.31-13.76,4.58-24.42,2.67-4.83,19.84-15.52,24.04-24.67,4.2-9.16,10.05-5.34,4.71,4.07-5.34,9.41-13.07,17.38-15.52,30.52-3.05,16.41-.38,23.02,1.53,23.53,1.91.51,4.83-1.27,9.67-.13,4.83,1.14,11.52,4.64,13.23,2.42,1.27-1.65-3.05-18.06,1.65-40.82,2.87-13.9,11.32-18.06,10.3-8.9-1.02,9.16-10.14,30.84-3.56,51.89,1.27,4.07,5.34.13,11.7,2.16,6.36,2.03,10.9,4.57,12.46,3.18,1.14-1.02-3.69-11.45-3.05-25.18.42-9.03,6.61-13.61,6.23-.64s1.06,25.09,4.96,27.22c4.2,2.29,17.6,4.28,29.76,3.05,18.95-1.91,31.11,9.2,33.83,6.49,1.78-1.78-6.87-9.16-8.39-15.13Zm-143.33-54.94c-3.88,9.97-17.8,8.65-11.19-11.19,6.61-19.84,35.1-22.02,35.1-13.74,0,9.67-20.35,15.77-23.91,24.93Zm37.9-46.17c-2.1-4.77,6.49-9.35,17.93-9.35s18.5,6.87,17.17,10.11c-1.34,3.24-10.49.19-16.79-.57-6.3-.76-16.9,3.01-18.31-.19Zm67.15,96.15c-10.3-5.15-9.23-20.07-6.49-20.79,3.62-.95,6.87,4.58,9.73,9.54,2.86,4.96,7.06,16.41-3.24,11.26Zm8.39-34.72c-5.15,1.34-12.03.18-12.4-3.24-.76-7.06,14.31-4.77,17.36-1.91,3.05,2.86.19,3.82-4.96,5.15Z"/>
            <path class="c" d="m550.87,257.88c-6.12-3.74-11.66-8.36-16.92-13.24-4.78-4.46-9.33-9.16-13.85-13.9.15.07.3.14.45.19,1.06.44,2.17.59,3.25.72,2.17.26,4.3.31,6.4.49,2.1.17,4.19.37,6.15,1.02,1.96.61,3.78,1.7,5.13,3.32.06.07.17.09.25.04.09-.06.11-.17.06-.26-1.17-1.85-3.05-3.24-5.1-4.03-2.06-.8-4.23-1.18-6.36-1.42-2.14-.23-4.27-.34-6.33-.63-2.07-.35-3.97-.72-5.83-1.63h-.03s-.07,0-.11,0c-9.62-10.21-18.95-20.71-28.76-30.8-8.79-9.02-17.88-17.81-27.71-25.75.42.14.83.29,1.25.41,2.71.73,5.48,1.04,8.23,1.23,5.51.38,10.99.27,16.46.26,5.46-.02,10.93-.07,16.33.51,5.34.6,10.9,1.65,15.18,5.07.08.06.2.06.26-.02.07-.08.06-.2-.02-.27-2.09-1.83-4.62-3.09-7.24-3.98-2.62-.88-5.34-1.44-8.08-1.79-5.47-.7-10.97-.83-16.45-.86-5.47-.04-10.94.02-16.35-.41-2.7-.22-5.38-.57-7.99-1.14-1.68-.37-3.31-.89-4.87-1.59-.35-.27-.7-.56-1.06-.83-5.76-4.39-11.8-8.47-18.25-11.83-1.73-.9-3.44-1.78-5.14-2.62,1.29.07,2.58.08,3.86-.01,3.19-.24,6.32-.79,9.43-1.32,6.22-1.09,12.43-2.17,18.69-2.76,6.25-.61,12.55-.84,18.82-.41,6.27.4,12.51,1.38,18.61,2.98.1.03.2-.03.23-.13.03-.1-.03-.2-.13-.23-6.06-1.8-12.31-3.07-18.64-3.61-6.32-.55-12.7-.49-19.02.06-6.32.54-12.59,1.59-18.81,2.62-3.11.51-6.22,1-9.31,1.37-2.13.2-3.5-.1-5.6-.35-1.98-.92-4.74-3.31-6.79-4.04.2.84.12,2.21-.47,2.6-.68.46-1.84.06-2.25.06,1.68.67,4.43,1.77,6.06,2.53,1.01,2.73,1.71,5.36,1.45,8.16-.26,3.09-1.56,6.02-3.25,8.69-3.53,5.3-8.37,9.71-12.99,14.26-4.66,4.53-9.25,9.21-13.21,14.41-4,5.17-7.19,10.98-9.31,17.15-.03.1.02.2.11.24.1.04.21-.01.24-.11,2.3-6.06,5.69-11.64,9.73-16.67,4-5.07,8.67-9.58,13.36-14.06,4.64-4.52,9.56-8.89,13.3-14.41,1.79-2.77,3.28-5.96,3.43-9.39.14-2.8-.26-5.27-1.45-7.71,9.31,4.48,17.55,10.07,25.94,16.34,4.03,3.04,7.93,6.25,11.74,9.57.75,1.5,1.2,3.13,1.42,4.81.41,2.78.43,5.63.27,8.48-.34,5.71-1.37,11.41-2.38,17.09-1.02,5.69-2.05,11.4-2.66,17.18-.3,2.89-.42,5.81-.22,8.73.23,2.89.83,5.87,2.46,8.37.05.08.17.11.25.06.09-.05.12-.17.06-.26-1.48-2.47-1.96-5.37-2.07-8.21-.09-2.86.16-5.73.5-8.59.71-5.71,1.91-11.37,2.99-17.06,1.06-5.69,2.15-11.4,2.55-17.24.19-2.91.22-5.88-.35-8.81-.17-.93-.44-1.86-.79-2.77,6.26,5.57,12.28,11.43,18.17,17.41,10.09,10.24,19.83,20.85,29.86,31.21,5.01,5.18,10.16,10.25,15.54,15.06,5.4,4.78,11.09,9.31,17.35,12.94.13.07.31.03.39-.1.08-.14.03-.31-.1-.39Z"/>
            <path class="d" d="m544.37,244.26c-1.53-5.98-4.2-21.62-6.74-22.89-2.54-1.27-16.53-.64-18.06-4.96-1.53-4.32,9.16-3.82,15.39-1.27,6.23,2.54-3.05-8.14-4.45-12.34-1.4-4.2-3.56-14.24-10.3-14.88-6.74-.64-16.02,2.54-26.2-.64-10.17-3.18-13.27-10.85,2.29-7,12.85,3.18,21.49,4.14,23.78,2.42,2.03-1.53-.6-3.43-2.42-6.23-1.89-2.91-3.4-5.61-5.34-6.36-8.27-3.18-19.46-3.43-30.14-3.56-9.3-.11-26.71-4.2-24.16-7.63s22.13-1.27,28.23-.64c6.1.64,16.37,1.85,21.49,4.07,3.82,1.65,4.58.13,1.02-3.56-4.21-4.36-6.91-11.78-13.23-18.31-7.38-7.63-14.63-5.47-18.95-9.16-9.72-8.29-25.23-12.96-39.93-9.03-18.12,4.85-12.16,19.8-11.46,26.03-4.63-2.74-7.93-3.36-11.99-.25-7.72-2.11-17.96-3.08-26.91,6.15-10.07,10.38-12.44,25.33-7.68,40.59-18.33,20.31-47.2,43-85.42,67.77-33.05,21.41-45.23,42.57-40.95,72.49.51,3.56,19.33,11.7,23.91-6.1,4.58-17.8-3.59-39.36,30.01-64.61,31.05-23.33,56.81-47.28,73.92-65.39,3.19,8.04,8.32,16.05,15.35,23.42,5.34,5.6,9.03,8.9,10.81,7.25,3.56-3.31-1.31-13.76,4.58-24.42,2.67-4.83,19.84-15.52,24.04-24.67s10.05-5.34,4.71,4.07c-5.34,9.41-13.07,17.38-15.52,30.52-3.05,16.41-.38,23.02,1.53,23.53,1.91.51,4.83-1.27,9.67-.13,4.83,1.14,11.52,4.64,13.23,2.42,1.27-1.65-3.05-18.06,1.65-40.82,2.87-13.9,11.32-18.06,10.3-8.9-1.02,9.16-10.14,30.84-3.56,51.89,1.27,4.07,5.34.13,11.7,2.16,6.36,2.03,10.9,4.56,12.46,3.18,1.14-1.02-3.69-11.45-3.05-25.18.42-9.03,6.61-13.61,6.23-.64-.38,12.97,1.06,25.09,4.96,27.22,4.2,2.29,17.6,4.28,29.76,3.05,18.95-1.91,31.11,9.2,33.83,6.49,1.78-1.78-6.87-9.16-8.39-15.13Zm-154.52-66.13c1.9-5.7,5.61-9.93,9.92-12.89-2.14,3.3-4.51,7.08-7.2,11.41-1.18,1.9-2.49,3.84-3.9,5.79.28-1.33.66-2.76,1.18-4.31Zm11.19,11.19c-2.87,7.38-11.24,8.56-12.71.64,2.9-3.29,5.41-6.29,7.48-8.92,5.44-6.91,9.31-14.2,12.71-19.95,8.48-2.53,16.43-1.07,16.43,3.3,0,9.67-20.35,15.77-23.91,24.93Zm37.9-46.17c-2.1-4.77,6.49-9.35,17.93-9.35s18.5,6.87,17.17,10.11-10.49.19-16.79-.57c-6.3-.76-16.9,3.01-18.31-.19Zm67.15,96.15c-10.3-5.15-9.23-20.07-6.49-20.79,3.62-.95,6.87,4.58,9.73,9.54,2.86,4.96,7.06,16.41-3.24,11.26Zm8.39-34.72c-5.15,1.34-12.03.18-12.4-3.24-.76-7.06,14.31-4.77,17.36-1.91,3.05,2.86.19,3.82-4.96,5.15Z"/>
          </g>
          <g>
            <path class="c" d="m249.05,308.98c-7.63-12.59-4.56-63.28-6.87-88.64-2.67-29.38-4.07-53.67-12.46-52.02l-.13-3.56c11.06,0,12.97,5.09,20.6,88.13,2.92,31.76,17.55,42.35,6.1,56.47l-7.25-.38Z"/>
            <path class="d" d="m249.05,308.98c-7.63-12.59-4.56-63.28-6.87-88.64-2.67-29.38-4.07-53.67-12.46-52.02l-.13-3.56c11.06,0,12.97,5.09,20.6,88.13,2.92,31.76,17.55,42.35,6.1,56.47l-7.25-.38Z"/>
          </g>
          <g>
            <path class="g" d="m364.02,73.64c9.16-2.29,35.36,29,37.9,28.23,2.54-.76.25-7.38-1.53-16.02-4.11-19.94,2.67-33.57-3.82-52.27C390.09,14.88,366.05.39,343.16,0s-28.65,20.34-32.43,20.98c-13.35,2.29-9.92-11.83-39.68-12.21-24.42-.31-56.85,19.84-37.01,54.94,8.75,15.48,17.55,19.84,20.98,29.38,4.17,11.59,9.04,16.02,12.21,14.5,3.43-1.65-3.18-5.47,10.05-22.26,13.23-16.79,30.01-28.74,33.83-24.67,3.82,4.07-19.33,17.8-27.47,32.05-8.14,14.24-9.41,20.86-6.1,22.89,3.31,2.03,13.13,7.26,22.13,20.35,2.8,4.07,10.17,11.45,12.97,9.16,2.8-2.29-3.79-37.63,14.75-63.59,3.82-5.34,8.5-8.37,3.82,11.7-5.34,22.89-11.46,42.52-13.23,51.63-1.53,7.88,12.48,13.36,20.35,21.11,17.3,17.04,14.24,31.03,18.57,31.03s1.54-11.01,13.23-27.22c19.08-26.45,23.91-45.78,30.52-53.92,4.52-5.56-3.31-11.19-14.5-17.3-11.19-6.1-31.29-22.64-22.13-24.93Zm-100.72-.76c-4.58-7.12,8.42-17.75,10.68-13.48,2.29,4.32-6.1,20.6-10.68,13.48Zm26.2-35.61c-14.5,4.07-19.33,7.63-29.76,14.75-10.43,7.12-13.65.84-12.72-4.07,3.82-20.09,21.62-24.67,35.1-24.67s21.87,9.92,7.38,13.99Zm81.9,69.69c3.69-2.42,8.9,4.32,9.54,7.12.64,2.8.89,11.06-2.67,10.81-3.56-.25-9.49-16.21-6.87-17.93Zm5.47-40.7c-6.24-7.22-3.15-9.24-.38-8.14,7.63,3.05,10.68,3.05,11.19,9.16.74,8.87-4.32,6.49-10.81-1.02Zm-30.78,68.42c.25,10.68-2.16,20.09-6.99,13.61-4.83-6.49,1.43-33.49,6.36-32.94,2.29.25.38,8.65.64,19.33Zm3.18-102c-15.01-1.27-11.73-13.13-1.78-13.74,12.46-.76,23.91,2.54,36.37,15.01,12.46,12.46,3.05,18.06-1.27,12.21-4.32-5.85-18.31-12.21-33.32-13.48Z"/>
            <path class="c" d="m378.45,155.66c0,.1.07.19.17.19.1,0,.19-.07.2-.17.33-4.03-.32-8.15-1.85-11.92-1.53-3.78-3.77-7.22-6.25-10.4-2.49-3.18-5.2-6.15-7.65-9.26-1.78-2.33-3.45-4.69-4.66-7.29-.89-5.87-2.03-11.71-3.48-17.48-1.94-7.74-4.35-15.37-7.27-22.81-2.87-7.19-6.28-14.16-10.12-20.88.76.56,1.55,1.09,2.38,1.53,3.03,1.64,6.31,2.56,9.51,3.47,6.44,1.74,12.79,3.61,18.8,6.4,6.01,2.76,11.73,6.16,17.06,10.11,5.34,3.93,10.42,8.25,15.2,12.89.07.07.19.07.26,0,.07-.07.08-.19,0-.27-4.65-4.79-9.56-9.34-14.87-13.41-5.3-4.08-11.01-7.68-17.09-10.54-6.08-2.88-12.55-4.83-18.96-6.62-3.19-.93-6.35-1.88-9.26-3.31-1.44-.74-2.83-1.55-4.09-2.58-.25-.21-.48-.45-.72-.67-3.66-6.08-7.84-11.85-12.37-17.3l-3.81-4.5c-1.35-1.47-2.51-2.87-3.91-4.29l-2.12-2.11c-.74-.67-1.51-1.31-2.26-1.97-.53-.46-1.07-.9-1.6-1.36-.54.05-2.69,0-3.17,0,.92.93,4.29,3.86,2.77,6.01-1,1.41-2.52,2.67-3.96,3.72-2.96,2.04-6.11,3.85-9.23,5.72-6.28,3.67-12.62,7.3-18.72,11.34-6.09,4.04-11.93,8.52-17.11,13.71-5.16,5.18-9.58,11.23-12.29,18.05-.04.09,0,.2.1.24.1.04.21,0,.25-.1,2.87-6.69,7.46-12.46,12.64-17.49,5.2-5.05,11.08-9.34,17.15-13.3,6.08-3.97,12.41-7.54,18.73-11.17,3.16-1.82,6.32-3.66,9.3-5.86,1.5-1.08,2.92-2.31,4.11-3.83.58-.76,1.08-1.68,1.17-2.72.01-.14,0-.28-.01-.42,3.61,3.76,7.11,7.6,10.34,11.69,1.31,1.48,2.39,3.13,3.62,4.67.65.85,1.29,1.7,1.93,2.56.11.65.2,1.31.21,1.98.09,1.87-.41,3.71-.88,5.52-1.13,3.6-2.92,7.02-4.86,10.34-3.96,6.61-8.58,12.86-12.97,19.27-4.41,6.4-8.64,12.95-12.23,19.87-3.62,6.89-6.42,14.26-7.97,21.89-.02.1.05.2.15.22.1.02.2-.04.22-.14,1.73-7.55,4.76-14.73,8.47-21.51,3.66-6.81,8.01-13.22,12.46-19.57,4.42-6.36,9.09-12.58,13.15-19.27,2.02-3.34,3.85-6.87,4.94-10.71.51-1.92.85-3.94.64-5.96,0,0,0-.01,0-.02.07.11.15.21.22.32l3.33,4.88,3.08,5.04c3.95,6.78,7.46,13.83,10.41,21.12.05.41.09.83.12,1.24.06,1.73-.05,3.46-.3,5.18-.25,1.72-.63,3.43-1.12,5.11-.45,1.69-.99,3.37-1.59,5.03-2.38,6.65-5.41,13.1-8.16,19.67-2.76,6.57-5.3,13.26-7.19,20.15-1.92,6.88-3.06,13.98-3.35,21.11,0,.1.08.19.18.2.1,0,.19-.07.2-.18.48-7.09,1.89-14.07,3.92-20.85,1.98-6.8,4.67-13.38,7.47-19.9,2.79-6.53,5.86-12.95,8.33-19.69,1.22-3.37,2.3-6.83,2.71-10.46.14-.98.18-1.97.16-2.95,2.31,6.2,4.3,12.52,5.94,18.94,3.93,15.3,5.9,31.1,6.41,46.91.22,7.91.16,15.84-.3,23.75-.43,7.92-1.3,15.79-2.24,23.69-.02.15.09.29.24.31.15.02.3-.08.32-.24h0c2.31-15.71,3.81-31.62,3.46-47.56-.18-8.62-.79-17.26-1.91-25.82.34.59.71,1.16,1.09,1.72.56.86,1.22,1.63,1.84,2.43,2.54,3.15,5.28,6.07,7.77,9.17,2.49,3.09,4.81,6.33,6.39,9.95,1.61,3.6,2.44,7.53,2.38,11.52Z"/>
          </g>
          <g>
            <path class="c" d="m238.37,263.9c-56.85-85.84-86.99-178.56-150.39-172.02l-1.18,3.2c57.46-.79,89.49,77.63,143.18,173.78,12.98,23.24,5.34,75.92,24.04,80.88h15.26c11.45-14.5-12.87-58.62-30.9-85.84Z"/>
            <path class="g" d="m128.61,69.83c-26.71-.89-28.87,22.51-37.77,20.98-5.55-.95-4.82-7.37-6.49-14.5-3.69-15.77-17.08-23.26-33.96-21.11-14.24,1.81-35.92,21.34-36.5,38.15-.13,3.69,7.92-4.29,18.06-6.99,9.54-2.54,13.25.86-10.17,13.23-9.16,4.83-11.57,5.21-15.77,14.5-3.79,8.38-7.82,34.53-5.15,40.89,2.67,6.36,5.91-21.49,40.63-35.29,20.38-8.1,27.22-.76,6.23,10.94-20.98,11.7-42.2,26.41-41.71,36.5.47,9.82,9.16,29.76,23.91,46.8,7.39,8.53,9.17,16.44,15.13,14.75,5.85-1.65.34-9.35,7.63-20.6,10.56-16.28,29.72-20.05,32.05-26.71,2.8-8.01,3.31-19.84-1.02-37.9-4.32-18.06,8.73-15.01,11.83,3.56,3.18,19.08-2.25,28.58,1.02,29.38,6.23,1.53,16.67-8.86,26.2-14.75,15.01-9.28,24.8-33.32,20.86-46.67-1.99-6.74-13.99-10.68-23.53-12.34-9.54-1.65-5.72-6.36,5.21-6.36s16.28,8.9,19.33,8.14c3.05-.76,5.94-33.86-16.02-34.59ZM26.33,161.93c-2.96-5.63,15.68-15.46,17.45-11.83,2,4.1-14.5,17.45-17.45,11.83Zm41.78-83.94c-5.44-4.01-21.08,2.58-23.37-5.06-3.47-11.56,24.89-11.64,30.71,3.05,2.62,6.6-1.91,6.01-7.34,2Zm50.97,68.77c-7.36,2.77-4.07-12.34-13.74-22.76-5.1-5.51-3.01-8.25-.51-7.63,13.35,3.31,24.04,26.71,14.24,30.4Z"/>
            <path class="g" d="m128.61,69.83c-26.71-.89-28.87,22.51-37.77,20.98-5.55-.95-4.82-7.37-6.49-14.5-3.69-15.77-17.08-23.26-33.96-21.11-14.24,1.81-35.92,21.34-36.5,38.15-.13,3.69,7.92-4.29,18.06-6.99,9.54-2.54,13.25.86-10.17,13.23-9.16,4.83-11.57,5.21-15.77,14.5-3.79,8.38-7.82,34.53-5.15,40.89,2.67,6.36,5.91-21.49,40.63-35.29,20.38-8.1,27.22-.76,6.23,10.94-20.98,11.7-42.2,26.41-41.71,36.5.47,9.82,9.16,29.76,23.91,46.8,7.39,8.53,9.17,16.44,15.13,14.75,5.85-1.65.34-9.35,7.63-20.6,10.56-16.28,29.72-20.05,32.05-26.71,2.8-8.01,3.31-19.84-1.02-37.9-4.32-18.06,8.73-15.01,11.83,3.56,3.18,19.08-2.25,28.58,1.02,29.38,6.23,1.53,16.67-8.86,26.2-14.75,15.01-9.28,24.8-33.32,20.86-46.67-1.99-6.74-13.99-10.68-23.53-12.34-9.54-1.65-5.72-6.36,5.21-6.36s16.28,8.9,19.33,8.14c3.05-.76,5.94-33.86-16.02-34.59ZM26.33,161.93c-2.96-5.63,15.68-15.46,17.45-11.83,2,4.1-14.5,17.45-17.45,11.83Zm41.78-83.94c-5.44-4.01-21.08,2.58-23.37-5.06-3.47-11.56,24.89-11.64,30.71,3.05,2.62,6.6-1.91,6.01-7.34,2Zm50.97,68.77c-7.36,2.77-4.07-12.34-13.74-22.76-5.1-5.51-3.01-8.25-.51-7.63,13.35,3.31,24.04,26.71,14.24,30.4Z"/>
            <path class="g" d="m128.61,69.83c-26.71-.89-28.87,22.51-37.77,20.98-5.55-.95-4.82-7.37-6.49-14.5-3.69-15.77-17.08-23.26-33.96-21.11-14.24,1.81-35.92,21.34-36.5,38.15-.13,3.69,7.92-4.29,18.06-6.99,9.54-2.54,13.25.86-10.17,13.23-9.16,4.83-11.57,5.21-15.77,14.5-3.79,8.38-7.82,34.53-5.15,40.89,2.67,6.36,5.91-21.49,40.63-35.29,20.38-8.1,27.22-.76,6.23,10.94-20.98,11.7-42.2,26.41-41.71,36.5.47,9.82,9.16,29.76,23.91,46.8,7.39,8.53,9.17,16.44,15.13,14.75,5.85-1.65.34-9.35,7.63-20.6,10.56-16.28,29.72-20.05,32.05-26.71,2.8-8.01,3.31-19.84-1.02-37.9-4.32-18.06,8.73-15.01,11.83,3.56,3.18,19.08-2.25,28.58,1.02,29.38,6.23,1.53,16.67-8.86,26.2-14.75,15.01-9.28,24.8-33.32,20.86-46.67-1.99-6.74-13.99-10.68-23.53-12.34-9.54-1.65-5.72-6.36,5.21-6.36s16.28,8.9,19.33,8.14c3.05-.76,5.94-33.86-16.02-34.59ZM26.33,161.93c-2.96-5.63,15.68-15.46,17.45-11.83,2,4.1-14.5,17.45-17.45,11.83Zm41.78-83.94c-5.44-4.01-21.08,2.58-23.37-5.06-3.47-11.56,24.89-11.64,30.71,3.05,2.62,6.6-1.91,6.01-7.34,2Zm50.97,68.77c-7.36,2.77-4.07-12.34-13.74-22.76-5.1-5.51-3.01-8.25-.51-7.63,13.35,3.31,24.04,26.71,14.24,30.4Z"/>
            <path class="c" d="m140.51,135.24c.03.1.13.16.23.13.1-.02.16-.13.14-.23-1.39-5.88-5.35-10.82-9.86-14.68-4.57-3.88-9.7-7-14.97-9.75-5.28-2.75-10.73-5.14-16.13-7.56-2.7-1.22-5.39-2.44-8-3.75-1.28-.68-2.6-1.34-3.7-2.2-.53-.44-1.06-.91-1.3-1.45-.11-.22-.14-.44-.12-.68,1.36-1.51,2.76-3,4.32-4.24-.09-.01-.18,0-.28-.02-.4-.07-.75-.17-1.09-.29-.61.43-1.2.89-1.77,1.36-1.27,1.04-2.47,2.14-3.59,3.31-1.4,1.41-2.73,2.88-4.03,4.38-.94.38-1.96.61-2.97.78-1.73.29-3.51.36-5.3.48l-10.77.48c-7.2.38-14.44,1.12-21.51,2.8-7.05,1.7-13.9,4.34-20.12,8.09-6.26,3.69-11.72,8.59-16.43,14.04-.07.08-.06.2.02.26.08.07.2.06.27-.02,4.85-5.29,10.43-9.91,16.65-13.43,6.18-3.6,12.97-6.02,19.92-7.64,6.96-1.61,14.11-2.29,21.28-2.62,3.59-.16,7.18-.25,10.79-.56,1.81-.12,3.62-.38,5.42-.79.51-.12,1.03-.28,1.55-.45-.4.48-.83.95-1.22,1.44-4.05,5.03-7.68,10.36-11.09,15.81-6.79,10.92-12.71,22.37-17.4,34.31-2.82,7.12-5.16,14.44-6.9,21.89-.43.52-.9,1.02-1.41,1.49-1.11,1.04-2.31,2.02-3.55,2.97-2.48,1.89-5.07,3.67-7.55,5.63-2.47,1.96-4.84,4.11-6.77,6.65-1.93,2.52-3.3,5.55-3.59,8.71,0,.07.05.14.12.15.08.01.15-.04.16-.12.44-3.1,1.95-5.91,3.9-8.29,1.94-2.41,4.34-4.42,6.8-6.32,2.47-1.91,5.07-3.65,7.6-5.53,1.26-.95,2.53-1.92,3.64-3.1.06-.07.12-.15.18-.22-.95,4.36-1.71,8.77-2.22,13.21-1.45,12.72-.45,25.81,3.79,37.92.05.15.22.23.37.18.15-.05.24-.21.18-.36-3.9-12.12-4.44-25.04-2.82-37.56.18-1.4.4-2.79.62-4.19.36.96.88,1.84,1.4,2.69,1.29,2.01,2.77,3.84,4.14,5.72,1.37,1.88,2.72,3.78,3.73,5.85,1.02,2.06,1.76,4.29,1.81,6.62,0,.07.06.14.14.14.08,0,.14-.06.15-.14.11-2.38-.45-4.77-1.42-6.94-.97-2.18-2.24-4.2-3.59-6.12-1.35-1.93-2.79-3.78-4.01-5.73-.83-1.4-1.58-2.81-1.95-4.33.75-4.09,1.68-8.16,2.78-12.17,1.68-6.11,3.85-12.08,6.18-17.98,2.59-6.47,5.56-12.79,8.82-18.97-.01,1.28.14,2.57.38,3.79.5,2.58,1.35,5.03,2.23,7.45,1.76,4.84,3.63,9.6,5.11,14.48,1.51,4.87,2.69,9.84,3.31,14.9.63,5.06.77,10.18.33,15.28,0,.1.06.19.16.2.1.01.2-.06.21-.16.64-5.1.78-10.29.27-15.43-.52-5.14-1.54-10.23-3.02-15.17-1.45-4.95-3.29-9.77-4.99-14.59-.84-2.41-1.62-4.83-2.23-7.26-.45-1.8-.76-3.62-.73-5.46,2.38-4.39,4.91-8.7,7.57-12.93,3.41-5.38,7.06-10.6,10.89-15.68.44-.57.88-1.13,1.32-1.69-.05.38-.09.77-.09,1.15-.04,1.72.3,3.43.88,5.01,1.1,3.21,2.87,6.03,4.62,8.81,3.57,5.52,7.41,10.8,10.79,16.38,3.41,5.54,6.39,11.35,8.53,17.49,1.03,3.08,1.89,6.22,2.51,9.41.59,3.2.89,6.45.98,9.71,0,.1.09.19.19.19.1,0,.19-.08.19-.19.01-3.28-.18-6.57-.67-9.83-.52-3.25-1.26-6.47-2.27-9.61-2.06-6.26-4.93-12.24-8.32-17.87-3.36-5.65-7.18-11-10.68-16.49-1.71-2.75-3.39-5.55-4.54-8.5-.97-2.32-1.42-4.85-.89-7.27,1.11-1.41,2.23-2.8,3.42-4.14.14-.15.27-.3.41-.46.01.05,0,.11.02.16.25.87.83,1.48,1.39,2.01,1.16,1.05,2.44,1.88,3.75,2.61,2.62,1.47,5.35,2.65,8.07,3.85,5.43,2.38,10.87,4.71,16.12,7.39,5.25,2.67,10.4,5.6,14.95,9.32,4.5,3.69,8.56,8.29,10.13,14.02Z"/>
          </g>
          <g>
            <path class="g" d="m298.43,152.28c-8.5-6.41-14.7-12.83-16.02-12.59-4.52.82,4.58,12.08,3.56,29.5-1.32,22.52,2.02,42.1,12.21,46.42,15.9,6.74,18.95-5.72,22.76-4.96,3.82.76,17.55,6.49,20.6-9.16,4.97-25.49-24.75-35.38-43.11-49.22Zm-.86,38.11c-6.87-2.99-7.8-9.46-5.53-11.45,1.53-1.34,4.15.4,6.1,3.82,4.01,6.99,13.17,5.9,11.06,8.2-1.34,1.46-6.25,1.77-11.64-.57Z"/>
            <path class="c" d="m336.2,180.47c-.08,0-.14.06-.14.14-.08,2.52-1.62,4.64-3.25,6.47-1.66,1.85-3.59,3.47-5.47,5.15-1.87,1.69-3.78,3.38-5.41,5.4-.81,1.01-1.55,2.12-1.98,3.4,0,0,0,.01,0,.02-.69-3.15-1.76-6.19-3.01-9.13-.08-.2-.18-.39-.27-.58,0-1.55.28-3.03.78-4.51.66-1.88,1.71-3.65,2.83-5.36,1.12-1.72,2.33-3.4,3.44-5.17.56-.88,1.06-1.81,1.43-2.82.35-.98.53-2.2-.09-3.16-.04-.06-.12-.08-.19-.05-.07.04-.09.13-.05.19.47.88.24,1.92-.16,2.82-.41.91-.99,1.76-1.56,2.61-1.16,1.69-2.47,3.29-3.65,5.01-1.17,1.72-2.3,3.52-3.05,5.54-.36.89-.6,1.87-.67,2.85-2.51-5.39-5.53-10.52-8.74-15.48-3.75-5.77-7.86-11.27-12.02-16.73-4.12-5.48-8.61-10.69-12.41-16.36-.06-.08-.17-.11-.26-.06-.09.05-.12.17-.06.26,1.79,2.94,3.84,5.7,5.85,8.48l6.09,8.28c3.8,5.16,7.5,10.4,10.97,15.78-.03-.01-.06-.03-.09-.04-.95-.39-1.94-.56-2.91-.7-1.94-.27-3.86-.37-5.76-.57-1.89-.19-3.8-.4-5.55-1.03-1.74-.59-3.37-1.76-3.92-3.62-.02-.07-.1-.12-.17-.1-.08.02-.12.1-.1.17.4,1.98,2.09,3.52,3.92,4.23,1.84.76,3.79,1.1,5.71,1.34,1.92.24,3.84.38,5.71.67.93.15,1.84.35,2.71.6.52.15,1.01.34,1.46.6,3.55,5.61,6.87,11.38,9.4,17.47.86,2.13,1.64,4.29,2.31,6.49-.34-.3-.72-.56-1.11-.75-1.36-.74-2.84-1.09-4.29-1.36-2.92-.52-5.85-.63-8.76-.76-2.91-.12-5.81-.14-8.68-.44-1.43-.16-2.86-.34-4.23-.74-1.35-.39-2.71-1.06-3.42-2.28-.04-.06-.12-.09-.19-.06-.07.04-.1.12-.06.19.7,1.39,2.13,2.18,3.51,2.65,1.4.49,2.85.78,4.31.98,2.91.39,5.82.54,8.72.7,2.89.17,5.8.32,8.6.85,1.4.27,2.76.65,4.01,1.22.83.36,1.54.88,2.09,1.56.43,1.61.67,3.35.84,5,5.35,49.87-63.81,81.36-52.56,115.7l6.1.57c15.83-14.12,3.62-20.98,29.57-58.95,16.07-23.52,20.19-37.58,18.46-56.28-.08-.9-.27-2.54-.41-3.44.32-1.84,1.27-3.5,2.43-5.03,1.51-1.94,3.36-3.64,5.2-5.35,1.84-1.71,3.7-3.45,5.35-5.41,1.61-1.93,3.05-4.32,2.97-6.96,0-.07-.07-.14-.14-.14Z"/>
          </g>
          <g>
            <path class="c" d="m265.88,313.63c-14.53,13-17.32,22.24-15.89,32.98,1.02,7.63,19.84,9.41,25.69-.76,5.87-10.21,8.54-29.99,14.5-40.95,6.36-11.7,23.46-41.78,55.26-45.59l-.83-1.65c-35.1,1.02-59.01,38.34-78.73,55.98Z"/>
            <path class="g" d="m446.36,285.96c-.38-1.53-8.62-8.89-14.12-17.93-9.16-15.07-21.25-22.81-32.81-33.57-16.6-15.45-38.53-16.41-49.6-5.34s-4.58,19.84-6.49,29.38c-1,4.99-10.79,10.42-11.31,20.06-1.66,30.68,35.16,28.58,49.08,21.14,2.78-1.48-4.58-5.34-4.2-19.08.2-7.37,7.01-9.66,6.87-2.29-.05,2.65,2.24,15.31,2.86,19.27.28,1.8,6.68.76,11.26-.19,9.16-1.91,22.7-11.26,38.92-8.39,10.58,1.87,9.92-1.53,9.54-3.05Zm-73.13-46.68c-6.98.6-9.27,10.83-14.17,6.52-3.97-3.49,4.26-18.35,16.9-13.99,10.64,3.67,4.25,6.87-2.73,7.47Zm32.31,24.55c-6.87-1.53,1.93-10.07,6.49-9.16,13.35,2.67.38,10.68-6.49,9.16Z"/>
            <path class="c" d="m419.79,274.71c-1.74-.72-3.48-1.4-5.24-2.08.75-.08,1.48-.28,2.14-.56,1.7-.67,3.2-1.6,4.73-2.4,1.52-.81,3.08-1.54,4.74-1.86,1.66-.34,3.39-.28,5.09.07.07.01.14-.02.17-.09.02-.07-.02-.15-.09-.18-1.68-.55-3.5-.78-5.29-.53-1.79.25-3.5.91-5.08,1.69-1.58.78-3.09,1.67-4.67,2.25-1.4.5-2.77.71-4.26.66-5.75-2.15-11.58-4.09-17.49-5.77-6.82-1.95-13.71-3.64-20.68-5.02.17-.03.35-.05.52-.1,1.82-.44,3.51-1.25,5.08-2.21,3.15-1.93,5.92-4.33,8.72-6.64,2.79-2.31,5.58-4.64,8.67-6.45,3.07-1.81,6.5-3.11,10.08-3.12.08,0,.14-.06.14-.14,0-.08-.06-.15-.14-.15-3.63-.15-7.25.97-10.44,2.74-3.21,1.77-6.11,4.02-8.94,6.31-2.83,2.28-5.6,4.63-8.66,6.46-2.52,1.48-5.23,2.55-8.09,2.73-.79-.15-1.58-.31-2.38-.45-4.4-.8-9.92-1.58-14.4-1.88-3.42-.17-7.06-.51-10.57-.15-.04.22-.07.44-.12.66-.07.35-.19.7-.34,1.06,3.29-.3,6.73-.26,10.05-.06.26.15.51.32.74.52.67.64,1.17,1.43,1.52,2.32.36.88.57,1.84.71,2.81.15.97.25,1.96.29,2.96.18,3.99-.17,8.03-.41,12.08-.24,4.04-.44,8.12-.14,12.2.16,2.04.48,4.07,1.11,6.03.63,1.94,1.63,3.83,3.17,5.22.06.05.14.05.2,0,.05-.06.05-.15,0-.2-1.43-1.4-2.32-3.26-2.86-5.17-.54-1.92-.76-3.92-.88-5.92-.21-4.01.12-8.05.41-12.08.28-4.04.67-8.08.53-12.19-.09-2.04-.27-4.15-1.15-6.13-.35-.9-.97-1.7-1.72-2.34.14.01.28.02.41.03,2.21.2,4.41.42,6.61.76l3.3.43,3.29.54c7.57,1.26,15.06,2.95,22.47,4.92,1.7,1.44,2.29,3.74,2.63,5.99.37,2.72.4,5.54.61,8.34.2,2.81.61,5.64,1.46,8.36.85,2.72,2.35,5.26,4.36,7.29.05.05.14.06.2,0,.06-.05.06-.14.01-.2-1.87-2.11-3.13-4.65-3.86-7.31-.75-2.66-1.02-5.44-1.17-8.21-.17-2.78-.16-5.59-.51-8.42-.19-1.41-.45-2.87-1.18-4.2-.23-.44-.54-.84-.89-1.2.61.17,1.23.32,1.84.49,8.56,2.38,17.01,5.15,25.24,8.44,8.24,3.27,16.34,6.92,24.06,11.26.09.05.21.02.26-.06.06-.09.03-.2-.06-.26-7.63-4.53-15.64-8.45-23.87-11.85Z"/>
            <path class="d" d="m446.36,285.96c-.38-1.53-8.62-8.89-14.12-17.93-9.16-15.07-21.25-22.81-32.81-33.57-16.6-15.45-38.53-16.41-49.6-5.34-10.76,10.76-4.92,19.36-6.35,28.6-34.49,1.77-58.1,38.46-77.61,55.91-14.53,13-17.32,22.24-15.89,32.98,1.02,7.63,19.84,9.41,25.69-.76,5.87-10.21,8.54-29.99,14.5-40.95,6.19-11.39,22.57-40.19,52.78-45.23-2.08,4.69-10.43,10-10.91,18.88-1.66,30.68,35.16,28.58,49.08,21.14,2.78-1.48-4.58-5.34-4.2-19.08.2-7.37,7.01-9.66,6.87-2.29-.05,2.65,2.24,15.31,2.86,19.27.28,1.8,6.68.76,11.26-.19,9.16-1.91,22.7-11.26,38.92-8.39,10.58,1.87,9.92-1.53,9.54-3.05Zm-73.13-46.68c-6.98.6-9.27,10.83-14.17,6.52-3.97-3.49,4.26-18.35,16.9-13.99,10.64,3.67,4.25,6.87-2.73,7.47Zm32.31,24.55c-6.87-1.53,1.93-10.07,6.49-9.16,13.35,2.67.38,10.68-6.49,9.16Z"/>
          </g>
          <g>
            <path class="g" d="m257.06,171.59c-10.37-8.22-20.42-3.54-25.79-5.92-9.99-4.43-10.75-14.73-24.14-16.24-17.34-1.95-26.42,13.53-28.02,25.83-.43,3.29,5.8-1.64,10.86,1.5,5.06,3.14-9.54,4.12-12.07,5.53-4.41,2.45-8.83,21.39-5.63,26.89,1.38,2.38,6.06-5.09,14.04-8.1,10-3.77,13.43,1,6.01,5.42-3.19,1.9-16.06,5.82-17.26,10.42-1.15,4.42,2.98,10.13,4.43,14.83,2.84,9.19.7,21.46,5.98,22.3,5.28.85,4.3-11.83,16.14-18.71,11.66-6.77,37.69-2.5,43.51-17.91,2.23-5.89.98-19.55-3.17-24.57-7.11-8.62-6.59-19.06,1.69-10.56,14.33,14.7,6.86,29.25,9.71,29.32,6.86.18,18.42-28.37,3.71-40.02Zm-48.71-2.54c-12.56-1.46-12.31-9.81-6.68-9.98,11.38-.34,19.24,11.44,6.68,9.98Zm10.22,52.62c-7.36.02-3.52-3.66-3.32-9.27.2-5.61-2.31-16.93,2.39-16.07,7.51,1.38,13.8,25.31.93,25.34Z"/>
            <path class="d" d="m257.06,171.59c-10.37-8.22-20.42-3.54-25.79-5.92-9.99-4.43-10.75-14.73-24.14-16.24-17.34-1.95-26.42,13.53-28.02,25.83-.43,3.29,5.8-1.64,10.86,1.5,5.06,3.14-9.54,4.12-12.07,5.53-4.41,2.45-8.83,21.39-5.63,26.89,1.38,2.38,6.06-5.09,14.04-8.1,10-3.77,13.43,1,6.01,5.42-3.19,1.9-16.06,5.82-17.26,10.42-1.15,4.42,2.98,10.13,4.43,14.83,2.84,9.19.7,21.46,5.98,22.3,5.28.85,4.3-11.83,16.14-18.71,11.66-6.77,37.69-2.5,43.51-17.91,2.23-5.89.98-19.55-3.17-24.57-7.11-8.62-6.59-19.06,1.69-10.56,14.33,14.7,6.86,29.25,9.71,29.32,6.86.18,18.42-28.37,3.71-40.02Zm-48.71-2.54c-12.56-1.46-12.31-9.81-6.68-9.98,11.38-.34,19.24,11.44,6.68,9.98Zm10.22,52.62c-7.36.02-3.52-3.66-3.32-9.27.2-5.61-2.31-16.93,2.39-16.07,7.51,1.38,13.8,25.31.93,25.34Z"/>
            <path class="c" d="m203.68,203.17c4.3-7.81,9.04-15.38,14.33-22.53.11-.15.22-.29.33-.44.02.16.04.32.06.48.21,1.17.58,2.27,1.02,3.32.9,2.11,2.04,4.05,3.17,5.98,2.28,3.86,4.61,7.66,6.66,11.59,2.03,3.93,3.92,7.98,4.94,12.27,1.02,4.25,1.21,8.84-.48,12.97-.04.09,0,.2.1.24.09.04.21,0,.25-.09,1.92-4.13,2.03-8.93,1.09-13.34-.94-4.45-2.7-8.65-4.71-12.67-2.04-4.01-4.34-7.87-6.56-11.73-1.1-1.94-2.18-3.88-3.16-5.83-.45-.99-.95-1.96-1.24-2.97-.12-.47-.22-.95-.25-1.41,2.29-2.99,4.67-5.91,7.24-8.65,1.36-1.39,3.44-3.27,5.11-4.59-.11-.04-.22-.07-.32-.11-.49-.22-.95-.46-1.4-.71-1.59,1.19-2.97,2.57-4.35,3.99-3.17,3.22-6.05,7.18-8.7,10.81-1.68,2.3-3.29,4.65-4.86,7.02-.39.19-.8.34-1.22.47-.79.25-1.64.39-2.49.53-1.71.24-3.45.42-5.21.54-3.52.24-7.08.31-10.64.51-3.56.2-7.14.56-10.66,1.32-1.76.38-3.49.92-5.15,1.66-1.64.74-3.22,1.74-4.43,3.09,0,0,0,.02-.01.03,0,.04-.02.08-.03.13,0,.04.01.07.04.1.07.07.19.08.27,0,2.58-2.41,6.09-3.4,9.5-4.05,3.46-.62,6.99-.8,10.53-.95,3.54-.15,7.09-.17,10.67-.36,1.79-.1,3.59-.22,5.38-.62.81-.18,1.62-.43,2.39-.78-2.98,4.61-5.79,9.32-8.4,14.14-1.52,2.82-2.96,5.68-4.34,8.56-1.23,1.14-2.74,1.93-4.32,2.67-2.07.92-4.27,1.64-6.43,2.48-2.16.85-4.3,1.84-6.24,3.18-1.93,1.34-3.57,3.17-4.52,5.31-.03.07,0,.15.06.18.07.04.15,0,.19-.06,1.07-2.03,2.77-3.62,4.68-4.82,1.91-1.22,4.04-2.07,6.18-2.86,2.15-.8,4.36-1.48,6.52-2.4.97-.43,1.96-.88,2.84-1.54-2.1,4.5-4.05,9.08-5.79,13.74-3.1,8.4-5.54,17.12-6.44,26.05,0,.1.06.19.17.21.1.01.2-.06.21-.17,1.09-8.86,3.79-17.44,6.99-25.74,3.22-8.31,7.12-16.35,11.41-24.16Z"/>
          </g>
        </g>
        <path class="b" d="m324.67,331.46c.04-2.06-6.12-4.05-20.51-5.33l-.36,2.2c10.22.94,15.38,2.21,15.46,3.48.2,3.13-18.31,6.02-56.15,6.11-37.82-.09-56.94-2.98-56.74-6.11.09-1.51,7.33-3.02,21.69-3.97l-.13-2.19c-19.02,1.21-27.02,3.47-26.97,5.81,0,0,.56,95.15.45,127.62,0,2.65,25.94,7.56,61.41,7.62,35.47-.05,62.32-5.31,62.31-7.96-.11-32.46-.45-127.27-.45-127.27Z"/>
        <path class="h" d="m261.86,389.52c-33.86-.05-61.96-4.12-66-7.74-.82-.74-.99-1.5-.99-2.01,0-1.17,1.07-2.12,2.38-2.12h0c.97,0,1.8.52,2.17,1.26,3.38,1.99,27.36,6.31,62.43,6.36,34.88-.05,59.92-4.67,63.37-6.71.37-.73,1.2-1.25,2.17-1.25h0c1.31,0,2.38.95,2.39,2.12,0,.51-.17,1.27-.99,2-4.22,3.78-33.75,8.04-66.94,8.09Z"/>
        <path class="h" d="m261.86,453.24c-33.86-.05-61.96-4.12-66-7.74-.82-.74-.99-1.5-.99-2.01,0-1.17,1.07-2.12,2.38-2.12h0c.97,0,1.8.52,2.17,1.26,3.38,1.99,27.36,6.31,62.43,6.36,34.88-.05,59.92-4.67,63.37-6.71.37-.73,1.2-1.25,2.17-1.25,1.32-.03,2.39.94,2.39,2.12,0,.51-.17,1.27-.99,2-4.22,3.78-33.75,8.04-66.94,8.09Z"/>
        <path class="h" d="m196.52,525.46c-2.81,0-5.11-1.9-5.1-4.19l.64-159.46c0-2.3,2.32-4.17,5.13-4.16s5.11,1.9,5.1,4.19l-.64,159.46c0,2.3-2.32,4.17-5.13,4.16Z"/>
        <path class="h" d="m255.62,537.05c-2.81,0-5.11-1.93-5.11-4.28v-163.41c0-2.35,2.3-4.28,5.11-4.28s5.11,1.93,5.11,4.28v163.41c0,2.35-2.3,4.28-5.11,4.28Z"/>
      </g>
    </g>
  </g>
</svg>