<?xml version="1.0" encoding="utf-8"?>
<!-- Generator: Adobe Illustrator 26.0.3, SVG Export Plug-In . SVG Version: 6.00 Build 0)  -->
<svg version="1.1" id="Layer_1" xmlns="http://www.w3.org/2000/svg" xmlns:xlink="http://www.w3.org/1999/xlink" x="0px" y="0px"
	 viewBox="0 0 516 497" style="enable-background:new 0 0 516 497;" xml:space="preserve">
<style type="text/css">
	.st0{fill:#141414;}
	.st1{fill:#E50914;}
	.st2{fill:#E50914;stroke:#E50914;stroke-width:36.8504;stroke-miterlimit:10;}
</style>
<g>
	<path class="st0" d="M258.5,468.25c-58.56,0-113.62-22.81-155.03-64.22S39.25,307.56,39.25,249s22.81-113.62,64.22-155.03
		s96.47-64.22,155.03-64.22s113.62,22.81,155.03,64.22s64.22,96.47,64.22,155.03s-22.81,113.62-64.22,155.03
		S317.06,468.25,258.5,468.25z"/>
	<path class="st1" d="M258.5,34c29.03,0,57.18,5.68,83.68,16.89c25.6,10.83,48.59,26.33,68.34,46.08s35.25,42.74,46.08,68.34
		c11.21,26.5,16.89,54.66,16.89,83.68s-5.68,57.18-16.89,83.68c-10.83,25.6-26.33,48.59-46.08,68.34s-42.74,35.25-68.34,46.08
		C315.68,458.31,287.53,464,258.5,464s-57.18-5.68-83.68-16.89c-25.6-10.83-48.59-26.33-68.34-46.08s-35.25-42.74-46.08-68.34
		C49.19,306.18,43.5,278.03,43.5,249s5.68-57.18,16.89-83.68c10.83-25.6,26.33-48.59,46.08-68.34s42.74-35.25,68.34-46.08
		C201.32,39.69,229.47,34,258.5,34 M258.5,25.5C135.06,25.5,35,125.56,35,249s100.06,223.5,223.5,223.5S482,372.44,482,249
		S381.94,25.5,258.5,25.5L258.5,25.5z"/>
</g>
<g>
	<circle class="st0" cx="249.5" cy="190" r="8.07"/>
	<path class="st1" d="M249.5,163.5c-14.64,0-26.5,11.86-26.5,26.5s11.86,26.5,26.5,26.5S276,204.64,276,190
		S264.14,163.5,249.5,163.5L249.5,163.5z"/>
</g>
<g>
	<circle class="st0" cx="365.5" cy="190" r="8.07"/>
	<path class="st1" d="M365.5,163.5c-14.64,0-26.5,11.86-26.5,26.5s11.86,26.5,26.5,26.5c14.64,0,26.5-11.86,26.5-26.5
		S380.14,163.5,365.5,163.5L365.5,163.5z"/>
</g>
<path class="st2" d="M185.01,314.56c-1.43-1.42,147.49-4.45,147.49-4.45C270.83,339.99,280.37,409.28,185.01,314.56z"/>
</svg>
