<?xml version="1.0" encoding="utf-8"?>
<!-- Generator: Adobe Illustrator 26.0.3, SVG Export Plug-In . SVG Version: 6.00 Build 0)  -->
<svg version="1.1" id="Layer_1" xmlns="http://www.w3.org/2000/svg" xmlns:xlink="http://www.w3.org/1999/xlink" x="0px" y="0px"
	 viewBox="0 0 516 497" style="enable-background:new 0 0 516 497;" xml:space="preserve">
<style type="text/css">
	.st0{fill:#E50914;}
	.st1{fill:#141414;}
	.st2{fill:#141414;stroke:#141414;stroke-width:36.8504;stroke-miterlimit:10;}
</style>
<g>
	<path class="st0" d="M253.5,467.75c-58.56,0-113.62-22.81-155.03-64.22c-41.41-41.41-64.22-96.47-64.22-155.03
		S57.06,134.88,98.47,93.47s96.47-64.22,155.03-64.22s113.62,22.81,155.03,64.22c41.41,41.41,64.22,96.47,64.22,155.03
		s-22.81,113.62-64.22,155.03C367.12,444.94,312.06,467.75,253.5,467.75z"/>
	<path class="st1" d="M253.5,33.5c29.03,0,57.18,5.68,83.68,16.89c25.6,10.83,48.59,26.33,68.34,46.08
		c19.75,19.75,35.25,42.74,46.08,68.34c11.21,26.5,16.89,54.66,16.89,83.68s-5.68,57.18-16.89,83.68
		c-10.83,25.6-26.33,48.59-46.08,68.34c-19.75,19.75-42.74,35.25-68.34,46.08c-26.5,11.21-54.66,16.89-83.68,16.89
		c-29.03,0-57.18-5.68-83.68-16.89c-25.6-10.83-48.59-26.33-68.34-46.08s-35.25-42.74-46.08-68.34
		c-11.21-26.5-16.89-54.66-16.89-83.68s5.68-57.18,16.89-83.68c10.83-25.6,26.33-48.59,46.08-68.34s42.74-35.25,68.34-46.08
		C196.32,39.19,224.47,33.5,253.5,33.5 M253.5,25C130.06,25,30,125.06,30,248.5S130.06,472,253.5,472S477,371.94,477,248.5
		S376.94,25,253.5,25L253.5,25z"/>
</g>
<g>
	<circle class="st1" cx="262.5" cy="189.5" r="8.07"/>
	<path class="st1" d="M262.5,163c-14.64,0-26.5,11.86-26.5,26.5s11.86,26.5,26.5,26.5s26.5-11.86,26.5-26.5S277.14,163,262.5,163
		L262.5,163z"/>
</g>
<g>
	<circle class="st1" cx="146.5" cy="189.5" r="8.07"/>
	<path class="st1" d="M146.5,163c-14.64,0-26.5,11.86-26.5,26.5s11.86,26.5,26.5,26.5s26.5-11.86,26.5-26.5S161.14,163,146.5,163
		L146.5,163z"/>
</g>
<path class="st2" d="M326.99,314.06c1.43-1.42-147.49-4.45-147.49-4.45C241.17,339.49,231.63,408.78,326.99,314.06z"/>
</svg>
