<?xml version="1.0" encoding="UTF-8"?>
<svg id="a" data-name="Lager 1" xmlns="http://www.w3.org/2000/svg" viewBox="0 0 576.3 610.16">
  <defs>
    <style>
      .b {
        fill: #d9ddda;
      }

      .c {
        fill: #acb8b0;
      }

      .d {
        fill: #731e56;
      }

      .e {
        fill: #414a45;
      }

      .f {
        fill: #892f67;
      }

      .g {
        fill: #d25880;
      }

      .h {
        fill: #fff;
        opacity: .19;
      }

      .i {
        fill: #010101;
        opacity: .29;
      }

      .j {
        fill: #a0477b;
      }

      .k {
        fill: #b83f6e;
      }

      .l {
        fill: #6a8073;
      }
    </style>
  </defs>
  <path class="l" d="m369.15,521.57c-.44,17.93-1.16,36.75-5.95,54.14-1.88,6.86-4.31,12.37-7.44,15.64-6.76,7.06-17.37,12.12-29.69,15.2-1.78.45-3.59.86-5.44,1.22-14.61,2.87-31.03,3.15-46.02.84-1-.16-1.99-.32-2.97-.5-2.73-.48-5.4-1.06-8-1.72-7.51-1.92-14.38-4.57-20.12-7.95-3.39-1.96-6.47-4.32-9.24-7.09-1.83-1.88-3.43-4.54-4.83-7.79-.47-1.08-.91-2.23-1.33-3.44-2.59-7.4-4.39-17.02-5.63-27.29-.25-2.12-.48-4.27-.69-6.43-2.84-29.27-1.67-57.95-1.67-57.95,0,0,10.56-7.98,44.75-11.91,8.2-.95,17.77-1.58,28.88-1.69,44.52-.46,74.95,10.35,74.95,10.35,0,0,.96,14.81.46,36.36-.03,1.27.5-21.55,0,0-.44,17.93.5-21.55,0,0Z"/>
  <path class="c" d="m298.7,531.3c-2.03,5.02-13.12,10.52-15.05,15.58-2.77,7.26.98,25.06-4.28,30.77-2.54,2.76-12.29,2.73-13.63,6.23-.53,1.39-.25,3.12.47,5,1.91,5,6.9,11.12,8.09,14.86.32,1.01.37,2.96.3,4.86-1-.16-1.99-.32-2.97-.5-2.73-.48-5.4-1.06-8-1.72-3.72-5.93-8.53-14.06-9.8-18.18-1.56-5.05-.22-16.01-1.73-21.07-.46-1.53-1.23-3.17-2.24-4.89-5.94-10.22-19.78-23.21-21.76-32.5-1.44-6.75,4.21-23.48,7.14-31.46,1.23.39,2.63.77,4.16,1.13,1.75.41,3.71.81,5.83,1.18-3.83,7.96-9.47,20.92-8.71,26.81,1.07,8.29,14.36,20.79,20.64,26.29,2.65,2.31,9.5,5.59,11.02,8.76,1.65,3.42-3.23,12.08-3.23,12.08,0,0,8.96-1.56,8.57-28.43-.09-6.22,12.06-14.5,14.41-20.25,1.74-4.26,1.21-14.21.46-21.88,1.36.02,2.74.04,4.14.04.68,0,1.36,0,2.05,0,.47,0,.95,0,1.43,0,1.92,7.81,4.88,21.9,2.69,27.3Z"/>
  <path class="c" d="m347.39,564.8c-1.83,6.25-21.46,6.45-22.65,12.85-.85,4.59,11.96,9.75,11.88,14.41-.06,3.38-7.41,7.13-8.96,10.13-.54,1.05-1.08,2.58-1.6,4.36-.87.23-1.76.44-2.66.63-.92.21-1.85.41-2.78.58,1.45-3.96,2.75-7.57,3.53-9.86.62-1.84,2.49-5.47,2.34-7.4-.41-5.21-9.86-13.49-9.35-18.7.56-5.7,12.58-12.57,14.02-18.11,3.81-14.63-8.96-59.79-8.96-59.79h13.63s-.69,19.39.03,35.44c.31,6.96.9,13.3,1.92,17.15,1.33,4.99,11.06,13.35,9.6,18.31Z"/>
  <path class="b" d="m293,530.14c-2.04,5.2-13.15,11.16-15.19,16.36-1.64,4.17.78,13.51,0,17.92-.55,3.06-2.18,9.39-4.28,11.69-2.33,2.54-10.62,2.94-12.46,5.84-.9,1.42-.71,4.73-.29,6.95.09.47.19.89.29,1.23,1.37,4.67,9.67,11.58,10.52,16.36.08.45.09,1.01.05,1.64-2.73-.48-5.4-1.06-8-1.72-3.72-5.93-8.53-14.06-9.8-18.18-1.56-5.05-.22-16.01-1.73-21.07-.46-1.53-1.23-3.17-2.24-4.89.65-4.16,1.08-8.23.29-10.88-2.21-7.41-17.67-16.74-19.09-24.34-1.31-7.04,4.88-20.92,8.34-27.6,1.75.41,3.71.81,5.83,1.18-3.83,7.96-9.47,20.92-8.71,26.81,1.07,8.29,14.36,20.79,20.64,26.29,2.65,2.31,9.5,5.59,11.02,8.76,1.65,3.42-3.23,12.08-3.23,12.08,0,0,8.96-1.56,8.57-28.43-.09-6.22,12.06-14.5,14.41-20.25,1.74-4.26,1.21-14.21.46-21.88,1.36.02,2.74.04,4.14.04.21.75.37,1.41.47,1.98,1.06,5.94,2.2,18.53,0,24.15Z"/>
  <path class="b" d="m347.39,564.8c-1.83,6.25-21.46,6.45-22.65,12.85-.85,4.59,11.96,9.75,11.88,14.41-.06,3.38-7.41,7.13-8.96,10.13-.54,1.05-1.08,2.58-1.6,4.36-.87.23-1.76.44-2.66.63.68-2.62,1.5-5.28,2.31-6.55,1.18-1.87,6.26-3.66,6.61-5.84.41-2.56-4.11-6.63-5.25-8.96-1.54-3.11-6.26-9.53-5.26-12.85,1.7-5.64,17.96-7.56,19.48-13.24.87-3.24-5.23-8.78-5.84-12.08-.73-3.91-.32-11.17.42-18.31.31,6.96.9,13.3,1.92,17.15,1.33,4.99,11.06,13.35,9.6,18.31Z"/>
  <path class="i" d="m369.15,521.57c-.44,17.93-1.16,36.75-5.95,54.14-1.88,6.86-4.31,12.37-7.44,15.64-6.76,7.06-17.37,12.12-29.69,15.2-1.78.45-3.59.86-5.44,1.22-14.61,2.87-31.03,3.15-46.02.84-1-.16-1.99-.32-2.97-.5-2.73-.48-5.4-1.06-8-1.72-7.51-1.92-14.38-4.57-20.12-7.95-3.39-1.96-6.47-4.32-9.24-7.09-1.83-1.88-3.43-4.54-4.83-7.79-.47-1.08-.91-2.23-1.33-3.44,6.45,3.06,15.56,6.58,25.72,8.08,2.27.33,4.59.57,6.94.68,1.79.08,3.61.09,5.44,0,5.31-.23,10.71-1.2,16.02-3.19,27.1-10.18,18.17-91.78,18.17-91.78l-31.43,2.72-1.81-15.85-2.31-4.23c8.2-.95,17.77-1.58,28.88-1.69,44.52-.46,74.95,10.35,74.95,10.35,0,0,.96,14.81.46,36.36-.03,1.27.5-21.55,0,0-.44,17.93.5-21.55,0,0Z"/>
  <path class="e" d="m360.41,493.91c0,13.16-131.65,16-131.65,0,0-15.1,131.65-14.18,131.65,0,0,2.45,0-2.32,0,0Z"/>
  <path class="d" d="m532.29,242.32c4.11,1.03,39.68,9.68,43.49.07,4.81-12.13-25.19-36.9-38.17-35.59-7.7.79-17.92,25.22-17.92,25.22,0,0-8.5-25.33-14.85-31.18-2.75-2.53-13.98-5.31-13.98-5.31l-16.97-35.28s5.11-26.89-.22-33.29c-4.87-5.85-29.93-5.7-29.93-5.7,0,0,32.97-9.73,34.27-19.5,1.57-11.82-23.2-28.2-33.82-33.6-9.01-4.58-39.92-6.38-39.92-6.38l.13-12.32s-46.8-18.75-57.01-8.57c-9.92,9.9,8.23,55.44,8.23,55.44l-36.13-13.19s16.62-5.29,17.02-10.24c1-12.32-25.81-35.35-37.7-32-10.7,3.02-13.91,42.25-13.91,42.25l-26.95,55.91-35.02-65.78-1.98,1.9,31.66,66.22-32.22,11.9s-1.61-18.98-3.89-24.83c-2.9-7.47-9.87-25.12-17.72-26.7-14.45-2.92-46.26,18.16-49.11,32.62-2.71,13.74,31.41,46.39,31.41,46.39,0,0-24.94,24.02-25.8,34.82-1.57,19.79,36.61,70.51,36.61,70.51,0,0-34.96,7.8-36.61,17.85-2.42,14.83,28.66,47.2,42.83,42.19,13.98-4.95,6.69-58.94,6.69-58.94l10.49,13.51,27.97,186.86,1.85,14.25c.12.12,6.79,1.03,6.96,1.05l-2.39-16.37-25.95-174.91,21.73,27.97,9.87,2.24,17.71,147.06,2.3,15.74c2.31.11,4.74.12,7.15.19l-2-20.77-14.65-149.17,47.16-10.9-10.45,159.91-1.3,20.85c5.45-.08,10.54-.41,15.51-.68l3.57-19.43,23.07-126.75c3.5,2.38,7.58,4.52,11.75,6.17l-15.57,122.51-2,15.51c2.79-.37,5.44-.83,7.78-1.27l1.4-13.02,13.28-122.03c6.94,2.06,13.51,2.48,17.19.11,10.91-7.03.39-51.55.17-52.47.48.93,24.31,47.19,38.33,43.84,13.36-3.19,22.02-42.38,13.6-53.23-7.42-9.56-47.94-.26-49.06,0,.9-.47,29.91-15.69,38.15-22.9,7.78-6.81,25.77-32.3,25.77-32.3l-13.31-23.93,43.63,1.94s-.17,21.93,5.37,25.21c8.94,5.3,39.81-11.97,39.81-11.97,0,0,6.92,51.66,21.27,55.33,11.06,2.83,36.02-18.14,34.82-29.49-1.22-11.69-39.22-22.36-43.49-23.52Zm-192.35,91.2c-4.28,4.53-7.07,9.01-6.43,12.63.27,1.55,1.06,3.14,2.23,4.73l-24.5,133.25-3.44,18.73,1.51-18.81,13.03-162.25,21.66-5-4.05,16.71Zm23.52-18.58c-3.33,2.18-7.55,5.06-11.76,8.28l2.07-8.68,10.16-2.34-.47,2.74Zm5.23-3.3l.09-.56,1.35-.31s-.52.31-1.43.87Z"/>
  <polygon class="d" points="58.34 154.83 191.36 231.56 191.36 226.76 58.34 151.52 58.34 154.83"/>
  <path class="d" d="m120.69,257.25s9.53,30.45,2.79,36.73c-8.55,7.97-41.54,3.92-46.27-6.78-3.86-8.74,21.37-31.71,21.37-31.71,0,0-29-1.75-24.94-27.33,2.94-18.5,23.65-20.19,28.75-18.22,10.3,3.97,21.09,38.8,21.09,38.8,0,0,46.27-26.56,57.59-16.73,7.86,6.83-4.96,34.46-14.27,39.13-10.77,5.39-46.11-13.9-46.11-13.9Z"/>
  <g>
    <path class="j" d="m360.78,58.83c10.41,4,43.63-9.35,43.63-9.35,0,0-61.28-48.44-74.01-32.72-8.17,10.08,18.27,37.41,30.38,42.07Z"/>
    <path class="j" d="m413.75,1.18c-11.25,4.97-9.35,48.3-9.35,48.3,0,0,66,5.57,69.33-11.69,3.33-17.25-43.91-43.71-59.98-36.61Z"/>
    <path class="j" d="m419.98,95.44c11.74,4.78,45.87-10.33,45.18-22.98-.88-16.22-60.76-22.98-60.76-22.98,0,0,4.34,41.39,15.58,45.96Z"/>
  </g>
  <g>
    <path class="f" d="m178.49,316.68c-16.66-6.79-58.67,28.77-55,46.38,3.26,15.65,61.25,18.28,61.25,18.28,0,0,8.79-58.53-6.25-64.66Z"/>
    <path class="f" d="m120.84,403.94c-3.16,19.89,45.83,57.98,63.9,49.08,16.07-7.92,0-71.67,0-71.67,0,0-61.24,5.86-63.9,22.59Z"/>
    <path class="f" d="m231.1,340.06c-14.45-5.67-46.36,41.29-46.36,41.29,0,0,39.88,44.12,53.73,35.83,16.62-9.94,10.66-70.05-7.37-77.12Z"/>
  </g>
  <g>
    <path class="k" d="m181.05,342.2c-9.99-4.07-35.18,17.25-32.98,27.81,1.95,9.38,36.73,10.96,36.73,10.96,0,0,5.27-35.1-3.75-38.77Z"/>
    <path class="k" d="m146.49,394.51c-1.89,11.93,27.48,34.77,38.32,29.43,9.64-4.75,0-42.97,0-42.97,0,0-36.72,3.51-38.32,13.55Z"/>
    <path class="k" d="m212.6,356.21c-8.66-3.4-27.8,24.76-27.8,24.76,0,0,23.91,26.46,32.22,21.49,9.97-5.96,6.39-42-4.42-46.24Z"/>
  </g>
  <path class="f" d="m149.66,200.85s-24.12-38.4-15.58-47.54c8.23-8.81,43.15.35,46.74,11.86,3.53,11.31-31.15,35.68-31.15,35.68Z"/>
  <path class="f" d="m120.84,250.47c-9.14-11.06,28.82-49.62,28.82-49.62,0,0,45.4,11.4,44.4,23.98-1.53,19.34-60.87,40.6-73.23,25.64Z"/>
  <path class="f" d="m90.46,224.83c12.19,10.32,59.21-23.98,59.21-23.98,0,0-34.39-35.11-47.27-29.73-12.69,5.3-22.43,44.82-11.94,53.71Z"/>
  <path class="f" d="m461.27,94.43c11.92-12.98,64.15-9.25,70.11,7.34,6.93,19.29-57.48,58.49-57.48,58.49,0,0-23.97-53.49-12.63-65.83Z"/>
  <path class="f" d="m531.38,200.85c-16.44,6.25-57.48-40.59-57.48-40.59,0,0,57.7-25.52,69.94-12.64,9.41,9.91.31,48.38-12.46,53.23Z"/>
  <path class="f" d="m470.62,221.67c-20.66,7.51-69.21-44.34-59.98-64.3,6.64-14.37,63.27,2.89,63.27,2.89,0,0,11.17,56.16-3.28,61.41Z"/>
  <path class="f" d="m38.26,340.06c-2.33,11.53,23.67,34.31,35.06,31.36,12.63-3.27,17.14-49.28,17.14-49.28,0,0-49.46,4.4-52.19,17.92Z"/>
  <path class="f" d="m116.94,371.42c-13.98-.48-26.49-49.28-26.49-49.28,0,0,47.57-5.51,53.32,6.63,5.4,11.38-14.24,43.08-26.83,42.65Z"/>
  <path class="f" d="m53.06,280.85c4.63-13.43,46.89-20.6,56-9.69,8.7,10.41-18.61,50.98-18.61,50.98,0,0-41.93-28.12-37.39-41.29Z"/>
  <g>
    <path class="j" d="m212.76,185.03c6.37,13.58,59.98,0,59.98,0,0,0-.11-52.16-14.02-55.31-17.53-3.97-53.6,39.03-45.96,55.31Z"/>
    <path class="j" d="m317.93,129.72c-17.29-4.46-45.18,55.31-45.18,55.31,0,0,46.95,23.46,57.65,13.24,12.6-12.03,4.4-64.2-12.46-68.55Z"/>
    <path class="j" d="m229.12,226.32c4.95,17.88,61.05,30.71,72.45,16.07,9.86-12.66-28.82-57.36-28.82-57.36,0,0-47.63,26.82-43.63,41.29Z"/>
  </g>
  <g>
    <path class="j" d="m419.98,176.46c9.17-11.96-32.72-50.64-32.72-50.64,0,0-29.34,21.65-26.49,31.55,4.3,14.94,49.74,31.42,59.21,19.09Z"/>
    <path class="j" d="m439.09,137.56c-2.07,4.42-4.64,7.89-7.42,9.3-10.96,5.56-44.4-21.03-44.4-21.03,0,0,4.85-3.77,11.68-8.37,13.2-8.9,33.84-20.94,41.3-15,6.4,5.11,4.32,23.44-1.15,35.1Z"/>
    <path class="j" d="m387.26,125.83s-34.1,6.68-40.51-1.17c-2.56-3.13-3.86-9.13-4.03-15.9-.37-14.24,4.25-31.92,12.6-33.57,8.17-1.62,17.15,14.26,23.5,28.64,5.06,11.47,8.44,21.99,8.44,21.99Z"/>
  </g>
  <g>
    <path class="g" d="m401.64,147.61c3.97-5.18-14.16-21.92-14.16-21.92,0,0-12.7,9.37-11.47,13.66,1.86,6.47,21.53,13.6,25.63,8.26Z"/>
    <path class="g" d="m410.41,115.58c-4.9-3.91-22.93,10.12-22.93,10.12,0,0,14.48,11.51,19.22,9.1,4.37-2.21,7.54-16.17,3.71-19.22Z"/>
    <path class="g" d="m369.95,125.19c2.78,3.4,17.54.51,17.54.51,0,0-7.47-23.18-13.83-21.92-5.33,1.06-7.15,17.21-3.71,21.41Z"/>
  </g>
  <g>
    <path class="j" d="m268.19,375.26s-7.1,68.57-25.71,70.11c-1.75.15-3.58-.12-5.46-.73-20.76-6.8-46.91-56.7-36.61-73.27,4.95-7.97,25.12-5.94,42.18-2.53,13.47,2.69,25,6.24,25.57,6.42.02,0,.02,0,.02,0Z"/>
    <path class="j" d="m268.19,375.26s23.06,71.88,43.62,70.11c21.15-1.81,44.77-61.77,31.94-78.68-11.49-15.14-75.56,8.57-75.56,8.57Z"/>
    <path class="j" d="m292.45,346.43c-8.97,13.87-24.26,28.83-24.26,28.83,0,0,0,0-.02,0-.79-.39-20.57-10.19-34.44-21.08-8.52-6.71-14.8-13.82-13.06-19.42,5.78-18.5,66.82-24.2,77.12-7.79,2.7,4.29-.34,11.71-5.34,19.47Z"/>
  </g>
  <g>
    <path class="g" d="m251.99,419.09c11.65-.97,16.1-43.9,16.1-43.9,0,0-36.83-11.47-42.43-2.44-7.03,11.32,13.06,47.44,26.34,46.34Z"/>
    <path class="g" d="m268.08,375.2s14.44,45,27.31,43.9c13.24-1.13,28.03-38.68,20-49.26-7.2-9.48-47.31,5.36-47.31,5.36Z"/>
    <path class="g" d="m238.33,349.83c-2.91,9.33,29.75,25.36,29.75,25.36,0,0,23.25-22.73,18.53-30.24-6.45-10.27-44.67-6.7-48.29,4.88Z"/>
  </g>
  <g>
    <path class="f" d="m387.26,277.22c-.05,18.56,51.17,44.41,66.22,33.55,12.71-9.17-9.28-62.01-9.28-62.01,0,0-56.89,12.55-56.94,28.46Z"/>
    <path class="f" d="m415.73,195.55c-12.35-2.35-40.86,20.22-38.34,32.53,3.5,17.13,66.81,20.68,66.81,20.68,0,0-13.65-50.39-28.47-53.21Z"/>
    <path class="f" d="m495.07,242.39c-10.07-7.93-50.87,6.37-50.87,6.37,0,0,41.46,46.08,55.8,37.36,9.4-5.72,3.71-36.92-4.93-43.72Z"/>
  </g>
  <g>
    <path class="g" d="m415.21,264c-.03,9.59,26.43,22.94,34.2,17.33,6.56-4.74-4.79-32.03-4.79-32.03,0,0-29.39,6.48-29.41,14.7Z"/>
    <path class="g" d="m429.91,221.81c-6.38-1.21-21.1,10.44-19.8,16.8,1.81,8.85,34.51,10.68,34.51,10.68,0,0-7.05-26.03-14.7-27.48Z"/>
    <path class="g" d="m470.89,246.01c-5.2-4.09-26.27,3.29-26.27,3.29,0,0,21.41,23.8,28.82,19.3,4.85-2.95,1.92-19.07-2.55-22.58Z"/>
  </g>
  <path class="f" d="m259.11,33.9c8.34-10.48,49.3-2.85,52.58,10.13,2.8,11.06-35.31,28.89-35.31,28.89,0,0-23.92-30.67-17.27-39.01Z"/>
  <path class="f" d="m304.63,109.47c-11.54-.5-28.24-36.55-28.24-36.55,0,0,48.3-2.45,52.47,10.25,2.79,8.5-15.3,26.69-24.23,26.3Z"/>
  <path class="f" d="m246.71,100.87c10.07,1.59,29.68-27.95,29.68-27.95,0,0-42.16-18.23-49.38-8.01-5.92,8.37,9.58,34.36,19.71,35.96Z"/>
  <g>
    <path class="f" d="m178.49,207.62c-10.85,5.48-18.06,40.28-8.57,47.88,9.24,7.4,37.77-10.54,50.66-19.38-14.49,10.58-47.97,36.87-42.09,49.99,7.14,15.91,59.92,14.4,69.77,0,8.26-12.08-21.24-54.55-21.24-54.55,0,0-36.45-30.04-48.52-23.94Z"/>
    <path class="f" d="m266.03,189.03c-14.33-1.67-39.03,42.53-39.03,42.53,0,0,57.02,19.58,66,5.66,7.49-11.6-13.26-46.59-26.97-48.19Z"/>
  </g>
  <g>
    <path class="k" d="m202.36,219.58c-5.75,2.9-9.57,21.33-4.54,25.36,4.9,3.92,20-5.58,26.83-10.26-7.67,5.6-25.41,19.53-22.29,26.47,3.78,8.43,31.73,7.63,36.95,0,4.38-6.4-11.25-28.89-11.25-28.89,0,0-19.3-15.91-25.7-12.68Z"/>
    <path class="k" d="m248.72,209.73c-7.59-.89-20.67,22.52-20.67,22.52,0,0,30.2,10.37,34.95,3,3.96-6.14-7.02-24.67-14.28-25.52Z"/>
  </g>
  <g>
    <path class="j" d="m166.8,91.55c.11,16.21,50.6,29.12,62.32,17.92,6.37-6.09-8.18-34.28-8.18-34.28,0,0-54.24,2.22-54.14,16.36Z"/>
    <path class="j" d="m169.92,49.48c-.43,14.28,51.03,25.71,51.03,25.71,0,0,15.17-42.45,5.06-49.86-12.31-9.03-55.63,8.89-56.09,24.15Z"/>
    <path class="j" d="m259.11,33.9c-13.4-4.25-38.17,41.29-38.17,41.29,0,0,36.54,13.4,44.4,5.45,8.29-8.38,5.01-43.18-6.23-46.74Z"/>
  </g>
  <g>
    <path class="j" d="m277.42,298.77c12.64,21.71,93.18,11.79,99.71-12.46,4.71-17.49-57.65-43.91-57.65-43.91,0,0-50.91,41.18-42.07,56.38Z"/>
    <path class="j" d="m319.49,242.39h0c-.8.39-59.12,28.28-70.1,14.31-2.66-3.38-3.19-8.84-2.21-15.15,2.84-18.46,18.45-44.14,30.9-45.93,8.29-1.19,19.61,12.36,28.32,25.17,7.53,11.08,13.1,21.6,13.1,21.6Z"/>
    <path class="j" d="m390.38,242.39c-.58,1.09-1.42,2.03-2.48,2.82-13.99,10.58-66.73-2.4-68.37-2.8-.02-.02-.04-.02-.04-.02,0,0,4.1-14.94,10.31-29.58,5.87-13.86,13.66-27.43,21.63-27.78,17.32-.76,47.07,42.04,38.95,57.36Z"/>
  </g>
  <g>
    <path class="g" d="m291.76,280.93c8.38,14.4,61.78,7.82,66.12-8.26,3.13-11.6-38.23-29.12-38.23-29.12,0,0-33.76,27.3-27.89,37.38Z"/>
    <path class="g" d="m273.17,253.04c7.33,9.32,46.49-9.49,46.49-9.49,0,0-17.21-32.49-27.46-31.01-11.07,1.59-25.94,31.71-19.02,40.5Z"/>
    <path class="g" d="m340.84,205.52c-10.87.48-21.18,38.04-21.18,38.04,0,0,41.51,10.38,47.01,0,5.38-10.16-14.34-38.54-25.83-38.04Z"/>
  </g>
  <g>
    <path class="j" d="m519.7,395.37c14.88-6.8,0-65.44,0-65.44,0,0-44.63,12.61-45.96,25.71-1.54,15.11,32.15,46.05,45.96,39.73Z"/>
    <path class="j" d="m519.7,329.93s15.42,44.85,27.27,41.29c20.33-6.11,20.41-79.06,0-84.91-12.36-3.54-27.27,43.63-27.27,43.63Z"/>
    <path class="j" d="m480.75,319.8c3.61,9.39,38.95,10.13,38.95,10.13,0,0,13.46-61.14-2.34-65.58-15.99-4.5-42.57,39.94-36.61,55.45Z"/>
  </g>
  <g>
    <path class="g" d="m519.76,366c8.31-3.8,0-36.56,0-36.56,0,0-24.93,7.04-25.68,14.36-.86,8.44,17.96,25.73,25.68,22.2Z"/>
    <path class="g" d="m519.76,329.44s8.61,25.05,15.23,23.07c11.36-3.41,11.4-44.17,0-47.44-6.91-1.98-15.23,24.37-15.23,24.37Z"/>
    <path class="g" d="m498,323.78c2.01,5.25,21.76,5.66,21.76,5.66,0,0,7.52-34.16-1.31-36.64-8.93-2.51-23.78,22.32-20.46,30.98Z"/>
  </g>
  <path class="f" d="m43.33,96.59c-16.91-1.03-39.52,46.77-29.99,60.79,7.03,10.34,49.86-4.07,49.86-4.07,0,0-4.87-55.81-19.87-56.72Z"/>
  <path class="f" d="m3.99,177.08c.26,10.7,30.57,18.05,40.48,13.99,9.75-3.99,18.73-37.76,18.73-37.76,0,0-59.6,7.83-59.21,23.77Z"/>
  <path class="f" d="m73.64,94.43c11.35-2.21,27.46,27.97,24.61,39.18-2.48,9.74-35.06,19.69-35.06,19.69,0,0-4.22-56.01,10.45-58.87Z"/>
  <g>
    <path class="j" d="m73.32,181.14c-2.34,3.9-7.09,53.52,0,69.33,3.09,6.9,16.13,24.03,22.59,20.11,19.72-11.96-10.73-109.22-22.59-89.44Z"/>
    <path class="j" d="m7.1,263.71c26.49.64,63.35-5.55,66.22-13.24,3.02-8.08-15.53-48.33-38.17-69.33-15.98-14.83-49.84,82.05-28.04,82.58Z"/>
    <path class="j" d="m61.63,302.66c12-5.89,11.69-52.19,11.69-52.19,0,0-60.16,12.88-59.98,29.6.14,13.33,36.33,28.47,48.3,22.59Z"/>
  </g>
  <g>
    <path class="g" d="m73.12,210.31c-1.26,2.1-3.83,28.91,0,37.45,1.67,3.73,8.71,12.98,12.2,10.86,10.65-6.46-5.79-59-12.2-48.31Z"/>
    <path class="g" d="m37.35,254.92c14.31.34,34.22-3,35.77-7.15,1.63-4.36-8.39-26.1-20.62-37.45-8.63-8.01-26.92,44.32-15.15,44.6Z"/>
    <path class="g" d="m66.81,275.96c6.48-3.18,6.31-28.19,6.31-28.19,0,0-32.5,6.96-32.4,15.99.08,7.2,19.63,15.38,26.09,12.2Z"/>
  </g>
  <g>
    <path class="j" d="m178.49,157.38s-36.7,33.14-49.86,27.65c-4.41-1.84-8.8-7.53-12.31-14.64-7.02-14.28-10.46-34.32-3.27-40.67,5.12-4.51,15.96-1.48,27.37,3.97,10.14,4.84,20.72,11.58,28.15,16.63,5.64,3.84,9.46,6.7,9.88,7.03.02.02.04.02.04.02Z"/>
    <path class="j" d="m178.49,157.38s-.02,0-.04-.02c-.46-.23-4.78-2.45-10.82-5.89-7.75-4.42-18.34-10.87-27.2-17.77-10.8-8.39-19.03-17.43-16.47-24.23,4.58-12.15,33.3-15.32,54.72-11.12,10.38,2.03,19.04,5.8,22.41,11.12,7.09,11.19-22.59,47.91-22.59,47.91Z"/>
    <path class="j" d="m178.49,157.38s10.91,40.93,22.59,40.9c14.64-.04,36.77-39.65,28.04-51.42-7.7-10.38-50.64,10.52-50.64,10.52Z"/>
  </g>
  <g>
    <path class="g" d="m143.58,176.69c9.06,3.78,34.34-19.05,34.34-19.05,0,0-35.9-27.14-45.08-19.05-7.42,6.55,1.6,34.29,10.73,38.1Z"/>
    <path class="g" d="m140.36,124.64c-4.41,11.7,37.56,33,37.56,33,0,0,20.45-25.3,15.56-33-7.11-11.22-48.44-12.43-53.13,0Z"/>
    <path class="g" d="m177.92,157.64s7.52,28.19,15.56,28.17c10.09-.03,25.33-27.32,19.32-35.42-5.31-7.15-34.88,7.24-34.88,7.24Z"/>
  </g>
  <path class="h" d="m306.39,220.79c-8.72,12.8-26.97,21.6-48.06,21.6-3.83,0-7.56-.29-11.16-.84,2.84-18.46,18.45-44.14,30.9-45.93,8.29-1.19,19.61,12.36,28.32,25.17Z"/>
  <path class="h" d="m390.38,242.39c-.58,1.09-1.42,2.03-2.48,2.82-24.3-5.52-44.82-17.15-58.1-32.4,5.87-13.86,13.66-27.43,21.63-27.78,17.32-.76,47.07,42.04,38.95,57.36Z"/>
  <path class="h" d="m181.07,114.76c0,13.49-4.69,25.87-12.5,35.57-.31.39-.62.76-.94,1.14-10.22,12.04-25.38,19.65-42.3,19.65-3.07,0-6.08-.25-9.01-.73-7.02-14.28-10.46-34.32-3.27-40.67,5.12-4.51,15.96-1.48,27.37,3.97-10.8-8.39-19.03-17.43-16.47-24.23,4.58-12.15,33.3-15.32,54.72-11.12,1.56,5.19,2.4,10.7,2.4,16.41Z"/>
  <path class="h" d="m378.82,103.83c-7.63,3.58-16.66,5.64-26.33,5.64-3.34,0-6.61-.25-9.76-.72-.37-14.24,4.25-31.92,12.6-33.57,8.17-1.62,17.15,14.26,23.5,28.64Z"/>
  <path class="h" d="m439.09,137.56c-.55.02-1.11.03-1.67.03-16.16,0-30.37-8.02-38.48-20.14,13.2-8.9,33.84-20.94,41.3-15,6.4,5.11,4.32,23.44-1.15,35.1Z"/>
  <path class="h" d="m292.45,346.43c-9.15,8.85-21.24,14.23-34.5,14.23-8.75,0-17-2.34-24.22-6.49-8.52-6.71-14.8-13.82-13.06-19.42,5.78-18.5,66.82-24.2,77.12-7.79,2.7,4.29-.34,11.71-5.34,19.47Z"/>
  <path class="h" d="m253.83,403.52c0,16.29-6.48,30.93-16.81,41.12-20.76-6.8-46.91-56.7-36.61-73.27,4.95-7.97,25.12-5.94,42.18-2.53,7.03,9.52,11.23,21.57,11.23,34.68Z"/>
  <path class="e" d="m296.01,504.01c-.48,0-.95,0-1.43,0-.69,0-1.37,0-2.05,0-.65-2.36-1.76-5.48-2.94-8.56l4.99,3.14s.62,2.17,1.43,5.42Z"/>
  <path class="e" d="m292.53,504.01c-1.39,0-2.77-.02-4.14-.04-.55-5.65-1.24-10.06-1.24-10.06l2.43,1.54c1.18,3.08,2.3,6.2,2.94,8.56Z"/>
</svg>