<?xml version="1.0" encoding="UTF-8"?>
<svg id="a" data-name="Lager 1" xmlns="http://www.w3.org/2000/svg" xmlns:xlink="http://www.w3.org/1999/xlink" viewBox="0 0 749.4 723.17">
  <defs>
    <style>
      .c {
        fill: #285727;
      }

      .d {
        clip-path: url(#b);
      }

      .e {
        fill: #75ae68;
      }

      .f {
        fill: #6ba05e;
      }

      .g {
        fill: #adb9cd;
      }

      .h {
        fill: #518546;
      }

      .i {
        fill: #315a33;
      }

      .j {
        fill: #244326;
      }

      .k {
        fill: #010101;
      }
    </style>
    <clipPath id="b">
      <path class="g" d="m395.47,698.84c.31-.07,1.32-.31,1.63-.39.25-.07-.42.11-1.63.39Zm-65.45,12c-62.64-2.72-83.39-7.47-89-62.72-1.46-14.18-3.98-72.11-3.98-72.17-.22-17.14,159.35-14.93,175.32-14.78,15.57.16,18.55.84,19.34,15.74,1.98,2.46,2.17,60.21,2.07,64.24-.06,2.16-2.57,41.13-16.78,54.19-3.98,4.06-7.73,6.51-12.23,8.6-11.68,5.41-63.43,7.35-74.73,6.89Z"/>
    </clipPath>
  </defs>
  <g>
    <g>
      <path class="e" d="m575.47,1.94c9.68-.72,15.7-.75,15.4-.83-21.6-2.09-40.46-1.64-61.4,4.73-8.18.27-19.98,2.24-20.26,2.46-3.24.25-3.89.67,2.11,1.13-2.95.03-6.55.3-10.85.95-1.34.33,6.54,1.1,12.38,1.6-.32.14-.63.27-.95.41-2.99-.67-9.2-1.29-21.7-.57-.79,0,1.64.61,5.26,1.32-5.52-.49-10.35-.56-9.36-.22,3.46,1.2,11.31,2.82,16.96,3.62-.81.4-1.62.81-2.45,1.24-2.29-1.15-7.92-2.16-20.52-1.49-.82,0,.67.32,3.16.78-4.87.04-11.13.65-18.64,2.51-.03,0,4.96.47,10.9,1.03-1.48-.11-3.07-.18-4.78-.2-14.33-.18-15.87.4-10.06,1.36-8.27.62-14.14,2.43-14.08,2.43,3.13.09,5.99.21,8.59.34-5.4.27-12.07.84-20.27,1.84-1.7,0,30.76,1.48,38.82,3.01,0,.19,0,.38.02.57-3.26-.92-6.03-1.19-7.71-.31-7.63-2.02-24.08-2.17-40.95-.02-.59,0,2.35.33,6.91.83-4.74.2-9.17.68-12.62,1.55-11.18,2.77-6.48.61,9.71,2.18,4.46.64,7.08.99,10.01,1.54-10.37.34-19.79,2.52-25.11,4.02-.97.16-1.76.31-2.32.44-3.02.67-5.43,1.2-7.32,1.62-4.66-.21-7.79-.28-7.77-.27,1.51.38,2.92.73,4.28,1.07-3.81.92-1.75.79,3.76.92,4.67,1.12,8.42,1.96,11.56,2.59-5.93-.36-11.85-.52-15.66-.11-10.47,1.11-21.68,3.91-21.59,3.91,6.74.38,14.93,1.16,22.91,2.03-.64,0-1.28.02-1.94.04-4.17.11-8.47.85-12.21,1.72-2.81-.99-5.33-1.87-5.3-1.85,1.24.81,2.44,1.56,3.59,2.27-5.45,1.39-9.35,2.94-9.31,2.94,6.75.04,11.8.38,15.8.85,3.85,2.11,7.11,3.66,9.91,4.84-6.4.05-14.18-.44-25.75-2.67-.12,0,2.86,1.4,8.48,4.55-4.77-.68-9.77-1.47-15.01-2.57-.03-.01,2.44,1.64,6.72,4.28-4.42-2.02-8.4-3.85-11.3-5.4-.08-.06,8.31,8.13,7.86,7.67,2.95,3.02,5.55,5.73,7.86,8.17-8.55-6.86-17.32-12.83-23.72-17.54-.09-.09,25.44,30.09,28.31,36.52.49,1.25.67,2.28.82,3.2-7.21-11.13-21.47-22.9-29.57-28.55-.19-.13,3.9,4.29,7.25,8.49,2.8,3.52,7.97,10.26,6.75,8.7,11.58,16.14,11.72,18.97,11.6,20.76-6.54-11.73-14.78-19.2-30.45-32.03-6.15-7.64-12.48-13.98-18.27-19.84-.75-.75,9.31,12.51,15.98,24.07.07.14,8.85,15.8,14.68,34.57-2.2-4.47-4.66-8.71-7.4-12.46-6.38-8.71-19.38-21.59-19.33-21.51,16.78,22.74,23.11,39.86,26.04,51.72-8.9-19.41-18-29.67-37.26-49.53-1.48-1.48,8.96,11.64,16.95,29.11,3.39,7.41,5.92,13.64,7.83,18.92-8.61-13.19-18.91-22.95-24.3-29.78-10.31-13.03-13.86-20.28-5.93-4.79,11.64,22.66,22.18,28.5,31.43,50.94-7.5-12.54-17.99-21.44-37.15-37.42-.06-.08,5.75,5.96,16.5,18.99,9.03,10.98,15.68,19.59,20.35,31.54-6.81-10.07-17.61-17.73-28.48-24.9-19.71-12.98,14.86,10.1,26.02,32.14-4.19-5.28-10.28-11.04-18.63-16.44-28.63-18.51-8.32-4.6,4.76,8.62,3.54,3.63,6.24,6.78,8.32,9.53-7.17-7.98-17.42-16.01-30.94-22.16-.49-.12,2.73,1.19,13.32,9.58,23.25,18.44,28.14,35.66,27.52,36.19-1.46,1.26,1.18,3.65,2.35,2.71.04.16.09.31.17.45-2.1.76-3.35,1.79-3.98,2.89-3.55-10.53-7.28-20.27-19.61-31.71-7.95-7.36-13.93-12.41-13.84-12.32,34.45,38.96,26.09,48.89,30.67,52.02.77.53,1.6.61,2.35.41.02.85.29,1.69.79,2.39-.99.38-1.57.97-1.58,1.83-.04,3.82,4.48,2.81,11.41,2.66,16.15-.34,26.51.88,25.9.73-4.11-1.01-17.7-4.59-27.29-5.56,22-5.21,41.99,5.62,42.08,5.62,0,0,.01-.01,0-.02-9.67-7.92-23.31-11.99-34.33-12.88,5.36-.59,11.76-.83,17.82-.41,9.43.8,13.59,2.65,21.87,6.1.8.55-17.43-14.66-43.69-13.13,24.32-5.55,64.68,12.14,39.32,1.43-22.82-9.58-44.14-6.26-47.54-2.32-.06-1.29-.3-2.72-.71-4.27,0,0,0,0,.01,0,.87-.1.81-.51,1.93-.89,18.11-5.28,42.99.14,60.92,6.19.28.06-31.86-17.99-61.67-9.95-.31.08-.58.17-.85.27.49-1.01.56-2.54.15-4.46,1.42-.53,2.46-2.19,1.79-5.48-.07-.33-.14-.65-.22-.97.95,1.29,2.32,2.34,3.85,2.96-4.22,2.19.38,5.29,1.96,3.26,4.89-2.17,24.03-1.78,29.35-1.39-.08,0,4.2-.43,17.96,4.22,0,0,0,0,0,0,.09,0-9.68-7-32.25-7.85-3.39-.13-6.2-.1-8.53.05,1.08-1.1.12-1.11,2.68-2.06,15.15-4.2,51.23-1.79,65.73-.48.08.02-27.98-10.29-48.65-12.35,47.23-9.49,49.99-7.37,49.91-7.38,19.93,1.56-10.44-2.03-10.87-2.05-26.8-1.03-41.67,2.71-56.74,4.54-.03-.26-.06-.51-.11-.77,0,0-.02-.07-.07-.19,11.88-.94,41.62-6.65,51.32-9.69,74.15-23.41-6.76,2.34-48.51,5.22.03-.1.06-.2.08-.31,1.91-.33,4.58-1.32,9.46-2.73.08-.02,59.77-14.48,58.21-14.48-12.39.61-28.01.28-45.04,1.81,4.91-.97,11.2-2.21,19.27-3.79,19.17-2.72,25.39-1.86,24.86-2.04-13.35-2.36-22.37-4.61-34.05-5.03,10.45-1.97,24.95-3.76,45.08-3.56.2,0-10.95-2.17-19.07-2.82-5.49-.44-17.51-1.04-28.68-.53,6.85-1.44,16.04-3.06,28.45-4.62,3.11-.39,13.58-.58,12.76-.58-8.9-1.16-19.65-1.59-29.74-1.28,6.31-.77,13.24-1.47,20.22-1.88,1.1.03,21.82.25,1.26-.84-18.7-.96-41.82,3.61-47.07,4-1.53-.83-2.66,1.58-1.42,2.19-1.47.47-2.71.99-3.69,1.56-.47-1.07-.95-2.11-1.44-3.12,2.92,1.46,7.17-1.5,6.53-4.79,2.76,4.15,15.23-1.37,41.1-4.61,5.9-.74,11.26-1.19,10.84-1.19-25.28-1.18-37.56-.37-45.95-.01,1.06-1.63,1.31-4.1-.08-7.42.83.96,1.48,1.68,2.02,2.22-.11,2.12,1.2,4.3,4.08,4.36,20.91.43,47.65-4.11,50.47-4.52.63,0-22.2-.87-42.37-2.94.2-.42.35-.84.45-1.26,6.65.77,17.14,1.34,20.42,1.54,41.48,2.54-.96-.92-20.37-3.85-.16-.89-.5-1.78-1.03-2.68.95.54,2.11.89,3.52.96,13.26.7,30.15-1.05,34.78-1.74,26.32-3.83,23.34-1.32-1.77-5.24-1.14-.24-2.23-.47-3.29-.7,7.64.4,15.85.4,23.63-.37.42,0-3.84-.33-10.26-1.35-12.65-2.9-21.4-5.43-27.46-7.12.02-.09.05-.18.06-.26,11.87,3.07,28.26,5.71,39.13,8.16.02,0-2.14-1.52-5.5-3.83-2.62-3.4-8-9.84-18.35-15.3,18.08,2.57,22.17,3.81,22.89,4.09-7.91-3.87-21.54-7.4-29.33-9.21.24-.23.45-.5.64-.8,6.07,1.07,25.31,5.95,31.32,5.95,5.19,0,.63-.53.93-.47-3.73-.79-10.67-3.14-17.36-5.39,9.78,2.35,20.98,5.33,21.03,5.34,2.4.8-12.46-5.36-23.82-9.07.33-.17.67-.38,1-.63,1.77-1.34-.06-1.33,4.18-1.02,14.77,1.28,19.95,3.08,20.58,3.08.01,0,.01-.01,0-.02-7.1-4.48-12.85-7.41-17.44-9.22,4.07,1.03,11.51,3.43,23.36,8.92.11.06-4.64-4.38-16.8-9.67,5.82,1.54,12.78,3.11,18.71,4.71.16.05-7.28-3.33-14.76-6.44,6.6,1.8,15.13,4.35,23.3,9.58,3.05,2.03-9.3-7.51-20.18-13.36,5.38.63,13.59,2,25.93,6.32,1.68.5-9.08-6.61-19.17-11.02,10.19.09,21.18,4.72,29.16,8.15.2.1-8.36-6.75-18.8-11.08,4.11.09,10.61,1.13,21.59,5.26.06.01-7.54-7.54-16.91-11.75,3.21,1.07,9.21,3.69,21.41,11.37.09.06-5.73-7.15-13.34-10.6-.62-.28-1.2-.54-1.77-.78.38-.04.77-.16,1.16-.41,13.41,1.11,15.28,3.21,20.5,6.53.08.06-3.04-4.99-6.15-6.77-2.2-1.26-5.72-2.55-9.04-3.43.15-.05.3-.15.43-.28.32-.1.65-.2.97-.3,8.12,1.13,20.06,8.67,23.71,10.69.08.06-6.84-8.98-17.74-12.49.04-.01.09-.03.13-.04,14.13,1.45,19.1,3.81,20.79,4.74-.8-1.04-1.43-3.92-11.35-6.35,4.99.86,10.88,1.66,17.12,2.86.13.06-2.01-1.93-14.91-4.71,1.55-.45,3.11-.9,4.69-1.36,1.92.28,4.5.51,7.95.62,18.09.54,7.72-.37-3.27-1.94.71-.2,1.41-.39,2.12-.59,3.42.65,6.46,1.03,12.25.39.12-.04-4.45-.74-8.06-1.54.08-.02.16-.04.24-.06,5.89.52,14.4.94,4.83-.92,4.91.32,9.26-.33,10.32-.53.01,0,.03,0,.03,0,.14-.03.23-.05.22-.05-.49-.15-1.32-.37-2.33-.62-.65-.17-1.45-.37-2.39-.61,8.37-2.03,15.94-3.53,21.32-3.92Zm-185.41,103.55c-.23-.64-.5-1.28-.8-1.93.6.4,1.27.68,1.99.84-.25.58-.37,1.22-.29,1.87.02.15.05.29.08.43-.24-.41-.55-.81-.97-1.21Zm49.62-56.64c-.06.04-.13.07-.18.11-.05-.05-.1-.09-.15-.14.11,0,.22.02.33.03Zm-31.61,34.7c.04.17.1.34.15.51-.32-.31-.66-.62-1.01-.93.28.14.57.28.86.42Zm109.18-73.78c.28.01.56.03.85.04-.06.02-.12.05-.19.07-.22-.04-.43-.08-.67-.11Zm-34.97,11.48c-.08.06-.15.11-.22.18-1.07-.2-2.26-.39-3.56-.54,1.26.12,2.54.24,3.79.37Zm-5.66,5.28c-.11.03-.24.05-.34.08-.07-.06-.15-.11-.23-.17.2.03.39.06.58.09Zm22.02-4.82c.19-.06.39-.11.6-.17.12.2.26.39.42.56-.35-.14-.69-.27-1.02-.39Z"/>
      <path class="e" d="m537.45,21.69c-.09,0-.31-.15-.77-.4.2.26.41.4.77.4Z"/>
      <path class="e" d="m468.47,64.88s.09.04.13.06c.02,0,0-.01-.13-.06Z"/>
      <path class="e" d="m310.71,158.97c-4.39-4.34,25.11,26.3,31.41,56.67-4.87-10.83-11.56-21.23-23.35-30.09-5.85-4.41-6.41-4.93-6.32-4.79,11.02,12.5,15.22,20.5,18.37,29.58-3.6-4.42-7.66-8.48-11.85-12.16-12.01-10.56-10.01-8.5-2.66-1.2,8.67,9.46,12.03,14.26,11.8,13.94,1.63,2.16,3.58,5.08,5.45,8.15,1.06,3.58,2.21,7.48,3.68,11.97.55,1.66,1.88,2.84,3.44,3.34.03.32.02.61-.02.84-.29,1.45,2.58,2.68,2.37-.61.56-.07,1.11-.23,1.63-.49,5.32-2.62,2.21-7.78-.28-13.22.62.3,1.34.43,2.03.29,4.15-.84,2.06-5.76.81-9.97-7.47-24.94-18.16-34.38-36.52-52.23Z"/>
    </g>
    <g>
      <path class="h" d="m440.9,158.7c1-.96,2.12-2.09,2.43-2.58,8.56-13.63,7.39-33.74,28.77-49.02,1.27-.91,1.45-6.37-10.94,4.1-4.27,3.6-8.08,9.11-7.55,8.38-15.37,20.7-12.27,31-17.38,40.04-3.7,1-11.4,2.59-15.04,3.19-19.94,3.31-27.06,9.88-50.46,43.74-.39.56.12,1.14.67,1.14,1.3,0,3.6-5.43,17.89-17.67,4.24-3.22,21.71-13.61,28.28-15.77,26.16-8.68,26.07-14.32,23.33-15.54Z"/>
      <path class="h" d="m469.42,175.17c1.65.38,3.66.73,6.08,1,18.57,2.11,50.22-13.12,79.54-4.94,1.24.34,1.79-1.45.57-1.85-9.12-3.06-12.83-4.36-23.07-3.94-49.5,2.01-58,5.6-64.18,5.47-2.23-2.39-7.26-2.35-13.59-.42.35-.19.69-.41,1.03-.71.47-.42.83-.88,1.12-1.37,19.83.16,36.6-23.48,75.6-22.09,1.72.06,1.99-2.37.47-2.77-36.02-9.55-65.86,17.76-74.79,20.76-.23.06-.45.11-.66.16-.1-.42-.24-.83-.44-1.21,11.19-6.46,22.29-24.26,42.46-33.17,12.26-5.24,13.26-3.28,12.87-5.02-.62-2.83-18.43,3.61-21.08,4.69-15.87,6.46-30.47,21.18-45.11,31.1-.6.34-1.8.77-2.15,1.78-9.62,4.24-20.97,13.22-21.42,13.54-10.13,7.36-18.61,18.48-23.69,24.3-8.44,9.64-9.25,9.66-7.78,10.99,1.52,1.37,2.54-.44,9.46-7.17,23.51-22.86,20.4-25.12,49.68-32.72.88-.19,1.67-.29,2.41-.42-9.77,3.44-22.05,10.9-31.9,20.62-2.54,2.51-9.74,10.17-17.14,18.7-1.83,2.11-4.84,5.43-2.45,5.96,1.44.32-.07-1.52,20.28-17.23,26.82-19.46,45.87-18.31,47.88-24.03Z"/>
      <path class="h" d="m479.68,187.35c.48-.51.83-1.03,1.07-1.56,11.41,3.78,30.98-2.26,49.84-2.14,14.59.07,21.51,4.12,31.67,9.59,2.1,1.13,3.92-2.2,1.86-3.41-25.23-14.79-36.31-12.75-76.77-9.25-3.58.31-6.26.38-8.27.32-5.02-3.18-19.15-2.18-40.96,14.03-2.56,1.87-22.21,18.93-21.62,21.54.96,4.39,16.39-19.1,55.07-25.95,3.67-.65,6.25-1.21,8.1-3.18Z"/>
      <path class="h" d="m430.81,223.59c1.45-2.92,22.37-12.61,25.43-13.82,17.45-6.26,23.6-4.01,28.21-8.32.74.24,1.62.36,2.6.32,21.89-.94,18.41-7.94,53-7.92,3.26,0,9.71.21,13.1-.14,2.04-.22,1.81-3.67-.56-3.32-8.13,1.41-21.32-2.53-38.8-1.89-17.39.61-26.28,3.82-29.84,6.92-2.71-2.03-8.41-2.85-17.14.44-6.77,2.54-13.34,5.71-18.83,10.42-7.2,6.16-23.83,15-19.61,17.93.82.56,1.98.28,2.44-.61Z"/>
      <path class="h" d="m492.11,211.23c7.54.61,5.22,1.8,13.54,2.56,16.51,1.51,24.08-10.63,48.13-8.64,9.81,1.62,11.39,3.09,11.92.72.48-2.1-1.82-2.44-9.57-3.58-12.41-1.79-18.56-.41-29.53.79-17.99,1.35-18.8-1.88-35.88,3.6-1.89-.25-4.89.14-9.12,1.38-9.36,2.77-24.54,15.81-42.3,21.12-8.83,2.62-11.1,1.07-10.74,3.13.12.7.84,1.06,1.45.89,33.65-1.72,56.96-14.83,62.1-21.98Z"/>
      <path class="h" d="m507.79,216.88c-6.52,1.2-9.16,4.12-8.84,6.67-.42-.65-1.14-1.31-2.27-1.94-7.05-4.46-18.63,3.64-25.63,6.74-17.17,6.56-31.47,4.02-30.85,7.66.34,2.01,2,.71,8.68.58,20.85-.43,24.92-.29,33.33-2.97,14.01-4.44,9.26-1.08,16.19-6.64.64-.51,1.06-1.25,1.02-2.09,1.02,1.75,3.59,3.09,7.35,3.15,9.79.2,19.84-12.58,40.26-13.32,11.77-.43,23.09,3.42,23.01,3.4.65.2,1.02-.79.36-1.01-33.3-10.73-40.35-4.42-62.61-.24Z"/>
      <path class="h" d="m572.53,225.3c-21.25-2.19-20.97-2.72-49.22,4.21-12.64,2.87-18.69-.46-21.33,4.78-.04.09-.13.29-.16.37-.33.91-.34,1.93.04,2.93-.08-.02-.16-.05-.25-.06-2.28-.44-6.7-3.43-13.65-2.76-19.47,1.92-30.72,10.75-48.11,11.11-6.81.14-7.14-1.02-7.75.63-2.27,6.25,55.11.04,61.29-1.42,7.46-1.37,9.85-3.67,10-5.39,3.57,3.13,12.72,4.32,30.11-3.78,19.05-8.87,22.22-8.21,38.61-5.98,2.91.39,3.6-4.31.43-4.64Z"/>
      <path class="h" d="m501.83,234.65s0,0,0,0c-.03.07-.02.05,0,0Z"/>
      <path class="h" d="m501.99,234.28s0,0,0,0c.02-.05.03-.07,0,0Z"/>
      <path class="h" d="m572.04,236.88c-23.79,1.65-30.7-1.47-47.92,4.23-12.06,3.99-15.08,3.86-18.19,5.97-2.12-2.45-7.46-3.62-16.46-.15-6.65,2.57-10.88,5.81-19.51,8.13-5.01,1.07-15.51,2.97-20.61,2.42-.83-.32-1.3.97-.39,1.23-2.2-1.65,5.9,4.19,51.72-3.15,1.63-.26,2.96-.83,3.97-1.56,2.83,2.44,9.33,3.37,20.03-2.03,25.39-12.81,27.71-12.12,47.43-13.17,1.24-.07,1.16-2.01-.07-1.93Z"/>
      <path class="h" d="m508.51,266.03c1.73,1.44,4.46,2.56,8.21,2.8,21.11,1.37,21.11-10.12,42.1-9.92,10.08.62,11.87,2.9,11.19,1.54-.65-1.37-11.57-2.93-13.29-3.11-10.74-1.09-20.81,1.69-31.43,1.51-4.5-.23-8.25-1.47-12.15-1.49-2.82-.02-4.77.78-5.86,1.97-3.34-1.73-9.3-2.64-17.87-1.09-12.19,2.21-8.55,3.73-24.59,8.01-12.44,2.67-18.17.57-17.5,4.5.45,2.68,3.54,1.67,8.15,1.19-.08,0,5.55.13,29.75-2.86,4.48-.4,18.48-.15,23.29-3.04Z"/>
      <path class="h" d="m569.56,277.95c-7.17,2.67-15.72-4.89-24.45-7.18-4.33-1.13-27.86-1.01-34.12,4.66-.06-.24-.15-.48-.28-.73-.76-1.45-1.5-1.45-2.87-2.41-4.18-3.26-10.34-1.9-15.51-.52-11.3,3.05-9.33,7.87-21.33,12.29-2.73,1.1-9.67,3.14-13.17,3.14-1.69,0-4.19,3,11.15.07,14.99-2.87,4.8-5.23,29.2-5.91,3.37-.1,8.62-.94,11.26-2.76,0,0,0,.01,0,.02.35,9.71,23.2,1.16,32.91-.13,5.21-.47,15.24.8,20.35,1.2,10.58.86,7.64-2,6.86-1.73Z"/>
      <path class="h" d="m511.35,287.21c2.14-.56,2.14-3.79.11-4.39-18.13-5.26-37.7,12.9-45.21,17.29-5.23,2.71-10.84,3.69-9.74,5.42.39.61.94.39,1.45.07,9.74-4.52,21.53-2.24,46.77-17.01,5.2-1.79,5.3-1.02,6.62-1.37Z"/>
      <path class="h" d="m569.69,307.3c-12.51-3.28-23.37-12.26-26.46-14.02-5.72-3.24-27.31-10.83-31.52-3.12-.49.67-.76,1.41-.82,2.17-.84-.33-1.9-.6-3.22-.76-11.26-1.4-23.63,16.04-32.51,21.21-10.11,5.85-12.61,5.21-11.95,6.63,1.68,3.63,44.76-18.58,47.73-21.23.99-.34,1.78-.96,2.22-1.68,1.35.92,3.3,1.54,5.89,1.56,29.3.32,32.12,6.57,50.46,10.09.52.1.7-.72.19-.85Z"/>
      <path class="h" d="m566.41,324.67c-15.36-4.2-34.68-34.14-50.19-21.74-2.46,1.96.28,3.94,4.22,5.64-2.46-.2-4.38.23-5.7,1.04-.57-.06-1.2.02-1.88.29-1.53.61-3.24.68-5.43,1.76-.31.15-.62.33-.94.52.55-.43,1.11-.87,1.67-1.32,1.75-1.42,3.03-3.04,4.23-4.03,3.41-.57,2.84-4.54-.2-4.47-12.83.22-17.75,13.25-31.97,21.46-16.06,8.63,1.41,6.31,22.49-8.81-4.67,4.07-9.98,10.32-17.15,15.77-6.15,4.22-8.57,4.84-13.02,7.08-2.09,1.22,9.9-.33,19.68-4.05-2.39,1.59-4.88,3.05-7.46,4.26-1.3.61-12.97,5.79-12.37,7.13.7,1.54,1.87-.39,9.7-3.62,7.01-2.42,9.9-2.97,18.27-7.57,2.47-1.35,5.11-3.26,7.65-5.32-3.54,3.8-7.93,7.96-13.47,11.24-14.97,8.76-25.38,9.21-24.29,11.61.21.47.77.66,1.23.46,12.85-5.57,34.37-8.44,48.61-25.47.74.73,1.73,1.53,3.03,2.38,4.41,2.9,11.66,5.36,16.81,7.67,11.09,4.98,15.41,12.09,22.79,15.64.64.31,1.09-.68.49-1-9.09-4.54-23.29-25.05-33.37-28.89,13.37,4.22,9.58,4.79,35.11,15.96,1.55.67,2.37-1.66.98-2.21-13.07-5.07-13.26-5.94-23.61-15.41-4.18-3.82-8-6.57-11.41-8.48.23.07.44.14.64.21,20.54,6.9,18.35,8.74,34.46,13.68.91.28,1.33-1.17.41-1.41Zm-43.63-3.63c-.07-.32-.18-.63-.33-.92,1.87.54,3.52,1.02,4.99,1.47-1.69-.42-3.29-.59-4.66-.55Z"/>
      <path class="h" d="m552.2,365.3c-3.58-2.64-3.45-3.74-7.99-8.42-8.76-9.04-11.48-8.92-17-12.02-3.34-1.89-2.97-2.37-4.98-2.51-1.17-.08-2.08.31-2.72.95-1.17-.27-2.59.03-4.03,1.31-24.37,21.82-43.05,18.09-42.06,20.54.1.25.37.37.62.32,0-2.45,9.63,3.21,32.58-7.33-16.13,13.46-28.38,13.04-26.11,16.7,1.24,1.97,1.62-.73,17.42-6.8,19-7.07,24.45-14.45,24.11-17.96.05,0,.09,0,.14,0,9.72,2.55,17.29,8.05,25,14.43,2.3,1.9,8.48,4.41,11.05,6.09.37.24.89.11,1.12-.26.8-1.29-1.92-1.73-7.15-5.03Z"/>
      <path class="h" d="m556.26,376.56c-9.56-4.09-16.2-20.79-27.09-22.85-5.06-.96-7.62.86-7.19,3.45-.45.09-.88.23-1.27.43-.66-.1-1.39,0-2.15.41-6.1,3.28-13.68,15.91-37.26,23.06-.49.15-.32.85.11.85.99,0,25.68-8.66,37.4-16.39.99,1.35,2.76,2.38,5.49,2.6,14.17,1.38,11.01,7.71,28.97,15.09,1.05.43,1.71-1.14.54-1.56-9.03-3.54-15.32-10.38-20.06-15.9,13.95,5.74,12.33,7.68,21.93,12.07.82.38,1.39-.92.56-1.28Z"/>
      <path class="h" d="m545.96,389.94c-3.89-7.77-19.54-22.25-24.32-21.2-.15.03-.29.08-.42.13-.9-.23-1.96-.11-2.81.44-1.45.92-7.99,6.31-11.84,8.89-10.99,7.36-26.06,14.21-23.45,16.6,1.61,1.49,1.77-2.27,13.2-7.15,3.05-1.3,6.6-2.69,10.24-4.31-16.92,12.96-25.87,14.78-23.94,17.09.88,1.08,1.62-.23,4.62-2.15,5.16-3.33,22.14-8.54,31.69-16.48.22.27.47.54.76.78,1.05.91.91.4,7.31,5.34,4.7,3.61,22.73,18.7,22.65,18.65,1.28,0,.94-.76.24-1.27-4.02-2.96-4.89-6.14-7.05-9.7-3.98-6.58-7.57-11.26-10.7-14.49,11.31,8.08,18.72,18.19,20.62,18.19s-1.23-.51-6.78-9.37Z"/>
      <path class="h" d="m544.25,414.55c.18.12-1.02-.64-2.92-3.35-7.45-10.6-12.23-18.94-17.69-22.92-1.26-.89-2.25-1.29-3.03-1.41-.53-1.09-1.8-1.68-2.92-1.65-4.09.11-4.85,5.35-18.7,14.16-10.83,6.89-12.91,6.5-11.69,8.46,1.33,2.13,1.69-.56,22.28-10.15.3-.14.57-.27.85-.41-8.45,10.52-19.6,16.88-17.63,18.7,1.41,1.3,2.45-2.46,7.33-5.11,5.56-2.69,6.18-2.39,10.84-6.13,1.54-1.24,4.53-3.57,6.82-6.01.26.35.58.7.97,1.02,3.03,2.54,10.6,6.03,19.28,20.02.04.07,4.59,7.45,4.67,7.47,2.57.97-7.32-15.59-9.54-18.76-5.85-8.35-10.04-13.09-8.75-11.54-1.31-1.6-2.54-2.5-3.63-2.91.07-.35.09-.7.03-1.02,0-.03-.01-.05-.02-.07,2.76,2.5,6.9,5,8.54,6.5,3.86,3.68,11.73,14.4,14.07,16.29.76.62,1.72-.59.84-1.18Z"/>
      <path class="h" d="m540.17,436.11s0,0,0,0c0,0,0,0,0,0Z"/>
      <path class="h" d="m524.98,406.05c-3.53-4.34-6.41-4.22-7.86-2.81-4.26,1.69-10.44,10.48-15.46,14.26-.25.18-10.07,6.58-10.21,6.71-.25.22-.17,1.06.91.07,1.46-1.73,15.78-6.51,23.77-11.88-.06.47,0,1.01.24,1.62.17.45.43.92.75,1.42-3.83.79-11.47,10.44-19.79,15.36-2.66,1.57-4.61,2.32-3.55,3.3.3.28.76.27,1.06,0,4.81-3.48,13.33-6.04,19.22-10.54.21.65.63,1.3,1.14,1.92-.06.01-.13.02-.19.04-.23.07-5.76,4.39-7.3,5.67-9.99,8.43-19.13,11.37-16.45,11.37.02,0,14.74-6.72,16.63-7.45,2.52-.98,4.14-1.98,5.53-3.03-.16.66-.13,1.36.07,1.99-.96.61-1.99,1.62-2.97,2.38-11,8.6-24.19,24.8-14.9,15.34,8.19-6.44,17.39-11.56,20.04-15.01.6.49,1.23.94,1.88,1.44,8.38,7.16,10.39,15.92,13.57,21.94.77,1.44,1.57.33,1.17-.18-2.04-3.36-9.02-30.28-15.97-30.29.76-.67,1.17-1.31,1.32-1.88.44.37.81.67,1.06.89,8.57,7.65,21.24,38.35,11.11,10.75-2.65-7.19-4.58-8.75-9.17-16.05-.51-.8-1.44-2.82-2.97-3.31.55-.69,1.11-1.42,1.4-2.12,4.05,4.85,11.47,12.27,17.3,25.78.08,0,.18.52.7.32,1.09-.42-5.8-20.34-16.33-32.5-.59-.68-1.35-1.01-2.08-1.06.19-.16.36-.33.53-.49.66.52,1.44,1.15,2.36,1.96,14.9,13.03,12.62,13.5,18.65,24.13,0-.01-.02-.06,0,0,0,0,0,0,0,0,0,0,0,0,0,0,0,0,0,0,0,0,.17.42.69.03.48-.25-3.87-7.21-7.73-20.04-15.68-29.82Z"/>
      <path class="h" d="m520.36,444.4c-5.13-8.66-7.64-5.76-7.6-3.56-2.49,1.67-5.3,6.2-6.19,7.06,1.21-1.21-18.92,16.2-16.17,16.2.5,0,2.04-2.52,5.75-4.54-.08.05,5.57-2.77,10.95-7.86-.69.66,3.05-2.85,2.63-2.45.72-.66,3.51-2.84,5.1-4.95,1.94,2.65,4.92,6.84,6.68,9.96,3.73,6.61,6.66,14.75,6.84,13.85,2.49,1.25-.08-3.32-.56-4.44-3.95-11.23-1.19-8.75-7.44-19.26Z"/>
      <path class="h" d="m517.55,451.42c-2.81-5.56-5.59-4.55-6.08-2.5-.1.44-.07.85.08,1.28-.12.17-.25.34-.39.51-.07.08-7.21,7.95-7.14,7.87.19-.23-7.85,10.24-11.54,13.68-.33.22-.15.69-.05.69.06.06,15.46-12.79,20.81-20.18,1.68,2.09,4.27,5.17,6.75,10.84,1.82,4.18,2.11,5.18,3.53,8.27.26.51,1.28.47.79-.78-2.31-5.88-2.26-10.76-6.77-19.68Z"/>
      <path class="h" d="m510.88,456.92c-.39.15-.79.42-1.16.79-1.16,1.19-3.28,4.45-7.54,9.42-7.5,8.78-9.79,9.67-8.51,10.86,1.09,1,12.2-10.38,14.69-12.98-.03.17-.06.35-.07.53-.61.34-1.28.91-1.96,1.77-1.29,1.64-1.79,2.78-4.26,6.56-5.15,7.92-12.12,12.38-8.9,12.38.09,0,9.35-7.28,14.6-13.19-.04.2-.05.43-.04.69-.02.08-.04.16-.07.24-.22.19-.44.41-.62.71,1.41-2.36-11.23,15.75-11.29,15.84-2.84,3.48-4.18,4.01-3.17,4.94,1.09,1.01,5.62-3.22,9.86-7.81-13.13,22.32-14.97,22.15-13.99,22.82.92.63.8-1.55,7.16-8.27,1.97-2.09,3.34-3.45,4.48-4.71-.04.13-.08.27-.13.41-4.74,8.09-11.19,19.93-10.11,23.17.09.27.39.42.65.3.41-.18.04-.05.66-2.88,1.05-3.54,3.56-7.89,6.52-12.7-3.27,12.38-5.95,28.31-4.86,47.61,0,.18.17.69.71.68,1.39-.04-.1-.58.93-11.27.79-8.12,2.36-16.53,4.23-24.7-1.51,13.69-1.84,24.88-1.79,24.9,1.43.53,1.17-6.29,3.09-15.03.93-4.17,2.43-14.54,4.22-24.88,0,.05,0,.09,0,.14.25,7.1.5,8.24.48,10.62-.5.75-.27,1.73.41,2.21,4.13,2.88,1.35-7.77,3.29-21.37.76,4.36,1.51,7.85,1.69,8.08.95,1.23.23-.5-.58-21.94.05-.1.09-.19.14-.29.04.12.07.23.11.36,2.39,7.78,6.77,31,2.16-4.26-.09-.63-.17-1.31-.28-1.95,2.34,5.41,1.66,5.41,5.69,17.58.41,1.25,2.86,1.29,1.9-1.39-.15-.42-.66-1.91-1.42-5.02-.39-1.95-2.37-19.82-5.05-22.44-.66-.65-1.66-.84-2.55-.55.76-.96,1.32-1.8,1.72-2.53,2.61,4.75,8.88,16.64,8.88,21.22,0,.39.6.37.6-.02,0-.37.22,1.31-2.18-10.52-3.94-19.25-7.6-16.71-8.35-14.13Z"/>
      <path class="h" d="m519.23,490.88s0,.01,0,.02c.07.18.07.16,0-.02Z"/>
      <path class="h" d="m521.56,339.6c5.49,3.2,18.81,7.78,36.47,22,.43.31.88-.32.45-.63-5.63-4.01-8.89-10.45-15.81-17.81-4.59-4.9-14.11-11-18.65-11.86-3.54-.67-4.86.93-5.28,2.57-1,.04-2.1.43-3.16,1.31-8.53,7.11-27.21,16.3-33.03,18.9-7.89,2.96-10.44,1.88-10.46,3.08,0,1.01,1.3.54,3.54.19,29.32-4.55,43.41-15.01,45.91-17.75Z"/>
      <path class="h" d="m266.69,359.39c1.84-.45,2.45-1.38,1.87-2.15,1.21-.81,2.03-2.21,1.88-4.2-.15-2-.67-2.63-1.01-4.58-1.27-9.68-1.33-13.57-6.15-21.24-1.64-2.61-6.52-8.4-6.11-7.95-8.89-11.13,5.42,4.98,5.54,23.69,0-.02,0-.03-.01-.04-1.94-7.86-3.02-12.49-10.16-18.18-4.51-3.58-13.76-9.41-13.54-9.19,6.97,7.94,15.82,16.96,14.34,27.61-.04.12-.06.23-.09.35-2.76-.01-8.79,1.65-9.77,1.93-16.17,4.73-28.27,24.7-28.02,24.46,7.48-7.08,11.4-11.04,22.08-16.62,4.18-2.16,12.84-5.49,15.4-6.18.11.74.33,1.39.64,1.94-.72.17-1.53.35-2.47.57-19.02,4.44-26.19,14.35-37.62,30.15-.06.08,35.82-22.83,35.9-22.9,4.89-3.79,9.3-4.91,10.25-5.43.27-.11.47-.28.63-.45.7-.33,1.34-.83,1.83-1.49-.39,1.22-.68,1.64-.84,3.21-.15,1.48.18,2.64.79,3.5-7.44,1-21.01,6.78-40.29,25.27-1.76,1.14,25.85-16.22,44.9-22.09Z"/>
      <path class="h" d="m273.67,363.76c.22-.88-.1-1.52-.82-1.92,3.4.25,3.29-4.66,3.74-8.28,1.86-15.09-2.76-27.17-8.11-38.87-.02-.08,1.7,5.88,1.73,5.97,7.04,24.73-2.74,38.16,1.2,40.75-6.3-.8-24.22,6.16-38.84,23.83-.37.55,10.88-10.7,29.45-17.76,10.46-3.97,11.02-1.55,11.65-3.71Z"/>
      <path class="h" d="m248.66,341.08c1.87,2.03,5.51-.74,2.58-3.37-3.73-4.09-10.68-17.04-14.6-21.36-8.57-9.36-7.04-7.65-3.01-1.98,6.41,9.03,7.27,18.34,15.04,26.71Z"/>
      <path class="h" d="m152.9,338.03c-.41,0,22.03-6.67,30.85-4.95.82.19,1.21-.12,1.29-.6.9-5.59-35.54,5.55-32.14,5.55Z"/>
      <path class="h" d="m163.69,340.91c-.45-.45-1.02-.66-1.55-.69-.18,0-.57.2-1.09.57-1.45-.91-4.34.7-8.29,2.54-7.93,3.69-10,5.31-18.22,11.64-.9.6,6.93-3.08,13.97-6.14-.31.27-.64.57-.99.89-2.54.32-8.79,3.87-22.44,17.23,0,0,0,.02,0,.02-.06,0,8.34-6.14,15.3-10.63-3.51,3.24-7.79,7.1-12.84,11.32-.44.43,10.45-6.2,20.07-15.5.22-.1.43-.18.61-.25.42-.15.76-.66.81-1.16.07-.07.15-.15.22-.22.08-.08,2.41-2.42,2.46-2.6.06-.2.1-.37.13-.52,1.05-.44,2.03-.83,2.92-1.18-5.96,5.54-13.47,13.09-14.6,14.33.08-.06.79-.57,5.87-4.13,16.8-11.76,19.8-13.37,17.66-15.51Z"/>
      <path class="h" d="m140.16,360.56h0s0,0,0,0Z"/>
      <path class="h" d="m177.97,338.3c1.45.13,2.72-1.36,2.4-2.81-.34-1.51-2.32-2.36-3.57-1.39-6.46-.31-26.74,7.94-32.75,11.64-.07.05,16.14-6.25,26.69-8.42-1.67,1.91-10.3,10.87-18.09,21.66-.22.29,19.4-20.22,19.4-21.19.17-.24.13-.51-.02-.72.76-.14,1.49-.25,2.17-.33-3.65,3.81-9.94,10.83-13.02,18.09-.02.08,9.79-11.39,16.79-16.53Z"/>
      <path class="h" d="m190.69,333.63c2.39-4.42-12.12,2.54-24.08,19.05-.43.64,15.74-15.48,22.87-18.66.23-.08.86.35,1.21-.39Z"/>
      <path class="h" d="m177.67,353.57c-.08.08,22.91-16.5,28.85-19.75,1.9.85,3.29-.52,3.45-2.05,1.22-1.13,1.39-3.42-.61-4.28-14.91-7.04-35.38-3.46-34.88-3.46,6.09.25,11.49.75,16.69,1.91-3.61-.49-8.65-.52-15.53.25-5.83.64-16.37,5.09-16.28,5.07,19.29-3.75,24.42-2.04,33.36,1.5-5.27,3.6-12.87,10.88-19.09,20.74-.05.08,15.93-15.13,22.64-19.86.68-.09,1.3-.36,1.8-.75.42-.19.74-.61.88-1.04.69-1.31.28-3.08-2.31-4.4,2.29.76,4.58,1.68,6.91,2.81-7.81,3.96-20.88,16.27-25.88,23.31Z"/>
      <path class="h" d="m228.08,336.04c.41-.16,2.16-.23,2.16-1.47.26-1.33-.53-1.8-2.05-1.65.08-.13.15-.27.21-.41.21-.47.36-.91.45-1.32,1.19.84,2.08,1.51,2.48,1.94,1.12,1.42,3.45-.11,2.35-1.71-4.4-7.69-14.78-12.82-23.32-15.27-3.49-1-9.96-1.51-14.32-1.97-.44,0,6.02,1.76,11.34,4.12,1.65.73,5.63,2.98,9.89,5.54-9.39-2.58-15.17-4.68-29.59-4.66-5.79.02-1.13-.23,7.51,2.38,9.03,2.75,16.13,6.46,20.68,9.22-8.99,3.1-27.02,16.41-32.98,22.01-.09.09,2.47-1.62,27.38-14.24,10.56-5.36,8.12-2.76,9.39-4.06.26-.27.46-.54.61-.83.81.58,1.24.92,1.26.93.18.11.36.2.54.28-10.72,4.64-28.66,16.06-33.14,19.18-.99.66,8.01-3.17,10.48-4.26,23.16-9.7,18.4-8.93,28.67-13.75Z"/>
      <path class="h" d="m238.65,336.68c.12-.59.03-1.16-.2-1.65.48.53.98,1.08,1.5,1.65.82.89,2.84.04,1.36-1.81-14.21-17.96-23.86-23.18-23.81-23.1,9.91,10,5.23,5.91,19.81,22.01-.91-.57-2.12-.67-3.12.06-11.77,8.04-32.73,17.82-36.92,19.91-.09.06,18.87-2.13,38.42-14.67,2.36.1,3.08-2.4,2.95-2.4Z"/>
      <path class="h" d="m245,341.58c1.19-.82.3-2.72-1.14-2.26-16.85,4.68-25.06,13.58-32.93,24.44-.2.29,6.55-6.69,11.86-10.25,6.94-4.68,18.76-9.52,22.2-11.93Z"/>
      <path class="h" d="m301.21,367.39c-2.62,1.73-5.06,3.86-7.21,6.19.36-2.49.56-5.19.83-7.74.93-8.88.42-18.63.44-18.38-.49-17.15,1.23-8.96-8.48,12.58.24-10.33-1.77-22.97-3.87-29.75-6.11-19.62,4.25,8.4-8.76,36.84-7.96-.24-20.72,3.26-29.32,16.13,0,0,0,.02,0,.02,0,0,0,0,0,0,10.52-8.76,21.91-10.95,28.71-11.41.28.96.79,1.85,1.48,2.58-6.89,2.52-15.37,7.89-21.56,15.37-.12.18,14.86-8.9,27.27-10.32.25.54.59,1.05.98,1.51-6.62,2.25-14.91,7.39-23.69,16.72-.11.16,11.66-6.41,27.2-7.46-.41,4.4,1.53,7.62,6.82,7.81,11.05.4,5.66-14.79,9.6-26.7,2.59-6.62,6.65-8.63-.44-3.98Z"/>
    </g>
    <path class="j" d="m326.1,590.58c-.01-.08-8.94-90.5-7.69-168.54,2.18-139.27,23.66-305.66,139.16-382.46,26.96-17.92,92.8-41.93,126.51-38.58.52.05.42.88-.1.81-26.81-3.77-86.11,16-118.7,34.93-191.5,111.83-118.26,557.04-135.1,557.29-1.99.04-3.76-1.44-4.08-3.46Z"/>
    <path class="i" d="m330.68,596.35c-1.82-12.14-6.53-165.42-1.44-257.44,2.5-45.57,11.2-118.79,37.74-156.29,30.06-49.22,102.17-45.53,133.66,39.97,5.9,15.97,13.87,64.28,16.72,81.25,6.9,41.26,5.99,53.8,1.41,99.26-9.6,95.1-23.25,116.13-21.06,108.42,16.82-58.87,21.3-126.99,20.79-156.28-.38-21.5-4.71-43.19-6.83-55.61-8.59-50.43-15.13-84.07-42.92-115.35,3.21,3.61-17.05-23.38-54.52-22.27,4.07-.33-17.25-.14-31.96,16.12-38.3,45.69-44.76,164.96-43.31,218.95.12,4.55-.22,200.91-5.06,201.64-1.54.23-3-.86-3.23-2.39Z"/>
    <path class="j" d="m327.3,516.63c1.77-48.35,2.62-58.02,1.69-78.08-2.01-43.39-15.36-115.75-21.76-140.58-16-61.93-31.66-85.19-76.35-123.29-42.8-36.54-136.25-55.12-198.14-17.3-4.29,2.63-4.36,2.58-13.85,10.21-.87.7-1.95-.67-1.07-1.37,58.18-46.42,152.25-43.32,206.46-9.28,9.4,5.9,38.7,28.93,55.83,51.42,18.54,24.33,25.82,43.26,33.17,68.18,13.82,46.92,21.73,124.13,22.13,172.75.11,12.69-1.25,33.54-3,67.25-.19,3.69-5.21,3.14-5.11.08Z"/>
    <g>
      <path class="c" d="m411.72,220.83c.04-1.26.19-17.85-1.44,2.62-.7,8.85,2.19,74.22,4.16,75.38,8.89,5.2-2.37-73.71-2.72-78Z"/>
      <path class="c" d="m749.37,218.49c-4.31-3.5-10.06-8.17-15.63-11.9.97.5,1.92,1.01,2.85,1.52.07.05-2.92-3.4-18.44-14.02,3.48,1.02,6.86,1.97,9.66,2.69.09.03-5.88-3.78-13.21-6.61-1.79-.69-3.53-1.31-5.21-1.88-.07-.03-.14-.05-.2-.07-.71-.24-1.4-.47-2.09-.7-.49-.51-.98-1-1.47-1.44,4.93.24,10.48.67,16.5,1.58.17.05-4.1-2.53-26.78-6.29-1.38-.23-2.66-.47-3.84-.68-.24-.29-.48-.57-.72-.83,35.89,2.43,13.24-1.24-2.31-2.12-.42-.3-.84-.56-1.25-.76,2.83-.66,5.91-1.34,9.19-1.98,2.96-.74-8.67-.03-11.44.16-2.4.17-4.44.31-6.21.44-1.02-.85-1.91-1.35-2.61-1.31-1.35.06-2.36.79-2.94,1.75-.41.04-.78.07-1.13.11-.33-.39-.67-.78-1-1.16,7.91-2.11,20.56-5.88,20.2-5.88-8.54-.86-17.62,1.87-23.13,3.37-.42-.17-.85-.28-1.27-.32,6.85-2.44,14.3-5.85,13.22-5.85-15.7,2.32-17.31,4.52-22.15,5.05-1.58-.85-2.77.86-2.37,2.1-.45.47-.68.95-.73,1.45-.78-.85-1.57-1.69-2.38-2.52,6.98-1.43,18.62-7.65,21.52-9.43.29-.1-8.31,1.06-14.54,2.81-3.1.86-5.41,1.36-7.12,1.69,4.31-1.87,9.16-4.19,12.63-6.24.66-.44-7.63,1.54-11.05,2.45-4.7,1.26-7.98,2.02-10.15,2.68,4.41-2.58,9.03-5.55,12.46-8.56.08-.08-13.69,3.31-13.78,3.33-1.78.44-3.45.83-5,1.18,4.83-2.99,9.18-5.76,10.47-6.64,1.73-.87-11.35,4.32-13.92,5.36-3.77,1.53-6.86,2.65-9.29,3.58,20.38-13.57,15.22-10.54-.57-1.51-1.13.65-2.13,1.22-3.01,1.72,7.74-5.01,15.52-11.13,14.64-10.83-3.19,1.18-6.23,2.41-9.21,3.71,3.41-2.32,7.95-5.83,7.5-5.53-3.95,2.73-7.31,4.93-10.16,6.71-3.61,1.64-7.19,3.38-10.93,5.24,6.77-5.41,15.42-12.78,15.36-12.74-8.75,5.15-15.33,8.34-19.66,10.65,4.13-4.57,7.2-8.51,9.59-11.78.22-.22-6.01,4-11.66,6.93-1.25.65-2.65,1.36-4.06,2.1,2.41-2.99,5.13-6.48,8.22-10.5.24-.24-3.84,2.89-8.72,6.07-1.35.84-2.65,1.63-3.89,2.38.34-.54.68-1.07,1.01-1.58,10.52-16.37,5.38-7.98-9.02,1.63-.98.58-2.16,1.21-3.44,1.89,1.28-1.7,2.5-3.44,3.6-5.18,1.9-3,4.14-7.61,3.95-7.42-7.44,8.64-14.35,15.03-19.34,19.74-.74.61-1.41,1.25-1.99,1.89-2.56,2.46-4.39,4.38-5.24,5.86-.59-.44-1.19-.86-1.8-1.28-.23-.16-.46-.29-.69-.42,8.41-10.09,12.42-16.16,18.4-28.86.29-.86-4.49,7.23-15.94,20.54-2.6,3.02-4.73,5.38-6.45,7.26-.37.01-.74.05-1.09.12,6.48-12.4,7.88-17.5,10.62-27.17.03-.14-1.89,3.05-4.99,8.02-9.46,13.74-13.42,15.51-19.02,19.79,7.79-14.05,11.57-24.39,11.52-24.34-25.41,30.67-21.54,23.09-29.67,30.02,9.96-13.71,24.14-33.22,24.07-33.16-26.89,25.61-44.14,50.44-43.59,56.87-.84-.29-1.69-.58-2.55-.85,3.57-7.43,9.62-18.88,17.52-29.54,19.58-26.42,19.77-27.99,19.71-27.91-21.22,23.35-30.24,30.7-41.77,55.1-.3.63-.58,1.22-.85,1.78-1.21.7-2,2.15-1.74,3.6,0,.04.03.08.03.12-1.41,3.29-1.6,4.81-.09,5.57-1.53-.37-2.84-.57-3.87-.61,5.85-12.08,16.98-36.7,16.28-35.38,8.66-17.53,11.13-21,5.87-13.16-8.27,12.29-16.11,24.39-21.87,37.13-8.11,17.96-7.26,18.04-5.53,18.87,1.18.56,2.83-.57,2.54-2.07.37-.67.86-1.62,1.44-2.79.84.13,2.05.28,3.71.76-.89-.24,16.37,5.74,35.43,17.23-15.19-6.24-31.39-11.28-49-9.37.25-.88.59-1.97,1.05-3.35,9.67-27.1,13.54-38.94,17.08-47,6.33-14.52,17.23-29.12,1.94-8.68-8,10.69-28.42,47.11-30.23,61.19-.46.19-.89.4-1.3.61,2.12-5.99,5.38-15.35,10.85-29.94,7.36-19.65,16.74-35.32,16.03-34.62-17.43,26.46-21.61,33.17-32.78,64.3-1.61,4.49-4.67,10-.18,10.59.86.11,1.42.12,2-.51.29.55.65,1.07,1.06,1.54-3.17.37-6.28.95-9.31,1.75,2.41-7.98,6.12-21.31,11.94-44.94,4.4-17.88,15.8-40.34,14.83-39.36-26.7,32.02-24.53,41.58-37.64,81.02-.76,2.05-1.61,4.02-2.42,5.88.98-9.24,2.04-18.9,2.59-22.79,3.03-21.43,15.73-40.25,13.84-38.36-18.03,22.37-22.41,39.55-27.74,72.31,1.25-16.67,2.22-37.05,3.54-49.29,1.5-13.11,9.57-39.12,1.54-16.05-12.21,36.62-13.81,83.97-10.69,91.66-2.24,2.02-2.17,3.76.56,4.45.66.17,1.36-.21,1.55-.88.43-1.58-1.93-.88,1.93-2.79,19.39-8.9,66.35-5.7,65.51-5.97-10.19-3.52-28.31-4.37-40.07-3.51-6.23.46-11.63,1.42-16.11,2.63,1.09-.87,1.94-2.03,2.45-3.33,17.74-6.57,53.27-3.76,47.59-4.12,8.59.71,11.55,1.22-4.33-2.73-17.18-4.25-33.05-2.73-43.54.7-.2-.39-.44-.78-.72-1.16-.02-.02.24-2.71.65-6.77.53.45,1.18.84,1.99,1.18.46.19.94.31,1.42.39-1.42.89-2.41,1.74-2.86,2.5-1.23,2.09,3.07,2.78,3.1.62,14.32-8.09,48.59-6.83,50.25-6.78,9.28.74,29.75,5.93,5.75-1.33-18.48-5.61-38.4-2.36-49.83,1.95.26-.46.46-.95.59-1.49.23-1.02.55-2,1.04-3.43.39.16.8.27,1.23.33,3.25.41,3.88-1.74,5.53-2.28,32.03-9.79,71.39,1.47,42.57-6.59-7.56-2.11-15.7-3.53-23.84-3.87,2.08-.79,5.68-1.53,12.88-1.98,17.7-.85,36.25,1.14,44.96,2.27,1.63,1.09,3.25,2.21,4.87,3.38.03.02-1.05-1.23-2.96-3.12,2.05.28,3.21.46,3.17.46-1.64-.72-3.3-1.45-4.96-2.18-2.81-2.63-6.68-5.92-11.18-8.81-11.73-7.52-22.02-12.06-28.74-13.93.8,0,1.58-.36,2.08-1,.01-.02.37-.88,1.03-2.37,11.63,2.47,39.86,16.65,53.01,28.77,1.77,1.12-15.93-21.48-44.82-32.54.33-.38.67-.98,1.12-1.84,1.09,1.53,3.13,2.25,5.06,1.46,5.67,1.29,30.73,13.7,45.23,25.47,2.79,2.79-14.93-18.56-34.28-28.87.09-.09.17-.2.26-.3,7.61,2.96,19.43,10.36,34.96,19.4.07.04-16.38-17.12-29.86-26.3.31-.44.62-.89.93-1.33.5,1.02,1.2,1.94,2.09,2.64,2.34,1.84,4.48,2.15,6.4,1.56,8.23,5.52,22,15.5,29.52,23.98,1.49,1.55-7.2-12.7-26.91-25.39.72-.56,1.4-1.22,2.04-1.95,14.67,7.37,47.22,33.57,47.3,33.57-.06,0-11.25-17.83-26.53-32.2,11.29,6.75,24.46,15.3,32.34,21.63.06.04-8.47-15.31-21.67-29.04,11.44,6.13,26.67,16.7,33.87,21.86.31.15-6.74-7.52-15.73-14.77-7.91-6.34-13.89-10.31-18.36-12.67.23-.08.46-.17.69-.28.14.26.3.46.42.54,1.41,1.01,4.8-.19,42.16,26.71.08.06-6.03-6.33-13.24-12.11-14.32-11.48-21.95-16.11-25.88-17.53.32-.29.64-.6.97-.91.4.38.88.72,1.47.99.19.09,35.68,17.31,48.71,25.79.35.25-5.33-6.07-14.37-14.08,5.26,2.15,11.23,4.6,18.01,7.49,0,0,0,0,0,0,0,0,.01-.01,0-.02-3.11-2.91-6.08-5.75-8.91-8.48,2.81,1.3,5.85,2.7,9.16,4.23.09.06-5.52-5.33-12.72-11.72,7.76,5.28,17.49,11.43,21.51,13.69.69.23-5.24-4.98-12.02-10.71,6.86,4.35,15.67,9.83,20.99,12.85.09.06-13.65-13.54-13.74-13.63-4.28-4.15-7.71-7.46-10.49-9.81.71-.31,1.44-.68,2.19-1.08,3.02,5.48,24.46,20.47,32.12,25.28.35.23-2.56-2.53-6.69-6.36,7.26,3.86,14.12,7.02,15.82,7.75.08.06-3.75-3.35-6.44-6.12-2.74-2.98-5.08-5.75-7.25-8.35,7.67,6.8,18.97,16.09,18.31,15.11-3.95-4.98-7.19-9.05-9.87-12.39,4.43,3.34,10.16,7.32,16.35,12.35.05.06-3.37-6.47-8.36-13.78,3.25,2.84,7.32,6.36,16.25,13.47.11.12-1.39-2.52-3.62-6.1,2.94,1.95,6.39,4.19,10.3,6.85.06.02-1.47-3.89-3.82-8.46,3.81,3.63,7.51,7.54,14.42,13.21.04.03-1.11-2.46-3.15-6,3.11,2.48,6.89,5.65,11.46,9.77,0,0,0,0,0,0,0,0,.01,0,.01-.02-1.03-2.28-2.91-5.7-5.18-9.26,4.98,3.7,13.35,8.88,20.24,17.38.04.06-.57-2.37-2.87-5.99,9.43,5.05,17.13,9.02,16.65,8.71Zm-316.42,55.56c.2-.75.4-1.63.58-2.63.1.15.21.3.34.45.45.51,1.07.76,1.72.82-.99.45-1.86.91-2.64,1.36Zm5.13-2.4s.01-.01.02-.02c.04-.05.09-.1.13-.16.09,0,.18.02.26.02-.14.05-.28.1-.42.15Zm180.1-102.69s.02-.01.03-.02c0,.01,0,.02,0,.03,0,0-.02,0-.03-.02Zm-46.55,7.53c.05-.06.11-.12.16-.19.05.08.11.15.16.23-.11-.02-.22-.03-.32-.04Zm41.86-7.17c.72-.36,1.48-.77,2.27-1.21-.77.63-.77,1.01-.38,1.53.05.07.12.12.19.17-.17.29-.27.62-.3.94-.6-.49-1.19-.96-1.78-1.43Zm8.21,2.24s.04-.02.06-.03c0,.02,0,.05-.01.07-.02-.01-.03-.03-.05-.04Zm15.75-1.66c.37-.2.73-.41,1.09-.6.62-.34,1.26-.69,1.91-1.05-.17.42-.13.91.12,1.52.2.5.57.85,1,1.07-.43.5-.78,1.06-1.02,1.68-1.37-1.2-2.45-2.11-3.1-2.62Zm90.9,34.23c-.14-.16-.28-.31-.41-.46.24.12.47.23.71.35-.1.03-.2.07-.3.11Zm-68.05-29.94c.95-.22,2.03-.52,3.18-.88-.1.09-.2.19-.3.29-.71.76-1.1,1.52-1.23,2.3-.62-.68-1.17-1.24-1.65-1.7Z"/>
      <path class="c" d="m452.83,279.76c-13.96,1.08-22.83,3.6-27.79,6.17.84-5.57,1.03-19.55-.25-45.73-.54-10.63-.74-21.64.94-32.11,2.71-13.34,5.97-18.82.06-7.21-11.14,22.07-6.61,76.33-2.97,86.37-3.87,2.7-3.57,5.19-.48,5.83,1.42.3,2.82-.53,3.02-1.99.14-1.06,22.4-7.98,60.09-9.1,2.36,0-17.27-3.43-32.64-2.22Z"/>
      <path class="c" d="m446.11,296.81c-6.88.25-15.75,1.54-23.76,3.57,3.73-1.33,9.53-3.07,17.95-4.8-.09.01,13.45-2.58,22.33-3.94,7.04-1.06,13.35-1.84,12.9-1.84-6.07-.74-20.24-.06-25.63.62-27.7,3.54-36.55,10.25-37.54,13.13-.89.35-1.73.72-2.54,1.09-.97-18.08-7.21-55.11-7.23-55.34-1.61-17.64-.14-28.87-.38-27.92-5.36,30.41-2.77,33.38,3.91,78.14.4,2.7.68,4.85.89,6.59-.58.34-1.13.7-1.62,1.05-2.34-7.54-5.62-16.89-8.9-24.5-11.68-27.04-13.63-38.56-13.61-38.47,3.44,41.67,14.11,53.84,13.24,72.43-.31-1.3-.63-2.5-.95-3.53-4.09-13.23-8.36-21.59-14.19-33.13-16.09-31.88,8.11,14.57,11.18,50.26-.39.3-.75.61-1.07.92-.6-2.5-1.24-4.71-1.82-6.36-5.15-14.86-27.32-40.43-27.28-40.35,14.33,28.39,19.7,43.74,21.32,52.5-2.68-7.15-6.81-15.33-12.73-23.72-.47-.71,1.48,4.14,3.91,11.31-.34-.68-.68-1.37-1.02-2.04-9.79-19.02-.48.78,4.01,15.43,1.71,5.52,3.01,9.77,4.03,13.08.22,1.39.4,2.75.52,4.07-.4.23-.78.47-1.15.71-2.19-8.01-6.18-17.84-10.57-25.38-11.91-20.42,1.51,4.37,5.71,24.41.31,1.47.58,2.79.82,3.98-.51.59-.92,1.24-1.21,1.94-3.02-8.13-7.76-16.68-13.71-22.73-.92-.93,4.12,4.23,8.28,18.88.79,3.28,1.14,6.41,1.28,9.31-.18-.31-.35-.61-.53-.92-5.45-9.26-9.51-13.23-12.78-16.21,1.81,2.91,9,16.43,8.13,37.18-5.99-9.35-12.56-16.94-11.42-15.22,10.66,26.62,4.73,20.55,6.04,37.19.34,4.35,4.55,7.49,8.8,6.59,6.62-1.4,6.64-7.46,3.91-14.66,4.42-.25,8.45-4.35,6.13-14.69,1.26-.56,3.11-1.35,5.89-2.35,10.47-3.79,31-9.95,30.3-9.95-10.27,1.09-23.49,4.79-31.6,8.12.99-.97,1.74-2.22,2.09-3.71,15.82-9.87,40.92-17.76,40.82-17.76-8.61-.07-19.6.41-29.79,2.25,10.94-5.05,28.69-11.53,36.49-14.14,5.59-1.69,14.89-3.26-14.14-1.58-1.23.07-2.54.16-3.9.28,26.4-5.35,59.59-6.27,58.21-6.62-38-5.59-67.06-.04-81.12,6.5,0-.19.01-.37.02-.56,3.27-1.58,10.29-4.35,25.91-9.03,24.63-7.32,30.9-6.78,30.82-6.78-8.83-2.07-33.57.36-50.63,7.01,0-.64-.04-1.4-.1-2.27,16.75-7.96,63.81-12.46,62.34-12.83-16.04-2.36-38.68-1.25-54.3,2.38.31-.32.58-.68.82-1.09,6.42-2.25,22.75-7.11,68.37-9.85.45,0-11.11-2.8-38.16-1.45-5.4.27-21.13,2.3-29.8,5.57-.06-.29-.13-.58-.21-.9,1.5-.41,2.81-1.48,3.3-3.26,15.58-8.78,55-14.39,71.25-12.91,1.08,0-12.21-4.57-36.54-3.7Zm-66.78,86.86c-.02-.06-.03-.12-.05-.18.14,0,.28-.02.42-.04-.13.07-.25.15-.37.22Zm13.38-43.63c-.06-.48-.12-.96-.18-1.44.08.02.16.04.24.06.16.38.39.72.67,1-.24.12-.49.25-.73.38Zm5.42-12.96c-.14-.9-.28-1.8-.44-2.71.9.86,2.05,1.44,3.27,1.71-1,.32-1.95.66-2.84,1.01Z"/>
      <path class="c" d="m358.07,348.96s.07.07.11.1c-.46-.74-.58-.8-.11-.1Z"/>
      <path class="c" d="m187.7,146.84c-.97-3.07-20.48,5.03-23.52,6.56-32.7,16.47-41.47,30.75-54.25,59.25-.51,1.53,22.68-29.52,41.82-44.71,25.01-18.39,36.93-17.94,35.95-21.1Z"/>
      <path class="c" d="m149.95,158.95c19.72-10.59,32.62-12.18,31.77-14.85-.39-1.25-1.16-1.13-8.65,1.04-42.4,8.44-52.26,25.6-73.1,54.9-.1.15,6.52-4.97,10.93-8.71,10.14-8.58,22.58-23.02,39.05-32.39Z"/>
      <path class="c" d="m170.65,142.04c.42-.29.7-.62.88-.98,1.28.71,2.08.94,2.42.62,1-.97-22-27.53-46.34-30.19-22.39-2.32-3.05-.99,11.11,7.66,1.85,1.13,3.62,2.24,5.32,3.32-4.66-2.23-10.01-4.35-15.91-5.93-22.06-5.94-15.13-4.36-1.7,2.66,5.25,2.75,10.26,5.84,14.73,8.84-9.46-4.59-14.94-6.61-23.42-8.38-22.63-4.74-7.78-1.49,7.01,6.63,7.81,4.27,4.45,2.73,13.07,7.36-.16,0-.33.02-.51.08-.67.23-1.37.44-2.08.64-.1-1.55-1.13-3.03-3.25-3.32-.86-.12-4.06-2.2-14.24-5.99-8.04-3-15.64-3.22-23.94-3.71-.68,0,2.48.58,10.2,3.64-3.78-.82-8.76-1.45-15.86-1.8-.56,0,9.96,2.2,14.57,4,.77.3,3.14,1.31,6.13,2.55-15.33-2.47-18.24-4.07-48.43,1.29-.29.07,14.21.13,26.11,1.59-17.16.39-25.87,2.42-41.46,7.28-.7.17,11.36-1.97,24.26-2.49-10.39,1.02-21.16.55-42.36,9.16.39-.12,5.07-1.36,19.77-2.99,5.3-.43,10.62-.71,15.54-1.01-3.89.64-8.6,1.52-11.58,1.91-15.03,2.01-21.06,6.14-33.97,13.84-.03.02,7.28-1.99,16.41-4.59C17.12,164.28,11.97,172.32,0,187.22c-.04.06,18.48-16,20.27-17.51,4.36-3.69,8.18-6.46,11.42-8.61-6.02,6.05-11.22,12.51-13.61,15.45-.06.06,13.78-12.98,22.76-21.1,1.79-1.12,2.89-1.98,3.24-2.91,1.58-1.39,2.81-2.45,3.53-3,3.25-.96,6.39-1.91,9.19-2.78-7.64,4.44-11.78,9.15-25.59,25.37,0,0,0,.02.01.02,0,0,0,0,0,0,23.51-19.77,18.3-17.62,32.36-25.26,2.23-1.22,4.02-2.15,5.47-2.87-8.88,5.52-15.12,13.79-21.29,22.08-.06.06,10.23-11.74,22.9-19.9,3.25-1.92,6.88-3.75,10.69-5.14.61-.22,1.6-.56,2.76-.92-9.43,5.58-17.43,13.94-26.82,25.4-.36.54,18.03-14.98,36.09-22.35.64-.24,1.26-.47,1.87-.68-10.62,6.39-20.66,16.5-27.44,25.86-.28.42,6.65-6.94,26.62-19.34,16.55-10.3,26.59-11.94,27.86-11.81.82.08,1.83-.98,1.36-1.83,1.95.6,3.38.89,3.9.69.12.06.23.12.33.17-13.7,3.41-32.46,9.04-56.63,39.44-4.15,4.15,31.18-29.09,66.78-39.07,1.3-.24,1.46-1.57.91-2.38,1.78.95,4.02,2.14,6.83,3.63-5.58,1.22-12.48,3.11-18.49,5.79-23.82,10.47-32.99,22.37-47.63,41.7-.08.12,25.55-20.65,30.6-24.1,17.65-12.05,25.82-16.02,42.7-21.2,1.51-.47,2.49-.78,3.17-1,1,.8,1.84,1.49,2.49,2.02-14.09,3.86-34.19,8.59-65.81,47.97-1.07,1.58,34.94-27.15,48.65-34.87,10.65-5.7,26.57-10.37,29.2-12.15Zm-126.71,8.83c-.03-.07-.06-.14-.1-.22.31-.09.61-.18.92-.27-.27.16-.54.32-.81.49Zm74.73-16.4c0-.3-.03-.58-.08-.84.7.26,1.39.51,2.05.75-.56-.01-1.22.02-1.97.09Zm33.99,2.1c.02-.06.03-.12.05-.19.06.05.13.1.19.15-.08.01-.16.03-.24.04Zm13.27.8c.44.31.87.61,1.27.89-.41.18-.82.35-1.23.52.06-.47.05-.94-.04-1.4Z"/>
      <path class="c" d="m26.96,146.57s.01,0,.02,0c-.03,0-.04.01-.02,0Z"/>
      <path class="c" d="m195.53,123.69s0,0,0,0c-.03-.03-.02-.02,0,0Z"/>
      <path class="c" d="m201.01,149.56c1.9.52,2.36-1.34,1.49-2.01-24.07-27.26-46.56-41.78-46.56-41.78,14.03,15.33,34.47,40.92,45.06,43.79Z"/>
      <path class="c" d="m146.56,111.87c10.85,10.28,13.06,17.97,39.93,33.96,1.07.63,1.76-.63,1.56-.3.89-1.06.26-2.2-8.18-9.82-30.52-27.44-32.59-26.83-41.93-30.89-.17-.04,5.17,4.02,8.63,7.05Z"/>
      <path class="c" d="m245.83,157.98s.04.04.06.07c-.13-.16-.15-.15-.06-.07Z"/>
      <path class="c" d="m222.48,180.95c.52,0,1.06.01,1.63.02-1.13-.11-1.64-.02-1.63-.02Z"/>
      <path class="c" d="m259.88,170.63c-.66-1.34,2.75,7.67,6.9,18.06-6.26-10.15-6.69-16.46-20.88-30.63.67.86,4.25,6.67,10.44,33.35-1.27-.8-2.5-1.54-3.7-2.22.2-.04.38-.13.51-.28,1.59.85,2.3-.78,1.64-1.61-5.72-11.35-1.1-24.26-25.73-45.84-.06-.08,7.56,9.12,11.76,17.95-.04-.08,1.19,1.64,4.68,13.75.12.42.24.81.36,1.21-1.72-1.88-3.72-4.23-5.93-7.28-11.08-15.28-7.55-15.01-31.28-39.38-.38-.38,3.2,4.65,8.62,13.64,3.75,6.22,5.92,10.34,7.81,13.85-4.74-7.24-11.6-16.46-29.53-31.47.24.26,2.9,3.34,23.12,30.05,2.21,2.92,4.17,5.4,5.93,7.52-.75-.29-1.53-.59-2.34-.89-.05-.4-.25-.79-.65-1.1-5.2-4.03-22.12-29.6-35.86-40.09-3.29-2.51-8.79-6.54-8.72-6.43,18.16,21.45,18.13,26.1,28.37,36.19.56.55,5.5,5.39,9.51,9.07-4.04-1.11-8.39-1.99-12.71-2.29.76-.47,1.52-.93,2.3-1.39,1.24-.72.43-2.75-.96-2.47-5.39,1.09-11.38,2.83-12.54,3.29-1.1.44-2.48,1.14-3.98,2-1.37.32-2.68.67-3.91,1.06.39-.27.77-.53,1.17-.8.09-.06,9.58-6.57,9.88-6.8,1.01-.77-.01-2.5-1.23-1.91.36.68-9.35,2.2-20.39,8.31-17.25,9.6-23.73,25.82-30.13,44.85-.03.08,10.11-12.33,10.18-12.42,4.74-5.79,10.18-14.79,21.89-24.66.69-.17,1.41-.34,2.15-.51-2.19,1.77-4.12,3.54-5.42,5.1-8.87,10.59-10.39,20.12-12.81,33.9,0,2.94,9.35-18.32,29.03-36.29,3.3-.32,10.55-1.15,18.07-.59,14.45,1.06,31.71,10.78,34.16,10.73.23.01.42.01.59,0,.7.85,1.4,1.71,2.08,2.58-10.88-6.34-23.67-10.59-35.69-9.24-15.18,1.78-12.39,1.41.38,1.95,18.24,1.58,34.64,10.46,41.6,14.6-11.12-5.53-18.9-5.96-24.51-6.05,3.55.34,13.33,2.61,33.28,15.64-.07.64-.08,1.28,0,1.91-7.1-3.37-13.32-4.54-20.36-5.43-.61,0,11.18,2.5,21.81,8.98.59.8,1.31,1.5,2.2,2.02.86.51,1.71.84,2.53,1.02,4.39,2.9,11.02,7.45,15.4,11.1.14.17.25.27.34.29,2.38,2.01,4.02,3.72,4.14,4.68.13,1.08,4.51,1.23-2.28-5.55,1.63-4.84-17.35-38.09-21.29-45Zm-24.02,1.62c.23.11.43.19.61.24.27.34.54.69.83,1.04-.53-.33-1.09-.67-1.69-1.02.09-.08.18-.17.26-.26Zm-43-7.66c-1.77.55-3.17.99-4.26,1.34,1.45-1.29,2.96-2.55,4.52-3.79,2.04-.06,4.12-.04,6.21.1,1.45.12,2.88.32,4.29.55-3.84.14-7.45.77-10.76,1.8Zm83.18,46.43c-2.95-2.45-5.68-4.54-8.25-6.34.26-.11.5-.24.74-.39.22.16.42.3.64.46-.02,1.25,1.38,1.85,2.45,1.43,2.06-.82.95-2.44-.77-4.03.33-.45.61-.93.85-1.43,1.68,4.02,3.28,7.7,4.59,10.5-.09-.07-.16-.14-.25-.21Z"/>
    </g>
    <path class="j" d="m340.91,590.13c-8.4-33,7.72-268.46,137.38-372.96,41.91-33.74,109.06-58.25,167.69-46.96,4.27.82,34.05,8.85,39.25,10.39,21.05,6.23,33.89,14.42,46.21,25.4,1.04.87.07,1.75-.73.95-20.3-17.48-38.02-22.56-63.19-28.46-26.94-6.32-35.23-8.53-65.01-5.53-38.67,3.85-85.17,29.38-80.97,27.22-74.89,38.66-125.38,135.08-148.83,216.42-17.54,61.02-21.76,148.31-25.41,173.01-.55,3.76-5.59,3.73-6.4.52Z"/>
    <g>
      <path class="f" d="m160.05,226.06c-.12,0-.15-.03-.1-.08-.08.05-.06.08.1.08Z"/>
      <path class="f" d="m260.13,247.18c.15-.08.31-.15.46-.23-1.08.33-1.21.47-.46.23Z"/>
      <path class="f" d="m352.25,291.8c.11.02.13,0,0,0h0Z"/>
      <path class="f" d="m354.8,282.63c-13.1-2.9-22.4-3.25-28.77-2.31,6.15-1.9,15.44-3.57,30.04-2.64.08,0-12.14-5.13-26.28-4.96,18.18-9.55,26.56-8.62,25.71-8.84-13.97-2.17-24.05-2.32-31.18-1.31,1.47-1.55,3.13-3.29,5.15-5.05,4.47-2.35,10.59-4.85,19.11-7.27.05-.01-4.32-.05-10.25,1.22,4.1-2.13,9.18-4.02,15.7-5.31.06-.01-10.27-2.6-23.39.15,8.59-6.94,12.41-7.92,20.68-9.36.08,0-12.35-3.5-25.53,2.08,3.67-3.7,10.29-8.49,24.8-12.83.07-.02-12.16-1.33-24,4.54,3.45-3.93,9.54-8.68,21.09-14.08.1-.07-11.84.19-23.83,5.36,3.45-4.75,8.96-10.39,19.51-15.27.06-.02-10.73-.24-21.19,5.2.6-.81,1.19-1.59,1.76-2.33,20.71-7.04,29.61-2.77,10.76-6.3.03,0-1.73-.41-4.54-.89.2-.2.39-.4.58-.59,1.12-.21,2.2-.4,3.21-.53,6-.83,6.39-.82,6.28-.85-1.98-.56-4.1-1.1-6.3-1.61,1.51-1.31,2.3-1.83,2.1-1.77-1.53.41-3.08.8-4.66,1.21-2.97-.63-6.07-1.18-9.2-1.62,6.69-.96,10.85-1.12,10.63-1.19-3.69-1.17-9.84-2.52-16.04-3.27,6.77-2.33,8.33-2.45,8.21-2.49-1.16-.4-2.74-.84-4.58-1.25-.59-.37-3.02-.95-8.2-1.91-1.1-.2-2.12-.36-3.08-.48,2.75-.3,5.71-.44,8.6-.27.55.14-4.24-2.59-10.91-3.66-4.78-1.8-8.58-1.53-10.81-.14-.12-.22-.23-.44-.36-.66,1.01-.47,1.72-.2,1.58-.35-.73-.29-1.38-.37-1.97-.32-.71-1.22-1.48-2.4-2.14-3.43-5.82-9.15-5.48-9-3,.3-9.47-11.51-19.1-16.41-31.78-22.29-.68-.34,7.74,4.47,15.06,11.13-.05-.04,1.89,1.25,5.47,5.49-4.95-2.54-11.39-5.04-15.68-6.17-7.51-1.97-12.23-1.93-17.62-2.18-.34,0,5.29,1.21,9.51,2.74,1.52.57,2.98,1.18,4.38,1.81-3.93-1.27-8.18-2.41-12.37-3.17-9.95-1.82-14.3-1.55-24.6-.88-.6,0,7.66.69,7.75.7,9.35.8,18.86,3.64,26.56,6.56-.09,0-.17,0-.26,0-6.76-1.5-15.94-2.58-25.03-2.24-25.8,1.04-9.27.4,10.82,2.88-2.41.14-5.01.3-7.81.49-31.57,2.12-22.93,1.46-9.19,2.72-8.1.3-16.81,1.06-25.33,3.64-.4.1,3.8-.94,11.27-1.45,6.88-.16,11.47-.17,14.87-.13-13.23,1.24-20.52,1.39-34.36,8.22-.12.04,9-2.84,18.65-3.31,7.02-.05,12.58-.08,16.98-.14-.05.05-.09.11-.14.16-9.92,1.07-30.65,3.88-39.22,9.35-.12.08,6.45-2.72,20.08-4.75,1.47-.22,4.82-.55,8.63-.94-10.38,2.23-24.96,6.02-34.05,11.08-.12.08,5.73-2.02,12.91-3.57-6.91,2.48-13.81,5.67-18.32,9.59-.24.16,4.88-2.47,9.65-3.6,6.56-1.56,12.6-2.66,17.69-3.45-12.55,3.91-24.48,6.22-34.65,14.49-.09.06,3.48-1.97,12.65-5.12,5.76-1.56,10.33-2.69,13.97-3.56-.15.22-.29.45-.44.68-.15.05-.3.1-.45.15-1.22-.37-2.33.08-3.35,1.12-10.66,3.55-16.69,5.45-23.63,10.5,3.39-1.34,13.26-4.31,21.24-6.68-.02.05-.04.09-.06.14-1.42.56-3.16,1.46-5.1,2.23-8.18,3.24-14.92,5.83-20.39,9.12-.07.05,10.55-2.79,20.64-6.15-3.16,1.9-11.64,5.61-20.6,11.37-.04.03-.06.04-.08.06-2.45.89-4.21,1.56-4.43,1.78.64-.39,8.43-2.22,14.92-4.09-2.58,1.1-5.85,1.78-16.2,6.97-.06.04,9.96-1.84,16.32-3.55-.07.14-.27.33-.85.65.08-.04-10.01,4.29-14.92,6.72-.07.03,6.39-1.69,10.98-3.27-5.16,2.97-16.45,8.52-16.52,8.56-.05.03,4.75-.87,9.87-2.74-2.9,1.63-7.43,4.26-12.65,7.66-.09.06,4.08-1.11,8.98-3.04-2.55,1.54-5.77,3.67-9.71,6.53-.14.14,4.07-1.97,8.41-4.28-2.54,3.5-7.34,9.19-18.34,25.59-.06.08,3.53-4.3,3.39-4.05,7.65-9.36,13.6-13.96,17.97-19.27-.72,3.99-1.18,7.85-1.49,11.86,0,.08,0-.26.95-3.59.35-1.41,3.75-10.84,4.58-13.44.13-.39.1-.74,0-1.03.33-.2.64-.4.91-.57-1.45,5.62-2.23,12.39-2.07,12.39,0,0,0,0,.01,0,2.32-11.25,8.02-16.73,7.32-18.92.25-.18.48-.37.71-.56-1.21,2.66-2.73,6.74-4.03,12.77-.01.03,1.16-3.81,5.29-11.53-1.12,3.45-1.71,6.07-1.19,5.03.73-2.68,3.21-7.08,5.15-10.26-.99,3.41-1.6,7.24-1.84,9.42-.03.11,2.37-7.87,4.71-12.6-1.28,4.47-2.04,9.79-2.19,12.32,0,.18,1.3-4.85,2.59-8.3,4.55-12.17,4-8.48,4.4-9.91.21-.75-.72-1.54-1.43-.95-.27.22-.53.5-.79.84-.31-.23-.73-.28-1.12.05-.97.82-6.85,2.96-12.3,4.91,6.58-2.68,16.73-7.06,16.78-7.08,1.58-.56.87-2.66-.37-2.79.74-.25,1.48-.51,2.21-.76-2.2,6.89-3.56,15.74-4.24,19.71-.01.04,3.51-5.97,6.98-11.92-.38,2.97-.52,5.71-.36,7.76,0,.65,2.16-10.19,11.14-21.87.06-.03.1-.07.16-.1-2.42,6.82-4.53,15.17-5.01,18.13,0,.08,4.53-14.73,10.11-24.25,2.56-.76,2.9-1.32,2.56-2.7-.15-.6-.44-.96-.81-1.18,1-.14,1.95-.26,2.84-.36-2.78,6-6.92,16.6-7.68,23,0,.2,4.36-11.83,12.15-22.06-2.9,5.64-5.65,12.57-6.19,18.37,0,.07,3.42-10.91,9.71-20.1.27-.02.42-.03.43-.03.34-.08.63-.21.9-.36-2.72,6.67-4.79,13.78-5.14,16.48-.03.11.12-.47,1.81-4.36-.04.08,4.09-7.26,4.04-7.17,1.3-1.98,2.51-3.71,3.62-5.23-2.02,4.72-3.83,9.74-4.69,13.93,0,.15.34-1.13,3.97-7.01,1.35-1.91,5.86-8.2,9.53-12.83-3.42,6.58-6.27,14.07-6.93,17.19.21-.48.92-1.82,3.17-5.41,4.42-6.13,7.88-10.33,10.45-13.32-3.96,5.84-5.8,10.53-7.64,16.2-.02.08,2.57-4.27,2.52-4.19,7.18-10.92,16.01-15.82,18.45-19.46.35.04.69.09,1.02.13-4.57,3.24-9.85,8.12-15.75,15.2.56-.46,5.84-3.3,12.2-5.93-3.75,3.35-7.06,6.71-9.35,9.3-.53.8,7.09-5.3,19.57-9.02-6.06,4.14-10.36,8.56-15.39,14.02-1.7,1.7,14.84-12.59,34.39-15.08.31.21.63.37.95.49-8.18,1.9-20.16,7.09-33.77,18.37-.14.1,12.06-8.15,26.38-12.85,15.76-5.11,16.43-2.94,17.2-3.06.4.28.85.46,1.31.53-.08.19-.14.39-.19.59-1.48-.03-3.28.04-5.47.24-8.32.77-15.93,3.14-23.24,7.82-6.37,1.35-6.39,1.1-1.94,1.3-3.07,2.16-6.09,4.73-9.08,7.81-1.98,1.98,2.61-3.11,12.58-7.59,1.32.1,2.81.25,4.46.45-5.08,2.48-10.31,5.74-15.31,9.91-.15.1-.27.18-.37.25,1.84-1.14,10.47-6.14,22.09-9.18.52.1,1.05.2,1.6.3,3.97.78,7.08,1.45,9.53,2.03-7.19,2.68-12.43,5.57-15.98,7.92-8.4,1.39-14.66,2.77-14,2.77,4.08-.19,7.44-.28,10.54-.28-1.78,1.41-2.59,2.31-2.57,2.31,0,0,0,0,0,0,2.29-.95,4.24-1.69,5.98-2.28,3.9.07,7.62.25,12.17.47-8.53,1.04-16.1,2.52-18.22,3.03-30.93,7.41,5.5-1.63,31.7,5.15-11.78.95-26.76,3.93-38.38,7.1-.83.28,4.5-.85,22.49-.83,25.41,0,26.5,1.19,27.45,2.17-.06.07-.13.14-.18.21-10.99-.88-32.3,1.44-48.57,6.13-.08.02,31.05-3.07,47.05-1.9.01.69.13,1.38.35,2.03-12.46-.74-34.25,2.04-46.89,8.41,3.79-1.17,19.38-4.8,51.08-3.44.85,1,1.83,1.06,2.62.65.53.05,1.07.04,1.61-.04.21.2.43.38.67.53-.86.8-1.52,1.59-2,2.36-.29-.04-.58-.07-.87-.08-.19-.09-.41-.16-.69-.21-2.25-.4-25.84.85-45.31,8.51-.06.02,20.74-2.64,34.29-4.37-14.83,3.77-37.61,8.82-37.19,8.82,28.65,1.55,37.86.51,42.26.63-4.05.92-11.86,2.1-27.65,3.12-9.82.62-9.78.5-14.82.86-.55,0,8.03,1.13,17.23,1.31,7.25.13,12.98-.13,17.47-.62.66.31,1.27.6,1.86.88-1.24.26-2.49.49-3.74.71-.45-.03-.56-.01-.4.07-20.41,3.48-39.88,1.81-11.57,4.37,2.06.19,4.72.27,7.61.23-2.35.42-3.84.8-3.81.81,2.06.43,3.91.85,5.59,1.25-5.74.79-13.09,1.45-22.57,1.78-.05.01,9.85,2.8,22.05,2.36-17.36,3.49-26.65,3.05-4.24,4.16,2.71.14,5.46.05,8.08-.16.2.05.4.09.6.14,1.34.34,2.54.66,3.64.98-6.15.9-12.58,1.72-19.43,3.86-.05.02,9.61.82,19.07.99-10.58.35-17.65,2.75-17.53,2.75,7.65-.07,14.4.27,19.75.64-2.48.11-4.98.37-7.31.82-13.1,2.51-18.56,7.79-18.48,7.77,9.56-2.86,19.89-3.91,37.05,4.1,2.65,1.24,5.11.51,6.74-1.1.94-.11,1.93-.39,2.94-.88,20.61-9.56,26.3-9.74,27.04-9.69-.02,0-.03,0-.05-.01-13.76-3.79-23-4.25-28.9-3.07.42-.28.89-.56,1.45-.83,14.3-6.41,31.51-4.89,30.05-5.25Zm-173.03-62.69c-.26-.11-.63-.04-1.07.38-.02.01-.03.04-.04.05-.12-.09-.25-.15-.38-.18.63-.23,1.19-.45,1.67-.66-.06.13-.12.27-.18.41Zm126.15,43.45c.07.21.15.41.23.61-.4-.11-.82-.22-1.25-.34.36-.09.7-.18,1.02-.27Zm5.08,24.42c-1.89-.21-3.72-.34-5.49-.41,1.78-.03,3.47-.09,5.01-.2.19.21.35.41.48.61Zm-109.41-86.54c-.13-.41-.33-.78-.6-1.12.43-.1.84-.2,1.22-.29-.21.45-.42.92-.62,1.41Zm43.21-23.42c-.03-.1-.06-.2-.11-.3.11.01.22.03.32.04-.07.09-.14.17-.21.26Zm39.49,8.98c.78-.64,1.35-1.53,1.54-2.53.49.77.99,1.57,1.5,2.4-.88-.03-1.9.01-3.05.13Zm-12.57,10.92c4.33-1.3,9.28-2.31,14.8-2.7.98-.06,1.84-.11,2.59-.13-3.27.27-7.17,1.06-11.41,2.42-2.1.1-4.12.24-5.98.42Zm26.69,67.06c2.06-.26,3.85-.56,5.37-.89.37.15.78.32,1.21.5-.35.1-.71.19-1.06.29-2.42-.05-4.37.03-5.52.11Z"/>
      <path class="f" d="m167.81,214.82s-.01-.01,0-.02c.31-.24.62-.47.93-.69-1.13.44-1.54.71-.93.71Z"/>
      <path class="f" d="m227.26,204.9c.01-.07.03-.15.05-.22-.15.34-.05.26-.05.22Z"/>
      <path class="f" d="m239.49,193.9s-.02,0,0-.01c.02-.02.03-.04.05-.06-.05.04-.07.07-.04.07Z"/>
      <path class="f" d="m254.44,211.38c-.48.3-.51.33,0,0h0Z"/>
    </g>
    <path class="j" d="m321.64,590.34c-.42-41.23-6.17-144.79-26.24-185.39-1.17-2.14-21.01-34.08-37.46-51.46-20.33-21.52-65.3-28.98-98.41-9.24-9.24,5.51-26.19,19.74-27.54,18.01-1.09-1.38.29-1.76,17.15-13.38-.08.06,12-9.89,27.66-14.85,27.59-8.68,64.17-6.52,86.5,12.51,10.07,8.59,46.69,49.07,54.06,88.4,8.57,45.25,9.56,89.25,9.21,135.34-.17,21.32.64,22.42-2.45,22.47-1.32.02-2.47-1.07-2.48-2.39Z"/>
    <path class="j" d="m324.27,508.93c.61-49.04-2.97-229.24-12.24-275.04-3.11-12.77-12.2-34.2-20.52-43.86-17.33-18.94-44.28-10.23-43.24-10.48-39.18,9.82-73.87,45.26-98.44,77.36-.55.72-1.68-.13-1.12-.85,5.77-7.48,25.34-30.57,36.1-41.25,24.9-24.62,90.3-63,115.87-21.98,7.69,12.4,13.24,27.96,12.54,25.92,18.96,52.37,14.95,234.83,13.63,290.12-.05,1.81-2.6,1.64-2.58.04Z"/>
  </g>
  <g>
    <path class="g" d="m395.47,698.84c.31-.07,1.32-.31,1.63-.39.25-.07-.42.11-1.63.39Zm-65.45,12c-62.64-2.72-83.39-7.47-89-62.72-1.46-14.18-3.98-72.11-3.98-72.17-.22-17.14,159.35-14.93,175.32-14.78,15.57.16,18.55.84,19.34,15.74,1.98,2.46,2.17,60.21,2.07,64.24-.06,2.16-2.57,41.13-16.78,54.19-3.98,4.06-7.73,6.51-12.23,8.6-11.68,5.41-63.43,7.35-74.73,6.89Z"/>
    <g class="d">
      <g>
        <path class="k" d="m412.86,671.52s-.02-.02-.02-.02c0,0,.02.02.02.02Z"/>
        <path class="k" d="m446.95,659.48c-1.23-2.62-6.34,5.37-29.6-8.47-7.22-4.56-13.78-10.89-17.98-18.92-2.37-16.71-3.2-10.76.06-20.58,9.1,19.48,19.08,25.48,32.2,28.73,2.41.59,16.53,2.76,15.92-.67-.78-4.41-28.4,7.19-47.66-28.71-.41-.77,3.69-10.08,4.05-10.89.55-1.18,7.15,16.25,24.52,19.48,4.74.88,13.39,1.36,18.17.15,1.32-.33.95-2.53-.56-2.27-2.89.51-7.41.39-10.26.28-12.47-.47-20.75-4.1-31.28-18.88,2.1-4.43,3.77-7.72,7.26-12.59,8.05,13.33,20.05,16.08,33.4,15.87,1.3-.02,2-1.71.98-2.66-1.85-1.7-20.87,3.47-33.93-13.85,13.82-19.01.21-3.17,27.64,1.31,2,.32,4.64.77,4.56-1.25-.13-3.43-15.5.87-24.36-10.35,14.31-16.91,23.36-15.69,20.59-20.02-1.61-2.52-4.07-.24-6.31,1.17-3.63,2.28-6.49,3.88-11.98,9.2-9.84,9.54-4.89,9.49-11.01,2.05-4.84-5.87-12.07-9.87-19.21-12.6-3.8-1.44.59,1.04-4.84-12.88-.12-.3-.47-1.28-1.11-2.57-.72-1.47-2.82-1.38-3.39.14-.53,1.41,1.35,3.21,3.45,12.39,1.31,5.73,2.12,20.36-.01,30.19-6.78-7.56-14.07-22.32-11.4-32.15,1.18-.85.2-2.64-1.18-2.19-3.27,1.02-1.9,21.47,8.46,33.6,2.82,3.31,2.97,3.38,3.4,3.5-.15.58,1.72-1.69-11.59,6.25-13.66-10.08-15.56-36.28-17.17-36.01-1.49.26.92,8.51,1.86,12.05,8.53,32.62,16.85,22.92,11.3,26.42-9.29,5.85-8.93,6.63-9.63,6.25-8.54-4.57-20.57-31.24-22.5-36.89-2.44-7.13-.97-4.83-1.44-5.55-2.09-3.36,1.6,13.78,12.15,32.05,9.67,16.87,13.59,8.87,5.4,15.83-4.36,3.7-4.5,4.24-4.21,3.71,1.12-2.11-2.24-2.19-5.66-5.57-4.79-5.4-13.66-19.47-15.7-22.86-7.72-14.56-11-25.55-11.08-25.75-.2-.49-.73-.18-.63.16,2.11,7.16,4.48,14.87,7.63,21.68,4.4,9.38,14.08,28.39,23.43,32.95,1.49.72,2.83-1.59-.8,2.22-9.95,10.41-7.06,8.94-8.62,8.46-11.37-4.04-29.15-37.97-33.19-50.29-5.68-17.42-4.41-16.72-5.35-16.81-3.91-.38,16.48,59.3,34.57,68.7,4.18,2.17,4.25-2.19-7.35,15.59-24.85-15.35-42.79-67.93-43.03-84.03,1.38-2.98-3.99-4.51-3.96-1,.21,17.96,11.26,46.24,18.48,59.16-11.79-6.02-23.33-20.21-31.02-31.11-11.23-15.97-11.61-20.97-11.67-20.94.02-.4-3.7-2.9,7.53,17.99,5.87,10.91,17.78,27.25,28.09,34.22,2.33,1.56,8.41,4.98,10.04,5.03.28,0-.34-.4,3.04,4.4-14.06,1.01-11.33,2.65-20.73-1.49,1.07.48-10.3-3.77-20.11-13.71-24.97-27.99-18.7-22.12-32.33-40.96-1.04-1.44-3.1.04-2.03,1.49,16.26,22.05,27.98,45.14,52.91,55.75,7.01,2.98,3.49-1.13-16.11,7.09-1.89.79-17.54-4.55-31.06-21.99-4.18-5.39-4.29-5.7-4.9-6-.73-.36-2.08.38-.71,1.68,5.12,5.66,6.18,11.19,16.68,19.01,16.61,12.38,19.78,6.96,13.12,10.47-7.29,3.86-10.42,5.49-20.01,12.24-2.86,2-7.12,5.47-8.56,6.31-.35.21-.04.76.33.59,2.12-.98,37.05-27.7,74.76-27.41,1.59.06.37-.44,4.06,3.97,8.53,10.19,8.36,3.98-6.33,7.38-30.32,7.01-42.34,10.58-66.75,31.8-4.33,3.78-5.49,4.39-4.58,5.47,1.38,1.65,2.52-1.53,13.19-9.97,14.21-11.25,36.27-19.7,42.61-20.9-1.31.48,20.28-4.8,24.91-4.55,8.39.41,6.07.53,9.86,2.63,2.7,1.49,2.73-.7-2.85,8.81-2.3,3.91.46,1.07-9.09,3.36-26.39,6.33-41.31,14.38-64.37,27.97-6.86,4.06-4.74,2.12-6.08,2.87-1.2.67-.9,3.28,1.87,2.25,4.99-1.88,24.59-16.29,53.29-25.33,27.33-8.59,21.92-7.93,18.32.04-7.93,17.34-4.62,15.2-7.34,15.45-3.95.35-18.94,3.5-38.81,14.27-4,2.18-14.68,10.18-17.2,11.25-1.54.61-.87,1.67-.14,1.69,3.87.12,10.44-10.7,49.29-23.12,2.48-.79,4.04-1.31,6.6-1.61,1.06-.11,1.05-.85-.45,4.06-6.14,20.17,4.93.05-32.93,24.06-.56.35-1.78,1.18-2.14,1.37-.41.15-.33.8.15.81.18,0,20.51-12.37,31.28-13.36-.01.06-3.48,14.16-3.83,15.91-1.91,9.58,1.53,7.15,1.34,6.07-.84-4.7,4.74-21.32,6.23-25.58,1.01.69,6.87-.75,15.84.7,16.56,2.64,44.08,15.92,54.8,24.12,4.08,3.34,4.14,3.61,4.68,3.82-.99,1.38-1.99,2.31-1.08,2.96,2.47,1.77,16.5-26.49,19-34.88,7.23-24.36-1-13.84,10.6,2.79,5.59,7.99,9.76,9.81,15.16,17.28,1.06,1.47,3.02.73,3.17-.76.3-3.11-13.29-12.02-18.88-22.44-7.82-14.01-5.98-18.46-7.06-30.2,5.95,14.61,20.69,30.1,36.3,27.23,3.03-.56,3.58-.73,3.9-1.18.62-.87-.08-2.11-1.23-1.94-4.06.58-9.91,1.35-14.2-.34-6.01-2.38-15.52-10.02-22.21-21.45-3.88-6.63-2.26-2.79-4.8-22.07,3.56,7.98,12.38,17.14,24.39,22.66,17.22,8.1,23.8,3.85,22.78,1.69Zm-53.94-56.49c-.02-.06-3-7.41-2.59-6.35-2.05-5.45-2.87-9.56-3.26-10.45,3.9-11.86.93-11.7,6.27-8.07,4.76,3.24,7.85,7.55,10.32,11.94-12.33,22.77-4.33,29.82-10.75,12.93Zm-.43-45.89c14.88,7.47,19.18,17.3,20.6,18.92-10.91,14.33-5.88,12.24-10.76,7.12-4.78-5.02-10.04-7.83-12.41-8.51,2.49-19.38-1.52-19.37,2.56-17.52Zm-19.62,36.89c.66.37,1.54.09,1.89-.58.75-1.41-1.33-.34,2.62-2.72,9.32-5.63,7.91-4.96,8.57-1,.78,4.66,3.8,16.39,3.81,16.44,5.25,21.65,2.76,8.21-14.49.08-14.03-6.61-15.66-2.94-10.11-7.21-1.05.77,7.13-5.34,7.71-5.01Zm-21.2,16.66c2.73-2.78,5.51-5.24,8.1-7.38.47.22,1.62.16,6.77,2.05,10.04,3.66,26.38,16.9,26.99,21.06,2.61,17.66,2.14,14.86.85,13.83-13.93-11.13-14.43-13.3-24.34-18.28-20.6-10.33-27.25-2.27-18.38-11.29Zm-15.81,19.21c3.58-5.29,4.11-5.8,6.88-9.33,3.7-4.33,2.54-3.75,4.62-3.17,5.59,1.57,16.32,3.1,28.84,12.51,22.73,17.1,19.7,14.45,20.32,20.84.32,3.31.62,6.61.91,9.92-1.87-1.75-3.88-3.35-5.96-4.84-16.11-11.62-27.41-19.89-44.34-22.14-14.72-2-14.06.36-11.27-3.78Zm-2.73,4.16c1.67,1.49,24.14-.9,59.39,26.77,4.65,3.79,7.46,3.83,4.23,21.97-7.33-7.46-35.47-26.09-53.3-31.19-20.89-5.95-21.03-.1-16.96-6.77.64-1.05,4.25-7.04,6.65-10.78Zm8.66,60.61c-13.21-5.12-22.98-6.9-35.09-6,7.31-20.86,7.22-18.92,7.12-18.89,8.68-1.75,31.46,5.76,39.04,9.14,7.85,3.61,27.23,17.12,33.81,25.87,2.19,3.04,3.26-.42.91,4.1-8.88,17.13,3.2,4.79-45.8-14.22Zm53.98-7.03c-1.55,7.26-3.05,11.03-5.56,16.1-2.74-5.74-16.25-15.65-21.92-19.85-16.62-12.35-40.03-17.54-53.56-16.62,2.79-6.53,4.71-9.91,7.02-14.21,1.24-2.31,1.94-2.85,9.05-1.72,34.39,6.84,65.5,33.79,64.96,36.31Z"/>
        <path class="k" d="m426.6,658.91s-.07-.03-.07-.03c.02,0,.05.02.07.03Z"/>
        <path class="k" d="m418.45,635.12s0,0,0,0c.1.06.1.06,0,0Z"/>
        <path class="k" d="m402.4,583.11s-.03-.03.12.12c-.04-.04-.08-.08-.12-.12Z"/>
      </g>
    </g>
  </g>
</svg>