<?xml version="1.0" encoding="UTF-8"?>
<svg xmlns="http://www.w3.org/2000/svg" xmlns:xlink="http://www.w3.org/1999/xlink" viewBox="0 0 253.43 444.32">
  <defs>
    <style>
      .c {
        fill: #1c5d2a;
      }

      .c, .d, .e, .f, .g, .h, .i {
        fill-rule: evenodd;
      }

      .j {
        isolation: isolate;
      }

      .d {
        fill: #7cb573;
      }

      .k {
        clip-path: url(#b);
      }

      .e {
        fill: #b5c7c7;
      }

      .l {
        fill: #537b7a;
      }

      .f {
        fill: #6fa057;
      }

      .g {
        fill: #a37a51;
      }

      .m {
        clip-rule: evenodd;
        fill: none;
      }

      .h {
        fill: #496527;
      }

      .i {
        fill: #207f34;
      }

      .n {
        mix-blend-mode: multiply;
      }
    </style>
    <clipPath id="b">
      <path class="m" d="m96.48,292.13c-.93,2.64-.4,6.98-.41,9.6-.02,4.02-.32,8.03-.53,12.04-.5,9.61-.98,19.02-.43,28.64.58,10.09,1.18,20.24,1.57,30.34.21,5.57.5,13.18,3.02,18.37,3.44,7.07,9.66,8.36,17.04,9.17,11.36,1.24,22.71.31,34.1.64,6.16.18,14.28.88,19.4-3.31,6.56-5.37,6.09-15.51,6.15-23.22.06-7.99.59-16.01.65-24,.08-10.05-1.15-20.09-.86-30.14.19-6.52-.84-13.38-.14-19.85.23-2.08-.04-5.68-1.57-7.3-2.55-2.7-15.16-1.45-18.59-1.61-14.2-.67-28.39-.51-42.59-.93-4.51-.13-9.3.41-13.77.89-.61.06-2.99.5-3.05.67Z"/>
    </clipPath>
  </defs>
  <g class="j">
    <g id="a" data-name="Lager 1">
      <g>
        <path class="g" d="m135.47,403.06c-.18-.01-.36,0-.53.04-4.38,1.09-8.65,2.6-12.94,3.99-6.6,2.14-13.23,4.59-19.89,6.41-1.14.31-4.08,2.11-5.21,1.58-1.7-.8-2.53-5.77-2.85-7.47-.55-2.86,1.95-2.67,4.07-3.62,4.63-2.07,8.87-4.15,13.78-5.65,5.4-1.65,10.81-3.15,16.2-4.78,2.24-.68,5.27-2.41,7.67-2.22,5.25.4,12.01,8.14,16.54,10.93,3.1,1.91,6.12,4.34,9.4,5.88.68.32,2.91,1.41,2.96,2.35.05,1.12-.33,2.54-.64,3.63-.35,1.25-.72,3.35-1.59,4.31-.54.6-4.41-.54-5.09-.86-1.45-.68-2.99-2.49-4.12-3.64-2.12-2.16-5.22-4.17-8.03-5.3-1.89-.76-3.59-1.9-5.27-3.04-1.13-.76-2.95-2.47-4.43-2.56Z"/>
        <path class="g" d="m171.24,394.41c-.53,8.46-.99,15.23-.6,23.96.09,2.03-.06,6.63,1.37,8.5.97,1.27,5.07.62,6.2-.24.57-.44.73-1.66.85-2.33,2.33-12.59.11-26.29.48-39.03.19-6.72-.57-13.41-.48-20.11.29-21.88,1.58-43.69,1.2-65.52-.1-5.93,1.13-12.53-.58-18.36-.86-2.93-2.28-5.95-6.14-4.89-2.05.56-1.96,4.36-1.83,5.82.65,7.67.31,14.91-.42,22.63-.52,5.5-.75,10.96-1.08,16.51-.3,5,.03,10.08.12,15.06.11,6.09-.68,12.19-.39,18.28.44,9.13.37,18.32.59,27.46.18,7.5.81,15.02.6,22.52l.11-10.25Z"/>
        <path class="g" d="m117.99,388.94c.32,6.78.52,13.48,1.03,20.27.21,2.76.19,6.66,1.58,9.15.9,1.61,4.84.31,5.44-1.04.47-1.05.81-2.54,1.03-3.67,1.31-6.78-.19-14.26-.41-21.08-.11-3.59.28-7.21.27-10.8-.04-7.75-.82-15.59-.76-23.35.06-8.41.48-16.81.36-25.22-.13-8.99-1.08-17.98-.93-26.96.12-7.28.67-14.43.17-21.71-.1-1.43.32-4.38-.39-5.65-1.84-3.29-6.66-.3-7.18,2.33-1.32,6.6-.26,13.93-.46,20.64-.15,5.28-.54,37.34-.65,48.08-.16,16.13.46,32.33,1.23,48.41l-.33-9.39Z"/>
        <g>
          <g>
            <path class="h" d="m140.59,67.01c-2.74-9.67,1.86-19.94,4.58-29.65,2.32-8.27,6.93-15.7,12.11-22.45,3.06-3.99,6.41-7.83,9.73-11.61.41-.47.93-.96,1.39-1.39.57-.52,1.1-1.06,1.78-1.44.15-.08.41-.29.49-.14.2.39-2.05,4.01-2.27,4.35-2.69,4.23-5.54,8.34-8.29,12.52-3.21,4.87-6.21,9.94-8.4,15.38-2.29,5.69-3.12,11.97-4.65,17.88-1.51,5.84-4.85,22.26-6.46,16.54Z"/>
            <path class="h" d="m141.64,68.03c.64-3.54,3.32-6.18,4.77-9.5,2.8-6.4,4.71-13.2,7.23-19.71,2.53-6.55,5.82-12.85,9.16-19.03,3.18-5.88,7.09-10.78,11.68-15.61.14-.15,3.82-4.19,3.98-4.18.47.05-.12.95-.24,1.41-.42,1.64-1.02,3.31-1.56,4.91-1.68,4.88-5.76,8.97-8.65,13.16-7.19,10.43-10.05,22.69-16.33,33.59-2.32,4.02-4.87,7.95-7.36,11.86-.5.78-2.85,4.11-2.67,3.12Z"/>
            <path class="h" d="m138.6,76.46c-1.58,4.23-1.97-8.73-3.22-13.06-1.55-5.33-3.83-10.22-5.15-15.65-2.75-11.26-3.24-22.36-1.15-33.79.51-2.78,1.51-5.34,2.83-7.83.12-.23.97-1.84,1.14-1.79.35.1.06,5.44.05,5.94-.15,6.7-1.21,13.39-.76,20.1.22,3.34.72,6.74,1.44,10,.52,2.37,1.59,4.63,2.04,7,1.8,9.49,6.22,19.93,2.79,29.08Z"/>
            <path class="h" d="m138.45,76.49c3.38-11.3,12.74-19.91,20.57-28.79,3.97-4.51,8.49-8.63,12.99-12.61,4.57-4.04,9.58-7.31,14.85-10.31,1.91-1.08,3.89-2.14,5.95-2.92.43-.16.86-.28,1.29-.44.12-.05.36-.18.39-.05.07.32-2.07,2.12-2.36,2.43-2.28,2.45-4.57,4.87-6.97,7.21-4.24,4.13-6.91,9.66-11.28,13.64-7.43,6.78-16.15,11.89-23.32,18.99-3.75,3.72-13.74,18.31-12.1,12.84Z"/>
            <path class="h" d="m135.23,91.27c4.86-11.04,13.62-18.87,22.61-26.85,5.04-4.48,10.45-8.38,15.67-12.61,5.05-4.09,11.02-6.92,16.72-9.92,2.06-1.08,4.21-1.89,6.33-2.88.69-.32,1.43-.57,2.11-.93.29-.15.93-.71.9-.38,0,.09-3.38,2.79-3.67,3.06-3.72,3.49-7.57,7.37-11.7,10.35-2.45,1.77-4.93,3.65-7.28,5.55-.93.76-2.09,1.18-3.07,1.88-4.59,3.29-9.4,6.37-13.34,10.46-3.07,3.2-5.59,6.89-8.53,10.2-3.14,3.55-7.7,6.3-11.64,8.83-1.74,1.11-5.95,5.13-5.12,3.24Z"/>
            <path class="h" d="m133.95,91.61c-2.1-3.34-2.78-7.22-4.61-10.76-3.42-6.61-8.13-12.53-11.17-19.34-3.18-7.12-5.7-14.83-6.33-22.66-.45-5.62-1.15-11.68-.87-17.31.04-.83.59-5.28,1.62-5.38.55-.05.74,2.01.81,2.28.76,2.65,1.87,5.14,2.93,7.67,1.3,3.12,2.6,6.35,3.19,9.71.42,2.39.05,4.88.1,7.28.1,4.89,1.05,10.29,2.85,14.84,3.33,8.43,7.97,16.44,10.67,25.12.65,2.09,1.07,4.26,1.24,6.44.03.42-.12,2.58-.41,2.11Z"/>
            <path class="h" d="m130.95,113.97c5.73-21.36,26.36-36.3,45.76-46.05,4.77-2.4,9.45-4.96,14.25-7.31,1.07-.52,2.19-1.05,3.31-1.47.07-.02.15-.13.2-.07.11.14-1.5,1.64-1.51,1.66-1.31,1.53-2.83,2.93-4.28,4.33-7.06,6.87-15.02,11.45-23.44,16.49-6.93,4.15-11.37,10.86-16.41,16.93-2.93,3.54-6.35,6.67-9.81,9.69-2.31,2.01-8.87,8.8-8.07,5.8Z"/>
            <path class="h" d="m129.73,114.17c-.65,3.16-3.65-5.32-5.53-7.94-1.29-1.8-3.02-3.27-4.25-5.13-9.14-13.96-15.89-29.13-17.68-45.85-.58-5.42-1.24-10.75-2.24-16.11-.13-.68-1.15-4.62.09-4.49,1.27.13,2.14,2.98,2.66,3.82,3.15,5.03,5.23,10.35,6.93,16.03,1.14,3.82,1.28,7.68,1.94,11.59.86,5.02,2.35,10.23,4.37,14.9,1.61,3.71,4.07,7.15,6.06,10.68,3.9,6.94,9.22,14.78,7.64,22.51Z"/>
            <path class="h" d="m126.81,139.74c-5.54-4.49-9.72-10.93-13.32-17.13-1.67-2.88-2.88-6.06-4.62-8.9-1.11-1.8-2.49-3.43-3.56-5.25-1.78-3.02-3.16-6.24-4.97-9.22-2.67-4.41-4.96-8.63-6.32-13.67-1.14-4.22-1.41-8.73-2.08-13.03-.68-4.39-1.9-8.77-2.45-13.17-.09-.72-.72-3.14,0-3.73.65-.52,3.5,4.52,3.94,5.29,3.35,5.79,6.64,12.12,7.69,18.79.72,4.58,1.37,10.14,3.57,14.34,4.5,8.57,10.68,16.09,14.4,25.13,2.14,5.2,3.8,10.54,5.91,15.73.35.87,2.62,5.5,1.79,4.83Z"/>
            <path class="h" d="m128.43,138.91c.61-4.5,5.08-7.57,7.42-11.47,1.95-3.25,3.43-6.72,5.17-10.08,2.06-3.96,4.96-7.82,7.69-11.34,5.15-6.63,10.69-12.57,17.52-17.49,7.11-5.12,13.01-11.62,20.62-16.02.44-.25,4.44-2.41,5.01-2.15.13.06-.11.42-.14.46-.5.53-.96,1.1-1.42,1.67-1.27,1.56-2.7,2.9-3.83,4.57-3.04,4.52-6.69,8.71-10.41,12.68-6.09,6.5-14.14,10.94-20.28,17.39-4.46,4.68-7.24,10.63-10.76,15.99-3.16,4.81-6.72,9.09-11.18,12.7-1.12.91-5.61,4.72-5.39,3.07Z"/>
            <path class="h" d="m126.52,155.18c-.23.12.28-.43.38-.67.44-1.04.8-2.11,1.24-3.15.61-1.45,1.29-2.86,1.91-4.3,1.81-4.19,4.67-7.81,7.36-11.47,2.81-3.82,6.38-7.1,9.37-10.8,7.77-9.64,16.7-18.32,26.66-25.71,2.96-2.2,6.05-4.1,9.17-6.02,1.26-.77,2.5-1.54,3.82-2.2.06-.03.44-.23.48-.19.81.82-2.16,3.71-2.58,4.3-1.12,1.57-2.95,2.47-4.11,4.01-1.8,2.41-3.84,4.7-5.73,7.07-5.42,6.77-10.96,13.26-17.11,19.4-5.01,5.01-10.6,9.45-15.29,14.81-3.9,4.45-7.6,9.26-12.33,12.8-1.01.76-2.09,1.52-3.25,2.1Z"/>
            <path class="h" d="m126.71,157.38c.08.33-.93-1.18-1.05-1.34-.88-1.1-1.72-2.22-2.68-3.25-1.22-1.3-2.63-2.4-3.92-3.63-3.27-3.13-6.55-5.89-9.17-9.65-2.6-3.73-4.7-7.84-7.17-11.66-6-9.28-13.29-17.73-18.63-27.43-2.14-3.89-3.33-8.13-4.68-12.33-1.09-3.39-2.28-6.7-2.87-10.23-.12-.75-.66-2.11-.29-2.87.23-.45,1.73.63,1.91.86,1.8,2.32,3.23,5.1,4.68,7.65,3.54,6.19,7.32,12.4,11.37,18.25,6.63,9.58,12.89,19.41,18.83,29.43,2.15,3.62,3.43,7.84,5.64,11.37,1.97,3.15,4.59,5.82,6.4,9.08,1.02,1.83,1.18,3.84,1.63,5.73Z"/>
            <path class="h" d="m126.13,177.02c-4.32-2.21-7.33-6.63-10.8-9.99-2.19-2.12-4.6-4.75-6.5-7.17-3.15-4.03-5.67-8.62-8.6-12.8-2.61-3.72-6.12-7.44-9.17-10.8-5.34-5.88-8.92-13.38-12.52-20.35-2.63-5.1-4.95-10.64-5.83-16.34-.11-.7-.82-4.82-.48-5.16.24-.24,1.35,1.38,1.53,1.62,1.18,1.57,2.51,3.2,3.54,4.87,4.6,7.52,9.54,14.72,13.76,22.46,2.94,5.39,5.71,10.83,9.84,15.48,4.46,5.02,9.87,9.25,13.38,15.1,2.17,3.62,4.63,7.24,6.21,11.18,1.59,3.97,9.46,13.85,5.64,11.9Z"/>
            <path class="h" d="m126.8,176.25c-4.71-.21,3.81-9.05,5.73-13.24,5.91-12.87,16.56-21.2,26.66-30.68,3.11-2.92,6-6.03,8.98-9.08,5.08-5.19,10.17-9.85,16.25-13.86,2.31-1.52,4.67-2.92,7.07-4.3.54-.31,1.08-.64,1.62-.96.28-.17.86-.81.86-.48s-.56.87-.76,1.15c-1.23,1.64-1.94,4.07-2.87,5.92-4.15,8.31-12.11,12.76-19.3,18.06-2.46,1.82-4.86,3.7-7.07,5.83-3.77,3.64-6.49,8.22-9.94,12.14-4.03,4.57-9.09,8.04-13.09,12.61-4.84,5.53-6.73,17.2-14.14,16.87Z"/>
            <path class="h" d="m127.57,188.15c-1.98-1.08,2.72-5.21,3.82-6.98,2.58-4.12,5.48-8,8.31-11.95,3.26-4.54,5.97-9.44,9.27-13.95,5.11-6.99,11.93-12.98,18.83-18.16,5.34-4,11.14-7.49,16.82-10.99,2.19-1.35,4.53-2.43,6.88-3.44.56-.24,1.15-.45,1.72-.67.32-.12,1-.72.96-.38-.26,1.8-2.46,4.2-3.54,5.64-4.77,6.36-12.32,9.62-18.44,14.43-7.64,6-12.46,14.27-18.73,21.5-3.85,4.45-8.1,8.54-12.04,12.9-2.44,2.7-4.86,6.05-7.74,8.31-1.92,1.51-4.02,4.87-6.12,3.73Z"/>
            <path class="h" d="m130.39,197.33c3.73-6.04,8.38-11.13,12.95-16.53,4.37-5.16,8.55-10.44,13.28-15.29,4.96-5.08,10.71-9.48,16.44-13.66,5.34-3.9,10.19-8.87,16.15-11.85.58-.29,4.93-2.24,5.16-2.01.05.05-.14.05-.19.1-.61.52-1.18,1.15-1.63,1.82-1.73,2.59-3.76,4.85-5.64,7.26-8.53,10.96-21.42,17.29-30.96,27.14-3.43,3.54-6.66,7.29-10.03,10.89-3.56,3.8-7.37,7.37-11.56,10.42-.36.26-4.07,1.88-3.97,1.72Z"/>
            <path class="h" d="m127.38,187.72c-.42,1.48-2.66-.68-3.82-1.48-1.19-.82-2.32-1.71-3.54-2.49-1.28-.82-2.78-1.26-4.11-2.01-3.46-1.95-6.73-4.88-9.56-7.65-2.13-2.08-3.89-4.51-5.92-6.69-4.87-5.22-9.99-10.04-14.33-15.77-4.25-5.6-7.95-11.4-12.71-16.63-2.95-3.24-5.76-5.95-7.55-10.04-.11-.26-1.4-2.98-.86-3.25.49-.24,5.94,4.16,6.4,4.49,2.35,1.68,5.19,2.71,7.45,4.49,4.49,3.53,8.79,9.14,12.33,13.57,5.07,6.33,9.55,13.12,14.81,19.3,1.97,2.31,3.97,4.64,6.21,6.69,2.12,1.94,4.59,3.54,6.59,5.54,2,2,3.5,4.49,5.26,6.69,1.25,1.56,3.9,3.26,3.34,5.21Z"/>
            <path class="h" d="m129.1,197.28c-.11.74-1.44-.45-2.1-.81-.96-.53-1.91-1.09-2.87-1.62-2.52-1.41-5.21-2.57-7.93-3.54-5.28-1.87-10.3-3.52-15.1-6.4-3.53-2.12-6.25-5.52-9.08-8.41-5.67-5.79-10.95-11.88-16.53-17.77-3.15-3.33-6.52-6.72-9.94-9.75-.32-.28-2.78-2.69-2.2-3.15.7-.56,4.18,1.8,4.97,2.2,3.85,1.93,8.25,3.05,11.85,5.45,7.46,4.97,12.38,12.6,18.16,19.21,4.83,5.52,11.2,9.98,17.3,14.05,3.68,2.45,7.51,4.1,10.99,6.88,1,.8,2.66,2.42,2.49,3.68Z"/>
            <path class="h" d="m128.39,126c-3.22-1.15-4.76-4.85-7.08-7.34-4.7-5.06-9.55-9.99-14.31-14.99-4.53-4.76-9.91-8.72-14.04-13.85-2.3-2.86-4.2-6.25-6.13-9.37-2.22-3.6-4.56-7.09-6.25-10.98-.24-.56-1.76-5.09-1.48-5.33.49-.42,2.93,2.75,3.25,3.18,2.59,3.49,5.45,7.01,8.8,9.81,2.72,2.27,5.38,4.39,7.66,7.14,6.39,7.69,11.06,16.67,17.51,24.35,3.75,4.48,7.91,8.24,10.55,13.53.56,1.12,2.7,4.26,1.52,3.84Z"/>
            <path class="h" d="m128.63,125.49c2.22-4.66,4.99-9.03,8.6-12.79,4.09-4.27,9.45-7.69,14.28-11.02,3.81-2.63,7.76-5.15,11.29-8.17,2.07-1.77,3.97-3.76,6.08-5.47,6.12-4.96,12.38-9.1,19.45-12.62,1.56-.77,3.37-1.41,5.02-1.91.1-.03,1.37-.59,1.37-.59.25.51-1.11,2.13-1.37,2.54-1.93,3.03-3.63,5.48-6.52,7.74-5.08,3.98-11.15,6.84-16.66,10.16-8.64,5.19-16.99,11.4-24.2,18.41-4.13,4.02-8.13,7.69-12.75,11.14-.69.52-5.03,3.51-4.59,2.58Z"/>
          </g>
          <path class="i" d="m142.99,64.4c-32.85,77.5-6.81,162.66-4.89,243.33,1.25,4.08-.87,10.27,2.02,13.05.7-84.31-28.65-172.18,3.26-254.39-.09-.65-.19-1.39-.39-1.99Z"/>
          <g>
            <path class="d" d="m186.13,174.2c7.2-7.41,12.16-17.53,18.75-25.68,5.55-6.86,11.26-13.95,17.83-19.9,1.95-1.77,4.33-3.24,6.38-4.89,2.04-1.64,4.5-3.2,6.81-4.43.06-.03,1.16-.72,1.36-.4.53.83-1.88,3.16-2.42,3.71-2.11,2.13-4.74,3.86-6.63,6.19-.98,1.21-1.72,2.62-2.66,3.86-3.61,4.79-8.24,8.54-12.16,13.04-5.22,5.98-9.41,12.48-14.93,18.32-3.69,3.9-16,13.95-12.34,10.18Z"/>
            <path class="d" d="m185.68,174.76c8.25-6.81,17.16-12.97,24.8-20.45,4.91-4.81,10.05-9.18,15.74-13.04,5.65-3.83,12.27-6.97,18.7-9.26,1.17-.42,2.39-.69,3.6-1.02.07-.02,2.47-.77,2.47-.77.28.62-2.44,2.7-2.75,2.97-2.34,2.07-5.04,4.15-7.69,5.8-6.97,4.31-14.48,7.83-21.31,12.35-3.76,2.49-6.68,5.9-10.05,8.86-1.94,1.7-4.09,2.98-6.17,4.49-4.44,3.2-8.87,5.67-13.71,8.09-.74.37-4.34,2.57-3.62,1.98Z"/>
            <path class="d" d="m178.84,182.58c-1.99-6.65,3.22-13.51,5.02-20.21,1.04-3.88,1.43-7.92,2.59-11.77,2.46-8.14,6.83-15.39,10.74-22.86,2.02-3.85,3.44-7.97,6.21-11.39,2.06-2.54,4.76-4.46,6.8-6.98.11-.13,1.9-1.64,2.03-1.36.37.81-1.13,4.06-1.4,4.88-1.89,5.62-4.52,10-7.47,15.1-2.43,4.19-4.86,8.45-6.41,13.07-3.58,10.65-5.98,20.68-11.85,30.51-1.73,2.9-5.29,14.2-6.25,11.01Z"/>
            <path class="d" d="m171.74,192.21c-2.34.59.23-4.94.18-7.37-.09-4.29-.23-8.58-.46-12.86-.9-16.18-1.93-32.43,3.62-47.91,1.75-4.88,4.09-9.89,7.2-14.05.08-.1,1.91-2.82,2.01-2.77.4.21-.24,5-.32,5.4-1.09,5.33-2.04,10.8-3.68,15.98-3.22,10.16-2.53,20.26-2.38,30.66.12,7.98-1.57,15.99-3.9,23.54-.92,2.99.75,8.62-2.27,9.37Z"/>
            <path class="d" d="m165.67,198.85c-3.76-12.21-2.19-25.11-4.04-37.59-1.46-9.88-2.66-20.45-1.04-30.43.57-3.51,1.54-7.14,2.72-10.51.39-1.12.89-2.22,1.31-3.33.11-.3.08-1.17.29-.92.61.74.7,5.81.72,6.82.05,2.07.54,4.13.65,6.19.23,4.33.02,8.52-.43,12.82-1.01,9.48,2.06,19.07,2.5,28.49.45,9.63.12,37.56-2.68,28.46Z"/>
            <path class="d" d="m157.1,212.66c-2.7,4.88-.56-11.12-1.25-16.67-.9-7.28-2.39-14.47-3.07-21.78-.67-7.14-1.27-14.66-.39-21.81.73-5.97,2.66-12.16,4.63-17.87.83-2.41,2.15-4.66,2.96-7.08.28-.85.62-1.69,1.01-2.53.12-.26.08-.98.3-.8.79.64-.25,4.57-.32,5.4-.53,5.69-1.73,11.39-2.15,17.09-.45,6.03-1.4,11.97-1.16,18.01.25,6.55,2.29,13.01,2.32,19.56.05,9.44,1.65,20.32-2.87,28.48Z"/>
            <path class="d" d="m151.56,223.66c-1.66-1.11-.03-3.26-.54-5.69-2.1-10.05-5.32-19.78-7.87-29.7-3.19-12.46-3.21-24.26-.97-36.95.49-2.78,1.22-5.4,1.95-8.13.18-.68.47-1.11.71-1.74.03-.09.01-.3.1-.27.22.08.51,4.51.52,4.93.02,1.49-.44,3.05-.42,4.52.07,4.57.76,9.12.81,13.71.04,3.61-.27,7.11.24,10.71.53,3.75,2.05,7.3,3.07,10.92,1.02,3.6,1.84,7.42,2.45,11.11,1.21,7.3.94,14.69.79,22.02-.03,1.63.45,5.44-.86,4.56Z"/>
            <path class="d" d="m146.51,236.34c-2.56.6-.81-5.2-1.27-7.79-.4-2.23-1-4.42-1.59-6.6-1.83-6.72-4.98-13.13-6.95-19.84-3.04-10.37-4.9-21.1-5.04-31.92-.06-5.1.78-10.41,1.82-15.4.06-.3.52-2.61.74-2.63.26-.03.48,3.25.49,3.4.22,3.17.49,6.34.75,9.5.54,6.47,2.63,12.83,3.32,19.33.64,6.06,2.81,11.35,4.12,17.2,1.97,8.82,3.23,17.56,3.58,26.58.1,2.62,2.58,7.58.03,8.17Z"/>
            <path class="d" d="m145.34,239.21c0,.33-.54-1.08-.66-1.4-.3-.82-.58-1.65-.9-2.46-.53-1.36-1.35-2.54-2.18-3.73-2.98-4.24-7.02-7.29-10.49-11.03-8.85-9.53-14.58-25.51-16.17-38.15-.33-2.65-.8-5.84-.52-8.51.03-.27.24.48.33.73.14.36.23.75.37,1.11.2.5.47.96.67,1.46.81,2.11,1.7,4.15,2.58,6.24,1.9,4.54,4.71,8.67,6.64,13.23,1.58,3.74,3.37,7.27,5.6,10.65,2.27,3.45,5.08,6.62,7.09,10.24,1.68,3.04,3.08,6.19,4.44,9.37,1.66,3.89,3.28,8.03,3.21,12.25Z"/>
            <path class="d" d="m143.6,244.5c-1.85-1.78-1.75-5.09-3.18-7.14-1.95-2.78-6.52-5.8-9.15-7.98-6.83-5.67-10.66-8.78-19.94-8.5-3.34.1-6.41.86-9.48,2.15-.68.28-2.6,1.81-3.25,1.88-.18.02.24-.27.34-.42.38-.54.76-1.08,1.1-1.65.79-1.3.88-1.71,1.87-2.88,2.35-2.78,5.45-4.28,9.1-4.54,5.95-.42,15.09,3.3,19.79,7.11,1.37,1.11,2.35,2.67,3.49,3.98,2.65,3.04,4.36,4.07,6.2,7.91.46.95,3.94,10.88,3.11,10.08Z"/>
            <path class="d" d="m143.81,244.03c2.68-4.15,5.49-7.97,9.29-11.2,5.54-4.71,15.98-5.62,22.42-3.01,4.81,1.95,6.77,5.57,9.21,9.76.96,1.65,2.22,2.94,3.29,4.51,1.3,1.9,1.69,4.26,2.46,6.38.46,1.26,2.15,7.68,1.05,8.71-.58.54-4.57-4.58-4.91-5.36-2.17-4.97-6.42-8.27-9.39-12.68-1.42-2.11-1.61-4.58-3.84-6.11-3.27-2.25-8.78-1.99-12.32-.49-1.91.81-3.68,2.15-5.57,2.89-2.14.84-4.6,1.58-6.61,2.74-1.84,1.06-6.22,5.61-5.09,3.86Z"/>
            <path class="d" d="m146.97,234.63c-.07.08.15.31.22.23,1.01-1.23,1.88-2.57,2.79-3.87,1.97-2.83,3.27-6.04,5.2-8.85,3.91-5.72,10.45-9.2,16.81-11.36,7.15-2.43,15.11-3.93,22.66-3.16,4.91.5,9.53,2.85,14.31,3.6,2.24.35,4.61-.53,6.85-.47.65.02,1.87-.47,1.94.18.01.11-.77.79-.8.85-.49.83-1.04,2.35-1.87,2.88-2.59,1.65-6.06,1.55-9.02,1.72-4.97.29-10.28,1.43-15.24.84-4.5-.53-8.21-2.4-12.87-2.09-7.63.51-15.33,5.28-20.73,10.62-1.54,1.52-2.87,3.23-4.49,4.69-1.77,1.6-4.09,2.45-5.75,4.19Z"/>
            <path class="d" d="m151.61,223.53c2.24-3.27,4.31-6.68,6.9-9.67,9.58-11.06,23.84-14.94,37.78-16.13,4.97-.42,18.7-1.31,20.55-1.41.42-.02,1.55-.34,1.28,0-.41.51-3.3,1.96-4.07,2.6-1.57,1.31-2.91,2.71-4.72,3.69-8.15,4.41-18.45,3.49-27.13,5.68-5.08,1.28-9.99,3.03-14.47,5.75-2.72,1.65-5.07,3.88-7.71,5.67-2.2,1.49-4.75,2.08-7.06,3.3-.38.2-1.56.84-1.35.53Z"/>
            <path class="d" d="m156.19,212.44c2.53-1.95,4.16-3.8,6.77-6.08,5.29-4.64,12.21-8.22,18.8-10.68,6.28-2.34,13.53-3.16,20.13-4.17,2.87-.44,5.85-.47,8.75-.67,3.31-.23,6.65-.28,9.96-.03.93.07,1.93.31,2.83.21.38-.04.76-.08,1.14-.12.13-.01.5-.05.38-.04-2.14.24-3.8,1.91-5.71,2.78-3.49,1.59-6.69,3.44-10.37,4.67-8.32,2.8-17.58,3.14-26.2,4.81-3.64.71-7.17,1.56-10.71,2.67-3.74,1.17-7.26,2.88-10.76,4.59-.88.43-5.29,2.27-5.02,2.06Z"/>
            <path class="d" d="m165.99,200.03c2.75-1.53,4.82-4,7.59-5.53,6.35-3.52,12.26-5.65,19.42-7.29,5.97-1.37,12.28-2.17,18.37-2.71,4.18-.37,7.87-1.07,11.92-2.03,1.71-.4,3.42-.65,5.14-.93.42-.07,1.54-.34,1.28,0-1.28,1.59-4,2.51-5.62,3.66-2.18,1.55-4.11,3.09-6.44,4.39-2.65,1.48-6.29,1.73-9.18,2.63-9.19,2.87-18.81,3.91-28.36,4.91-3.07.32-6.33.23-9.36.86-.84.17-5.01,2.17-4.77,2.04Z"/>
            <path class="d" d="m170.79,192.24c2.81-2.93,6.49-4.9,9.85-7.17,5.16-3.5,10.87-6.07,16.62-8.4,7.76-3.15,15.44-2.46,23.4-1.07,2.67.47,5.32,1.01,7.96,1.59.82.18,1.83.08,2.59.37.3.11,1.23.17.92.29-1.12.41-2.61.23-3.78.53-5.75,1.45-12.15,3.48-18.16,3.45-2.48-.01-4.93-.97-7.4-1.13-3.64-.24-6.88,1.4-10.04,2.98-5.32,2.66-10.18,5.98-15.74,8.18-.66.26-7.96,2.22-6.22.4Z"/>
            <path class="d" d="m179.63,182.17c-4.64,3.59,7.64-8.39,12.51-11.61,6.42-4.24,14.09-5.72,21.44-7.5,7.11-1.72,14.02-4.33,21.07-6.19,5.05-1.33,9.63-3.24,15-3.12,1.37.03,3.77.61,3.79.75.03.3-1.77.68-1.84.71-1.63.65-3.21,1.35-4.75,2.16-3.64,1.92-6.2,5.34-9.99,7.06-9.87,4.49-20.59,3.6-31.07,5.84-9.52,2.03-18.33,5.85-26.15,11.9Z"/>
          </g>
          <g>
            <path class="c" d="m61.14,152.4c.49.86-2.22-1.56-3.04-2.09-2.14-1.37-4.36-2.7-6.68-3.75-2.54-1.15-5.28-1.42-7.83-2.47-7.72-3.19-14.53-8.32-20.25-14.24-2.5-2.59-4.9-5.07-6.83-8.11-.2-.32-1.8-2.6-1.5-2.99.23-.29,2.82,1.61,3,1.73,3.05,2.09,6.07,4.26,9.07,6.42,2.05,1.47,4.25,2.94,6.13,4.6,1.94,1.71,3.58,3.8,5.77,5.22,4.16,2.7,8.93,4.36,13.09,7.03,3.69,2.37,6.99,5,9.04,8.65Z"/>
            <path class="c" d="m61.16,151.96c.08.7-.93-1.12-1.17-1.44-.8-1.07-1.65-2.15-2.52-3.15-2.63-3.05-5.04-6.29-7.62-9.39-6.72-8.05-12.6-17.11-15.99-27.08-.7-2.07-2.34-5.61-1.71-7.92.14-.52.9.63,1.2,1.08.2.3.35.63.54.94.88,1.44,2.01,2.69,2.92,4.11,2.54,4,4.97,7.84,7.21,12.02,2.29,4.27,5.94,7.22,8.68,11.13,3.5,4.98,5.27,10.3,7.08,15.91.39,1.2,1.23,2.52,1.37,3.79Z"/>
            <path class="c" d="m67.6,157.64c1.68,2.16-5.48-.94-8.26-.95-4.63,0-9.08,1.39-13.67,1.65-7.02.41-14.7-2.32-21.23-4.72-2.06-.76-4.17-1.92-5.97-3.19-.63-.44-1.25-.92-1.82-1.44-.29-.27-1.01-.93-.62-1,1.54-.28,3.46.64,4.98.86,3.39.5,6.7.74,10.03,1.64,1.75.48,3.22,1.57,4.97,2.01,4.22,1.07,9.32-.52,13.67-.36,5.96.22,14.26.81,17.91,5.5Z"/>
            <path class="c" d="m74.13,163.21c.11.08-.96-.07-.98-.07-1.93.01-3.87.08-5.8.17-2.33.11-4.64.62-6.89,1.23-3.28.89-6.35,2.38-9.67,3.27-7.33,1.98-16.12,2.61-23.53.79-.91-.22-1.81-.51-2.68-.84-.78-.29-1.53-.66-2.27-1.03-.97-.49-2.42-.67-2.78-1.69,0-.01,1.78-.15,1.92-.15,1.15-.03,2.25-.29,3.4-.39,5.21-.49,10.33-.2,15.53-.43,6.6-.3,12.8-3.35,19.33-3.6,3.45-.13,6.63.61,9.88,1.66,1.42.46,3.36.22,4.54,1.09Z"/>
            <path class="c" d="m82.82,170.67c-3.49,2.73-8.76.29-13.08,1.48-3.68,1.02-7.13,2.79-10.85,3.62-6.16,1.38-12.88,1.62-19.16,1.29-3.94-.21-7.96-1.54-11.5-3.19-.37-.17-.71-.4-1.07-.59-.15-.08-.54-.08-.46-.23.25-.48,3.15-.29,3.48-.33,4.11-.58,8.27-1.01,12.42-1.22,4.46-.23,8.78-.73,13.2-1.38,2.75-.41,5.35-1.66,8.07-2.23,3.9-.81,7.71-.27,11.55.53,2.64.55,9.6.55,7.41,2.27Z"/>
            <path class="c" d="m67.59,158.15c-1.43-4.08-4.62-9.9-6.37-13.73-2.78-6.12-3.15-13.52-4.33-20.03-1.21-6.68-3.92-12.91-2.5-19.74.04-.19,0,.39.07.57.67,1.57.04.11.89,1.48.86,1.38,1.77,2.8,2.57,4.23,2.08,3.69,3.19,7.27,3.91,11.47.84,4.9,1.12,9.83,2.42,14.66,1,3.74,3.03,7.23,3.58,11.07.42,2.93.76,12.88-.24,10.04Z"/>
            <path class="c" d="m73.57,162.7c-3.22-7.55-6.64-15.13-6.86-23.58-.15-5.76.34-11.04-.22-16.78-.28-2.81-.68-5.58-.54-8.41.17-3.41.94-6.84,1.04-10.24,0-.11-.11.19-.11.3,0,.32.28,1.82.29,1.9.31,1.52.76,3.04,1.17,4.53,1.13,4.12,2.52,7.66,2.61,11.98.11,5.66-.07,11.6,1.06,17.18.86,4.25,2.27,8.39,2.49,12.78.09,1.75-.32,3.35-.42,5.07-.09,1.44.07,6.6-.5,5.26Z"/>
            <path class="c" d="m82.2,169.99c-1.21-2.28-2.03-4.76-2.84-7.21-1.94-5.82-2.51-12.88-1.25-18.88,1.16-5.53.06-11.64.16-17.25.08-4.67-.37-9.34-.76-13.99-.11-1.29-.19-2.56-.16-3.86.01-.55-.02-1.11.02-1.65.01-.15-.03-.53.09-.44,1.29,1.02,2.41,6.34,3.24,8.1,1.6,3.43,3.59,7.01,4.19,10.79,1.67,10.42-2.16,20.84-3.15,31.1-.35,3.66,1.65,6.88,1.36,10.47-.03.38-.72,3.16-.89,2.83Z"/>
            <path class="c" d="m89.08,178.21c-.21.08-.04.28-.21-.3-.34-1.11-.77-2.19-.96-3.33-.81-4.76-1.48-9.65-1.03-14.46.94-10.04,4.21-19.22,7.82-28.55.95-2.45,2.08-4.8,3.04-7.24.17-.44.13-.98.42-1.34.14-.18-.12.44-.14.66-.02.29-.04.58-.04.87,0,.48.02.96.02,1.43.01,1.31-.01,2.53-.2,3.83-.65,4.4-.92,9.03-2.49,13.21-1.67,4.44-3.62,8.73-3.81,13.58-.19,4.84.81,9.53.08,14.35-.13.86-1.95,7.09-2.5,7.29Z"/>
            <path class="c" d="m97.15,188.65c-4.65-9.86-.74-20.57,1.68-30.78.89-3.77,1.35-7.6,2.42-11.34,1.18-4.13,2.35-6.93,3.98-10.87.68-1.65.77-1.98,1.54-3.41.05-.09.11-.3.19-.24.32.26-.33,3.67-.34,3.84-.24,3.41,0,6.87-.17,10.29-.27,5.42-2.06,10.58-3.27,15.82-1.44,6.22-2.12,12.56-3.43,18.78-.58,2.77-1.4,10.46-2.6,7.91Z"/>
            <path class="c" d="m103.04,194.86c-6.22-11.64,6.63-31.34,14.22-40.92,2.17-2.73,4.66-4.86,7.29-7.09.25-.21,1.89-1.72,2.28-1.41.05.04-.08.11-.13.16-.47.4-1.01.96-1.33,1.52-.55.94-.79,1.99-1.31,2.95-1.55,2.9-2.26,6.24-4.05,9.01-1.28,1.98-3.01,3.76-4.53,5.55-5.07,5.98-5.46,12.89-7,20.2-.81,3.84-3.7,13.31-5.44,10.04Z"/>
            <path class="c" d="m88.95,178.29c-7.52,3.88-15.97,4.82-24.5,5.75-5.02.54-10.03,1.09-15.07,1.31-4.12.19-7.75,1.48-11.6,2.78-.1.04-3.41,1.26-3.54,1.06-.36-.55,2.52-2.41,2.59-2.46,3.54-2.45,7.29-4.68,11.25-6.4,3.15-1.37,6.26-2.34,9.64-2.91,2.17-.37,4.36-.36,6.54-.61,6-.69,11.9-1.63,17.94-.71,2.03.31,8.7,1.19,6.75,2.2Z"/>
            <path class="c" d="m97.96,189.34c-.66,1.05-4.03.1-4.72.17-1.93.19-3.86.49-5.78.78-5.36.8-10.91,2.44-16,4.22-6.16,2.15-12,3.54-18.56,4-4.93.34-10.01-.05-14.89-.89-1.33-.23-2.93-.51-4.11-1.22-.16-.1-.5-.36-.33-.45,1.33-.74,3.21-.25,4.67-.44,5.09-.69,10.41-.81,15.44-1.78,4.91-.94,9.22-3.41,14-4.67,4.79-1.26,9.94-2.17,14.89-2.44,4.11-.23,8.28-.88,12.22.56.87.32,3.71,1.29,3.17,2.17Z"/>
            <path class="c" d="m103.69,195.28c-2.67,1.39-5.97.6-8.78,1.78-2.54,1.06-5.06,2.16-7.56,3.33-2.94,1.38-4.6,3.14-8,4.56-5.77,2.4-12.76,3.08-18.89,3.78-4.13.47-8.64.6-12.78.11-.59-.07-3.41-.49-3.55-.78-.13-.26,2.61-.62,2.89-.67,1.52-.28,3.05-.64,4.56-1,3.29-.8,6.43-2.24,9.67-3.22,2.43-.73,4.91-1.28,7.45-1.44,1.83-.12,3.53.16,5.33-.33,5.82-1.61,11.26-4.33,17.11-5.89,3.16-.84,6.73-1.16,10-.89.62.05,3.13.37,2.56.67Z"/>
            <path class="c" d="m106.24,200.28c.14-.03-.31-.05-.45,0-2.76,1.1-5.55,2.15-8.22,3.45-9.74,4.73-14.83,10.82-19.67,20-1.65,3.13-2.78,6.98-2.45,10.56.07.71.14,1.41.22,2.11.04.31.78,2.89.22,2.89-1.35,0-3.69-4.73-4.11-5.67-2.72-6.06.64-12.7,3.56-18,1.87-3.41,4.83-4.37,7.89-6.33,4.2-2.7,8.08-6.37,13-7.78,3.31-.95,6.71-.53,10-1.22Z"/>
            <path class="c" d="m105.96,200.45c.27.29,2.04-2.74,2.5-2.94,10.11-4.5,20.48,1.24,30.89.22,4.23-.41,8.11-1.47,12.22-2.33.27-.06,2.34-.41,2.33-.45-.12-.39-2.03-.35-2.44-.44-2.27-.54-4.57-.76-6.89-1-3.73-.38-7.66-.13-11.33-.89-6.37-1.31-11.74-3.25-18.22-1.22-1.96.61-11.86,6.09-9.06,9.06Z"/>
            <path class="c" d="m108.82,206.49c.47-.31-1.13-.46-1.66-.26-2.44.92-4.92,1.92-7,3.5-2.06,1.57-3.71,3.66-5.2,5.78-5.74,8.16-7.68,18.2-7.33,27.97.16,4.27.78,8.24,2.27,12.26.09.25.56,1.53.97,1.44.09-.02-.17-1.8-.17-1.88-.08-1.02-.08-2.04-.05-3.05.09-3.19.92-6.12,1.75-9.21,1.15-4.28,3.65-8.08,4.72-12.44.83-3.4,1.18-6.84,1.89-10.26.84-4.07,6.08-11.37,9.82-13.85Z"/>
            <path class="c" d="m108.67,206.65c1.44-4.63,6.96-5.62,11.35-6.28,4.58-.69,9.67.87,14.2,1.25,3.3.27,6.53-.26,9.72-1.05,4.08-1.02,7.96-2.79,12.13-3.39,1.74-.25,3.9-.82,5.66-.39.09.02.23.14.18.21-.12.19-1.12.22-1.34.3-1.07.43-1.98,1.23-2.88,1.93-1.53,1.2-2.65,3.24-4.44,4.07-2.71,1.26-5.91,1.3-8.83,1.62-5.83.63-12.09,1.75-17.96.75-4.76-.81-8.62-1.36-13.47-.27-1.25.28-4.7,2.47-4.32,1.23Z"/>
            <path class="c" d="m111.84,212.45c.41-.76-1.51.85-2.18,1.39-1.36,1.1-2.65,2.27-3.94,3.45-4.61,4.18-6.69,11.07-8.32,16.83-.94,3.34-1.26,7-3.66,9.77-4.09,4.73-6.97,8.35-7.76,14.79-.17,1.35-.33,2.79-.33,4.16,0,.34-.36,1.1-.02,1.03.58-.13,2.1-2.95,2.31-3.33,1.8-3.29,3.67-6.08,5.85-9.12,2.87-3.98,7-7.95,8.77-12.59,1.74-4.56,1.86-9.42,3.33-14.04,1.41-4.41,3.77-8.31,5.95-12.33Z"/>
            <path class="c" d="m112.75,212.56c.07.19-.45.69-.33.52.36-.51.76-.99,1.21-1.42.93-.9,2.4-1.03,3.66-1.34,2.52-.62,3.32-.57,5.82-.81,3.45-.32,6.88-.75,10.28-1.43,4.65-.94,9.42-2.44,14.22-2.07,3.53.27,6.77.49,10.02,1.94,1.39.62,1.23.56,2.33,1.26.15.09.54.13.45.28-.2.31-.72-.2-1.08-.27-.63-.12-1.29-.09-1.93-.07-1.71.04-3.65.38-5.31.82-3.25.86-6.22,2.55-9.41,3.54-5.33,1.65-10.59,2.16-16.03.83-3.69-.91-7.13-2.14-10.91-2.51-.56-.05-3.29-.15-2.96.74Z"/>
          </g>
          <path class="i" d="m59.96,150.27c-.22,3.62,4.06,5.66,6.19,8.21,20.76,14.98,36.91,35.63,48.54,58.38,13.14,32.62,16.41,68.44,23.18,102.36.8.41,1.37-1.02,1.13-1.67-7.83-54.58-15.43-117.4-62.98-152.93-5.3-4.79-10.84-9.77-16.05-14.36Z"/>
          <g>
            <path class="f" d="m39.57,230.29c-11.66,6.83-16.8,20.04-20.43,32.8-1.12,3.95-1.78,7.86-2.14,11.93-.16,1.82-.29,3.77.19,5.56.1.37.26,1.33.52,1.04.76-.85.64-3.3.89-4.37.65-2.78,1.94-5.4,3.25-7.93.97-1.86,2.17-3.64,2.83-5.64.87-2.65,1.39-5.45,2.3-8.09,1.77-5.13,6.01-9.43,8.56-14.2,1.88-3.5,7.4-13.1,4.02-11.12Z"/>
            <path class="f" d="m40.05,230.72c.27-.45-.48.93-.69,1.42-.15.36-.27.73-.4,1.09-1.04,3.05-2.28,6.05-3,9.2-1.37,6-.7,11.36-.89,17.28-.15,4.66-1.2,9.18-1.45,13.82-.06,1.07.6,8.37,1.84,8.71.16.04.18-.28.22-.44.35-1.27.6-2.57.95-3.85.77-2.83,1.72-5.53,2-8.47.53-5.46.39-10.93.85-16.39.36-4.33,1.47-8.53,1.6-12.88.07-2.3,0-4.57-.45-6.83-.12-.6-.97-2.01-.58-2.66Z"/>
            <path class="f" d="m40.42,230.27c-5.1,4.72-13.74,3.65-20.62,3.86-2.92.09-5.98,0-8.91-.02-2.36-.02-4.99.54-7.13,1.57-.76.36-2.62,1.59-3.47,1.36-.09-.03-.25.01-.28-.08-.1-.3,1.38-1.52,1.58-1.77,1.79-2.2,3.86-3.71,6.29-5.1,5.12-2.93,11.92-.98,17.46-.86,2.5.05,5-.57,7.49-.67,1.78-.07,9.29.14,7.59,1.71Z"/>
            <path class="f" d="m42.47,224.97c.1.08.08.38-.05.39-1.24.03-2.48-.19-3.72-.31-1.72-.16-3.45-.29-5.17-.5-2.83-.35-6.5-.51-9.13-1.78-5.23-2.52-8.23-6.71-10.94-11.69-.71-1.31-1.39-2.63-1.91-4.02-.05-.13-.68-1.61-.53-1.75.08-.07.21-.07.3-.02,1.12.61,2.37,1.3,3.48,1.95,1.14.66,2.4,1.37,3.4,2.23,1.8,1.54,2.77,3.82,4.68,5.28,5.94,4.55,13.98,5.36,19.6,10.23Z"/>
            <path class="f" d="m47.54,221.17c.19,1.01-4.02-.74-4.97-.96-1.08-.25-2.17-.48-3.25-.76-.72-.19-1.43-.41-2.13-.65-9.45-3.19-17.36-8.77-24.33-15.81-1.24-1.25-3.42-3.78-4-5.63-.1-.33.66.23.97.39.49.26,1.02.45,1.53.68.95.44,2.09.73,2.96,1.32,2.93,2,5.44,4.59,8.22,6.78,1.88,1.47,4.17,3.1,6.36,4.04,2.16.93,4.58,1.15,6.82,1.81,4.13,1.21,10.99,4.4,11.82,8.79Z"/>
            <path class="f" d="m52.93,217.52c-3.25.78-6.77-3.41-9.37-5.03-7.88-4.88-14.67-12.2-19.35-20.15-1.85-3.14-3.11-6.25-4.34-9.69-.32-.9-.55-1.84-.79-2.77-.14-.55-.8-1.95-.29-1.68,1.03.54,1.77,3.21,2.53,4.15,2.61,3.21,5.32,6.31,7.98,9.48,2.03,2.43,4.15,5.17,6.63,7.12,2.99,2.35,6.45,3.98,9.3,6.52,2.26,2.02,3.19,5.05,4.75,7.55.9,1.44,4.62,4.08,2.95,4.49Z"/>
            <path class="f" d="m59.96,217.14c-6.49-3.36-10.56-9.97-14.17-16.32-2.47-4.34-4.45-8.98-6.13-13.69-1.36-3.81-2-7.71-2.34-11.71-.05-.59-.49-1.43-.01-1.77.46-.33.29,1.09.44,1.64.35,1.28.87,2.51,1.33,3.76,1.31,3.58,2.64,6.89,4.71,10.12,3.21,5.01,7.46,9.21,10.69,14.2,1.72,2.65,2.66,5.41,3.76,8.33.65,1.73,3.34,6.28,1.74,5.44Z"/>
            <path class="f" d="m66.19,218.17c-.91.24-1.15-1.52-1.52-2.38-.69-1.61-1.29-3.25-1.91-4.89-1.17-3.05-2.17-6.2-2.71-9.43-1.32-7.78-1.06-14.75.38-22.52.8-4.32,2.85-8.15,3.87-12.33.07-.28-.19.55-.2.84-.02.43.02.87.02,1.31,0,1.04.05,2.09.13,3.13.29,3.75.47,7.5.58,11.25.1,3.51.31,7.35,1.05,10.8.54,2.52,1.51,5.13,1.86,7.69.43,3.13-.54,6.33-.6,9.46-.02.89.39,6.75-.95,7.09Z"/>
            <path class="f" d="m72.35,220.22c-.9.49-.41-2.73-.47-3.6-.16-2.49-.49-4.98-.56-7.47-.35-12.2.96-25.12,6.11-36.36,1.12-2.46,2.5-4.75,4.1-6.92.25-.34.39-1.21.77-1.01.19.1-.26.33-.38.51-.29.4-.54,1.7-.55,1.72-.28.94-.46,1.91-.57,2.88-.28,2.68-.17,5.37-.34,8.06-.53,8.44-1.53,16.8-3.14,25.08-.6,3.08-.98,5.97-2.08,8.92-.32.86-2.51,7.99-2.88,8.2Z"/>
            <path class="f" d="m81.52,226.09c-4.95-10,2.22-22.62,8.64-31.32,2.2-2.98,5.44-5.4,8.22-7.82,1.18-1.03,2.34-2.11,3.37-3.29.31-.35.6-.71.91-1.06.07-.08.33-.29.24-.23-1.49,1.07-1.64,2.82-2.09,4.44-.92,3.36-1.57,6.37-2.89,9.55-1.18,2.87-3.92,4.38-6,6.51-1.84,1.88-3.38,3.97-4.41,6.4-1.23,2.89-.77,6.04-1.52,8.97-.72,2.8-3.2,10.4-4.46,7.84Z"/>
            <path class="f" d="m87.17,232.28c-.86-2.95.28-6.16.64-9.2.44-3.7,2.25-7.11,3.65-10.57,1.9-4.68,3.48-7.5,6.38-11.73,2.27-3.3,4.98-5.61,7.62-8.48.69-.75,1.5-1.6,2.33-2.2.33-.24.55-.42.9-.59.14-.07.53-.32.38-.27-.85.26-1.53,2.1-1.83,2.81-1.15,2.78-1.51,6.11-2.36,9-2.32,7.9-7.92,14.15-12.02,21.13-1.24,2.11-1.79,4.54-2.93,6.71-.71,1.36-2.3,4.98-2.77,3.38Z"/>
            <path class="f" d="m119.58,274.89c-8.49-1.99-16.32-1.56-24.6-2.71-3.64-.5-6.16-2.02-9.06-4.28-.04-.03-2.59-2.02-2.57-2.05.21-.38,2.72-.2,3.04-.17,2.29.22,4.63.65,6.94.69,6.28.12,12.97.41,18.93,2.74,3.09,1.21,10.37,6.5,7.33,5.79Z"/>
            <path class="f" d="m109.95,256.88s.05.07.02.07c-1.88-.03-3.76-.38-5.64-.25-3.58.25-6.5,1.25-9.75,2.43-2.5.9-5.04,1.7-7.51,2.66-1.86.72-3.55,2.11-5.37,2.84-4.1,1.63-7.93,2.01-12.3,1.45-1.29-.17-4.67-.48-5.71-1.7-.43-.5,4.86-1.02,5.34-1.2,2.69-1,4.79-3.16,7.4-4.24,2.36-.98,4.89-1.1,7.27-1.96,4.43-1.61,8.51-3.88,13.4-3.33,4.41.49,8.63,2.13,12.84,3.25Z"/>
            <path class="f" d="m153.62,247.8l-.67,1.06.67-1.06Z"/>
            <path class="f" d="m119.81,273.35s-.07.05-.07.02c-.17-1.4-.33-2.8-.39-4.21-.12-2.83.11-5.66.21-8.49.24-6.93,1.17-13.9,3.84-20.36,1.22-2.96,3-5.55,4.59-8.31,1.35-2.34,2.15-5,3.41-7.4.08-.15-.16.31-.24.46-.29.55-.32,1.05-.41,1.67-.18,1.3-.22,2.69-.22,4.01,0,3.7-.9,7.46-1.89,11.02-.69,2.47-1.48,5.04-2.57,7.37-.83,1.77-1.92,3.41-2.43,5.32-.8,2.97-.08,5.96-.45,8.95-.42,3.36-2.2,6.81-3.38,9.94Z"/>
            <path class="f" d="m110.58,255.91c.02.25.2.97.15.73-.33-1.59-.85-3.13-1.31-4.69-.29-.97-.59-1.93-.83-2.91-1-4.08-1.47-7.83-1.68-12.07-.56-11.17,2.73-22.03,7.84-31.8.11-.22-.18.46-.25.69-.17.62-.16.81-.26,1.63-.15,1.24-.3,2.25-.3,3.49,0,3.8.12,7.52-.5,11.28-.69,4.26-1.82,8.33-2.06,12.7-.2,3.53,1.29,6.91,1.01,10.42-.27,3.52-2.13,7.03-1.81,10.53Z"/>
            <path class="f" d="m103.76,247.69c-.13.53-.46-.99-.62-1.5-.39-1.24-.85-2.46-1.24-3.71-1.09-3.49-2.11-6.88-3.44-10.28-2.52-6.45-5.84-12.63-7.51-19.36-.81-3.24-.76-6.59-.7-9.9.07-3.81.85-7.37,1.89-11.02.21-.75.74-2.32,1.04-3.11.04-.1.11-.38.15-.28.15.46-.02,1.54.1,2.05.97,4.06,2.78,7.57,3.23,11.82.5,4.71.09,9.58,1.27,14.2.58,2.28,1.84,4.12,2.73,6.26,2.66,6.41,3.17,13.46,3.25,20.31.02,1.38.2,3.16-.13,4.52Z"/>
            <path class="f" d="m42.72,224.9c-.67,2.43-.06,5.21.21,7.73.79,7.59.25,15.26,1.12,22.83.29,2.56.29,5.06.94,7.57.66,2.58,2.21,4.68,3.05,7.18.23.69.05,1.93.77,2.06.07.01-.17-.78-.14-1.63.03-.72.08-1.44.15-2.16.18-2.08.36-4.16.57-6.23.34-3.35.79-6.81.75-10.18-.03-2.13-.85-4.59-1.45-6.65-.91-3.12-1.89-6.26-2.6-9.43-.33-1.49-.53-3.13-.64-4.65-.06-.92.2-1.8-.07-2.71-.31-1.07-2.27-5.12-2.65-3.73Z"/>
            <path class="f" d="m47.41,221.35c-.37-.64-.12,1.47-.13,2.21-.01.68-.04,1.35-.07,2.03-.14,2.88-.76,5.64-1.36,8.47-1.75,8.33-4.61,15.96-3.81,24.61.22,2.35.65,4.75,1.13,7.07.17.82.42,1.63.55,2.46.05.28.39.99.14.85-.67-.37-.29-2.96-.21-3.56.5-3.59,1.89-6.37,3.43-9.58,4.01-8.35,3.5-17.74,2.03-26.7-.41-2.47-.43-5.7-1.69-7.85Z"/>
            <path class="f" d="m53.41,217.78c0-.11.07-.42.05-.32-.4,1.52-.99,2.96-1.42,4.48-.25.87-.94,3.11-.96,4.12-.04,1.4.63,2.73.76,4.12.44,4.54-1.55,8.87-2.78,13.12-1.05,3.62-1.95,7.25-2.23,11.01-.19,2.49-.24,4.46.19,6.9.13.73.15,1.47.26,2.21.04.3.15,1.18.21.89.56-3.1,1.27-6.12,2.4-9.11,1.62-4.31,3.86-8.2,4.66-12.78.93-5.3.64-11.11.13-16.46-.26-2.74-1.38-5.48-1.26-8.18Z"/>
            <path class="f" d="m59.89,217.58c.69-.48-1.06,4.07-1.2,4.47-.83,2.4-1.84,4.93-2.33,7.42-.67,3.38-.25,6.74-1.15,10.13-1.49,5.65-4.04,10.7-4.03,16.66,0,2.05.08,3.79.36,5.79.16,1.11.12,1.04.26,2.21.01.13-.07.41.05.37.29-.09,0-.61.07-.91.13-.63.59-1.56.79-2.07.92-2.45,2.2-4.73,3-7.23,2.31-7.14,2.83-14.37,3.81-21.77.32-2.41,1.08-4.7,1.31-7.12.19-1.96,0-4.01-.56-5.9-.12-.39-.77-1.79-.38-2.06Z"/>
            <path class="f" d="m66.27,217.8c-1.53,2.8-1.9,5.94-3.11,8.84-3.24,7.78-7.96,14.53-9.46,22.98-.62,3.51-.59,7.89,0,11.36.21,1.25.34,2.53.61,3.77.13.61.37,1.84.37,1.84,0,0-.04-1.2.03-1.79.17-1.3.47-2.68.85-3.92,1.19-3.94,3.17-7.51,4.58-11.36,1.95-5.36,1.75-10.98,2.67-16.54.6-3.64,2.72-6.84,3.46-10.42.2-.96.3-5.28.02-4.77Z"/>
            <path class="f" d="m72,220.15c.47-1.48-1.73,2.58-2.53,3.91-3.35,5.61-2.43,10.19-3.98,16.25-.98,3.82-2.49,7.5-3.66,11.26-1.15,3.7-1.69,6.87-2.28,10.63-.28,1.82-.56,2.22-.69,3.93-.03.4-.17,1.57.02,1.22.48-.87.58-1.95.88-2.88.62-1.92,1.83-3.88,2.81-5.61,3.23-5.68,7.41-9.91,8.29-16.74.92-7.13-1.16-14.8,1.13-21.98Z"/>
            <path class="f" d="m82,225.96c.04-.29-.44.37-.68.53-1.11.74-2.32,1.32-3.39,2.11-2.83,2.07-5.02,4.21-7.39,6.9-2.91,3.31-4.73,7.63-6.77,11.45-2.19,4.09-4.99,7.92-6.9,12.15-1.13,2.5-2.1,5.15-3.02,7.73-.34.95-.63,1.83-.85,2.81-.06.29-.1.58-.13.87-.01.11-.09.42-.01.34.76-.91,1.06-2.21,1.74-3.18,2.54-3.62,5.57-7.28,8.47-10.61,6.91-7.93,14.1-15.81,17.12-26.11.47-1.61,1.6-3.36,1.82-4.99Z"/>
            <path class="f" d="m87.79,232.14c-4.71.12-6.27,6.04-9.71,9.11-1.69,1.51-4.75,4.79-6.23,6.84-1.89,2.61-3.6,5.4-4.84,8.37-.96,2.31-1.91,4.66-2.42,7.11-.19.89-1.12,3.61-.81,4.64.03.1.1-.18.14-.27.16-.29.32-.57.47-.86.28-.54.53-1.09.8-1.63.4-.79.73-1.22,1.22-2.08,1.34-2.35,2.55-4.67,4.17-6.84,3.49-4.66,7.3-9.17,10.95-13.73,2.58-3.22,10.44-10.76,6.26-10.66Z"/>
            <path class="f" d="m93.88,239.26c-2.68.28-5.23,1.12-7.65,2.49-2.93,1.67-6.17,5.65-8.41,7.98-2.77,2.88-5.76,5.59-8.46,8.55-1.76,1.93-3.43,4.02-4.59,6.36-.41.82-.7,1.68-1.04,2.53-.11.29-.18.59-.3.87-.03.07-.16.25-.11.2.59-.55.92-1.42,1.46-2.04,1.49-1.69,2.97-3.49,4.74-4.9,3.28-2.61,7.3-4.4,10.89-6.53,3.18-1.89,6.12-4.66,8.42-7.54,1.5-1.87,2.91-3.94,4.21-5.96.21-.33,1.27-2.04.83-2Z"/>
            <path class="f" d="m103.48,246.83c-4.21-.18-9.09.45-13.07,1.94-5.08,1.9-9.08,5.18-12.68,9.17-2.56,2.84-4.74,6.15-6.63,9.46-.42.74-.82,1.5-1.23,2.25-.11.2-.61.62-.39.56.74-.22,1.54-1.2,2.19-1.64,2.16-1.47,4.1-3.24,6.26-4.67,3.37-2.23,6.84-4.65,9.87-7.35,1.46-1.3,2.45-2.69,4.06-3.81,2.43-1.69,5.21-2.27,7.8-3.57,1.29-.65,5.25-2.28,3.82-2.34Z"/>
          </g>
          <path class="i" d="m140.52,318.2c2-4.95-.52-11.2-.17-16.6-.44-4.86-1.09-9.71-1.21-14.6-5.11-39.75,19.64-74.21,41.41-104.9,3.5-4.93,10.03-7.45,13.08-12.17-3.46-.37-7.02,4.34-10.13,6.43-28.48,33.63-54.58,76.6-45.26,122.58,1.27,6.24-.34,13.7,2.29,19.26Z"/>
          <path class="i" d="m140.03,318.42c.3-.28.96-.36.93-.84,1.06-28.58,6.45-58.17,20.72-83.19-.25-.73-1.57-1.35-1.89-.47-14.48,25.2-19.54,54.95-20.69,83.68.02.42.62.58.93.82Z"/>
          <path class="i" d="m36.75,236.36c4.86-5.48,8.23-14.25,16.14-16.77,7.63-1.93,15.52.88,22.62,3.58,14.81,12.07,30.07,25.18,40.27,41.64,8.74,17.96,12.61,38.3,19.46,56.62.69.45.97-.54,1.14-1-5.54-18.88-10.48-38.14-18.65-56.1-10.65-17.03-26.26-31.14-42.09-43.14-7.67-2.77-16.32-5.81-24.41-2.98-6.89,3.48-13.24,10.91-14.49,18.16Z"/>
        </g>
        <g class="k">
          <path class="e" d="m96.48,292.13c-.93,2.64-.4,6.98-.41,9.6-.02,4.02-.32,8.03-.53,12.04-.5,9.61-.98,19.02-.43,28.64.58,10.09,1.18,20.24,1.57,30.34.21,5.57.5,13.18,3.02,18.37,3.44,7.07,9.66,8.36,17.04,9.17,11.36,1.24,22.71.31,34.1.64,6.16.18,14.28.88,19.4-3.31,6.56-5.37,6.09-15.51,6.15-23.22.06-7.99.59-16.01.65-24,.08-10.05-1.15-20.09-.86-30.14.19-6.52-.84-13.38-.14-19.85.23-2.08-.04-5.68-1.57-7.3-2.55-2.7-15.16-1.45-18.59-1.61-14.2-.67-28.39-.51-42.59-.93-4.51-.13-9.3.41-13.77.89-.61.06-2.99.5-3.05.67Z"/>
          <g class="n">
            <path class="l" d="m101.61,302.29c-.19,2.1-.2,2.17-1.6,2-.61-.07-1.15-.53-1.33.5-.08.48-.27.96-.51,1.37-.34.58-.35,1.59-1.45,1.33-.75-.18-.76-.93-.98-1.47-.4-1-.26-1.18.98-.94.98.19,1.34.1,1.2-1.04-.2-1.54-.03-1.79,1.35-1.31,1.08.38,1.61-.4,2.41-.51l-.07.06Z"/>
            <path class="l" d="m137.42,391.3c-.42.76-.7,1.83-1.39,2.38-.93.74-2.16,1.1-3.29,1.58-.14.06-.47-.14-.59-.31-.12-.18-.19-.63-.11-.68,1.7-.98,2.52-3.06,4.59-3.61.6-.16.57.2.79.63Z"/>
            <path class="l" d="m142.72,321.9c-.65-.35-1.5-.54-1.89-1.07-.71-.99-1.38-1.25-2.41-.58-.08.05-.47-.17-.54-.34-.07-.17,0-.51.13-.65.34-.34.71-.72,1.15-.89,1.05-.41,3.83,1.15,4.1,2.37.08.35-.41.83-.64,1.26l.09-.09Z"/>
            <path class="l" d="m116.36,394.18c.05-.24.12-.61.23-.97.13-.43.5-.53.89-.5.42.03.65.32.79.69.28.71-.46,1.18-.48,1.7-.02.8,1.53,2.01,0,2.28-1.16.21-1.22-1.6-1.43-2.68-.02-.12,0-.25,0-.51Z"/>
            <path class="l" d="m103.8,360.78c-.35.08-.71.13-1.06.23-1.07.32-1.62-.08-1.71-1.17l-.09.09c1.37-.82.96-1.72.19-2.73-.3-.39-.23-.94.37-1.17.4-.15.68.06.95.34q1.6,1.65,1.25,4.43l.09-.03Z"/>
            <path class="l" d="m141.15,403.08c1.55-1.72,1.57-1.77,3.17-1.09.5.21.95.13,1.42.2.41.06.64.36.54.75-.05.18-.36.4-.55.4-1.5-.05-2.99-.16-4.58-.25Z"/>
            <path class="l" d="m175.07,336.04c-.16.5-.59,1.08-.99.86-1.05-.58-2.02-1.24-3.22-1.52-.27-.06-.25-.69.09-.92.88-.6,3.63.26,4.05,1.22.05.11.06.24.08.36Z"/>
            <path class="l" d="m105.13,352.26c-.51-1.04-.12-1.34.24-1.71.61-.61,1.27-1.22,1.71-1.95.3-.49.14-1.29,1-1.33.47-.02.43,1.3-.12,1.93-.89,1.02-1.84,1.99-2.82,3.05Z"/>
            <path class="l" d="m134.22,322.12c.49-.02,1-.11,1.48-.04.79.11,1.09.68.65,1.31-.49.7-1.17,1.26-1.84,1.95-.95-1.12-.84-2.19-.19-3.31l-.1.1Z"/>
            <path class="l" d="m135.7,354.51c-.04-.87-.94-1.09-1.28-1.71-.15-.26-.12-.76.04-1.02.31-.47.91-.55,1.28-.16.99,1.02,1.89,2.13,3.07,3.47l-3.22-.66.12.09Z"/>
            <path class="l" d="m161.63,340.24c.65.11,1.18.72,2.03.33.49-.22.41.31.24.65-.71,1.46-1.82,1.94-2.89,1.15-.35-.26-.75-.71-.5-1.27.2-.46.51-.84,1.12-.85Z"/>
            <path class="l" d="m145.15,316.78l-.19-1.61-.1.1,2.58-1.48c.95.71.04,1.34-.07,1.93-.34,1.77-.4,1.76-2.3,1.13l.08-.07Z"/>
            <path class="l" d="m135.08,344.62c-1.4-.17-.54,1.85-1.77,1.83-.34,0-.69.01-.99-.1-.12-.05-.21-.47-.13-.65.19-.43.54-.8.72-1.24.22-.54.18-1.28,1.07-1.12.75.13.72.89,1.01,1.39l.11-.1Z"/>
            <path class="l" d="m121.94,334.06c.34.04.8-.07.72.5-.02.11-.39.2-.61.26-.77.2-.3.5-.24.96.14,1.31-.51,1.8-1.74,1.55-.36-.07-.77-.24-.71-.7.17-1.42,1.23-2.45,2.59-2.57Z"/>
            <path class="l" d="m129.16,309.95c-.2-.44-.58-.88-.57-1.31.01-.47.5-.82.99-.93.6-.13,1.21-.19,1.82-.24.52-.04,1.02.11,1.13.67.17.89-.49,1.05-1.11.93-.98-.19-1.63.37-2.35.8l.09.08Z"/>
            <path class="l" d="m93.29,402.47c.76.31,1.22.79.97,1.7-.21.75-.5,1.48-1.44,1.25-.96-.24-.84-1.12-.74-1.84.09-.63.45-1.13,1.22-1.12Z"/>
            <path class="l" d="m93.23,379.97c1.1-.79,1.85.39,2.73-.21.46-.32.91.18,1.04.7.04.18-.1.46-.24.61-.35.35-.84.7-1.31.44-.74-.4-1.4-.96-2.22-1.54Z"/>
            <path class="l" d="m107.89,364.95c-.08-.09-.23-.18-.24-.27-.02-.69,2.33-2.21,3.15-2.05.09.02.17.17.21.28.04.11.06.32,0,.36-.92.6-1.86,1.19-2.8,1.76-.07.04-.22-.05-.34-.08Z"/>
            <path class="l" d="m115.41,379.95c-1.75,0-1.3-1.68-2.44-1.91-.55-.11-.42-.83,0-1.18.45-.38.96-.15,1.32.21.78.8.17,1.95,1.13,2.87Z"/>
            <path class="l" d="m148.3,330.84c-.46-.8-.79-1.19-.91-1.63-.24-.85-.23-1.69.62-2.27.08-.05.25-.11.27-.08.57.76,1.26,1.49.68,2.57-.17.31-.3.64-.65,1.41Z"/>
            <path class="l" d="m111.36,360.66c-.53-.07-1.06-.04-1-.46.06-.42.36-.95.71-1.14.36-.19.93-.1,1.37.02.3.08.72.39.74.62.02.26-.3.69-.57.79-.44.17-.95.14-1.24.17Z"/>
            <path class="l" d="m133.45,306.14c-.73.07-1.45.19-2.18.19-.36,0-.66-.3-.69-.72-.04-.59.25-.89.84-.94,1.15-.09,1.95.23,1.94,1.57l.09-.1Z"/>
            <path class="l" d="m103.51,349.9c0-.42-.04-.66,0-.89.11-.55-.52-1.35.25-1.64.91-.34,1.31.57,1.54,1.16.35.87-.64.81-1.08,1.13-.09.07-.23.08-.73.23Z"/>
            <path class="l" d="m121.43,352.97c-.67-.07-1.65.26-1.37-1.05.03-.12.07-.25.14-.34.53-.62.01-2.25,1.14-1.99,1.64.37.05,1.56.16,2.38.04.36-.11.74-.17,1.11l.1-.1Z"/>
            <path class="l" d="m131.13,351.13c-.02.44.31.96-.16,1.35-.28.23-.73.36-.93.03-.24-.4-.23-.93-.39-1.38-.19-.52-.24-.93.46-1.03.24-.04.5-.12.72-.07.76.16.41.66.3,1.1Z"/>
            <path class="l" d="m162.22,293.13c1.38-.64,2.66.4,4.05-.03-.1,1.14-.83,1.26-1.34,1.12-.92-.25-1.78-.76-2.66-1.17l-.05.07Z"/>
            <path class="l" d="m144.96,315.17c-.47-.1-1-.09-1.38-.33-.53-.34-.78-.99-.59-1.6.07-.23.63-.49.92-.44.74.11.85.74.86,1.38,0,.36.06.73.09,1.09l.1-.1Z"/>
            <path class="l" d="m149.41,402.6s.39.42.31.62c-.24.59-1.07.91-.76,1.76-.21.04-.5.18-.62.09-.58-.41-.38-2.09.28-2.47.09-.05.23,0,.79,0Z"/>
            <path class="l" d="m140.83,326.32c-.64-.13-2.43-1.89-2.46-2.5,0-.11.51-.38.6-.32.86.63,1.69,1.3,2.5,1.99.04.03-.17.48-.35.62-.4.3.2.32-.3.21Z"/>
            <path class="l" d="m132.04,389.37c.48.03,1-.03,1.43.13.28.11.58.53.62.84.05.43-.41.48-.76.56-.55.13-1.11.74-1.63.02-.48-.67.15-1.13.43-1.64l-.08.09Z"/>
            <path class="l" d="m129.81,290.99c-.35-.9-1.19-.61-1.86-.76q1.95-1.36,3.18.45c-.43.34-.92.28-1.41.23l.08.08Z"/>
            <path class="l" d="m178.08,364.95c1.33.87,2.45-.1,3.23,1.07.19.29-.21.74-.58.61-.64-.23-1.12-.99-1.97-.62-.03.01-.19-.29-.69-1.05Z"/>
            <path class="l" d="m136.19,303.43c.41.6.13,1.19-.02,1.76-.14.53-.49.94-1.06.62-.47-.26-.59-.79-.37-1.3.27-.62.82-.91,1.45-1.08Z"/>
            <path class="l" d="m166.62,298l-1.82-.52c1.02-.6,1.46-1.44,2.5-1.51.13.93-.19,1.56-.77,2.09l.08-.06Z"/>
            <path class="l" d="m160.3,349.73c-.49-.19-.79-.56-.76-1.08.04-.58.49-.8,1-.78.57.03.85.43.73.97-.1.48-.46.8-.97.89Z"/>
            <path class="l" d="m113.91,300.95c-.21.49.09,1.25-.75,1.04-.26-.07-.56-.5-.61-.8-.13-.68.58-1.67.84-1.39.29.3.37.8.52,1.15Z"/>
            <path class="l" d="m166.78,300.68c-.13.42-.34.75-.74.61-.58-.2-1.1-.58-.85-1.29.09-.25.52-.56.78-.54.76.05.87.64.8,1.22Z"/>
            <path class="l" d="m149.35,400.91c-.24.37-1.75.63-1.97.29-.09-.14-.04-.48.08-.63.43-.57,1.02-.68,1.62-.31.16.1.19.43.28.65Z"/>
            <path class="l" d="m139.98,305.8c-.64-.18-1.2-.42-1.1-1.25.08-.64.62-.85,1.08-.82.63.04,1.23.33,1.1,1.19-.1.62-.6.73-1.08.88Z"/>
            <path class="l" d="m135.59,354.42c.17.18.34.36.52.53.4.38.58.86.18,1.27-.5.51-1.1.44-1.63-.04-.54-.49-.45-1.09-.28-1.7l-.08.08,1.4-.05-.12-.09Z"/>
            <path class="l" d="m124.17,315.49c1.31-.69,2.42-.07,3.5.58.11.07.15.48.06.62-.11.18-.48.41-.6.35-.99-.5-1.94-1.07-2.91-1.61l-.05.07Z"/>
            <path class="l" d="m138.09,371.13c-.58.08-.74-.2-.73-.59.01-.72.63-.99,1.1-1.32.13-.09.49-.02.63.1.13.12.2.47.11.62-.28.52-.5,1.11-1.11,1.19Z"/>
            <path class="l" d="m106.25,372.29c.06-.52.23-.98.84-1,.55-.02.94.21.82.86-.09.46-.05,1.1-.69,1.11-.53.01-.83-.46-.97-.97Z"/>
            <path class="l" d="m149.49,371.65c.75.02,1.31.32,1.4,1.2.05.49-.32.64-.65.67-.81.07-1.38-.3-1.48-1.14-.05-.43.34-.58.73-.73Z"/>
            <path class="l" d="m102.75,317.69c.41.31.68.7.44,1.24-.16.34-.42.71-.82.53-.52-.22-.58-.76-.45-1.26.1-.38.39-.59.84-.52Z"/>
            <path class="l" d="m124.28,324.88c-.18.22-.34.58-.61.71-.5.26-.92.06-.96-.54-.02-.38.27-.62.67-.66.36-.04.67.05.9.49Z"/>
            <path class="l" d="m141.37,327.24c.7.13.92.68.95,1.32,0,.15-.28.43-.45.46-.65.08-.81-.43-.96-.91-.11-.39-.01-.71.46-.87Z"/>
            <path class="l" d="m159.9,345.57c-.1.64-.6.73-1.05.76-.65.06-1.29-.61-1.08-1.08.23-.52.69-.59,1.19-.5.48.09.95.21.95.82Z"/>
            <path class="l" d="m122.39,355.25c.38-.08.76-.01.95.33.3.54.34,1.14,0,1.7-.05.08-.23.16-.33.13-.75-.18-.14-1.4-1.09-1.44.04-.19.06-.4.14-.58.04-.08.21-.1.32-.14Z"/>
            <path class="l" d="m108.59,358.31c-.24.02-.48.06-.72.04-.68-.05-1.52.15-1.65-.9-.05-.42.28-.67.63-.7.93-.1,1.7.09,1.68,1.28,0,.12,0,.24,0,.36l.07-.08Z"/>
            <path class="l" d="m124.58,363.51c.34.48.8.93.6,1.6-.18.57-.4,1.33-1.08,1.21-.73-.13-.58-.97-.41-1.46.19-.54.65-.98,1-1.46l-.1.11Z"/>
            <path class="l" d="m97.74,368.67c-.58,0-.53-.41-.54-.74-.02-.61-.07-1.31.85-1.22.51.05,1.05.45.99.92-.08.62-.77.84-1.29,1.04Z"/>
            <path class="l" d="m116.93,367.72c-.13.19-.28.66-.52.72-.63.14-.83-.35-.85-.89-.02-.46.29-.67.69-.68.42,0,.62.31.68.85Z"/>
            <path class="l" d="m184.27,369.69c-.15.23-.31.6-.38.58-.86-.19-1.61-.57-1.84-1.51-.03-.14.22-.35.34-.53.56.58,1.67.47,1.89,1.46Z"/>
            <path class="l" d="m154.93,370.46c.04.39-.08.76-.45.84-.6.12-.82-.31-.84-.83-.01-.4.25-.72.64-.73.4,0,.56.36.65.72Z"/>
            <path class="l" d="m120.92,290.86c-.21.39-.47.66-.87.57-.58-.13-.74-.61-.69-1.14.04-.46.34-.58.71-.34.36.23,1.03.23.85.9Z"/>
            <path class="l" d="m103.51,291.69c-.29.1-.62.34-.92.31-.71-.07-1.19-.75-1.09-1.25.1-.54.81-.23,1.19-.02.35.19,1.07.1.82.96Z"/>
            <path class="l" d="m132.74,292.59c.1.7-.4,1.06-.97,1.26-.41.14-.7-.17-.63-.58.09-.55-.02-1.28.83-1.37.44-.04.62.29.77.69Z"/>
            <path class="l" d="m101.68,294.86c-.95-.32-1.73-.8-1.73-1.95,0-.05.21-.14.32-.13,1.39.16,1.33,1.2,1.33,2.2l.08-.12Z"/>
            <path class="l" d="m101.6,294.97c.28-.25.58-.48.83-.75.32-.35.59-.33.82.06.17.3.47.69.39.94-.08.25-.56.53-.86.51-.5-.02-.93-.33-1.1-.88l-.08.12Z"/>
            <path class="l" d="m169.48,394.71c.69.11,1.03.44.97,1-.06.51-.44,1.11-.89,1-.63-.16-.71-.95-.79-1.54-.02-.13.51-.34.71-.46Z"/>
            <path class="l" d="m124.6,300.29c-.03.31-1.1,1.08-1.36.84-.22-.2-.34-.63-.32-.95.02-.58.41-.87,1-.75.4.08.62.37.69.87Z"/>
            <path class="l" d="m133.17,401.57c-.18.16-.33.41-.48.41-.18,0-.46-.17-.53-.34-.23-.55-.37-1.14-.59-1.7-.1-.26-.1-.47.22-.54.2-.04.57.01.62.13.3.65.52,1.34.77,2.03Z"/>
            <path class="l" d="m173.94,287.05c.05.46-.19.75-.59.81-.18.03-.4-.21-.6-.33.21-.29.41-.6.65-.86.02-.03.36.25.54.38Z"/>
            <path class="l" d="m169.78,295.1c-.42-.13-.46-.47-.37-.81.1-.38.4-.59.78-.43.17.07.34.39.32.57-.04.39-.35.59-.73.66Z"/>
            <path class="l" d="m127.44,294.7c.27.52.82,1.1-.11,1.47-.45.18-1.14.14-1.23-.45-.17-1.09.55-1.18,1.39-.95l-.06-.07Z"/>
            <path class="l" d="m133.74,314.58c-.13.61-.6.63-1.07.53-.19-.04-.48-.25-.48-.39-.02-.57.36-.84.89-.85.44-.01.58.33.66.71Z"/>
            <path class="l" d="m102.2,316.67c-.75.08-1.17-.28-1.19-1.02,0-.12.36-.33.56-.35.56-.05,1.46.72,1.26,1.05-.1.17-.42.22-.63.32Z"/>
            <path class="l" d="m135.16,319c-.14.56-.52.84-1.07.77-.42-.05-.59-.39-.38-.77.24-.45.64-.77,1.18-.6.14.04.18.4.27.6Z"/>
            <path class="l" d="m134.32,322.03c-.23-.09-.46-.19-.7-.26-.5-.16-.95-.39-.8-1,.03-.14.42-.27.65-.29.63-.05.88.28.77.91-.04.24-.02.5-.02.75l.1-.1Z"/>
            <path class="l" d="m142.63,321.99c.84-.04,1.5.18,1.5,1.18,0,.23-.16.45-.24.68-.2-.11-.43-.17-.59-.33-.44-.44-.87-.91-.58-1.62l-.09.09Z"/>
            <path class="l" d="m149.58,324.93c-.15.51-.42.89-1.01.84-.48-.03-.57-.39-.52-.77.07-.58.47-.83,1.02-.8.41.02.65.26.52.72Z"/>
            <path class="l" d="m93.63,369.94c.57,0,.66.36.69.71.03.45.17,1.09-.59.98-.24-.04-.56-.54-.58-.85-.02-.28.33-.59.49-.84Z"/>
            <path class="l" d="m158.56,378.61c-.16-.13-.49-.25-.5-.4-.04-.61.41-.84.93-.87.31-.02.81,0,.67.48-.14.45-.48.86-1.1.8Z"/>
            <path class="l" d="m180.64,352.11l-.44-.33c.39-.26.78-.52,1.18-.75.02-.01.35.31.33.46-.06.69-.63.56-1.07.62Z"/>
            <path class="l" d="m138.95,336.64c-.44.05-.76-.13-.79-.54-.04-.57.35-.86.87-.9.16-.01.42.21.5.39.25.58-.1.87-.57,1.06Z"/>
            <path class="l" d="m100.88,354.55c.18.54-.23.66-.57.71-.45.07-1.1.15-1.18-.41-.06-.49.46-.85.99-.92.43-.06.64.26.76.62Z"/>
            <path class="l" d="m178.6,399.28c-.07.41-.38.61-.72.56-.52-.08-.78-.5-.84-.99,0-.08.37-.28.58-.3.52-.05.92.12.98.72Z"/>
            <path class="l" d="m174.15,358.08c0,.55-.32.87-.81.99-.34.08-.79-.05-.78-.41.01-.26.39-.56.67-.73.29-.17.67-.29.91.15Z"/>
            <path class="l" d="m121.14,360.5c-.42,0-.69-.23-.82-.6-.19-.51.2-.7.56-.77.4-.08.7.18.81.56.13.45-.14.69-.55.8Z"/>
            <path class="l" d="m157.4,360.53c.1.01.28.03.28.04-.02.47.02.96-.12,1.39-.12.36-.36.3-.38-.08-.02-.46-.19-.96.22-1.36Z"/>
            <path class="l" d="m153.99,297.91c.43.07.65.37.67.74.02.32-.25.43-.51.22-.28-.22-.52-.49-.77-.74l.61-.22Z"/>
            <path class="l" d="m95.31,311.05c-.25-.28-.36-.61-.12-.92.07-.09.46-.07.55.03.13.14.22.46.14.61-.07.15-.37.19-.57.28Z"/>
            <path class="l" d="m98.73,313.62c-.61.08-1.23.17-1.47-.6-.13-.42.18-.75.53-.76,1.05-.05,1.17.58.87,1.41l.06-.05Z"/>
            <path class="l" d="m154.45,315.68c-.13.16-.28.47-.38.45-.35-.06-.72-.16-1-.37-.27-.2-.15-.46.19-.53.49-.1.95-.14,1.19.44Z"/>
            <path class="l" d="m97.76,316.72c.14.45-.14.67-.53.7-.2.02-.61-.18-.6-.25.03-.32.09-.79.3-.92.31-.17.69.04.82.46Z"/>
            <path class="l" d="m129.65,318.56c.22-.14.4-.3.61-.38.3-.11.54.04.45.3-.06.17-.34.35-.54.38-.16.02-.34-.19-.52-.3Z"/>
            <path class="l" d="m144.47,326.6c-.19-.7.27-.74.59-.74.34,0,.73.09,1.02.28.21.13-.52,1.09-.85,1-.31-.09-.57-.39-.77-.53Z"/>
            <path class="l" d="m103.9,335.65c-.1.19-.26.57-.31.55-.33-.09-.75-.18-.92-.43-.25-.37.05-.67.45-.74.45-.08.66.23.78.61Z"/>
            <path class="l" d="m172.24,337.48c.02.39-.06.86-.42.87-.26,0-.66-.36-.79-.65-.17-.37.18-.67.52-.8.54-.21.57.27.69.58Z"/>
            <path class="l" d="m140.65,340.78c-.16.34-.39.75-.76.6-.28-.11-.42-.56-.62-.86.22-.1.44-.28.67-.29.34,0,.73.04.71.55Z"/>
            <path class="l" d="m158.34,342.82l.4.44c-.15.11-.3.23-.47.3-.04.02-.23-.16-.22-.2.06-.18.17-.34.29-.54Z"/>
            <path class="l" d="m138.57,347.94c-.19-.11-.5-.19-.56-.35-.17-.49.23-.61.59-.62.21,0,.58.13.61.26.09.45-.31.57-.63.71Z"/>
            <path class="l" d="m100.89,352.93c-.2-.11-.58-.25-.56-.31.07-.33.16-.79.4-.93.35-.21.69.09.78.49.11.49-.25.64-.62.75Z"/>
            <path class="l" d="m129.41,360.82c.21.23.59.47.65.77.1.48-.4.51-.72.51-.35,0-.78-.08-.76-.55.02-.4.34-.63.83-.72Z"/>
            <path class="l" d="m134.84,369.72c-.13.37-.41.56-.77.5-.11-.02-.28-.43-.24-.48.21-.23.5-.4.76-.58l.25.57Z"/>
            <path class="l" d="m111.68,378.61c.09.05.58.18.65.42.13.47-.36.47-.68.44-.35-.03-.77-.09-.7-.61.04-.31.23-.41.73-.24Z"/>
            <path class="l" d="m134.8,384.69c-.39-.17-.44-.46-.3-.81.11-.28.31-.37.58-.23.33.17.52.47.34.81-.08.15-.41.16-.62.24Z"/>
            <path class="l" d="m118.6,383.94c.25.25.6.45.71.75.15.42-.17.69-.59.63-.16-.02-.44-.33-.41-.46.05-.33.25-.65.39-.97l-.1.05Z"/>
            <path class="l" d="m129.3,395.71c-.14.34-.24.73-.45,1.02-.1.14-.45.19-.65.13-.41-.11-.6-.45-.46-.85.07-.19.32-.42.49-.43.36-.01.73.12,1.1.19l-.03-.06Z"/>
            <path class="l" d="m145.04,399.03c-.46.09-.91.24-1.37.25-.34,0-.67-.24-.63-.64.01-.12.37-.24.59-.3.68-.17,1.13.1,1.32.78l.1-.1Z"/>
            <path class="l" d="m103.29,399.56c.31.16.53.4.35.75-.06.1-.43.15-.57.07-.15-.09-.26-.36-.26-.55,0-.09.31-.17.48-.26Z"/>
            <path class="l" d="m172.54,401.65c.06.2.18.4.16.59-.02.29-.27.42-.49.24-.14-.11-.28-.42-.22-.55.06-.14.35-.19.55-.28Z"/>
            <path class="l" d="m144.94,399.13c.22.11.45.22.67.33.3.15.37.38.15.61-.15.15-.38.22-.57.33-.08-.21-.2-.41-.22-.62-.02-.24.04-.49.07-.74l-.1.1Z"/>
            <path class="l" d="m95,397.88c-.16-.12-.44-.22-.47-.37-.11-.46.28-.59.62-.63.14-.01.41.2.44.35.09.43-.2.61-.59.65Z"/>
            <path class="l" d="m157.95,396.46c.27,0,.39.16.39.47,0,.34-.13.48-.4.37-.1-.04-.18-.16-.23-.27-.13-.28-.04-.47.24-.56Z"/>
            <path class="l" d="m133.27,396.54c.16.18.37.33.45.54.1.23-.11.37-.37.19-.16-.11-.22-.37-.3-.57,0-.02.14-.1.22-.16Z"/>
            <path class="l" d="m129.33,395.77c-.23-.44-.47-.87-.67-1.31-.03-.07.11-.32.16-.31.22.02.62.09.62.15,0,.47-.08.94-.13,1.42l.03.06Z"/>
            <path class="l" d="m138.33,386.8c-.33.48-.79.52-1.24.34-.12-.05-.26-.41-.2-.54.25-.58.74-.45,1.18-.28.13.05.18.32.27.48Z"/>
            <path class="l" d="m131.25,385.2c.25.15.32.37.12.59-.14.16-.35.25-.53.37-.05-.2-.19-.45-.12-.6.08-.17.35-.24.53-.36Z"/>
            <path class="l" d="m118.69,383.89c-.23-.03-.47-.05-.7-.1-.32-.07-.67-.12-.71-.55,0-.02.16-.1.18-.08.18.15.32.35.51.49.18.13.41.2.62.29l.1-.05Z"/>
            <path class="l" d="m149.19,367.64l-.23.26c-.23-.24-.56-.45-.64-.74-.05-.18.34-.3.55-.1.15.15.22.38.32.58Z"/>
            <path class="l" d="m118.68,365.48c.19.13.42.22.56.39.2.25.1.49-.2.6-.3.11-.54,0-.57-.3-.02-.22.13-.46.2-.68Z"/>
            <path class="l" d="m108.52,358.39c.11-.04.22-.11.34-.13.45-.08.99-.26,1.06.46.02.17-.19.47-.36.52-.83.26-1.04-.21-.97-.93l-.07.08Z"/>
            <path class="l" d="m127.93,358.23c-.22.31-.54.46-.87.3-.15-.07-.32-.43-.26-.57.16-.36.52-.34.87-.26.32.07.41.24.26.53Z"/>
            <polygon class="l" points="121.33 353.07 122.2 353.4 121.81 353.81 121.43 352.97 121.33 353.07"/>
            <path class="l" d="m97.95,351.06l.32.09c-.08.2-.13.42-.26.59-.24.31-.48.24-.46-.14,0-.19.26-.36.41-.54Z"/>
            <path class="l" d="m111,346.04c.23.26.55.49.67.79.13.34.07.84-.34.93-.39.08-.56-.35-.61-.71-.03-.24.02-.49.03-.74l.26-.28Z"/>
            <path class="l" d="m106.95,342.71c.04.19.17.42.11.57-.07.16-.31.24-.48.36-.04-.21-.12-.43-.11-.63.02-.29.21-.38.48-.29Z"/>
            <path class="l" d="m146.29,333.44l.44.35c-.2.09-.41.25-.61.25-.21,0-.6-.2-.59-.23.1-.39.44-.37.76-.37Z"/>
            <path class="l" d="m162.8,332.01c-.09.2-.29.29-.48.11-.24-.23-.44-.51-.66-.76.19-.07.41-.24.57-.19.34.11.61.34.57.85Z"/>
            <path class="l" d="m159.71,328.37c-.25.17-.41.38-.59.4-.46.04-.61-.3-.54-.69.03-.16.25-.28.38-.43l.75.72Z"/>
            <path class="l" d="m121.72,327.63c.1-.42.4-.6.76-.59.13,0,.34.3.35.47.03.45-.3.58-.68.48-.17-.04-.3-.24-.43-.36Z"/>
            <path class="l" d="m138.34,326.01c-.1.16-.16.41-.31.47-.48.2-.9.04-1.13-.43-.02-.04.31-.33.51-.39.36-.11.69.02.93.35Z"/>
            <path class="l" d="m181.31,326.15c-.07-.05-.2-.11-.2-.16,0-.09.06-.22.14-.25.24-.11.37,0,.31.27-.02.06-.16.1-.24.15Z"/>
            <path class="l" d="m157.24,326.22c-.19-.17-.43-.29-.51-.48-.11-.26.11-.45.37-.33.17.08.27.35.36.55.02.04-.14.16-.22.25Z"/>
            <path class="l" d="m111.82,322.99c-.29-.53-.48-.81-.57-1.11-.03-.09.24-.38.35-.37.19.03.45.18.5.34.06.18-.08.42-.27,1.14Z"/>
            <path class="l" d="m147.38,322.01c-.32-.08-.7-.14-.56-.62.1-.35.33-.65.73-.58.15.03.29.31.35.5.12.41-.09.64-.51.7Z"/>
            <path class="l" d="m111,319.93c-.14-.17-.41-.35-.4-.51.03-.42.39-.53.72-.39.14.06.24.4.22.61-.03.3-.27.39-.54.29Z"/>
            <path class="l" d="m124.22,315.42c-.17-.3-.36-.59-.5-.91-.09-.2-.13-.42-.19-.63.11-.03.23-.09.34-.08.39.04.64.28.6.67-.04.35-.2.68-.3,1.02l.05-.07Z"/>
            <path class="l" d="m92.8,309.05c-.16.18-.3.48-.49.51-.25.04-.35-.27-.15-.51.13-.15.38-.19.57-.28l.06.28Z"/>
            <path class="l" d="m164.01,305.47c-.13.15-.25.41-.39.42-.46.05-.54-.29-.47-.65.05-.3.26-.43.49-.29.17.11.25.34.37.52Z"/>
            <path class="l" d="m179.96,303.26c.11.28.33.59.26.67-.22.26-.52.56-.83.61-.26.04-.41-.34-.24-.54.23-.27.53-.49.82-.74Z"/>
            <path class="l" d="m166.54,298.06c.46-.12.91-.28,1.38-.35.31-.05.45.16.34.42-.03.07-.18.16-.26.14-.46-.08-.92-.18-1.38-.27l-.08.06Z"/>
            <path class="l" d="m127.73,292.8c-.22.39-.59.42-.94.3-.16-.06-.4-.36-.36-.46.17-.4.56-.45.91-.31.17.06.26.31.39.47Z"/>
            <path class="l" d="m135.51,288.97c.09.2.25.4.25.6,0,.11-.28.21-.43.32-.09-.2-.25-.41-.26-.61,0-.1.28-.21.43-.31Z"/>
            <path class="l" d="m164.52,290.01l-.26.61c-.14-.12-.38-.23-.4-.37-.02-.19.14-.4.22-.6l.43.35Z"/>
            <path class="l" d="m129.72,290.91l-.26.94c-.12-.12-.34-.24-.33-.35,0-.41.31-.53.68-.5l-.08-.08Z"/>
            <path class="l" d="m121.33,294.38c.03-.07.06-.19.09-.19.09,0,.18.05.27.07-.03.07-.06.19-.09.19-.09,0-.18-.05-.27-.07Z"/>
            <path class="l" d="m127.49,294.77c.15-.15.3-.32.47-.45.04-.03.26.09.26.09-.14.42-.49.27-.78.28l.06.07Z"/>
            <path class="l" d="m137.19,295.29l-.26-.2c.11-.04.22-.12.32-.11.1.01.18.12.27.19l-.33.12Z"/>
            <path class="l" d="m156.02,297.25c-.11-.2-.26-.4-.31-.61-.07-.32.11-.46.41-.33.07.03.15.22.13.3-.07.21-.21.41-.31.61l.09.04Z"/>
            <path class="l" d="m158.85,296.66c-.22.08-.44.19-.67.24-.06.01-.23-.17-.23-.26,0-.09.18-.26.25-.24.22.05.43.17.65.27Z"/>
            <path class="l" d="m171.88,296.68c-.2.07-.4.16-.61.19-.07,0-.16-.15-.24-.24.21-.07.41-.17.63-.2.06,0,.15.16.23.25Z"/>
            <path class="l" d="m94.7,300.06l.58.25c-.12.14-.22.31-.37.4-.25.16-.49.07-.52-.22-.01-.13.2-.29.31-.44Z"/>
            <path class="l" d="m140.11,300.62l-.17.25c-.2-.2-.19-.37.03-.51l.15.26Z"/>
            <path class="l" d="m121.8,303.76c-.34.16-.69.2-.87-.19-.05-.11.12-.46.23-.47.2-.03.44.07.64.16.34.15.33.34,0,.5Z"/>
            <path class="l" d="m161.37,304.8c-.04.09-.05.24-.11.25-.24.07-.35-.07-.27-.34.02-.07.14-.11.21-.16l.17.25Z"/>
            <path class="l" d="m173.55,304.19c-.09.27-.27.36-.52.24-.09-.04-.14-.16-.21-.25.19-.09.37-.19.56-.25.03,0,.11.17.17.27Z"/>
            <path class="l" d="m142.51,306.2l-.37.39c-.06-.19-.15-.38-.17-.57,0-.08.13-.18.21-.26l.33.45Z"/>
            <path class="l" d="m161.61,307.05l.45-.24c.04.18.11.37.12.55,0,.06-.25.17-.26.16-.12-.15-.21-.31-.31-.47Z"/>
            <path class="l" d="m119.54,307.18c.04.1.13.21.12.31-.01.09-.13.17-.2.26-.04-.1-.13-.21-.12-.31.01-.09.13-.17.2-.25Z"/>
            <path class="l" d="m97.92,310.73l-.41.37c-.08-.21-.18-.42-.22-.64-.01-.07.16-.17.24-.26l.38.54Z"/>
            <path class="l" d="m128.19,310.63c0,.39-.19.67-.56.73-.19.03-.52-.07-.58-.2-.22-.5.25-.49.52-.54.22-.04.45.04.68.07l-.07-.07Z"/>
            <path class="l" d="m93.18,312.14c-.09.03-.22.1-.25.07-.22-.2-.21-.41.04-.55.05-.03.24.07.27.14.03.09-.04.22-.06.34Z"/>
            <path class="l" d="m148.81,312.45c-.06.08-.11.2-.19.25-.24.14-.46.06-.48-.21-.01-.28.2-.38.46-.26.09.04.14.15.21.23Z"/>
            <path class="l" d="m101.33,313.5c-.05-.11-.17-.23-.15-.31.08-.3.29-.38.56-.22.09.06.14.18.21.28-.2.08-.41.17-.61.25Z"/>
            <path class="l" d="m164.93,313.18c-.13.14-.25.38-.38.39-.2.01-.41-.14-.61-.22.11-.15.22-.41.34-.41.21,0,.42.15.65.24Z"/>
            <path class="l" d="m98.67,313.67c.17.16.37.3.5.49.19.28.09.46-.23.48-.02,0-.06-.21-.08-.33-.05-.23-.08-.46-.13-.69l-.06.05Z"/>
            <path class="l" d="m108.22,316.59l-.23-.29c.21-.07.43-.17.64-.19.07,0,.17.16.25.25l-.67.23Z"/>
            <path class="l" d="m145.07,316.85c-.11-.29-.29-.35-.5-.15-.04.04-.01.24.04.28.25.15.43.07.54-.2l-.08.07Z"/>
            <path class="l" d="m150.53,322.69l-.2-.44c.19-.02.38-.07.57-.05.07,0,.12.17.18.26-.18.08-.37.15-.55.23Z"/>
            <path class="l" d="m155.67,324.38c.24-.23.47-.46.73-.67.06-.05.23-.03.29.03.23.23.19.46-.11.51-.32.06-.67.03-1,.04l.1.1Z"/>
            <path class="l" d="m155.57,324.29c-.17.16-.31.36-.51.48-.19.11-.43.15-.66.19-.04,0-.16-.17-.16-.25.04-.49.39-.39.71-.36.23.03.47.02.7.03l-.1-.1Z"/>
            <path class="l" d="m125,328.42c-.19.07-.38.17-.57.21-.07.01-.17-.14-.25-.21.2-.08.39-.19.6-.24.05-.01.15.15.23.24Z"/>
            <path class="l" d="m144.42,329.09c-.12.13-.23.35-.33.34-.19-.02-.36-.16-.54-.26.08-.08.17-.22.24-.21.2,0,.39.08.62.13Z"/>
            <path class="l" d="m93.96,337.71l-.09.29c-.09-.11-.21-.21-.26-.33-.02-.04.12-.15.19-.23l.17.26Z"/>
            <path class="l" d="m125.79,337.63c-.09.34-.29.45-.57.3-.2-.11-.55-.34-.52-.41.13-.37.48-.54.85-.42.13.04.18.36.25.53Z"/>
            <path class="l" d="m137.77,338.23c.03.1.12.22.09.31-.09.34-.25.36-.39.07-.04-.09-.01-.23.04-.32.03-.05.17-.04.25-.06Z"/>
            <path class="l" d="m117.37,339.7c.1-.03.22-.11.31-.09.34.08.38.23.09.38-.08.04-.23,0-.32-.05-.05-.03-.05-.15-.07-.23Z"/>
            <path class="l" d="m134.98,344.72c.23.06.47.11.69.2.09.04.21.21.19.26-.12.27-.37.34-.56.11-.14-.17-.15-.44-.21-.67l-.11.1Z"/>
            <path class="l" d="m110.74,346.32c-.37.05-.73.03-.86-.37-.03-.1.22-.38.38-.43.41-.12.63.15.73.52l-.26.28Z"/>
            <path class="l" d="m101.66,348.99c-.09.32-.29.43-.58.28-.1-.05-.21-.22-.19-.3.07-.3.3-.42.59-.3.09.04.12.21.18.32Z"/>
            <path class="l" d="m132.9,351.9c-.2.09-.4.2-.61.24-.05.01-.21-.16-.21-.25,0-.09.16-.26.21-.25.21.05.4.16.6.25Z"/>
            <path class="l" d="m148.36,352.64c.03.09.1.19.08.26-.08.29-.23.31-.35.06-.03-.07,0-.2.04-.27.03-.05.15-.03.23-.05Z"/>
            <path class="l" d="m131.95,354.37l-.26-.09c.11-.09.21-.19.33-.25.03-.01.13.13.2.2l-.27.14Z"/>
            <path class="l" d="m131.02,357.96c.22-.09.43-.21.65-.26.06-.01.23.17.23.26,0,.1-.17.28-.23.27-.23-.05-.44-.17-.65-.26Z"/>
            <path class="l" d="m155.76,358.65c.16.13.43.25.42.36-.02.2-.19.39-.3.58-.09-.09-.25-.18-.25-.27,0-.21.07-.43.12-.67Z"/>
            <path class="l" d="m99.14,360.28c-.08-.2-.18-.38-.22-.57-.01-.06.13-.15.2-.23.08.18.18.36.22.56.01.06-.13.16-.21.24Z"/>
            <polygon class="l" points="103.71 360.81 104.39 360.9 103.8 360.78 103.71 360.81"/>
            <path class="l" d="m109.05,360.88c.08.19.22.39.21.58-.01.12-.25.22-.39.33-.08-.2-.23-.4-.22-.59,0-.11.26-.22.4-.32Z"/>
            <path class="l" d="m91.98,361.87c-.1.2-.2.41-.29.61-.15-.13-.35-.22-.46-.38-.18-.28-.07-.53.25-.54.16,0,.33.2.5.32Z"/>
            <path class="l" d="m125.72,361.72c-.09.09-.19.25-.26.24-.22-.05-.43-.16-.64-.24.09-.08.19-.25.26-.23.22.04.42.15.64.23Z"/>
            <path class="l" d="m160.14,361.56c-.11.13-.22.36-.34.37-.12,0-.28-.19-.39-.32-.02-.02.13-.25.17-.24.19.04.37.12.55.19Z"/>
            <path class="l" d="m181.84,362.85l-.25-.44c.21-.04.43-.1.64-.09.08,0,.16.17.24.26l-.62.28Z"/>
            <path class="l" d="m122.77,363.46c.63-.77,1.23-.55,1.82.05l.1-.11c-.67.3-1.34.51-2-.01l.09.07Z"/>
            <polygon class="l" points="184.22 363.19 184.22 363.35 183.99 363.28 184.22 363.19"/>
            <path class="l" d="m164.36,366.12c.2.06.57.1.58.2.06.34-.08.34-.27-.02-.05-.1-.15-.18-.22-.26l-.09.09Z"/>
            <path class="l" d="m143,368.14c-.26-.15-.33-.37-.12-.49.16-.08.4-.03.6,0,.06.01.1.16.15.25l-.63.23Z"/>
            <path class="l" d="m145.72,368c-.11-.03-.27-.04-.31-.11-.12-.21.02-.34.35-.29.1.01.18.14.26.22l-.3.18Z"/>
            <path class="l" d="m97.56,374c-.06-.09-.18-.19-.17-.27.04-.33.21-.42.4-.22.07.07.09.24.06.33-.03.08-.18.1-.28.15Z"/>
            <path class="l" d="m102.07,374.72c.12.14.33.28.32.4-.01.16-.2.3-.31.46-.09-.07-.26-.17-.24-.22.04-.21.14-.41.23-.64Z"/>
            <path class="l" d="m170.83,375.11c.09.04.23.06.25.12.07.27-.06.39-.34.3-.07-.02-.16-.18-.14-.23.04-.08.16-.13.24-.19Z"/>
            <path class="l" d="m134.97,377.12c-.09.19-.19.38-.28.57-.07-.09-.22-.2-.2-.26.06-.2.17-.39.27-.58l.22.27Z"/>
            <path class="l" d="m110.02,379.13c-.11.17-.21.33-.32.5-.08-.07-.2-.12-.23-.2-.11-.26,0-.43.28-.45.09,0,.18.1.27.15Z"/>
            <path class="l" d="m172.75,379.25c-.12.29-.33.39-.59.22-.15-.1-.23-.3-.34-.46.21-.08.42-.24.62-.23.12.01.21.3.31.46Z"/>
            <path class="l" d="m107.82,380.99c.1.29.02.56-.28.61-.45.08-.62-.22-.51-.62.06-.21.26-.39.39-.58l.39.59Z"/>
            <path class="l" d="m99.44,383.65c.09-.04.19-.12.27-.11.29.06.33.22.09.39-.06.04-.21-.02-.29-.07-.05-.03-.05-.14-.07-.21Z"/>
            <path class="l" d="m105.16,383.62c-.03.07-.07.22-.1.21-.31-.02-.37-.14-.16-.29.05-.03.17.05.26.08Z"/>
            <path class="l" d="m96.85,395.08c.04.11.11.22.1.32-.01.1-.11.18-.18.27-.18-.24-.15-.43.07-.59Z"/>
            <path class="l" d="m98.58,395.28l-.19.26c-.23-.21-.22-.4.03-.55l.16.29Z"/>
            <path class="l" d="m103.45,396.74c-.29.05-.63.28-.8-.17,0-.02.18-.17.2-.15.18.13.33.28.5.42l.1-.09Z"/>
            <path class="l" d="m112.77,397.69c-.1-.18-.29-.36-.27-.53.03-.33.29-.43.56-.23.15.11.24.32.35.48l-.64.28Z"/>
            <path class="l" d="m130.67,397.46l-.29-.09c.11-.1.2-.21.33-.28.03-.02.14.13.22.19l-.26.17Z"/>
            <path class="l" d="m139.13,400.94c-.12.14-.25.39-.33.37-.19-.04-.37-.2-.55-.31.08-.09.16-.27.23-.26.21.02.41.12.65.19Z"/>
            <polygon class="l" points="135.25 402.49 135.24 402.73 134.94 402.61 135.25 402.49"/>
            <path class="l" d="m95.5,400.36c-.07.06-.15.17-.22.16-.07,0-.13-.13-.19-.2.07-.06.15-.17.22-.16.07,0,.13.13.19.2Z"/>
            <polygon class="l" points="93.82 400.18 93.9 400.4 93.69 400.37 93.82 400.18"/>
            <path class="l" d="m184.1,399.59l-.12.21-.31-.24c.08-.07.16-.19.23-.18.07,0,.14.14.21.21Z"/>
            <path class="l" d="m140.9,399.65l-.22.18c-.06-.07-.17-.15-.17-.22,0-.07.13-.12.21-.19l.18.22Z"/>
            <polygon class="l" points="136.24 399.02 136.02 398.91 136.26 398.58 136.48 398.81 136.24 399.02"/>
            <path class="l" d="m103.34,396.84l.45.52c-.74.15-.4-.31-.34-.62l-.1.09Z"/>
            <polygon class="l" points="137.04 396.64 136.84 396.69 136.88 396.51 137.04 396.64"/>
            <path class="l" d="m138.66,394.3c-.07.06-.15.17-.22.16-.07,0-.12-.13-.19-.2.07-.06.15-.17.22-.16.07,0,.12.13.19.2Z"/>
            <polygon class="l" points="176.19 393.52 176.41 393.45 176.38 393.65 176.19 393.52"/>
            <path class="l" d="m169.73,390.52c-.08.06-.16.18-.23.17-.07,0-.13-.14-.2-.21.08-.06.16-.18.23-.17.07,0,.13.14.2.21Z"/>
            <path class="l" d="m142.51,390.59l-.25.23c-.08-.08-.24-.21-.22-.25.15-.33.33-.31.47.02Z"/>
            <polygon class="l" points="139.77 388.98 140.01 388.89 139.99 389.11 139.77 388.98"/>
            <path class="l" d="m132.13,389.29c-.32.08-.48-.01-.47-.27.08,0,.21-.02.24.02.07.09.1.22.15.33l.08-.09Z"/>
            <polygon class="l" points="130.15 388.06 130.24 388.31 130.01 388.29 130.15 388.06"/>
            <path class="l" d="m136.99,384.14l.24.27c-.09.08-.19.22-.27.22-.08,0-.16-.16-.24-.25l.27-.24Z"/>
            <polygon class="l" points="169.52 383.56 169.59 383.77 169.39 383.74 169.52 383.56"/>
            <path class="l" d="m174.82,374.42l.21.23c-.08.07-.16.2-.23.19-.07,0-.14-.14-.21-.22l.23-.21Z"/>
            <path class="l" d="m137.71,374.4l.2.23c-.08.06-.16.18-.24.18-.07,0-.14-.14-.2-.22l.24-.19Z"/>
            <polygon class="l" points="100.76 370.79 100.52 370.89 100.54 370.64 100.76 370.79"/>
            <path class="l" d="m164.45,366.04c-.05-.1-.11-.2-.14-.3-.01-.05.05-.11.07-.17l-.02.55.09-.09Z"/>
            <path class="l" d="m122.68,363.39l.09.07-.09-.07Z"/>
            <polygon class="l" points="119.73 363.22 119.5 363.31 119.52 363.09 119.73 363.22"/>
            <polygon class="l" points="173.29 362.39 173.35 362.59 173.18 362.56 173.29 362.39"/>
            <path class="l" d="m159.86,359.43l-.23.18c-.06-.08-.17-.16-.16-.23,0-.07.14-.12.21-.19l.18.23Z"/>
            <path class="l" d="m101.04,359.84l-.36-.33c.07.03.17.05.2.1.05.09.05.21.07.32l.09-.09Z"/>
            <path class="l" d="m125.02,357.07c0,.07.02.16-.02.21-.15.18-.3.13-.41-.14-.01-.03.13-.15.22-.18.05-.02.14.07.21.11Z"/>
            <path class="l" d="m134.38,354.48l-.56-.18c.49-.54.36.1.49.26l.08-.08Z"/>
            <polygon class="l" points="128.81 347.38 128.56 347.47 128.58 347.23 128.81 347.38"/>
            <path class="l" d="m138.5,343.81l-.22-.13.24-.34c.07.08.2.16.2.24,0,.08-.14.15-.22.22Z"/>
            <path class="l" d="m105.93,335.04c.08.09.22.17.22.26,0,.08-.15.16-.24.24-.08-.09-.22-.17-.22-.26,0-.08.15-.16.24-.24Z"/>
            <path class="l" d="m172.74,332.98c-.08.07-.17.21-.25.2-.08,0-.15-.15-.23-.23.08-.07.17-.21.25-.2.08,0,.15.15.23.23Z"/>
            <polygon class="l" points="161.87 330.16 161.79 329.93 162 329.96 161.87 330.16"/>
            <path class="l" d="m117.29,329.7l.23.25c-.09.07-.18.21-.26.21-.08,0-.15-.15-.23-.23l.26-.22Z"/>
            <path class="l" d="m156.67,327.4l.23.26c-.09.08-.18.22-.26.21-.08,0-.15-.16-.23-.24l.26-.23Z"/>
            <path class="l" d="m169.32,323.58c-.08-.03-.22-.1-.23-.08-.16.25-.1.31.15.17l.08-.09Z"/>
            <path class="l" d="m169.24,323.67l.08-.09-.08.09Z"/>
            <path class="l" d="m125.81,321.58l-.23.18c-.06-.08-.16-.16-.16-.23,0-.07.14-.12.21-.18l.17.23Z"/>
            <polygon class="l" points="100.42 318.4 100.26 318.5 100.5 318.48 100.42 318.4"/>
            <polygon class="l" points="165.7 318.01 165.6 317.77 165.84 317.79 165.7 318.01"/>
            <path class="l" d="m100.5,318.48l-.07-.59c.03.06.08.11.08.17-.01.12-.05.23-.08.34l.07.08Z"/>
            <polygon class="l" points="96.08 313.53 95.98 313.28 96.21 313.3 96.08 313.53"/>
            <polygon class="l" points="143.2 309.82 143.13 310.02 143.29 309.89 143.2 309.82"/>
            <path class="l" d="m128.25,310.7c.15-.43.49-.64.91-.75l-.09-.08-.88.77.07.07Z"/>
            <polygon class="l" points="144.11 309.16 143.2 309.82 143.29 309.89 144.21 309.26 144.11 309.16"/>
            <polygon class="l" points="104.28 309.49 104.49 309.43 104.46 309.62 104.28 309.49"/>
            <path class="l" d="m144.21,309.26l.22-.47c-.01.07,0,.15-.04.19-.08.07-.18.12-.28.18l.09.1Z"/>
            <polygon class="l" points="127.14 308.23 126.92 308.11 127.16 307.79 127.38 308.03 127.14 308.23"/>
            <polygon class="l" points="135.48 307.08 135.56 307.32 135.33 307.29 135.48 307.08"/>
            <polygon class="l" points="94.47 307.36 94.41 307.16 94.6 307.19 94.47 307.36"/>
            <path class="l" d="m133.36,306.24l.53.12c-.07.01-.16.05-.2.03-.09-.06-.16-.16-.24-.24l-.09.1Z"/>
            <path class="l" d="m175.49,305.19l-.19-.23c.08-.06.16-.18.24-.17.07,0,.13.14.19.22l-.24.18Z"/>
            <polygon class="l" points="113.54 304.76 113.62 305 113.41 304.97 113.54 304.76"/>
            <polygon class="l" points="127.21 304.29 126.93 304.37 126.98 304.12 127.21 304.29"/>
            <polygon class="l" points="177.83 302.89 177.74 302.66 177.96 302.68 177.83 302.89"/>
            <polygon class="l" points="110.64 302.65 110.38 302.76 110.4 302.5 110.64 302.65"/>
            <polygon class="l" points="96.1 302.84 96.01 302.62 96.23 302.64 96.1 302.84"/>
            <path class="l" d="m143.15,301.85l-.2.21c-.06-.07-.18-.14-.18-.21,0-.07.12-.14.19-.2l.19.21Z"/>
            <polygon class="l" points="101.67 302.23 101.87 302.26 101.75 302.11 101.61 302.29 101.67 302.23"/>
            <path class="l" d="m129.67,300.45c-.09.08-.19.23-.28.22-.09,0-.17-.16-.25-.26.09-.08.19-.23.28-.22.09,0,.17.16.25.25Z"/>
            <polygon class="l" points="102.7 298.13 102.92 298.04 102.9 298.26 102.7 298.13"/>
            <polygon class="l" points="155.93 297.21 156.23 297.13 156.02 297.25 155.93 297.21"/>
            <polygon class="l" points="134.49 295.85 134.72 295.77 134.69 295.98 134.49 295.85"/>
            <polygon class="l" points="182.31 293.74 182.24 293.53 182.45 293.56 182.31 293.74"/>
            <path class="l" d="m162.27,293.06c-.38.33-.16-.35-.15.15,0,.19.16.16.1-.08l.05-.07Z"/>
            <polygon class="l" points="150.63 291.86 150.72 292.11 150.49 292.09 150.63 291.86"/>
            <path class="l" d="m122.53,290.74c-.06-.08-.18-.15-.17-.22,0-.07.13-.13.2-.2.06.08.18.15.17.22,0,.07-.13.13-.2.2Z"/>
            <path class="l" d="m125.55,290.08c-.07-.09-.2-.18-.19-.25,0-.08.15-.14.23-.21.07.09.2.18.19.25,0,.08-.15.14-.23.21Z"/>
          </g>
        </g>
        <path class="g" d="m102.25,427.63c.07,1.94.7,7.68-.38,9.78-.78,1.53-7.08,1.69-7.95.14-1.4-2.49-.21-8.04-.34-10.78-.3-6.24-1.41-12.53-1.44-18.8-.06-12.69-1.24-25.24-2.42-37.86-1.8-19.19-1.88-38.69-2.11-57.95-.05-4.24.25-8.5.42-12.74.31-8.03-4.65-24.19,8.37-22.77,2.23.24,1.18,7.07,1.06,8.21-1.04,9.55-1.13,19.33-1.2,28.93-.13,17.44-.04,35.23,1.44,52.62.4,4.69,1,9.36,1.58,14.03.29,2.36.58,4.72.83,7.08.24,2.28.74,4.78.61,7.07-.16,2.91-.26,5.66.28,8.56.19,1.05,1.08,20.07,1.11,20.78.05,1.23.1,2.46.15,3.69Z"/>
        <path class="g" d="m165.97,281.08c1.02.46-.18,4.85-.19,5.58-.02,6.26-.13,12.46-.31,18.7-.42,14.68-1.12,29.4-.72,44.1.19,6.91-.18,13.88.09,20.79.29,7.32.96,14.69.94,22.02-.02,7.01.15,13.98.04,20.98-.08,4.69.02,9.36.01,14.04-.01,3.31.52,12.63-1.06,15.72-.38.75-6.04,1.89-6.59.92-1.29-2.29-.59-6.22-.9-8.76-.93-7.62-.8-15.48-.99-23.22-.39-15.83-1.53-31.76-1.07-47.57.44-15.24,2.6-30.57,2.39-45.81-.14-9.93-1.67-19.59.16-29.43.29-1.54.07-6.64,1.33-7.54,2.91-2.09,4.87-1.43,6.88-.54Z"/>
      </g>
    </g>
  </g>
</svg>