<?xml version="1.0" encoding="UTF-8"?>
<svg width="752pt" height="752pt" version="1.1" viewBox="0 0 752 752" xmlns="http://www.w3.org/2000/svg">
 <path d="m365.44 322.86c-2.9609 1.543-5.5469 3.8516-7.4766 6.6719-0.67578 0.98438-0.42188 2.3359 0.5625 3.0117 0.375 0.26172 0.80078 0.38281 1.2266 0.38281 0.69141 0 1.3672-0.32812 1.7852-0.9375 1.5391-2.2461 3.582-4.0664 5.9102-5.2891 1.0664-0.55469 1.4766-1.8594 0.91797-2.9258-0.55469-1.0547-1.8711-1.4609-2.9258-0.91406zm79.328-37.754c-4.3477-3.3242-11.293-5.1211-18.594-4.8008-6.7852 0.29297-13.043 2.3477-17.18 5.6211-0.93359 0.74219-1.0898 2.1094-0.35156 3.0469 0.4375 0.53906 1.0703 0.82031 1.7031 0.82031 0.46875 0 0.94141-0.15234 1.3438-0.46875 1.6758-1.3398 3.9023-2.4531 6.4219-3.2578 0.007813 3.5625 2.9062 6.4648 6.4805 6.4648 3.5664 0 6.4688-2.9062 6.4688-6.4727 0-0.44922-0.050781-0.88672-0.13281-1.3125 4.5039 0.41797 8.5156 1.7578 11.191 3.8086 0.94141 0.73047 2.3125 0.54297 3.0469-0.40234 0.73438-0.94922 0.55078-2.3164-0.39844-3.0469zm-20.164 3.0898c-1.1797 0-2.1445-0.96094-2.1445-2.1406 0-0.375 0.10547-0.73047 0.29297-1.0508 1.1211-0.17578 2.2695-0.29688 3.4492-0.35938 0.33984 0.38672 0.53906 0.88281 0.53906 1.4062-0.007813 1.1836-0.96094 2.1445-2.1367 2.1445zm46.812 39.527c-7.2344 0-12.918 9.2344-12.918 21.012 0 11.781 5.6719 21.012 12.918 21.012 6.9297 0 11.578-8.4375 11.578-21.012 0.007812-12.562-4.6484-21.012-11.578-21.012zm-8.582 21.016c0-2.0742 0.22656-4.0898 0.625-5.9688 0.33984 4.7891 0.69141 10.02 0.99609 15.43-1.0039-2.7305-1.6211-6.0039-1.6211-9.4609zm8.582 16.676c-0.77734 0-1.5469-0.24219-2.2891-0.66797-0.49219-11.098-1.2969-21.992-1.9492-30.328 1.2852-1.4766 2.7227-2.3594 4.2422-2.3594 4.207 0 7.2422 7.0156 7.2422 16.676s-3.043 16.68-7.2461 16.68zm-24.785-93.613c-5.4258-4.5312-12.48-5.4805-17.445-5.4805-7.1445 0-15.336 2.3281-22.48 6.3945-0.98047 0.5625-1.9805 0.84766-2.9492 0.84766-0.75391 0-1.2227-0.17578-1.2227-0.17578-0.66406-0.27344-1.4062-0.20312-2.0039 0.18359-0.60156 0.38672-0.96484 1.043-0.98438 1.7539-0.023437 0.61719 0.28516 2.582 1.8789 4.2422 1.0703 1.0977 3.0625 2.4023 6.5508 2.4062h0.007813c2.9062 0 6.5195-0.91016 10.734-2.707 6.3086-2.7031 12.422-4.082 17.062-3.8359 4.4844 0.25 7.6211 2.2578 8.9648 3.1172 0.67578 0.42969 1.1445 0.73828 1.8711 0.73828 1.3086 0 2.3281-0.64844 2.7148-1.7305 0.60156-1.6953-0.39844-3.8438-2.6992-5.7539zm-29.613 3.4648c-3.6602 1.5664-6.707 2.3633-9.0312 2.3633-0.57422 0-1.0664-0.046875-1.4766-0.13672 0.78516-0.23047 1.582-0.57422 2.3477-1.0117 6.4141-3.6523 14.012-5.8242 20.34-5.8242 1.5312 0 3.2969 0.10547 5.1328 0.40625-4.9805 0.0625-11.113 1.5508-17.312 4.2031zm-51.035-114.49c-1.7656 0.31641-3.4648 0.68359-5.0781 1.0703-1.1641 0.28516-1.875 1.4531-1.6016 2.6172 0.25 0.98828 1.1211 1.6562 2.1094 1.6562 0.16406 0 0.33984-0.019532 0.50781-0.0625 1.5234-0.37109 3.1523-0.71094 4.8359-1.0195 1.1797-0.21484 1.9609-1.3438 1.7422-2.5195-0.20312-1.1797-1.3398-1.957-2.5156-1.7422zm21.113 129.96c-1.1133-0.44922-2.3711 0.085938-2.8281 1.1953-0.16406 0.40625-4.0625 10.152-3.7617 22.164 0.015626 0.67578-0.71875 1.6016-1.9883 2.4805-0.98438 0.68359-1.2344 2.0312-0.54297 3.0156 0.42578 0.60547 1.0938 0.93359 1.7852 0.93359 0.42188 0 0.85156-0.12891 1.2305-0.38672 2.5859-1.7891 3.9102-3.918 3.8555-6.1523-0.29297-11.035 3.375-20.266 3.4375-20.426 0.46094-1.1094-0.078125-2.3789-1.1875-2.8242zm-11.594-4.8125c-4.1289-3.2734-10.387-5.3281-17.172-5.6211-7.3008-0.31641-14.254 1.4766-18.594 4.8008-0.95703 0.73047-1.1367 2.0898-0.40625 3.0391 0.73047 0.95312 2.082 1.1328 3.0508 0.40234 2.6719-2.0547 6.6719-3.3867 11.176-3.8047-0.089844 0.42187-0.125 0.86328-0.125 1.3086 0 3.5664 2.8984 6.4727 6.4688 6.4727 3.5625 0 6.4609-2.8984 6.4648-6.4648 2.5273 0.80469 4.7461 1.918 6.4414 3.2578 0.39844 0.31641 0.87109 0.46875 1.3398 0.46875 0.64844 0 1.2773-0.28125 1.6953-0.82031 0.75391-0.92969 0.59766-2.2969-0.33984-3.0391zm-15.598 2.2695c-1.1836 0-2.1406-0.96094-2.1406-2.1406 0-0.52734 0.20312-1.0195 0.53906-1.4062 1.168 0.058593 2.3203 0.18359 3.4531 0.35937 0.17969 0.31641 0.28906 0.67578 0.28906 1.0508-0.007813 1.1758-0.96484 2.1367-2.1406 2.1367zm31.973-129.52c-7.3008 0-14.5 0.44922-20.828 1.3008-1.1836 0.16016-2.0234 1.25-1.8711 2.4375 0.16016 1.1836 1.2656 2.0156 2.4531 1.8594 6.1406-0.82812 13.137-1.2656 20.246-1.2656h1.1211c7.6445 0 18.902 0.49219 29.125 2.8555 0.15625 0.039063 0.32031 0.058594 0.49219 0.058594 0.98437 0 1.875-0.68359 2.1094-1.6797 0.27344-1.168-0.46094-2.3281-1.625-2.6016-10.617-2.4492-22.23-2.9609-30.098-2.9609zm37.195 139.13 7.9531-1.6914c2.832-0.60156 1.9336-4.8398-0.89062-4.2422l-7.9648 1.6914c-2.8242 0.60547-1.918 4.8438 0.90234 4.2422zm-73.969-4.2383-7.957-1.6914c-2.832-0.60156-3.7227 3.6367-0.89453 4.2422l7.957 1.6914c2.8242 0.59766 3.7227-3.6406 0.89453-4.2422zm-41.09 34.59c-6.9219 0-11.578 8.4375-11.578 21.012 0 12.562 4.6562 21.016 11.578 21.016 7.2461 0 12.926-9.2266 12.926-21.016-0.003906-11.781-5.6797-21.012-12.926-21.012zm0.58594 37.625c-0.19922 0.027344-0.39453 0.066406-0.58594 0.066406-4.207 0-7.2344-7.0078-7.2344-16.676 0-9.6641 3.0469-16.676 7.2344-16.676 0.53125 0 1.0625 0.11719 1.5742 0.3125-0.44531 10.285-0.79297 21.59-0.98828 32.973zm4.4141-3.2773c0.16406-8.8594 0.42969-17.523 0.73828-25.484 1.7188 3.0859 2.8516 7.4531 2.8516 12.145 0 5.332-1.4531 10.254-3.5898 13.34zm87.102-45.934c-1.2695-0.88281-2.0156-1.8047-2-2.4805 0.30469-12.012-3.5898-21.758-3.7539-22.164-0.45312-1.1094-1.7148-1.6445-2.8281-1.1953-1.1016 0.44922-1.6484 1.7148-1.1992 2.8281 0.039062 0.089844 3.7266 9.3047 3.4531 20.422-0.066406 2.2344 1.2773 4.3633 3.8438 6.1523 0.37891 0.26172 0.80859 0.38672 1.2461 0.38672 0.6875 0 1.3594-0.32812 1.7773-0.93359 0.67188-0.97656 0.44141-2.332-0.53906-3.0156zm35.301-7.6797c-6.7188-3.6797-15.48-5.707-24.664-5.707-1.7578 0-3.5156 0.070312-5.2266 0.21875-1.1992 0.097656-2.082 1.1523-1.9805 2.3438 0.097656 1.1953 1.1602 2.0703 2.3438 1.9766 1.6016-0.13672 3.2383-0.20312 4.8633-0.20312 8.4648 0 16.48 1.8359 22.594 5.1719 0.32812 0.18359 0.69141 0.26953 1.043 0.26953 0.76172 0 1.5078-0.40625 1.8984-1.1289 0.57422-1.0469 0.18359-2.375-0.87109-2.9414zm83.801-112.56c-11.285-14.445-21.023-25.363-31.594-31.742-12.934-7.8047-23.77-11.602-33.129-11.602-3.3008 0-6.4648 0.48828-9.3867 1.4414-2.3594 0.77344-4.6172 1.8594-6.7422 3.2578-12.531-10.406-37.082-12.047-51.363-12.047h-1.1211c-14.27 0-38.805 1.6484-51.352 12.059-2.1328-1.4023-4.3945-2.4961-6.7617-3.2695-2.9219-0.95312-6.0742-1.4414-9.3828-1.4414-9.3672 0-20.203 3.7969-33.129 11.602-10.555 6.3711-20.309 17.297-31.586 31.742-24.41 10.844-53.297 28.324-53.297 50.328 0 10.773 16.102 21.078 25.707 26.262 16.195 8.7461 37.258 15.742 59.66 19.852 0.38281 6.832 3.4414 15.027 9.2383 24.871 0.57422 0.98047 1.2461 2.0273 1.9609 3.0938-7.043 5.9688-11.531 16.707-11.531 28.434 0 15.836 7.7148 28.922 18.523 32.43-0.074219 21.211 0.53516 38.383 1.7773 49.871 0.046874 0.45312 0.14844 0.90625 0.29297 1.3594 0.64453 2.5039 2.6953 4.4453 5.2383 4.9102 0.40234 0.074219 0.81641 0.11719 1.2227 0.11719 0.41016 0 0.81641-0.046875 1.2109-0.11719-0.13672 18.836 0.074219 36.344 0.64062 52.324-0.070312 0.98828 0.089844 1.9805 0.45312 2.9023 0.97656 2.5898 3.457 4.3203 6.2266 4.3203h0.23828l0.097656-0.007812c2.6172-0.11719 4.8086-1.7188 5.7812-3.9883 0.75391 16.898 1.6445 31.996 2.6953 45.602 0.070312 0.81641 0.28906 1.6094 0.64062 2.3398 0.91797 2.1094 2.875 3.6094 5.2266 3.9414 0.29297 0.046875 0.58594 0.066406 0.88281 0.066406 3.293 0 6.1328-2.4688 6.6016-5.7344 0.57422-4.0508 1.1602-8.3828 1.7539-12.984 2.8906 13.477 6.2383 26.262 9.8633 37.5 0.6875 3.0352 3.3477 5.1797 6.4922 5.1797h0.28516c1.7773-0.074219 3.4297-0.83203 4.6367-2.1445 1.207-1.3008 1.832-3.0156 1.7539-4.793-0.30859-7.3281-0.5625-14.781-0.78516-22.359 2.8945 6.8984 6.1406 13.449 9.6953 19.629 0.046875 0.085938 0.09375 0.14844 0.14062 0.24219 0.85156 5.9961 1.7344 11.754 2.7852 18.082 0.51953 3.2383 3.2852 5.5898 6.5742 5.5898 0.37109 0 0.75-0.039062 1.0859-0.09375 0.63281-0.097656 1.2461-0.29297 1.832-0.58203 0.14844-0.074219 0.29297-0.14844 0.44141-0.24219 0.13672-0.074219 0.27344-0.15625 0.33594-0.20312 0.28906-0.18359 0.55469-0.39844 0.82422-0.64062l0.13672-0.12891c0.87109-0.84375 1.4961-1.8867 1.8203-3.0547 0.83984-3.0781 1.6641-6.8008 2.4375-11.121 0.17969 9.3359 0.26953 18.555 0.24219 27.602 0 1.7852 0.6875 3.457 1.9375 4.7188 1.2656 1.2695 2.9375 1.9609 4.7227 1.9688h0.003906c2.9062 0 5.4375-1.8711 6.3359-4.5977 0.050781-0.12891 0.10547-0.28906 0.15625-0.45312 3.1484-10.027 5.8945-21.395 8.1016-33.492 0.46875 0.097656 0.95703 0.15625 1.4531 0.15625 0.16406 0 0.33594-0.007812 0.52734-0.019531 2.8594-0.18359 5.1719-2.1836 6.0352-5.2266 2.0117-6.3555 3.7109-12.965 5.1133-19.816 0.95312 0.52734 2.0664 0.83203 3.2539 0.85156 3.2812 0 6.0508-2.3477 6.582-5.5977 0.007813-0.058594 0.48828-2.9883 1.1953-7.9102 0.5625 0.15625 1.1406 0.23047 1.7461 0.23047 3.3203-0.039063 6.1406-2.5508 6.5508-5.8516 0.058594-0.49609 1.1211-9.3867 2.0703-21.582h0.097656c0.41797 0 0.83984-0.039063 1.2344-0.097656 2.4102-0.46484 4.3672-2.1914 5.125-4.5039 0.26562-0.67578 0.40625-1.3594 0.46094-2.0781 0.79688-13.285 1.0625-33.633 0.75391-52.891 2.543-0.64844 4.4375-2.8242 4.957-5.8008 2.793-13.965 4.043-30.801 3.8398-51.355 11.516-2.6289 20.316-16.387 20.316-32.918 0-12.754-5.2148-24.113-13.164-29.699 0.29688-0.47656 0.59375-0.9375 0.86328-1.3906 5.6797-9.6602 8.7227-17.723 9.2109-24.48 22.93-3.9961 44.531-11.012 61.215-19.898 9.8477-5.2422 26.355-15.676 26.355-26.609-0.054688-21.969-28.883-39.441-53.344-50.309zm-55.496 176.94c-8.5352 0-15.473-11.008-15.473-24.527 0-13.527 6.9375-24.527 15.473-24.527s15.477 10.996 15.477 24.527c0 13.52-6.9414 24.527-15.477 24.527zm-6.1758 42.137c-1.2852-13.246-2.3594-27.055-3.1914-41.25 1.3867 1.0859 2.8789 1.9492 4.4414 2.5391 0.28125 13.168 0.023437 26.383-1.25 38.711zm-7.4805 55.285c-0.75391-5.1328-1.4531-10.387-2.0938-15.75-0.007812-0.18359-0.019531-0.37891-0.03125-0.5625-0.007812-0.18359-0.058594-0.37109-0.097656-0.54297-2.6289-21.914-4.4141-45.676-5.3008-70.629 2.2305 11.344 4.6211 21.875 6.8633 31.258-0.042969 0.18359-0.070312 0.37109-0.058594 0.57422 0.8125 16.344 1.0508 37.672 0.71875 55.652zm-53.379-77.352c-0.042969 3.2578-0.09375 7.1875-0.12891 12.527-0.55469 67.605-4.4141 128.52-9.8789 159.18-4.625-30.801-7.9297-64.09-9.8125-99.16-0.30469-5.6328-0.58203-11.043-0.82422-16.324 0.023437-0.066406 0.058593-0.11719 0.082031-0.18359 4.1758-14.645 8.5352-63.758 9.4375-89.664 1.9883-0.1875 3.9414-0.44141 5.8516-0.75 0.46484 5.9727 2.4492 10.629 5.2617 14.02 0.15234 9.0664 0.10156 13.164 0.011719 20.352zm-34.691 96.527c-0.019532-0.10938-0.050782-0.22266-0.097656-0.33203v-2.0781c0-35.238 1.0977-68.059 3.5938-106.42l0.082031-1.332c1.8945-0.28125 3.7539-0.76562 5.4883-1.6211-1.0273 31.637-0.23828 56.48 1.4766 88.047 1.4961 27.879 3.8945 54.648 7.1367 79.938-8.2383-16.695-14.312-35.91-17.68-56.203zm-0.83594-109.12c-0.98047 15.316-1.7578 29.746-2.3242 43.805-4.5508-12.637-9.3516-33.25-10.555-48.633 3.4648 2.4727 7.1758 3.9453 11.062 4.043 0.51172 0.019531 1.0391 0.027343 1.5586 0.027343 0.097656 0 0.21875-0.007812 0.31641-0.007812zm-47.852 32.754c-0.46484-10.75-0.59375-23.184-0.49219-35.82 2.1641-0.49609 4.2148-1.5117 6.0859-2.957-1.6875 13.254-3.5469 26.238-5.5938 38.777zm-3.5938-39.809c-8.5352 0-15.473-10.996-15.473-24.523 0-13.527 6.9375-24.535 15.473-24.535 8.5391 0 15.473 11.008 15.473 24.535-0.011719 13.52-6.9492 24.523-15.473 24.523zm-99.895-131.13c0.03125-0.14844 0.050782-0.29297 0.050782-0.44531 3.1445-11.188 17.613-23.477 40.957-34.742-0.49219 0.64844-0.99609 1.2969-1.4922 1.9492-2.8125 3.6953-5.6719 7.4453-8.5625 11.113-13.02 8.4102-21.164 16.949-24.234 25.402-3.3711 2.0742-4.8359 1.6992-5.2422 1.5-1.4844-0.70703-1.6211-4.0312-1.4766-4.7773zm115.22-79.746c3.3203 1.0859 6.1328 3.0156 8.6133 5.5547 0.027344 0.027343 0.058594 0.0625 0.085937 0.089843 1.0312 1.0547 1.9922 2.2148 2.9141 3.4648 0.082031 0.29297 0.21484 0.58594 0.42578 0.83203 0.12891 0.15234 0.28516 0.27344 0.44141 0.37891 3.8711 5.6953 6.9297 12.965 10.074 20.469 7.418 17.711 15.848 37.785 38.293 37.785 0.19531 0 0.37891-0.03125 0.55859-0.082031 0.17578 0.046874 0.36328 0.082031 0.55859 0.082031 22.453 0 30.867-20.074 38.289-37.785 5.8516-13.961 11.375-27.145 22.559-30.789 8.6367-2.8164 20.156 0.23047 35.215 9.3242 12.332 7.4453 24.895 23.902 37.035 39.82 5.918 7.7617 12.051 15.785 18.184 22.836 10.027 11.535 17.266 17.074 22.43 17.074 0.085937 0 0.14844-0.003907 0.22266-0.007813-8.7422 9.9766-38.02 26.441-81.684 33.289-0.26172-0.66016-0.51562-1.375-0.5625-1.375-0.94531-1.6445-2.2695-3.0547-3.9531-4.2305-4.2578-2.9414-10.055-1.7891-16.645 3.1719-0.085938-8.6016-4.4961-16.645-12.527-23.277-0.19531-0.23047-0.42188-0.42188-0.69141-0.5625-4.7539-3.7852-10.703-7.0938-17.715-9.7383-11.797-4.457-25.773-6.8164-40.406-6.8164-30.289 0-55.23 7.6797-66.719 20.535-5.2422 5.8633-7.6211 12.621-7.0898 20.098-6.7266-5.1797-12.641-6.4062-16.965-3.418-2.0352 1.4062-3.5234 3.1602-4.4883 5.2461-42.457-7.0469-70.938-23.125-79.523-32.938 0.082031 0 0.14062 0.007812 0.22656 0.007812 5.1562 0 12.402-5.5391 22.43-17.074 6.1328-7.0508 12.246-15.078 18.184-22.836 12.137-15.918 24.703-32.371 37.02-39.82 15.051-9.0742 26.574-12.125 35.211-9.3086zm109.71 3.6758c-0.46875 0.51953-0.91797 1.0547-1.3633 1.6094-1.5234-1.0312-3.2578-1.9922-5.1875-2.8594-1.0859-0.49219-2.3711-0.003906-2.8594 1.0859-0.49219 1.0938-0.007812 2.3789 1.0898 2.8633 1.6523 0.73828 3.1055 1.5547 4.4102 2.4141-3.7109 5.6328-6.6602 12.359-9.5312 18.938-7.5664 17.312-14.719 33.672-34.305 33.672-0.19531 0-0.38281 0.03125-0.55859 0.085937-0.18359-0.046875-0.36328-0.085937-0.55859-0.085937-19.602 0-26.738-16.359-34.301-33.672-2.8789-6.582-5.8242-13.316-9.5508-18.941 1.9766-1.3125 4.375-2.5 7.1836-3.5312 1.1211-0.41016 1.7031-1.6641 1.2891-2.7852-0.42188-1.1211-1.6719-1.6953-2.7891-1.2852-3.1875 1.1758-5.9375 2.543-8.2266 4.0859-0.44531-0.55078-0.89062-1.0859-1.3516-1.6016 6.3164-7.5625 23.875-12.027 47.746-12.027h1.1172c23.773 0.003906 41.457 4.4883 47.746 12.035zm21.223 148.36c0.51563 0 1.0508-0.1875 1.4727-0.57422 4.6992-4.3398 7.5312-11.262 7.9922-19.516 0.95703-0.69141 1.9609-1.2891 2.9883-1.7773 1.0859-0.51172 1.5352-1.8047 1.0273-2.8906-0.50781-1.0781-1.8047-1.5391-2.8906-1.0234-4.0742 1.9375-7.7617 5.2266-10.73 9.4727-0.09375-0.125-0.1875-0.24219-0.30469-0.34766 0.03125-0.23047 0.09375-0.46094 0.10938-0.69141 0.16016-1.1875-0.68359-2.2773-1.8672-2.4336-1.1992-0.16016-2.2734 0.68359-2.4375 1.8672-0.19922 1.5469-0.49219 3.0195-0.89063 4.3789-1.6133 5.6484-4.3203 7.7109-4.3281 7.7109-0.0625 0.042968-0.10938 0.089844-0.16016 0.13672-11.738 10.121-12.574 12.836-13.699 20.699l-0.0625 0.41797c-0.16406 1.1836 0.66406 2.2891 1.8477 2.457 0.097656 0.007813 0.20312 0.023438 0.30859 0.023438 1.0625 0 1.9844-0.78516 2.1367-1.8672l0.066407-0.42578c0.95312-6.6992 1.207-8.5039 12.16-17.969 0.22266-0.16406 0.6875-0.54297 1.2773-1.1836-2.8242 15.137-7.7812 34.762-15.93 48.348-0.91016-1.4531-2.0703-3.0352-3.457-4.7656-4.3398-5.3477-10.211-10.949-15.699-14.977-6.6094-4.8398-13.332-8.2148-18.539-9.4023 0.69141-0.22656 1.3438-0.37109 1.8945-0.37109h2.2656c2.3945 0 3.2188-1.8516 1.7188-3.7188-0.46094-0.56641-2.6484-2.2695-5.3594-1.6758-1.1406 0.25-1.8281 0.58594-2.5586 1.1523-0.18359 0.14062-0.88672 0.72266-0.88672 0.72266-0.46875 0.39844-0.95703 0.77734-1.7031 1.0977-0.59375 0.25-1.3867 0.49219-2.4844 0.64844-0.78906 0.10547-1.7031 0.17578-2.7734 0.17969-1.0664-0.003907-1.9844-0.070313-2.7695-0.17969-1.1133-0.16016-1.9023-0.39844-2.4922-0.64844-0.75391-0.32031-1.25-0.69922-1.7109-1.0977 0 0-0.69141-0.58594-0.88672-0.72266-0.72266-0.5625-1.4062-0.89844-2.5586-1.1523-2.707-0.59375-4.9023 1.1016-5.3555 1.6758-1.4961 1.8672-0.6875 3.7188 1.7148 3.7188h1.3828c-4.7031 1.5898-10.25 4.5938-15.703 8.5938-5.6055 4.1055-11.57 9.6289-15.965 14.762-1.4453 1.6914-2.582 3.1719-3.4609 4.4844-7.8281-13.098-13.809-31.051-16.195-45.09 10.477 9.0938 10.75 10.949 11.688 17.551l0.0625 0.42578c0.15234 1.0859 1.0859 1.8594 2.1445 1.8594 0.097656 0 0.20312-0.007813 0.29688-0.019531 1.1953-0.16406 2.0117-1.2695 1.8438-2.457l-0.066406-0.41797c-1.1016-7.8633-1.9492-10.574-13.684-20.699-0.058594-0.046875-0.10938-0.09375-0.17578-0.13672-0.027344-0.015625-1.6797-1.2891-3.1914-4.5977-0.042969-0.17969-0.11719-0.34766-0.21875-0.50391-0.75-1.7656-1.4258-4.0586-1.8125-6.9961-0.14844-1.1836-1.2461-2.0273-2.4297-1.8672-0.80469 0.10547-1.4453 0.64063-1.7188 1.3398-2.6562-3.2266-5.7539-5.7461-9.1211-7.3438-1.0859-0.51953-2.3789-0.058594-2.8906 1.0234-0.51562 1.0859-0.050781 2.3789 1.0273 2.8906 1.0312 0.48828 2.0273 1.0859 2.9883 1.7773 0.46094 8.25 3.2852 15.18 7.9922 19.516 0.41016 0.38281 0.93359 0.57422 1.4688 0.57422 0.58594 0 1.168-0.23047 1.5977-0.69531 0.019531-0.023438 0.027344-0.046875 0.046875-0.070313 0.62891 3.457 1.4805 7.2617 2.5391 11.223-3.1719-3.1602-7.0039-5.0117-11.133-5.0117-0.67188 0-1.3164 0.050781-1.9688 0.14062-2.1484-2.6289-3.9609-5.2422-5.1602-7.2852-6.2734-10.676-12.109-24.551-4.1523-30.043 4.7812-3.3047 12.91 3.8555 16.188 7.0898 0.55859 0.55469 1.3438 0.73047 2.0703 0.54297 0.042968 0.003907 0.097656 0.015625 0.13672 0.015625 0.63281 0 1.2695-0.28125 1.6875-0.80859 6.375-7.9414 9.4062-16.34 10.473-28.984 0.007813-0.089844 0-0.17578-0.003906-0.26563 11.125-7.9375 29.508-13 50.891-13.895-1.9609 2.1836-4.043 4.2852-6.2266 6.2695v0.003907c-5.8906 5.3555-12.516 9.8867-19.707 13.539-1.5742-0.19922-3.1211-0.30859-4.6211-0.30859-4.9648 0-12.023 0.94531-17.453 5.4805-2.2969 1.918-3.3047 4.0664-2.6953 5.75 0.39453 1.0781 1.4062 1.7305 2.7148 1.7305 0.71484 0 1.2031-0.30859 1.875-0.73828 1.332-0.85547 4.4648-2.8594 8.957-3.1172 4.6523-0.25 10.754 1.1328 17.074 3.832 4.207 1.8008 7.8047 2.7148 10.73 2.7148 3.4766 0 5.4727-1.3008 6.5391-2.3945 1.6211-1.6562 1.9219-3.6289 1.9023-4.2422-0.019531-0.70703-0.39844-1.3555-0.98438-1.7422s-1.3438-0.46484-2.0039-0.20703c0 0-0.48438 0.18359-1.2305 0.18359-0.97266 0-1.9609-0.28906-2.9492-0.84766-1.4766-0.84375-3.0156-1.6055-4.5703-2.2969 7.3555-1.8906 14.543-4.5234 21.414-7.8477-3.0469 4.5508-5.9922 9.6289-8.8945 15.328-0.48438 0.94531-0.21484 2.0938 0.64453 2.7266 0.38281 0.28516 0.84375 0.42578 1.2891 0.42578 0.53906 0 1.0859-0.20312 1.4961-0.60156 12.336-11.84 27.406-20.922 43.547-26.316 0.24609-0.085938 0.46094-0.15625 0.66406-0.22656 5.6562 2.2891 10.488 4.9766 14.406 7.9805 1.1367 12.133 4.168 20.324 10.375 28.074 0.42188 0.55078 1.0469 0.83594 1.6758 0.83594 0.050781 0 0.097657-0.007812 0.14844-0.015624 0.70703 0.18359 1.4961 0.007812 2.0664-0.54297 3.2695-3.2344 11.402-10.391 16.176-7.0898 7.9609 5.4922 2.1367 19.371-4.1523 30.043-1.1016 1.8906-2.7422 4.2891-4.6914 6.7266-4.6172 0.10938-8.8398 2.5273-12.176 6.4922 1.0547-4.3398 1.9805-8.6523 2.7695-12.82 0.097656 0.21484 0.21484 0.41797 0.37891 0.59766 0.41797 0.47656 1 0.70312 1.5938 0.70312zm-1.5312-3.6914c0.058594-0.33203 0.10938-0.66016 0.17578-0.98438 0.20703-0.21875 0.37891-0.47266 0.48438-0.77734 1.3359-3.7266 3.1641-7.0469 5.3359-9.793-1.0312 4.8164-3.0781 8.8594-5.9453 11.492-0.015625 0.015625-0.03125 0.039063-0.050782 0.0625zm-77.387 44.629c-2.4766 0-4.9297-0.10937-7.3438-0.3125 0.13281-0.097656 0.28906-0.19531 0.41016-0.29297 1.9805-1.4531 3.8555-2.9688 5.582-4.5117 1.2656 0.058594 2.5117 0.085937 3.7539 0.085937 5.3281 0 10.496-0.47656 15.164-1.3867 1.2188 1.2031 2.5195 2.4141 3.9258 3.6094-6.3477 1.8086-13.824 2.8086-21.492 2.8086zm4.1445 4.2305c-0.71484 20.301-3.1914 49.598-5.9102 69.602-0.50391-17.684-0.50391-34.906 0.21484-54.988 2.8555-3.3086 4.3555-8.1016 4.5625-14.578 0.37891-0.007813 0.75781-0.019532 1.1328-0.035157zm-22.758 184.92c-5.5273-20.457-9.8945-43.613-12.531-66.809 1.25-12.152 2.4922-25.066 3.7031-38.516 2.7578 4.6367 5.5938 8.3984 8.3828 10.957-0.28906 12.219-0.4375 24.391-0.4375 36.867-0.007812 19.438 0.30469 38.703 0.88281 57.5zm-0.29687-100.52c-2.6719-3.2383-5.3594-7.5859-7.9531-12.691-0.082031-0.35937-0.23828-0.69141-0.47266-0.96094-9.9297-20.184-17.992-51.484-16.527-73.566 0.98828 1.8086 2.0156 3.5625 3.082 5.2266-0.89453 2.5234-0.35938 3.9297 0.30859 4.8555 0.85156 1.1641 2.2539 1.7539 4.1562 1.7539 0.097656 0 0.1875-0.007812 0.29297-0.007812 0.86719 1.043 1.7422 2.0234 2.6445 2.9414 0.007812 0.15234 0.007812 0.29688 0.019531 0.46875 0.69922 18.77 8.3164 50.457 14.742 62.176-0.097656 3.2852-0.19531 6.5547-0.29297 9.8047zm-16.723-82.75c2.8906-4.6875 10.414-12.941 19.227-19.406 1.0859-0.78516 2.1445-1.5234 3.1875-2.2109-2.6602 4.0078-5.6641 7.8672-8.7461 11.152-4.1602 4.457-8.9023 8.0664-13.668 10.465zm16.836-7.5039c4.9141-5.2773 9.7031-11.938 13.227-18.398 3.7539-1.7305 6.8594-2.543 8.8242-2.543 1.1172 0 1.6914 0.25 1.875 0.48828 0.29297 0.39453 0.40625 2.2773-2.4688 6.2812-2.7148 3.7891-7.0273 7.9375-12.145 11.691-6.082 4.4609-13.43 8.5703-19.191 10.93 3.4727-2.3242 6.8281-5.1758 9.8789-8.4492zm24.98-11.645c1.7461-2.4336 2.6953-4.4414 3.1289-6.0938 0.22656 1.8477 1.168 4.2227 3.3633 7.2695 0.44141 0.60938 0.91797 1.2344 1.4336 1.8594-3.5039 0.53516-7.2539 0.81641-11.121 0.84375 1.2031-1.3086 2.2852-2.6133 3.1953-3.8789zm10.012-1.3516c-2.8633-3.9961-2.75-5.8867-2.4688-6.2812v-0.003907c3.8047 4.7656 9.8789 9.6328 17.082 13.625 5.6602 3.1406 12.422 6.125 18.539 8.1875 0.019531 0.007813 0.03125 0.007813 0.050781 0.019532 3.6523 4.3477 5.8242 8.0078 5.7773 9.4336-0.097656 0.019531-0.26562 0.039062-0.48828 0.039062-4.4414 0-16.488-6.1055-26.34-13.32-5.1133-3.7656-9.4336-7.9141-12.152-11.699zm3.6562-5.9922c3.9961 1.2109 9.4531 3.8867 15.418 8.2695 2.5508 1.8711 4.9297 3.875 7.1211 5.9102-3.2812-1.4258-6.5312-3.0078-9.4727-4.6367-5.1133-2.8281-9.6797-6.1875-13.066-9.543zm-79.16-24.477c-2.6562-2.6367-4.5742-6.5117-5.5508-11.102 2.168 2.7461 3.9961 6.0664 5.3242 9.793 0.019531 0.046875 0.046874 0.085937 0.0625 0.12891 0.050781 0.39062 0.10547 0.78125 0.16406 1.1797zm5.5039-44.941c0.30469-0.34766 0.63281-0.69141 0.96484-1.0273-1.0781 7.9844-3.2031 14.012-6.8828 19.508 0.019531-0.17578 0.042968-0.35156 0.007812-0.53125-0.75-6.6875 1.2344-12.727 5.9102-17.949zm74.207-11.383c-0.82031-0.66797-1.9805-0.625-2.7578 0.03125-10.234 6.0234-21.41 10.371-32.891 12.836 5.2773-3.168 10.211-6.8242 14.742-10.945 3.1016-2.8242 6.0234-5.8672 8.6797-9.0586 0 0 0.003906-0.003906 0.007813-0.007812l0.33984-0.41797c0.039063-0.039062 0.0625-0.085938 0.089844-0.12891 0.35156 0 0.71094-0.003906 1.0703-0.003906 12.219 0 23.93 1.6953 34.191 4.9219-11.23 4.2422-21.879 10.234-31.402 17.648 2.6094-4.2812 5.2773-8.1016 8.0508-11.559 0.45312-0.42188 0.68359-1.0078 0.67188-1.6055 0.007813-0.64844-0.26562-1.2773-0.79297-1.7109zm-27.82 22.102c0.77344 0.44141 1.5625 0.78125 2.3633 1.0117-0.42969 0.089844-0.91797 0.13672-1.4922 0.13672-2.3203 0-5.3594-0.79688-9.0156-2.3633-2.25-0.95703-4.4688-1.7578-6.6445-2.4023 1.4805-0.20312 2.9648-0.44141 4.4414-0.70703 3.5391 1.0078 7.0898 2.4688 10.348 4.3242zm-22.812-5.7344c-0.046875 0.15234-0.074219 0.3125-0.085937 0.47656-0.89063-0.089844-1.7461-0.15234-2.5703-0.16406 0.89844-0.14453 1.8008-0.24609 2.6562-0.3125zm99.879-4.4141c5.0664 5.4844 7.5117 11.746 6.9766 18.383-3.6367-5.2461-5.8125-10.957-6.9766-18.383zm-122.28 102.11c2.1562-3.4766 3.7266-7.7148 4.5195-12.402-0.89062 11.219 0.60547 24.641 3.5938 37.906-1.6758 30.258-4.9688 57.051-9.832 79.918-0.61719-31.211-0.019532-67.43 1.7188-105.42zm9.4883 61.895c0.82812-7.4258 1.5312-15.121 2.1094-23.086 2.7891 9.2695 6.1914 18.047 9.8477 25.453-2.8008 31.734-5.8008 60.77-8.668 84.207-1.3086-23.105-2.2148-50.02-3.1523-82.84-0.046876-1.4727-0.089844-2.6914-0.13672-3.7344zm25.531-54.695c-4.6641-0.125-9.2148-2.9805-13.469-7.5742 5.2812-1.6211 12.113-5.0703 18.191-8.875 0.097656 0.027344 0.18359 0.058594 0.28906 0.074219 3.6406 0.50781 7.418 0.77734 11.266 0.83984-0.23047 5.75-1.5898 9.918-4.1055 12.352-3.082 3.0078-7.6719 3.3086-12.172 3.1836zm36.273-17.496c2.4375-0.53516 4.7773-1.1758 6.9531-1.918 0.066407 0.046876 0.11328 0.09375 0.17578 0.13281 7.1992 5.2773 16.707 10.797 23.574 13.074-4.5508 4.2422-9.8203 6.6484-15.914 6.2148-6.9531-0.49609-14.078-6.1133-14.789-17.504zm19.969 49.066c0 15.078-1.2852 29.887-3.6992 43.066-1.2422-22.59-2.2578-46.301-3.0352-70.438 0.41797 0.058594 0.82812 0.097656 1.2344 0.13672 0.60156 0.039063 1.1875 0.066407 1.7773 0.066407 0.77344 0 1.5391-0.058594 2.2773-0.11719 0.95312 8.8086 1.4453 17.98 1.4453 27.285zm-14.809-1.3164c0.046876-5.3281 0.097657-9.25 0.14063-12.516 0.070312-6.0859 0.11328-9.9648 0.042968-16.488 1.1211 0.73047 2.3008 1.332 3.5156 1.8047 0.94531 30.023 2.2812 59.449 3.9336 86.855-0.042969 0.28906-0.015625 0.55469 0.046875 0.82422 1.2734 20.961 2.7148 40.711 4.2852 58.645-0.042968 0.13672-0.070312 0.29297-0.09375 0.44531-1.5469 19-4.4648 37.211-8.5352 53.559-0.15234-14.977-0.56641-30.301-1.2539-45.73-0.85547-19.246-2.1445-37.906-3.9492-56.996 1.0312-21.844 1.6758-45.676 1.8672-70.402zm19.148 1.3164c0-9.582-0.51172-19.039-1.4922-28.121 3.3906-1 6.5039-2.7891 9.3594-5.1602 0.097656 5.0391 0.15625 11.672 0.15625 15.672 0 26.621-1.8359 51.965-5.0664 72.879-0.027343 0.12891-0.046875 0.25-0.050781 0.37891-2.1172 13.551-4.8164 25.215-7.9805 34.121-0.71875-9.9883-1.4258-20.379-2.0664-31.078 4.6055-16.594 7.1406-37.418 7.1406-58.691zm-4.25 99.152c3.2852-6.8086 6.2031-16.281 8.625-27.695 0.37891 3.6719 0.76172 7.3438 1.1758 11.055 0.17578 19.699-2.0273 38.75-6.418 55.801-1.2305-11.949-2.3945-25.047-3.4844-39.004 0.03125-0.050781 0.074218-0.097656 0.10156-0.15625zm15.312-78.59c1.9375 24.16 3.7539 44.168 5.4922 60.566-1.0742 10.703-2.3203 20.68-3.3828 28.414-2.543-19.645-4.3516-36.016-5.9531-53.715 1.668-10.758 2.9727-22.66 3.8438-35.266zm1.2969-39.953c-0.027344-5.1602-0.11719-12.84-0.23047-17.324 2.0078-0.097656 3.0703-0.96094 3.6133-1.6992 0.83984-1.1328 1-2.6172 0.49219-4.457 0.48438-0.71875 0.94141-1.4727 1.4062-2.2383 0.49219 33.234 2.5156 64.766 5.9688 93.184 0.64453 14.633-0.33203 31.91-1.3789 44.77-3.0078-25.621-6.2109-62.043-9.8711-112.23zm9.6172-33.508c-0.015624-0.097656-0.046874-0.18359-0.074218-0.28125 0.69141-1.4883 1.3555-3.0156 2-4.5664 0.12891 7.6641 2.3164 14.586 5.7969 19.66 0.75 13.742 1.7109 27.137 2.8789 40.07-3.7383-15.898-7.7266-34.785-10.602-54.883zm115.84-107.63c-0.019531-0.23047-0.074218-0.47266-0.17578-0.69922-3.6367-8.0547-11.887-16.188-24.504-24.176-3.2422-4.1016-6.4648-8.3242-9.6328-12.48-0.50391-0.65234-0.99609-1.3008-1.4883-1.9492 23.387 11.285 37.859 23.59 40.965 34.793 0 0.12891 0.015625 0.26172 0.042969 0.38672 0.13672 0.73828 0.003906 4.0664-1.4766 4.7891-0.33984 0.17578-1.418 0.46094-3.7305-0.66406z" fill="#526c69"/>
</svg>
