<?xml version="1.0" encoding="UTF-8"?>
<svg id="a" data-name="Lager 1" xmlns="http://www.w3.org/2000/svg" viewBox="0 0 540.33 780.95">
  <defs>
    <style>
      .b {
        fill: #a9a9aa;
      }

      .c, .d {
        fill: #fff;
      }

      .d {
        opacity: .18;
      }

      .e {
        fill: #80562c;
      }

      .f {
        fill: #232323;
      }

      .g {
        fill: #0f573f;
      }

      .h {
        fill: #574340;
      }

      .i {
        fill: #a67943;
      }

      .j {
        fill: #cdcccc;
      }

      .k {
        fill: #156e54;
      }

      .l {
        fill: #342c2b;
      }

      .m {
        fill: #084732;
      }

      .n {
        fill: #010101;
        opacity: .21;
      }

      .o {
        fill: #888989;
      }

      .p {
        fill: #26896a;
      }
    </style>
  </defs>
  <rect class="e" x="202.55" y="465.06" width="17.03" height="267.72"/>
  <rect class="i" x="340.8" y="485.44" width="17.02" height="267.73"/>
  <path class="o" d="m349.53,402.34v190.8c0,11.25-46.97,20.37-104.9,20.37s-104.9-9.11-104.9-20.37v-190.8h209.8Z"/>
  <path class="b" d="m334.76,402.34c-20.97,105.01-100.3,183.16-195.03,183.38v-183.38h195.03Z"/>
  <path class="j" d="m252.82,447.68c0,45.03-31.6,81.54-70.58,81.54-15.96,0-30.69-6.12-42.5-16.45v-110.43h101.17c7.52,12.96,11.91,28.56,11.91,45.34Z"/>
  <path class="b" d="m349.53,402.35c0,11.25-46.97,20.37-104.9,20.37-5.57,0-11.02-.08-16.36-.24-13.88-.43-26.85-1.38-38.36-2.74-30.1-3.58-50.18-10.03-50.18-17.38,0-10.33,39.6-18.86,90.92-20.18,4.57-.12,9.24-.18,13.98-.18,3.86,0,7.69.04,11.44.12,52.55,1.1,93.47,9.75,93.47,20.25Z"/>
  <path class="c" d="m256.07,382.1l-5.33,7.73-15.96,23.17-6.51,9.47c-13.88-.43-26.85-1.38-38.36-2.74l9.29-8.57,22.68-20.91,8.76-8.09c4.57-.12,9.24-.18,13.98-.18,3.86,0,7.69.04,11.44.12Z"/>
  <path class="f" d="m162.24,401.45c0,16.48,164.79,15.87,164.79,0s-164.79-16.36-164.79,0Z"/>
  <rect class="i" x="265.53" y="513.23" width="17.03" height="267.73"/>
  <rect class="i" x="133.08" y="485.44" width="17.03" height="267.73"/>
  <polygon class="i" points="265.53 585.73 265.53 598.92 150.12 575.2 150.12 563.16 265.53 585.73"/>
  <polygon class="i" points="282.57 585.73 357.83 563.16 357.83 576.3 282.57 598.92 282.57 585.73"/>
  <path class="e" d="m265.53,598.92l-115.42-23.72v177.97h-10.48c-.07-33.07.15-100.84,2.89-141.28.53-7.83,7.59-43.17,7.59-43.17l115.12,23.16.3,7.05Z"/>
  <polygon class="e" points="357.83 568.72 282.57 591.87 282.57 598.92 340.8 581.42 340.8 753.16 357.82 753.16 357.82 576.3 357.83 576.3 357.83 568.72"/>
  <path class="d" d="m277.71,513.23c-.04,89.8-5.1,166.15-12.18,194.91v-194.91h12.18Z"/>
  <path class="l" d="m263.88,229.54c-4.65,14.92-16.79,56-17.64,71.54-1.13,20.96,9.16,91.58,12.25,112.33-5.41.15-12.09.17-16.52.17-2.6-21.34-11.07-93.63-9-115.06,1.5-15.42,15.65-55.94,21.02-70.52l9.88,1.55Z"/>
  <path class="h" d="m230.56,413.45c-3.57-.07-11.5-.3-15.96-.56,1.83-20.7,7.63-92.18,1.31-111.8-2.99-9.28-21.93-32.89-27.83-39.75,5.62-5.04,3.61-3.24,8.6-7.7,7.26,9.58,29.63,40.64,33.34,52.98,5.63,18.7,1.79,87.19.55,106.83Z"/>
  <path class="h" d="m320.21,253.63c-11.5,15.57-42.9,59.95-47.89,78.87-3.61,13.63.27,66.42,1.33,80.33-5.05.24-14.51.68-20.77.68-.14-5.97-.37-17.99.22-23.95,1.31-11.68,5.66-57.28,10.78-68.61,7.58-16.72,39.67-56.53,51.41-70.53,2.42,1.57,1.29.84,4.93,3.2Z"/>
  <path class="l" d="m222.57,413.23c-3.03-.11-6.75-.27-7.98-.34,1.83-20.7,7.63-92.18,1.31-111.8-2.98-9.27-21.86-32.81-27.83-39.75l4.46-4c4.76,5.8,16.59,20.7,20.8,27.72,4.05,6.77,11.41,21.08,12.82,28.85,3.27,18.02-1.65,80.04-3.59,99.33Z"/>
  <path class="l" d="m317.2,251.68c-12.28,15.69-44.54,57.92-50.65,76.89-4.6,14.26-3.36,69.73-2.93,84.69-2.28.08-8.66.25-10.75.25-.14-5.97-.37-17.99.22-23.95,1.31-11.68,5.66-57.28,10.78-68.61,7.57-16.7,39.72-56.59,51.41-70.53l1.92,1.25Z"/>
  <polygon class="g" points="289.99 223.5 358.59 262.2 306.6 211.49 430.83 216.37 312.66 194.43 399.62 167.16 315.82 176.27 420.11 67.53 337.27 140.64 369.11 86.67 328.92 129.79 336 29.85 311.99 133.18 278.89 0 295.44 134.87 273.53 23.96 273.96 126.47 243.45 45.98 259.1 144.71 162.36 26.94 247.38 160.96 145.86 56.49 240.51 175.59 96.93 101.97 241.15 192.81 117 152.84 243.5 210.4 127.99 252.84 250.42 223.63 124.97 302.29 258.4 236.2 292.63 304.05 271.52 233.74 325.09 283.46 289.99 223.5"/>
  <polygon class="m" points="349.48 305.15 200.21 267.36 180.36 343.41 186.4 267.73 143.06 329.65 165.5 261.39 104.56 315.46 146.09 252.87 21.54 284.83 136.25 236.94 42.41 228.3 129.1 219.27 0 132.02 99.66 187.9 55.73 140.26 105.75 175.12 76.84 75.61 123.6 174.87 128.09 33.01 140.71 172.98 138.72 56.07 160.6 159.81 173.92 71.79 179.59 175.02 251.77 34.9 194.98 188.89 274.88 61.18 205.11 202.19 334.25 96.51 208.2 219.73 325.02 152.32 209.65 238.04 335.67 255.81 205.53 252.92 349.48 305.15"/>
  <polygon class="n" points="349.48 305.15 200.21 267.36 180.36 343.41 186.4 267.73 143.06 329.65 165.5 261.39 104.56 315.46 146.09 252.87 21.54 284.83 136.25 236.94 42.41 228.3 154.35 233.76 114.18 188.21 164.61 233.76 146.66 142.29 174.74 224.36 173.92 71.79 179.59 175.02 251.77 34.9 194.98 188.89 274.88 61.18 205.11 202.19 334.25 96.51 208.2 219.73 325.02 152.32 209.65 238.04 335.67 255.81 205.53 252.92 349.48 305.15"/>
  <polygon class="k" points="310.8 272.23 168.46 142.71 310.8 256.84 196.67 97.19 322.34 242.73 256.3 49.1 330.03 222.22 291.56 37.56 337.73 205.55 368.5 8.07 351.83 200.42 415.95 20.89 365.94 191.44 481.35 59.36 399.28 172.21 517.25 92.7 376.2 208.11 517.25 185.03 390.3 214.52 540.33 223.5 380.04 227.35 498.02 272.23 365.29 237.61 448.01 285.05 345.42 249.15 412.1 294.03 336.44 260.69 374.91 308.77 327.47 270.95 324.26 349.17 310.8 272.23"/>
  <polygon class="p" points="196.67 97.19 322.34 223.5 335.8 242.73 314.67 121.65 337.73 205.55 368.5 8.07 351.83 200.42 415.95 20.89 365.94 191.44 481.35 59.36 362.09 209.39 489.59 220.46 357.6 226.06 428.35 254.06 365.29 237.61 448.01 285.05 345.42 249.15 398.76 285.05 336.44 260.69 354.4 283.13 315.29 263.25 196.67 97.19"/>
</svg>