<?xml version="1.0" encoding="UTF-8"?>
<svg id="a" data-name="Lager 1" xmlns="http://www.w3.org/2000/svg" viewBox="0 0 589.44 706.92">
  <defs>
    <style>
      .c {
        fill: #90a12b;
      }

      .d {
        fill: #09070d;
      }

      .e {
        fill: #afb655;
      }

      .f {
        fill: #aca195;
      }

      .g {
        fill: #9a7155;
      }

      .h {
        fill: #6c4f29;
      }

      .i {
        fill: #cabdad;
      }

      .j {
        fill: #5d6c29;
      }

      .k {
        fill: #a18b76;
      }

      .l {
        fill: #bba58f;
      }

      .m {
        fill: #d6dd8b;
      }

      .n {
        fill: #decfc0;
      }
    </style>
  </defs>
  <g id="b" data-name="Spider Plant">
    <g>
      <path class="h" d="m339.86,696.99h0c-36.22,13.24-75.96,13.24-112.18,0h0c-21.49-7.86-36.37-27.6-38.01-50.42l-3.15-97.42h194.5l-3.15,97.42c-1.64,22.83-16.52,42.56-38.01,50.42Z"/>
      <path class="g" d="m381.03,548.1s-14.33,12.63-42.31,19.63c-30.92,7.73-63.17,8.21-94.45,2.14-17.9-3.47-41.19-12.73-57.75-21.77l2.57,80.51s45.93,19.58,97.55,19.43c0,0,63.25-.8,91.87-20.96l2.51-78.97Z"/>
    </g>
    <g>
      <path class="k" d="m355.88,585.49h0c-46.56,17.02-97.64,17.02-144.2,0h0c-27.63-10.1-46.76-35.47-48.87-64.82l-4.04-125.24h250.02l-4.04,125.24c-2.11,29.34-21.24,54.71-48.87,64.82Z"/>
      <path class="i" d="m408.8,394.1s-18.42,16.24-54.39,25.23c-39.74,9.94-81.2,10.56-121.42,2.75-23-4.46-52.95-16.36-74.23-27.98l3.3,103.49s59.04,25.17,125.4,24.97c0,0,81.3-1.03,118.1-26.94l3.23-101.52Z"/>
      <path class="n" d="m172.56,377.7s87.31-35.38,208.47-3.82c0,0,44.29,11.45,21,32.07,0,0-44.1,29.59-150.62,19.28-106.52-10.31-102.71-35.51-78.84-47.53Z"/>
      <path class="f" d="m184.78,404.43s-21.55-10.95-7.64-21.76c0,0,42-24.05,152.72-13.36,0,0,78.93,9.93,62.23,30.16l-7.25,4.96s-3.82-14.13-67.96-19.73c0,0-144.32-7-132.1,19.73Z"/>
      <path class="d" d="m384.85,404.43s-68.7,35.89-200.07,0c0,0-12.81-13.43,37.59-18.93,50.4-5.5,146.85-5.88,162.48,18.93Z"/>
      <path class="l" d="m406.7,451.49s-16.14,10.86-52.3,19.9c-39.95,9.99-81.62,10.61-122.05,2.77-23.12-4.49-50.12-11.24-71.52-22.92l1.22,46.35s58.34,25.25,125.05,25.05c0,0,81.41.51,118.39-25.54l1.2-45.61Z"/>
    </g>
    <g>
      <g>
        <path class="j" d="m140.01,103.83s52.72,28.31,64.08,88.8c0,0,23.09,56.59,34.48,76.65,0,0,32.87,74.97,22.76,120.87l30.48,6.08s-19.7-189.22-58.05-235.84c-38.35-46.62-81.95-61.6-93.76-56.55Z"/>
        <path class="c" d="m140.01,103.83S52.68,79.95,0,158.23c0,0,45.73-104.18,154.29-54.24,0,0-8.01-1.72-14.29-.16Z"/>
        <path class="e" d="m146.14,103.18s45.96,27.04,66.03,77.24c0,0,22.81,62.44,30.98,80.09,8.17,17.65,29.38,88.61,26.23,131.24l11.23,2.24s-6.43-93.24-29.8-156.83c0,0-25.55-105.06-104.67-133.98Z"/>
        <path class="m" d="m143.88,102.95s-41.4-15.14-96.83,7.66c0,0,25.66-23.1,79.4-16.55,0,0,13.79,2.55,21.22,8.87l-3.79.02Z"/>
      </g>
      <g>
        <path class="j" d="m370.32,83.63s-66.45,129.47-70.76,145.03c0,0-17.41,43.48-40.09,128.6l14.93,12.32s46.01-126.53,51.43-141.24c0,0,38.92-133.1,44.48-144.72Z"/>
        <path class="e" d="m364.19,95.62s-53.4,126.48-57.38,141.26c0,0-41.55,116.51-42.09,124.72l5.44,4.49s47.34-133.69,49.49-139.44c2.15-5.75,44.54-131.03,44.54-131.03Z"/>
      </g>
      <g>
        <path class="j" d="m519.15,167.63s-7.65-44.21-44.61-53.08l-11.2,3.74s32.07,2.53,55.81,49.33Z"/>
        <path class="e" d="m468.07,116.72s27.69,7.56,44.14,38.75c0,0-6.05-27.32-39.33-40.87l-4.81,2.11Z"/>
        <path class="c" d="m475.89,115.01s-39.84-15.44-79,11.01c0,0-48.4,29.49-101.67,155.86,0,0-33.48,68.76-35.58,91.31l34.56,1.34s47.1-97.95,58.63-147.88c0,0,7.14-19.59,26.83-40.15,0,0,10.13-9.43,18.75-22.72,7.29-11.24,18.19-17.74,27.66-27.21,5.39-5.39,21.6-11.47,23.57-11.72,0,0,9.02-6.32,26.24-9.84Z"/>
        <path class="m" d="m356.63,180.49s-61.28,109.18-73.81,151.15c-12.53,41.97-17.32,41.78-17.32,41.78l20.02.78s50.56-107.02,50.95-115.7c.39-8.68,13.16-51.77,27.97-65.59,14.81-13.81,35.29-40.48,35.29-40.48,0,0,26.55-34.68,69.25-35.39l5.56-1.72s-33.7-11.56-74.4,15.32c0,0-29.74,24.78-43.51,49.86Z"/>
      </g>
      <g>
        <path class="j" d="m209.29,33.46s-11.04-3.78-18.54,2.81c0,0,23.02,1.95,25.6,6.46,0,0-4.19-7.8-7.06-9.27Z"/>
        <path class="c" d="m209.29,33.46s55.63,15.72,68.03,97.4c12.4,81.69,16.34,255,16.34,255l-28.1,3.55s-6.46-305.61-56.27-355.96Z"/>
        <path class="m" d="m223.47,40.13s28.56,64.6,38.65,150.82l12.54,197.32,11.95-1.51s2.52-275.97-52.27-339.1c0,0-5.93-5.82-10.87-7.53Z"/>
      </g>
      <g>
        <path class="j" d="m116.47,324.34s-77.35,6.03-80.17,90.21c0,0,31.41-62.08,80.17-90.21Z"/>
        <path class="e" d="m36.3,414.55s6.2-63.84,66.39-87.51c0,0-54.79,46.46-66.39,87.51Z"/>
        <path class="j" d="m116.47,324.34s92.12-15,147.68,80.64h-8.26s-35.12-87.31-143.87-77.94l4.46-2.7Z"/>
      </g>
      <g>
        <path class="j" d="m327.91,0s-43.9,186.16-44.48,207.37c0,0-8.49,60.97-10.54,176.72l22.94,11.01s18.75-175.95,21.02-196.43c0,0,7.63-182.1,11.06-198.68Z"/>
        <path class="e" d="m323.88,17.23s-28.2,178.22-28.61,198.33c0,0-16.22,161.76-14.32,172.41l8.35,4.01s18.19-185.5,19.12-193.51c.92-8.01,15.46-181.23,15.46-181.23Z"/>
      </g>
      <g>
        <path class="j" d="m200.44,68.59s16.82,132.73,21.63,146.78c0,0,9.37,42.03,36.36,118.38l17.73,1.6s-30.8-119.89-34.32-133.86c0,0-39.59-121.19-41.4-132.9Z"/>
        <path class="e" d="m202.01,80.87s25.16,123.69,29.82,136.96c0,0,28.98,109.97,32.83,116.48l6.46.58s-33.5-126.01-34.86-131.49c-1.36-5.48-34.25-122.54-34.25-122.54Z"/>
      </g>
      <g>
        <path class="j" d="m136.27,174.03s100.67,88.13,109.62,99.97c0,0,29.62,31.26,77.85,96.32l-8.58,15.59s-82.2-92.54-91.82-103.28c0,0-78.37-100.56-87.06-108.6Z"/>
        <path class="e" d="m145.57,182.19s88.5,89.99,96.91,101.27c0,0,74.99,85.49,78.24,92.33l-3.13,5.68s-85.77-98.21-89.55-102.39c-3.78-4.19-82.47-96.89-82.47-96.89Z"/>
      </g>
      <g>
        <path class="c" d="m44.12,301.72s9-159.86,79.79-147.68l7.97,1.88s-40.5-.94-87.76,145.8Z"/>
        <path class="m" d="m115.35,153.38s-30.24-1.45-58.37,89.97c0,0-11.67,41.84-12.87,58.37,0,0,16.03-67.52,39.94-104.26,0,0,19.67-35.84,41.39-43.06l-10.1-1.03Z"/>
        <path class="j" d="m131.88,155.92s82.28-11.72,130.1,152.83c0,0,14.19,83.68,15.18,100.56h-17.29s2.11-195.26-127.99-253.39Z"/>
        <path class="e" d="m144.65,156.52s60.88,20.45,92.24,94.56c0,0,34.69,92.82,35.16,158.22h-7.5s-1.95-92.53-34.22-157.75c0,0-27.55-60.21-85.68-95.03Z"/>
      </g>
      <g>
        <path class="j" d="m355.17,338.77s-41.74,21.55-72.88,71.68l25.98-7.12s17.37-43.34,91.31-66.17c0,0-25.24-.67-44.42,1.6Z"/>
        <path class="e" d="m361.91,339.17s-46.96,26.01-72.56,69.34l12.85-3.52s18.48-42.55,84.72-67.91c0,0-21.89.24-25.01,2.08Z"/>
        <path class="c" d="m540.75,393.12s-79.22-112.75-188.26-52.97c0,0,71.92-20.12,188.26,52.97Z"/>
        <path class="m" d="m364.52,338.24s40.02-17.52,94.74.36c0,0,55.42,22.2,75.43,46.81,0,0-94.3-69.43-170.17-47.17Z"/>
      </g>
      <g>
        <path class="j" d="m254.37,409.08s23.91-146.97,163.15-234.87c0,0,78.06-48.52,169.48-66.1,0,0-227.14,42.19-313.63,300.98h-18.99Z"/>
        <path class="e" d="m516.14,127.91s-139.38,55.44-199.87,172.17c0,0-38.44,70.32-48.24,109h-10.62s13.89-67.86,60.62-135.72c0,0,64.31-96.69,198.1-145.45Z"/>
      </g>
      <g>
        <path class="c" d="m202.04,285.92s-19.92,3.75-37.27-3.28c0,0-48.52.47-56.96,101.73,0,0-11.25,99.15-9.14,137.13,0,0,39.38-204.64,103.37-235.58Z"/>
        <path class="m" d="m128.88,336.41c-4.31,15.9-26.27,99.29-30.47,163.28,0,0,28.39-142.05,57.93-180.73,0,0,17.39-25.44,31.9-32.06,0,0-13.65-.88-18.56-2.57,0,0-23.13,8.71-39.06,46.92-.7,1.68-1.27,3.41-1.74,5.16Z"/>
        <path class="j" d="m202.04,285.92s26.02-9.14,40.79,14.77c0,0,27.43,50.72,33.05,100.25l-20.93,8.04s-25.36-110.8-61.49-117.79l8.59-5.27Z"/>
        <path class="e" d="m202.04,285.92s28.83-1.28,50.28,49.93c0,0,19.22,53.84,18.58,67.01l-11.76,4.52s-14.28-93.1-61-119.05l3.91-2.4Z"/>
      </g>
      <g>
        <path class="j" d="m147.7,258.68s45.97-23.5,86.36,16.37c0,0,38.04,33.69,54.2,127.66l-23.94,7.24s-31.86-156.67-116.62-151.26Z"/>
        <path class="c" d="m147.7,258.68s-82.35,26.62-82.86,153.92c0,0-22.63-63.85,20.73-127.12,10.25-14.96,25.43-26.05,43.04-30.38,8.95-2.2,19.37-2.96,30.88-.64l-11.79,4.21Z"/>
        <path class="m" d="m141.63,253.17s-42.76,10.27-62.04,53.92c0,0-15.69,35.19-20.17,76.33,0,0,2.59,21.49,5.42,29.19,0,0-8.5-68.41,38.35-126.81,0,0,21.87-23.51,49.55-32.35l-11.11-.28Z"/>
        <path class="e" d="m178.34,251.82s73.17,5.93,105.9,152.1l-15.55,4.7s-17.76-86.87-57.97-123.68c0,0-19.27-24.96-57.27-28.31,0,0,15.56-5.19,24.9-4.81Z"/>
      </g>
      <g>
        <path class="j" d="m415.23,295.72s-35.87-23.41-72.7,5.95c0,0-34.34,24.47-55.9,100.59l19.12,8.07s40-126.49,109.48-114.61Z"/>
        <path class="c" d="m415.23,295.72s65.62,29.17,54.9,134.27c0,0,24.26-50.71-5.98-106.71-7.15-13.24-18.71-23.72-32.86-28.83-7.19-2.6-15.73-4.14-25.42-3.23l9.36,4.5Z"/>
        <path class="m" d="m420.71,291.7s34.38,12.22,46.48,49.93c0,0,9.87,30.41,9.96,64.75,0,0-4.01,17.51-7.03,23.61,0,0,13.01-55.71-20.55-108,0,0-15.99-21.32-38.06-31.03l9.19.74Z"/>
        <path class="e" d="m390.55,287.38s-60.89-1.52-100.7,116.24l12.42,5.24s22.26-70.13,58.66-96.99c0,0,18.09-18.91,49.74-18.35,0,0-12.38-5.65-20.12-6.15Z"/>
      </g>
      <g>
        <path class="c" d="m338.07,293.58s107.21-55.55,251.37-54.85c0,0-162.39-52.04-251.37,54.85Z"/>
        <path class="m" d="m351.05,286.88s44.02-38.97,101.74-49.79c57.71-10.81,118.14,1.86,118.14,1.86,0,0-107.17-12.88-204.93,41.64-5.09,2.84-9.79,3.42-14.95,6.28Z"/>
        <path class="j" d="m378.95,276.18s-48.89,29.71-78.48,119.99l-21.85,4.48s15.89-62.23,60.15-108.3c0,0,32.2-14.77,40.17-16.17Z"/>
        <path class="e" d="m365.99,280.59s-48.94,46.81-71.67,116.83l-9.53,1.95s24.08-74.15,66.25-112.5c0,0,12.05-5.15,14.95-6.28Z"/>
      </g>
      <g>
        <path class="j" d="m278.45,405.35s70.49-25.09,141.8,51.92c0,0-31.47-76.28-103.67-71.11,0,0-17.98,1.43-38.13,19.19Z"/>
        <path class="e" d="m302.92,389.93s61.52-5.69,97.06,39.45c0,0-50.68-40.14-104.65-35.91l7.6-3.54Z"/>
      </g>
      <g>
        <path class="c" d="m276.22,389.7s54.57-49,125.4-5.92c0,0,52.1,38.98,64.48,80.4,0,0-68.09-95.47-142.74-84.22,0,0-22.82,6.66-34,21.02l-13.14-11.27Z"/>
        <path class="e" d="m450.38,439.29s-31.58-47.62-75.12-63.01c0,0-38.32-18.9-88.44,5.83l-7.81,9.98,5.59,4.79s22.03-28.04,67.47-18.83c45.44,9.21,70.04,36.69,98.31,61.23Z"/>
      </g>
      <g>
        <path class="c" d="m225.57,185.75s-17.05,6.01-29.44,5.88c0,0,5.99,45.22,29.97,121.91,0,0-15.36-98.09-.53-127.79Z"/>
        <path class="j" d="m288.25,337.97s-8.39-126.39-50.09-153.52c0,0-6.27-2.53-12.59,1.31,0,0-3.39,2.18-4,12.79,0,0,29.32,30.12,46.61,179.93l24.01-2.49-3.94-38Z"/>
        <path class="e" d="m225.57,185.75s22.05-3.87,42.03,68.3c3.29,11.88,5.81,23.95,7.67,36.14,3.69,24.22,11.07,73.4,12.11,86.02l-11.16,1.42s-21.86-175.66-53.66-186c0,0-1.1-1.21,3.01-5.88Z"/>
        <path class="m" d="m202.97,191.2s-1.64,22.17,22.07,118.97c0,0-18.81-111.08-8.84-121.61l-13.23,2.64Z"/>
      </g>
      <g>
        <path class="c" d="m301.63,255.82s15.5.26,27.44-7.84c0,0,36.44-6.37,57.97,74.39,0,0,23.33,78.67,27.45,109.69,0,0-60.25-160.1-112.86-176.24Z"/>
        <path class="m" d="m364.05,286.5c5.62,12.26,34.61,76.69,47.36,127.88,0,0-42.62-110.99-70.56-138.18,0,0-16.86-18.17-28.72-21.5,0,0,10.1-2.61,13.52-4.67,0,0,18.64,3.83,36.32,32.53.78,1.26,1.46,2.58,2.08,3.93Z"/>
        <path class="j" d="m301.63,255.82s-20.87-3.78-28.35,17.62c0,0-12.94,44.86-9.71,85.72l16.9,3.6s2.36-93.18,28.39-103.87l-7.23-3.07Z"/>
        <path class="e" d="m301.63,255.82s-21.8,2.98-30.18,47.4c0,0-6.32,46.24-3.86,56.8l9.49,2.02s-3.28-77.32,27.84-104.82l-3.29-1.4Z"/>
      </g>
      <g>
        <path class="c" d="m238.29,314.12s-15.73,2.96-29.42-2.59c0,0-38.3.37-44.96,80.29,0,0-8.88,78.26-7.22,108.23,0,0,31.08-161.51,81.59-185.93Z"/>
        <path class="m" d="m180.55,353.97c-3.4,12.55-20.74,78.37-24.05,128.87,0,0,22.41-112.11,45.72-142.64,0,0,13.73-20.08,25.18-25.3,0,0-10.78-.69-14.65-2.03,0,0-18.26,6.87-30.83,37.03-.55,1.32-1,2.69-1.37,4.07Z"/>
        <path class="j" d="m238.29,314.12s20.54-7.22,32.19,11.66c0,0,21.65,40.03,26.09,79.12l-16.52,6.35s-20.02-87.45-48.53-92.97l6.78-4.16Z"/>
        <path class="e" d="m238.29,314.12s22.76-1.01,39.68,39.41c0,0,15.17,42.5,14.66,52.88l-9.28,3.57s-11.27-73.48-48.15-93.96l3.08-1.89Z"/>
      </g>
      <g>
        <path class="c" d="m254.37,313.64s-32.01-7.95-37.97,1.41c-5.97,9.36-29.07,65.16-20.16,170.18,0,0,36.57-157.99,58.13-171.58Z"/>
        <path class="m" d="m195.01,467.66s11.88-151.15,42.83-156.8l8.14,1.09s-17.24,8.38-24.12,54.43l-19.09,92.05-6.53,26.79-1.22-17.56Z"/>
      </g>
    </g>
  </g>
</svg>