<?xml version="1.0" encoding="UTF-8"?>
<svg id="a" data-name="Lager 1" xmlns="http://www.w3.org/2000/svg" viewBox="0 0 500.23 792.43">
  <defs>
    <style>
      .b {
        fill: #8abe46;
      }

      .c {
        fill: #52762c;
      }

      .d {
        fill: #75a432;
      }

      .e {
        fill: #584b41;
      }

      .f {
        fill: #648d2e;
      }

      .g {
        fill: #221d19;
      }
    </style>
  </defs>
  <path class="f" d="m200.42,264.52s22.46,126.7,23.27,187.23l-5.38,9.68s-19.1-190.86-26.36-207c-7.26-16.14,8.47,10.09,8.47,10.09Z"/>
  <path class="e" d="m341.15,542.14h-194.3s-23.48,141.68-20,190.05c2.25,31.31,32.41,60.24,61.85,60.24h110.61c29.43,0,59.59-28.93,61.85-60.24,3.48-48.38-20-190.05-20-190.05Z"/>
  <ellipse class="g" cx="244.05" cy="542.14" rx="97.2" ry="9.68"/>
  <path class="c" d="m222.21,453.77s-18.16-20.58-44.79-20.58-35.11,10.89-29.05,12.11c6.05,1.21,19.37-6.05,32.68,3.63,13.32,9.68,26.63,23,36.32,25.42,9.68,2.42,4.84-20.58,4.84-20.58Z"/>
  <path class="d" d="m200.54,510.78c8.63,6.07,15.35,42.39,15.35,42.39l-5.92,1.34s-3.77-27.98-10.37-37.6c-4.53-6.59-7.69-12.21.94-6.14Z"/>
  <path class="d" d="m211.86,344.15s6.99,4.3,12.91,44.12c4.68,31.5,7.13,165.98,7.13,165.98h-15.74s10.49-150.51-6.46-197.72c-16.95-47.21,2.15-12.37,2.15-12.37Z"/>
  <path class="d" d="m264.58,555.59c-1.21-3.63,19.37-69.4,45.6-93.35l-12.11,4.84s-30.26,31.47-42.37,66.58l8.88,21.92Z"/>
  <path class="d" d="m299.55,242.46s-17.22,51.11-25.69,110.83c-5.04,35.49-15.74,198.53-15.74,198.53h-14.53s17.22-243.72,53.26-313.66l2.69,4.3Z"/>
  <path class="d" d="m265.39,313.35c-3.63,48.42,0,245.74,0,245.74h-14.53s-2.42-211.84,4.84-257.84c4.64-29.37,14.24-95.2,24.48-115.81,5.8-11.67,5.38-1.61,5.38-1.61,0,0-16.54,81.11-20.18,129.53Z"/>
  <path class="d" d="m229.07,558.28s1.61-330.21,1.61-378.63-31.47-89.58-31.47-89.58c0,0,13.32,8.47,20.58,18.16,7.26,9.68,21.79,38.74,21.79,79.9s4.44,366.93,4.44,366.93l-16.95,3.23Z"/>
  <path class="d" d="m275.88,549.4s8.34-20.97,12.11-28.78c3.77-7.81,6.46-6.46,6.46-6.46,0,0-7.53,13.18-10.76,36.05-3.23,22.87-9.68,13.18-9.68,13.18,0,0-.81-5.92,1.88-13.99Z"/>
  <path class="e" d="m361.15,732.19c-2.24,31.32-32.4,60.25-61.85,60.25h-110.6c-29.43,0-59.59-28.93-61.85-60.25-3.49-48.36,20-190.05,20-190.05,0,5.35,43.51,9.69,97.2,9.69s95.48-4.17,97.15-9.38c1.21,7.34,23.34,142.69,19.95,189.73Z"/>
  <path class="d" d="m280.26,204.8s-19.82-25.04-14.61-50.08c5.22-25.04,58.42-53.21,97.02-57.38s67.7-.68,87.52-.68,50.04,3.23,50.04,3.23c0,0-7.64,3.35-45.19,24.21-37.56,20.87-58.98,17.06-94.45,45.23-35.47,28.17-67.81,8.35-80.33,35.47Z"/>
  <path class="d" d="m201.63,260.08s9.68-31.47-31.47-44.79c-41.16-13.32-75.05,0-106.53-12.11-31.47-12.11-14.53,8.47-2.42,29.05,12.11,20.58,44.79,13.32,66.58,24.21,21.79,10.89,16.95,13.32,37.53,19.37,10.29,3.03,27.39,9.53,33.89,4.84,6.51-4.69,2.42-20.58,2.42-20.58Z"/>
  <path class="d" d="m289.49,484.03s-9.35-14.02-2.8-29.92c6.54-15.89,32.72-30.85,45.81-39.26,13.09-8.41,48.61-4.67,63.57-6.54,14.96-1.87,29.92-8.41,29.92-8.41,0,0-13.09,29.92-34.59,41.13-21.5,11.22-52.35,12.15-68.25,24.31-15.89,12.15-21.5,15.89-33.66,18.7Z"/>
  <path class="d" d="m334.08,367.82c-7.09-28.36-43.58-3.23-67.79-4.84-24.21-1.61-1.61,22.6,22.6,33.89s50.04-9.68,45.19-29.05Z"/>
  <path class="b" d="m286.7,184.47l-2.28-1.3c.47-.82,11.78-20.26,40.55-39.78,25.97-17.62,71.55-38.38,142.05-38.38,1.38,0,2.77,0,4.17.02l-.03,2.62c-1.39-.02-2.77-.02-4.14-.02-69.84,0-114.91,20.52-140.58,37.93-28.27,19.18-39.63,38.71-39.75,38.91Z"/>
  <path class="d" d="m243,122.45c-.92,28.88-9.9,42-9.9,42-2.53-.8-5.3-1.55-8.29-2.32-24.17-6.16-61.91-12.93-89.92-48.84-28.56-36.61-51.41-41.24-82.09-66.36-3.12-2.56-6.32-5.32-9.61-8.37C7.49,5.7,0,0,0,0c0,0,34.02,4.47,55.79,9.73,21.77,5.26,54.63,9.15,95.9,23.97,41.28,14.83,92.22,59.87,91.31,88.74Z"/>
  <path class="b" d="m223.27,150.5c-.1-.24-10.28-24.07-39.09-52.4-26.6-26.15-74.97-61.57-154.37-81.87l.73-2.87c80.13,20.48,128.98,56.31,155.84,82.75,29.18,28.72,39.51,53,39.61,53.24l-2.73,1.14Z"/>
  <path class="f" d="m298.07,248.79s-13.32-16.95-1.21-38.74c12.11-21.79,46-27.84,70.21-26.63,24.21,1.21,35.11-12.11,50.84-16.95,15.74-4.84,52.05-2.42,52.05-2.42l-95.63,35.11s-64.16,29.05-67.79,36.32c-3.63,7.26-8.47,13.32-8.47,13.32Z"/>
  <path class="d" d="m298.07,248.79c19.37-30.26,87.16-48.42,133.16-60.53,46-12.11,65.37-43.58,65.37-43.58,0,0-33.89,20.58-58.11,24.21-24.21,3.63-37.53,4.84-50.84,10.89-13.32,6.05-8.47,13.32-21.79,16.95s-21.79,0-41.16,13.32c-19.37,13.32-26.63,38.74-26.63,38.74Z"/>
  <path class="f" d="m219.95,364.19s9.91-12.61.9-28.83c-9.01-16.22-34.23-20.72-52.25-19.82-18.02.9-26.12-9.01-37.84-12.61-11.71-3.6-38.74-1.8-38.74-1.8l71.17,26.12s47.75,21.62,50.45,27.03c2.7,5.41,6.31,9.91,6.31,9.91Z"/>
  <path class="d" d="m219.95,364.19c-14.41-22.52-64.86-36.03-99.09-45.04-34.23-9.01-48.65-32.43-48.65-32.43,0,0,25.22,15.31,43.24,18.02,18.02,2.7,27.93,3.6,37.84,8.11,9.91,4.5,6.31,9.91,16.22,12.61,9.91,2.7,16.22,0,30.63,9.91,14.41,9.91,19.82,28.83,19.82,28.83Z"/>
  <path class="d" d="m287.99,520.62s5.73-15.04,18.62-21.49c12.89-6.45,45.13,2.15,45.13,2.15,0,0-22.21-1.43-32.24,12.89-10.03,14.33-31.52,6.45-31.52,6.45Z"/>
  <path class="d" d="m206.29,510.96c-2.33-11.34-9.14-16.53-29.32-14.98-20.18,1.55-35.33,19.46-35.33,19.46,0,0,21.31-9.9,32.26-2.64,10.95,7.26,35.39,12.73,32.39-1.84Z"/>
  <path class="b" d="m190.81,270.41c-.11-.19-10.93-19.16-28.53-28.54-13.61-7.26-30.27-8.31-46.38-9.33-4.97-.31-10.11-.64-15.01-1.15-29.7-3.07-48.4-17.33-50.1-24.12l2.54-.64c1.5,6,19.74,19.25,47.82,22.15,4.85.5,9.96.82,14.9,1.14,16.39,1.04,33.34,2.11,47.45,9.63,18.29,9.75,29.13,28.76,29.58,29.57l-2.29,1.29Z"/>
  <polygon class="c" points="250.59 457.67 252.48 550.61 235.53 550.61 250.59 457.67"/>
  <path class="d" d="m236.04,332.2s-21.22-13.84-23.07-30.45c-1.85-16.61,5.54-31.37,13.84-40.6,8.3-9.23,35.06-16.61,48.91-19.38,13.84-2.77,27.68-13.84,36.91-10.15,9.23,3.69,23.99,27.68,15.69,38.76-8.3,11.07-30.45,22.15-47.06,33.22-16.61,11.07-40.6,30.45-45.21,28.61Z"/>
  <path class="b" d="m237.45,320.02c-.05-.73-.87-18.3,20.21-43.43,7.89-9.4,16.61-11.93,23.61-13.95,3.92-1.13,7.31-2.12,9.99-4.03,12.22-8.71,16.15-17.5,17.27-20.87l2.49.83c-1.5,4.49-5.86,13.34-18.24,22.17-3.04,2.17-6.8,3.26-10.78,4.41-7.01,2.03-14.95,4.33-22.33,13.12-20.41,24.33-19.61,41.41-19.6,41.58l-2.62.16Z"/>
  <path class="b" d="m296.31,471.09l-2.12-1.55c.69-.94,17.07-23.15,37.56-34.27,13.59-7.38,27.21-10.15,40.37-12.83,14.66-2.98,28.51-5.8,41.85-14.55l1.44,2.19c-13.76,9.03-27.85,11.9-42.77,14.93-12.98,2.64-26.39,5.37-39.64,12.56-19.97,10.84-36.53,33.29-36.69,33.52Z"/>
  <path class="b" d="m225.04,162.02s-.08.04-.22.1c-24.17-6.16-61.91-12.93-89.92-48.84-28.56-36.61-51.41-41.24-82.09-66.36,5.15,1.31,24.81,6.66,36.67,15.03,13.72,9.68,31.47,27.43,61.32,39.54,29.86,12.1,34.71,21.8,43.59,37.93,8.86,16.14,30.66,22.6,30.66,22.6Z"/>
</svg>