<?xml version="1.0" encoding="utf-8"?>
<!-- Generator: Adobe Illustrator 27.3.1, SVG Export Plug-In . SVG Version: 6.00 Build 0)  -->
<svg version="1.1" id="a" xmlns="http://www.w3.org/2000/svg" xmlns:xlink="http://www.w3.org/1999/xlink" x="0px" y="0px"
	 viewBox="0 0 766 826" style="enable-background:new 0 0 766 826;" xml:space="preserve">
<style type="text/css">
	.st0{fill:#415B49;}
	.st1{fill:#96B2A0;}
	.st2{fill:#314736;}
	.st3{fill:#223226;}
	.st4{fill:#567261;}
	.st5{fill:#628A77;}
	.st6{fill:#5E3C3E;}
	.st7{fill:#855F60;}
	.st8{fill:#A5787A;}
	.st9{opacity:0.59;fill:#422527;enable-background:new    ;}
	.st10{opacity:0.25;fill:#EADBDB;enable-background:new    ;}
	.st11{opacity:0.69;fill:#FFFFFF;enable-background:new    ;}
	.st12{fill:#77896E;}
	.st13{fill:#9FB793;}
	.st14{fill:#596753;}
	.st15{opacity:0.84;fill:#596753;}
	.st16{opacity:0.61;fill:#434D3E;}
	.st17{opacity:0.42;fill:#C5D4BE;}
	.st18{opacity:0.61;fill:#596753;}
	.st19{opacity:0.53;fill:#C5D4BE;}
	.st20{fill:#C5D4BE;}
	.st21{opacity:0.56;fill:#C5D4BE;}
	.st22{opacity:0.61;}
	.st23{fill:url(#SVGID_1_);}
	.st24{fill:#E4948F;}
	.st25{fill:#A95A57;}
	.st26{opacity:0.68;fill:#F4D4D2;}
	.st27{fill:#FFFFFF;}
</style>
<g>
	<g>
		<g>
			<path class="st0" d="M176.9,144.8c-3.4,0.1-6.8,0.7-9.9,2.1c-6.4,3-10.6,9.5-12.3,16.3c-1.7,6.8-1.3,14-0.5,21
				c2.2,20.6,7.6,42.1,22.1,56.9c5.7,5.8,13.2,10.5,21.3,10.7c12.2,0.3,22.7-9.7,27.1-21c4.4-11.4,4.1-23.9,4.1-36.1
				c0-4.6,0-9.2-1.1-13.7c-1.4-5.9-4.7-8.6-8.6-12.8c-3.8-4.2-6.4-8.9-10.9-12.6C199.6,148.4,188.2,144.3,176.9,144.8z"/>
			<path class="st1" d="M179.9,149.9c-1.9-0.1-3.9,0-5.7,0.6c-2.5,0.8-4.5,2.6-6.1,4.6c-6,7.2-7.5,17.3-6.8,26.6
				c0.4,4.6,1.8,9.7,5.9,11.7c1.5,0.7,3.7,0.7,4.6-0.7c0.3-0.5,0.4-1.2,0.5-1.8c0.5-3.5,1.1-7.1,1.6-10.6c0.7-4.4,1.4-9.1,4.3-12.6
				c2.3-2.8,5.8-4.5,9.5-4.6c1.9,0,3.9,0.4,5.8,0.2c1.9-0.2,4-1.1,4.7-2.9C201.3,152.1,184.3,150.1,179.9,149.9L179.9,149.9z"/>
		</g>
		<g>
			<path class="st2" d="M236.9,169.3c4.8-7.8,11.5-14.8,19.8-18.8c7-3.3,15.1-4.4,22.7-2.7c7.6,1.8,14.5,6.4,18.6,13
				c1.9,3.1,3.3,6.4,4.3,9.9c5,16.2,4.3,34.5-3.4,49.6c-7.7,15.2-22.6,26.8-39.4,29.2c-3.3,0.5-6.7,0.6-9.8-0.5
				c-2.9-1-5.4-2.9-7.6-5.1c-4.5-4.4-7.9-9.8-9.9-15.8c-3.6-10.4-2.6-21.3-2-32.1C230.7,186.2,231.4,178.1,236.9,169.3L236.9,169.3z
				"/>
			<path class="st3" d="M303.1,173.9c-2.1,8.1-6.4,16-12.2,21.5c-1.5,1.4-2.8,2.9-4.2,4.4c-4,5.4-8.1,10.8-12.8,15.6
				c-9.3,9.4-20,15.2-32.4,19.5c-1.9,0.6-3.8,1.1-5.7,1.4c1.7,2.8,3.8,5.4,6.1,7.8c2.2,2.2,4.7,4.1,7.6,5.1c3.1,1.1,6.5,0.9,9.8,0.5
				c16.8-2.4,31.7-14,39.4-29.2C306,206.2,307.1,189.3,303.1,173.9L303.1,173.9z"/>
			<path class="st1" d="M295.8,168.7c0.3,0.9,0.6,1.8,0.8,2.7c0.1,0.4,0.1,0.9-0.1,1.3c-0.6,1.3-2.6,0.9-3.9,0.2
				c-7.2-4.1-12.9-11.2-21.1-13c-2.8-0.6-16.1-1.3-11.3-6.7c2.1-2.4,9.7-4,12.9-3.7C283,150.4,292.4,159.7,295.8,168.7L295.8,168.7z
				"/>
		</g>
		<g>
			<path class="st2" d="M234.3,178.2c-2.1-5.5-5.5-10.7-10.3-14.2c-4-2.9-9-4.6-14-4.4c-5,0.2-9.9,2.3-13.3,6
				c-1.6,1.7-2.8,3.7-3.9,5.7c-5.1,9.6-6.7,21.2-3.7,31.7s11.1,19.6,21.4,23c2,0.7,4.1,1.2,6.2,0.9c1.9-0.3,3.8-1.2,5.4-2.3
				c3.3-2.2,6.1-5.3,8.1-8.8c3.5-6.1,4.1-13.1,5-20C236.2,189.5,236.7,184.4,234.3,178.2L234.3,178.2z"/>
			<path class="st3" d="M192,173.3c0.4,5.4,2.1,10.8,5.2,15c0.8,1,1.5,2.1,2.1,3.3c1.9,3.9,3.8,7.8,6.2,11.4
				c4.7,7,10.8,12,18.1,16.1c1.1,0.6,2.3,1.1,3.4,1.5c-1.4,1.6-3,3-4.8,4.2c-1.6,1.1-3.4,2-5.4,2.3c-2.1,0.3-4.2-0.2-6.2-0.9
				c-10.3-3.5-18.4-12.6-21.4-23C186.4,193.3,187.6,182.5,192,173.3L192,173.3z"/>
			<path class="st1" d="M197.2,170.8c-0.3,0.5-0.6,1.1-0.8,1.6c-0.1,0.3-0.2,0.5-0.1,0.8c0.2,0.9,1.5,0.9,2.4,0.6
				c5-1.7,9.5-5.5,14.8-5.7c1.8-0.1,10.3,1.1,7.9-2.9c-1-1.7-5.7-3.7-7.7-3.9C207.4,160.8,200.4,165.6,197.2,170.8L197.2,170.8z"/>
		</g>
		<g>
			<path class="st4" d="M257.6,188c-1.4-5.7-4.1-11.3-8.3-15.4c-3.6-3.4-8.3-5.7-13.3-6.1c-5-0.4-10.1,1-13.9,4.2
				c-1.8,1.5-3.3,3.3-4.6,5.2c-6.3,8.9-9.4,20.2-7.7,30.9c1.7,10.8,8.5,20.8,18.3,25.6c1.9,0.9,4,1.7,6.1,1.7c2,0,3.9-0.7,5.6-1.6
				c3.6-1.8,6.8-4.4,9.2-7.7c4.3-5.6,5.8-12.5,7.6-19.2C258.1,199.5,259.2,194.5,257.6,188L257.6,188z"/>
			<path class="st3" d="M216.3,177.7c-0.3,5.4,0.7,11,3.2,15.5c0.6,1.1,1.2,2.3,1.7,3.5c1.4,4.1,2.8,8.2,4.7,12.1
				c3.8,7.6,9.2,13.3,15.9,18.3c1,0.8,2.1,1.4,3.2,2c-1.6,1.4-3.4,2.6-5.3,3.5c-1.8,0.9-3.7,1.6-5.6,1.6c-2.1,0-4.2-0.7-6.1-1.7
				c-9.8-4.8-16.6-14.9-18.3-25.6C208.1,196.8,210.8,186.3,216.3,177.7L216.3,177.7z"/>
			<path class="st1" d="M221.8,175.9c-0.4,0.5-0.7,1-1,1.5c-0.1,0.3-0.2,0.5-0.2,0.8c0.1,0.9,1.4,1.1,2.3,0.9
				c5.2-1.1,10.1-4.3,15.4-3.8c1.8,0.2,10.1,2.4,8.2-1.8c-0.8-1.9-5.1-4.4-7.1-4.8C233.2,167.3,225.6,171.1,221.8,175.9L221.8,175.9
				z"/>
		</g>
		<g>
			<path class="st4" d="M267.4,174.5c2.1,0.3,4.2,0.9,5.7,2.2c1.4,1.3,2.4,3,3.1,4.7c1.7,4.2,1.9,8.8,1.3,13.2
				c-0.9,6.6-2.5,12.7-5.6,18.6c-2,3.7-4.5,7.1-6.8,10.7c-3.6,5.5-7.7,10.6-13.6,13.7c-5.4,2.9-11.9,4.5-17.8,1.8
				c-7.6-3.6-10.4-11.7-7.1-19.2c2.6-5.8,6.7-10.8,9.9-16.2c1.8-2.9,3.3-6,4.8-9c1.7-3.5,3.5-7,5.2-10.4c1-1.9,1.8-4.4,3.3-6
				c2.9-2.9,7.5-3.8,11.5-4C263.1,174.4,265.3,174.3,267.4,174.5L267.4,174.5z"/>
			<path class="st0" d="M253.5,181c0.5,3.7,1.3,8.4,1.3,9.1c0.6,8.4-1.6,17-6.9,23.6c-2.7,3.4-6,6.2-9.9,8.1
				c-3.9,1.9-8.5,2.2-12.3,4.4c-0.2,0.1-0.8,0.3-0.8,0.6c0-2.3,0.7-4.5,1.7-6.5c2.6-5.8,6.7-10.8,9.9-16.2c1.8-2.9,3.3-6,4.8-9
				c1.7-3.5,3.5-7,5.2-10.4c1-1.9,1.8-4.4,3.3-6c0.9-0.9,2.1-1.7,3.3-2.1C252.9,176.5,253.1,178.5,253.5,181L253.5,181z"/>
			<path class="st1" d="M268.9,192c-1.3,2.8-3.3,5.3-5.3,7.7c-0.4,0.5-0.9,1-1.5,1.1c-0.7,0.1-1.4-0.5-1.6-1.2
				c-0.3-0.7-0.2-1.4-0.2-2.2c0.3-4,1-8,1.2-12.1c0.1-1.7,0.1-3.5,0.6-5.2c0.5-1.7,1.6-3.3,3.1-3.9
				C273.1,172.9,270.3,188.9,268.9,192L268.9,192z"/>
		</g>
		<g>
			<path class="st5" d="M211.2,220.9c-6.7-5.6-10.8-14-11.2-22.6c-0.2-5.1,1.1-10.8,5.4-13.5c2.9-1.9,6.6-2.1,10-1.3
				c8,1.9,13.8,9.1,16.7,16.8c1.6,4.4,2.4,9.1,3,13.8c0.4,3.3,2.2,9.8-0.4,12.5C229.3,232.2,215.6,224.6,211.2,220.9L211.2,220.9z"
				/>
			<path class="st0" d="M225.1,219.7c-4-2.8-7.2-6.7-10.2-10.4c-5.5-7-8.7-15.3-10.4-24c-3.6,2.9-4.8,8.2-4.6,13
				c0.4,8.7,4.6,17.1,11.2,22.6c4.4,3.7,18.1,11.3,23.4,5.7c0.3-0.3,0.5-0.7,0.7-1.1C231.7,224,228.4,221.9,225.1,219.7L225.1,219.7
				z"/>
			<path class="st1" d="M222.8,205.1c1.1,1.8,1.9,3.9,3.2,5.6c1.1,1.4,3.2,1.3,4.1-0.3c0.4-0.6,0.6-1.3,0.7-2.1
				c0.3-1.8-0.2-3.6-0.8-5.3c-1.9-5.7-5.6-11.9-10.6-15.4c-1.8-1.3-4.7-1.4-5.5,1.1c-0.8,2.7,1.4,6.1,2.8,8.2
				C218.7,199.7,221.1,202.2,222.8,205.1L222.8,205.1z"/>
		</g>
		<g>
			<path class="st0" d="M227.1,229.4c-5.3-5.2-11.4-9.7-16.4-15.1c-4.7-5.1-8.3-11-13.4-15.9c-5-4.9-12.2-9-19.2-8.4
				c-0.7,0.1-1.4,0.2-1.9,0.5c-0.5,0.3-0.7,0.8-0.9,1.3c-1.1,2.8-1.3,5.9-0.6,9c0.6,2.6,1.8,5.2,3,7.7c2.7,5.7,5.4,11.5,8.1,17.2
				c2.6,5.6,5.3,11.2,9.5,16.2c3.1,3.6,6.9,6.7,11,9.3c7.1,4.5,16,7.8,23.8,6.1c1.4-0.3,2.7-0.8,3.8-1.5
				C243.4,249.4,233.8,236,227.1,229.4L227.1,229.4z"/>
			<path class="st2" d="M221.7,237.5c-11.4-3.8-20-11.4-27.7-19.4c-3.8-3.9-7-7.9-10.2-12.2c-0.8-1-1.5-2.1-2.1-3.2
				c-1.6-2.9-3.3-6.3-3.9-9.5c-0.2-1-0.4-2-0.5-3c-0.3,0.1-0.7,0.2-0.9,0.4c-0.5,0.3-0.7,0.8-0.9,1.3c-1.1,2.8-1.3,5.9-0.6,9
				c0.6,2.6,1.8,5.2,3,7.7c2.7,5.7,5.4,11.5,8.1,17.2c2.6,5.6,5.3,11.2,9.5,16.2c3.1,3.6,6.9,6.7,11,9.3c7.1,4.5,16,7.8,23.8,6.1
				c1.4-0.3,2.7-0.8,3.8-1.5c5.7-3.8,4.5-10.2,1.2-16.1C230.6,239.7,226,238.9,221.7,237.5L221.7,237.5z"/>
			<path class="st1" d="M183.9,194.9c-0.5,5.3,3.4,10.6,8.1,14.7c4.7,4,10.2,7.2,14.9,11.2c3.4,2.9,6.2,6.3,9.9,8.9
				c0.8,0.5,1.7,1.1,2.6,0.9c0.9-0.2,1.4-1,1.5-1.9c0.1-2.4-2.4-4.5-4.6-6.3c-5.9-4.8-11.1-10.3-15.2-16.3c-2-2.9-3.9-6-6.5-8.6
				C192.4,195.3,184.4,189.6,183.9,194.9L183.9,194.9z"/>
		</g>
		<g>
			<path class="st4" d="M201,250c-2.4-1.2-4.9-2.6-6.2-4.6c-1.9-3-1-6.9,1.4-10c2.4-3.1,5.9-5.4,9.6-7.6
				c19.4-11.4,42.4-17.8,65.4-21.3c3.4-0.5,7-1,10.2-0.1c2.3,0.7,4.2,2,5.9,3.5c3.5,3.1,6.2,6.9,6.3,11.2c0,4.9-3.5,9.7-7.6,13.7
				c-8.8,8.5-20.3,14.8-31.9,20.5c-10,5-24,3.4-34.2,1.3C213.1,255,206.8,252.8,201,250L201,250z"/>
			<path class="st0" d="M256.7,235.3c-13.9,2-25.5,1.2-38.7-1.2c-5.3-1-10.4-2.6-15.3-4.4c-2.5,1.7-4.9,3.5-6.6,5.7
				c-2.4,3.1-3.3,7-1.4,10c1.3,2,3.7,3.4,6.2,4.6c5.8,2.9,12.1,5.1,18.8,6.5c10.2,2.2,24.3,3.7,34.2-1.3c11.6-5.7,23.1-12,31.9-20.5
				c4.1-4,7.6-8.7,7.6-13.7c0,0,0-0.1,0-0.1C282.5,227.9,269.9,233.3,256.7,235.3L256.7,235.3z"/>
			<path class="st1" d="M227.3,220.3c-1.4,0.5-2.8,0.9-3.9,1.8c-1.1,0.8-1.8,2.1-1.3,3.2c0.8,1.8,4,1.8,6.4,1.3
				c8.1-1.6,15.7-4.6,23.7-6.7c7.9-2.1,16.7-3.1,24-0.6c1.5,0.5,2.9,1.2,4.5,1.5s3.5,0.3,4.9-0.6c2.2-1.3,2.4-4,1.1-5.6
				c-1.4-1.7-3.8-2.6-6.3-3.1C262.5,207.4,244.3,214.6,227.3,220.3L227.3,220.3z"/>
		</g>
		<g>
			<path class="st4" d="M265.6,252.9c1.1-2.9,3.2-5.3,5.1-7.7c18.2-22,32.7-47,42.7-73.7c1.6-4.2,3.1-8.6,5.8-12.2
				c2.7-3.6,6.8-6.5,11.3-6.5c5.2,0,9.8,3.9,12,8.6c2.3,4.7,2.7,10,2.9,15.2c0.6,15.1-0.3,30.4-4.3,45c-4,14.6-11.3,28.5-22.3,38.9
				c-10.2,9.6-23.1,15-36.8,17.2C268.3,280,261.1,264.6,265.6,252.9L265.6,252.9z"/>
			<path class="st2" d="M281.9,277.8c1.2-0.2,2.4-0.4,3.5-0.6c6.2-10.8,11.7-21.9,16.8-33.2c6.8-16.5,11.9-33.1,15-50.7
				c1.3-11.4,2-22.8,2.3-34.3c-0.1,0.1-0.2,0.2-0.3,0.3c-2.7,3.6-4.2,8-5.8,12.2c-10,26.7-24.5,51.7-42.7,73.7c-2,2.4-4,4.8-5.1,7.7
				C261.1,264.6,268.3,280,281.9,277.8L281.9,277.8z"/>
			<path class="st1" d="M326,174.8c1.1,12.2,0.6,24.4-1.3,36.5c-0.2,1.4-0.5,2.9-0.1,4.3c0.4,1.4,1.6,2.7,3.1,2.7
				c1.5,0,2.6-1.4,3.4-2.7c7.7-12.3,8.4-27.6,8-42.2c-0.1-3.5-0.2-7.2-1.7-10.4c-1.7-3.5-7.4-8.4-10.1-3.5
				C324.8,164.1,325.6,169.9,326,174.8L326,174.8z"/>
		</g>
		<g>
			<path class="st2" d="M210.1,248.4c-1.8-2.5-4.4-4.3-6.8-6.2c-23-16.8-43.3-37.5-59.6-60.9c-2.6-3.7-5.1-7.5-8.6-10.4
				c-3.5-2.8-8.2-4.6-12.6-3.5c-5,1.3-8.5,6.2-9.5,11.3c-1,5.1-0.1,10.4,1,15.4c3.2,14.8,7.8,29.4,15.3,42.6
				c7.5,13.1,18,24.8,31.2,32.1c12.3,6.8,26.1,8.8,39.9,7.6C214.3,275.3,217.4,258.7,210.1,248.4L210.1,248.4z"/>
			<path class="st4" d="M118.7,182.8c0.3,1.7,0.6,3.3,1,5c1.6,7.4,4.3,14.5,7.8,21.2c7.5,14.2,19.4,25.6,32.6,34.5
				c8.4,5.7,17.2,10.9,26.6,14.7c2.3,0.9,26.3,9.2,26.9,5.9c0.9-5.2-0.2-11.1-3.5-15.6c-1.8-2.5-4.4-4.3-6.8-6.2
				c-23-16.8-43.3-37.5-59.6-60.9c-2.6-3.7-5.1-7.5-8.6-10.4c-3.5-2.8-8.2-4.6-12.6-3.5c-2.1,0.6-4,1.8-5.5,3.4
				c-1.4,1.5,0.3,5.8,0.7,7.4C118.1,179.8,118.4,181.3,118.7,182.8L118.7,182.8z"/>
			<path class="st1" d="M132.4,180.6c3.3,8.7,7.7,17,13,24.6c0.6,0.9,1.3,1.8,1.5,2.9c0.2,1.1-0.2,2.4-1.2,2.8
				c-1.1,0.5-2.3-0.1-3.2-0.7c-9.4-5.9-14.9-16.2-19.5-26.2c-1.1-2.4-2.2-5-2.3-7.7c0-3,2.3-8.2,5.7-5.8
				C129.6,172.8,131,177.1,132.4,180.6L132.4,180.6z"/>
		</g>
		<g>
			<path class="st4" d="M366.2,240.8c3.3,1.8,6.1,4.1,7.7,7.3c1.5,3,1.9,6.4,1.9,9.7c0,7.8-2.8,15.3-6.6,22.1
				c-5.7,10-12.3,18.8-21.2,26.2c-5.6,4.7-11.9,8.5-18,12.6c-9.4,6.4-19.3,11.9-30.8,13.1c-10.6,1.1-22.1-0.6-29.7-8.8
				c-9.9-10.8-9.1-25.6,1.2-35.4c8-7.6,17.8-13,26.6-19.6c4.7-3.6,9.2-7.5,13.6-11.4c5.1-4.4,10.1-8.9,15.2-13.4
				c2.8-2.5,5.7-6,9.3-7.4c6.6-2.7,14.5-1.1,21,1C359.5,237.8,363,239,366.2,240.8L366.2,240.8z"/>
			<path class="st0" d="M339.7,242c-1.6,6.2-3.4,14.3-3.8,15.5c-4.5,13.9-13.7,26.2-26.5,33.5c-6.5,3.7-13.8,6-21.2,6.5
				c-7.6,0.5-15.1-2-22.7-1c-0.4,0-1.6-0.1-1.8,0.4c1.5-3.6,4.1-6.7,7-9.4c8-7.6,17.8-13,26.6-19.6c4.7-3.6,9.2-7.5,13.6-11.4
				c5.1-4.5,10.1-8.9,15.2-13.4c2.8-2.5,5.7-6,9.3-7.4c2.1-0.9,4.4-1.4,6.7-1.2C341.7,234.5,340.7,237.9,339.7,242L339.7,242z"/>
			<path class="st1" d="M357.1,269.8c-4,3.7-8.7,6.4-13.5,8.9c-1,0.5-2.1,1.1-3.2,0.8c-1.2-0.3-1.9-1.7-1.9-3c0-1.3,0.6-2.5,1.2-3.6
				c3.1-6.3,6.8-12.3,9.9-18.6c1.3-2.7,2.5-5.6,4.4-7.9s4.6-4.2,7.6-4.3C376.5,241.9,361.4,265.8,357.1,269.8L357.1,269.8z"/>
		</g>
		<g>
			<path class="st0" d="M178.7,271.2c-2.4-3.7-4.5-7.7-5.1-12c-0.6-4.3,0.4-9.1,3.6-12.2c4-3.8,10.3-4.1,15.6-2.7
				c5.3,1.5,10.1,4.4,15.3,6.2c9.7,3.5,20.4,3.2,30.6,1.2c10.1-2.1,19.8-5.9,29.5-9.4c3.9-1.4,8.1-2.8,12.3-2.2
				c7,1.1,12.1,8.2,12.6,15.3c0.5,7.1-2.7,14-6.8,19.8c-5.4,7.5-12.6,13.6-20.4,18.4c-6.8,4.2-16.2,10.2-24.2,11.3
				c-14.7,2-32.8-6.2-44.3-14.6C189.9,285.2,183.6,278.7,178.7,271.2L178.7,271.2z"/>
			<path class="st2" d="M265.8,277.8c-15.2,5.5-33.5,6.4-49.3,2.9c-11.6-2.6-22.6-7.6-32.9-13.4c-3.6-2-6.8-4.3-9.7-6.8
				c0.8,3.8,2.7,7.4,4.9,10.7c4.9,7.5,11.2,14,18.4,19.2c11.5,8.4,29.6,16.6,44.3,14.6c8-1.1,17.4-7,24.2-11.3
				c7.8-4.9,15-10.9,20.4-18.4c2.4-3.3,4.5-7,5.7-11C283.7,269.9,275.1,274.5,265.8,277.8L265.8,277.8z"/>
			<path class="st1" d="M201.2,263.4c4.5,1.2,8.9,2.4,13.4,3.6c5.7,1.5,11.5,3.1,17.4,3.1c2.7,0,5.4-0.3,8-1
				c2.8-0.7,5.5-1.7,8.2-2.8c8.4-3.3,16.8-6.5,25.2-9.7c2.2-0.8,4.5-1.8,5.9-3.6s1.5-5-0.4-6.3c-1.3-0.8-2.9-0.7-4.4-0.4
				c-12.8,2.3-23.7,11.1-36.5,13.6c-10.4,2-21.2-0.3-31.1-4.1c-4.8-1.8-19.8-11.2-24.4-5.3C177.3,257.3,197.5,262.4,201.2,263.4
				L201.2,263.4z"/>
		</g>
		<g>
			<path class="st0" d="M176,271.7c-8.9-5.1-18.7-8.8-27.4-14.4c-8.2-5.3-15.3-12.4-23.8-17.2c-8.5-4.8-19.4-7.3-28-2.7
				c-0.8,0.4-1.7,1-2.2,1.8c-0.4,0.8-0.5,1.7-0.5,2.5c-0.1,4.9,1,9.7,3.2,14.1c1.9,3.7,4.5,7,7.1,10.2c5.9,7.3,11.8,14.7,17.7,22
				c5.7,7.1,11.6,14.4,19,19.7c5.4,3.8,11.6,6.6,18,8.4c10.9,3.2,23.6,3.5,32.8-3.3c1.6-1.2,3.1-2.6,4.1-4.3
				C205.3,293.7,187.3,278.2,176,271.7L176,271.7z"/>
			<path class="st2" d="M172.6,286.9c-16,0.2-30.3-6.9-43.5-15c-6.5-4-12.3-8.4-18.3-13.3c-1.4-1.2-2.8-2.4-4.1-3.8
				c-3.3-3.6-6.9-8-9.1-12.4c-0.7-1.5-1.4-2.9-2-4.4c-0.4,0.3-0.7,0.6-1,1.1c-0.4,0.8-0.5,1.7-0.5,2.5c-0.1,4.9,1,9.7,3.2,14.1
				c1.9,3.7,4.5,7,7.1,10.2c5.9,7.3,11.8,14.7,17.7,22c5.7,7.1,11.6,14.4,19,19.7c5.4,3.8,11.6,6.6,18,8.4
				c10.9,3.2,23.6,3.5,32.8-3.3c1.6-1.2,3.1-2.6,4.1-4.3c5.6-8.9,1.3-18-5.4-25.3C184.9,285.6,178.7,286.9,172.6,286.9L172.6,286.9z
				"/>
			<path class="st1" d="M106.2,241.8c1.7,8.3,8.9,14.5,16.6,18.1c7.7,3.7,16.1,5.5,23.7,9.3c5.5,2.7,10.6,6.4,16.4,8.4
				c1.2,0.4,2.7,0.8,3.8,0c1.1-0.7,1.4-2.3,1.1-3.6c-0.9-3.8-5-5.6-8.6-7.2c-9.6-4.2-18.5-9.9-26.3-16.9c-3.9-3.4-7.5-7.2-12-9.8
				C117.1,237.9,104.5,233.5,106.2,241.8L106.2,241.8z"/>
		</g>
		<g>
			<path class="st4" d="M179.2,322.9c-2.2-2.1-4.4-4.4-5.3-7.3c-1.3-4.2,0.3-9,3.2-12.4c2.9-3.4,6.9-5.5,11-7.4
				c21.5-9.9,45.7-12.7,69.3-11.9c3.5,0.1,7.2,0.4,10.2,2.2c2.2,1.4,3.8,3.5,5.2,5.8c2.9,4.7,4.9,10.2,4.2,15.6
				c-0.9,6.3-5.3,11.5-10.1,15.6c-10.3,8.8-23,14-35.6,18.6c-10.9,4-24.6-1.2-34.4-6.3C190.4,332.1,184.5,327.8,179.2,322.9
				L179.2,322.9z"/>
			<path class="st0" d="M237.6,317.2c-14.3-0.6-25.7-4.4-38.3-10.5c-5.1-2.5-9.9-5.7-14.4-9.2c-2.8,1.5-5.5,3.3-7.6,5.7
				c-2.9,3.4-4.6,8.1-3.2,12.4c0.9,2.9,3.1,5.2,5.3,7.3c5.3,5,11.2,9.2,17.6,12.6c9.8,5.1,23.5,10.3,34.4,6.3
				c12.6-4.6,25.3-9.9,35.6-18.6c4.8-4.1,9.3-9.3,10.1-15.6c0,0,0-0.1,0-0.1C264.7,313.9,251.1,317.8,237.6,317.2L237.6,317.2z"/>
			<path class="st1" d="M211,291.3c-1.5,0.3-3,0.6-4.2,1.4c-1.2,0.8-2.2,2.3-1.9,3.7c0.5,2.5,3.7,3.2,6.2,3.1
				c8.4-0.1,16.5-2.2,24.9-3c8.3-0.8,17.3-0.1,24,4.8c1.4,1,2.7,2.2,4.2,3c1.5,0.8,3.4,1.2,5,0.4c2.4-1.1,3.1-4.5,2.1-6.9
				c-1-2.5-3.3-4.1-5.7-5.4C248.6,283.2,229.1,288,211,291.3L211,291.3z"/>
		</g>
		<g>
			<path class="st4" d="M81.7,263.9c-2.4,0.9-4.6,2.2-5.9,4.2c-1.3,1.9-1.9,4.1-2.3,6.4c-0.7,5.3,0.4,10.7,2.3,15.6
				c2.9,7.3,6.5,14,11.8,19.9c3.4,3.8,7.3,6.9,11,10.3c5.7,5.3,11.9,10,19.6,11.9c7.1,1.8,15.1,1.8,21-3c7.8-6.3,8.7-16.5,2.7-24.2
				c-4.7-6-10.8-10.6-16.1-15.9c-2.9-2.9-5.5-6-8.1-9.1c-3-3.5-6-7-9-10.6c-1.7-2-3.3-4.6-5.6-5.9c-4.2-2.5-9.7-2.2-14.4-1.4
				C86.6,262.6,84.1,263.1,81.7,263.9L81.7,263.9z"/>
			<path class="st0" d="M99.6,267.4c0.5,4.4,0.9,10,1.1,10.9c1.7,9.9,6.7,19.2,14.7,25.3c4,3.1,8.8,5.4,13.8,6.5
				c5.1,1.1,10.4,0.1,15.5,1.5c0.3,0.1,1.1,0.1,1.2,0.4c-0.7-2.6-2.1-5-3.8-7.1c-4.7-6-10.8-10.6-16.1-15.9c-2.9-2.9-5.5-6-8.1-9.1
				c-3-3.5-6-7-9-10.6c-1.7-2-3.3-4.6-5.6-5.9c-1.3-0.8-2.9-1.4-4.4-1.5C99,262.1,99.3,264.5,99.6,267.4L99.6,267.4z"/>
			<path class="st1" d="M91.1,299.8c1.3,2,3.2,4.2,5.6,3.9c2.2-6.5,1-13.7-0.3-20.5c-0.6-3.4-1.3-6.9-1.9-10.3
				c-0.3-1.7-0.6-3.4-1.5-4.8c-0.8-1.5-2.3-2.7-4-2.9c-5.8-0.5-4.6,12.3-4.3,15.7C85.4,287.5,87.6,294.1,91.1,299.8L91.1,299.8z"/>
		</g>
		<g>
			<path class="st5" d="M178.4,365.3c-16.2,0-32.3-7.1-43.3-19c-6.4-7-11.3-16.8-8.5-25.9c1.9-6.2,7-11,12.8-13.8
				c13.8-6.8,30.8-3.5,44.1,4.2c7.7,4.4,14.5,10.2,20.9,16.3c4.5,4.3,14.9,11.4,14.5,18.4C217.9,359.8,189.1,365.3,178.4,365.3
				L178.4,365.3z"/>
			<path class="st0" d="M196.9,346.8c-9,0.8-18.4-0.9-27.1-2.7c-16.3-3.4-30.9-11.6-43.7-22c-1.7,8.6,2.9,17.6,9,24.1
				c11,11.9,27.1,19,43.3,19c10.7,0,39.5-5.5,40.4-19.9c0.1-0.8-0.1-1.7-0.3-2.5C211.6,345.1,204.3,346.2,196.9,346.8L196.9,346.8z"
				/>
			<path class="st1" d="M176.1,328.8c3.8,1.3,7.4,3.3,11.2,4.2c3.2,0.8,6.2-2,5.6-5.3c-0.2-1.3-0.8-2.6-1.5-3.8
				c-1.8-2.8-4.5-4.9-7.4-6.7c-9.6-5.9-22.4-10.4-33.8-9.4c-4.1,0.3-8.5,3.6-6.6,8.1c2,4.8,9.3,7.1,13.9,8.3
				C163.7,325.9,170.1,326.6,176.1,328.8L176.1,328.8z"/>
		</g>
		<g>
			<path class="st5" d="M293.4,347.3c4.4,0.4,8.8,0.8,13.2,0.5c3.6-0.3,7.2-1.1,10.7-2c20.6-5.7,39.5-17.6,53.5-33.7
				c3.3-3.8,6.4-7.9,8.5-12.5c1.8-3.9,2.7-9-0.1-12.3c-2.4-2.8-6.6-3.3-10.3-3.3c-29.6-0.4-59.2,8.3-83.8,24.7
				c-17.4,11.5-33.3,27.2-53.8,31c-2.7,0.5-16.4,3.3-8.7,6.1c5.8,2.1,15.5-0.5,21.6-0.6C260.7,344.7,277.1,345.8,293.4,347.3
				L293.4,347.3z"/>
			<path class="st2" d="M376.6,301.9c-4.6,3.5-9,6.9-14.2,9.3c-12.4,5.8-25.1,10-38.6,12.2c-11.4,1.8-23,3-34.5,4.3
				c-13.9,1.8-27.8,3.5-41.6,6c-5.2,2.6-10.6,4.6-16.4,5.7c-2.7,0.5-16.4,3.3-8.7,6.1c5.8,2.1,15.5-0.5,21.6-0.6
				c16.4-0.3,32.8,0.8,49.1,2.3c4.4,0.4,8.8,0.8,13.2,0.5c3.6-0.3,7.2-1.1,10.7-2c20.6-5.7,39.5-17.6,53.5-33.7
				c3.2-3.7,6.2-7.6,8.3-12.1C378.3,300.6,377.4,301.3,376.6,301.9L376.6,301.9z"/>
			<path class="st1" d="M342.2,290.9c-16.4,5.2-32.4,11.5-47.8,19c-1.3,0.6-2.8,1.7-2.5,3.1c3.8,1.1,7.9,0.3,11.8-0.6
				c14.9-3.2,29.7-6.5,44.5-9.7c9.1-2,18.4-4,26.9-7.7c1.1-0.5,2.4-1.2,2.6-2.4c0.2-1.2-0.6-2.3-1.6-3
				C366.6,283,352.6,287.7,342.2,290.9L342.2,290.9z"/>
		</g>
	</g>
	<g>
		<polygon class="st6" points="440.6,466.4 405.2,527.3 405.1,527.5 369.9,588.2 369.6,588.7 334.2,649.6 123.3,649.6 88,588.5 
			88,588.5 70.4,558 52.8,527.5 52.8,527.4 17.5,466.4 52.8,405.3 52.8,405.3 88,344.2 369.5,344.2 373.7,351.4 373.8,351.6 
			405,405.3 405.2,405.6 		"/>
		<polygon class="st7" points="17.5,466.4 143.2,496.9 303.5,496.9 440.6,466.4 369.5,344.2 88,344.2 		"/>
		<polygon class="st8" points="17.5,466.4 88,344.2 143.2,496.9 		"/>
		<polygon class="st8" points="303.5,496.9 369.5,344.2 440.6,466.4 		"/>
		<polygon class="st8" points="229,344.2 303.5,496.9 143.2,496.9 		"/>
		<polygon class="st7" points="17.5,466.4 143.2,496.9 123.3,649.6 		"/>
		<polygon class="st7" points="303.5,496.9 334.2,649.6 440.6,466.4 		"/>
		<polygon class="st7" points="229,649.6 303.5,496.9 143.2,496.9 		"/>
		<path class="st9" d="M88,344.2L17.5,466.4l105.8,183.2h211l44.3-76.4C378.6,573.3,23.7,674.8,88,344.2z"/>
	</g>
	<path class="st10" d="M369.5,344.2l71.1,122.2c0,0-283.4,77.6-285.5-122.2H369.5L369.5,344.2z"/>
</g>
<path class="st11" d="M561.2,411.3c3.2,12,8.7,23.2,14.9,33.9c6.3,11,13.6,21.8,23.9,29.3c3.7,2.7,9.4,4.8,12.5,1.4
	c1.2-1.2,1.7-2.9,1.9-4.6c1-6.6-1.7-13.2-4.3-19.4c-2.6-6.2-5.2-12.5-7.8-18.7c-7.2-17.2-14.4-34.5-24.7-50c-1.9-2.9-4-5.8-7-7.7
	C552.8,363.9,559.2,403.8,561.2,411.3L561.2,411.3z"/>
<path class="st11" d="M634.8,509.8c1.3,0.2,2.9,0.2,3.6-0.9c0.3-0.5,0.4-1,0.5-1.5c0.8-7.3-8.3-29.3-18.1-20.9
	C611.8,494.1,627.3,508.5,634.8,509.8L634.8,509.8z"/>
<g>
	<g>
		<path class="st12" d="M529.1,156c-0.4-29.8,7-59.4,18.3-86.9c0.6-1.4,1.5-3,3-3.2c1.5-0.1,2.7,1.3,3.5,2.6
			c14.9,24.1,26.7,50.6,31.4,78.6s2.1,57.6-10.4,83.1c-2,4.1-4.4,8.3-8.4,10.7C543,255.4,529.3,169.4,529.1,156z"/>
		<path class="st13" d="M540.4,102.1c-0.6,3.2-1.1,6.5-1.2,9.7c-0.1,6.9,2.2,13.9,6.3,19.4c3.6,4.9,8.5,8.6,13.3,12.2
			c3.6,2.7,7.2,5.5,11.2,7.7c1.4,0.8,3,1.5,4.5,0.9c1.5-0.6,2.2-2.4,2.6-4c2-8.6-0.4-17.5-3-26c-3.3-10.8-7-21.5-11.1-32
			c-1.5-3.8-3-7.5-5-11.1c-1.5-2.7-3.7-5.8-7.1-5.9c-0.5,0-0.9,0-1.4,0.2c-1.1,0.4-1.7,1.4-2.3,2.4c-1.9,3.9-2.4,8.6-3.6,12.8
			C542.5,93,541.2,97.5,540.4,102.1z"/>
		<path class="st14" d="M569.8,179.6c-10.1-5.7-19.4-13.2-26.7-22.3c-5.2-6.4-10-13.6-13.1-21.3c-0.6,6.6-1,13.3-0.9,20
			c0.2,13.4,13.9,99.4,37.5,84.9c3.9-2.4,6.3-6.6,8.4-10.7c6.7-13.7,10.6-28.6,12-43.7C580.7,184.9,574.8,182.4,569.8,179.6z"/>
		<path class="st13" d="M617.4,88.6c-0.9-2.5-2-4.8-3.4-6.4c-1.6-1.8-4.1-3-6.6-2.6c-2.6,0.5-4.6,2.5-6.1,4.6
			c-3.2,4.2-5.6,9-7.8,13.8c-10,21.8-15.8,45.5-17.4,69.5c-0.8,12.1-0.5,24.3,1,36.3c1.2,10,2.4,22.5,8.6,30.9
			c1.6,2.2,3.7,3.9,6.3,4.6c8.2,2.3,15.7-5.9,18-14.1c12-42.2,26.4-85.8,10.1-128.9C619.3,94.1,618.4,91.3,617.4,88.6z"/>
		<path class="st15" d="M603.7,228.5c-4.6-15.5-8.9-31.2-13.3-46.8c-4.3-15.1-7.2-30.1-9.7-45.5c-2.3,10.3-3.8,20.8-4.5,31.3
			c-0.8,12.1-0.5,24.3,1,36.3c1.2,10,2.4,22.5,8.6,30.9c1.6,2.2,3.7,3.9,6.3,4.6c5,1.5,9.9-1.2,13.3-5.3
			C604.8,232.2,604.2,230.4,603.7,228.5z"/>
		<g>
			<path class="st12" d="M601.2,213.8c3.2-20.3,10.7-39.6,18.2-58.7c6.4-16.3,12.8-32.7,19.2-49c1-2.6,2.2-5.4,4.5-7
				c4.3-2.9,10.6-0.1,13.1,4.5c2.5,4.5,2.3,10,2,15.2c-2.6,40.9-8.7,81.7-18.1,121.6c-2.6,11.3-12.3,54.8-30.1,34.6
				C597.3,260.5,598.4,231.2,601.2,213.8z"/>
			<path class="st16" d="M653.5,159.4c-4.2-1.2-8.6,0.9-11.6,3.8c-3.7,3.5-5.9,8.2-8.8,12.3c-3.1,4.3-6.5,8.4-9.8,12.6
				c-3.3,4.1-6.8,8.4-9.9,12.8c-3.2,4.5-5.7,9.5-8.9,14c-1.4,2-4,4.6-4.2,7.1c-1.7,17.4-1,40.6,9.9,53
				c17.9,20.2,27.5-23.3,30.1-34.6c6.2-26.5,11-53.3,14.3-80.3C654.1,159.8,653.8,159.6,653.5,159.4z"/>
			<path class="st13" d="M650.8,117.6c0-3-0.3-6.2-2.1-8.5c-0.5-0.6-1-1.1-1.7-1.4c-1.5-0.6-3.2,0.1-4.2,1.3
				c-1.1,1.2-1.6,2.7-2.1,4.2c-6.5,18.8-12.3,38.1-22.7,55.1c-3.1,5.1-6.8,10.5-6.1,16.4c0.7,6.9,9.7-2.6,11.9-4.6
				c4.2-3.9,8-8.2,11.3-12.9c6.6-9.3,11.4-19.9,13.8-31C650.2,130.1,650.8,123.8,650.8,117.6z"/>
		</g>
		<g>
			<path class="st12" d="M494.8,147.9c-0.3-3.5-0.5-7-0.7-10.5c-0.2-4.1,0.1-9.2,3.8-10.9c3.2-1.4,6.8,0.6,9.6,2.8
				c9.1,7,17,15.6,23.2,25.3c9.2,14.4,14.6,30.8,19.9,47.1c2.4,7.3,4.8,14.6,7.1,21.9c2.2,6.6,3.6,14.2,7.4,20.1
				c6.8,10.6,10.2,25.7,10.2,38.3c0.2,10.2-4.4,22.9-14.6,23.5c-3.5,0.2-6.9-1.1-10-2.7c-27.4-13.7-27-36.6-36.5-61.2
				C502.6,211.1,497.2,180,494.8,147.9z"/>
			<path class="st14" d="M557.1,274.2c-15.2-21.4-27.2-45.1-38.1-68.9c-9.9-21.7-19.5-44.3-24.8-67.7c0.2,3.5,0.4,6.9,0.7,10.4
				c2.4,32.1,7.8,63.2,19.5,93.5c9.5,24.6,9.2,47.5,36.5,61.2c3.1,1.6,6.5,2.9,10,2.7c5.9-0.4,9.9-4.8,12.2-10.5
				C567.4,288.2,562.1,281.3,557.1,274.2z"/>
			<path class="st17" d="M499,134.3c-0.1,6.9,3,13.5,7.4,18.8c4.3,5.3,9.8,9.6,15.1,13.9c4.5,3.6,8.9,7.4,12.5,11.9
				c0.9,1.2,2.8,0.5,2.9-1c0.1-1.7-0.2-3.4-0.7-5c-0.9-2.8-2.5-5.3-4.1-7.8c-6.1-9.6-12.4-19.3-20.1-27.6c-2.2-2.4-4.7-4.8-7.6-6.4
				C500.8,129.1,499.1,129.9,499,134.3z"/>
		</g>
		<g>
			<path class="st12" d="M601.6,265.5c8.6-15.9,17.9-31.4,26.8-47.2c11.6-20.5,23.6-40.9,38-59.6c2.5-3.2,5.1-6.4,8.5-8.6
				c0.9-0.6,1.9-1.1,3-1.1c14.3-0.1,0,78.3-2.4,87.8c-7,27.3-19.6,53.6-39.1,73.9c-9,9.4-39.3,40-50,21.5c-9.7-16.6,1-39.3,8.7-54.5
				C597.2,273.6,599.4,269.5,601.6,265.5z"/>
			<path class="st18" d="M649.3,248.4c5.6-18.5,10.7-37,13.5-56.1c0.9-6.9,1.8-13.9,3-20.7c0-3.9,0-7.7-0.3-11.6
				c-14,18.4-25.7,38.3-37.1,58.4c-8.9,15.8-18.3,31.3-26.8,47.2c-2.2,4.1-4.3,8.2-6.4,12.3c-7.7,15.2-18.4,38-8.7,54.5
				c6.3,10.8,19.4,4.7,30.9-4c7-18.9,16.1-36.9,24.8-55.1C644.4,264.9,646.8,256.7,649.3,248.4z"/>
			<path class="st19" d="M678.3,155c2.6,2,2.5,7,2.6,10c0.2,4.2-0.2,8.4-0.9,12.5c-1.2,7-3.8,13.5-5.5,20.4
				c-1.7,6.6-4.1,13.2-7,19.5c-0.7,1.5-2.9,1-2.9-0.6c-0.1-2-0.1-4-0.1-6c0.2-10.4,1.8-20.7,3.5-31c0.8-5.2,1.6-10.4,2.2-15.7
				c0.3-2.2,1-4.4,2.4-6.2C673.6,156.3,676.3,153.5,678.3,155z"/>
		</g>
		<g>
			<path class="st13" d="M694.8,201.7c2.4-2.2,4.8-4.4,7.2-6.5c4.7-4.2,10.1-8.4,16.3-8.7c6.6-0.3,8.1,6.5,8,11.8
				c-0.1,12.5-4.7,24.5-9.5,36.1c-18.6,45-42.6,89.7-81.2,119.2c-5.1,3.9-10.4,7.5-16.3,10.1c-2.7,1.2-12.6,6-14.8,3.4
				c-1-1.1-1.2-2.7-1.3-4.1c-1.6-18.7,3.3-37.4,11.2-54.4c7.9-17,18.7-32.4,29.7-47.6c5.5-7.6,11-15.2,16.8-22.5
				C671.3,225.3,682.6,213,694.8,201.7z"/>
			<path class="st12" d="M628.3,311.6c8.1-8.9,16.3-17.8,23.9-27.2c6.4-8.8,12.1-18,17.5-27.4c5.4-9.3,10.6-18.6,15-28.4
				c3.3-8.2,6-16.6,8.1-25.2c-11.4,10.8-22.1,22.5-31.9,34.8c-5.8,7.3-11.4,14.9-16.8,22.5c-10.9,15.2-21.8,30.6-29.7,47.6
				c-4.1,8.9-7.4,18.3-9.4,27.9C613.4,328.7,620.7,320.1,628.3,311.6z"/>
			<path class="st20" d="M698.4,233c-1.4,4.5-3.2,8.9-5.1,13.2c-4,8.9-8.5,17.6-13.5,26c-2,3.4-4.2,6.9-4.5,10.9
				c-0.1,1.5,0.3,3.2,1.7,3.7c1.3,0.4,2.5-0.6,3.5-1.5c4.4-4.4,7.8-9.8,11-15.1c6.2-10.2,12.1-20.5,17.9-31c1.7-3.1,3.5-6.3,5-9.5
				c5.1-10.8,8.2-22.6,8.8-34.6c0.1-2.1,0-4.5-1.5-5.8c-2.1-1.8-5.3-0.7-7.7,0.7c-3.4,1.9-6.7,4-9.8,6.2c-3.1,2.3-2,3.9-1.8,7
				c0.2,3.3,0.1,6.7-0.1,10.1C701.6,220,700.4,226.6,698.4,233z"/>
		</g>
		<g>
			<path class="st12" d="M660.5,304.2c21.5-13.7,45.7-24,71-26.1c2.5-0.2,5.1-0.3,7.2,1c3.2,1.9,4,6.2,3.8,9.9
				c-0.6,16.2-12.9,29.5-25.4,39.9c-32.2,26.8-72.3,45.2-114.2,47c-2.6,0.1-5.3,0.1-7.5-1.2c-3.6-2.2-4.5-7.4-3-11.4
				c4.2-11.5,19.2-21.2,28-28.8C633.3,323.7,646.4,313.2,660.5,304.2z"/>
			<path class="st18" d="M727.5,316.1c-13.4,7.2-27.9,12-42.6,15.5c-24,5.8-48.2,11.6-72.6,9.6c-7.9,6.3-16.7,13.7-19.8,22.1
				c-1.5,4-0.6,9.2,3,11.4c2.2,1.3,5,1.3,7.5,1.2c41.9-1.7,82-20.2,114.2-47c5.7-4.7,11.3-10.1,15.8-16
				C731.3,314,729.4,315.1,727.5,316.1z"/>
			<path class="st21" d="M692.8,292.1c2.2-0.7,4.4-1.3,6.6-2c3.5-1,6.9-2,10.4-3c7.7-2.2,15.5-4.5,23.5-5c1.2-0.1,2.5-0.1,3.6,0.4
				c1.4,0.6,2.4,1.9,2.9,3.4c0.5,1.4,0.6,3,0.7,4.5c0.1,1.5,0.1,3.1-0.4,4.5c-0.5,1.4-1.6,2.8-3.2,3c-1.3,0.2-2.7-0.5-3.7-1.3
				c-1-0.9-1.9-2-2.9-2.9c-3.6-3.2-8.8-3.4-13.6-3.1c-6.8,0.4-13.7,1.6-20.2,3.5c-4.1,1.2-8.2,2.7-12.2,4c-3.7,1.2-8.5,3.1-12.3,2.7
				c1-2.3,7.2-3.8,9.4-4.7C685.1,294.6,688.9,293.3,692.8,292.1z"/>
		</g>
		<g>
			<path class="st13" d="M538.3,215.1c-0.7-13-1-26.1,0.2-39c0.7-7.3-0.8-25.1,7.8-28.5c7-2.8,14.8,9.4,18.4,13.8
				c25.6,30.9,37.4,72.3,40.8,111.7c1.5,17.5,1.9,38.9-7.8,54.4c-5.1,8.1-14.1,14.4-23.7,14.2c-20.3-0.5-24.7-35.3-28.4-50.6
				c-3.5-14.5-4.7-29.4-5.5-44.3C539.7,236.3,538.9,225.8,538.3,215.1z"/>
			<path class="st19" d="M550.3,183.5c6.8,17.2,14.9,33.9,20.4,51.6c3.6,11.7,6.2,24.2,13.9,33.8c1.5,1.8,3.9,3.7,6,2.5
				c0.7-0.4,1.2-1.1,1.6-1.8c3.1-5.2,4.4-11.3,3.8-17.3c-0.4-3.6-1.4-7.1-2.5-10.6c-2.3-7.5-4.6-14.9-6.8-22.4
				c-6.7-22-14.1-45.1-30.9-60.9c-4.8-4.6-9-2.9-9.8,3.1C544.9,169,547.5,176.6,550.3,183.5z"/>
		</g>
		<g>
			<path class="st12" d="M452.1,201.9c-0.6-1.6-1.1-3.3-1.7-4.9c-1.3-3.9-2.6-7.8-2.6-11.9c0-13.6,10.4-9.5,17.2-3
				c18,17.4,34.1,36.8,47.9,57.6c13.7,20.7,25.5,45.3,20.4,69.6c-0.7,3.3-1.8,6.7-4.1,9.2c-4.4,4.7-12,4.7-17.8,1.9
				c-17-8.4-23-32.1-30.2-48C470.8,249.2,460.5,226,452.1,201.9z"/>
			<path class="st14" d="M511.7,295.8c-10.3-12.6-19.2-25.7-27.4-39.8c-12.1-20.9-24.8-41.5-35.3-63.2c0.4,1.4,0.9,2.8,1.3,4.1
				c0.6,1.6,1.1,3.3,1.7,4.9c8.4,24.1,18.7,47.3,29.2,70.6c7.2,15.9,13.2,39.6,30.2,48c5.7,2.8,13.4,2.8,17.8-1.9
				c0.4-0.4,0.7-0.8,1-1.3C524,310.2,517.7,303.2,511.7,295.8z"/>
			<path class="st17" d="M455.2,195c10.5,26.8,24.5,52.3,41.7,75.5c4.2,5.7,8.8,11.4,15.3,14.2c3.3,1.4,7.6,1.8,10.3-0.6
				c2.2-1.9,2.8-5,2.9-7.9c0.3-8.4-2.2-16.6-6.2-24c-3.9-7.4-9.2-14-14.5-20.4c-13-15.7-26.8-30.6-41.4-44.9
				c-1.9-1.9-5.3-4.9-7.7-2.3C452.7,187.5,453.9,191.7,455.2,195z"/>
		</g>
		<g>
			<path class="st13" d="M594.6,305.7c5.3-7.4,11.9-14.3,20.4-17.7c3.6-1.5,7.9-2.2,11.4-0.3c4.5,2.5,5.6,8.4,5.9,13.5
				c1.2,16.8-0.6,33.9-7.1,49.4c-6.5,15.5-18,29.2-33.1,36.5c-22.3,10.9-17.6-18.2-16.1-30.9C578.2,338,583.7,320.8,594.6,305.7z"/>
			<path class="st12" d="M581.3,389.3c9.6-15,18.8-30.4,26-46.7c4.8-12.2,8.4-24.6,10.3-37.5c0.8-6.1,1.5-12.3,2.4-18.4
				c-1.7,0.2-3.5,0.7-5.1,1.3c-8.5,3.4-15.1,10.3-20.4,17.7c-10.9,15.1-16.4,32.3-18.7,50.6C574.7,366.3,571.5,386.7,581.3,389.3z"
				/>
			<path class="st20" d="M611.5,350.1c5.3-12.1,8.8-25.1,10.2-38.3c0.6-5.6,0.9-11.3,2-16.9c0.2-1,0.5-2.1,1.2-2.9
				c0.7-0.8,2-1.2,2.8-0.6c0.8,0.5,1,1.6,1.1,2.5c2,16.8,0.3,34.1-5,50.2c-1.4,4.2-3,8.3-4.7,12.3c-0.9,2.2-2,4.5-3.7,6.3
				c-1.8,1.8-7.7,4.4-8,0.2C607.1,358.6,609.9,353.9,611.5,350.1z"/>
		</g>
		<g>
			<path class="st14" d="M434,247c-1.8-1.4-4-3-6.3-2.5c-3.1,0.6-4.4,4.4-4.5,7.6c-0.3,9.3,4.2,18.1,8.9,26.2
				c10.1,17.6,21.4,34.4,33.9,50.4c8,10.2,16.7,20.3,28.3,26.2c11.6,5.8,26.7,6.4,36.7-1.8c8.8-7.1,11.1-19.6,8.3-30.2
				c-3.7-13.9-15.2-15.7-26.8-22C484.5,285.8,458.9,266.6,434,247z"/>
			<path class="st12" d="M429.3,255.5c0.8,2.6,2.5,4.9,4.1,7c2.6,3.4,5.2,6.7,7.7,10.1c10.2,13.3,20.6,26.6,32.5,38.4
				c11.9,11.8,25.5,22.3,40.8,29c5.2,2.3,11.4,4,16.3,1.2c4-2.4,5.9-7.6,5.2-12.2s-3.6-8.7-7.1-11.8c-3.5-3.1-7.7-5.4-11.8-7.6
				c-26.3-14.7-51.3-31.9-74.4-51.3c-3.2-2.7-6.4-6.2-9.9-8.6c-2.1-1.4-2.1-2.1-3.5,0.4C428.5,251.5,428.8,253.9,429.3,255.5z"/>
			<path class="st17" d="M435.5,258.7c3.2,4.4,6.5,8.8,10.5,12.5c1.6,1.4,3.2,2.7,4.9,4.1c7.4,5.9,14.8,11.7,22.2,17.6
				c1.9,1.5,3.8,3,6,4.1c0.7,0.4,1.5,0.7,2.3,0.5c1-0.2,1.7-1.1,1.8-2.1c0.2-1-0.1-2-0.6-2.9c-1.3-2.7-3.7-4.7-6-6.6
				c-5.3-4.2-10.7-8.3-16.2-12.3c-1.8-1.3-3.6-2.5-5.3-3.8c-3.4-2.6-6.7-5.4-9.9-8.2c-3.5-3-7-6-10.5-9.1c-1.8-1.5-2.7-1-1.9,1.3
				C433.3,255.6,434.4,257.2,435.5,258.7z"/>
		</g>
		<g>
			<g>
				<path class="st12" d="M463.7,315.5c-6.9-1.7-15.5-2.5-19.7,3.2c-2.6,3.6-2.4,8.7-0.5,12.7c1.9,4,5.2,7.2,8.4,10.3
					c14.5,13.7,30.2,26.9,49.1,33.5c18.8,6.6,41.5,5.6,56.7-7.2c2.5-2.1,4.9-4.7,5.5-7.9c1.6-8.8-34.3-20.3-41.9-23.8
					C502.6,327.9,483.5,320.4,463.7,315.5z"/>
			</g>
			<g class="st22">
				<path class="st14" d="M510.8,351.9c-9.2-6.9-19-13.1-29.1-18.7c-3.7-2-7.5-4-11.2-5.9c-1.1-0.5-2.2-1.1-3.3-1.6
					c-0.4-0.2-0.9-0.4-1.3-0.6c-1.3-0.6-2.5-1.2-3.8-1.7c-5.8-2.1-11.7-3.8-17.6-5.5c-0.2,0.2-0.4,0.5-0.6,0.7
					c-2.6,3.6-2.4,8.7-0.5,12.7c1.9,4,5.2,7.2,8.4,10.3c14.5,13.7,30.2,26.9,49.1,33.5c11.9,4.2,25.3,5.3,37.4,2.3
					C529.8,368.4,520.7,359.8,510.8,351.9z"/>
			</g>
			<path class="st20" d="M454.2,318.2c0.3,0.2,0.6,0.4,0.8,0.5c7.2,3.5,15.4,4.5,22.8,7.5c4.3,1.8,8.3,4.2,12.2,6.7
				c3.9,2.5,7.8,4.8,11.7,7.3c7.3,4.7,14.9,9.8,23.6,10.6c1,0.1,2.1,0.1,2.9-0.5c1.7-1.2,1.2-4-0.2-5.6c-1.7-2-4.1-3.2-6.5-4.3
				c-3.6-1.7-7.2-3.4-10.8-5.2c-11.7-5.6-24.1-10.1-36.4-14.3c-6.2-2.1-12.2-4.2-18.7-4.9c-0.7-0.1-1.6-0.1-1.9,0.6
				C453.5,317.3,453.8,317.8,454.2,318.2z"/>
		</g>
		<g>
			<path class="st12" d="M576.7,330.2c-12-37.6-29.8-73.4-52.6-105.7c-4.6-6.4-12.6-13.5-19.3-9.2c-3.7,2.4-4.8,7.2-5.2,11.6
				c-2,20.6,3.1,41.1,8.5,61.1c4.3,15.9,8.9,31.7,13.7,47.5c5.5,18,12.1,37.1,27.2,48.2c13.9,10.2,24.2,2.5,30.4-11.2
				C585.6,358.6,581.1,344.2,576.7,330.2z"/>
			<path class="st18" d="M552.4,316.9c-4.8-11.6-10.8-23-17.4-33.7c-6.2-9.9-13-19.2-22-26.8c-3.1-2.6-7.9-6.4-11.4-2.1
				c-1.7,2.2-0.3,5.3,0.2,7.7c0.6,2.9,1.2,5.8,1.8,8.7c1.3,5.8,2.9,11.5,4.4,17.2c4.3,15.9,8.9,31.7,13.7,47.5
				c5.5,18,12.1,37.1,27.2,48.2c9.6,7,17.4,5.6,23.4-0.4C568.2,360.5,561.2,338.3,552.4,316.9z"/>
		</g>
		<path class="st20" d="M595.5,114c-1,9.4-0.3,19,0.9,28.4c0.9,6.6,2.1,13.4,5.4,19.2c3.1,5.5,6.5-1.8,7.5-4.7
			c1.7-5,2.5-10.4,3.3-15.6c0.6-3.8,1.1-7.6,1.7-11.4c1.8-11.8,3.5-24.1,0.1-35.5c-0.6-2.2-1.5-4.4-3.2-6c-1.7-1.6-4.2-2.4-6.3-1.4
			c-1,0.5-1.8,1.3-2.4,2.2c-2.4,3.3-3.4,7.7-4.5,11.6C596.8,105.1,596,109.5,595.5,114z"/>
	</g>
	<linearGradient id="SVGID_1_" gradientUnits="userSpaceOnUse" x1="558.8538" y1="504.0622" x2="423.8467" y2="758.3064">
		<stop  offset="0" style="stop-color:#E07974"/>
		<stop  offset="0.8827" style="stop-color:#B97B78"/>
	</linearGradient>
	<path class="st23" d="M491.2,632.5c1,3.6,2,7.3,4.4,10.1c2.5,3,6.2,4.7,10,6c12.4,4.2,25.8,4.5,38.9,4.6c36.3,0.5,72.7,1,109-0.8
		c4.8-0.2,9.8-0.6,14-3c7.3-4.2,10-13.1,12.1-21.3c17.5-69.3,30.8-139.6,40-210.5c1-7.8,2-15.6,2.9-23.4c0.8-7,1.8-12.7-4.7-17.3
		c-3.2-2.3-7.1-3.4-10.9-4.4c-16.9-4.2-33.3-4.2-50.6-4.6c-18.1-0.4-36.3-0.8-54.5-1.2c-36.3-0.7-72.6-0.8-108.8,1.2
		c-6.1,0.3-12.3,0.8-18.4,1.2c-7.6,0.6-38.5,1.9-39.2,11.8c-0.2,3.1,3,8.4,4,11.3c1.4,4,2.7,8,3.9,12c2.4,7.7,4.6,15.5,6.6,23.3
		c8.3,32,13.9,64.6,19.4,97.2C475.6,561.2,481.9,597.1,491.2,632.5z"/>
	<path class="st24" d="M565.4,368.4c9.9,22.4,22.7,43.3,37.5,62.8c14.4,18.2,30.4,35.2,48.4,49.8c12.9,9.2,26.9,16.6,40.2,25
		c4.3,2.7,8.6,5.5,12.8,8.4c5.9-32.1,11-64.4,15.2-96.8c1-7.8,2-15.6,2.9-23.4c0.8-7,1.8-12.7-4.7-17.3c-3.2-2.3-7.1-3.4-10.9-4.4
		c-16.9-4.2-33.3-4.2-50.6-4.6c-18.1-0.4-36.3-0.8-54.5-1.2c-12.4-0.2-24.9-0.4-37.3-0.4C564.9,367.2,565.1,367.8,565.4,368.4z"/>
	<path class="st25" d="M451.5,413.6c-3.5-7-7.2-13.7-11.7-20.3c3.9,11.4,7.3,22.9,10.3,34.6c8.3,32,13.9,64.6,19.4,97.2
		c6.1,36.1,12.3,72,21.6,107.4c1,3.6,2,7.3,4.4,10.1c2.5,3,6.2,4.7,10,6c12.4,4.2,25.8,4.5,38.9,4.6c36.3,0.5,72.7,1,109-0.8
		c4.8-0.2,9.8-0.6,14-3c7.3-4.2,10-13.1,12.1-21.3c-48.4,7.6-94-9.6-129-43c-22.8-21.7-40.9-47.9-55.8-75.6
		c-15.7-29.1-26.2-60-40.2-89.9C453.5,417.7,452.5,415.6,451.5,413.6z"/>
	<path class="st26" d="M679.1,383.2c-0.6-0.1-1.3-0.1-1.9-0.2c-8.9-0.9-17.9-1.3-26.9-1.2c-1.1,0-2.3,0-3.3,0.5
		c-1.3,0.6-2.1,2-2.7,3.3c-4.8,12.1,7.7,28.9,13.8,38.6c7.2,11.5,15.8,22.4,27.2,29.9c4,2.6,9.6,4.7,13.3,1.6
		c2.1-1.7,2.7-4.6,3.2-7.3c2.1-11.4,3.2-23.1,3.2-34.7c0-9.4-1.2-19.3-9.4-25.4C690.9,385,685,383.9,679.1,383.2z"/>
	<path class="st27" d="M695.5,396.6c3.7,5.2,5.3,11.6,5.5,18c0.1,4.2-0.3,8.5-1,12.7c-0.5,2.8-4.5,2.7-4.8-0.1c0-0.2,0-0.4-0.1-0.5
		c-0.9-7.9-2.8-15.6-5.5-23.1c-0.9-2.4-3.4-7.9-1.2-10.2C691,390.6,694.2,394.7,695.5,396.6z"/>
	<path class="st27" d="M697.6,449.7c-0.2,0.6-0.6,1.4-1.2,1.2c-0.3-0.1-0.4-0.4-0.6-0.6c-1.6-3.2-1.6-7-0.9-10.4
		c0-0.1,0.1-0.3,0.1-0.4c0.7-3.1,5.4-2.1,4.8,1C699.2,444.2,698,447.9,697.6,449.7z"/>
</g>
</svg>
