<?xml version="1.0" encoding="UTF-8"?>
<svg width="700pt" height="700pt" version="1.1" viewBox="0 0 700 700" xmlns="http://www.w3.org/2000/svg" xmlns:xlink="http://www.w3.org/1999/xlink">
 <defs>
  <symbol id="m" overflow="visible">
   <path d="m29.312-1.75c-1.5117 0.78125-3.0898 1.3711-4.7344 1.7656-1.6367 0.40625-3.3398 0.60938-5.1094 0.60938-5.3125 0-9.5273-1.4844-12.641-4.4531-3.1055-2.9688-4.6562-7-4.6562-12.094s1.5508-9.125 4.6562-12.094c3.1133-2.9688 7.3281-4.4531 12.641-4.4531 1.7695 0 3.4727 0.19922 5.1094 0.59375 1.6445 0.39844 3.2227 0.99219 4.7344 1.7812v6.5938c-1.5312-1.0391-3.0391-1.8008-4.5156-2.2812-1.4805-0.48828-3.0391-0.73438-4.6719-0.73438-2.9375 0-5.2461 0.94531-6.9219 2.8281-1.6797 1.875-2.5156 4.4648-2.5156 7.7656 0 3.293 0.83594 5.8828 2.5156 7.7656 1.6758 1.875 3.9844 2.8125 6.9219 2.8125 1.6328 0 3.1914-0.23828 4.6719-0.71875 1.4766-0.48828 2.9844-1.2539 4.5156-2.2969z"/>
  </symbol>
  <symbol id="i" overflow="visible">
   <path d="m21.453-17.406c-0.67969-0.3125-1.3516-0.53906-2.0156-0.6875-0.65625-0.15625-1.3203-0.23438-1.9844-0.23438-1.9688 0-3.4844 0.63281-4.5469 1.8906-1.0547 1.2617-1.5781 3.0703-1.5781 5.4219v11.016h-7.6562v-23.922h7.6562v3.9219c0.97656-1.5625 2.1016-2.7031 3.375-3.4219 1.2812-0.71875 2.8125-1.0781 4.5938-1.0781 0.25 0 0.52344 0.011719 0.82812 0.03125 0.30078 0.023438 0.73438 0.070312 1.2969 0.14062z"/>
  </symbol>
  <symbol id="b" overflow="visible">
   <path d="m27.562-12.031v2.1875h-17.891c0.1875 1.793 0.83203 3.1367 1.9375 4.0312 1.1133 0.89844 2.6719 1.3438 4.6719 1.3438 1.6016 0 3.25-0.23438 4.9375-0.70312 1.6875-0.47656 3.4219-1.2031 5.2031-2.1719v5.8906c-1.8047 0.6875-3.6094 1.2031-5.4219 1.5469-1.8125 0.35156-3.6211 0.53125-5.4219 0.53125-4.3359 0-7.7031-1.0977-10.109-3.2969-2.3984-2.207-3.5938-5.2969-3.5938-9.2656 0-3.9062 1.1758-6.9727 3.5312-9.2031 2.3633-2.2383 5.6094-3.3594 9.7344-3.3594 3.7578 0 6.7695 1.1367 9.0312 3.4062 2.2578 2.2617 3.3906 5.2812 3.3906 9.0625zm-7.8594-2.5312c0-1.457-0.42969-2.6289-1.2812-3.5156-0.84375-0.89453-1.9492-1.3438-3.3125-1.3438-1.4922 0-2.6992 0.41797-3.625 1.25-0.91797 0.83594-1.4922 2.0391-1.7188 3.6094z"/>
  </symbol>
  <symbol id="h" overflow="visible">
   <path d="m14.391-10.766c-1.5938 0-2.793 0.27344-3.5938 0.8125-0.80469 0.54297-1.2031 1.3398-1.2031 2.3906 0 0.96875 0.32031 1.7305 0.96875 2.2812 0.64453 0.54297 1.5469 0.8125 2.7031 0.8125 1.4375 0 2.6445-0.51562 3.625-1.5469 0.98828-1.0312 1.4844-2.3203 1.4844-3.875v-0.875zm11.688-2.8906v13.656h-7.7031v-3.5469c-1.0312 1.4492-2.1875 2.5078-3.4688 3.1719s-2.8398 1-4.6719 1c-2.4805 0-4.4961-0.72266-6.0469-2.1719-1.543-1.4453-2.3125-3.3203-2.3125-5.625 0-2.8125 0.96094-4.8672 2.8906-6.1719 1.9375-1.3125 4.9688-1.9688 9.0938-1.9688h4.5156v-0.60938c0-1.207-0.48047-2.0938-1.4375-2.6562-0.94922-0.5625-2.4375-0.84375-4.4688-0.84375-1.6367 0-3.1562 0.16797-4.5625 0.5-1.4062 0.32422-2.7188 0.8125-3.9375 1.4688v-5.8281c1.6445-0.40625 3.2891-0.70703 4.9375-0.90625 1.6562-0.20703 3.3047-0.3125 4.9531-0.3125 4.3203 0 7.4375 0.85547 9.3438 2.5625 1.9141 1.6992 2.875 4.4609 2.875 8.2812z"/>
  </symbol>
  <symbol id="g" overflow="visible">
   <path d="m12.031-30.719v6.7969h7.875v5.4688h-7.875v10.141c0 1.1172 0.21875 1.8711 0.65625 2.2656 0.4375 0.38672 1.3125 0.57812 2.625 0.57812h3.9375v5.4688h-6.5625c-3.0234 0-5.1641-0.62891-6.4219-1.8906-1.2617-1.2578-1.8906-3.3984-1.8906-6.4219v-10.141h-3.7969v-5.4688h3.7969v-6.7969z"/>
  </symbol>
  <symbol id="f" overflow="visible">
   <path d="m19.953-20.422v-12.812h7.6875v33.234h-7.6875v-3.4531c-1.0547 1.4062-2.2148 2.4375-3.4844 3.0938-1.2734 0.65625-2.7422 0.98438-4.4062 0.98438-2.9492 0-5.3711-1.1719-7.2656-3.5156-1.8867-2.3438-2.8281-5.3594-2.8281-9.0469s0.94141-6.7031 2.8281-9.0469c1.8945-2.3438 4.3164-3.5156 7.2656-3.5156 1.6562 0 3.1172 0.33594 4.3906 1 1.2812 0.65625 2.4453 1.6836 3.5 3.0781zm-5.0469 15.484c1.6445 0 2.8945-0.59766 3.75-1.7969 0.86328-1.1953 1.2969-2.9297 1.2969-5.2031 0-2.2812-0.43359-4.0195-1.2969-5.2188-0.85547-1.1953-2.1055-1.7969-3.75-1.7969-1.625 0-2.8711 0.60156-3.7344 1.7969-0.85547 1.1992-1.2812 2.9375-1.2812 5.2188 0 2.2734 0.42578 4.0078 1.2812 5.2031 0.86328 1.1992 2.1094 1.7969 3.7344 1.7969z"/>
  </symbol>
  <symbol id="e" overflow="visible">
   <path d="m16.406-4.9375c1.6328 0 2.8828-0.59766 3.75-1.7969 0.86328-1.1953 1.2969-2.9297 1.2969-5.2031 0-2.2812-0.43359-4.0195-1.2969-5.2188-0.86719-1.1953-2.1172-1.7969-3.75-1.7969-1.6367 0-2.8906 0.60547-3.7656 1.8125-0.875 1.1992-1.3125 2.9336-1.3125 5.2031 0 2.2617 0.4375 3.9961 1.3125 5.2031 0.875 1.1992 2.1289 1.7969 3.7656 1.7969zm-5.0781-15.484c1.0508-1.3945 2.2188-2.4219 3.5-3.0781 1.2812-0.66406 2.7539-1 4.4219-1 2.9453 0 5.3672 1.1719 7.2656 3.5156 1.8945 2.3438 2.8438 5.3594 2.8438 9.0469s-0.94922 6.7031-2.8438 9.0469c-1.8984 2.3438-4.3203 3.5156-7.2656 3.5156-1.668 0-3.1406-0.33594-4.4219-1s-2.4492-1.6914-3.5-3.0781v3.4531h-7.6562v-33.234h7.6562z"/>
  </symbol>
  <symbol id="d" overflow="visible">
   <path d="m0.53125-23.922h7.6562l6.4219 16.234 5.4688-16.234h7.6562l-10.062 26.188c-1.0117 2.6641-2.1953 4.5234-3.5469 5.5781-1.3438 1.0625-3.1211 1.5938-5.3281 1.5938h-4.4219v-5.0156h2.3906c1.3008 0 2.2422-0.21094 2.8281-0.625 0.59375-0.40625 1.0547-1.1484 1.3906-2.2188l0.20312-0.65625z"/>
  </symbol>
  <symbol id="a" overflow="visible">
   <path d="m3.6719-23.922h7.6562v23.922h-7.6562zm0-9.3125h7.6562v6.2344h-7.6562z"/>
  </symbol>
  <symbol id="c" overflow="visible">
   <path d="m23-23.172v6.2344c-1.0312-0.71875-2.0742-1.2422-3.125-1.5781-1.043-0.34375-2.125-0.51562-3.25-0.51562-2.1367 0-3.8047 0.625-5 1.875-1.1875 1.2422-1.7812 2.9805-1.7812 5.2188 0 2.2305 0.59375 3.9688 1.7812 5.2188 1.1953 1.25 2.8633 1.875 5 1.875 1.1953 0 2.332-0.17578 3.4062-0.53125 1.0703-0.36328 2.0625-0.89453 2.9688-1.5938v6.2656c-1.1875 0.4375-2.4023 0.76562-3.6406 0.98438-1.2305 0.22656-2.4648 0.34375-3.7031 0.34375-4.3125 0-7.6875-1.1094-10.125-3.3281s-3.6562-5.2969-3.6562-9.2344c0-3.9453 1.2188-7.0234 3.6562-9.2344 2.4375-2.2188 5.8125-3.3281 10.125-3.3281 1.25 0 2.4844 0.10938 3.7031 0.32812s2.4297 0.55469 3.6406 1z"/>
  </symbol>
  <symbol id="l" overflow="visible">
   <path d="m12.609-6.0469h14.031v6.0469h-23.188v-6.0469l11.656-10.281c1.0312-0.9375 1.7969-1.8516 2.2969-2.75 0.5-0.89453 0.75-1.8281 0.75-2.7969 0-1.5-0.50781-2.7031-1.5156-3.6094-1-0.91406-2.3359-1.375-4-1.375-1.2812 0-2.6836 0.27734-4.2031 0.82812-1.5234 0.55469-3.1523 1.3711-4.8906 2.4531v-7.0156c1.8516-0.61328 3.6797-1.0781 5.4844-1.3906 1.8125-0.32031 3.5859-0.48438 5.3281-0.48438 3.8125 0 6.7734 0.84375 8.8906 2.5312 2.1133 1.6797 3.1719 4.0156 3.1719 7.0156 0 1.7422-0.44922 3.3594-1.3438 4.8594-0.89844 1.5-2.7812 3.5117-5.6562 6.0312z"/>
  </symbol>
  <symbol id="k" overflow="visible">
   <path d="m15.062-19.031c-1.6992 0-2.9961 0.60938-3.8906 1.8281-0.88672 1.2188-1.3281 2.9766-1.3281 5.2656 0 2.293 0.44141 4.0469 1.3281 5.2656 0.89453 1.2188 2.1914 1.8281 3.8906 1.8281 1.6641 0 2.9375-0.60938 3.8125-1.8281 0.88281-1.2188 1.3281-2.9727 1.3281-5.2656 0-2.2891-0.44531-4.0469-1.3281-5.2656-0.875-1.2188-2.1484-1.8281-3.8125-1.8281zm0-5.4688c4.1133 0 7.3281 1.1094 9.6406 3.3281s3.4688 5.2969 3.4688 9.2344c0 3.9297-1.1562 7.0078-3.4688 9.2344-2.3125 2.2188-5.5273 3.3281-9.6406 3.3281-4.1367 0-7.3711-1.1094-9.7031-3.3281-2.3242-2.2266-3.4844-5.3047-3.4844-9.2344 0-3.9375 1.1602-7.0156 3.4844-9.2344 2.332-2.2188 5.5664-3.3281 9.7031-3.3281z"/>
  </symbol>
  <symbol id="j" overflow="visible">
   <path d="m27.734-14.562v14.562h-7.7031v-11.156c0-2.0625-0.046875-3.4844-0.14062-4.2656-0.085937-0.78125-0.24219-1.3594-0.46875-1.7344-0.30469-0.5-0.71094-0.88281-1.2188-1.1562-0.51172-0.28125-1.0938-0.42188-1.75-0.42188-1.5938 0-2.8516 0.61719-3.7656 1.8438-0.90625 1.2305-1.3594 2.9375-1.3594 5.125v11.766h-7.6562v-23.922h7.6562v3.5c1.1445-1.3945 2.3633-2.4219 3.6562-3.0781 1.3008-0.66406 2.7383-1 4.3125-1 2.7578 0 4.8516 0.85156 6.2812 2.5469 1.4375 1.6875 2.1562 4.1523 2.1562 7.3906z"/>
  </symbol>
 </defs>
 <g>
  <path d="m306.25 227.5c2.3203 0 4.5469-0.92188 6.1875-2.5625s2.5625-3.8672 2.5625-6.1875v-8.75c0-4.832-3.918-8.75-8.75-8.75s-8.75 3.918-8.75 8.75v8.75c0 2.3203 0.92188 4.5469 2.5625 6.1875s3.8672 2.5625 6.1875 2.5625z"/>
  <path d="m393.75 227.5c2.3203 0 4.5469-0.92188 6.1875-2.5625s2.5625-3.8672 2.5625-6.1875v-8.75c0-4.832-3.918-8.75-8.75-8.75s-8.75 3.918-8.75 8.75v8.75c0 2.3203 0.92188 4.5469 2.5625 6.1875s3.8672 2.5625 6.1875 2.5625z"/>
  <path d="m507.5 395.59v-134.66c5.0977-1.8164 9.5156-5.1602 12.645-9.5742 3.1328-4.418 4.8281-9.6875 4.8555-15.102v-52.5c-0.015625-5.5586-1.7969-10.965-5.082-15.449-3.2852-4.4805-7.9102-7.8008-13.207-9.4883-5.4062-52.148-36.398-98.191-82.68-122.83s-101.78-24.637-148.06 0-77.273 70.68-82.68 122.83c-5.2969 1.6875-9.9219 5.0078-13.207 9.4883-3.2852 4.4844-5.0664 9.8906-5.082 15.449v52.5c0.027344 5.4141 1.7227 10.684 4.8555 15.102 3.1289 4.4141 7.5469 7.7578 12.645 9.5742v134.66c-15.781 8.0703-29.035 20.336-38.297 35.449-9.2617 15.113-14.176 32.488-14.203 50.215v52.5c0 2.3203 0.92188 4.5469 2.5625 6.1875s3.8672 2.5625 6.1875 2.5625h402.5c2.3203 0 4.5469-0.92188 6.1875-2.5625s2.5625-3.8672 2.5625-6.1875v-52.5c-0.027344-17.727-4.9414-35.102-14.203-50.215-9.2617-15.113-22.516-27.379-38.297-35.449zm-8.75-220.59c2.3203 0 4.5469 0.92188 6.1875 2.5625s2.5625 3.8672 2.5625 6.1875v52.5c0 2.3203-0.92188 4.5469-2.5625 6.1875s-3.8672 2.5625-6.1875 2.5625h-35v-70zm-87.5-17.5c-6.3164 0.007812-12.516-1.6953-17.941-4.9297-5.4219-3.2383-9.8672-7.8828-12.859-13.445-1.3164-2.4414-3.7266-4.0977-6.4727-4.4609-2.7461-0.42578-5.5234 0.52344-7.4375 2.5352-18.152 18.602-43.051 29.078-69.039 29.051h-60.898c2.9609-37.344 24.121-70.832 56.574-89.543 32.449-18.711 72.035-20.246 105.84-4.1016 33.801 16.141 57.488 47.895 63.336 84.895zm52.062 105h15.051l-12.426 43.75h-15.137c7.0703-13.594 11.324-28.473 12.512-43.75zm-209.56-78.75h43.75c27.066 0.074219 53.266-9.5508 73.852-27.125 9.9727 11.664 24.551 18.375 39.898 18.375h35v78.75c0.007812 18.652-5.4375 36.898-15.664 52.5h-28.523c-1.0078-4.9414-3.6914-9.3828-7.6016-12.57-3.9062-3.1875-8.793-4.9297-13.836-4.9297h-17.5c-7.8164 0-15.035 4.168-18.945 10.938-3.9062 6.7695-3.9062 15.105 0 21.875 3.9102 6.7695 11.129 10.938 18.945 10.938h17.5c6.8516-0.046875 13.289-3.2812 17.414-8.75h17.852-0.003906c-18.312 17.301-42.688 26.719-67.875 26.23s-49.176-10.848-66.805-28.844c-17.629-17.996-27.488-42.195-27.457-67.387zm131.25 126.88c0 1.1602-0.46094 2.2734-1.2812 3.0938s-1.9336 1.2812-3.0938 1.2812h-17.5c-2.418 0-4.375-1.957-4.375-4.375s1.957-4.375 4.375-4.375h17.5c1.1602 0 2.2734 0.46094 3.0938 1.2812s1.2812 1.9336 1.2812 3.0938zm17.5 43.926c14.379-7.5273 26.996-18.027 37.012-30.801h32.988c3.9141-0.011719 7.3438-2.6211 8.3984-6.3867l9.1016-31.762v103.16c-8.5273-2.4961-17.367-3.7617-26.25-3.7617h-61.25zm-52.5-319.55c34.07 0.0625 66.949 12.531 92.492 35.078 25.539 22.547 41.996 53.625 46.281 87.422h-8.8359c-5.5977-42.379-31.512-79.367-69.434-99.102-37.922-19.734-83.086-19.734-121.01 0-37.922 19.734-63.836 56.723-69.434 99.102h-8.8359c4.2852-33.797 20.742-64.875 46.281-87.422 25.543-22.547 58.422-35.016 92.492-35.078zm-157.5 148.75c0-4.832 3.918-8.75 8.75-8.75h17.5c0 2.3203 0.92188 4.5469 2.5625 6.1875s3.8672 2.5625 6.1875 2.5625h8.75v61.25h-35c-4.832 0-8.75-3.918-8.75-8.75zm-35 341.25v-43.75c0.03125-20.875 8.3398-40.887 23.102-55.648 14.762-14.762 34.773-23.07 55.648-23.102h32.898l-36.836 18.461c-3.082 1.5156-4.9727 4.7109-4.8125 8.1406 0.16797 3.4453 2.3164 6.4844 5.5117 7.7852l31.414 12.602-8.1367 8.0508c-2.8516 2.9062-3.3594 7.3789-1.2266 10.848l35.438 56.613zm140-21.789-23.887-38.238 12.602-12.512h-0.003906c2.0742-2.0938 2.9609-5.0859 2.3633-7.9727-0.59766-2.8828-2.6016-5.2773-5.3359-6.375l-25.637-10.238 39.898-19.949zm0-118.21h-61.25c-8.8828 0-17.723 1.2656-26.25 3.7617v-126.26h26.688c3.0391 39.117 26.023 73.906 60.812 92.051zm87.5 140h-70v-60.812c22.02 11.078 47.98 11.078 70 0zm0-81.289c-10.195 7.3398-22.438 11.289-35 11.289s-24.805-3.9492-35-11.289v-81.812c22.734 7.4688 47.266 7.4688 70 0zm17.5-35.789 39.898 19.949-25.637 10.238v0.003906c-2.7344 1.0977-4.7383 3.4922-5.3359 6.375-0.59766 2.8867 0.28906 5.8789 2.3633 7.9727l12.602 12.512-23.891 38.238zm140 117.08h-133l35.438-56.613c2.1328-3.4688 1.625-7.9414-1.2266-10.848l-8.1367-8.0508 31.414-12.602c3.2148-1.2773 5.375-4.3281 5.5117-7.7852 0.16016-3.4297-1.7305-6.625-4.8125-8.1406l-36.836-18.461h32.898c20.875 0.03125 40.887 8.3398 55.648 23.102 14.762 14.762 23.07 34.773 23.102 55.648z"/>
  <use x="70" y="691.25" xlink:href="#m"/>
  <use x="102.109375" y="691.25" xlink:href="#i"/>
  <use x="123.683594" y="691.25" xlink:href="#b"/>
  <use x="153.355469" y="691.25" xlink:href="#h"/>
  <use x="182.878906" y="691.25" xlink:href="#g"/>
  <use x="203.792969" y="691.25" xlink:href="#b"/>
  <use x="233.464844" y="691.25" xlink:href="#f"/>
  <use x="280.011719" y="691.25" xlink:href="#e"/>
  <use x="311.328125" y="691.25" xlink:href="#d"/>
  <use x="355.078125" y="691.25" xlink:href="#a"/>
  <use x="370.078125" y="691.25" xlink:href="#c"/>
  <use x="396.011719" y="691.25" xlink:href="#l"/>
  <use x="426.453125" y="691.25" xlink:href="#a"/>
  <use x="441.449219" y="691.25" xlink:href="#c"/>
  <use x="467.382812" y="691.25" xlink:href="#k"/>
  <use x="497.4375" y="691.25" xlink:href="#j"/>
 </g>
</svg>
