<?xml version="1.0" encoding="UTF-8"?>
<svg id="a" data-name="Lager 1" xmlns="http://www.w3.org/2000/svg" xmlns:xlink="http://www.w3.org/1999/xlink" viewBox="0 0 436.6 754.35">
  <defs>
    <style>
      .c {
        fill: #698967;
      }

      .d {
        clip-path: url(#b);
      }

      .e {
        fill: #417b3a;
      }

      .f {
        fill: #7dbf75;
      }

      .g {
        fill: #fef2ea;
      }

      .h {
        fill: #d48d58;
      }

      .i {
        fill: none;
      }

      .j {
        fill: #437c3b;
      }

      .k {
        fill: #6b9167;
      }
    </style>
    <clipPath id="b">
      <path class="i" d="m98.31,592.66c-.97-16.37-.05-10.21,31.67-12.2,38.12-2.59,199.85-2.9,199.95-2.91,13.37-.36,10.41,6.58,9.77,35.67-.47,20.06-8.55,61.15-12.51,71.22-7.68,28.18-13.69,42.2-38.37,56.28-7.91,4.52-17.96,8.34-31.94,10.31-8.67,1.22-40.1,3.31-46.83,3.32-95.11,0-104.23-36.81-111.74-161.69Z"/>
    </clipPath>
  </defs>
  <g>
    <g>
      <path class="c" d="m217.09,174.92s-.02-.05-.04-.13c.01.04.03.08.04.13Z"/>
      <path class="c" d="m300.05,324.13c.49-.28.99-.55,0,0h0Z"/>
      <path class="c" d="m68.34,377.13c.46,2.08,21.9,13.18,48.5,39.16,13.49,13.17,64.66,78.15,73.43,90.31-20.56-16.18-6.17.69-59.21-40.35-.57-.44-9.45-6.94-12.64-7.75-1.93-.49-2.95,2.16-1.26,3.1,17.92,10,22.62,17.27,38.08,27.28-.09,0,29.7,21.06,33.09,23.6,4.89,3.65,8.95,7.75,12.34,12.06,11.11,21.11,14.26,34.17,17.02,38.21-7.47,28.9-13.09,50.07-2.21,46.29,12.16-4.23,19.5-65.16,23.74-96.44,7.54-18.55,27.89-39.18,27.95-39.24,34.86-42.23,36.39-38.86,38.41-42.48.76-1.35-.45-4.03-4.1-1.27-10.14,7.66-45.21,46.17-60.1,66.19,13.96-116.24-7.73-114.6,20.83-140.63,49.94-40.19,58.17-35.01,76.3-42.25,1.62-.65,1.19-3.27-.73-3.27-.09,0-28.08,7.29-28.14,7.31-20.58,5.45-57.02,32.54-65.02,48.45-.6,1.19.44,3.23-3.34-29.53,2.61-1.71-2.12-2.5-2.89-37.74,2.88-17.92,4.04-23.16,18.85-45.36,28.79-43.11,33.28-46.11,51.78-62.43,3.73-3.29,10.26-11.56,10.08-12.87-.58-1.72-2.05-2.16-3.5-.25-19.94,26.33-16.17,6.07-67.07,82.24-9.67,14.42-8.92,26.5-8.19,7.79.25-2.04.98-8.04,1.47-8.94.61-1.05.03-2.33-1.11-2.54.45-37.39,4.8-25.88,2.19-78.9-.35-6.91.23-11.86-2.55-11.47-4.42.63,3.73,14.22-1.88,67.45-1.67,15.88.73,12.68-3.97-14.14-5.5-31.41-34.08-100.52-34.1-100.59-4.03-11.55-2.26-9.5-8.52-24.22-.85-2.01-3.98-.74-3.09,1.34,13.72,32.76,28.66,80.47,28.34,79.66,23.77,68.15,16.1,74.81,15.15,131.66-8.88-19.27-20.93-41.09-22.93-42.16-1.2-.65-2.64.23-2.5,1.7.27,2.75,10.96,19.18,18.21,35.83-5.93-4-9.86-4.98-15.42-9.18-7.11-5.38-8.56-6.84-16.22-10.47-4.81-2.37-7.82-4.49-8.51-1.87-62.42-34.22-64.13-58.5-68.93-54.68-3.52,2.78,18.63,24.54,23.75,28.94,27.46,25.08,80.66,42.4,92.6,76.18.47,24.34,1.9,43.75,3.52,64.2-13.57-24.62-40.49-44.74-61.54-59.27-2.59-1.81-3.89-.27-3.71,1.05.3,2.11,10.27,9.03,16.94,14.11,59.44,45.25,51.84,70.13,44.62,135.15-2.88-9.72-7.38-21.52-8.24-23.69-.78-1.95-3.96-.84-3.09,1.34.25.62.16.08-.64.55-3.04,1.82,3.22,5.64,10.45,35.43-1.03,9.18-2.11,20.12-9.72,50.5-2.62-5.78-7.08-13.64-13.9-24.64.9-1.37-1.57-3.63-3.65-6.13-2.19-2.63,2.7,3.91-22.74-34.76-41.66-63.29-115.14-120.56-112.25-107.57Zm147.41-74.41c-8.4-7.03-10.71-7.79-5.3-5.03,1.58,1.25,3.99,3.59,5.3,5.03Zm4.79.39s0,0,0,0h0Zm.82.51c-.37.24-.12.39-.82-.51.01,0,.11.05.82.51Zm78.69,20.51s3.51-1.92,0,0h0Zm-63.6,80c.03.53.09.42-.27-.43-1.98-4.7-.94-2.45.27.43Z"/>
    </g>
    <g>
      <path class="f" d="m315.32,178.76c8.15,4.02-2.73,8.66,8.53,32.64,3.12,6.61,8.99,14.66,12.76,25.87,1.21,3.6,3.3,13.21,6.59,11.44,3.77-2.03,6.59-24.7-2.97-43.68-8.39-16.69-26.33-29.1-13.84-21.42-.14.77.36,1.46,1.12,1.6,5.79,1.66,13.57,18.29,17.76,24.36,8.38,12.19,12.52,12.21,36.1,30.06,1.33.99,3.4.5,3.27-2.84-.2-4.61-2.33-11.85-2.31-11.79-2.51-9.35-6.17-14.78-12.52-21.35-17.06-17.57-32.54-19.33-37.37-20.83-4.12-1.37-4.16-2.05-5.1-1.87-5.65-3.6-7.52-2.54-3.31-4.87,8.92-4.73,29.29,2.33,40.95,3.68,5.31.63,14.46.46,14.22.45,19.41,1.12,25.59,6.39,28.09,4.59,5.46-3.93-15.56-28.43-52.22-24.18-13.73,1.6-19.96,7.97-22.66,9.69-13.6,3.54-12.81,6.14-10.77-.8.71-.25,1.07-1.08.92-1.55,0-3.28,20.79-19.52,15.91-45.47-1.72-9.28-4.81-11.05-6.48-14.12-2.25-4.37-4.21-15.08-8.12-13.07-3.92,2.01-5.35,14.15-7.95,31.61-3.38,22.48,2.67,25.6,3.96,37.55.03.61-.24,1.43-.15,2-2.34,6.85-1.31,7.01-2.34,4.95-1.15-2.29.05-1.27-.85-2.92-8.8-16.97-6.32-22.18-13.26-31.83-16.89-23.59-36.11-33.97-37.57-31.12-.77,1.52-.23,2.12-.23,11.57-.03,18.29,20.32,28.57,28.81,35.03,1.51,1.15,11.89,9.79,10.51,8.7,4.86,4.08,4.87,4.36,7.17,7.77,1.78,2.63,1.98,2.31,2.87,3.9.07.15,2.12,4,1.79,3.84-21.72-10.25-19.9-19.53-56.28-11.72-14.77,3.19-17.76.93-23.29,6.77-.78.83-1.91,2.69-2.01,3.83-.11,1.24.79,1.6,2.01,1.76,2.36.47,5.9,2.46,10.06,4.12,41.13,16.54,60.23-10.31,68.2-2.33Zm-11.86-24.68c.05.06,1.61,2.07,1.55,2.07.19.27-.64-.89-1.55-2.07Zm21.99,35.15h.01c.89,2.01.92,2.07-.01,0Z"/>
      <path class="f" d="m242.71,216.08c-10.01.79-15.05,1.14-22.44,14.19-6.56,11.53-5.07,13.85-7.15,20.68-1.73,4.77-.78,1.58-2.88,6.16-1.24,2.72-.93,3.53-.95.02.87-.96-.26-4.2.38-8.15,1.21-5.76,11.41-14.82-2.29-35.49-1.81-2.73-10.23-13.3-13.24-11.92-4.33,1.97-3.95,16.47-3.21,21.82,1.28,9.04,5.39,14.13,10.95,20.2,4.98,5.41,4.63,9.92,4.67,16.81-6.45-8.26-3.24-3.25-4.66-6.61-7.75-18.21-14.21-22.12-25.22-25.58,2.9.72-25.03-6.46-22.42-.78.19.4,12.35,13.29,20.25,19.07,15.87,11.62,19.15,1.87,30.47,16.36,1.62,2.27,1.73,1.27-3.33.66-7.9-.97-5.95.14-7.19-.99-8.51-7.81-20.16-7.44-28.82-2.57-18.95,10.65-19.3,28.21-15.72,28.21,1.99,0,6.15-5.86,18.89-9.08,8.24-1.83,24.81-2.76,26.82-12.38.23-1.11-.22-.89,1.47-.83,12.23.85,4.92.03-1.71,6.41-1.72,1.67-4.52,5.42-7.09,10.87-4.37,9.22-4.24,15.54-4.35,26.76-.04,4.73,2.01,5.27,3.81,4.23,5.36-3.11,15.78-13.67,18.97-20.41,4.03-8.52-.89-12.38,3.29-19.43,1.24-1.79,1.11-4.09.49-6.17-.63-2.08-1.69-.14,5.85-3.43.74.42,1.13.02,3.02-.21,8.2-.68,11.74,3.14,20.57,6.89,9.27,3.95,22.42.57,29.82-5.82,2.82-2.45-.98-3.33-10.37-9.02-12.06-7.27-18.44-6.76-24.78-6.2-14.1,1.25-16.17,10.63-22.56,13.14-1.52.56-1.44.99-.33-2.56.85-2.66,2.01-4.8,3.59-7.36.79-.2,4.7-1.85,4.64-1.83,7.61-2.77,11.33-.24,17.83-7.86,4.04-4.72,7.34-13.81,7.31-13.74,6.4-14.73,9.2-15.31-2.39-14.06Zm-49.72,49.74c-.35-.05-.83-.04-.02-.04,0,.01.01.03.02.04Zm3.41-16.69c-.06-.06-.85-1.6-.82-1.54.27.51.55,1.03.82,1.54Z"/>
      <path class="f" d="m151.41,447.49c4.28,3.65,8.36,6.52,14.12,8.2,11.11,3.21,34.2,1.85,41.48,3.89-.04-.02.67-.65,12.57,6.73,4.05,2.5,3.98,1.1-4.4,3.22-7.94,1.99-1.95,2.77-17.84-2.63-9.32-3.14-21.93-2.68-32.72,2.25-5.05,2.31-6.26,5.24-10.78,10.04-2.37,2.52-3.05,3.3,2.3,5.41,17.4,6.84,44.76,8.74,55.18-8.24,1.68-2.43,2.82-2.75,3.25-3.71.18-.35,6.11-1.47,5.73-1.4,1.54-.29,3.5-2.26-3.78,8.22-1.11,1.61-1.75.2-7.13,3.81-5.85,3.94-6.13,7.12-8.71,12.76-2.79,5.63-9.86,13.23-12.27,22.74-2.27,8.97.16,18.21,5.23,15.91,2-.91,6.64-6.58,7.97-8.35,6.15-8.58,24.82-18.78,17.2-45.32,9.72-13.75,3.01-12.54,11.66-3.33-.02.06.31,14.7,6.29,24.66,3.37,5.61,9.63,12.32,15.97,13.94,6.16,1.59,21.02,3.02,20.16-2.23-.28-1.73-6.33-14.92-10.93-21.37-10.81-15.1-22.16-11.97-27.62-14.97-.42-.33-4.95-4.73-6.78-8.53,2.54-.66,5.74-.46,9.21-.32-.41,0,1.66.67,1.21.44,5.4,2.67,9.59,8.23,20.47,9.33,6.44.67,30.94-2.18,36.6-5.35,9.64-5.38-15.33-15.93-30.81-16.48-15.18-.52-24.2,7.9-27.29,9.14-.97.35-2.72-.18-6.78.08-3.27.22-3.26,1.03-1.99-1.03,5.24-8.2,8.33-7.87,13.44-8.7,20.96-3.45,21.2-14.77,30.33-21.87,2.97-2.31,5.06-3.9,6.05-7.75.78-3.03.42-10.29-.91-11.21-.72-.5-40.51,6.8-47.37,33.15-.15.6-2.02,11.66-1.83,12.1-3.86,4.73-2.85,5.62-3.44,4.31.32-1.14-2.98-6.03-3.94-9.97-1.49-6.62,2.03-10.94.56-21.9-.84-6.25-5.01-17.72-10.52-23.88-31.29-34.83-22.85,14.26-7.36,33.02,3.59,4.34,10.75,9.67,14.94,16.41,5.18,8.34,2.71,4.94-6.21-.26-.06-.35-.25-.67-.55-.9-11.15-8.34-13.46-26.43-42.68-25.19-2.22.1-10.84,2.41-10.41,2.33-10.09,2.27-10.4,1-13.74,2.72-3.68,1.87-1.17,3.3,6.84,10.13Zm90.05,18.95c-.06,0,.48.07.54.08-.65-.07-.62-.04-.54-.08Z"/>
      <path class="f" d="m5.65,368.45c.62-.56,8.63-2.49,12.8-2.92,31.49-2.97,54.29,11.97,45.42,6.11-9.99-6.61-11.48-5.33-17.07-9.19-4.8-3.34-6.19-6.08-10.98-10.32-6.46-4.91-7.09-4.03-8.23-4.89-1.56-1.19-.73-3.55,6.98-1.96-.43-.09,5.91,1.04,9.86,3.09,0,0,6.67,1.65,17.52,15.99-.2-.37,2.21,3.98,10.45,10.37-.2.73,2.4-8.24,3.48-10.7-.06.14.52-5.6,14.67-16.44,1.8-1.38,3.75-2.6,4.76-.54,2.69,5.58-9.67,13.02-16.91,26.29,4.29-2.33,8.2-6.48,15.07-10.45,29.39-17.15,19.41,1.1,3.1,6.46-7.78,2.53-12.09,3.42-15.13,5.94-1.9,1.6,13.29-2.93,25.99,9.15,8.33,7.96,14.45,19.07,13.81,21.2-1.88,6.3-12.35-15.25-28.53-22.51-7.33-3.29-15-2.99-16.06-3.99-11.97,1.72-2.6-2.31-17.16,4.79.06-.03-9.34,5.35-9.27,5.33-4.05,4.05-22.12,5.59-33.84,8.38-3.17.78-4.76,1.81-5.59.37-1.19-2.02,12.6-17.14,26.9-19.03.06,0,21.38-2.69,28.11-2.43-11.16-3.78-16.96-.52-25.55-.52-12.27,0-31.91-4.96-33.86-5.14-1.12-.09-1.71-1.55-.73-2.45Z"/>
    </g>
    <path class="j" d="m92.29,546.82c9.02-10.4,19.17-24.73,22.61-38.12,6.58-20.53-6.68-26.95,1.71-41.66,1.73-2.61,1.51-2.11,2.33-1.26,5.91,6.91,3.28,4.35,3.68,16.38.33,9.3,1.75,15.6,7.39,25.31,2.24,3.86,12.58,21.03,17.02,21.21,2.56.21,2.93-2.91,3.44-5.27,1.52-6.92,1.01-11.12-.48-18.64-5.5-27.64-31.26-40.1-29.25-42.63,1.4-1.65,3.35-2.49,6.21-3.61,14.7-5.27,17.58,6.25,37.35,4.16,3.5-.37,27.71-4.64,30.65-5.61,8.94-2.94-6.77-10.1-15.71-12.77-29.07-8.65-52.37,11.99-48.58,9.15-2.11,1.52-7.21,1.79-11.46,6.13-.65.7-.15-2.49-.01-3.31,1.04-5.83,1.33-3.74,1.83-5.03,6.84-17.63,23.88-19.38,30.69-28.56,7.15-9.68,10.72-32.06,11.91-37.24,1.86-8.16,2.93-8.32,1.79-9.4-1.28-1.19-3.37.67-4.86,1.87-6.3,5.07-39.6,24.5-43.34,50.38-.58,4.04-2.84,21.3-.06,24.32-.93,3.95.15,4.27-3.26-1.89-8.92-20.44-1.7-25.49-14.06-41.74-9.76-12.83-27.79-23.24-30.13-19.99-1.61,2.22,11.9,32.98,11.93,33.04,8.05,15.67,24.88,20.79,29.75,29.82,3,6.87,7.39,9.06-2.36,4.59-9.86-4.5-15.86-17.43-37.31-18.73-21.56-1.33-45.95,5.01-39.17,7.75.87.36,1.69.31,8.67,2.78,14.54,5.17,26.22,11.8,36.21,12.2,11.34.47,16.31-2.9,27.44-2.66,1.27.11,4.01,1.82,7.58,3.08,2.89,1.01,2.84.29,1.47,1.53-14.64,13.25-11.99-1.38-36.71,10.37-18.24,8.77-26.14,20.22-35.93,37.14-.76,1.3-.29,2.51,1.6,2.56.19,0,13.65-.08,18.36-1.48,2.3-.68,17.37-6.19,25.05-13.49,7.14-6.79,19.03-26.14,23.33-28.54.15-.08,2.79-1.63,3.17-1.89-13.1,19.6-28.08,29.43-24.96,61.24.99,10.04,1.54,21.91,4.48,18.52Z"/>
    <path class="j" d="m270.05,83.84v-.02c-.41-5.02.05.91,0,.02Zm-7.35,103.55c1.42,2.43,1.54,2.65.01,0h-.01Zm-1.89,31.33c-3.12-8.21-4.12-23.86-5.05-31.04-1.13-8.83-2.53-10.01-10.28-16.83-6.35-5.22-4.02-4.49-8.41-.71-2.52,2.46-2.82,4.28-5.6,7.08-5.61,10.67-4.36,11.16-14.67,24.27-11.41,14.35-34.52,27.4-42.78,30.26,1.77-.67-3.84,2.27-2.02-3.46,24.68-76.62,57.85-55.64,65.55-62.39.77-.72.52-.59.58-.59-.1-.18-10.1-6.65-8.64-5.74-6.85-4.46-13.85-2.73-16.76-2.37-23.95,2.91-25.9,1.35-41.31-.2-15.5-1.56-10.9-1.16-18.93-3.68-5.27-1.66,1.6-4.6,6.48-7.5,2.13-1.25,10.85-5.69,14.14-6.97,28.15-10.96,48.94,12.35,51.87,14.31,2.86,1.84,3.27,1.62,3.5,2.52,2.08,1.28,5.05,3.24,7.7,5-5.62-12.94-4.12-10.27-6.95-12.99-19.77-19.11-37.14-27.32-39.03-55.94-.13-2.1.28-3.49,2.48-2.57,7.34,3.1,21.05,13.41,25.9,18.46-.65-.68,8.64,7.1,12.55,20.14,1.84,6.18,1.51,14.51,2.77,19.22.9,3.37-2.69-4.68,4.52,11.95-.02-7.09,1.48-13,1.48-14.74.22-29.77-4.38-34.28,23.59-67.33,1.11-1.31,2.78-2.93,4.38-3.49,4.68-1.62,4.38,3.52,4.79,8.44,4.09,48.86-20.53,45.75-29.69,63.94-1.15,2.4-1.51,7.43-1.73,10.75-.17,6.65-.03,5.18,1.45,3.99.06-.05,7.53-5.77,7.47-5.71,8.4-5.52,14.77-36.73,47.12-38.47,4.87-.27,8.52.52,13.63,1.27,1.59.23,5.88.16,3.76,3.14-4.61,7.15-10.17,13.91-20.79,21.59-16.16,11.68-20.57,10.62-29.16,12.4-8.49,1.82-17.38,3.65-22.5,10.05,13.54,9.83,13.63,14.62,22.07,20.34,6.67,4.14,14.08,7.47,22.48,25.18,3.61,7.61,11.77,37.42,3.38,38.3-7.07.75-24.65-17.53-29.34-29.9Z"/>
    <path class="j" d="m270.59,363.49c1.08-8.05-2.24-15.42-6.94-22.04-11.39-16.12-2.74-1.68-9.63-16.15-1.89-3.98-2.94-5.16-1.33-3.42.15.2,3.18,3.51,2.48,2.67,2.33,2.59,1.98,3.52,6.04,8.49,10.14,12.45,16.45,13.53,23.88,18.6,1.66,1.12,5.1,3.52,6.71,2.24,1.05-.84.52-2.41-1.72-8.42-6.43-17.14-13.2-17.75-36.94-26.89-.44-.4-.7-.54-.63-.5.06-.03,2.77-1.8,3.73-1.74,5.66.48,10.79,7.17,20.6,7.23,14.44,0,25.28-9.28,26.13-10.89.76-1.42-.66-2.21-1.36-2.68-10.46-6.9-14.74-13.34-37.58-1.57-.06.06-8.74,4.49-9.15,5.3-3.82,1.64-3.55,2.85-2.24-1.57,1.23-3.54,1.29-3.08,1.12-2.89,3.56-4.07,18.86-7.18,19.49-26.15.09-2.94-.64-10.69-2.18-11.62-.63-.38-3.5-.46-6.38.82-5.23,2.31-8.88,8.82-11.02,14.11-3.09,7.44-2.15,11.66-2.85,18.41-.16,1.43-.14.26-.13.33-.72-5.48-.82.23-1.25-6.77-1.04-17.08-15.6-24.31-30.35-29.03-.59-.2-1.52.05-1.89.69-.49.87.1,1.63.94,3.17,5.63,10.28,4.09,18.7,20.02,28.24,7.02,4.22,10.85,2.37,9.62,15.84-4.47-.81-6.3-.49-7.59-1.27.06.04-1.93-1.85-7.14-3.19-22.09-5.68-32.17,16.27-33.97,17.51-1.17.73-.74,2.5.72,2.56,14.77.61,20.08,7.74,40.39-13.76,6.07.6,7.63.97,7.57.95-7.97,10.28-2.09,4.71-10.46,11.02-15.02,11.3-16.37,19.22-17.11,37.54-.28,2.81-1.64,6.02.74,6.02.65,0,18.65-8.5,21.87-23.61.81-3.82.76-14.2.76-13.42.49-7.96,3.63-9.8,3.07-11.34,1.81-2.52,1.83-2.57,2.84-3.88,1.34,2.31,3.06,6.1,4.07,8.51-.99.56-.67,1.76-.72,2.8-.87,10.95-3.68,19.58,10.87,39.92,3.5,5.11,4.35,9.28,6.93-10.18Z"/>
    <g>
      <path class="k" d="m87.22,337.01c15.03,9.55,45.26,3.06,54.74-.3,15.51-5.56,14.18-7.82,22.43-4.14,10.79,5.44,4.15.18-8.49,7.01-15.37,3.52-37.58,21.95-40.66,42.84-1.62,10.46-.87,20.09,7.71,13.96.41-.28,22.35-19,26.87-26.23,5.3-8.43,6.25-22.5,11.08-28.28,1.25-1.41,2.4-.97,2.49-2.34,2.42-.6,7.83-2.11,9.77-1.29.88,15.56.44,12.19-3.38,17.01-12.65,16.07-8.67,33.27-9,29.56.74,8.26,7.88,34.83,10.99,33.9.98-.29,8.74-11.58,12.22-22.87,7.3-23.09-3.59-40.19-6.83-46.13.74-1.69.45-11.27.41-11.67,1.03.16,1.73-.05,2.27-.27,1.88-.72,20.35,12.76,36.69,8.97.06-.01,25.73-6.55,25.69-6.47,7.31-2.33-9.91-15.63-30.45-15.63-9.7,0-5.5,1.66,1.99-4.23,8.27-6.54,11.71-15.23,20.92-27.33,3.24-4.35-2.27-3.99-7.61-3.73-13.95.54-24.18,2.9-32.89,13.91-13.35,16.97-19.04,28.53-19.05,28.47-6.49-24.57,12.49-34.84,11.11-55.18-.41-5.71-1.83-10.61-1.78-10.41-3.19-12.54-4.58-14.46-13.3-1.05-8.75,13.16-6.76,30.33-3.35,45.7,1.37,5.96,1.92,10.32,1.92,10.26-.69-1.03-3.58-4.84-4.53-5.08-3.6-12.8-3.87-19.09-11.33-27.14-8.73-9.26-27.59-17.55-29.07-15.92-.93,1.03.2,2.77.17,2.71,2.93,5.68,6.86,20.41,15.52,30.33,5.58,6.37,12.71,8.1,19.03,12.08,5.99,4.12,5.36,6.03,6.97,7.91.95,1.06,4.79,7.01,4.59,6.86-2.16-1.1-19.58-12.37-18.82-11.92-31.05-18.42-72.06,5.29-73.32,8.07-1.24,2.7,5.55,6.32,8.31,8.05Zm91.67-77.67s.46-.49.49-.44c-.17.14-.33.29-.49.44Zm6.56,77.72h.04c.15.09,1.06.58-.04,0Zm-7.34-2.84c2.75-3.85,5.54-5.09,9.4-5.97,7.56-1.6,4.58-.8,2.97,0-8.01,3.95-7.71,6.03-12.07,6.03-.42,0-.35.04-.3-.05Zm-2.13,20.25c.04-.89.02-.85.05-.79.03.06,0,0-.05.79Zm-18.65-12.34h0s-.82.17,0,0Zm-1.41-15.59c-3.08-2.07-3.03-2.03.05.01-.04,0-.03,0-.05-.01Zm-2.05,2.34s-.02,0-.03.01c-.06.01-2.3-.6.03-.01Z"/>
      <path class="k" d="m242.2,340.28s-.03.01-.09.03c.03,0,.06-.02.09-.03Z"/>
      <path class="k" d="m251.47,100.33c11.37-.8,15.34-.78,1.58-8.86-23.09-13.54-34.17-10.42-44.52-8.23.36-.08-9.86,1.78-16.68,7.09-2.4,1.87-1.12,1.26-1.99.41-.63-.63,2.71-8.69,4.37-11.78,1.77-.25.52-2.35,5.52-5,6.48-3.16,12.82,0,25.61-5.8,35.45-16.05,27.37-18.74,38.48-25.31,3.69-2.17,8.15-3,2.03-6.5-5.86-3.35-6.24-4.11-31.11-.63-13.27,1.86-15.51,6.72-27.34,14.13-9.34,5.85-9.84,12.09-12.98,23.39-7.7,11.32-5.55,16.38-6.74,9.14-1.99-12.09-2.56-11.43-1.76-14.08.79-2.19,11.87-16.26,14.67-19.14,11.43-11.8,10.08-15.51,11.64-29.42.58-5.42.73-22.21-3.84-19.44-.99.6-2.59,3.43-7.5,8.25-21.78,18.95-17.62,34.23-18.17,43.59-.29,4.73-1.6,12.04.9,30.2-10.52-23.25-.99-23.16-19.89-45.11-12.04-14.03-29.37-18.36-30.35-18.28-3.91.3.98,15.77,2.47,19.14,13.68,30.33,35.72,24.73,44.54,46.85-13.93-9.17-17.33-13.56-30.03-18.02-43.05-15.14-79.54,31.29-68.93,28.8.21-.05,4.51-1.31,8.14-2.29,9.04-2.41,13.59-.26,32.81-.72,29.72-.7,36.37-12,47.72-8.39,2.49.87,6.35,3.36,6.28,3.36,9.52,7.64,9.3,4.09-3.98,4.44-4.62.14-28.99,4.38-33.51,5.44-17.41,4.03-28.31,19.81-32.75,36.95-2.55,9.77-4.16,12.71-1.56,12.71,1.02,0,2.17-1.83,8.43-5.6,15.53-10.41,11.89-2.98,28.54-14.08,31.5-21.91,16.44-27.4,40.47-30.68-20.3,21.23-20.21,35.83-14.62,63.78.55,2.71,2.29,2.47,3.03,1.71,1.5-1.54,12.02-17,14.92-25.65,4.43-13.02,1.99-40.42,4.51-40.28.91.06,1.66-.63,1.54-1.54,3.58-.16,5.75,1.59,12.35,5.6,22,13.3,36.46.96,47.69-.18Zm-98.35,1.45c1.4-.77,1.5-.79,1.52-.81.16-.06-.12.05-1.52.81Zm-18.46-79.22c-.11-.7-.11-.6-.06-.59l.06.59Zm92.77,81.08c.13-.01.27-.03.44-.04-.12.01-.27.03-.44.04Zm-.88.07c.45-.02.62-.04.05,0-.02,0-.04,0-.05,0Z"/>
      <path class="k" d="m274.49,295.26c8.94,8.45,9.95,11.92,14.46,15.51,6.34,5.04,17.98,5.35,24.55,2.91,13.89-5.18,16.61-.35,18.4-2.28,2.22.37,4.67.68,6.79.32.04,9.69.94,9.64-2.88,12.39-10.89,7.36-24.09,7.81-27.87,50.05-.84,9.37-1.37,10.51-2.48,13.84-1.09,2.65.57,3.27,1.53,2.88,13.31-5.42,23.11-13.16,30.56-27.48,10.23-19.8,3.53-15.36,3.88-49.99,4.26,6.05,6.28,6.53,9.97,13.54,4.27,8.41,1.82,19.82,2.54,28.21,1.33,15.54,15.47,52.19,26.05,52.19,5.39-.04,21.52-54.46-19.6-81.6,1.47.95-10.19-6.81-11.33-7.3-4.72-5.32-4.39-5.48-4.48-5.48.06,0,13.14,2.47,13.52,2.64,6.13,3.1,12.55,12.99,17.38,17.45,7.53,6.94,17.12,11.4,25.96,16.53,15.84,9.18,11.73,7.78,20.65,13.37,4.65,2.87,19.17,8.2,13.02-4.5-13.23-27.22-17.55-34.67-31.9-41.33-15.46-6.99-21.09.38-39.02-3.56-9.94-2.2-21.84-2.73-22.71-5.02,3.02-4.42,7.61-7.37,12.37-9.83-.31,0,6.81-1.43,26.9-2.48,7.37-.38,33.42-6.48,43.59-23.55.82-1.38,4.9-9.68,5.07-10.04,3.31-6.88.74-4.85-10.68-5.15-15.92-.41-26.65,1.74-40.78,11.94-1.36.99-28.89,25.5-28.61,28.63-2.5,1.49-5.03,3.2-7.09,5.23,5.1-23.48,11.75-14.53,21.9-38.51,8.83-20.83,1.06-39.62-2.08-49.82-2.14-6.91-2.29-11.14-4.97-9.56-3.8,2.25-10.91,21.96-12.76,30.32-4.46,20.03-1.14,41.57-1.14,50.02.02,6.4-1.63,7.73-2.96,13.84-.98,4.47.05,3.09-2.41-5.27.31-.68-.38-5.54-.38-5.48-1.44-22.15,6.98-42.63-19.78-64.13-2.63-2.12-13.09-10.44-16.33-9.19-1.96.75-1.42,3.51-1.26,5.87.8,12.63-.31,41.2,17.46,58.47,4.48,4.38,15.08,11.18,17.18,14.96,2.4,4.22,3.19,14.51,3.29,14.25-2.58.37-7.85-.67-10.41-1.21-.54-.81-1.72-.65-9.49-8.81-5.99-6.27-13.23-8.08-24.9-9.53-9.96-1.25-11.4-.29-19.09.94-3.44.57-2.14,2.46.39,4.85Zm75.1-30.8c.09-1.49.1-1.72.01-.09,0,.02,0,.06-.01.09Zm33.64,59.87h0c.39.33-4.31-2.79,0,0Zm-6.23,23.13c.17.3.57,1.03.77,1.43.05.14-.05-.13-.77-1.43Z"/>
    </g>
    <g>
      <path class="e" d="m4.73,221.14c7.99,1.08,14.38,3.53,20.53,4.86,42.09,9.21,51.52-13.75,76.44-3.03,3.17,1.37,2.64.94-.34.87-.06,0-25.7.15-29.45.9-18.22,3.7-37.4,17.03-41.54,35.01-2.01,8.57,5.39,2.99,12.57.38,2.05-.71,12.05-3.23,11.99-3.21,22.42-6.32,24.64-25.21,49.89-30.12,8.72.84-17.54-1.92-32.81,38.1-2.81,7.41-2.81,9.98-3.47,17.42-.25,2.76-1.13,5.68.82,5.93,2.01.26.1-2.33,16.49-10.79,7.88-4.06,16.7-19.64,17.96-22.86,1.33-3.39,6.69-22.27,14.34-25.06,11.72-4.06,16.19,7.03,27.15,12.08,3.16,1.46,4.43,1.07,14.14,4.3,12.29,4.45,17.48,9.17,13.29-1.48-1.83-4.64-4.62-6.03-9.32-9.67-7.62-6.71-8.23-12.03-16.81-16.28-20.16-10-28.8,12.71-26.49,5.3,7.46-21.67,19.53-13.98,38.06-21.09,10.74-4.07,23.98-17.25,24.68-21.38.42-2.48-3.05-1.67-7.83-1.8-10.42-.96-17.72-3.48-28.2-2.3-9.07,1.01-19.57,8.01-23.04,17.64-4.83,13.5.52,4.81-7.29,25.97-.11-.2-2.16-3.82-2.85-5.08-5.29-11.46,7.91-27.63-19.08-50.03-5.25-4.35-9.48-4.93-15.64-6.83-3.15-1.09-6.39-3.82-5.74,2.03,2.64,23.86,7.26,30.08,15.93,38.75-.06-.05,17.79,12.52,20.5,16.36,1.36,2.11,3.36,5.79,3.76,8.3-.38-.19-.75-.37-1.13-.56-.33-1.32-.83-.47-6.69-3.06-5.07-2.59-18.22-12.78-24.89-15.91-18.46-8.68-38.36.38-58.51,3.49-7.32,1.11-15.58,3.65-20.89,8.8-2.83,2.76-.4,3.52,3.5,4.06Zm100.47-13.71c-.19-.26-.44-.61-.78-1.08.36.49.61.83.78,1.08Zm-3.47,24.42c-.09.07-.25.14-1.32.75.17-.1.59-.33,1.32-.75Z"/>
      <path class="e" d="m278.54,394.94c7.04,5.71,16.92,9.73,20.71,15.04,2.04,3.05,5.28,13.69,3.65,19.72-.23.84.41,1.31.42,1.45.16,1.12.91.7,1.44,1.73,2.03,4.22-1.02,5.56-2.57,7.59-7.26,8.57-1.97,15.16.43,25.94,1.28,5.85,1.41,9.35,3.13,11.66.76,1.02,2.59,1.42,3.92-.36,2.19-2.95,14.62-36.25-.82-41.78-1.53-5.03-3.09-4.5,5.38-3.05.33.54,1.33,1.23,1.94,1.87,3.61,4.11,5.48,10.11,8.75,14.81,3.65,5.26,6.53,6.14,17.12,10.97,5.62,2.57,8.73,5.74,11.47,6.99,5.88,2.71,4.07-14.51-4.47-23.58-11.36-12.05-21.65-11.95-36.76-14.18,3.65-.98,11.03-2.61,14.01-2.49,7.17.48,18.2,6.29,23.12,7.57,5.84,1.51,9.09-.3,13.32-1.24,9.25-2.01,25.63-.81,11.09-12.16-23.65-18.56-34.53-.5-60.55,5.2-4.11.91-5.43,2.2-2.2-.76,5.44-4.89,3.52-2.15,7.43-5.02,1.42.91,12.02-1.68,16.22-3.77,10.11-5.02,20.95-14.35,23.02-25.07,3.9-20.13-10.07.55-14.01.55-.06.04-11.7,7.46-15.27,10.65,8.19-13.42.34-40.44.63-39.29-1.89-7.56-4.23-11.84-7.68-4.84-6.18,12.43-11.91,23.27-11.32,35.59.32,6.6,2.44,14.96.1,22.04-.04.16.52-.99-3.05,4.98.33-6.85-2.15-10.7-2.52-13.51,0-1.73,4.19-6.47.73-14.25-6.99-15.71-23.07-15.93-32.72-18.15-2.2-.5-8.83-2.73-8.86-2.73-6.48.42,9.73,17.8,14.75,21.87Zm36.85,22.18c1.87-2.16,4.33-4,8.09-7.66-4.64,7.92-3.48,7.08-7.06,9.13-4.02,2.31-6.96,5.58-1.03-1.47Z"/>
    </g>
  </g>
  <g class="d">
    <path class="h" d="m98.31,592.66c-.97-16.37-.05-10.21,31.67-12.2,38.12-2.59,199.85-2.9,199.95-2.91,13.37-.36,10.41,6.58,9.77,35.67-.47,20.06-8.55,61.15-12.51,71.22-7.68,28.18-13.69,42.2-38.37,56.28-7.91,4.52-17.96,8.34-31.94,10.31-8.67,1.22-40.1,3.31-46.83,3.32-95.11,0-104.23-36.81-111.74-161.69Z"/>
    <path class="g" d="m357.35,630.39c-7.99-2.72-286.77-3.74-295.33-2.06-4.86.96-4.25,7.82.35,8.15,6.7.47-2.27-.44,74.76-1.45,148.43-1.97,99.35,1.54,171.02,1.3,13.22-.04,42.22-2.19,46.46.71,4.91,3.35,8.6-5.55,2.74-6.65Z"/>
    <path class="g" d="m190.92,654.55c114.99-.89,105.83-4.54,150.37-2.16,5.77.31,9.1,1.32,9.36-1.72.57-6.64-17.57-.79-224.08-9.84-7.98-.35-43.19-1.84-50.17,2-4.57,2.52-5.54,10.29,6.33,11,.09,0,108.08.73,108.18.73Z"/>
    <path class="g" d="m220.74,668.87c52.08-.46,105.27-3.74,121.5-2.44,4.45,3.37,7.36-5.57,1.66-5.53-73.55-6.42-132.51,4.59-255.49-1.53-5.27-.26-11.61-1.98-11.4,3.05.18,4.22,4.86,3.24,9.09,2.97,16.41-1.03,85.05,3.87,134.64,3.47Z"/>
    <path class="g" d="m235.85,680.93c4.38-.02,106.98-1.26,107.07-1.28,3.95-.69,2.84-6.56-1.01-5.92-27.19-1.22-23.58-2-37.79-2.9-29.33-1.89-71.99,2.48-117.34,1.74.1,0-78.82-5.21-96.36-3.91-3.23.23-3.15,4.8-.11,5.05.09,0,108.63,7.38,145.54,7.22Z"/>
    <path class="g" d="m244.46,695.37c33.86-.74,75.26-3,92.09-.56,2.3,1.48,5.37.6,6.59-1.8,1.74-3.44-1.26-7.29-4.9-6.68-82.1-6.69-64.07,2.11-166.24.09-80.15-2.13-81.99-4.56-82.46.85-.46,5.32,1.04,3.32,43.46,4.56,30.78.88,50.79,4.84,111.45,3.53Z"/>
  </g>
</svg>