<?xml version="1.0" encoding="utf-8"?>
<!-- Generator: Adobe Illustrator 28.2.0, SVG Export Plug-In . SVG Version: 6.00 Build 0)  -->
<svg version="1.1" id="Layer_1" xmlns="http://www.w3.org/2000/svg" xmlns:xlink="http://www.w3.org/1999/xlink" x="0px" y="0px"
	 viewBox="0 0 93.2 85.11" style="enable-background:new 0 0 93.2 85.11;" xml:space="preserve">
<style type="text/css">
	.st0{fill:#FFFFFF;}
	.st1{fill:url(#SVGID_1_);}
	.st2{fill:#BC6F53;}
	.st3{fill:#F6D9D0;}
	.st4{fill:#F9CBBA;}
	.st5{fill:#FEEEE5;}
	.st6{fill:url(#SVGID_00000156557771097014205050000001104767816050828447_);}
	.st7{fill:#101713;}
	.st8{fill:url(#SVGID_00000160166750267968929760000010116240229400255147_);}
	.st9{fill:#765338;}
	.st10{fill:#433626;}
	.st11{fill:#553525;}
	.st12{fill:#744833;}
	.st13{fill:#FADFBA;}
	.st14{fill:#FBB377;}
	.st15{fill:#F89E5C;}
	.st16{fill:#F8C599;}
	.st17{fill:#F68F59;}
	.st18{fill:#BD5939;}
	.st19{fill:#FEF7ED;}
	.st20{fill:#100D0B;}
	.st21{fill:#F8ADAC;}
	.st22{fill:#E26B7B;}
	.st23{fill:#1F180F;}
	.st24{fill:#BE443E;}
	.st25{fill:#FDD6B9;}
</style>
<g>
	<path class="st0" d="M66.16,80.38c-0.18-4.46-4.92-6.36-8.46-7.84c-0.12-0.05-0.05-0.27-0.07-0.28c6.84,1.11,13.07,0.7,18.5-3.99
		c5.8-5.01,8.09-13.85,2.68-20.01c-1.3-1.48-2.9-2.69-4.81-3.09c-0.24-0.05-0.62-0.13-0.83-0.28c0.07-0.08,0.88-1.66,0.96-1.86
		c4.53-11.27-5.19-32.3-18.22-30.88c-1.87-2.75-6.84-3.49-9.97-3.58c-0.05,0-0.09,0-0.14,0c-7.14-0.13-14.93,2.17-20.29,7.01
		c-5.21,4.71-8.9,12.54-9.15,19.53c-0.09,2.62,0.1,4.25,0.83,6.74c0.26,0.9,0.46,1.81,1.1,2.54c-0.03,0.17-0.03,0.17-0.07,0.34
		c-0.13,0.02-0.29-0.02-0.34,0c-0.31,0.15-1.15,0.32-1.99,0.83c-1.96,1.18-4.1,3.78-4.61,6.05c-1.17,2.66-1.08,4.65-0.55,7.43
		c2.24,11.7,15.97,16.32,26.2,12.1c0.57,0.45,1.14,1.61,1.44,1.93c1.96,2.07,4.5,2.7,7.29,2.75c1.84,0.03,6.32-0.66,7.43-2.2
		c1.42-1.99-1.82-3.64,3.58-1.65c-0.07,0.26-0.17,0.58-0.28,0.83c-2.87,6.57-12.54,7.81-18.5,3.44c-1.61-1.18-1.83-1.75-2.54-3.44
		c-0.06-0.13,0.09-0.45-0.07-0.55c-3.11,0.61-6.42,1.71-8.46,4.33c-2.71,3.49,1.41,0.33-0.14,3.3c2.43,1.87,1.51,0.23,2.06-0.55
		c0.11-0.16,0.37-0.3,0.48-0.21c0.88,0.75-2.73,1.68,3.3,2.89c0.88-2.42,2.36-1.62,0.48,0.07c2.35,0.94,3.3,1.55,4.61-0.48
		c0.33,0.79-1.26,1.17-0.48,1.65c-14.5-2.09-26.68-10.74-32.87-24.14C-1.48,46.69,0.09,31.59,7.7,20.27
		c1.77-2.63,5.7-6.84,8.12-8.94C34.38-4.78,65.24-3.72,81.98,14.56c12.63,13.8,14.89,35.75,3.85,51.17
		C81.44,71.86,73.54,78.46,66.16,80.38z"/>
	<g>
		
			<linearGradient id="SVGID_1_" gradientUnits="userSpaceOnUse" x1="430.3199" y1="1392.1763" x2="46.0418" y2="1428.1765" gradientTransform="matrix(0.0884 0 0 0.0884 24.4123 -46.8158)">
			<stop  offset="0" style="stop-color:#F6916F"/>
			<stop  offset="1" style="stop-color:#FAB798"/>
		</linearGradient>
		<path class="st1" d="M57.63,72.26c0.02,0.01-0.06,0.22,0.07,0.28c3.54,1.48,8.28,3.38,8.46,7.84c-0.23,0.06-1.07,0.44-1.17,0.41
			c-0.11-0.03-1.03-2.27-0.62,0.07c-6.53,2.89-14.07,3.19-21.18,2.96c-4.61-0.52-0.45-1-0.28-1.72c0.19-0.76-2.95,1.04-3.03,1.44
			c-1.1-0.09-1.55-0.1-2.75-0.28c-0.78-0.48,0.81-0.86,0.48-1.65c-1.31,2.03-2.25,1.42-4.61,0.48c1.88-1.69,0.4-2.49-0.48-0.07
			c-6.03-1.21-2.42-2.14-3.3-2.89c-0.11-0.09-0.37,0.05-0.48,0.21c-0.55,0.78,0.37,2.42-2.06,0.55c1.55-2.97-2.57,0.19,0.14-3.3
			c2.03-2.62,5.34-3.72,8.46-4.33c0.16,0.1,0.01,0.42,0.07,0.55c-0.41,1.12,0.85,2.42,1.65,3.16c-1.4,1.21,0.21,1.89,0.83,0.69
			c0.2,0.15,2.08,1.32,2.2,1.38c-0.44,1.42,0.59,1.75,0.55,0.14c1.5,0.59,3.21,1.02,4.81,1.1c0.17,0.76,0.17,0.76,0.34,1.51
			c0.24-0.76,0.24-0.76,0.48-1.51c4.04,0.01,9.59-2.05,10.18-6.46c0.11-0.25,0.2-0.56,0.28-0.83C56.71,72.01,57,72.01,57.63,72.26z"
			/>
		<g>
			<path class="st2" d="M56.39,72.81c-0.59,4.41-6.14,6.47-10.18,6.46c-0.27,0-0.55,0.01-0.83,0c-1.61-0.08-3.31-0.51-4.81-1.1
				c-0.13-0.05-0.44-0.09-0.55-0.14c-0.12-0.05-2-1.23-2.2-1.38c-0.28-0.21-0.57-0.45-0.83-0.69c-0.8-0.75-2.06-2.05-1.65-3.16
				c0.72,1.69,0.94,2.26,2.54,3.44C43.85,80.62,53.52,79.39,56.39,72.81z"/>
			<g>
				<path class="st0" d="M43.19,83.82c-1.13-0.04-2.19-0.19-3.3-0.28c0.08-0.41,3.21-2.21,3.03-1.44
					C42.74,82.82,38.58,83.3,43.19,83.82z"/>
				<path class="st0" d="M49.17,80.93c0.77-0.19,0.99,1.27,0.55,1.51C48.73,83,48.46,81.1,49.17,80.93z"/>
				<path class="st3" d="M56.46,75.01c0.98-0.33,1.27,1.22,0.41,1.38C56.08,76.53,55.84,75.22,56.46,75.01z"/>
				<path class="st4" d="M54.81,77.22c0.98-0.27,1.18,1,0.55,1.24C54.33,78.85,54.03,77.43,54.81,77.22z"/>
				<path class="st3" d="M31.02,74.33c0.79-0.37,1.4,1.15,0.69,1.38C30.87,75.96,30.6,74.52,31.02,74.33z"/>
				<path class="st3" d="M34.73,73.5c-0.17,0.52-0.17,0.52-0.34,1.03C31.73,77.33,31.94,76.21,34.73,73.5z"/>
				<path class="st5" d="M37.82,76.67c-0.62,1.2-2.23,0.52-0.83-0.69C37.25,76.21,37.55,76.46,37.82,76.67z"/>
				<path class="st4" d="M63.61,76.67c0.58-0.27,1.3,0.94,0.69,1.24C63.55,78.26,63.08,76.92,63.61,76.67z"/>
				<path class="st5" d="M59.35,76.67c0.59-0.16,1.11,1.03,0.41,1.24C58.83,78.18,58.8,76.81,59.35,76.67z"/>
				<path class="st5" d="M30.33,77.22c0.63-0.23,1.49,1.07,0.96,1.24C30.8,78.61,29.78,77.42,30.33,77.22z"/>
				<path class="st3" d="M59.21,73.91c0.36-0.12,1.03,0.83,1.03,0.89C60.35,76.23,58.52,74.14,59.21,73.91z"/>
				<path class="st5" d="M33.77,76.39c0.25-0.13,1.54,1.35,1.58,1.44C35.95,79.19,33.38,76.6,33.77,76.39z"/>
				<path class="st5" d="M59.08,80.52c0.79-0.24,1,0.95,0.41,1.1C58.94,81.75,58.39,80.72,59.08,80.52z"/>
				<path class="st5" d="M57.97,78.59c0.72-0.34,1.05,0.73,0.55,0.96C57.99,79.8,57.42,78.85,57.97,78.59z"/>
				<path class="st3" d="M46.21,79.28c-0.24,0.76-0.24,0.76-0.48,1.51c-0.17-0.76-0.17-0.76-0.34-1.51
					C45.66,79.29,45.94,79.28,46.21,79.28z"/>
				<path class="st0" d="M53.16,82.03c0.92-0.26,1.13,1.2,0,0.83C52.74,82.72,52.78,82.14,53.16,82.03z"/>
				<path class="st3" d="M40.58,78.18c0.04,1.61-0.99,1.28-0.55-0.14C40.14,78.09,40.45,78.13,40.58,78.18z"/>
			</g>
		</g>
	</g>
	<g>
		
			<linearGradient id="SVGID_00000152960250776778034060000017310989859414029190_" gradientUnits="userSpaceOnUse" x1="115.2392" y1="801.5953" x2="553.0131" y2="985.076" gradientTransform="matrix(0.0884 0 0 0.0884 24.4123 -46.8158)">
			<stop  offset="0" style="stop-color:#2F281A"/>
			<stop  offset="1" style="stop-color:#131913"/>
		</linearGradient>
		<path style="fill:url(#SVGID_00000152960250776778034060000017310989859414029190_);" d="M73.17,44.89
			c-0.13,0.15-0.27,0.27-0.41,0.41c-0.39,0.37-1.01-0.14-1.93,2.06c-0.28,0.67-0.35,1.25-0.55,1.93c-1.68,1.83,0.95-5.11-0.28-6.4
			c-2.81-2.83-5.03-6.15-7.56-9.22c-3.34-4.04-6.36-5.83-9.35-12.79c-0.17-0.1-0.92,1.15-0.96,1.31c-0.48-0.41-0.48-0.41-0.96-0.83
			c0.19-0.18,0.73-0.43,0.69-0.76c-0.12-1.03-2.21,0.61-2.54,0.76c-11.07,4.93-22.37,9.47-31.15,18.16c0.05-0.13-0.4-0.26,1.1-2.41
			c4.12-5.89,18.36-13.53,23.52-21.87c-3.53,0.68,2.78-3.75,3.3-6.05c0.06-0.28-0.17-0.37-0.14-0.62c3.13,0.08,8.1,0.82,9.97,3.58
			c13.03-1.42,22.75,19.61,18.22,30.88C74.06,43.24,73.24,44.81,73.17,44.89z"/>
		<path class="st7" d="M57.63,72.26c-0.63-0.26-0.92-0.26-0.96-0.28c-5.4-1.99-2.16-0.33-3.58,1.65c0.07-1.3-0.12-2.57-0.28-3.85
			c-0.04-0.33,0.09-0.66-0.14-0.96c8.14-2.43,12.51-6.51,15.82-14.17c1.16-2.69,0.48-1.09,1.58-0.41c1.87,1.15,5.95-1.65,5.71-5.78
			c-0.06-0.99-0.6-2.95-1.79-3.16c0-0.07,0-0.07,0-0.14c1.92,0.4,3.52,1.62,4.81,3.09c5.41,6.16,3.12,15-2.68,20.01
			C70.71,72.96,64.47,73.37,57.63,72.26z"/>
		
			<linearGradient id="SVGID_00000002356314698243622510000000140243686300500920_" gradientUnits="userSpaceOnUse" x1="130.3708" y1="1192.5593" x2="-90.4126" y2="1202.1963" gradientTransform="matrix(0.0884 0 0 0.0884 24.4123 -46.8158)">
			<stop  offset="0" style="stop-color:#141713"/>
			<stop  offset="1" style="stop-color:#2E2618"/>
		</linearGradient>
		<path style="fill:url(#SVGID_00000002356314698243622510000000140243686300500920_);" d="M17.88,44.76c0,0.07,0,0.07,0,0.14
			c-0.81,0.08-1.8,1.24-2.06,1.99c-1.47,4.3,3.05,9,5.5,7.08c0.23-0.18,0.56-0.33,0.55-0.69c2.65,8.79,8.66,13.11,17.19,15.54
			c-0.18,0.22-0.1,0.36-0.14,0.55c-0.07,0.41-0.22,0.75-0.28,1.1c-0.13,0.89-0.07,1.75-0.28,2.61c-0.3-0.32-0.87-1.48-1.44-1.93
			c-10.23,4.22-23.96-0.41-26.2-12.1c0.53,1.33,1.07,2.61,1.79,3.85c0.86,1.48,1.87,2.93,3.3,3.92c-0.48-9.46-0.48-9.46-0.96-18.91
			c1.77-2.86,0.1-1.45-1.1-0.07c-0.64,0.73-2.1,2.91-2.48,3.78c0.51-2.27,2.64-4.87,4.61-6.05C16.73,45.08,17.57,44.9,17.88,44.76z"
			/>
		<path class="st7" d="M51.17,21.37c-0.75,0.69-3.33,2.16-4.4,2.75c-7.55,4.16-13.61,5.14-21.18,12.24
			c-1.7,1.59-3.31,3.26-4.68,5.16c-0.03,2.1,0.19,4.18,0.41,6.26c0.07,0.63,0.51,2.11,0,2.34c-0.48-0.79-0.43-1.77-0.69-2.61
			c-0.43-1.42-0.7-2.82-2.75-2.61c0-0.07,0-0.07,0-0.14c0.05-0.02,0.22,0.02,0.34,0c0.03-0.17,0.03-0.17,0.07-0.34
			c-0.64-0.73-0.84-1.65-1.1-2.54c0.21-0.82,0.65-1.55,0.96-2.34c8.78-8.69,20.09-13.23,31.15-18.16c0.34-0.15,2.43-1.79,2.54-0.76
			C51.89,20.94,51.36,21.2,51.17,21.37z"/>
		<path class="st9" d="M14.85,47.92c-0.06,0.09-0.93,0.92-1.38,1.72c-1.66,2.97-2.57,5.76-2.06,9.22c0.25,1.73,1.31,3.27,1.1,4.06
			c-0.72-1.24-1.26-2.52-1.79-3.85c-0.53-2.78-0.62-4.76,0.55-7.43c0.38-0.87,1.83-3.05,2.48-3.78
			C14.96,46.47,16.63,45.05,14.85,47.92z"/>
		<g>
			<path class="st10" d="M45.8,8.58c-0.05,0.32-4.84,1.17-3.3,0.62c0.13-0.9-8.44,1.38-11.9,3.37
				c-7.37,4.23-12.75,12.79-13.96,21.11c-0.08,0.58,0.21,1.3-0.28,1.44c0.25-6.99,3.94-14.82,9.15-19.53
				C30.87,10.75,38.66,8.45,45.8,8.58z"/>
			<g>
				<path class="st11" d="M18.16,39.53c-0.32,0.78-0.75,1.51-0.96,2.34c-0.73-2.49-0.92-4.12-0.83-6.74
					c0.49-0.14,0.19-0.86,0.28-1.44c1.21-8.32,6.59-16.88,13.96-21.11c3.46-1.99,12.03-4.27,11.9-3.37c-1.54,0.55,3.25-0.3,3.3-0.62
					c0.05,0,0.09,0,0.14,0c-0.03,0.25,0.2,0.34,0.14,0.62c-0.52,2.3-6.83,6.74-3.3,6.05c-5.16,8.34-19.4,15.98-23.52,21.87
					C17.75,39.27,18.21,39.4,18.16,39.53z"/>
				<path class="st12" d="M37.62,10.78c0.53,0.06,0.62,0.28,0.28,0.69c-0.51,0.61-7.89,4.08-13.2,8.94
					c-1.56,1.43-3.25,3.99-3.51,3.09c-0.26-0.92,5.49-6.96,6.53-7.77C29.79,14.13,36.6,10.68,37.62,10.78z"/>
			</g>
		</g>
		<path class="st11" d="M12.52,62.91c0.2-0.79-0.85-2.33-1.1-4.06c-0.51-3.46,0.41-6.24,2.06-9.22c0.45-0.8,1.32-1.63,1.38-1.72
			c0.48,9.46,0.48,9.46,0.96,18.91C14.39,65.84,13.37,64.39,12.52,62.91z"/>
		<g>
			<path class="st13" d="M52.13,22.2c-0.49,1.68,2.31,6.19,3.44,7.63c1.05,1.35,2.48,2.36,3.44,3.78c-1.63-0.14-2.95,0.06-3.3,1.86
				c0.2,0.26,3.71-0.79,6.33,1.31c-1.26,0.93-3.4-1.28-3.3-0.21c0.03,0.36,3.72,5.19,4.54,5.57c0.08,0.44,0.39,0.91,0.41,1.38
				c-0.43,0.3-0.76,0.25-0.83,0.28c-1.24-2.9-6.15-4.11-8.12-1.44c-0.34,0.46-1.09,2.12-0.28,1.86c-0.27,0.85-0.08,1.93-0.14,2.82
				c0.05,0.09,0.74-0.91,0.96-1.17c-0.93,1.47-0.65,3.34,0.41,4.68c0.73,0.92,1.48,0.99,2.61,1.03c-0.89,0.1-0.89,0.1-1.79,0.21
				c-0.23,0-0.47-0.23-0.89-0.14c-0.72,0.36-0.59,0.66-0.62,0.69c-0.21,0.21-0.8,0.8-0.83,1.03c-0.08,0.75,1.13,3.44,2.2,3.71
				c0.26,0.91-0.8,2.57-0.41,3.3c0.08,0.15,0.99,0.09,0.96,0.55c-0.03,0.52-1.65,0.56-1.86,0.76c-0.12,0.11-0.2,0.81-0.34,1.03
				c-1.4,2.16-0.57,0.91,0.21,1.03c1.1,0.17,0.4,1.83,0.07,2.61c-0.49,0.38-0.99,0.77-1.51,1.1c-0.13,0.08-0.76,0.2-0.69,0.55
				c-3.82,1.21-5.24,1.69-9.49,1.24c1.27-0.33,3.1-3.81,3.16-5.23c1.76-0.08,2.61-0.55,3.85-1.65c0.08-0.07,0.35-0.21,0.41-0.28
				c0.05,1.33,1.86-0.21,2.61-1.99c0.32-0.74,0.43-1.58,0.69-2.34c-0.01-0.66-0.32-0.61-0.55-1.86c-0.32-1.72,0.65-1.95-0.55-1.38
				c0.11-0.68-0.4-0.3-0.69-0.41c-2.65-1.04-2.38-4.43-2.75-7.63c-0.07-0.63-0.54-0.76-0.55-0.83c0.82-0.97-0.58-2.97,0.69-3.71
				c-0.82-0.79,0.72-0.56-0.14-1.1c0.76,0.02-0.03-4-0.14-5.5c-0.83-1.24-0.35-2.69-1.65-3.85c0.73-0.35-0.13-0.26-0.28-0.55
				c-0.04-0.09,0.06-0.69-0.28-1.24c-0.1-0.17-1.6-1.71-2.34-3.16c0.05-0.17,2.35-0.72,1.93-2.41c1.07-0.59,3.65-2.06,4.4-2.75
				C51.65,21.79,51.65,21.79,52.13,22.2z"/>
			<path class="st14" d="M70.28,49.29c-0.02,0.07,0.47,1.06-1.03,0.28c-1.05,2.74-1.06,1.48-1.31,1.72c-0.18,0.17,0.1,1.1-1.79,4.47
				c-0.42,0.75-2.4,3.83-2.89,4.47c-1.24,1.62-2.92,2.82-2.89,3.03c0.03,0.21,0.93-0.09,0,1.03c-2.42,1.76-3.82,2.41-6.6,3.44
				c-0.14-0.14-0.14-0.14-0.28-0.28c0.53-0.33,1.02-0.72,1.51-1.1c4.06-3.1,4.99-6.39,7.15-10.59c3.02-5.87,7.7-12.46,0.96-19.53
				c-1.24-1.3-2.16-2.45-4.13-2.61c-0.96-1.42-2.39-2.44-3.44-3.78c-1.13-1.45-3.93-5.95-3.44-7.63c0.05-0.16,0.79-1.41,0.96-1.31
				c2.99,6.96,6.01,8.75,9.35,12.79c2.53,3.06,4.75,6.38,7.56,9.22C71.23,44.19,68.6,51.12,70.28,49.29z"/>
			<path class="st0" d="M22.01,47.92c2.07,0.83,0.85,1.38,1.65,1.1c-0.84,1.5-0.28,4.24,0.28,5.85c0.02,0.04,0.27,0.04,0.41,0.41
				c0.06,0.16-0.14,0.26-0.14,0.28c0.39,0.93,1.23,2.09,1.79,2.96c2.18,3.38,4.12,4.97,7.36,7.29c3.21,1.44,6.44,3.06,9.97,3.44
				c4.25,0.46,5.67-0.03,9.49-1.24c0.32-0.1,0.61-0.15,0.96-0.28c2.78-1.02,4.19-1.68,6.6-3.44c1.46-1.07,3.27-2.66,4.4-4.06
				c1.42-1.75,2.25-3.94,3.71-5.57c-3.31,7.66-7.68,11.74-15.82,14.17c-5.24,1.56-8.41,1.48-13.62,0
				c-8.53-2.43-14.55-6.75-17.19-15.54c-0.12-0.41-0.56-2.6-0.55-3.16c0.51-0.22,0.07-1.71,0-2.34
				C21.69,47.72,21.82,47.84,22.01,47.92z"/>
			<g>
				<path class="st15" d="M74,45.17c0,0.07,0,0.07,0,0.14c-0.03,0.35,0.18,0.65,0.28,0.96c-0.11,0.02-0.4,0.29-0.41,0.34
					c-0.23,0.95,0.4,8.48-3.37,7.5c-0.65-0.17-0.93-1.42-1.38-1.38c-0.43,0.04-1.92,4.62-2.96,3.03c1.89-3.37,1.61-4.3,1.79-4.47
					c0.25-0.24,0.26,1.02,1.31-1.72c1.5,0.78,1.01-0.2,1.03-0.28c0.2-0.67,0.27-1.26,0.55-1.93c0.72-0.54,1.9-1.14,1.93-2.06
					c0.14-0.14,0.28-0.26,0.41-0.41C73.38,45.04,73.76,45.12,74,45.17z"/>
				<path class="st0" d="M72.76,45.31c-0.02,0.93-1.21,1.53-1.93,2.06C71.75,45.16,72.38,45.68,72.76,45.31z"/>
				<path class="st15" d="M75.79,48.47c0.25,4.12-3.84,6.93-5.71,5.78c-1.1-0.68-0.42-2.28-1.58,0.41c-1.46,1.63-2.3,3.82-3.71,5.57
					c-1.13,1.4-2.94,2.99-4.4,4.06c0.93-1.12,0.03-0.82,0-1.03c-0.03-0.21,1.65-1.4,2.89-3.03c0.49-0.64,2.47-3.72,2.89-4.47
					c1.04,1.59,2.53-2.99,2.96-3.03c0.44-0.04,0.73,1.21,1.38,1.38c3.77,0.98,3.14-6.55,3.37-7.5c0.01-0.05,0.3-0.33,0.41-0.34
					C74.53,47.07,74.78,48.41,75.79,48.47z"/>
				<path class="st16" d="M75.79,48.47c-1.01-0.06-1.26-1.4-1.51-2.2c-0.1-0.31-0.31-0.61-0.28-0.96
					C75.19,45.51,75.73,47.47,75.79,48.47z"/>
			</g>
			<g>
				<path class="st17" d="M52.82,69.79c0.16,1.28,0.35,2.55,0.28,3.85c-1.1,1.54-5.59,2.23-7.43,2.2c0.1-0.26-0.52-0.38-1.1-0.69
					c1.99-2.17,1.99-2.17,3.99-4.33c-0.19-0.23-3.04,0.71-5.98,0.21c-0.85-0.14-2.83-0.9-2.82-1.38c7.47,1.98,12.1-0.46,12.72-0.28
					C52.55,69.4,52.53,69.74,52.82,69.79z"/>
				<path class="st16" d="M44.56,75.15c0.58,0.3,1.2,0.43,1.1,0.69c-2.79-0.05-5.33-0.68-7.29-2.75c0.21-0.86,0.14-1.73,0.28-2.61
					C40.73,73,41.72,73.65,44.56,75.15z"/>
				<path class="st18" d="M52.68,68.83c0.23,0.3,0.1,0.64,0.14,0.96c-0.29-0.05-0.27-0.39-0.34-0.41
					c-0.62-0.18-5.25,2.26-12.72,0.28c-0.04-0.01-0.41-0.33-0.83-0.28c0.03-0.19-0.04-0.33,0.14-0.55
					C44.26,70.31,47.44,70.39,52.68,68.83z"/>
				<path class="st15" d="M39.75,69.65c-0.01,0.48,1.97,1.23,2.82,1.38c2.94,0.5,5.79-0.44,5.98-0.21
					c-1.99,2.17-1.99,2.17-3.99,4.33c-2.84-1.5-3.83-2.15-5.91-4.68c0.05-0.35,0.2-0.69,0.28-1.1
					C39.34,69.32,39.71,69.64,39.75,69.65z"/>
			</g>
			<g>
				<path class="st16" d="M20.63,47.51c0.26,0.84,0.21,1.82,0.69,2.61c-0.01,0.56,0.43,2.76,0.55,3.16
					c0.01,0.36-0.32,0.51-0.55,0.69c-7.9-2.63-4.88-8.3-3.37-8.53C19.37,45.23,19.88,46.68,20.63,47.51z"/>
				<path class="st19" d="M20.63,47.51c-0.75-0.83-1.26-2.28-2.68-2.06c-1.51,0.22-4.53,5.9,3.37,8.53
					c-2.45,1.92-6.98-2.78-5.5-7.08c0.26-0.76,1.25-1.91,2.06-1.99C19.94,44.69,20.2,46.09,20.63,47.51z"/>
			</g>
			<path class="st19" d="M22.01,47.92c-0.19-0.08-0.32-0.2-0.69-0.14c-0.23-2.08-0.45-4.16-0.41-6.26c1.37-1.89,2.98-3.56,4.68-5.16
				c-2.03,2.26-1.03,1.89-1.1,1.99c-0.35,0.53-2.63,3.1-2.75,3.58C21.34,43.48,22.31,46.28,22.01,47.92z"/>
			<path class="st16" d="M62.17,55.76c-0.98-1.6-6.4,2.41-7.15-3.44c0.03-0.03-0.1-0.33,0.62-0.69c0.42-0.09,0.67,0.14,0.89,0.14
				c2.52-0.04,4.07-0.29,5.78-2.54c1.24-1.64,1.41-2.8,1.38-4.75c0-0.09,0.01-0.18,0-0.28c-0.01-0.21,0.16-0.3,0-0.69
				c-0.03-0.47-0.33-0.94-0.41-1.38c-0.12-0.65-0.11-1.34-0.28-1.99c-0.27-1.05-1.13-2.33-0.83-3.37c0.17-0.03,0.4,0.82,0.96-0.55
				C69.87,43.3,65.19,49.89,62.17,55.76z"/>
			<path class="st16" d="M62.17,55.76c-2.17,4.2-3.1,7.49-7.15,10.59c0.34-0.78,1.03-2.44-0.07-2.61c-0.77-0.12-1.61,1.13-0.21-1.03
				c0.14-0.22,0.23-0.92,0.34-1.03c0.2-0.19,1.83-0.23,1.86-0.76c0.02-0.46-0.88-0.4-0.96-0.55c-0.39-0.73,0.67-2.39,0.41-3.3
				c-1.07-0.28-2.28-2.96-2.2-3.71c0.03-0.23,0.62-0.82,0.83-1.03C55.77,58.17,61.19,54.16,62.17,55.76z"/>
			<path class="st7" d="M59.01,33.61c1.96,0.17,2.89,1.31,4.13,2.61c-0.56,1.37-0.79,0.52-0.96,0.55c-0.04,0.01-0.09-0.01-0.14,0
				c-2.62-2.1-6.13-1.04-6.33-1.31C56.06,33.67,57.37,33.48,59.01,33.61z"/>
			<path class="st16" d="M62.03,36.78c0.05-0.01,0.09,0.01,0.14,0c-0.3,1.04,0.55,2.32,0.83,3.37c0.17,0.65,0.15,1.35,0.28,1.99
				c-0.82-0.38-4.51-5.21-4.54-5.57C58.64,35.5,60.77,37.7,62.03,36.78z"/>
			<path class="st13" d="M50.75,62.09c1.52-1.55,2.62-4.03,2.75-6.19c0.23,1.25,0.54,1.19,0.55,1.86c-0.26,0.76-0.37,1.59-0.69,2.34
				C52.61,61.88,50.81,63.41,50.75,62.09z"/>
			<path class="st16" d="M53.5,67.45c0.14,0.14,0.14,0.14,0.28,0.28c-0.35,0.13-0.64,0.17-0.96,0.28
				C52.75,67.65,53.37,67.53,53.5,67.45z"/>
			<g>
				<path class="st13" d="M52.27,54.11c-4.4,0.4-8.9,0.77-13.27,0c-1.47-0.11-0.84,0.24-0.89,0.28c-0.17,0.11-0.35-0.22-0.41-0.07
					c-0.02,3.15,1.08,6.54,3.85,8.32c1.34,0.86,3.36,1.45,4.95,1.38c-0.06,1.41-1.9,4.9-3.16,5.23c-3.53-0.38-6.76-1.99-9.97-3.44
					c-3.24-2.32-5.18-3.91-7.36-7.29c5.55,0.9,12.44-4.47,8.12-6.6c-0.02-0.01,0.06-0.22-0.07-0.28c-0.17-0.07-0.82,0-1.44-0.28
					c1.82,0.15,2.75-0.91,3.58-2.34c0.07-0.11,0.5-0.31,0.55-0.48c0.17-0.55,0.15-3.85,0-4.4c-0.03-0.12-0.27-0.05-0.28-0.07
					c-1.52-4.53-6.38-3.56-7.56-1.1c-0.66,0.07-0.7,1.33-0.28,1.72c-0.66,0.64-1.55-0.92-1.38,0.69c0.02,0.22,0.4,0.19,0.41,0.21
					c0.26,0.33,0.63,0.62,0.96,1.24c-0.03,0.31-0.01,0.37-0.28,0.55c-1.49-0.82-3.96,0.37-4.68,1.65c-0.81,0.28,0.42-0.27-1.65-1.1
					c0.3-1.64-0.67-4.44-0.28-5.98c0.12-0.48,2.4-3.05,2.75-3.58c0.07-0.11-0.93,0.26,1.1-1.99c7.57-7.11,13.64-8.08,21.18-12.24
					c0.42,1.68-1.88,2.24-1.93,2.41c0.74,1.45,2.24,2.99,2.34,3.16c0.33,0.55,0.23,1.15,0.28,1.24c0.14,0.29,1.01,0.2,0.28,0.55
					c1.3,1.16,0.82,2.61,1.65,3.85c0.11,1.51,0.9,5.52,0.14,5.5c0.86,0.54-0.68,0.31,0.14,1.1c-1.27,0.75,0.13,2.75-0.69,3.71
					c0.01,0.06,0.48,0.2,0.55,0.83C49.89,49.68,49.61,53.06,52.27,54.11z"/>
				<path class="st7" d="M31.43,33.61c0.8-0.03,2.6,0.5,2.96,1.31c0.71,1.58-1.16-0.32-4.88,0.89c-0.24,0.08-2.21,1.28-2.27,1.17
					C27.78,35.35,29.61,33.68,31.43,33.61z"/>
				<path class="st11" d="M44.36,50.26c0.82,1.05,2.34,1.14,3.3,0.28C47.45,51.85,44.19,51.93,44.36,50.26z"/>
				<path class="st20" d="M28.61,46.82c-0.33-0.62-0.71-0.9-0.96-1.24c-0.78-0.94,1.04-0.42,1.1-0.34
					C28.8,45.3,28.63,46.62,28.61,46.82z"/>
			</g>
			<g>
				<path class="st7" d="M53.5,55.9c-0.13,2.16-1.24,4.64-2.75,6.19c-0.07,0.07-0.33,0.2-0.41,0.28c-0.02-0.32,0.03-0.65,0-0.96
					c-0.34-4.04-6.35-3.75-8.12-0.83c-0.4,0.67-0.68,1.27-0.69,2.06c-2.77-1.78-3.87-5.18-3.85-8.32c0.07-0.16,0.25,0.18,0.41,0.07
					c4.49,3.19,10.12,2.41,14.85,0.14C54.15,53.95,53.19,54.17,53.5,55.9z"/>
				<path class="st0" d="M52.27,54.11c0.29,0.11,0.8-0.27,0.69,0.41c-4.73,2.27-10.36,3.05-14.85-0.14
					c0.05-0.03-0.57-0.39,0.89-0.28C43.37,54.88,47.87,54.51,52.27,54.11z"/>
				<g>
					<path class="st21" d="M50.34,61.4c0.03,0.32-0.02,0.64,0,0.96c-1.24,1.1-2.09,1.57-3.85,1.65c-1.59,0.07-3.61-0.51-4.95-1.38
						c0.01-0.79,0.29-1.4,0.69-2.06C44.7,59.94,48.63,59.15,50.34,61.4z"/>
					<path class="st22" d="M50.34,61.4c-1.71-2.25-5.64-1.46-8.12-0.83C43.99,57.65,50,57.35,50.34,61.4z"/>
				</g>
			</g>
			<g>
				<path class="st0" d="M62.86,43.79c0.07-0.02,0.39,0.03,0.83-0.28c0.16,0.38-0.01,0.48,0,0.69c-1.11,1.31-1.83,0.57-1.93,1.03
					c0.49,2.2,1.68,0.56,1.93-0.76c0.03,1.95-0.13,3.11-1.38,4.75c-1.7,2.25-3.26,2.5-5.78,2.54c0.89-0.1,0.89-0.1,1.79-0.21
					c-1.14-0.05-1.88-0.11-2.61-1.03c2.78,2.02,5.97,0.04,5.5-3.37c-0.28-2.08-3.15-4.46-5.91-1.31c-0.22,0.26-0.91,1.26-0.96,1.17
					c0.06-0.88-0.14-1.97,0.14-2.82c0.59-1.84,5.32-3.59,7.08,0.14C62,44.16,62.4,43.95,62.86,43.79z"/>
				<path class="st7" d="M62.86,43.79c-0.46,0.16-0.86,0.37-1.31,0.55c-1.77-3.73-6.49-1.98-7.08-0.14
					c-0.81,0.26-0.06-1.4,0.28-1.86C56.7,39.68,61.62,40.89,62.86,43.79z"/>
				<path class="st23" d="M63.68,44.48c-0.24,1.32-1.44,2.96-1.93,0.76c0.1-0.46,0.81,0.27,1.93-1.03
					C63.69,44.3,63.68,44.39,63.68,44.48z"/>
				<g>
					<path class="st7" d="M55.71,50.53c-1.06-1.34-1.35-3.21-0.41-4.68c2.76-3.16,5.63-0.77,5.91,1.31
						C61.67,50.57,58.49,52.55,55.71,50.53z"/>
					<path class="st24" d="M56.6,46.96c1.05-0.24,1.63,1.53,0.55,1.79C55.7,49.08,55.76,47.15,56.6,46.96z"/>
				</g>
			</g>
			<g>
				<path class="st25" d="M28.33,47.37c0.22,0.12,0.42,0.63,0.55,0.83c-5.87-0.03-4.47,6.38,0.07,7.56
					c2.46,0.64,5.84-1.33,4.61-3.99c0.23,0.01,0.34-0.02,0.55,0.14c4.32,2.13-2.57,7.5-8.12,6.6c-0.56-0.86-1.4-2.03-1.79-2.96
					c-0.01-0.01,0.2-0.12,0.14-0.28c-0.15-0.37-0.4-0.37-0.41-0.41c-0.56-1.6-1.12-4.34-0.28-5.85
					C24.38,47.74,26.84,46.55,28.33,47.37z"/>
				<path class="st4" d="M33.56,51.77c1.23,2.66-2.15,4.63-4.61,3.99c-4.54-1.18-5.94-7.59-0.07-7.56
					C29.77,49.51,29.87,51.55,33.56,51.77z"/>
			</g>
			<g>
				<path class="st0" d="M36.45,44.07c0,0.01,0.24-0.05,0.28,0.07c0.15,0.56,0.17,3.85,0,4.4c-0.05,0.17-0.48,0.37-0.55,0.48
					c1.15-6.15-7.1-5.93-6.33-0.34c0.26,1.86,1.6,2.17,2.75,2.68c0.62,0.28,1.27,0.2,1.44,0.28c0.13,0.05,0.05,0.27,0.07,0.28
					c-0.21-0.15-0.32-0.12-0.55-0.14c-3.69-0.22-3.79-2.26-4.68-3.58c-0.13-0.19-0.33-0.7-0.55-0.83c0.27-0.18,0.24-0.24,0.28-0.55
					c0.02-0.2,0.19-1.52,0.14-1.58c-0.06-0.07-1.88-0.59-1.1,0.34c-0.01-0.02-0.39,0.02-0.41-0.21c-0.17-1.61,0.71-0.05,1.38-0.69
					c-0.43-0.39-0.38-1.65,0.28-1.72c-0.11,0.23-0.42,0.98-0.41,1.03c0.13,2.15,1.13-1.53,3.64-1.86c1.14-0.15,2.41,0.28,3.3,0.96
					C35.88,43.46,36.81,45.14,36.45,44.07z"/>
				<path class="st7" d="M36.45,44.07c0.36,1.08-0.57-0.6-1.03-0.96c-0.89-0.69-2.16-1.11-3.3-0.96c-2.51,0.33-3.52,4.01-3.64,1.86
					c0-0.06,0.3-0.8,0.41-1.03C30.07,40.51,34.93,39.54,36.45,44.07z"/>
				<g>
					<path class="st23" d="M36.17,49.02c-0.83,1.42-1.76,2.48-3.58,2.34c-1.15-0.51-2.49-0.82-2.75-2.68
						C29.07,43.09,37.33,42.86,36.17,49.02z"/>
					<path class="st0" d="M31.15,47.23c0.89-0.2,1.16,1.13,0.55,1.38C30.62,49.05,30.38,47.41,31.15,47.23z"/>
				</g>
			</g>
		</g>
	</g>
</g>
</svg>
