<svg fill="none" height="49" viewBox="0 0 48 49" width="48" xmlns="http://www.w3.org/2000/svg"><path d="m44 24.5c0 11.0457-8.9543 20-20 20s-20-8.9543-20-20 8.9543-20 20-20 20 8.9543 20 20z" fill="#1575e5"/><path d="m28.8038 35.4998c4.2361-1.8526 7.1962-6.0805 7.1962-10.9998 0-6.6274-5.3726-12-12-12s-12 5.3726-12 12c0 4.9196 2.9604 9.1477 7.197 11.0002-2.6383 1.1538-4.7816 3.2289-6.0232 5.8187 3.1206 2.0129 6.8373 3.1811 10.827 3.1811 3.9896 0 7.7063-1.1682 10.8269-3.1811-1.2417-2.59-3.3853-4.6653-6.0239-5.8191z" fill="#a6cfff"/><g fill="#1575e5"><path d="m24 31.5c2.0706 0 3.8472-1.2586 4.6065-3.0525.4306-1.0172-.5019-1.9475-1.6065-1.9475h-6c-1.1046 0-2.0371.9303-1.6065 1.9475.7593 1.7939 2.5359 3.0525 4.6065 3.0525z"/><path d="m20 22c0 .8284-.6716 1.5-1.5 1.5s-1.5-.6716-1.5-1.5.6716-1.5 1.5-1.5 1.5.6716 1.5 1.5z"/><path d="m31 22c0 .8284-.6716 1.5-1.5 1.5s-1.5-.6716-1.5-1.5.6716-1.5 1.5-1.5 1.5.6716 1.5 1.5z"/></g></svg>