<svg width="462" height="410" viewBox="0 0 462 410" fill="none" xmlns="http://www.w3.org/2000/svg">
<path d="M320 3.99982C321.225 4.24128 321.225 4.24128 322.475 4.48762C352.205 10.5678 380.421 24.9029 402.539 45.6912C404.725 47.742 406.961 49.691 409.25 51.6248C413.238 55.1122 416.655 58.8975 420 62.9998C421.125 64.3688 421.125 64.3688 422.273 65.7654C441.092 89.3921 453.208 116.411 459 146C459.227 147.154 459.454 148.307 459.687 149.496C462.949 170.176 462.594 193.573 458 214C457.807 214.867 457.613 215.734 457.414 216.627C453.282 234.49 446.425 260.575 433 274C433.503 280.655 435.17 286.872 436.941 293.289C437.531 295.469 438.12 297.648 438.709 299.828C439.637 303.236 440.568 306.644 441.501 310.052C442.404 313.358 443.298 316.667 444.191 319.976C444.473 320.992 444.754 322.008 445.043 323.054C447.63 332.662 447.63 332.662 447 337C445.726 338.664 445.726 338.664 444 340C436.948 339.776 430.41 337.926 423.648 336.023C421.477 335.429 419.305 334.835 417.133 334.242C413.743 333.308 410.355 332.369 406.969 331.424C403.678 330.508 400.382 329.608 397.086 328.711C396.078 328.424 395.071 328.138 394.033 327.843C387.675 326.125 382.755 325.163 376.621 328.164C375.54 328.887 375.54 328.887 374.437 329.625C357.226 340.453 338.737 346.79 318.926 350.957C317.671 351.228 317.671 351.228 316.391 351.504C314.87 351.819 313.342 352.107 311.808 352.355C305.936 353.454 303.307 356.109 299.5 360.375C271.666 389.651 229.016 407.574 188.73 409.126C149.977 409.973 115.432 402.106 81.9999 382C81.6699 381.67 81.3399 381.34 80.9999 381C73.993 381.46 67.5696 383.031 60.8319 384.941C59.2743 385.372 59.2743 385.372 57.6851 385.811C53.2758 387.031 48.8709 388.266 44.466 389.501C41.2355 390.404 38.0026 391.298 34.7694 392.191C33.7787 392.472 32.788 392.754 31.7672 393.043C22.3837 395.633 22.3837 395.633 17.9999 395C16.3347 393.757 16.3347 393.757 14.9999 392C14.3956 384.913 17.0261 377.44 18.9413 370.699C19.2284 369.66 19.5156 368.62 19.8114 367.549C20.7207 364.26 21.6405 360.973 22.5624 357.687C23.4873 354.383 24.4096 351.079 25.3241 347.772C25.891 345.722 26.4639 343.674 27.0435 341.628C27.429 340.236 27.4291 340.236 27.8224 338.815C28.0503 338.004 28.2783 337.192 28.5131 336.356C29.3788 332.166 29.4513 329.081 27.0937 325.461C26.6834 324.808 26.2732 324.155 25.8505 323.483C25.182 322.439 25.182 322.439 24.4999 321.375C1.67242 284.047 -5.2572 235.934 4.60196 193.403C12.9203 159.6 29.0367 130.339 53.9999 106C54.5735 105.381 55.1472 104.762 55.7382 104.125C78.055 80.5892 111.729 63.5792 143.828 58.9493C151.714 57.8042 156.709 56.2217 162 49.9998C201.174 8.48102 265.217 -7.02021 320 3.99982ZM183 46.9998C182.025 47.7604 181.051 48.5209 180.047 49.3045C176.476 52.095 176.476 52.095 173 54.9998C173 55.3298 173 55.6598 173 55.9998C173.738 56.0395 174.476 56.0791 175.237 56.1199C206.063 57.8499 234.711 62.8153 262 77.9998C263.039 78.5631 264.078 79.1265 265.148 79.7069C277.869 86.8349 289.071 95.4345 299.52 105.567C300.896 106.899 302.289 108.214 303.684 109.527C335.493 140.146 352.501 185.423 353.356 229.053C353.561 266.275 343.733 305.248 320.434 334.996C318.806 336.86 318.806 336.86 319 339C337.482 335.708 364.315 327.685 378 314C384.178 313.519 389.499 314.969 395.422 316.625C396.404 316.891 397.385 317.158 398.397 317.432C401.517 318.28 404.634 319.139 407.75 320C410.881 320.859 414.013 321.715 417.146 322.568C419.091 323.098 421.036 323.632 422.979 324.17C423.857 324.41 424.735 324.651 425.64 324.898C426.411 325.111 427.183 325.325 427.978 325.544C430.142 326.11 430.142 326.11 433 326C431.375 314.978 428.175 304.358 425.163 293.656C424.474 291.204 423.795 288.748 423.117 286.293C422.798 285.177 422.798 285.177 422.473 284.039C421.145 279.208 419.915 274.64 421.899 269.813C422.315 269.143 422.731 268.474 423.16 267.785C423.621 267.024 424.081 266.264 424.556 265.48C425.053 264.682 425.55 263.884 426.062 263.062C447.87 226.622 456.136 183.012 446.366 141.291C438.6 110.443 424.279 83.7459 402 60.9998C401.242 60.1916 400.484 59.3833 399.703 58.5506C372.203 29.7956 330.452 13.0321 290.984 11.7967C251.925 11.2135 213.66 22.2764 183 46.9998ZM76.9999 101C76.1362 101.661 75.2726 102.322 74.3827 103.004C39.8308 130.195 18.3442 169.987 12.683 213.432C8.71642 249.504 16.035 293.695 38.9999 323C41.5409 326.811 41.3321 328.445 40.9999 333C40.2873 336.521 39.3419 339.963 38.3749 343.422C38.1086 344.403 37.8422 345.385 37.5678 346.397C36.7201 349.517 35.8607 352.633 34.9999 355.75C34.1409 358.881 33.2843 362.013 32.432 365.146C31.9022 367.091 31.3681 369.035 30.8295 370.979C30.4691 372.296 30.4691 372.296 30.1015 373.639C29.8883 374.411 29.6751 375.183 29.4555 375.978C28.89 378.142 28.89 378.142 28.9999 381C35.4429 379.848 41.7284 378.321 48.0429 376.617C49.2693 376.287 49.2693 376.287 50.5204 375.95C53.9438 375.027 57.3662 374.1 60.7858 373.162C63.3069 372.473 65.8309 371.794 68.3554 371.117C69.5009 370.798 69.5009 370.798 70.6696 370.473C76.4425 368.937 81.6536 367.742 87.1483 370.687C88.2131 371.45 89.2779 372.214 90.3749 373C123.768 395.761 168.058 402.937 207.431 395.543C251.919 386.673 290.219 361.538 315.565 323.843C340.197 286.145 348.367 241.164 339.414 197.117C329.559 153.437 302.766 115.865 265 91.9998C207.734 56.0227 130.413 58.7215 76.9999 101Z" fill="url(#paint0_linear_75_212)"/>
<path d="M193.75 212.098C198.868 215.872 201.05 221.151 203 227C203.907 236.076 202.188 243.027 196.687 250.313C191.194 255.806 185.469 258.118 177.75 258.25C169.861 258.145 164.361 256.023 158.539 250.68C152.84 244.461 151.68 237.978 151.789 229.813C152.341 222.456 155.601 216.947 161 212C171.482 204.513 183.173 205.463 193.75 212.098ZM165.562 223.508C162.807 227.622 162.619 231.112 163.469 235.926C164.426 239.663 165.518 241.932 168.695 244.223C172.834 246.617 176.302 247.659 181.043 246.742C185.647 244.996 188.907 241.731 191.5 237.625C192.388 232.96 192.266 229.051 189.766 225C186.257 220.659 183.259 218.529 177.687 217.625C172.997 218.28 168.867 220.042 165.562 223.508Z" fill="url(#paint1_linear_75_212)"/>
<path d="M116.637 209.531C122.374 213.097 127.041 218.497 129 225C129.77 232.998 130.335 241.469 125 248C118.986 254.431 113.076 258.075 104.125 258.437C96.4903 258.209 90.9125 255.983 85.1875 250.937C80.584 245.905 78.2138 239.928 77.8438 233.129C78.3044 224.825 80.7059 218.856 86.8125 213.187C95.8875 205.881 105.992 204.777 116.637 209.531ZM92.6875 223.562C89.5944 228.03 89.3419 231.645 90 237C92.0014 240.86 94.0945 243.994 98 246C102.573 247.228 106.514 247.661 110.812 245.437C114.194 243.125 116.233 240.747 118 237C118.812 232.338 118.461 228.977 116.438 224.687C112.817 220.696 109.423 218.346 103.938 217.562C99.0594 218.289 95.9933 219.899 92.6875 223.562Z" fill="url(#paint2_linear_75_212)"/>
<path d="M263.707 209.672C269.954 213.29 273.852 218.08 276 225C277.663 232.6 276.965 239.289 273.312 246.188C268.272 252.318 262.635 257.297 254.465 258.317C246.772 258.652 240.121 257.135 233.926 252.422C227.979 246.887 225.507 240.656 224.945 232.613C225.102 225.105 227.724 219.139 232.926 213.762C242.22 205.868 252.642 204.676 263.707 209.672ZM242 221C237.799 225.655 236.646 228.53 236.715 234.68C237.254 239.065 239.784 241.694 242.688 244.813C246.333 246.684 249.923 247.114 254 247C259.373 245.175 262.474 242.052 265 237C265.574 232.293 265.456 228.879 263.25 224.625C259.196 219.895 256.451 218.427 250.246 217.938C246.83 218.033 244.78 219.061 242 221Z" fill="url(#paint3_linear_75_212)"/>
<path d="M340 33C346.64 33.4311 351.322 35.2571 357.125 38.4375C357.952 38.8834 358.78 39.3294 359.633 39.7888C370.312 45.6657 379.854 52.5916 388.769 60.9258C390.812 62.8248 392.914 64.5984 395.062 66.375C400.027 70.6963 403.97 75.8229 408 81C408.566 81.6768 409.132 82.3535 409.715 83.0508C412.035 85.9497 413 87.5464 413 91.3125C412 94 412 94 409 96C406.094 95.9805 406.094 95.9805 403 95C400.719 92.5508 400.719 92.5508 398.5 89.3125C384.836 70.402 367.172 57.3459 346.165 47.5388C345.122 47.0336 344.079 46.5284 343.004 46.0078C341.593 45.3526 341.593 45.3526 340.154 44.6841C338 43 338 43 337.097 39.9604C337 37 337 37 338.437 34.625C339.211 33.8206 339.211 33.8206 340 33Z" fill="url(#paint4_linear_75_212)"/>
<path d="M259 355C260.875 356.062 260.875 356.062 262 358C262.008 361.34 262.008 361.34 261 365C258.598 366.927 256.701 368.155 254 369.5C253.283 369.877 252.566 370.253 251.827 370.642C235.5 379.042 216.384 387.045 197.75 387.187C196.899 387.202 196.048 387.216 195.172 387.23C193 387 193 387 191 385C190.439 379.728 190.439 379.728 192.258 377.366C194.308 375.758 195.619 375.452 198.183 375.078C199.436 374.877 199.436 374.877 200.713 374.671C201.612 374.532 202.511 374.393 203.437 374.25C219.425 371.454 233.724 366.25 247.823 358.201C254.773 354.286 254.773 354.286 259 355Z" fill="url(#paint5_linear_75_212)"/>
<path d="M292.438 21.0623C293.355 21.1147 294.273 21.167 295.219 21.221C302.057 21.6897 308.763 22.6228 315.5 23.8748C316.816 24.1166 316.816 24.1166 318.158 24.3633C322.579 25.2546 326.402 26.1126 330 28.9998C330.5 31.9998 330.5 31.9998 330 34.9998C328.695 36.6951 328.695 36.6951 327 37.9998C322.63 37.8491 318.555 37.1053 314.262 36.2889C312.862 36.0248 311.462 35.7618 310.062 35.4998C309.343 35.3636 308.624 35.2275 307.884 35.0872C301.565 33.9567 295.303 33.5592 288.889 33.4666C285.693 33.3769 283.356 33.1929 280.52 31.656C279 29.9998 279 29.9998 278.5 26.9998C279 23.9998 279 23.9998 280.441 22.3084C284.404 20.2816 288.071 20.7786 292.438 21.0623Z" fill="url(#paint6_linear_75_212)"/>
<path d="M284.75 333.063C287 334 287 334 289 336C289.449 338.774 289.449 338.774 289 342C287.311 344.16 285.81 345.81 283.813 347.625C283.33 348.089 282.847 348.553 282.35 349.031C273.192 357.734 273.192 357.734 268 358C265.75 357.375 265.75 357.375 264 356C263.027 353.359 262.722 351.79 263.664 349.114C265.446 346.295 267.635 344.624 270.25 342.563C273.392 340.081 276.451 337.608 279.375 334.875C282 333 282 333 284.75 333.063Z" fill="url(#paint7_linear_75_212)"/>
<defs>
<linearGradient id="paint0_linear_75_212" x1="231.038" y1="0.561035" x2="231.038" y2="409.187" gradientUnits="userSpaceOnUse">
<stop stop-color="#D94F5B"/>
<stop offset="1" stop-color="#3C0005"/>
</linearGradient>
<linearGradient id="paint1_linear_75_212" x1="177.506" y1="206.746" x2="177.506" y2="258.25" gradientUnits="userSpaceOnUse">
<stop stop-color="#D94F5B"/>
<stop offset="1" stop-color="#3C0005"/>
</linearGradient>
<linearGradient id="paint2_linear_75_212" x1="103.667" y1="206.66" x2="103.667" y2="258.437" gradientUnits="userSpaceOnUse">
<stop stop-color="#D94F5B"/>
<stop offset="1" stop-color="#3C0005"/>
</linearGradient>
<linearGradient id="paint3_linear_75_212" x1="250.9" y1="206.68" x2="250.9" y2="258.361" gradientUnits="userSpaceOnUse">
<stop stop-color="#D94F5B"/>
<stop offset="1" stop-color="#3C0005"/>
</linearGradient>
<linearGradient id="paint4_linear_75_212" x1="375.031" y1="33" x2="375.031" y2="96" gradientUnits="userSpaceOnUse">
<stop stop-color="#D94F5B"/>
<stop offset="1" stop-color="#3C0005"/>
</linearGradient>
<linearGradient id="paint5_linear_75_212" x1="226.336" y1="354.637" x2="226.336" y2="387.23" gradientUnits="userSpaceOnUse">
<stop stop-color="#D94F5B"/>
<stop offset="1" stop-color="#3C0005"/>
</linearGradient>
<linearGradient id="paint6_linear_75_212" x1="304.438" y1="20.7944" x2="304.438" y2="37.9998" gradientUnits="userSpaceOnUse">
<stop stop-color="#D94F5B"/>
<stop offset="1" stop-color="#3C0005"/>
</linearGradient>
<linearGradient id="paint7_linear_75_212" x1="276.216" y1="333.045" x2="276.216" y2="358" gradientUnits="userSpaceOnUse">
<stop stop-color="#D94F5B"/>
<stop offset="1" stop-color="#3C0005"/>
</linearGradient>
</defs>
</svg>
