<?xml version="1.0" encoding="UTF-8"?>
<svg width="752pt" height="752pt" version="1.1" viewBox="0 0 752 752" xmlns="http://www.w3.org/2000/svg">
 <g fill="#526c69">
  <path d="m548.04 294.61h-9.25v-14.801h29.602c1.9609 0 3.8438-0.77734 5.2305-2.168 1.3906-1.3867 2.168-3.2695 2.168-5.2305v-1.8516c-0.011719-9.3164-3.7148-18.25-10.305-24.84-6.5898-6.5898-15.523-10.297-24.844-10.309h-19.48c-4.0234-15.281-11.312-29.512-21.359-41.711l-11.414 9.4258c0.73047 0.88281 1.4414 1.7773 2.1367 2.6875h-228.98c17.863-23.27 45.512-36.938 74.848-37h79.207c21.594 0.023437 42.531 7.4336 59.336 20.996l9.3086-11.504c-19.438-15.691-43.66-24.262-68.645-24.289h-79.207c-24.117 0-47.551 7.9844-66.648 22.711-19.098 14.727-32.781 35.363-38.91 58.684h-19.48c-9.3203 0.011719-18.254 3.7188-24.844 10.309s-10.297 15.523-10.305 24.84v1.8516c0 1.9609 0.77734 3.8438 2.1641 5.2305 1.3906 1.3906 3.2734 2.168 5.2344 2.168h29.598v14.801h-9.25c-9.3164 0.011719-18.25 3.7148-24.84 10.305-6.5898 6.5898-10.297 15.523-10.309 24.844v1.8516l14.801-0.003907v-1.8516 0.003906c0.003906-5.3945 2.1523-10.566 5.9648-14.383 3.8164-3.8164 8.9883-5.9609 14.383-5.9688h9.25v59.199h-9.25c-5.3945-0.007812-10.566-2.1523-14.383-5.9648-3.8125-3.8164-5.9609-8.9883-5.9648-14.383v-1.8516h-14.801v1.8516c0.011718 9.3164 3.7188 18.25 10.309 24.84 6.5898 6.5898 15.523 10.297 24.84 10.309h10.23c3.2461 17.945 14.102 33.605 29.766 42.941-9.9414 6.4883-15.941 17.555-15.945 29.43v7.2812c-4.707 4.2109-7.3984 10.227-7.3984 16.543s2.6914 12.332 7.3984 16.543v42.652c0.011719 11.773 4.6953 23.059 13.02 31.383 8.3203 8.3203 19.605 13.004 31.379 13.016v7.4023c0 1.9609 0.77734 3.8438 2.168 5.2305 1.3867 1.3867 3.2695 2.168 5.2305 2.168h155.39v-14.801h-148v-103.59c0-1.1484-0.26562-2.2812-0.78125-3.3086l-7.3984-14.801-13.238 6.6172 6.6211 13.238v5.6523h-31.961c-0.40625-0.375-0.85156-0.70703-1.332-0.98438-2.293-1.3242-3.707-3.7695-3.707-6.4141 0-2.6484 1.4141-5.0938 3.707-6.4141 2.2852-1.3242 3.6953-3.7656 3.6953-6.4062v-11.004c-0.003906-5.418 2.1328-10.621 5.9414-14.473 3.8125-3.8516 8.9883-6.043 14.406-6.1016h24.051v14.801h-0.003906c0.011719 8.1016 2.6758 15.977 7.5859 22.418 4.9102 6.4453 11.797 11.102 19.605 13.258l2.2031 8.8203-14.422 64.891 0.003907 0.003906c-0.48438 2.1875 0.046874 4.4844 1.4531 6.2344 1.4023 1.75 3.5273 2.7695 5.7695 2.7695h51.801c2.1055 0 4.1094-0.89844 5.5117-2.4648 1.4062-1.5703 2.0742-3.6602 1.8398-5.7539l-1.5508-13.98h17.996l-1.5547 13.98c-0.23047 2.0938 0.4375 4.1836 1.8398 5.7539 1.4062 1.5664 3.4102 2.4648 5.5156 2.4648h51.797c2.2461 0 4.3672-1.0195 5.7734-2.7695s1.9375-4.0469 1.4531-6.2344l-14.422-64.891 2.2031-8.8203 0.003906-0.003907c7.8047-2.1562 14.691-6.8125 19.605-13.258 4.9102-6.4414 7.5742-14.316 7.582-22.418v-14.801h24.051c5.418 0.058593 10.594 2.25 14.406 6.1016 3.8086 3.8516 5.9453 9.0547 5.9414 14.473v11.004c0 2.6406 1.4102 5.082 3.6953 6.4062 2.293 1.3203 3.707 3.7656 3.707 6.4141 0 2.6445-1.4141 5.0898-3.707 6.4141-0.48047 0.27734-0.92578 0.60938-1.332 0.98438h-31.961v-5.6523l6.6172-13.238-13.238-6.6172-7.3984 14.801c-0.51172 1.0273-0.78125 2.1602-0.78125 3.3086v103.59h-14.797v14.801h22.199c1.9609 0 3.8438-0.78125 5.2305-2.168 1.3867-1.3867 2.168-3.2695 2.168-5.2305v-7.4023c11.77-0.011718 23.055-4.6953 31.379-13.016 8.3242-8.3242 13.004-19.609 13.02-31.383v-42.652c4.707-4.2109 7.3984-10.227 7.3984-16.543s-2.6914-12.332-7.3984-16.543v-7.2812c-0.003906-11.875-6.0039-22.941-15.949-29.43 15.664-9.3359 26.52-24.996 29.766-42.941h10.23c9.3203-0.011719 18.254-3.7188 24.844-10.309 6.5898-6.5898 10.297-15.523 10.305-24.84v-18.5c-0.007812-9.3203-3.7148-18.254-10.305-24.844-6.5898-6.5898-15.523-10.293-24.844-10.305zm-275.64 273.79c-7.8477-0.007812-15.371-3.1328-20.922-8.6797-5.5469-5.5508-8.668-13.074-8.6758-20.922v-36.996h29.598zm207.19 0v-66.598h29.598v37-0.003906c-0.007812 7.8477-3.1289 15.371-8.6797 20.922-5.5469 5.5469-13.07 8.6719-20.918 8.6797zm-48.734-288.59h23.699c-3.1445 5-5.7812 10.301-7.8711 15.828zm-178.66-59.199h247.6l0.003906 0.003906c2.3984 4.7539 4.3945 9.707 5.9648 14.797h-259.55c1.5703-5.0938 3.5703-10.047 5.9844-14.797zm-40.848 29.602h329.29c4.4297 0.003907 8.7344 1.4531 12.266 4.1211 3.5352 2.6719 6.1016 6.418 7.3164 10.68h-368.45c1.2148-4.2617 3.7812-8.0078 7.3125-10.68 3.5352-2.668 7.8398-4.1172 12.27-4.1211zm304.24 29.598-17.703 21.246c-0.62109-1.9805-1.3164-4.0703-2.0898-6.1992h-0.003907c-1.8281-5.207-4.1172-10.242-6.8359-15.047zm-127.16 0c-2.4375 10.832-3.9766 21.84-4.6094 32.922-17.035-9.332-30.066-23.223-37.812-32.922zm-74.699 0-15.824 15.824v0.003906c-2.0898-5.5273-4.7305-10.828-7.875-15.828zm-50.699 0c-2.7188 4.8047-5.0078 9.8398-6.8359 15.047-0.77344 2.1289-1.4727 4.2188-2.0898 6.1992l-17.707-21.246zm63.242 192.39h25.445l-3.6992 14.801h-18.047zm-7.6523 81.398 11.512-51.797h17.039l5.7539 51.797zm46.73-22.199-1.6445-14.801h24.574l-1.6445 14.801zm34.918-59.199h25.445l-3.6992 14.801h-18.047zm-1.2109 81.398 5.7539-51.797h17.039l11.512 51.797zm50.934-103.59c0 6.4336-2.7969 12.555-7.6641 16.762l0.042968-0.17188v0.003906c0.55078-2.2109 0.054688-4.5547-1.3477-6.3516-1.4023-1.793-3.5547-2.8438-5.832-2.8438h-44.398c-2.2773 0-4.4297 1.0508-5.832 2.8438-1.4023 1.7969-1.8984 4.1406-1.3477 6.3516l7.0781 28.309-0.76562 6.8945h-27.863l-0.76562-6.8945 7.0781-28.309h-0.003906c0.55469-2.2109 0.058594-4.5547-1.3438-6.3516-1.4023-1.793-3.5547-2.8438-5.832-2.8438h-44.398c-2.2812 0-4.4297 1.0508-5.832 2.8438-1.4023 1.7969-1.8984 4.1406-1.3477 6.3516l0.042969 0.17188v-0.003906c-4.8672-4.207-7.6641-10.328-7.6641-16.762v-14.801h148zm25.898-29.598-199.79-0.003906c-12.754-0.011719-24.977-5.0859-33.996-14.102-9.0156-9.0195-14.086-21.242-14.102-33.996v-79.457l23.914 28.695v0.003907c1.8242 2.1875 4.7422 3.1328 7.5039 2.4336 2.7656-0.70312 4.8789-2.9258 5.4375-5.7227 1.3359-6.2266 3.0898-12.355 5.2461-18.344 1.6523-4.7891 3.793-9.3945 6.3867-13.742 5.1367 7.3125 9.1562 17.988 10.93 25.031 0.375 1.4961 1.2031 2.8359 2.3789 3.8359-10.82 6.7578-17.395 18.613-17.398 31.367h14.801-0.003906c0-7.9297 4.2344-15.258 11.102-19.227 6.8672-3.9648 15.332-3.9648 22.199 0 6.8672 3.9688 11.098 11.297 11.098 19.227h14.801c-0.003906-10.617-4.5664-20.719-12.531-27.742-7.9609-7.0234-18.555-10.289-29.09-8.9688l25.73-25.73c8.9453 12.223 28.941 35.672 57.543 47.109l-0.003907 0.003907c2.2812 0.91016 4.8633 0.63281 6.8984-0.74219 2.0352-1.3789 3.25-3.6719 3.25-6.1289 0-0.26172 0.066406-24.332 5.5-44.398h6.2344l29.715 29.715c-9.2656 0.75391-17.914 4.9648-24.223 11.797-6.3047 6.832-9.8125 15.789-9.8242 25.086h14.801-0.003906c0-7.9297 4.2305-15.258 11.102-19.227 6.8672-3.9648 15.328-3.9648 22.199 0 6.8672 3.9688 11.098 11.297 11.098 19.227h14.801c-0.007812-7.3008-2.1719-14.441-6.2227-20.516-4.0508-6.0781-9.8086-10.82-16.547-13.637 0.14062-0.33984 0.25781-0.6875 0.34766-1.0469 2.2109-8.7734 7.8945-23.164 14.883-29.699 6.7109 7.0977 12.664 24.719 15.082 36.75 0.55859 2.7969 2.6719 5.0195 5.4336 5.7227 2.7617 0.69922 5.6836-0.24609 7.5078-2.4336l23.914-28.699v79.457c-0.015625 12.754-5.0859 24.977-14.105 33.996-9.0156 9.0156-21.242 14.09-33.992 14.102zm92.496-72.148c-0.007812 5.3945-2.1523 10.566-5.9688 14.383-3.8125 3.8125-8.9844 5.957-14.383 5.9648h-9.25v-59.199h9.25c5.3984 0.007812 10.57 2.1523 14.383 5.9688 3.8164 3.8164 5.9609 8.9883 5.9688 14.383z"/>
  <path d="m376 383.4c-3.9219-0.003906-7.6836-1.5664-10.457-4.3398-2.7773-2.7773-4.3359-6.5391-4.3398-10.461h-14.801c0 10.574 5.6406 20.348 14.801 25.633 9.1562 5.2891 20.441 5.2891 29.598 0 9.1562-5.2852 14.801-15.059 14.801-25.633h-14.801c-0.003906 3.9219-1.5664 7.6836-4.3398 10.461-2.7734 2.7734-6.5352 4.3359-10.461 4.3398z"/>
 </g>
</svg>
