<svg xmlns="http://www.w3.org/2000/svg"  viewBox="0 0 120 120" width="60px" height="60px" baseProfile="basic"><path d="M105.978,64.395c-3.4-19.437-9.471-44.197-34.071-45.722c-5.093-0.316-5.326-4.61-11.907-4.61 c-33.111,0-41.735,26.073-45.978,50.332C10.545,84.271,2,84.999,2,84.999s9,22,58,22s58-22,58-22S109.455,84.271,105.978,64.395z" opacity=".35"/><path fill="#9c4000" d="M105.978,60.395c-3.4-19.437-9.471-44.197-34.071-45.722c-5.093-0.316-5.326-4.61-11.907-4.61 c-33.111,0-41.735,26.073-45.978,50.332C10.545,80.271,2,80.999,2,80.999s9,22,58,22s58-22,58-22S109.455,80.271,105.978,60.395z"/><path d="M95.032,62.004L93,62.001V36.999H27v25.008l-1.989,0.016c-4.967,0-8.993,4.027-8.993,8.994 s4.027,8.993,8.993,8.993L27,80.002v1.996c0,18.225,14.775,33,33,33l0,0c18.225,0,33-14.775,33-33v-1.992h2.032 c4.971,0,9.001-4.03,9.001-9.001v0C104.033,66.034,100.003,62.004,95.032,62.004z" opacity=".35"/><path fill="#ffc1bf" d="M60,110.999L60,110.999c-18.225,0-33-14.775-33-33v-45h66v45C93,96.224,78.225,110.999,60,110.999z"/><path fill="#9c4000" d="M63,16.999c-0.094,1.097,0,12.878,0,14c0,0,22.523,9.61,30,27c2.807,0,5.622,0.531,8.194,0.531 c1.858,0,2.382-16.965-6.114-28.338C88.473,21.345,74.644,17.711,63,16.999z"/><path fill="#ffc1bf" d="M25.011,76.01L28,75.999v-18l-2.989,0.024c-4.967,0-8.993,4.026-8.993,8.993v0 C16.018,71.983,20.044,76.01,25.011,76.01z"/><path fill="#ffc1bf" d="M95.032,76.007h-2.077L92,75.999v-18l3.032,0.006c4.971,0,9.001,4.03,9.001,9.001v0 C104.033,71.977,100.003,76.007,95.032,76.007z"/><path d="M28,57.999c0,0,49.99,6.167,47.99-42.833c-20,0-32.39,17.833-32.39,17.833L28,57.999" opacity=".35"/><path fill="#9c4000" d="M58.1,10.014c-39.354,0-38.116,47.984-31.1,47.984c15.2,0,45.931-9.534,48.99-42.833 C69.99,11.166,64.446,10.014,58.1,10.014z"/></svg>