<svg fill="none" height="49" viewBox="0 0 48 49" width="48" xmlns="http://www.w3.org/2000/svg"><path d="m44 24.5c0 11.0457-8.9543 20-20 20s-20-8.9543-20-20 8.9543-20 20-20 20 8.9543 20 20z" fill="#1575e5"/><path d="m24 8c.5523 0 1 .44772 1 1v3.5411c6.1595.5081 11 5.6682 11 11.9589 0 4.9193-2.9601 9.1472-7.1962 10.9998 2.6386 1.1538 4.7822 3.2291 6.0239 5.8191-3.1206 2.0129-6.8373 3.1811-10.8269 3.1811-3.9897 0-7.7064-1.1682-10.827-3.1811 1.2416-2.5898 3.3849-4.6649 6.0232-5.8187-4.2366-1.8525-7.197-6.0806-7.197-11.0002 0-6.2907 4.8405-11.4508 11-11.9589v-3.5411c0-.55228.4477-1 1-1z" fill="#a6cfff"/><g fill="#1575e5"><path clip-rule="evenodd" d="m21 27.5c.5523 0 1 .4477 1 1 0 1.1046.8954 2 2 2s2-.8954 2-2c0-.5523.4477-1 1-1s1 .4477 1 1c0 2.2091-1.7909 4-4 4s-4-1.7909-4-4c0-.5523.4477-1 1-1z" fill-rule="evenodd"/><path d="m17 22.5c0-1.0024.7735-1.832 1.7748-1.8786 1.2606-.0588 3.102-.1214 5.2252-.1214s3.9646.0626 5.2252.1214c1.0013.0466 1.7748.8762 1.7748 1.8786s-.7735 1.832-1.7748 1.8786c-1.2606.0588-3.102.1214-5.2252.1214s-3.9646-.0626-5.2252-.1214c-1.0013-.0466-1.7748-.8762-1.7748-1.8786z"/></g></svg>