<svg xmlns="http://www.w3.org/2000/svg" viewBox="0 0 64 64" aria-labelledby="title"
aria-describedby="desc" role="img" xmlns:xlink="http://www.w3.org/1999/xlink">
  <title>Women</title>
  <desc>A color styled icon from Orion Icon Library.</desc>
  <path data-name="layer1"
  d="M49 17c0 17.2 2.9 18.9 7 23a70.8 70.8 0 0 1-16 2v2c0 2 0 6 10 8s10 10 10 10H4s0-8 10.2-10 9.8-6 9.8-8v-2a71 71 0 0 1-16-2c4.1-4.1 8-5.8 8-23 0 0 0-14 12-14 0 0 21-6.5 21 14z"
  fill="#ff7e63"></path>
  <path data-name="opacity" d="M24 42v2c0 1.5.2 3.9-3.6 6 9.9-2 9.6-6 9.6-7.9-2.1 0-9.2-2.3-16-4 4.1-4.1 8-5.8 8-23 0 0 0-8.1 5.3-12C16 3.5 16 17 16 17c0 17.2-3.9 18.9-8 23a71 71 0 0 0 16 2zM10 60a10.2 10.2 0 0 1 5.4-8.3l-1.2.3C4 54 4 62 4 62h56a8.2 8.2 0 0 0-.3-2z"
  fill="#000064" opacity=".15"></path>
  <path data-name="stroke" d="M49 17c0 17.2 2.9 18.9 7 23a70.8 70.8 0 0 1-16 2v2c0 2 0 6 10 8s10 10 10 10H4s0-8 10.2-10 9.8-6 9.8-8v-2a71 71 0 0 1-16-2c4.1-4.1 8-5.8 8-23 0 0 0-14 12-14 0 0 21-6.5 21 14z"
  fill="none" stroke="#2e4369" stroke-linecap="round" stroke-linejoin="round"
  stroke-width="2"></path>
</svg>