<?xml version="1.0" encoding="UTF-8"?>
<svg xmlns="http://www.w3.org/2000/svg" viewBox="0 0 370.65 812.85">
  <defs>
    <style>
      .b {
        fill: #586e38;
      }

      .c {
        mix-blend-mode: multiply;
        opacity: .3;
      }

      .c, .d {
        fill: #718b55;
      }

      .e {
        isolation: isolate;
      }

      .f {
        fill: #c2ab88;
      }

      .g {
        fill: #dccaab;
      }

      .h {
        fill: #997e55;
      }

      .i {
        fill: #6e4a40;
      }

      .j {
        fill: #432721;
      }
    </style>
  </defs>
  <g class="e">
    <g id="a" data-name="Lager 1">
      <g>
        <path class="g" d="m173.12,579.58c-72.57,0-95.89,4.38-96.43,9.28-.55,4.91,1.09,66.02-12.55,78.57-13.64,12.55-24.01,13.64-22.92,24.01,1.09,10.37,18.55,33.28,30.56,70.39,8.11,25.05,17.12,37.69,21.28,41.47,6,5.45,35.27,9,80.48,9.55,45.21-.55,73.67-4.1,79.66-9.55,4.16-3.78,13.17-16.41,21.28-41.47,12-37.1,29.46-60.02,30.56-70.39,1.09-10.37-9.28-11.46-22.92-24.01-13.64-12.55-12-73.66-12.55-78.57-.54-4.9-23.86-9.28-96.46-9.28Z"/>
        <path class="h" d="m253.21,803.3c4.16-3.78,13.17-16.41,21.28-41.47,12-37.1,29.46-60.02,30.56-70.39.19-1.76.02-3.24-.42-4.57-12.54,3.23-66.64,5.66-131.49,5.66s-118.95-2.43-131.49-5.66c-.44,1.33-.61,2.81-.42,4.57,1.09,10.37,18.55,33.28,30.56,70.39,8.11,25.05,17.12,37.69,21.28,41.47,6,5.45,35.27,9,80.48,9.55,45.21-.55,73.67-4.1,79.66-9.55Z"/>
        <path class="g" d="m82.22,589.93c-.2,0-.41-.02-.62-.06-1.77-.34-2.94-2.05-2.6-3.83.14-1.07-1.07-5.15-1.96-8.13-2.76-9.26-6.53-21.95-1.6-30.66,2.21-3.89,5.87-6.52,10.9-7.8,10.36-2.64,21.95-.06,32.62,7.28,12.09,8.32,20.48,21.14,21.9,33.47.21,1.8-1.08,3.42-2.87,3.63-1.78.21-3.42-1.08-3.63-2.87-1.2-10.35-8.7-21.66-19.11-28.83-8.96-6.16-18.91-8.48-27.29-6.33-3.28.84-5.51,2.37-6.82,4.69-3.56,6.29-.25,17.43,2.17,25.56,1.7,5.73,2.57,8.83,2.12,11.23-.3,1.57-1.67,2.66-3.21,2.66Z"/>
        <path class="f" d="m262.35,587.9c0,3.09-39.94,5.59-89.21,5.59s-89.21-2.5-89.21-5.59,39.94-5.59,89.21-5.59,89.21,2.5,89.21,5.59Z"/>
        <path class="j" d="m173.36,585.92c-39.31,0-72.66,1.59-84.55,3.81,12.08,2.19,45.26,3.77,84.32,3.77s72.66-1.59,84.55-3.81c-12.08-2.19-45.26-3.77-84.32-3.77Z"/>
        <g>
          <g>
            <path class="d" d="m310.55,298.39c-7.47-13.43-20.63-11.39-24.21-10.19-10.79,3.6-12.29,12.11-16.7,11.36-4.41-.74-11.66-17.12-30.82-11.15-16.35,5.1-17.87,20.17-17.87,20.17-6.19,1.52-4.46,19.58-5.8,24.64-1.34,5.06-4.83,11.16-4.05,14.56-3.65,2.35-8.72,5.59-8.56,18.72.2,16.81,4.8,42.73-9.86,55.46l.75.46c7.48-7.62,11.19-8.6,20.97-9.03,9.78-.43,25.83-.3,31.43-5.86,5.59-5.56,7.3-6.99,13.23-7.36,5.92-.36,16.99-4.71,18.07-11.01,7.07-.41,9.5-11.48,12.76-17.86,6.43-12.58,27.74-28.11,22.86-44.26,5.29-7.74,2.74-22.95-2.2-28.67Z"/>
            <path class="d" d="m310.55,298.39c-7.47-13.43-20.63-11.39-24.21-10.19-10.79,3.6-12.29,12.11-16.7,11.36-4.41-.74-11.66-17.12-30.82-11.15-16.35,5.1-17.87,20.17-17.87,20.17-6.19,1.52-4.46,19.58-5.8,24.64-1.34,5.06-4.83,11.16-4.05,14.56-3.65,2.35-8.72,5.59-8.56,18.72.2,16.81,4.8,42.73-9.86,55.46l.75.46c7.48-7.62,11.19-8.6,20.97-9.03,9.78-.43,25.83-.3,31.43-5.86,5.59-5.56,7.3-6.99,13.23-7.36,5.92-.36,16.99-4.71,18.07-11.01,7.07-.41,9.5-11.48,12.76-17.86,6.43-12.58,27.74-28.11,22.86-44.26,5.29-7.74,2.74-22.95-2.2-28.67Z"/>
            <path class="c" d="m313.08,328.37c-.09-.45-.19-.87-.33-1.31.17-.23.33-.49.44-.74,4.68-7.91,2.14-22.36-2.65-27.92-7.47-13.43-20.61-11.4-24.21-10.19-10.77,3.6-12.28,12.12-16.69,11.36-.35-.06-.73-.22-1.15-.47-.36-.23-.77-.54-1.19-.9-4.65-3.97-12.36-14.82-28.5-9.78-2.01.63-3.78,1.42-5.36,2.3,9.25,9.28,13.88,16.9,23.53,21.64,12.54,6.16,16.48,3.84,16.48,3.84,3.36,3.52,11.47,2.21,16.29,6.13,4.82,3.92,19.23,10.49,23.16,6.5.07.03.17.06.24.09-.03-.18-.03-.36-.07-.54Z"/>
            <path class="b" d="m312.74,327.06c.14.44.24.86.33,1.31-1.2,1.1-2.46,2.13-3.77,3.07-5.94,4.29-12.64,7.31-19.43,9.76-6.82,2.45-13.77,4.36-20.63,6.46-3.41,1.05-6.78,2.17-10.08,3.39-2.41,1.01-4.89,1.99-6.92,3.53-4.69,8.16-10.16,15.91-15.96,23.26-2.16,2.72-4.42,5.37-6.7,8,2.29-.75,4.71-1.06,7.06-1.11,5.8-.08,11.38,1.13,16.82,2.44,5.44,1.34,10.76,3,16.21,3.94,2.14.36,4.33.61,6.48.54-.28.46-.61.93-1.02,1.37-1.92.06-3.83-.08-5.72-.32-5.61-.75-11.05-2.17-16.46-3.38-5.41-1.24-10.86-2.3-16.25-2.14-3.77.12-7.34.97-10.62,2.62-7.42,8.23-15.23,16.1-22.89,23.97-.81.84-1.63,1.7-2.41,2.56-1.96,2.09-3.84,4.25-5.62,6.48-2.44,3.18-4.82,6.39-6.88,9.68-1.89,3-4.09,8.86-5.29,12.21-5.57,15.65-8.12,14.09-8.77,13.83-2.86-1.12-2.27-19.54-.85-22.94,1.75-4.2,5.35-4.83,8.38-8.17,2.86-3.15,5.94-5.96,9.02-8.73,3.03-2.78,6.03-5.57,8.96-8.4.34-.32.7-.66,1.03-1,5.43-5.14,10.86-10.26,16.18-15.47,1.45-3.52,2.18-7.2,2.02-11.04-.25-5.62-2.04-11.14-3.96-16.61-1.92-5.47-4.03-10.95-5.34-16.73-.06-.22-.09-.42-.13-.64.49-.32.95-.62,1.39-.91.09.4.21.79.3,1.19,1.44,5.54,3.8,10.86,5.82,16.35,2.02,5.49,3.97,11.16,4.33,17.24.16,2.44-.03,4.95-.68,7.36,4.43-4.47,8.78-9.02,12.9-13.77,1.44-4.82,1.21-10.06.61-15.19-.94-7.06-2.89-14.06-4.95-20.99-2.08-6.94-4.29-13.87-6.2-20.91-.93-3.46-1.73-6.95-2.26-10.53.05-.03.07-.05.12-.06,0,0,.1-1.11.6-2.83.11.85.25,1.67.41,2.51.68,3.52,1.66,7.01,2.69,10.46,2.08,6.94,4.53,13.78,6.71,20.72,2.16,6.96,4.24,14,5.29,21.33.51,3.65.8,7.42.22,11.17-.04.2-.11.43-.15.63,4.2-5.09,8.17-10.41,11.7-16,4.36-6.77,8.14-13.92,11.09-21.42,3-7.46,5.16-15.26,6.51-23.22.18-1.13.33-2.24,1.3-13.74.42.36.83.66,1.19.9-.18,4.36-.54,8.73-1.15,13.06-1.3,8.06-3.4,15.98-6.22,23.64-1.94,5.31-4.29,10.42-6.95,15.36,1.31-.86,2.73-1.6,4.1-2.26,3.34-1.5,6.82-2.55,10.27-3.58,6.94-2.03,13.86-3.84,20.62-6.18,6.73-2.32,13.36-5.01,19.21-9.02,1.7-1.13,3.32-2.4,4.81-3.79-.11.26-.28.51-.44.74Z"/>
            <path class="b" d="m180.49,418.82c3.32.38.72,16.1-3.81,22.95-2.54,3.84-5.24,7.13-5.06-10.32.06-6.01,7.1-12.83,8.87-12.63Z"/>
          </g>
          <g>
            <path class="d" d="m141.68,125.4c-4.65-4.04-46.67-9.47-53.52-3.43-16.32-2.68-39.67,2.02-47.42,17.71-7.58,1.09-10.31,8.12-11.76,12.94-1.45,4.81-.52,8.42,1.54,10.53,2.06,2.11.27,6.12,10.63,5.25,3.57-.3,1.09,2.57-.57,5.81-1.66,3.24-2.81,13.39,5.77,14.65,8.58,1.26,14.27-6.42,14.27-6.42,2.72,1.53,11.72-5.53,13.63-9.48,1.94,2.42,13.96,3.68,25.72-7.69,11.76-11.37,12.91-7.96,16.69-11.8,7.68,2.35,28.09-25.59,25.01-28.08Z"/>
            <path class="b" d="m141.68,125.4c-.4-.35-1.1-.71-2.01-1.07-2.01.09-4.02.18-6.03.36-2.64.33-5.23.92-7.85,1.4-2.6.54-5.11,1.37-7.67,2.04-1.79.52-3.55,1.1-5.32,1.68-.9-.04-1.8-.12-2.71-.26-3.98-.62-7.82-2.21-11.63-3.92-3.17-1.43-6.42-2.82-9.74-4.06-.2.13-.4.26-.56.4-1.37-.23-2.8-.38-4.26-.5.75.27,1.51.54,2.25.84,3.88,1.51,7.57,3.47,11.38,5.3,3.24,1.53,6.63,3,10.25,3.89-6.53,2.3-12.94,4.88-19.24,7.68-1.11.51-2.2,1.05-3.3,1.57-.93-.1-1.87-.25-2.81-.46-2.44-.54-4.93-1.25-7.47-1.91-5.06-1.37-10.28-2.49-15.57-2.88-5.28-.39-10.61-.2-15.81.64-.26.04-.51.09-.77.13-.4.56-.76,1.14-1.11,1.73.69-.09,1.39-.21,2.09-.25,5.13-.65,10.31-.53,15.41-.06,5.12.47,10.13,1.62,15.12,3.05,2.34.65,4.7,1.39,7.22,1.79-7.09,3.51-14.01,7.34-20.81,11.36-2.26,1.33-4.5,2.68-6.68,4.15-2.21,1.41-4.37,2.89-6.51,4.41-2.69,1.93-5.38,3.88-7.91,6.04.48-.02.97-.04,1.52-.09.62-.05,1.01.02,1.3.15,2.09-1.44,4.26-2.79,6.4-4.13,2.2-1.36,4.42-2.69,6.7-3.94,2.25-1.29,4.5-2.56,6.79-3.78,1.61-.88,3.23-1.72,4.86-2.56-2.08,3.34-3.39,7.04-4.32,10.73-.98,3.93-1.47,7.9-2.07,11.81-.37,2.35-.72,4.71-1.27,7,.71-.73,1.09-1.25,1.09-1.25.12.07.27.1.42.14.54-1.86.95-3.75,1.36-5.61.79-3.9,1.56-7.78,2.6-11.54,1.03-3.75,2.42-7.4,4.57-10.51.88-1.26,1.87-2.38,2.92-3.45,2.5-1.24,5.02-2.45,7.55-3.63-2.14,3.09-3.51,6.6-4.43,10.13-.94,3.56-1.36,7.19-1.82,10.76-.32,2.1-.47,4.3-.95,6.33.61-.74,1.11-1.46,1.42-2.09.05.06.14.12.2.18.34-1.39.68-2.78.93-4.17.65-3.55,1.35-7.04,2.34-10.42.96-3.38,2.34-6.62,4.36-9.39,1.01-1.36,2.12-2.58,3.31-3.77,1.64-.74,3.28-1.47,4.93-2.19,5.36-2.29,10.8-4.4,16.29-6.32-.15.26-.3.51-.45.77-1.48,3.24-1.97,6.66-2.3,10-.33,3.33-.36,6.64-.74,9.87-.25,2.06-.56,4.2-1.35,6.08.66-.61,1.3-1.2,1.88-1.71.48-1.35.8-2.78,1.06-4.14.58-3.32.89-6.63,1.31-9.86.42-3.2.97-6.42,2.35-9.19.61-1.2,1.36-2.23,2.22-3.17,2.93-.96,5.87-1.88,8.84-2.7,7.38-1.94,14.71-3.58,22.19-4.86.44-1.28.5-2.2.05-2.56Z"/>
            <path class="c" d="m141.68,125.4c-4.65-4.04-46.67-9.47-53.52-3.43-16.32-2.68-39.67,2.02-47.42,17.71-7.58,1.09-10.31,8.12-11.76,12.94-1.45,4.81-.52,8.42,1.54,10.53,2.06,2.11.27,6.12,10.63,5.25,3.57-.3,1.09,2.57-.57,5.81-1.66,3.24-2.81,13.39,5.77,14.65,8.58,1.26,14.27-6.42,14.27-6.42,2.72,1.53,11.72-5.53,13.63-9.48,1.94,2.42,13.96,3.68,25.72-7.69,11.76-11.37,12.91-7.96,16.69-11.8,7.68,2.35,28.09-25.59,25.01-28.08Z"/>
            <path class="c" d="m116.96,142.38c.62,1.89,3.5,5.08,8.46,7.09,8.59-7.4,18.47-22.28,16.26-24.07-4.65-4.04-46.67-9.47-53.52-3.43-3.91-.64-8.23-.85-12.64-.59,4.13,2.8,8.92,5.15,13.96,6.35.32,5.5,13.22,4.89,17.32,8.06,4.1,3.17,6.88,5.95,10.16,6.59Z"/>
          </g>
          <g>
            <path class="d" d="m169.93,142.6c5.94-11.93,22.39-7.45,29.42-13.59,7.03-6.15,11.06-9.24,20.41-9.86,9.35-.62,19.84-4,30.95-7.2,11.12-3.2,21.87-.34,21.57,2.18,3.63-2.87,14.8-.02,18.73,8.77,3.93,8.79,23.61,20.22,20.72,39.95-2.89,19.72-12.37,17.43-12.27,19.72.1,2.29,6.06,16.54-3.06,25.36-7,6.77-16.29,8.85-26.96,7.86-8-.74-14.66-6.23-20.9-5.96-4.25,2.9-16.44,5.31-29.02-10.61-9.92-2.69-8.29-17.77-17.48-23-9.19-5.22-36.52-19.87-32.12-33.61Z"/>
            <path class="d" d="m169.93,142.6c5.94-11.93,22.39-7.45,29.42-13.59,7.03-6.15,11.06-9.24,20.41-9.86,9.35-.62,19.84-4,30.95-7.2,11.12-3.2,21.87-.34,21.57,2.18,3.63-2.87,14.8-.02,18.73,8.77,3.93,8.79,23.61,20.22,20.72,39.95-2.89,19.72-12.37,17.43-12.27,19.72.1,2.29,6.06,16.54-3.06,25.36-7,6.77-16.29,8.85-26.96,7.86-8-.74-14.66-6.23-20.9-5.96-4.25,2.9-16.44,5.31-29.02-10.61-9.92-2.69-8.29-17.77-17.48-23-9.19-5.22-36.52-19.87-32.12-33.61Z"/>
            <path class="b" d="m311.96,159.92c-.77-1.01-1.67-1.93-2.64-2.72-2.42-1.98-5.31-3.37-8.34-4.13-6.08-1.56-12.55-.87-18.42,1.12-5.64,2.18-11.43,3.46-17.37,3.82-2.96.17-5.93.07-8.87-.16-.76-.08-1.53-.15-2.3-.24-.29-.12-.57-.25-.86-.38l-9.33-3.87c-3.08-1.29-6.33-2.52-9.58-3.54-3.61-1.13-7.26-2.09-10.92-2.91,2.46-.84,4.76-2.18,6.73-3.8,2.52-2.1,4.64-4.51,6.7-6.88l3.09-3.54c.99-1.11,2.09-2.11,3.3-2.97,4.89-3.48,11.18-4.67,17.13-6.91,2.98-1.12,5.91-2.6,8.37-4.69,1.46-1.2,2.72-2.61,3.82-4.12-.06.04-.14.08-.2.12.04-.29-.09-.59-.34-.88-1.19,1.47-2.52,2.81-4.04,3.92-2.45,1.84-5.28,3.08-8.19,4.09-5.78,2.03-12.32,2.82-17.84,6.65-1.36.93-2.62,2.04-3.73,3.26l-3.14,3.52c-2.08,2.33-4.17,4.62-6.5,6.52-2.35,1.88-4.97,3.22-7.83,4.07-.82.23-1.66.41-2.5.57-7.94-1.53-15.97-2.5-23.96-3.23-6.73-.61-13.45-1.06-20.14-1.26-1.12-.05-2.23-.07-3.35-.1-.28.44-.57.86-.81,1.35-.32.99-.45,1.99-.46,2.99,1.44.17,2.88.33,4.32.46,6.7.63,13.38.9,20.03,1.42,6.51.5,13.01,1.18,19.44,2.18,1.16.81,2.27,1.68,3.27,2.67,2.45,2.47,4.49,5.37,6.1,8.55,1.61,3.18,2.86,6.58,3.89,10.04,1.05,3.43,1.82,7.07,3.06,10.59,1.16,3.53,2.66,6.95,4.39,10.23,1.71,3.29,3.66,6.47,5.91,9.42,2.22,2.97,4.75,5.73,7.57,8.14.27.23.56.44.84.66.08-.05.18-.1.26-.16.43-.02.88.05,1.31.08-3.33-2.77-6.16-6.2-8.68-9.68-4.17-5.91-7.32-12.52-9.52-19.4-1.16-3.41-1.87-6.96-2.92-10.56-1.02-3.57-2.26-7.1-3.93-10.48-1.65-3.37-3.8-6.62-6.68-9.19-.07-.06-.14-.1-.21-.16,2.51.46,5.01.99,7.49,1.57,4.2,3.53,7.48,8.16,10.41,12.97,4.31,7.22,8.03,14.94,12.79,22.09,4.73,7.15,10.61,13.72,17.8,18.52,6.03,4.1,12.86,6.79,19.86,8.5.44-.16.9-.28,1.34-.45-3.18-.87-6.32-1.88-9.33-3.2-3.85-1.69-7.52-3.77-10.95-6.17-6.88-4.82-12.34-11.35-16.89-18.4-4.6-7.05-8.21-14.72-12.53-22.14-2.18-3.69-4.59-7.35-7.72-10.45-.03-.03-.06-.05-.08-.07.95.26,1.91.51,2.86.8,6.24,1.93,12.52,4.4,18.76,6.78,6.23,2.42,12.41,4.97,18.48,7.73,6.06,2.78,12.09,5.66,17.98,8.83,3.85,2.05,7.67,4.17,11.48,6.31-.11-.47-.19-.85-.2-1.09-.01-.31.15-.53.44-.73-9.16-5.83-18.52-11.42-28.33-16.22-3.58-1.76-7.19-3.42-10.83-5.05,1.53.02,3.07-.03,4.59-.13,6.15-.44,12.31-1.92,17.94-4.2,5.51-2.06,11.57-2.9,17.33-1.63,2.86.64,5.64,1.76,8,3.51,1.22.91,2.34,2,3.24,3.24.04-.48.1-.96.11-1.43Z"/>
            <path class="c" d="m169.93,142.6c5.94-11.93,22.39-7.45,29.42-13.59,7.03-6.15,11.06-9.24,20.41-9.86,9.35-.62,19.84-4,30.95-7.2,11.12-3.2,21.87-.34,21.57,2.18,3.63-2.87,14.8-.02,18.73,8.77,3.93,8.79,23.61,20.22,20.72,39.95-2.89,19.72-12.37,17.43-12.27,19.72.1,2.29,6.06,16.54-3.06,25.36-7,6.77-16.29,8.85-26.96,7.86-8-.74-14.66-6.23-20.9-5.96-4.25,2.9-16.44,5.31-29.02-10.61-9.92-2.69-8.29-17.77-17.48-23-9.19-5.22-36.52-19.87-32.12-33.61Z"/>
            <path class="c" d="m214.38,121.34c-.83-.26-1.76-.45-2.73-.61-4.37,1.57-7.7,4.26-12.3,8.29-7.03,6.15-23.48,1.66-29.42,13.59-4.4,13.74,22.93,28.38,32.12,33.61,2.75,1.57,4.53,4.02,5.94,6.76,1.12-.82,1.86-1.86,1.92-3.28,6.16,1.38,14.48-8.54,12.34-14.38,4.22-3.64,1.58-10.28-.33-14.65-1.91-4.36,5.67-9.8,3.84-12.2,2.78-4.24-2.66-14.38-11.38-17.13Z"/>
          </g>
          <g>
            <path class="d" d="m153.6,285.8c.44-11.28-1.9-26.7-7.72-35.83-5.82-9.12-4.45-25.44-16.99-26.14-3.61-11.1-15.05-10.39-24.17-18.74-6.62-6.06-15.4-4.12-17.28.55-2.2-2.61-11.24-4.3-19.29,2.1-8.06,6.4,2.11,19.5-3.59,22.67-5.7,3.17-3.05-7.79-20.54,2.15-17.49,9.94-5.89,31.94,2.03,32.01,6.92,5.74,11.11,3.78,13.42,13.69,2.31,9.9,16.75,11.25,22.59,11.2,1.53,6.29,14.98,1.62,32.48,10.87,9.28,4.91,22.51,2.35,26.68,2.27,4.17-.08,12.28,4.36,14.97,3.82l1.55-.28c-.02-5.31-4.44-12.24-4.13-20.35Z"/>
            <path class="b" d="m161.87,298.15c-2.82.13-1.57,13.55,1.85,19.61,1.92,3.4,3.16,5.66,4.04-9.1.3-5.08-4.39-10.58-5.89-10.51Z"/>
            <path class="b" d="m167.27,321.68c.09-9.7-5.03-12.16-9.91-18.34-3.85-4.88-7.52-9.84-11.67-14.36-4.96-5.39-10.15-10.52-15.49-15.49-.91-2.85-1.26-5.87-1.29-8.99.04-5.26.82-10.59,1.41-15.96.6-5.37.94-10.82.67-16.27-.15-2.78-.5-5.56-1.06-8.3-.35-.05-.67-.13-1.04-.15-.1-.3-.22-.56-.33-.84.51,3.09.78,6.21.81,9.33.08,5.33-.53,10.64-1.23,15.96-.66,5.33-1.54,10.67-1.67,16.2.03,2,.08,4.04.47,6.04-3.83-3.48-7.7-6.9-11.64-10.24-10.67-8.92-21.81-17.27-33.33-25.06-5.08-3.45-10.31-6.67-15.64-9.72.09,1.07.05,2.02-.19,2.84,4.74,3.06,9.39,6.26,13.98,9.54,11.21,8.02,21.9,16.76,32.34,25.74,7.07,6.14,13.97,12.49,20.56,19.12-2.91-.52-5.79-.13-8.55.31-5.97,1.19-11.64,2.94-17.43,4.24-5.76,1.36-11.58,2.51-17.48,3.12-2.22.29-4.45.45-6.68.61.47.54,1.11.95,1.9,1.28,1.65-.05,3.29-.13,4.94-.28,5.98-.43,11.95-1.31,17.8-2.59,5.86-1.24,11.63-2.92,17.38-3.98,2.86-.41,5.73-.74,8.44-.3,1,.18,1.97.5,2.91.88,1.97,2.05,3.93,4.11,5.83,6.23,3.98,4.45,7.73,9.08,11.28,13.81,8.74,11.88,8.47,29.51,12.78,30.36l1.12-14.75Z"/>
            <path class="c" d="m157.36,303.34c-1.03-4.86-4.02-10.78-3.76-17.54.44-11.28-1.9-26.7-7.72-35.83-5.82-9.12-4.45-25.44-16.99-26.14-.1-.3-.22-.56-.33-.84h0c-3.92-10.19-14.96-9.77-23.84-17.9-6.62-6.06-15.4-4.12-17.28.55-2.2-2.61-11.24-4.3-19.29,2.1-5.71,4.53-2.29,12.42-1.82,17.77.05.53.06,1.02.03,1.49,0,.01,0,.02,0,.03-.03.47-.1.91-.22,1.31-.26.87-.72,1.59-1.58,2.07-5.7,3.17-3.05-7.79-20.54,2.15-17.49,9.94-5.89,31.94,2.03,32.01,6.92,5.74,11.11,3.78,13.42,13.69,2.31,9.9,16.75,11.25,22.59,11.2.15.63.45,1.12.83,1.55.47.54,1.11.95,1.9,1.28,0,0,0,0,0,0,5.01,2.06,16.14.85,29.74,8.04,9.28,4.91,22.51,2.35,26.68,2.27,3.15-.06,8.55,2.45,12.16,3.46,8.74,11.88,8.47,29.51,12.78,30.36l1.12-14.75c.1-9.7-5.03-12.16-9.91-18.34Z"/>
            <path class="c" d="m128.02,221.8c-4.31-8.96-14.79-8.92-23.3-16.71-6.62-6.06-15.4-4.12-17.28.55-.6-.71-1.72-1.35-3.18-1.78-1.35.86-2.77,1.84-4.26,2.99-7.73,5.95-8.21,10.98-13.96,16.54.13.74.23,1.44.29,2.11.05.53.06,1.02.03,1.49,0,.01,0,.02,0,.03-.03.47-.1.91-.22,1.31-.26.87-.72,1.59-1.58,2.07-2.9,1.61-3.64-.43-5.97-1.52-8.07,4.9-10.11,7.72-11.1,10.75-4.85,1.78-9.1,4.38-12.59,7.34-.21,8.9,6.2,17.55,11.16,17.6,6.92,5.74,11.11,3.79,13.42,13.69,2.31,9.9,16.75,11.25,22.59,11.2.15.63.45,1.12.83,1.55.47.54,1.11.95,1.9,1.28,0,0,0,0,0,0,.88.36,1.95.62,3.19.84.58-.62,1.15-1.23,1.72-1.82,3.47-3.64,6.84-3.55,9.63-7.26,2.96,1.83,17.63-13.68,20.47-24.33,2.82-10.54,3.6-28.23,8.23-37.92Z"/>
          </g>
          <g>
            <path class="d" d="m39.11,276.88c-.86,2.17.04,6.37,3.93,7.91,3.9,1.54,4.65,13.7,8.34,14.11.53,3.72,13.65,6.64,18.89-2.7.88,1.7,9.43-7.41,16.42-14.19,3.61-3.5,6.98-3.28,9.9-6.88,2.89,1.94,18.15-12.98,21.4-23.51,3.26-10.53,4.72-28.43,9.85-37.87,5.13-9.44,15.76-21.71,11.26-36.06-9.8-4.52-22.94-.55-33.7,7.29-6.77,4.93-13.66,4.11-25.11,12.24-10.33,7.33-8.37,13.59-21.69,20.87-8.74,4.78-10.94,7.57-12.08,10.62-17.38,5.6-27.56,21.86-23.66,27.63-1.33,9.84,6.76,12.68,10.24,14.26,3.48,1.58.87,6.3,5.98,6.27Z"/>
            <path class="b" d="m102.47,209.28c3.91-4.98,8.02-9.72,12.62-13.96,4.79-4.41,10.04-8.22,15.61-11.5,2.84-1.68,5.79-3.17,8.82-4.56-.12-.52-.23-1.03-.39-1.56-1.01-.46-2.06-.82-3.13-1.11-2.57.88-5.1,1.89-7.53,3.12-3.11,1.52-6,3.43-8.82,5.4-2.77,2.06-5.39,4.3-7.89,6.64-9.24,8.74-16.33,19.13-23.44,29.16-3.16,2.2-6.57,3.86-10.32,4.76-5.69,1.39-11.76,1.28-17.82,1.31-4.37,0-8.78.16-13.16.64-.18.36-.33.72-.47,1.09-.98.31-1.92.67-2.85,1.05,5.44-.66,10.94-.67,16.47-.59,6.04.04,12.24.27,18.4-1.13,2.15-.42,4.24-1.21,6.22-2.23-3.33,4.55-6.72,9-10.59,12.95-2.23,2.31-4.78,4.46-7.26,6.73l-7.4,6.81c-4.9,4.58-9.67,9.34-14.08,14.45-2.2,2.56-4.31,5.22-6.16,8.08-.41.63-.79,1.29-1.17,1.95.3.05.63.08,1.01.08-.23.58-.32,1.31-.27,2.1.62-1.05,1.28-2.08,1.99-3.07,1.92-2.66,4.1-5.15,6.38-7.54,3.35-3.51,6.92-6.83,10.54-10.09-.46,1.85-.74,3.71-.96,5.56-.49,4.31-.78,8.6-1.16,12.86-.38,4.26-.71,8.52-1.58,12.65-.47,2.04-.98,4.11-1.98,5.88-.48.9-1.13,1.67-1.9,2.27-.15.1-.32.14-.48.22.21.29.44.52.67.71.1-.05.21-.08.3-.14.98-.64,1.8-1.49,2.4-2.44,1.25-1.9,1.97-4.01,2.54-6.12,1.09-4.24,1.71-8.53,2.19-12.81.47-4.28.84-8.56,1.4-12.77.29-2.1.65-4.18,1.02-6.22.16-.78.32-1.55.5-2.32.33-.29.66-.59.98-.88l7.57-6.53c.7-.6,1.42-1.2,2.14-1.8-.27,1.62-.39,3.25-.43,4.86-.1,5.68.64,11.21,1.14,16.7.52,5.48,1.01,10.97.55,16.41-.34,4.45-1.35,8.85-3.14,12.96.26-.36.52-.71.74-1.12.11.22.36.25.72.14,1.73-3.71,2.81-7.75,3.29-11.82.67-5.59.46-11.23.03-16.76-.43-5.53-1.07-11.04-.89-16.44.1-2.63.43-5.19,1.1-7.63.8-.71,1.62-1.39,2.4-2.16,4.95-4.77,9.19-10.12,13.15-15.54,2.84-3.87,5.62-7.77,8.46-11.59-.35,1.91-.55,3.84-.62,5.76-.23,6.97.89,13.77,1.87,20.47.98,6.69,2.06,13.39,1.49,20.05-.3,3.3-.97,6.59-2.34,9.62-1.14,2.54-2.74,4.87-4.64,6.94.79-.54,1.56-1.21,2.3-2.12.14.09.33.12.53.13,1.11-1.38,2.08-2.87,2.88-4.45,1.58-3.1,2.49-6.52,2.88-9.96.78-6.91-.05-13.8-.93-20.52-.9-6.72-1.91-13.43-1.6-20.06.18-3.79.87-7.48,2.11-11Z"/>
            <path class="c" d="m139.12,177.7c-7.68-3.55-17.41-1.86-26.44,2.81-.6,4.47.2,8,.2,9.16,0,1.88-4.9,13.91.23,13.31,1.33,2.71,7.17,4.86,10.29,4.74,2.28-.09,6.71-1.93,9.92-3.08,4.63-7.78,8.96-16.84,5.79-26.94Z"/>
          </g>
          <g>
            <path class="d" d="m197.47,12.72c-1.73.27-2.69-.82-2.01-3.04.68-2.22,1.02-8.8-5.89-9.59-6.91-.79-10.64,3.44-14.19,7.97-3.55,4.53-6.5,1.54-10.46,7.49-3.96,5.96-4.28,9.26-4.28,9.26-5.46.24-7.79,14.88-6.86,25.32.93,10.43-9.72,13.72-7.34,25.02-4.26,2.69-8.83,16.18-5,24.92,3.82,8.74,7.42,19.53,9.73,22.24,2.31,2.71,9.78-8.72,12.78-15.1,3-6.39,23.66-16.67,25.45-25.66,5.55-5.25,6.69-18.43,14.24-24.7,7.54-6.27,13.9-14.52,14.03-25.79,2.26-1.98,2.46-8.08,1.79-8.99,2.69-2.93,4.31-17.96-2.55-18.96-3.3-.48-5.4,1.64-7.45,1.27-2.05-.38-6.04-2.24-8.78,3.04-1.1,2.13-.36,4.86-3.21,5.3Z"/>
            <path class="b" d="m217.02,31.2c-1.57,1.29-3.33,2.36-5.11,3.4-3.57,2.06-7.38,3.75-11.15,5.54-3.77,1.79-7.58,3.56-11.3,5.59-1.25.69-2.48,1.45-3.67,2.27,1.26-2.95,2.5-5.9,3.72-8.87,1.65-1.65,3.45-3.06,5.47-4.35,3-1.83,6.35-3.21,9.72-4.53,3.38-1.33,6.82-2.66,10.14-4.36,1.66-.85,3.26-1.87,4.68-3.14.05-.04.09-.1.14-.14-.05-.24-.12-.43-.2-.54.37-.41.72-1.07,1.03-1.87-1.63,1.91-4.01,3.19-6.36,4.24-3.27,1.47-6.76,2.51-10.2,3.76-3.44,1.26-6.92,2.59-10.2,4.49-.81.45-1.63.97-2.4,1.56,1.3-3.54,2.56-7.09,3.72-10.68.85-2.61,1.57-5.26,2.23-7.94.25-1.01.47-2.03.67-3.06-.16.05-.29.11-.48.14-.53.08-.97.02-1.33-.14-.99,3.42-2.25,6.8-3.51,10.15-1.92,5.06-4.06,10.06-6.24,15.02-3.04,6.98-6.26,13.91-9.72,20.66-.43-1.88-1.16-3.64-1.93-5.34-1.79-3.87-3.91-7.5-5.98-11.12-2.08-3.62-4.26-7.16-6.08-10.86-.95-1.99-1.92-4.06-2.53-6.18-.37.08-.73.22-1.07.43.03.13.05.26.08.39.49,2.08,1.21,4.09,2.05,6.03,1.69,3.87,3.64,7.6,5.64,11.26,2,3.66,4.02,7.3,5.67,11.04.81,1.87,1.5,3.77,2.05,5.65.18.63.32,1.26.44,1.89-.94,1.77-1.88,3.55-2.85,5.29-5.73,9.08-11.47,18.67-15.7,28.88-2.11,5.11-3.88,10.42-4.87,15.91-.6,3.3-.88,6.65-.89,9.99.16.25.32.46.47.64.42.49,1.01.51,1.71.19.18-3.46.59-6.9,1.41-10.26,1.24-5.19,3.05-10.23,5.3-15.1,1.57-3.41,3.33-6.7,5.16-9.96.83-.46,1.7-.87,2.66-1.22,2.48-.82,5.19-1.18,7.91-1.45l8.31-.68c1.4-.12,2.81-.33,4.21-.65.38-.1.77-.21,1.16-.34.15-.39.29-.78.38-1.17-.56.16-1.16.27-1.75.35-1.34.16-2.71.16-4.09.2-2.76.05-5.55-.04-8.37.09-2.77.14-5.59.42-8.38,1.28,2.86-4.88,5.88-9.72,8.88-14.68,3.08-5.43,5.76-11.01,8.27-16.65,2.09-1.6,4.41-2.97,6.73-4.4,3.58-2.05,7.32-3.87,11.07-5.74,3.74-1.88,7.46-3.85,11.03-6.13,1.71-1.09,3.35-2.33,4.85-3.74.02-.39.05-.78.05-1.18.41-.36.73-.88,1.01-1.45-.51.57-1.06,1.1-1.65,1.59Z"/>
            <path class="c" d="m197.47,12.72c-1.73.27-2.69-.82-2.01-3.04.68-2.22,1.02-8.8-5.89-9.59-6.91-.79-10.64,3.44-14.19,7.97-3.55,4.53-6.5,1.54-10.46,7.49-3.96,5.96-4.28,9.26-4.28,9.26-5.46.24-7.79,14.88-6.86,25.32.93,10.43-9.72,13.72-7.34,25.02-4.26,2.69-8.83,16.18-5,24.92,3.82,8.74,7.42,19.53,9.73,22.24,2.31,2.71,9.78-8.72,12.78-15.1,3-6.39,23.66-16.67,25.45-25.66,5.55-5.25,6.69-18.43,14.24-24.7,7.54-6.27,13.9-14.52,14.03-25.79,2.26-1.98,2.46-8.08,1.79-8.99,2.69-2.93,4.31-17.96-2.55-18.96-3.3-.48-5.4,1.64-7.45,1.27-2.05-.38-6.04-2.24-8.78,3.04-1.1,2.13-.36,4.86-3.21,5.3Z"/>
            <path class="c" d="m164.56,106.21c-1.69-11.94-5.96-23.19-13.92-26.25-1.11-2.81-2.7-5.85-4.52-8.85-.08,1.24,0,2.57.31,4.04-4.26,2.69-8.83,16.18-5,24.92,3.82,8.74,7.42,19.53,9.73,22.24,2.31,2.71,9.78-8.72,12.78-15.1.15-.32.38-.67.62-1.01Z"/>
          </g>
          <g>
            <path class="d" d="m61.97,71.89c-1.74-.55-3.97,3.3-5.76,4.01-1.79.7-8.59-.98-9.14,4.26-.55,5.24,5.61,19.82,8.2,20.64-.37,5.9,15.05,17.58,30.78,18.5,1.28,5.36,13.87,2.52,18.46,4.92,4.59,2.4,7.81,4.66,11.15,4.72,1.48,2.75,8.94,7.69,20.1,5.47,5.76-1.14,15.09,8.98,20.35,7.7,6.78-5.77,4.46-51.42-8-59.84-4.54-13.14-18.48-31.6-23.35-28.47-2.34-1.15-3.54-7.14-11.5-5.54-7.96,1.6-19.44-3.63-21.42-1.25-3.64-2.13-20.03-7.46-26.69,6.91-1.94-.25-4.84,3.23-5.03,6.58-.22,3.89,1.95,8.47,1.86,11.38Z"/>
            <path class="b" d="m154.72,136.98c-2.61-5.19-5.77-10.06-9.21-14.7-4.2-5.58-8.75-10.92-13.75-15.82-.73-3.55-.55-7.35-.65-11.16.05-5.08.26-10.22.13-15.38-.15-5.15-.61-10.34-1.76-15.4-.86-3.81-2.11-7.52-3.73-11.06-.32.03-.61.14-.88.29,1.34,3.6,2.34,7.31,3.02,11.08.95,4.97,1.11,10.05,1.16,15.12.05,5.08-.25,10.16-.38,15.31-.08,2.57-.08,5.19.29,7.81.05.3.13.61.19.91-2.49-2.29-5.07-4.48-7.8-6.51-3.7-2.67-7.55-5.04-11.47-7.28-.2-.96-.26-1.99-.34-3.05-.1-2.16-.25-4.44-.55-6.69-.56-4.52-1.74-8.98-3.39-13.21-1.6-4.27-3.95-8.16-6.27-12.02-1.23-1.88-2.56-3.7-3.87-5.53l-2.59-3.22c-.32.07-.57.18-.78.33l2.4,3.56,3.45,5.69c2.12,3.88,4.16,7.81,5.61,11.96,1.52,4.11,2.55,8.37,3.02,12.72.25,2.18.3,4.37.64,6.65.07.47.16.95.27,1.42-5.37-2.93-10.89-5.53-16.52-7.84-5.32-2.16-10.72-4.1-16.15-5.89-4.29-1.41-8.63-2.66-12.88-4.08.03.3.05.6.05.88-.18-.06-.36-.04-.55-.01,9.54,3.91,19.19,7.31,28.41,11.7,9.58,4.46,18.86,9.68,27.23,15.91-.35-.06-.69-.16-1.04-.2-3.3-.42-6.59-.05-9.74.53-6.31,1.17-12.34,2.98-18.49,4.08-6.12,1.14-12.36,1.74-18.54,1.02-3.08-.36-6.14-.96-9.14-1.82-1.62-.48-3.21-1.06-4.78-1.69.04.36.12.73.25,1.12,4.27,1.92,8.8,3.32,13.47,3.99,6.35.93,12.85.6,19.13-.47,6.29-1.05,12.41-2.79,18.52-3.84,3.06-.52,6.11-.76,9.09-.6,1.79.11,3.55.46,5.27,1.01,7.88,6.53,15.33,13.71,21.82,21.71,3.55,4.37,6.82,8.97,9.56,13.87.71,1.3,1.4,2.62,2.04,3.97.57.07,1.12.08,1.62-.05.23-.19.44-.43.64-.71-.62-1.5-1.3-2.98-2.02-4.42Z"/>
          </g>
          <g>
            <path class="d" d="m366.87,298.59c1.37,26.41-48.16,23.59-56.22,20.4-3.78,4.13-18.43-1.9-23.39-5.64-4.96-3.74-13.02-2.14-16.5-5.53,0,0-3.85,2.46-16.61-3.23-12.76-5.69-17.47-16.2-34.7-28.78-4.54-3.32-15.67-4.31-24.48-3.85,5.4-5.24,9.36-5.21,9.36-5.21,6.58-11.55,26.68-14.3,36.57-12.24,9.89,2.07,24.1-1.96,42.44-11.45,19.36-10.02,30.52-12.18,36.26-9.72,8.34-4.74,18.61-3.53,18.34-.18,14.85-3.57,33,11.28,19.56,27.7-3.36,4.11,1.42,3.9,6.36,7.22,4.94,3.33,6.49,10.14,4.54,13.14,4.4,5.23,1.52,15.57-1.53,17.37Z"/>
            <path class="b" d="m363.28,297.8c-2.48-.07-4.93-.39-7.32-.94-4.79-1.15-9.21-3.42-13.25-6.24-4.07-2.81-7.71-6.22-11.51-9.56-1.91-1.66-3.88-3.35-6.22-4.62-.26-.14-.55-.25-.82-.37,11.45-2.09,22.59-6.06,32.52-12.07-.33-.45-.4-.99-.11-1.68-5.18,3-10.63,5.51-16.32,7.37-8.15,2.7-16.64,4.26-25.18,4.98-1.5.12-3,.19-4.5.27,2.27-1.35,4.15-3.22,5.76-5.21,3.33-4.15,5.68-8.83,7.9-13.47,2.2-4.65,4.09-9.42,6.5-13.86,1.22-2.21,2.51-4.38,4.16-6.24,1.2-1.37,2.65-2.5,4.3-3.23-.42.07-.84.15-1.25.25.02-.19-.01-.37-.06-.54-1.43.67-2.75,1.59-3.84,2.7-1.87,1.87-3.39,4.03-4.71,6.26-2.64,4.48-4.8,9.15-7.06,13.71-2.26,4.55-4.65,9.06-7.81,12.87-2.51,2.97-5.44,5.35-8.94,6.92-5.19.08-10.39-.08-15.58-.47,1.74-.95,3.32-2.15,4.72-3.47,4.33-4.15,7.43-9.17,10.33-14.15,2.88-5.02,5.39-10.19,8.29-15.1,1.82-2.98,3.71-6.12,6.15-8.61-.35-.14-.72-.27-1.12-.38-.4.38-.8.76-1.17,1.16-1.98,2.16-3.68,4.53-5.24,6.97-3.1,4.89-5.88,9.94-8.8,14.84-2.92,4.88-6.04,9.71-10.09,13.47-2.03,1.86-4.31,3.36-6.79,4.32-.48.19-.98.33-1.48.47-7.04-.7-14.06-1.7-21.04-2.88-8.52-1.44-17-3.15-25.57-4.7-8.56-1.58-17.45-2.71-26.44-2.12-16.29,1.09-27.04,7.71-33.75,16.77-2.21,2.99-1.65,17.2-2.02,26.6-.21,5.43,3.33,2.28,6.39-10.92,2.51-10.87,11.43-23.85,20.55-25.95,2.97-.84,6.08-1.35,9.21-1.6,8.34-.71,16.83.23,25.32,1.61,2.03.32,4.07.66,6.1,1,3.1,1.86,5.91,3.93,8.39,6.53,3.09,3.27,5.52,7.19,7.74,11.23,2.23,4.04,4.34,8.22,6.74,12.26,1.24,2.06,2.61,4.09,4.17,5.96.15-.06.22-.11.22-.11.62.6,1.41,1.01,2.27,1.35-2.06-2.43-3.74-5.18-5.25-8-2.2-4.06-4.04-8.34-6.22-12.5-2.19-4.15-4.63-8.28-7.89-11.85-1.29-1.47-2.79-2.8-4.44-3.93,4.61.76,9.22,1.52,13.86,2.19,3.57.52,7.16.99,10.76,1.41,3.73,2.39,6.68,5.87,9.54,9.44,3.61,4.72,6.81,9.84,10.28,14.8,3.47,4.96,7.23,9.8,11.7,13.99,1.65,1.54,3.41,2.98,5.27,4.27,0,0,0,0,.01,0,.82.32,2.08.64,3.65.93-2.83-1.82-5.45-3.96-7.81-6.35-4.21-4.2-7.67-9.11-11.02-14.07-3.37-4.96-6.49-10.13-10.14-15.04-1.83-2.44-3.81-4.85-6.25-6.85-.27-.23-.58-.43-.87-.64,12.32,1.25,24.74,1.68,37.12.38,1.64-.16,3.28-.4,4.91-.64,1.24.41,2.41,1.02,3.55,1.74,1.98,1.32,3.91,2.85,5.82,4.45,3.8,3.23,7.59,6.67,11.87,9.52,4.26,2.86,9.08,5.01,14.14,6.02,3.73.71,7.54.72,11.25.2,0-.02,0-.03,0-.05.37-.22.73-.56,1.08-1-1.56.15-3.11.26-4.67.21Z"/>
            <path class="b" d="m184.64,266.89c2.76.62.52,15.11-3.95,20.83-2.51,3.21-5.65,5.17-3.83-10.38.63-5.35,6.3-10.78,7.77-10.45Z"/>
          </g>
          <g>
            <path class="d" d="m134.14,349.4c-2.07-1.99-12.77-3.61-23.19,1.12-10.42,4.73-16.08,3.73-26.39,9.08-11.62,6.03-12.45,13.26-18.61,15.31-6.16,2.04-15.31,4.95-19.15,10.01-7.57.96-8.48,7.86-14.22,13.13-4.91,4.51-10.94,6.58-11.74,10.31-7.1-.31-5.7,10.15-10.89,10.8-5.18.64-16.47,28.44-4.94,34.61,6.3,3.37,6.84,8.56,16.21,8.46,15-.16,19.66-12.73,23.56-9.48,2.49,2.08-1.55,7.47,2.73,14.68-1.3,10.79,23.21,25.45,34.51.36,1.97,2.1,8.34-9.43,12.42-13.78,4.08-4.35,7.85-6.29,8.33-9.64,4.27-.08,11.95-7.82,11.4-11.03,6.02-.68,11.16-9.25,13.13-16.63,1.97-7.38,3.22-7.44,7.15-10.42,3.93-2.99,5.58-5.87,3.88-18.41-1.7-12.54-1.85-15.97-.67-20.09,1.9-6.65,2.39-14.49-3.52-18.4Z"/>
            <path class="b" d="m147.44,348.4c-5.08-.73-11.5-.75-19.14,3.13-5.96,3.03-13.19,7.46-18.42,11.46-8.51,6.54-16.09,14.06-23.17,21.98-.55.3-1.08.61-1.69.75-1.74.8-3.78.8-5.77.79-4.06-.28-8.18-1.48-12.34-2.46-4.18-.95-8.45-1.81-12.79-2-1.45-.06-2.9-.02-4.35.07-.56.42-1.09.85-1.56,1.3,1.94-.06,3.87,0,5.8.2,4.19.37,8.29,1.4,12.39,2.52,4.12,1.04,8.23,2.35,12.71,2.75,1.42.04,2.9.04,4.35-.18-.51.59-1.04,1.17-1.55,1.77-3,3.58-5.83,7.28-8.61,11.03-.66.26-1.34.48-2.05.65-2.62.6-5.47.54-8.33.28-5.72-.53-11.56-1.55-17.48-1.76-5.91-.18-11.89.26-17.64,1.71-.56.13-1.1.32-1.65.47-1.17.79-2.23,1.55-3.1,2.32,1.68-.49,3.38-.93,5.09-1.27,5.64-1.22,11.44-1.45,17.19-1.09,5.77.29,11.47,1.36,17.37,1.99,2.66.27,5.43.38,8.22-.08-4.1,5.71-7.99,11.56-11.71,17.51-1.79,2.86-3.5,5.77-5.15,8.71-.97.66-1.99,1.24-3.08,1.8-2.18,1.14-4.59,2-7.04,2.76-4.9,1.52-9.98,2.75-14.96,4.46-4.94,1.75-9.85,3.95-14.06,7.23-2.93,2.29-5.36,5.19-7.14,8.42.26.21.52.42.76.63,1.93-3.05,4.39-5.72,7.32-7.79,4.12-2.97,8.91-4.91,13.8-6.44,4.88-1.6,9.93-2.74,14.97-4.22,2.41-.72,4.83-1.53,7.18-2.68-.73,1.37-1.5,2.72-2.21,4.09-2.19,4.27-4.3,8.6-6.11,13.06.45.02.88.16,1.3.5.06.05.1.11.15.17,4.84-10.07,10.84-19.61,16.99-28.95,4.59-6.9,9.49-13.58,14.61-20.07-.03.69-.05,1.38,0,2.06.23,3.45.99,6.74,1.8,9.99,1.68,6.48,3.76,12.75,5.38,19.14,1.66,6.35,3,12.82,3.03,19.36.05,3.91-.42,7.86-1.49,11.63.53-.6,1.1-1.31,1.69-2.09.83-3.1,1.29-6.32,1.37-9.53.16-6.74-1.01-13.41-2.51-19.89-1.56-6.49-3.59-12.82-5.16-19.19-.76-3.18-1.45-6.39-1.62-9.56-.13-1.59-.08-3.14.01-4.69.02-.18.07-.35.09-.52,2-2.46,4.03-4.9,6.1-7.3,7.48-8.62,15.49-16.83,24.34-23.9-.11.93-.13,1.85-.11,2.76.13,3.18.63,6.27,1.19,9.31,1.15,6.09,2.64,12.06,3.97,18.04,1.37,5.97,2.71,11.95,3.36,18,.31,3.02.54,6.06.32,9.07-.14,1.94-.47,3.87-1.09,5.71.38-.21.75-.45,1.12-.71.53-1.59.87-3.25,1.08-4.89.37-3.1.36-6.23.13-9.33-.47-6.19-1.63-12.28-2.82-18.32-1.26-6.02-2.68-12.01-3.73-18.01-.51-2.99-.95-6.01-1.03-8.96-.06-1.48-.04-2.94.12-4.32.02-.12.04-.24.06-.36.23-.18.46-.36.69-.54,7.72-5.61,24.35-17.38,34.67-12.65,12.45,5.71,11.63,27.53,16.21,27.32,1.46-.06,1.49-13.24.32-21.17-1.19-8.08-11.02-11.19-16.58-11.99Z"/>
            <path class="b" d="m160.44,341.2c-3.33-.18-3.41,15.75-.1,23.26,1.86,4.21,3.06,7.01,5.81-10.22.95-5.93-3.93-12.94-5.71-13.04Z"/>
          </g>
          <path class="i" d="m171.94,376.66c-.26,9.45-.28,18.9-.26,28.38.04,4.74-.05,9.48.18,14.22.03,2.37.3,4.74.5,7.1.16,2.37.49,4.74.87,7.1.84,4.74,2.33,9.45,3.51,14.18,1.23,4.73,1.86,9.47,2.03,14.21.3,4.74.08,9.49-.2,14.23-.2,4.75-.74,9.49-1,14.25-.53,9.48-.08,18.96-.09,28.45,0,9.48.41,18.97.57,28.45.12,9.48.31,18.97.26,28.46-.05,3.41-.09,6.83-.18,10.25-.04,1.33-.09,2.65-.15,3.98l-.15,3.56c-1.56.01-3.11.01-4.69.01-3.11,0-6.19-.01-9.21-.03l-.09-3.66c-.04-1.29-.08-2.57-.09-3.86-.07-3.45-.07-6.89-.12-10.33,0-9.47.15-18.93.27-28.4.53-18.94.74-37.88.89-56.81l.08-28.41c-.14-9.47-.51-18.93-.76-28.4-.39-9.47.68-18.96.49-28.42-.16-4.71-.62-9.48-1.98-14.23-1.25-4.75-2.48-9.53-2.52-14.33-.68-9.61,5.53-19.05,5.17-28.59.05-4.78-1.07-9.61-1.39-14.45-.2-4.83.41-9.61,1.73-14.3,2.88-9.37,4.47-18.76,5.76-28.07.56-4.66,1.07-9.3,1.15-13.92.09-4.66.2-9.4.16-14.1.01-9.4-.24-18.8-.92-28.15-.7-9.34-1.41-18.69-2.69-27.95-2.28-18.57-6.35-36.83-12.74-54.48l-.04-.12c-.32-.92.15-1.94,1.07-2.26.87-.31,1.83.09,2.21.92,8.02,17.46,12.81,36.18,15.72,55.05,2.67,18.92,3.53,38.01,3.47,57.04.11,4.77.07,9.51.04,14.3-.07,4.82-.49,9.6-.03,14.45.33,4.85.81,9.68.28,14.37-.18,2.36-.64,4.67-1.22,6.97-.6,2.3-1.44,4.58-2.18,6.87-3.44,9.15-3.22,18.7-3.26,28.13l-.31,14.16-.12,14.18Z"/>
          <g>
            <path class="d" d="m166.52,193.09c-2.27,1.26-4.62,8.8-10.39,9.06-5.77.25-10.92-3.12-13.41-2.85-2.49.27-9.86,3.4-12.98,3.38-3.13-.02-8.86-2.42-10.08-5.19-5.14.38.28-11.43.35-13.3.07-1.88-1.69-10.09,3.89-18.15,5.59-8.06,2.2-10.42,8.8-16.8,6.6-6.39,23.45-14.16,24.56-10.3,3.06-5.14,10.68-9.54,14.74-9.56,9.09-10.25,26.47-13.04,35.19-10.46,8.71,2.59,14.14,12.2,11.34,16.23,1.82,2.27-5.77,7.45-3.87,11.58,1.9,4.14,4.52,10.43.3,13.9,2.12,5.54-6.22,14.97-12.38,13.68-.34,6.43-15.41,5.05-18.37,8.78-2.96,3.73-4.28,9.26-8.91,10.71-4.63,1.45-7.26-1.56-8.79-.71Z"/>
            <g>
              <path class="b" d="m214.99,160.73c-3.36-2.06-6.95-3.77-10.75-4.93-5.24-1.58-10.76-2.21-16.23-2.03-5.48.2-10.87,1.23-16.13,2.44-2.63.59-5.24,1.28-7.79,1.69-1.19.2-2.39.37-3.43.33-.47-5.71-.71-11.43-.71-17.15,0-1.85.04-3.7.09-5.55-1.1,1.07-2.07,2.21-2.78,3.4-.18-.62-.8-.92-1.69-.99,0,1.06-.02,2.13,0,3.19.01.46.05.92.06,1.38-.34.39-.69.77-1.04,1.13-1.11,1.1-2.32,2.12-3.56,3.12-2.5,1.97-5.13,3.83-7.86,5.56-5.69,3.44-10.71,8.24-14.28,13.91-3.6,5.65-5.68,12.28-6.24,18.83-.43,3.22-.86,6.44-1.75,9.52-.3,1.04-.71,2.05-1.18,3.02.16.32.36.64.63.95.68-1.15,1.27-2.35,1.69-3.59,1.1-3.16,1.72-6.41,2.24-9.66.75-6.46,2.98-12.53,6.47-17.88,3.48-5.36,8.19-9.77,13.73-13.03,2.81-1.74,5.59-3.58,8.07-5.84,1.15-1.03,2.23-2.17,3.2-3.41.39,8.18,1.39,16.31,2.93,24.34.89,4.68,2.1,9.29,3.59,13.82,1.12,3.38,2.42,6.73,4.05,9.92.07-.05.13-.1.2-.14.4-.22.89-.17,1.46-.01-3.2-7.66-4.85-15.92-6.11-24.14-.16-1.08-.27-2.16-.41-3.24.32.16.64.34.97.46,2.16.78,4.34.99,6.47,1.19,4.26.35,8.44.53,12.56,1.1,4.12.54,8.21,1.34,12.11,2.78,3.05,1.1,5.97,2.56,8.72,4.33.13-.29.2-.61.25-.95-2.56-1.97-5.38-3.62-8.37-4.89-3.97-1.67-8.16-2.8-12.39-3.45-4.23-.67-8.49-.93-12.64-1.36-2.07-.23-4.11-.53-5.98-.99-.72-.2-1.39-.46-2.01-.78-.1-.89-.19-1.77-.28-2.66,1.29.19,2.49.04,3.64-.12,2.75-.49,5.33-1.21,7.94-1.84,5.19-1.28,10.4-2.35,15.68-2.61,5.26-.36,10.58.05,15.7,1.39,3.97,1.01,7.81,2.58,11.43,4.57-.05-.4-.13-.78-.26-1.15Z"/>
              <path class="b" d="m193.33,126.62c-5.05-.43-10.12-.22-15.11.32-1.47.15-2.92.34-4.37.56-.65.6-1.26,1.22-1.85,1.88-1.32,0-3.03.51-4.82,1.32,3.83-.23,7.57-.85,11.31-1.34,4.88-.61,9.79-.89,14.67-.56,4.87.31,9.72,1.15,14.39,2.66,3.87,1.22,7.61,2.83,11.25,4.67.03-.37-.05-.7-.28-.99.03-.04.04-.09.07-.13-7.63-4.57-16.28-7.66-25.28-8.4Z"/>
            </g>
          </g>
        </g>
        <path class="g" d="m209.55,599.5c-1.75,0-3.2-1.39-3.27-3.15-.28-7.62,7.64-23.5,19.88-34.99,8.12-7.62,21.32-16.29,38.14-14.64,5.5.56,9.47,2.74,11.82,6.49,5.43,8.67.12,23.14-3.75,33.71-1,2.73-1.86,5.09-2.39,6.92-.5,1.74-2.32,2.73-4.05,2.25-1.74-.5-2.75-2.31-2.25-4.05.59-2.06,1.49-4.52,2.54-7.37,3.22-8.78,8.08-22.03,4.35-27.99-1.24-1.98-3.5-3.11-6.93-3.45-14.38-1.45-25.88,6.21-33.01,12.9-11.17,10.48-18.01,24.75-17.82,29.97.07,1.81-1.34,3.33-3.15,3.39-.04,0-.08,0-.12,0Z"/>
        <g>
          <path class="f" d="m82.81,599.44c1.02.4,1.95.58,2.99.81,1.04.19,2.12.39,3.24.57,2.24.38,4.51.66,7.01,1.16l.11.02c.59.12.98.7.86,1.29-.06.29-.22.53-.45.68-2.48,1.74-5.44,2.03-8.25,1.69-1.42-.21-2.84-.61-4.17-1.38-1.3-.74-2.67-1.92-3.14-3.64-.16-.59.19-1.21.78-1.37.24-.07.48-.05.7.04l.33.13Z"/>
          <path class="f" d="m93.85,612.13c2.08.48,4.43.69,6.76.93,2.36.21,4.62.37,7.1.27h.14c.6-.03,1.11.44,1.13,1.04.01.29-.09.55-.26.75-1.07,1.25-2.56,1.97-4.02,2.39-1.48.43-2.99.52-4.49.44-1.49-.12-2.98-.44-4.38-1.09-1.38-.65-2.84-1.6-3.63-3.31-.25-.54-.01-1.19.53-1.44.23-.1.47-.12.7-.07l.42.1Z"/>
          <path class="f" d="m71.76,666.97c1.02.4,1.95.58,2.99.81,1.04.2,2.12.39,3.24.57,2.24.38,4.51.66,7,1.16l.11.02c.59.12.98.7.86,1.29-.06.29-.22.53-.45.68-2.48,1.74-5.44,2.03-8.25,1.69-1.42-.21-2.84-.61-4.17-1.38-1.3-.74-2.67-1.92-3.14-3.64-.16-.59.19-1.21.78-1.37.24-.07.48-.05.7.04l.33.13Z"/>
          <path class="f" d="m277.45,668.42c-.52,1.7-1.92,2.84-3.25,3.54-1.36.73-2.79,1.09-4.21,1.25-2.82.25-5.77-.13-8.19-1.94-.48-.36-.58-1.05-.22-1.53.17-.23.43-.38.69-.42l.12-.02c2.51-.42,4.78-.64,7.04-.95,1.12-.14,2.21-.3,3.25-.47,1.05-.2,1.98-.35,3.01-.72l.33-.12c.58-.21,1.22.1,1.42.68.08.23.08.48.01.7Z"/>
          <path class="f" d="m258.95,682.31c-.58,1.68-2.01,2.77-3.36,3.43-1.38.69-2.82,1-4.25,1.12-2.83.16-5.76-.31-8.13-2.2-.47-.38-.55-1.07-.17-1.54.18-.23.44-.36.71-.4l.11-.02c2.53-.34,4.8-.48,7.06-.72,1.12-.1,2.22-.23,3.27-.36,1.06-.16,1.99-.29,3.03-.62l.33-.11c.59-.19,1.21.14,1.4.72.08.24.07.48,0,.7Z"/>
          <path class="f" d="m296.46,680.13c-.58,1.68-2.01,2.77-3.36,3.43-1.38.69-2.82,1-4.25,1.12-2.83.16-5.76-.31-8.13-2.2-.47-.38-.55-1.07-.17-1.54.18-.23.44-.36.7-.4l.12-.02c2.53-.34,4.8-.48,7.06-.72,1.12-.1,2.22-.23,3.26-.36,1.06-.16,1.99-.29,3.03-.62l.33-.11c.59-.19,1.21.14,1.4.72.08.24.07.48,0,.7Z"/>
          <path class="f" d="m87.1,679.65c2.08.48,4.43.69,6.76.93,2.36.21,4.62.37,7.1.27h.14c.6-.03,1.11.44,1.13,1.04.01.29-.09.55-.26.75-1.07,1.25-2.56,1.97-4.02,2.39-1.48.43-2.99.52-4.49.44-1.49-.12-2.98-.44-4.38-1.09-1.38-.65-2.84-1.6-3.63-3.31-.25-.54-.01-1.19.53-1.44.23-.1.47-.12.7-.07l.42.1Z"/>
          <path class="f" d="m108.66,669.99c2.1.37,4.46.46,6.8.57,2.37.09,4.63.12,7.1-.11h.14c.6-.07,1.13.37,1.19.97.03.28-.06.56-.22.77-1,1.31-2.45,2.11-3.89,2.6-1.45.51-2.96.68-4.46.67-1.5-.04-2.99-.28-4.44-.86-1.41-.57-2.92-1.45-3.8-3.11-.28-.53-.08-1.18.45-1.46.22-.12.47-.15.69-.11l.42.08Z"/>
          <path class="f" d="m122.78,658.12c2.1.37,4.46.46,6.8.57,2.37.09,4.63.12,7.1-.11h.14c.6-.07,1.13.37,1.19.97.03.28-.06.56-.22.77-1,1.31-2.45,2.11-3.89,2.6-1.45.51-2.96.68-4.46.67-1.5-.04-3-.28-4.44-.86-1.41-.57-2.92-1.45-3.8-3.11-.28-.53-.08-1.18.45-1.46.22-.12.47-.15.69-.11l.42.08Z"/>
          <path class="f" d="m138.13,672.03c2.1.37,4.46.46,6.8.57,2.37.09,4.63.12,7.1-.11h.14c.6-.07,1.13.37,1.19.97.03.28-.06.56-.22.77-1,1.31-2.45,2.11-3.89,2.6-1.45.51-2.96.68-4.46.67-1.5-.04-2.99-.28-4.44-.86-1.41-.57-2.92-1.45-3.8-3.11-.28-.53-.08-1.18.45-1.46.22-.12.47-.15.69-.11l.42.08Z"/>
          <path class="f" d="m153.06,658.94c2.1.37,4.46.46,6.8.57,2.37.09,4.63.12,7.1-.11h.14c.6-.07,1.13.37,1.19.97.03.28-.06.56-.22.77-1,1.31-2.45,2.11-3.89,2.6-1.45.51-2.96.68-4.46.67-1.5-.04-2.99-.28-4.44-.86-1.41-.57-2.92-1.45-3.8-3.11-.28-.53-.08-1.18.45-1.46.22-.12.47-.15.69-.11l.42.08Z"/>
          <path class="f" d="m126.6,636.29c2.1.37,4.46.46,6.8.57,2.37.09,4.63.12,7.1-.11h.14c.6-.07,1.13.37,1.19.97.03.28-.06.56-.22.77-1,1.31-2.45,2.11-3.89,2.6-1.45.51-2.96.68-4.46.67-1.5-.04-2.99-.28-4.44-.86-1.41-.57-2.92-1.45-3.8-3.11-.28-.53-.08-1.18.45-1.46.22-.12.47-.15.69-.11l.42.08Z"/>
          <path class="f" d="m174.07,625.93c2.1.37,4.46.46,6.8.57,2.37.09,4.63.12,7.1-.11h.14c.6-.07,1.13.37,1.19.97.03.28-.06.56-.22.77-1,1.31-2.45,2.11-3.89,2.6-1.45.51-2.96.68-4.46.67-1.5-.04-2.99-.28-4.44-.86-1.41-.57-2.92-1.45-3.8-3.11-.28-.53-.08-1.18.45-1.46.22-.12.47-.15.69-.11l.42.08Z"/>
          <path class="f" d="m156.61,614.47c2.1.37,4.46.46,6.8.57,2.37.09,4.63.12,7.1-.11h.14c.6-.07,1.13.37,1.19.97.03.28-.06.56-.22.77-1,1.31-2.45,2.11-3.89,2.6-1.45.51-2.96.68-4.46.67-1.5-.04-2.99-.28-4.44-.86-1.41-.57-2.92-1.45-3.8-3.11-.28-.53-.08-1.18.45-1.46.22-.12.47-.15.69-.11l.42.08Z"/>
          <path class="f" d="m207.33,603.11c2.1.34,4.46.39,6.8.48,2.37.05,4.63.06,7.1-.21l.14-.02c.6-.07,1.14.37,1.2.96.03.28-.05.56-.21.77-.98,1.32-2.42,2.14-3.85,2.65-1.44.53-2.95.72-4.45.74-1.5-.02-3-.24-4.45-.8-1.42-.55-2.94-1.4-3.84-3.06-.29-.53-.09-1.18.43-1.47.22-.12.46-.16.69-.12l.43.07Z"/>
          <path class="f" d="m156.88,637.11c2.1.37,4.46.46,6.8.57,2.37.09,4.63.12,7.1-.11h.14c.6-.07,1.13.37,1.19.97.03.28-.06.56-.22.77-1,1.31-2.45,2.11-3.89,2.6-1.45.51-2.96.68-4.46.67-1.5-.04-2.99-.28-4.44-.86-1.41-.57-2.92-1.45-3.8-3.11-.28-.53-.08-1.18.45-1.46.22-.12.47-.15.69-.11l.42.08Z"/>
          <path class="f" d="m80.37,621.46c1.86.69,3.9,1.05,6.02,1.48,2.14.4,4.18.71,6.43.77h.22c.6.02,1.07.52,1.06,1.11,0,.26-.1.49-.26.67-1.05,1.24-2.55,1.86-3.97,2.18-1.44.34-2.9.3-4.31.09-1.41-.24-2.8-.69-4.08-1.5-1.24-.78-2.54-1.94-2.97-3.69-.14-.58.21-1.17.8-1.31.22-.05.44-.04.64.04l.42.16Z"/>
          <path class="f" d="m93.14,634.13c2.12.12,4.6.25,6.95.51,2.39.26,4.71.56,7.19.94l.12.02c.6.09,1.01.65.92,1.25-.04.28-.19.52-.39.69-1.22.99-2.66,1.48-4.06,1.76-1.41.29-2.83.32-4.23.22-1.4-.13-2.79-.4-4.14-.95-1.33-.55-2.72-1.26-3.76-2.78-.33-.49-.21-1.16.28-1.49.2-.14.44-.2.66-.19l.46.03Z"/>
          <path class="f" d="m109.58,624.49c2.12-.01,4.61-.03,6.97.09,2.41.12,4.73.28,7.23.5h.12c.6.07,1.05.6.99,1.2-.03.28-.16.53-.35.71-1.16,1.06-2.57,1.64-3.95,2-1.39.38-2.8.49-4.21.47-1.41-.04-2.81-.24-4.19-.7-1.36-.47-2.79-1.09-3.92-2.55-.36-.47-.28-1.14.19-1.51.19-.15.42-.22.65-.23h.46Z"/>
          <path class="f" d="m268.03,622.58c-.43,1.75-1.73,2.91-2.97,3.69-1.27.8-2.66,1.25-4.08,1.5-1.42.21-2.87.24-4.31-.09-1.42-.32-2.92-.94-3.97-2.18-.39-.46-.33-1.14.13-1.53.2-.17.43-.25.67-.26h.22c2.25-.06,4.29-.38,6.43-.77,2.12-.43,4.16-.79,6.02-1.48l.42-.16c.56-.21,1.19.08,1.4.64.08.21.09.43.04.64Z"/>
          <path class="f" d="m254.8,635.79c-1.04,1.52-2.43,2.23-3.76,2.78-1.35.55-2.74.82-4.14.95-1.4.1-2.82.07-4.23-.22-1.4-.28-2.84-.77-4.06-1.76-.47-.38-.54-1.07-.16-1.54.18-.22.42-.35.68-.39l.13-.02c2.48-.37,4.79-.67,7.19-.94,2.35-.26,4.83-.4,6.95-.51l.46-.02c.59-.03,1.1.42,1.13,1.01.01.25-.06.48-.19.66Z"/>
          <path class="f" d="m238.26,626.23c-1.13,1.46-2.56,2.08-3.92,2.55-1.38.46-2.78.66-4.19.7-1.41.01-2.82-.1-4.21-.47-1.38-.37-2.79-.94-3.95-2-.45-.41-.48-1.1-.07-1.55.19-.21.45-.33.71-.35h.13c2.5-.24,4.82-.39,7.23-.51,2.36-.12,4.85-.1,6.97-.09h.46c.59,0,1.07.49,1.07,1.08,0,.25-.09.47-.23.65Z"/>
          <path class="f" d="m91.41,656.28c2.12.03,4.61.06,6.97.23,2.4.16,4.73.37,7.22.64h.12c.6.08,1.04.62.97,1.22-.03.28-.17.53-.36.7-1.18,1.04-2.6,1.59-3.99,1.93-1.4.35-2.81.43-4.22.39-1.41-.07-2.81-.29-4.18-.78-1.35-.5-2.77-1.14-3.87-2.62-.35-.48-.26-1.15.22-1.5.2-.15.43-.22.66-.21h.46Z"/>
          <path class="f" d="m108.44,645.51c2.12,0,4.61,0,6.97.15,2.4.14,4.73.31,7.22.56h.12c.6.07,1.04.61.98,1.21-.03.28-.16.53-.36.71-1.17,1.05-2.58,1.62-3.97,1.97-1.39.37-2.81.47-4.21.44-1.41-.05-2.81-.26-4.18-.73-1.35-.48-2.78-1.11-3.9-2.58-.36-.47-.27-1.15.2-1.51.2-.15.43-.22.65-.22h.46Z"/>
          <path class="f" d="m225.33,659.62c-.88,1.67-2.39,2.54-3.8,3.11-1.44.58-2.94.82-4.44.86-1.5,0-3-.17-4.46-.67-1.44-.49-2.89-1.29-3.89-2.6-.37-.48-.27-1.16.2-1.53.23-.17.5-.24.76-.22h.15c2.47.25,4.73.21,7.1.12,2.34-.12,4.7-.2,6.8-.57l.42-.08c.59-.1,1.15.29,1.26.88.04.25,0,.49-.11.69Z"/>
          <path class="f" d="m209.99,673.53c-.88,1.66-2.39,2.54-3.8,3.11-1.44.58-2.94.82-4.44.86-1.5,0-3-.17-4.46-.67-1.44-.49-2.89-1.29-3.89-2.6-.37-.48-.27-1.16.2-1.53.23-.17.5-.24.76-.22h.15c2.47.25,4.73.21,7.1.12,2.34-.12,4.7-.2,6.8-.57l.42-.08c.59-.1,1.15.29,1.26.88.04.25,0,.49-.11.69Z"/>
          <path class="f" d="m256.46,657.99c-1.1,1.48-2.52,2.13-3.87,2.62-1.37.49-2.77.71-4.17.78-1.41.04-2.82-.04-4.22-.39-1.39-.34-2.81-.89-3.99-1.93-.45-.4-.5-1.09-.1-1.55.19-.21.44-.33.7-.36h.13c2.49-.29,4.81-.49,7.22-.65,2.36-.17,4.84-.2,6.97-.23h.46c.59-.01,1.08.46,1.09,1.05,0,.25-.08.47-.21.66Z"/>
          <path class="f" d="m239.42,647.24c-1.12,1.47-2.54,2.1-3.9,2.58-1.37.47-2.78.68-4.18.73-1.41.02-2.82-.08-4.21-.44-1.38-.35-2.8-.92-3.96-1.97-.45-.41-.49-1.1-.08-1.55.19-.21.44-.33.7-.36h.13c2.49-.26,4.82-.43,7.22-.57,2.36-.14,4.85-.14,6.97-.15h.46c.59,0,1.08.48,1.08,1.07,0,.25-.08.47-.22.65Z"/>
        </g>
      </g>
    </g>
  </g>
</svg>