<?xml version="1.0" encoding="UTF-8"?>
<svg id="a" data-name="Lager 1" xmlns="http://www.w3.org/2000/svg" viewBox="0 0 364.86 815.05">
  <defs>
    <style>
      .b {
        fill: #bf986f;
      }

      .c {
        fill: #56853f;
      }

      .d {
        fill: #9c754f;
      }

      .e {
        fill: #75ae58;
      }

      .f {
        fill: #584b41;
      }

      .g {
        fill: #629647;
      }
    </style>
  </defs>
  <path class="c" d="m142.23,168.21s-18.06-4.05-19.16,4.42l.74,12.16,14.37,7.37,12.16-8.84-8.11-15.11Z"/>
  <path class="c" d="m218.61,153.95c-3.09,2.57,63.52-105.45,96.55-132.13,0,0-66.06,106.72-96.55,132.13Z"/>
  <path class="c" d="m214.18,164.57c-1.65,3.66,11.1-122.6,29.17-161.03,0,0-12.83,124.85-29.17,161.03Z"/>
  <path class="c" d="m141.28,156.69c1.77,3.01-21.03-105.03-40.23-136.58,0,0,22.73,106.81,40.23,136.58Z"/>
  <path class="c" d="m208.59,191.07s-7.9-12.42-11.29-33.31c-3.39-20.89-1.13-60.14-1.13-60.14,0,0,16.94,43.2,15.81,62.39s-3.39,31.06-3.39,31.06Z"/>
  <path class="b" d="m194.08,193.08c2.92.98,13.73-8.6,16.19-14.49,2.46-5.9,12.77,1.47,11.3,9.33-1.47,7.86-16.7,22.11-27.51,21.62s.02-16.46.02-16.46Z"/>
  <path class="g" d="m203.76,186.81s1.72,7.86,7.86,8.6c6.14.74,29.17-25.55,29.17-25.55,0,0-19.1,2.7-25.73,6.14-6.63,3.44-11.3,10.81-11.3,10.81Z"/>
  <polygon class="b" points="201.68 668.22 162.17 668.22 169.77 193.08 194.08 193.08 201.68 668.22"/>
  <polygon class="b" points="114.84 400.28 110.73 658.87 150.25 658.87 146.14 400.28 114.84 400.28"/>
  <polygon class="b" points="217.71 476.5 213.61 735.09 253.12 735.09 249.02 476.5 217.71 476.5"/>
  <path class="f" d="m279.2,621.46H87.47s-33.66,92.58-29.92,130c2.42,24.22,23.66,43.73,38.34,54.48,8.13,5.96,17.98,9.11,28.07,9.11h118.77c10.08,0,19.93-3.15,28.07-9.11,14.67-10.75,35.92-30.26,38.34-54.48,3.74-37.42-29.92-130-29.92-130Z"/>
  <path class="b" d="m169.77,193.08s-7.64-2.95-10.96-16.58c-9.58-1.84-11.42,2.21-12.16,11.79-.74,9.58,16.21,27.64,25.79,24.69,9.58-2.95-2.67-19.9-2.67-19.9Z"/>
  <path class="g" d="m151.81,162.37s9.33,15.72,9.83,22.6c.49,6.88-8.84,14.25-14.25,10.81-5.4-3.44-14.74-12.77-11.3-25.06,3.44-12.28,9.83-14.25,15.72-8.35Z"/>
  <path class="c" d="m141.49,182.76S73.2,111.83,12.16,95.25c0,0,76.76,60.74,129.33,87.51Z"/>
  <path class="c" d="m149.23,188.29S113.86,45.69,74.06,13.63c0,0-6.63,51.95,75.17,174.65Z"/>
  <path class="g" d="m139.28,171.71s7.37,11.05,16.95,0C165.81,160.65,134.86,0,134.86,0c0,0-16.21,112.75,4.42,171.71Z"/>
  <path class="g" d="m151.44,181.65S66.32,131.73,0,147.2c0,0,100.59,34.27,151.44,34.45Z"/>
  <path class="g" d="m146.65,188.29S51.95,100.78,34.27,54.35c0,0,87.7,53.24,112.38,133.94Z"/>
  <path class="e" d="m151.44,167.28c-13.39-13.76,8.84-76.27,40.9-126.02,0,0-27.51,139.77-40.9,126.02Z"/>
  <path class="c" d="m208.45,181.9c-2.05-3.22-11.43-141.02-6.35-174.05,0,0,22.87,116.88,21.6,148.64-1.27,31.76-6.35,39.38-15.25,25.41Z"/>
  <path class="e" d="m152.3,171.71S220.1,105.38,223.05,2.21c0,0,10.81,82.54-25.79,139.28-26.45,41.01-44.95,44.95-44.95,30.21Z"/>
  <path class="g" d="m213.53,175.55s-1.27-36.84,96.55-100.37c0,0-71.15,114.34-96.55,100.37Z"/>
  <path class="g" d="m213.67,200.39s129.59-50.82,151.18-86.39c0,0-119.42,50.82-142.29,67.33-22.87,16.52-8.89,19.06-8.89,19.06Z"/>
  <path class="e" d="m151.44,196.02s-108.33-9.95-116.07-18.79c-7.74-8.84,82.91-15.48,116.07,18.79Z"/>
  <path class="c" d="m132.83,378.9c.6,3.44,17.35-105.7,10.5-142,0,0-16.38,107.97-10.5,142Z"/>
  <path class="g" d="m128.6,408.63s39.79,5.53,56.38,19.9c0,0-46.43-5.53-56.38-19.9Z"/>
  <path class="c" d="m131.54,411.58s32.06-21,61.9,0c0,0-49.74-3.32-61.9,0Z"/>
  <path class="g" d="m140.68,387.93s3.19,18,1.23,24.61c-1.96,6.61-13.3,10.22-17.14,5.09-3.84-5.12-9.29-17.15-1.74-27.43,7.55-10.28,14.22-9.87,17.66-2.27Z"/>
  <path class="c" d="m123.83,403.37s-36.09-89.2-69.57-110.08c0,0,29.82,66.49,69.57,110.08Z"/>
  <path class="c" d="m129.13,411.27s17.17-145.91-8.77-189.94c0,0-24.52,46.28,8.77,189.94Z"/>
  <path class="g" d="m125.66,392.25s3,12.94,15.86,5.98c12.86-6.97,40.53-168.22,40.53-168.22,0,0-54.92,99.8-56.39,162.24Z"/>
  <path class="g" d="m133.53,405.84s-56.69-72.15-88.89-80.74c0,0,38.56,79.5,88.89,80.74Z"/>
  <path class="g" d="m126.71,410.36s-46.09-92.96-46.28-142.64c0,0,51.62,58.43,46.28,142.64Z"/>
  <path class="g" d="m141.49,407.03c-10.06-3.35,41.27-47.16,89.41-58.46,0,0-76.15,62.89-89.41,58.46Z"/>
  <path class="e" d="m131.97,406.4c-7.68-17.59,35.16-68.26,82.7-103.51,0,0-75.02,121.1-82.7,103.51Z"/>
  <path class="g" d="m119.02,408.63s-39.79,5.53-56.38,19.9c0,0,46.43-5.53,56.38-19.9Z"/>
  <path class="e" d="m128.47,419.29s-97.87-47.5-101.99-58.5,83.04,14.74,101.99,58.5Z"/>
  <path class="g" d="m217.34,160.3S244.02,39.61,274.51,2.76c0,0-16.99,125.41-59.14,168.39-.44.45,2.42-11.28,1.97-10.85Z"/>
  <path class="e" d="m208.45,181.9s83.85-69.88,148.64-96.55c0,0-69.88,77.5-148.64,96.55Z"/>
  <path class="c" d="m116.07,411.58s-32.06-21-61.9,0c0,0,49.74-3.32,61.9,0Z"/>
  <path class="c" d="m228.32,483.18c-.6,3.11-18.02-79.71-11.17-112.5,0,0,17.05,81.76,11.17,112.5Z"/>
  <path class="g" d="m232.55,510.04s-39.79,4.99-56.38,17.98c0,0,46.43-4.99,56.38-17.98Z"/>
  <path class="c" d="m229.61,512.7s-32.06-18.97-61.9,0c0,0,49.74-3,61.9,0Z"/>
  <path class="g" d="m220.47,491.34s-3.19,16.26-1.23,22.23c1.96,5.97,13.3,9.23,17.14,4.6,3.84-4.63,9.29-15.49,1.74-24.78-7.55-9.29-14.22-8.92-17.66-2.05Z"/>
  <path class="c" d="m237.32,505.29s36.09-80.58,69.57-99.44c0,0-29.82,60.07-69.57,99.44Z"/>
  <path class="c" d="m232.02,512.43s-12.69-97.75,7.55-146.9c0,0,20.81,39.11-7.55,146.9Z"/>
  <path class="g" d="m232.87,497.92s-.38,9.01-13.25,2.71-21.64-97.53-21.64-97.53c0,0,33.41,38.41,34.88,94.82Z"/>
  <path class="g" d="m227.62,507.52s56.69-65.18,88.89-72.94c0,0-38.56,71.82-88.89,72.94Z"/>
  <path class="g" d="m234.44,511.6s46.09-83.98,46.28-128.87c0,0-51.62,52.78-46.28,128.87Z"/>
  <path class="g" d="m219.66,508.6c10.06-3.03-41.27-42.61-89.41-52.82,0,0,76.15,56.81,89.41,52.82Z"/>
  <path class="e" d="m229.18,508.02c7.68-15.89-15.59-35.74-63.13-67.58,0,0,55.45,83.47,63.13,67.58Z"/>
  <path class="g" d="m242.13,510.04s39.79,4.99,56.38,17.98c0,0-46.43-4.99-56.38-17.98Z"/>
  <path class="e" d="m232.68,519.67s97.87-42.91,101.99-52.85c4.12-9.94-83.04,13.32-101.99,52.85Z"/>
  <path class="c" d="m245.08,512.7s32.06-18.97,61.9,0c0,0-49.74-3-61.9,0Z"/>
  <path class="g" d="m218.75,191.71s61.55-18.07,85.83-1.13c0,0-75.1,8.47-85.83,1.13Z"/>
  <path class="g" d="m206.71,190.67s51.85.37,66.69,19.14c0,0-60.1-10.96-66.69-19.14Z"/>
  <path class="d" d="m182.77,219.37c-.57-.28-1.02-.35-1.65-.38-.46-.02-.93-.03-1.39-.04-1.04-.03-2.09-.12-3.13-.08-.98.04-1.99.05-2.96.18-1.04.14-2.12.08-3.17.1-.5,0-.47.7,0,.76,1.02.13,2.06.22,3.06.45.96.22,1.94.37,2.92.52,1.01.15,2.04.19,3.05.28,1,.08,2.08.32,3.04-.01.72-.25,1.04-1.38.23-1.77Z"/>
  <path class="d" d="m191.86,255.83c-1.96-.49-4-.88-6.02-.92-1.04-.02-2.12-.04-3.15.12-.96.15-2.19.25-2.95.89-.67.57-.22,1.55.48,1.8.49.18,1.04.06,1.56.02.43-.03.85-.03,1.28-.05.93-.05,1.85-.16,2.78-.17,1.84-.03,3.66-.03,5.49.23.53.08,1.07-.13,1.23-.7.14-.51-.17-1.09-.7-1.23Z"/>
  <path class="d" d="m190.18,298.99c-1.19-.74-2.85-.75-4.21-.94-1.51-.21-3.03-.36-4.55-.47-1.47-.11-2.93-.23-4.4-.08-1.53.15-3.05.29-4.58.43-.7.06-.71,1.04,0,1.09,1.5.12,2.98.3,4.46.58,1.43.27,2.89.33,4.35.47,1.46.14,2.92.32,4.38.49,1.38.16,2.93.63,4.3.33.9-.2.97-1.45.25-1.9Z"/>
  <path class="d" d="m190.61,317.47c-1.67-.22-3.45.18-5.11.37-1.64.19-3.29.34-4.93.53-3.36.39-6.71.88-10.08,1.19-.88.08-.92,1.39,0,1.4,3.43.04,6.85.13,10.28-.08,1.71-.1,3.42-.28,5.13-.45,1.64-.16,3.46-.22,5.01-.85,1.16-.47.94-1.96-.29-2.12Z"/>
  <path class="d" d="m186.56,358.64c-1.07.03-2.13.19-3.19.3-.59.06-1.16.19-1.74.3-.58.11-1,.26-1.55.43-.4.12-.67.51-.6.92.07.44.4.68.83.73.58.06,1.02.13,1.63.13.52,0,1.04.02,1.56-.02,1.13-.09,2.27-.15,3.4-.33.62-.1.98-.82.9-1.38-.08-.6-.61-1.11-1.24-1.09Z"/>
  <path class="d" d="m193.56,395.16c-2.15-.13-4.38.14-6.53.27-2.17.13-4.35.29-6.52.48-4.26.37-8.43.98-12.63,1.75-.54.1-.42.99.13.96,4.25-.22,8.5-.4,12.75-.63,2.09-.11,4.18-.21,6.27-.27,2.16-.07,4.38.05,6.53-.18,1.51-.16,1.56-2.29,0-2.39Z"/>
  <path class="d" d="m195.32,433.95c-2.06-.54-4.31-.35-6.42-.29-2.3.07-4.61.21-6.91.38-4.44.34-8.82.93-13.19,1.8-.84.17-.67,1.59.2,1.52,4.41-.36,8.83-.67,13.24-.88,2.22-.11,4.43-.16,6.65-.19,2.12-.03,4.35.15,6.42-.33,1.01-.24.97-1.75,0-2Z"/>
  <path class="d" d="m189.73,497.94c-.67-.6-1.49-.73-2.33-.98-.95-.29-1.85-.52-2.84-.68-1.91-.32-3.83-.55-5.76-.72-1.94-.17-3.89-.29-5.84-.29-1.87,0-3.84-.03-5.65.47-.74.2-.79,1.37,0,1.54,1.84.41,3.77.38,5.65.5,1.81.12,3.62.24,5.43.43,1.82.19,3.63.45,5.44.72.96.14,1.87.27,2.84.34.9.06,1.81.35,2.68.08.57-.18.86-.97.37-1.41Z"/>
  <path class="d" d="m198.23,547.15c-2.23-.71-5.09-.32-7.41-.26-2.59.07-5.18.21-7.76.31-5.2.21-10.35.58-15.53,1.09-.9.09-.94,1.4,0,1.43,5.18.18,10.34.21,15.53.08,2.59-.06,5.18-.1,7.76-.19,2.3-.09,5.24.11,7.41-.73.81-.31.89-1.45,0-1.73Z"/>
  <path class="d" d="m194.03,587.73c-2.21-.15-4.52.45-6.72.65-2.25.21-4.51.37-6.77.44-2.26.06-4.52.05-6.78-.06-2.19-.1-4.58-.61-6.75-.36-.89.1-1.06,1.21-.21,1.54,2.08.81,4.75.79,6.96.94,2.26.15,4.52.22,6.78.2,2.26-.02,4.52-.11,6.77-.32,2.25-.21,4.88-.27,6.98-1.15.97-.41.88-1.8-.25-1.87Z"/>
  <path class="d" d="m164.56,195.96c-.05-.61-.04-1.19-.48-1.65-.38-.39-.95-.24-1.23.16-.32.44-.23.97-.24,1.49,0,.49,0,.98-.06,1.47-.11,1.02-.15,2.04-.29,3.05-.28,2.04-.61,4.05-1.22,6.02-.26.83,1.07,1.43,1.44.61.9-2.02,1.67-4.13,1.96-6.33.14-1.08.26-2.19.21-3.28-.02-.51-.04-1.02-.08-1.54Z"/>
  <path class="d" d="m205.11,198.8c-.43-.12-.86-.3-1.31-.31-.41-.01-.83.06-1.23.08-.85.04-1.7.01-2.55-.07-1.63-.16-3.21-.49-4.75-1.06-.94-.35-1.55,1.15-.68,1.62,1.58.85,3.32,1.55,5.1,1.86.92.16,1.85.26,2.79.29.44.01.88.02,1.32-.02.57-.06,1.05-.35,1.53-.64.7-.42.57-1.53-.23-1.74Z"/>
  <path class="d" d="m193.26,447.79c-.43-.07-.86-.14-1.3-.2-.53-.08-1.06-.05-1.59-.05-.9.01-1.8.03-2.7.04-.67,0-1.31.58-1.28,1.28.03.7.56,1.27,1.28,1.28.9.01,1.8.03,2.7.04.52,0,1.03.03,1.54-.04.45-.06.9-.14,1.35-.21.46-.07.83-.63.81-1.07-.02-.45-.33-.99-.81-1.07Z"/>
  <path class="d" d="m193.49,572.38c-.16-.38-.48-.54-.87-.59-.02,0-.04,0-.05,0-.07-.04-.14-.08-.22-.1-.27-.06-.5-.04-.77,0-.09.01-.18.03-.27.05-.06,0-.12.02-.18.03.29-.04.23-.03-.18.02-.15.02-.39.12-.54.09.2-.03.23-.03.08-.01-.06,0-.12.01-.18.02-.09,0-.18.02-.27.02-.39.03-.79.03-1.18.02-.21,0-.42-.04-.63-.05-.28-.01-.57.06-.85.11-.45.07-.78.56-.83.97-.06.44.14.95.56,1.16.1.05.2.1.3.15.26.12.46.18.73.21.21.03.42.05.63.06.44.03.88.03,1.32,0,.51-.03,1.03-.08,1.53-.18.21-.04.41-.1.61-.16.25-.08.5-.19.69-.38.07-.07.11-.15.16-.22.07-.06.15-.12.22-.19.28-.25.34-.71.2-1.04Z"/>
  <path class="d" d="m174.22,575.66c-.29-.14-.51-.17-.83-.16-.21,0-.42.02-.64.03-.48.02-.95.05-1.43.11-.94.1-1.87.21-2.81.31-.39.04-.73.3-.73.73,0,.37.33.76.73.73.94-.07,1.87-.15,2.81-.22.49-.04.98-.1,1.47-.17.47-.07,1.03-.06,1.42-.34.32-.24.44-.81,0-1.02Z"/>
  <path class="d" d="m250.06,610.28c-5.22-.47-10.33-.71-15.57-.45-2.55.12-5.09.3-7.64.46-2.29.15-5.05-.08-7.17.89-.7.32-.42,1.31.2,1.51,2.19.73,4.99.18,7.27.11,2.64-.08,5.29-.12,7.93-.23,5.09-.2,10.06-.77,15.09-1.5.48-.07.31-.76-.11-.8Z"/>
  <path class="d" d="m243.31,553.04c-1.87-.23-3.87-.02-5.76,0-1.92.02-3.84.04-5.76.06-3.76.04-7.56-.04-11.28.54-.71.11-.71,1.32,0,1.43,3.72.58,7.52.5,11.28.54,1.92.02,3.84.04,5.76.06,1.88.02,3.89.23,5.76,0,1.69-.21,1.7-2.43,0-2.64Z"/>
  <path class="d" d="m243.55,527.86c-1.05-.1-2.08-.05-3.13,0-1.04.05-2.09.1-3.13.16-.5.03-.93.41-.93.93s.42.9.93.93c1.04.05,2.09.11,3.13.16,1.05.05,2.08.1,3.13,0,.56-.05,1.11-.46,1.08-1.08-.03-.63-.47-1.02-1.08-1.08Z"/>
  <path class="d" d="m228.16,530.65c-.46-.49-1.23-.45-1.86-.52-.47-.06-.95-.08-1.43-.11-.46-.03-.92-.04-1.37-.06-.23,0-.46-.03-.69-.02-.25.02-.49.06-.74.09-.41.05-.74.27-.8.71-.06.42.2.75.58.89.44.16.85.3,1.31.39.47.09.93.18,1.4.26.52.09,1.05.18,1.57.24.58.07,1.26.26,1.79-.08.62-.41.75-1.24.23-1.79Z"/>
  <path class="d" d="m226.31,585.35c-.17-.26-.39-.4-.67-.52-1.63-.69-3.48-.48-5.04.28-.45.22-.59.82-.41,1.24.18.42.71.75,1.18.58.33-.12.67-.2,1.01-.27.02,0,0,0,.02,0,.02,0,.05,0,.07,0,.07,0,.15-.01.22-.02.17-.01.35-.01.52,0,.08,0,.15,0,.23.01.08,0,.41.07.07,0,.17.04.34.06.52.09.35.06.68.15,1.01.27.55.2,1.25-.23,1.38-.78.07-.29.05-.61-.11-.87Z"/>
  <path class="d" d="m245.24,585.35c-.48-.41-.91-.4-1.52-.45-.47-.04-.94-.09-1.41-.11-1.06-.06-2.12-.03-3.18-.01l-6.25.11c-1.34.02-1.34,2.05,0,2.08l6.25.11c1.02.02,2.04.03,3.07-.01.51-.02,1.02-.07,1.53-.12.59-.05,1.05-.04,1.52-.45.32-.27.32-.88,0-1.15Z"/>
  <path class="d" d="m123.03,429.04c-.4-.08-.81-.1-1.22-.14-.43-.03-.87.03-1.29.09-.33.05-.66.11-.99.16-.15.02-.31.05-.46.07-.18.03-.34.1-.51.16-.57.2-.95.7-.86,1.32.03.25.14.51.33.69.25.23.52.32.85.35.66.07,1.34,0,2.01-.07.42-.04.87-.09,1.27-.22.38-.13.77-.24,1.14-.42.39-.19.58-.7.53-1.1-.05-.41-.37-.83-.79-.92Z"/>
  <path class="d" d="m144.6,430c-.39-.48-.97-.46-1.54-.51l-1.55-.13c-.96-.08-1.92-.16-2.88-.19-2-.07-3.98-.13-5.98-.09-.53.01-.98.44-.98.98,0,.59.45.92.98.98,1.99.25,3.98.4,5.98.54.96.06,1.92.09,2.88.11l1.55.03c.59.01,1.09.04,1.54-.41.38-.38.32-.92,0-1.31Z"/>
  <path class="d" d="m137.93,466.89c-1.2-.82-3-.56-4.39-.6-1.65-.05-3.3.01-4.94.03-3.24.04-6.47.27-9.7.48-.92.06-.92,1.37,0,1.43,3.23.22,6.46.45,9.7.48,1.58.02,3.18.08,4.76.04,1.44-.04,3.34.24,4.58-.61.47-.32.47-.94,0-1.26Z"/>
  <path class="d" d="m140.38,510.86c-1.83-.74-4.27-.62-6.23-.72-2.21-.11-4.42-.14-6.64-.07-2.13.07-4.26.22-6.39.43-2.19.22-4.19.73-6.29,1.38-.75.23-.62,1.37.19,1.38,2.14.02,4.22.05,6.35-.08,2.13-.14,4.26-.2,6.39-.2,2.13,0,4.27.05,6.39.16,2.02.1,4.23.59,6.23.26,1.44-.24,1.05-2.12,0-2.54Z"/>
  <path class="d" d="m143.95,550.16c-8.83-.45-17.69-.23-26.53-.09-1.71.03-1.72,2.66,0,2.67,8.84.03,17.7.15,26.53-.41,1.39-.09,1.4-2.09,0-2.16Z"/>
  <path class="d" d="m141.08,599.29c-.66-.71-1.54-.75-2.46-.87-1.12-.15-2.25-.25-3.37-.37-2.09-.21-4.18-.4-6.27-.56-4.32-.34-8.72-.63-13.05-.34-1.31.09-1.25,1.84,0,1.99,4.24.53,8.54.67,12.81.93,2.09.13,4.18.28,6.27.45,1.04.09,2.09.19,3.13.27.96.07,1.96.26,2.79-.32.41-.28.5-.81.15-1.19Z"/>
  <path class="d" d="m120.47,575.72c-.13-.22-.36-.34-.61-.35-.2,0-.39-.02-.58.05-.15.06-.29.11-.44.15-.26.07-.52.13-.79.17-.37.04-.75.04-1.13,0-.2-.02-.46.11-.6.25-.15.15-.26.39-.25.6,0,.22.08.44.25.6.18.16.36.22.6.25.6.08,1.19.04,1.78-.07.26-.05.51-.11.75-.2.18-.07.37-.13.54-.22.2-.11.33-.33.46-.51.14-.2.12-.51,0-.71Z"/>
  <path class="d" d="m139.53,574.76c-1.22.1-2.43.2-3.65.33-2.49.27-4.95.56-7.41,1.01-1.03.19-.76,1.78.24,1.79,2.45.02,4.86-.11,7.3-.27,1.22-.08,2.43-.19,3.65-.3,1.01-.09,3.29,0,3.07-1.59-.2-1.5-2.19-1.04-3.2-.96Z"/>
  <path class="d" d="m142.27,528.4c-.49-.08-.99-.15-1.49-.16-.46-.02-.97-.03-1.42.07-.43.1-.86.31-1.26.51-.41.2-.98.45-1.09.94-.06.27.05.49.26.65.35.25.88.12,1.29.11.37,0,.74.05,1.11.03.37-.02.74-.08,1.12-.08.4,0,.8.02,1.2.07.24.03.6-.14.76-.32.16-.18.26-.38.3-.62.07-.49-.24-1.1-.77-1.19Z"/>
  <path class="d" d="m130.68,528.29c-2.29-.29-4.58-.47-6.89-.49-1.12,0-2.25.05-3.38.11-1.2.07-2.47.08-3.59.52-.41.16-.88.46-.95.95-.04.25-.08.47,0,.72.14.43.48.86.95.95,1.2.23,2.39.09,3.59,0,1.12-.07,2.25-.11,3.38-.16,2.29-.11,4.59-.2,6.89-.22.64,0,1.19-.54,1.19-1.19,0-.71-.55-1.11-1.19-1.19Z"/>
  <path class="d" d="m142.79,488.02c-.79-.14-1.58-.2-2.38-.11-.26.03-.52.05-.77.13-.24.08-.48.17-.7.28-.15.07-.3.17-.44.27-.24.17-.47.33-.62.59-.28.49-.02,1.09.51,1.25.23.07.45.05.69.04.17,0,.34,0,.51-.02.17-.02.34-.02.52-.03.18-.01.36-.05.54-.08.61-.07,1.22-.08,1.84,0,.27.03.66-.15.83-.35.18-.19.29-.41.32-.68.07-.53-.27-1.19-.84-1.29Z"/>
  <path class="d" d="m132.88,488.87c-1.5-.31-2.98-.61-4.52-.75-1.47-.13-2.97-.13-4.45-.12-1.49,0-2.96.11-4.44.26-.78.08-1.57.17-2.35.3-.75.13-1.54.16-2.04.8-.48.6-.4,1.28.22,1.74.66.49,1.43.31,2.19.27.66-.04,1.31-.1,1.97-.15,1.48-.11,2.96-.18,4.44-.25,1.43-.07,2.85-.07,4.28-.1,1.48-.03,2.95-.17,4.44-.21.99-.03,1.29-1.58.24-1.79Z"/>
  <path class="d" d="m124.2,613.75c-.14-.42-.52-.76-.98-.75-.32,0-.65.1-.97.15-.25.04-.5.08-.75.13-.25.05-.49.14-.73.21l-.73.22c-.28.08-.55.28-.7.54-.15.25-.21.62-.12.9.19.6.8.99,1.43.81.24-.07.49-.13.73-.2.24-.07.5-.12.73-.21.24-.09.47-.19.71-.28.29-.12.63-.21.9-.37.37-.22.6-.72.47-1.15Z"/>
  <path class="d" d="m142.65,612.92c-1.5-.39-3.18-.18-4.7.01-1.56.2-3.1.49-4.62.92-.63.18-1.02.85-.84,1.48.18.65.85.99,1.48.84,1.38-.31,2.74-.52,4.15-.62,1.5-.11,3.04.03,4.53-.22.53-.09.92-.7.92-1.21,0-.54-.39-1.07-.92-1.21Z"/>
  <path class="d" d="m191.92,278.72c-1.25-.17-2.5-.29-3.77-.32-1.28-.03-2.58-.04-3.84.25-.74.17-1.19.95-1.09,1.67.09.7.74,1.37,1.49,1.32.67-.05,1.35-.15,2.01-.26.24-.04.48-.08.72-.11.06,0,.19-.02.23-.03.16-.02.32-.03.47-.05,1.15-.1,2.3-.13,3.45-.1.6.02,1.11-.47,1.19-1.05.07-.53-.27-1.24-.86-1.32Z"/>
</svg>