<?xml version="1.0" encoding="UTF-8"?>
<svg xmlns="http://www.w3.org/2000/svg" viewBox="0 0 569.66 692.08">
  <defs>
    <style>
      .b {
        fill: #4b5b36;
      }

      .c, .d {
        fill: #b37d56;
      }

      .e {
        fill: #626b3d;
      }

      .f {
        isolation: isolate;
      }

      .g {
        fill: #a46b47;
      }

      .h {
        fill: #764b42;
      }

      .d {
        mix-blend-mode: multiply;
        opacity: .5;
      }

      .i {
        fill: #b5a58f;
      }

      .j {
        fill: #617e45;
      }
    </style>
  </defs>
  <g class="f">
    <g id="a" data-name="Lager 1">
      <g>
        <g>
          <path class="h" d="m295.81,375.09c65.98,0,82.57,1.9,87.9,2.74,1.57.25.74-.11,2.08,2.72,1.15,2.42-41.56,7.39-89.98,7.39s-91.14-4.96-89.99-7.39c1.35-2.83.51-2.47,2.08-2.72,5.33-.85,21.93-2.74,87.9-2.74Z"/>
          <g>
            <g>
              <path class="e" d="m182.71,35.95c-1.12,1.84-1.28,3.83-1.51,5.79l-.72,5.9c-.31,3.95-.51,7.91-.77,11.87-.12,3.96-.08,7.94-.08,11.91.11,3.97.42,7.93.62,11.9,1.23,15.85,4.18,31.52,8.04,46.93,1,3.84,2.1,7.66,3.13,11.5l3.42,11.42,3.75,11.31,4.02,11.21c5.52,14.89,11.62,29.53,17.81,44.08,6.22,14.54,12.32,29.09,18.17,43.65,5.82,14.57,11.28,29.22,15.87,44.02,1.11,3.71,2.2,7.41,3.24,11.14.96,3.74,1.85,7.48,2.68,11.23.76,3.76,1.37,7.55,2.04,11.31l1.51,11.32c.33,3.78.71,7.53,1.12,11.28.21,3.76.51,7.49.86,11.21.07,1.87.15,3.73.27,5.59.11,1.86.18,3.72.48,5.58.19,1.86.53,3.71,1.09,5.58.57,1.87,1.31,3.75,2.54,5.67l.4.63c2.84,4.44,8.73,5.74,13.17,2.9,1.29-.83,2.34-1.95,3.08-3.19,1.2-2.03,1.91-4.09,2.45-6.17.53-2.08.84-4.17,1-6.26.07-2.08-.12-4.16-.25-6.23-.13-2.08-.3-4.15-.48-6.22-.54-4.12-1.16-8.22-1.85-12.3-.89-4.04-1.77-8.08-2.76-12.08l-3.43-11.83-3.86-11.61c-1.42-3.81-2.7-7.65-4.06-11.46l-4.24-11.33c-11.66-30.03-26.5-58.11-40.51-86.35-6.97-14.14-13.82-28.29-20.09-42.69l-4.58-10.84-4.32-10.94-4-11.06c-1.19-3.73-2.41-7.46-3.55-11.21-4.52-15.02-7.65-30.45-9.18-46.06-.27-3.91-.66-7.81-.84-11.73-.05-3.92-.25-7.84-.26-11.76.13-3.92.18-7.85.36-11.77l.51-5.87c.18-1.96.42-3.9-.29-5.98Z"/>
              <g>
                <g>
                  <path class="j" d="m144.1.27c14.51-1.91,41.81,17.72,37.71,38.02-19.14,2.89-41-23.24-37.71-38.02Z"/>
                  <path class="j" d="m128.48,40.92c10.99-9.67,44.59-8.57,52.5,10.57-14.29,13.07-47,3.54-52.5-10.57Z"/>
                  <path class="b" d="m121.42,71.35c9.57-13.19,46.16-19.95,59.28-.88-12.33,17.69-49.97,15.02-59.28.88Z"/>
                  <path class="j" d="m120.52,96.34c9.86-15.22,49.16-20.35,62.57.09-12.69,20.42-52.48,16.59-62.57-.09Z"/>
                  <path class="j" d="m121.84,135.49c21.07-22.51,47.75-28.73,66.72-12.98-10.89,23.71-42.14,28.9-66.72,12.98Z"/>
                  <path class="j" d="m129.24,168.58c20.84-23.92,48.09-31.84,68.24-17.24-10.3,24.48-42.29,31.65-68.24,17.24Z"/>
                  <path class="b" d="m141.51,206.53c13.02-26.14,43.16-36.64,66.25-25.57-7.46,25.62-38.63,36.7-66.25,25.57Z"/>
                  <path class="j" d="m153.05,236.15c17.18-27.82,43.6-40.03,66.61-27.86-6.35,26.86-37.73,38.98-66.61,27.86Z"/>
                </g>
                <g>
                  <path class="j" d="m220.16.12c-14.52-1.86-41.74,17.88-37.56,38.17,19.16,2.82,40.91-23.4,37.56-38.17Z"/>
                  <path class="b" d="m232.65,36.08c-11.86-8.59-45.2-4.3-51.26,15.51,15.46,11.65,47.12-.94,51.26-15.51Z"/>
                  <path class="j" d="m240.3,64c-11.12-11.91-48.27-14.11-58.93,6.44,14.42,16.03,51.44,8.74,58.93-6.44Z"/>
                  <path class="b" d="m246.17,88.5c-11.66-13.89-51.29-14.13-62.08,7.8,15.11,18.7,54.12,10,62.08-7.8Z"/>
                  <path class="j" d="m255.14,105.91c-28.6-11.52-55.42-5.9-65.97,16.38,19.88,16.9,50.39,8.42,65.97-16.38Z"/>
                  <path class="b" d="m264.67,127.71c-30.57-8.49-57.67-.1-66.45,23.18,22.08,14.76,52.73,3.13,66.45-23.18Z"/>
                  <path class="j" d="m272.78,149.25c-28.05-8.12-56.19,6.94-63.68,31.43,23.9,11.86,53.17-3.56,63.68-31.43Z"/>
                  <path class="j" d="m290.3,192.04c-30.05-12.9-58.69-7.71-70.53,15.47,20.63,18.33,53.28,10.22,70.53-15.47Z"/>
                </g>
              </g>
            </g>
            <g>
              <path class="e" d="m518.74,152.01c-.96,1.7-.94,3.4-1.01,5.11-.06,1.7-.14,3.4-.3,5.1l-.4,5.09-.55,5.07-.28,2.53-.37,2.52c-.26,1.68-.46,3.36-.75,5.04-.61,3.34-1.19,6.68-1.99,9.97-3,13.2-7.81,26.01-14.77,37.53-6.92,11.55-15.92,21.68-26.08,30.37-10.17,8.73-21.56,15.93-33.36,22.44-11.81,6.53-24.15,12.23-36.51,18.31-12.35,6.07-24.89,12.39-36.74,20.79-5.92,4.18-11.58,9-16.94,14.38-2.67,2.7-5.2,5.61-7.61,8.67-2.31,3.13-4.58,6.37-6.44,9.86-3.83,6.92-9.43,17.42-10.76,25.13-.6,3.86-1.18,7.72-1.06,11.57.14,1.91.41,3.84.97,5.71.61,1.87,1.4,3.71,2.67,5.48,3.16,4.41,9.31,5.43,13.72,2.26.91-.65,1.67-1.43,2.29-2.29l.63-.9c1.16-1.65,1.84-3.22,2.34-4.77.54-1.54.93-3.04,1.12-4.54.25-1.49.34-2.96.43-4.45l.46-4.39c.74-5.81,1.95-11.43,3.84-16.93,1.9-5.48,7.42-13.74,11.07-18.66,3.57-4.98,8.05-9.46,12.97-13.6,9.85-8.32,21.25-15.47,32.94-22.39,11.72-6.9,23.72-13.73,35.39-21.23,11.67-7.49,22.96-15.84,33.03-25.56,10.08-9.69,18.71-20.92,25.28-33.19,6.59-12.26,11.29-25.44,14.02-38.97,1.44-6.75,2.38-13.6,2.92-20.46l.37-5.15.17-5.15c.08-1.72.08-3.43.07-5.15,0-1.72.08-3.44-.81-5.15Z"/>
              <g>
                <g>
                  <path class="j" d="m484.56,115.97c14.05-.92,38.99,19.65,33.78,38.87-18.55,1.56-37.87-24.9-33.78-38.87Z"/>
                  <path class="b" d="m467.59,158.09c11.16-8.59,43.33-5.4,49.7,13.47-14.54,11.63-45.32.42-49.7-13.47Z"/>
                  <path class="j" d="m458.67,181.63c12.65-9.25,48.14-4.65,54.51,16.68-16.5,12.55-50.16-.99-54.51-16.68Z"/>
                  <path class="j" d="m444.24,201.04c27.74,4.37,46.1,28.97,42.63,53.36-25.66.57-44.84-24.8-42.63-53.36Z"/>
                  <path class="b" d="m420.15,214.99c29.59,10.64,46.33,33.07,39.46,57.13-26.54-.64-44.18-27.75-39.46-57.13Z"/>
                  <path class="b" d="m455.33,196.38c14.64-7.16,47.28,7.1,48.14,29.05-19.22,9.85-48.1-11.53-48.14-29.05Z"/>
                  <path class="j" d="m393.77,231.42c30.13,9.02,48.05,30.51,42.5,54.91-25.31,2.74-42.7-23.44-42.5-54.91Z"/>
                  <path class="j" d="m366.56,247.25c30.13,9.02,48.05,30.51,42.5,54.91-25.31,2.74-42.7-23.44-42.5-54.91Z"/>
                </g>
                <g>
                  <path class="b" d="m557.54,120.65c-13.82-2.7-41.18,14.51-38.46,34.24,18.2,3.92,40.74-19.86,38.46-34.24Z"/>
                  <path class="j" d="m567.85,160.05c-10.83-8.99-43.1-6.99-50.17,11.63,14.1,12.16,45.28,2.09,50.17-11.63Z"/>
                  <path class="j" d="m569.66,209.96c-6.67-14.18-40.02-27.15-55.84-11.49,8.47,18.92,44.5,23.17,55.84,11.49Z"/>
                  <path class="j" d="m554.4,248.24c-2.55-16.1-32.95-34.64-51.42-22.75,2.97,21.39,37.05,32.76,51.42,22.75Z"/>
                  <path class="b" d="m537.56,296.04c-4.37-27.74-28.97-46.1-53.36-42.63-.57,25.66,24.8,44.84,53.36,42.63Z"/>
                  <path class="j" d="m507.94,324.95c-3.92-31.2-22.16-52.43-47.14-50.97-5.17,26.04,17.44,49.17,47.14,50.97Z"/>
                  <path class="b" d="m466.27,351.91c6.07-30.86-4.59-56.74-28.77-63.19-14.23,21.11.83,48.7,28.77,63.19Z"/>
                  <path class="j" d="m439.05,367.75c6.07-30.86-4.59-56.74-28.77-63.19-14.23,21.11.83,48.7,28.77,63.19Z"/>
                </g>
              </g>
            </g>
            <g>
              <g>
                <path class="b" d="m295.18,189.03c31.9,1.87,55.13,18.61,56.1,43.54-25.8,6.83-51.38-14.13-56.1-43.54Z"/>
                <path class="b" d="m321.88,148.82c31.27,5.36,52.21,24.51,50.21,49.31-26.27,3.93-49.03-19.66-50.21-49.31Z"/>
                <path class="b" d="m351.83,121.45c24.72,4.43,44.9,31.56,34.64,52.49-26.04-1.62-43.08-25.59-34.64-52.49Z"/>
                <path class="b" d="m375.63,101.49c18.13.35,42.51,24.62,32.21,46.8-24.04-.02-40.2-27.68-32.21-46.8Z"/>
                <path class="b" d="m395.2,81.76c16.3.23,41.91,25.49,33.86,47.19-21.56.1-40.07-31.44-33.86-47.19Z"/>
                <path class="b" d="m428.6,63.39c15.75,3.83,29.68,34.36,17.04,50.77-18.45-5.86-26.53-38.96-17.04-50.77Z"/>
                <path class="b" d="m485.51,53.54c6.35,13.19-3.77,45.25-24.34,47.7-8.73-17.28,9.27-46.21,24.34-47.7Z"/>
              </g>
              <path class="e" d="m464.7,96.97c-1.95-.03-3.29,1.11-4.68,2.15l-4.18,3.1-4.18,3.1c-1.38,1.06-2.73,2.18-4.1,3.26l-8.17,6.58-7.98,6.91c-10.58,9.31-20.9,19.09-30.83,29.46-9.96,10.32-19.64,21.12-28.65,32.76-9.01,11.62-17.45,23.97-25.09,37.05-15.39,26.08-27.38,55.25-35.67,85.72-1.1,3.79-1.95,7.64-2.99,11.46-.91,3.84-1.92,7.67-2.88,11.51-1.86,7.68-3.86,15.38-5.49,23.12-1.7,7.74-3.05,15.52-3.97,23.29-.23,1.94-.45,3.88-.64,5.83-.18,1.94-.41,3.87-.35,5.82.04,1.96.28,3.92.78,5.9.51,1.98,1.22,3.97,2.52,6,4.41,6.93,12.83,8.15,18.82,2.72.38-.34.74-.7,1.08-1.08l.08-.09c1.61-1.79,2.63-3.62,3.45-5.47.81-1.85,1.37-3.71,1.74-5.57.39-1.87.49-3.76.64-5.64.17-1.87.3-3.75.43-5.63.24-3.76.48-7.49.62-11.25.22-3.72.25-7.5.41-11.22.23-7.49.51-14.96,1.17-22.4.31-3.72.74-7.41,1.24-11.1l.85-5.5c.28-1.84.58-3.67.93-5.48,2.61-14.59,6.01-29.02,10.44-43.1,4.45-14.06,9.86-27.8,16.25-40.97,12.7-26.43,29.16-50.58,47.67-72.34,9.24-10.92,19.31-20.84,29.57-30.44l7.76-7.11,7.91-6.88,3.95-3.45,4.01-3.36,4.01-3.36c1.34-1.11,2.73-2.13,3.51-4.3Z"/>
              <g>
                <path class="j" d="m454.05,48.6c12.68,7.31,22.39,39.5,6.78,53.12-16.95-9.35-18.39-43.39-6.78-53.12Z"/>
                <path class="j" d="m413.35,71.24c14.64.28,38.69,23.77,31.6,43.23-19.36,0-37.07-29.11-31.6-43.23Z"/>
                <path class="j" d="m382.98,93.61c16.63-3.88,46.72,13.59,44.17,36.6-20.89,5.32-46.37-19.81-44.17-36.6Z"/>
                <path class="j" d="m361.28,114.27c16.93-6.5,48.85,10.16,47.66,34.57-22.27,9.03-49.32-15.15-47.66-34.57Z"/>
                <path class="j" d="m337.36,132.67c30.81,1.33,49.21,16.04,49.62,40.69-25.09,7.18-45.68-11.67-49.62-40.69Z"/>
                <path class="j" d="m307.26,167.7c31.35-4.84,57.29,6.67,63.27,30.82-23.66,12.07-52.74-3.08-63.27-30.82Z"/>
                <path class="j" d="m284.57,208.49c30.94-8.01,58.18.8,66.76,24.23-22.45,14.42-53.23,2.31-66.76-24.23Z"/>
              </g>
            </g>
            <g>
              <g>
                <path class="b" d="m144.57,241.1c-14.21,19.11-15.77,40.39-2,52.88,16.25-11.46,16.53-36.1,2-52.88Z"/>
                <path class="b" d="m113.38,241.23c-9.52,21.64-6.22,42.52,10.01,51.47,13.24-14.71,7.93-38.55-10.01-51.47Z"/>
                <path class="b" d="m89.45,245.54c-9.1,21.1-5.4,41.17,11,49.44,12.95-14.5,7.19-37.38-11-49.44Z"/>
                <path class="b" d="m65.83,255.4c-7.98,10.91-1.11,39.63,16.69,43.53,10.84-14.26-2.39-40.94-16.69-43.53Z"/>
                <path class="b" d="m48.19,263.91c-6.67,10.15-1.74,37.43,15.01,41.54,9.08-13.25-2.7-38.78-15.01-41.54Z"/>
                <path class="b" d="m22.62,281.24c-1.67,10.78,12.51,31.43,27.7,28.72,2.47-14.21-16.64-30.93-27.7-28.72Z"/>
                <path class="b" d="m0,309.3c5.29,9.54,29.15,17.17,39.49,5.71-6.76-12.74-32.1-14.24-39.49-5.71Z"/>
                <path class="b" d="m172.8,246.27c-16.36,17.3-20.42,38.25-8.22,52.27,17.49-9.46,20.67-33.9,8.22-52.27Z"/>
                <path class="b" d="m208.24,254.56c-21.07,15.38-28.86,37.14-17.3,54.68,21.13-6.7,28.47-32.4,17.3-54.68Z"/>
              </g>
              <path class="e" d="m35.34,320.13c1.73-.03,2.96-.81,4.24-1.53l3.85-2.15c1.26-.75,2.62-1.33,3.93-1.99l3.95-1.96,1.97-.98,2.02-.87,4.03-1.76c2.66-1.24,5.44-2.19,8.17-3.24,11-4.03,22.4-7,33.98-8.52,23.15-2.99,46.89-.85,68.53,6.76,10.82,3.77,21.06,9,30.36,15.4,9.29,6.42,17.56,14.14,24.5,22.81,1.68,2.21,3.31,4.46,4.93,6.69,1.45,2.36,2.9,4.71,4.23,7.12,1.21,2.49,2.44,4.95,3.51,7.47.96,2.58,2.02,5.1,2.9,7.68.41,1.31.8,2.62,1.22,3.9.4,1.3.93,2.54,1.22,3.88.32,1.32.71,2.62,1.06,3.93.36,1.3.81,2.57,1.1,3.9.3,1.32.61,2.64.95,3.95.32,1.32.67,2.62,1.11,3.91.41,1.3.97,2.57,1.72,3.83.76,1.25,1.68,2.49,3.05,3.68l.71.62c3.87,3.39,9.75,2.99,13.14-.88.56-.64,1.03-1.37,1.39-2.1.82-1.7,1.18-3.37,1.4-5.02.2-1.65.2-3.28.06-4.88-.15-1.6-.66-3.13-1.06-4.68-.41-1.55-.85-3.09-1.29-4.62-.97-3.05-2.2-6.03-3.4-9-1.28-2.94-2.81-5.78-4.28-8.61-.7-1.43-1.64-2.76-2.45-4.13l-2.53-4.06c-1.77-2.65-3.72-5.18-5.51-7.78-1.95-2.5-3.97-4.93-5.89-7.43-2.11-2.34-4.15-4.74-6.28-7.03-17.42-18.17-39.84-30.51-63.32-36.79-23.54-6.34-48.22-6.8-71.69-2.35-11.75,2.19-23.28,5.4-34.36,9.79-2.76,1.12-5.55,2.16-8.22,3.48l-4.04,1.89-2.01.95-1.96,1.06c-2.6,1.44-5.25,2.79-7.79,4.33l-3.78,2.36c-1.26.78-2.57,1.5-3.38,2.98Z"/>
              <g>
                <path class="j" d="m7.19,294.79c1.09,10.85,19.99,27.3,34.01,20.86-1.17-14.38-23.85-25.77-34.01-20.86Z"/>
                <path class="j" d="m32.48,274.54c-4.79,9.8,2.63,33.73,17.94,35.64,6.57-12.84-6.72-34.47-17.94-35.64Z"/>
                <path class="j" d="m52.66,262.47c-7.59,9.48-5.24,37.1,11.05,42.77,10.28-12.35.94-38.86-11.05-42.77Z"/>
                <path class="j" d="m71.47,253.52c-9.13,9.96-5.47,39.26,11.78,45.11,12.35-12.97,2.14-40.95-11.78-45.11Z"/>
                <path class="j" d="m97.78,243.96c-12.29,19.41-11.77,39.82,3.13,50.55,15.06-12.3,12.95-35.8-3.13-50.55Z"/>
                <path class="j" d="m122.64,240.32c-12.87,19.83-12.97,40.97,1.62,52.41,15.43-12.39,14.02-36.78-1.62-52.41Z"/>
                <path class="j" d="m153.83,242.77c-16.91,16.77-21.63,37.58-9.88,51.98,17.78-8.9,21.74-33.22,9.88-51.98Z"/>
                <path class="j" d="m184.85,249.36c-19.23,14.04-27.03,33.9-17.58,49.91,18.92-6.12,26.48-29.58,17.58-49.91Z"/>
                <path class="j" d="m222.45,260.61c-24.49,8.98-37.97,27.76-31.68,47.81,22.16-.63,36.29-23.31,31.68-47.81Z"/>
              </g>
            </g>
            <g>
              <path class="e" d="m272.92,236c-.4,1.24.04,1.98.41,2.77l1.09,2.37,1.93,4.85,1.72,4.93,1.52,5c1.85,6.72,3.18,13.6,3.89,20.55,1.34,13.93,1.1,27.97.26,41.97-.86,14.02-2.47,28.01-3.89,42.24-.34,3.56-.66,7.13-1.17,10.74-.51,3.61-1.12,7.26-1.58,10.98-.23,1.86-.4,3.75-.5,5.63-.05,1.92-.1,3.81.04,5.76.06.98.13,1.95.23,2.92.1.97.21,1.99.54,2.95.63,1.89,1.93,3.84,4.56,5.26,5.03,2.72,11.06,1.6,14.86-2.34l1.38-1.44c1.97-2.05,2.49-3.55,2.68-5.16.09-.79-.1-1.51-.19-2.29-.09-.78-.21-1.57-.33-2.35-.26-1.55-.48-3.2-.82-4.8-.26-1.65-.64-3.28-.98-4.95-.68-3.35-1.4-6.76-1.91-10.22-.52-3.46-.75-6.95-.98-10.46-.93-14.04-1.56-28.31-2.62-42.56-1.07-14.25-2.56-28.53-5.45-42.55-1.42-7-2.97-13.99-5.19-20.78l-1.77-5.06c-.65-1.66-1.36-3.3-2.05-4.95-.75-1.62-1.56-3.21-2.36-4.8l-1.33-2.32c-.44-.77-.81-1.59-2.02-1.91Z"/>
              <g>
                <path class="j" d="m274.69,219.58c8.19-2.07,8.85,22.48,4.96,23.44-3.89.96-11.24-21.85-4.96-23.44Z"/>
                <path class="b" d="m269.52,231.66c6.64-4.28,12,14.77,11.55,17.76-1.85,12.32-16.29-14.7-11.55-17.76Z"/>
                <path class="b" d="m282.37,230.55c8.65,4.73,4.31,23.63-1.58,22.83-5.89-.8-3.99-25.88,1.58-22.83Z"/>
                <path class="b" d="m272.2,245.1c4.78-1.26,15.79,13.97,9.66,17.81-5.34,3.34-14.44-16.55-9.66-17.81Z"/>
                <path class="j" d="m286.12,242.8c6.95,3.3,2.63,20.37-2.18,20.34-4.81-.03-3.65-23.11,2.18-20.34Z"/>
                <path class="j" d="m273.47,256.48c7.45-4.61,13.85,15.53,11.56,21.04-2.3,5.51-17.01-17.66-11.56-21.04Z"/>
                <path class="b" d="m274.98,268.26c3.28-3.02,15.63,19.5,12.86,26.15-2.77,6.65-18.56-20.91-12.86-26.15Z"/>
                <path class="j" d="m276.73,284.01c3.28-3.02,15.09,12.31,12.32,18.96-2.77,6.65-18.02-13.73-12.32-18.96Z"/>
                <path class="b" d="m277.36,297.63c3.52-3.24,15.84,10.29,12.87,17.43-2.97,7.14-18.98-11.81-12.87-17.43Z"/>
                <path class="b" d="m287.47,257.46c9.02,2.88.95,22.95-2.98,21.6-3.93-1.36-2.75-23.43,2.98-21.6Z"/>
                <path class="j" d="m289.25,268.04c7.14.84,2.05,23.23-2.01,21.43-4.06-1.8-4.41-22.18,2.01-21.43Z"/>
                <path class="b" d="m293.53,280.91c8.19,1.46-.76,24.8-5.3,22.44s-2.07-23.75,5.3-22.44Z"/>
                <path class="j" d="m295.35,292.9c8.62,1.53.9,28.78-7.88,23.78-4.68-2.66.13-25.16,7.88-23.78Z"/>
              </g>
            </g>
          </g>
          <path class="i" d="m295.79,381.11c73.76,0,86.05-3.61,88.78-3.11.34.06.71,1.02,1.36,2.61,8.01,19.4,16.69,94.91,12.91,125.11-3.55,28.4-29.21,54.98-103.06,55.04-73.86-.05-99.52-26.64-103.07-55.04-3.77-30.2,4.9-105.7,12.91-125.11.66-1.59,1.02-2.55,1.36-2.61,2.73-.5,15.02,3.1,88.79,3.11Z"/>
        </g>
        <g>
          <path class="c" d="m295.8,558.9c106.17-.38,103.37-91.13,103.37-91.13l28.55-.03,10.69,215.73-30.72-.03s1.64-92.31-111.89-92.49c-113.53.18-111.89,92.49-111.89,92.49l-30.72.03,10.81-215.73,28.44.03s-2.81,90.75,103.36,91.13Z"/>
          <g>
            <path class="h" d="m414.78,505.62c2.42-3.33,5.25-6.35,8.35-9.07,1.82-1.64,3.77-3.09,5.79-4.47l-.06-1.22c-5.68,3.87-10.92,8.5-15.01,14.08-5.03,6.76-8.21,14.85-9.34,23.19-1.17,8.35-.46,16.86,1.31,25.04,1.77,8.21,4.63,16.13,8.08,23.75,1.78,3.69,2.78,7.65,2.98,11.68.13,4.03-.57,8.08-1.99,11.88-2.81,7.65-7.96,14.28-13.8,20.01-3.58,3.5-7.47,6.69-11.56,9.6.45.61.88,1.21,1.31,1.82,4.15-3,8.11-6.28,11.75-9.91,5.94-5.93,11.22-12.81,14.11-20.88,1.46-4.01,2.17-8.31,1.99-12.6-.23-4.28-1.37-8.53-3.24-12.32-3.48-7.5-6.36-15.3-8.17-23.36-1.8-8.04-2.54-16.38-1.46-24.54,1.05-8.15,4.09-16.05,8.96-22.69Z"/>
            <path class="h" d="m272.88,563.72c1.18-2.04,2.48-4.02,3.85-5.96-.57-.07-1.12-.15-1.68-.22-1.24,1.75-2.42,3.55-3.52,5.4-.55.89-1.03,1.85-1.54,2.76-.49.89-.97,1.78-1.55,2.61-1.12,1.68-2.42,3.22-3.94,4.5-3.03,2.6-6.97,3.9-10.97,3.93-4.02.07-8.04-.89-11.92-2.2-3.89-1.31-7.67-3-11.45-4.72-1.89-.83-3.78-1.78-5.87-2.43-2.06-.63-4.21-1.01-6.36-1.11-4.31-.21-8.72.74-12.51,2.89-3.8,2.14-6.87,5.43-9.01,9.14-2.13,3.75-3.47,7.85-4.24,12.01-.79,4.17-1.08,8.39-1.05,12.6.08,8.29-.28,16.58-1.38,24.78-.55,4.1-1.26,8.18-2.21,12.2-.94,4.02-2.12,7.98-3.69,11.77-.82,1.88-1.72,3.72-2.84,5.4-1.11,1.66-2.48,3.22-4.17,4.04-.85.35-1.76.5-2.64.29-.86-.27-1.71-.71-2.4-1.41-1.46-1.3-2.38-3.17-3.68-4.88-1.3-1.66-2.74-3.36-4.89-4.22-1.06-.42-2.41-.36-3.42.28-1.01.62-1.67,1.56-2.19,2.5-1.01,1.92-1.55,3.98-1.95,6.04-.39,2.06-.63,4.14-.8,6.23-.42,5.85-.33,11.7-.01,17.53h.22c-.16-5.84-.12-11.68.42-17.47.21-2.06.5-4.11.93-6.13.44-2.01,1.01-4.01,1.99-5.75.5-.85,1.11-1.65,1.89-2.11.78-.47,1.71-.5,2.58-.16,1.75.71,3.15,2.32,4.36,3.93,1.19,1.6,2.12,3.57,3.76,5.1.76.79,1.79,1.38,2.9,1.73,1.16.3,2.39.12,3.45-.31,2.1-.98,3.56-2.7,4.78-4.44,1.21-1.77,2.18-3.66,3.05-5.59,3.34-7.77,5.07-16.04,6.24-24.31,1.16-8.29,1.56-16.67,1.53-25.02,0-4.11.3-8.23,1.08-12.23.76-4.01,2.07-7.91,4.08-11.4,2.03-3.46,4.81-6.49,8.28-8.45,3.45-1.98,7.49-2.87,11.48-2.69,2,.09,3.99.43,5.9,1.01,1.9.57,3.75,1.49,5.66,2.33,3.8,1.7,7.63,3.41,11.64,4.74,3.99,1.32,8.19,2.33,12.52,2.25,2.16-.05,4.33-.39,6.39-1.12,2.06-.73,3.98-1.86,5.62-3.28,1.65-1.42,3.03-3.1,4.2-4.9.6-.89,1.1-1.83,1.61-2.77.5-.91.94-1.82,1.47-2.71Z"/>
            <path class="h" d="m368.27,536.76c.37,1.57.82,3.1,1.31,4.62.99,3.04,2.17,5.99,3.44,8.89,2.54,5.8,5.43,11.4,8.18,17.02,2.71,5.62,5.45,11.3,6.85,17.27.34,1.49.58,2.99.63,4.49.08,1.5-.07,2.99-.46,4.4-.16.72-.48,1.37-.76,2.05-.37.63-.71,1.24-1.18,1.92-.87,1.33-1.71,2.7-2.44,4.14-.71,1.45-1.37,2.97-1.61,4.69-.11.85-.11,1.78.22,2.68.32.91.97,1.67,1.73,2.18.77.53,1.68.81,2.57.87.9.04,1.77-.1,2.58-.35,1.63-.51,3.04-1.41,4.31-2.4,2.52-2.02,4.72-4.36,6.43-7.15,1.66-2.8,2.45-6.07,2.52-9.27.05-6.45-1.75-12.59-3.52-18.6-1.81-6.03-3.78-11.99-5.56-18.01-.88-3.01-1.78-6.02-2.47-9.07-.66-3.06-1.13-6.15-1.41-9.27-.52-6.24-.24-12.53.64-18.73,1.72-12.45,5.96-24.35,9.37-36.44.83-3.03,1.59-6.09,2.13-9.2.33-1.89.54-3.8.62-5.72h-.44c-.2,5-1.43,9.96-2.73,14.8-1.68,6.05-3.62,12.02-5.32,18.08-1.71,6.05-3.15,12.18-4.09,18.41-.92,6.23-1.25,12.56-.77,18.85.26,3.14.71,6.27,1.36,9.36.68,3.09,1.56,6.11,2.42,9.13l5.42,18.05c1.69,6.01,3.37,12.15,3.23,18.32-.11,3.07-.89,6.09-2.47,8.68-1.59,2.54-3.79,4.84-6.19,6.7-1.2.92-2.51,1.72-3.9,2.12-.69.2-1.39.3-2.06.26-.67-.06-1.3-.27-1.83-.64-1.12-.74-1.49-2.02-1.25-3.43.21-1.4.82-2.81,1.51-4.16.71-1.35,1.53-2.66,2.39-3.94.44-.61.88-1.35,1.31-2.07.34-.77.71-1.53.91-2.35.46-1.61.65-3.29.58-4.92-.03-1.64-.26-3.26-.61-4.83-1.4-6.31-4.11-12.08-6.77-17.79-2.69-5.7-5.53-11.29-7.99-17.02-1.23-2.86-2.36-5.76-3.29-8.7-.46-1.47-.88-2.95-1.22-4.45-.11-.49-.23-1.02-.34-1.54-.67.6-1.36,1.19-2.06,1.78.02.1.05.2.07.31Z"/>
            <path class="h" d="m233.28,598.04c-1.92-2.62-3.88-5.28-6.37-7.53-1.23-1.13-2.64-2.12-4.22-2.81-1.58-.69-3.32-1.03-5.05-.97-.86.09-1.72.15-2.54.39-.81.15-1.73.51-2.47,1-1.51,1.01-2.53,2.46-3.36,3.92-1.64,2.96-2.54,6.16-3.29,9.35-.72,3.2-1.24,6.43-1.63,9.67-.71,5.88-1.07,11.78-1.27,17.69.52-.68,1.06-1.35,1.61-2.02.2-5.18.55-10.35,1.15-15.48.38-3.2.89-6.39,1.58-9.52.73-3.11,1.61-6.23,3.12-8.96.76-1.35,1.69-2.61,2.89-3.42.62-.39,1.23-.65,2.01-.8.74-.22,1.5-.27,2.26-.36,3.05-.14,5.97,1.26,8.26,3.4,2.34,2.11,4.27,4.7,6.18,7.3,1.02,1.38,2.02,2.78,3.07,4.17.43-.21.85-.42,1.29-.62-1.09-1.44-2.14-2.91-3.22-4.38Z"/>
            <path class="h" d="m165.2,482.96l2.32.65c.77.22,1.55.44,2.35.53,1.59.26,3.17.54,4.77.56.8.03,1.59.11,2.39.1l2.4-.08c.4-.02.8-.02,1.2-.05l1.19-.15,2.38-.3,2.35-.51,1.17-.26,1.15-.36,2.29-.72,2.22-.9c.06-.02.12-.05.19-.08-.08-.52-.16-1.04-.23-1.54-.18.08-.36.16-.54.23l-2.14.87-2.21.69-1.1.34-1.13.24-2.26.49-2.29.28-1.15.14c-.38.03-.77.03-1.15.04l-2.31.08c-.77,0-1.54-.07-2.31-.1-1.55-.02-3.06-.29-4.58-.52-.77-.08-1.51-.29-2.24-.5l-2.22-.61-2.14-.85-.2-.08-.08,1.58,1.93.78Z"/>
            <path class="h" d="m438.4,683.48l-1.04-20.97c-.44-1.97-.96-3.93-1.59-5.86-.99-2.95-2.2-5.87-3.92-8.57-.88-1.34-1.89-2.64-3.25-3.7-.68-.53-1.47-1-2.39-1.25-.92-.26-1.98-.25-2.91.09-1.87.72-2.97,2.2-3.8,3.58-.82,1.43-1.4,2.92-1.89,4.41-.49,1.51-.8,2.98-1.21,4.47-.36,1.49-.8,2.97-1.1,4.48-1.31,6-2.26,12.09-2.8,18.21-.13,1.69-.22,3.39-.28,5.08h1.57c.09-1.65.2-3.29.35-4.94.64-6.03,1.67-12.01,3.07-17.91.32-1.48.78-2.93,1.16-4.39.41-1.45.75-2.96,1.22-4.35.46-1.4,1.02-2.76,1.73-3.97.71-1.19,1.65-2.25,2.69-2.62,1.01-.37,2.17.01,3.21.86,1.04.83,1.94,1.97,2.72,3.18,1.56,2.45,2.71,5.22,3.65,8.05,1.84,5.69,2.77,11.68,3.11,17.68.14,2.8.13,5.62-.03,8.43h1.71Z"/>
            <path class="h" d="m162.21,559.95c1.78-2.65,3.28-5.45,4.65-8.31,2.71-5.72,4.91-11.65,6.83-17.66,1.9-6.02,3.51-12.13,4.7-18.34.31-1.57.54-3.07,1-4.5.4-1.45,1.07-2.78,1.94-3.88.88-1.1,2.06-1.84,3.42-2.15,1.36-.32,2.85-.21,4.32.06,2.95.54,5.86,1.71,8.75,2.87,1.6.66,3.21,1.33,4.82,2-.42-.84-.82-1.67-1.21-2.51-.97-.4-1.94-.8-2.91-1.2-2.93-1.17-5.9-2.36-9.13-2.95-1.61-.28-3.32-.43-5.04-.02-1.72.37-3.33,1.41-4.39,2.78-2.18,2.74-2.68,6.17-3.24,9.19-1.13,6.14-2.68,12.21-4.52,18.18-1.85,5.97-3.99,11.87-6.62,17.52-1.32,2.82-2.78,5.58-4.48,8.16-.57.83-1.18,1.62-1.82,2.38l-.1,2.07c1.15-1.14,2.12-2.41,3.02-3.7Z"/>
            <path class="h" d="m408.77,628.8c2.07-2.48,4.25-4.86,6.6-7.07,2.35-2.19,4.87-4.24,7.65-5.82,2.77-1.56,5.88-2.68,9.03-2.54,1.01.05,1.98.28,2.91.62l-.04-.83c-.91-.31-1.85-.52-2.82-.57-3.38-.16-6.62,1.01-9.48,2.61-5.73,3.28-10.38,8.02-14.63,12.95-3.92,4.62-7.45,9.56-10.62,14.73.22.43.43.86.64,1.29,3.17-5.39,6.76-10.55,10.75-15.37Z"/>
            <path class="h" d="m299.71,583.51c2.3-2.17,5.16-3.69,8.12-4.88,2.97-1.22,6.12-1.97,9.25-2.7,3.16-.65,6.35-1.2,9.56-1.61,1.6-.21,3.2-.4,4.86-.69,1.62-.39,3.24-.87,4.71-1.71,1.47-.82,2.82-1.88,3.91-3.19,1.1-1.3,1.87-2.86,2.31-4.5.9-3.29.33-6.89-1.39-9.81-.45-.77-.99-1.48-1.58-2.14-.39.13-.78.27-1.17.4.68.7,1.29,1.46,1.79,2.3,1.58,2.67,2.1,5.96,1.29,8.95-.4,1.49-1.1,2.91-2.1,4.09-.99,1.19-2.22,2.17-3.58,2.93-1.36.78-2.88,1.23-4.41,1.6-1.54.27-3.16.48-4.78.69-3.23.42-6.44.98-9.64,1.64-3.18.75-6.37,1.51-9.41,2.77-3.04,1.23-6.01,2.8-8.44,5.1-2.34,2.18-3.98,5.1-4.73,8.2.34,0,.68-.01,1.02-.01.74-2.84,2.25-5.45,4.4-7.45Z"/>
            <path class="h" d="m164.85,630.74c3.19-.63,6.04-2.39,8.34-4.6,2.3-2.47,3.04-5.73,3.64-8.8.56-3.12.81-6.27.99-9.41.6-12.57.25-25.16,1.52-37.63.66-6.22,1.66-12.44,3.8-18.29,1.07-2.91,2.4-5.75,4.24-8.23,1.82-2.47,4.09-4.65,6.7-6.24,2.62-1.59,5.64-2.41,8.7-2.58,3.06-.19,6.15.34,9.16,1.06,6.04,1.49,11.83,3.96,17.86,5.86.54.17,1.08.33,1.62.49-1.34-.87-2.64-1.76-3.88-2.67-5.05-1.67-10.06-3.6-15.32-4.84-3.09-.71-6.28-1.22-9.5-.99-3.21.2-6.41,1.11-9.17,2.8-2.75,1.69-5.08,3.96-6.97,6.55-1.89,2.59-3.25,5.51-4.32,8.49-2.15,5.98-3.13,12.27-3.76,18.53-1.24,12.55-.75,25.16-1.4,37.67-.19,3.13-.44,6.25-1,9.32-.57,3.02-1.36,6.19-3.43,8.37-2.22,2.12-4.94,3.78-7.94,4.37-2.99.64-6.16-.06-8.74-1.67,0,0,0,0,0,0l-.05.93c2.67,1.54,5.9,2.2,8.94,1.54Z"/>
            <path class="h" d="m277.48,580.71c1.62-2.78,3.42-5.45,5.4-7.98,1.99-2.52,4.22-4.85,6.56-7.04,2.82-2.53,5.86-4.81,9.06-6.84-.76.01-1.52.03-2.29.04-2.66,1.78-5.21,3.75-7.6,5.89-2.4,2.23-4.68,4.6-6.72,7.17-2.03,2.58-3.87,5.3-5.52,8.12-2.41,4.09-4.36,8.41-6.28,12.7.51-.07,1.01-.15,1.52-.22,1.8-4.04,3.63-8.05,5.86-11.84Z"/>
            <path class="h" d="m336.43,587.59c-2.08.62-4.03,1.63-5.74,2.92-.9.59-1.66,1.33-2.5,1.99-.43.39-.84.79-1.26,1.19.62.12,1.26.23,1.87.35.14-.14.27-.28.41-.41.78-.65,1.5-1.39,2.33-1.96,1.58-1.27,3.37-2.24,5.24-2.87,1.88-.61,3.91-.7,5.84-.22,1.94.47,3.77,1.42,5.49,2.53,3.47,2.22,6.58,5.05,10.22,7.18,1.81,1.06,3.76,1.93,5.83,2.39,2.06.47,4.21.51,6.29.13,2.05-.43,4.1-1.13,5.79-2.42,1.71-1.28,2.88-3.22,3.33-5.28.48-2.07.42-4.2.16-6.28-.34-2.07-.82-4.11-1.51-6.09-1.32-3.97-3.13-7.75-5.13-11.4-4.03-7.31-8.84-14.15-14-20.68-1.01-1.26-2.04-2.5-3.07-3.74-.16.09-.33.18-.49.28,1.06,1.26,2.11,2.52,3.14,3.81,5.17,6.5,9.99,13.31,14.02,20.57,2,3.63,3.81,7.39,5.13,11.31.69,1.95,1.17,3.97,1.51,6.01.26,2.04.32,4.13-.14,6.12-.43,1.99-1.54,3.85-3.19,5.06-1.64,1.22-3.62,1.89-5.63,2.3-2.02.35-4.11.3-6.1-.17-1.99-.48-3.87-1.36-5.63-2.42-3.54-2.13-6.56-5.02-10.03-7.4-1.74-1.18-3.62-2.25-5.72-2.82-2.09-.59-4.37-.56-6.46.05Z"/>
          </g>
          <polygon class="d" points="421.85 467.75 427.71 467.75 438.4 683.48 432.58 683.47 421.85 467.75"/>
          <polygon class="d" points="169.74 467.75 163.87 467.75 153.18 683.48 159 683.47 169.74 467.75"/>
        </g>
        <polygon class="g" points="274.42 692.08 317.16 692.08 310.04 476.37 281.54 476.37 274.42 692.08"/>
      </g>
    </g>
  </g>
</svg>